ISO-10303-21;
HEADER;
FILE_DESCRIPTION(('Open CASCADE Model'),'2;1');
FILE_NAME('Open CASCADE Shape Model','2026-10-09T00:38:03',('Author'),(
    'Open CASCADE'),'Open CASCADE STEP processor 8.0','build123d',
  'Unknown');
FILE_SCHEMA(('AUTOMOTIVE_DESIGN { 1 0 10303 214 1 1 1 1 }'));
ENDSEC;
DATA;
#1 = APPLICATION_PROTOCOL_DEFINITION('international standard',
  'automotive_design',2000,#2);
#2 = APPLICATION_CONTEXT(
  'core data for automotive mechanical design processes');
#3 = SHAPE_DEFINITION_REPRESENTATION(#4,#10);
#4 = PRODUCT_DEFINITION_SHAPE('','',#5);
#5 = PRODUCT_DEFINITION('design','',#6,#9);
#6 = PRODUCT_DEFINITION_FORMATION('','',#7);
#7 = PRODUCT('COMPOUND','COMPOUND','',(#8));
#8 = PRODUCT_CONTEXT('',#2,'mechanical');
#9 = PRODUCT_DEFINITION_CONTEXT('part definition',#2,'design');
#10 = ADVANCED_BREP_SHAPE_REPRESENTATION('',(#11,#15),#78);
#11 = AXIS2_PLACEMENT_3D('',#12,#13,#14);
#12 = CARTESIAN_POINT('',(0.,0.,0.));
#13 = DIRECTION('',(0.,0.,1.));
#14 = DIRECTION('',(1.,0.,-0.));
#15 = MANIFOLD_SOLID_BREP('',#16);
#16 = CLOSED_SHELL('',(#17));
#17 = ADVANCED_FACE('',(#18),#22,.T.);
#18 = FACE_BOUND('',#19,.T.);
#19 = VERTEX_LOOP('',#20);
#20 = VERTEX_POINT('',#21);
#21 = CARTESIAN_POINT('',(0.,0.,68.8));
#22 = SURFACE_OF_REVOLUTION('',#23,#75);
#23 = B_SPLINE_CURVE_WITH_KNOTS('',3,(#24,#25,#26,#27,#28,#29,#30,#31,
    #32,#33,#34,#35,#36,#37,#38,#39,#40,#41,#42,#43,#44,#45,#46,#47,#48,
    #49,#50,#51,#52,#53,#54,#55,#56,#57,#58,#59,#60,#61,#62,#63,#64,#65,
    #66,#67,#68,#69,#70,#71,#72,#73,#74),.UNSPECIFIED.,.F.,.F.,(4,1,1,1,
    1,1,1,1,1,1,1,1,1,1,1,1,1,1,1,1,1,1,1,1,1,1,1,1,1,1,1,1,1,1,1,1,1,1,
    1,1,1,1,1,1,1,1,1,1,4),(0.,1.618534957731,3.251528636278,
    4.912742997181,6.614639887613,8.367935593422,10.181335264638,
    12.061431852084,14.012732939013,16.037773895187,18.137281306878,
    20.310360239473,22.554688320974,24.866707026176,27.241805575556,
    29.674495925335,32.158578975443,34.687302856451,37.253514339744,
    39.849804289213,42.468647785899,45.102539194902,47.744122052377,
    50.386313251955,53.022420614567,55.646252537842,58.25221804612,
    60.835415209088,63.391705584933,65.917772104167,68.411157690443,
    70.870281978228,73.294433809747,75.683737850998,78.039094715618,
    80.362095436408,82.654912913113,84.920174933628,87.16082526535,
    89.379980838779,91.580793900191,93.766327983963,95.939455587911,
    98.102783639291,100.25861047055,102.40891541111,104.55537956244,
    106.69943410137,108.84233068731),.UNSPECIFIED.);
#24 = CARTESIAN_POINT('',(0.,0.,0.));
#25 = CARTESIAN_POINT('',(0.466360433351,0.,0.));
#26 = CARTESIAN_POINT('',(1.395713107726,0.,4.965598171346E-02));
#27 = CARTESIAN_POINT('',(2.790176331233,0.,0.272355094807));
#28 = CARTESIAN_POINT('',(4.175945505178,0.,0.642148665634));
#29 = CARTESIAN_POINT('',(5.551720903885,0.,1.157080013855));
#30 = CARTESIAN_POINT('',(6.913587805797,0.,1.81456301822));
#31 = CARTESIAN_POINT('',(8.258370291112,0.,2.61145812495));
#32 = CARTESIAN_POINT('',(9.582605941481,0.,3.544116315318));
#33 = CARTESIAN_POINT('',(10.882741143232,0.,4.608396636963));
#34 = CARTESIAN_POINT('',(12.155006641149,0.,5.799669638126));
#35 = CARTESIAN_POINT('',(13.395408985864,0.,7.112817576937));
#36 = CARTESIAN_POINT('',(14.599712540631,0.,8.542237930282));
#37 = CARTESIAN_POINT('',(15.763442828154,0.,10.081852879101));
#38 = CARTESIAN_POINT('',(16.881898364456,0.,11.725125104699));
#39 = CARTESIAN_POINT('',(17.950171712055,0.,13.465079169495));
#40 = CARTESIAN_POINT('',(18.963177747354,0.,15.294327459487));
#41 = CARTESIAN_POINT('',(19.915688628506,0.,17.20509972281));
#42 = CARTESIAN_POINT('',(20.802374891587,0.,19.189275410542));
#43 = CARTESIAN_POINT('',(21.617852232545,0.,21.23841820123));
#44 = CARTESIAN_POINT('',(22.356733463558,0.,23.34381223042));
#45 = CARTESIAN_POINT('',(23.013685046777,0.,25.496499644624));
#46 = CARTESIAN_POINT('',(23.583487501945,0.,27.687319162184));
#47 = CARTESIAN_POINT('',(24.061098885864,0.,29.906945360789));
#48 = CARTESIAN_POINT('',(24.441720459359,0.,32.145928432097));
#49 = CARTESIAN_POINT('',(24.720863598021,0.,34.394734155958));
#50 = CARTESIAN_POINT('',(24.894416969888,0.,36.643783857466));
#51 = CARTESIAN_POINT('',(24.958712996993,0.,38.883494126512));
#52 = CARTESIAN_POINT('',(24.910592636399,0.,41.104316108893));
#53 = CARTESIAN_POINT('',(24.747467554447,0.,43.296774227223));
#54 = CARTESIAN_POINT('',(24.467378813631,0.,45.45150426379));
#55 = CARTESIAN_POINT('',(24.069051233739,0.,47.559290836544));
#56 = CARTESIAN_POINT('',(23.551942591122,0.,49.611104415106));
#57 = CARTESIAN_POINT('',(22.91628682656,0.,51.598138135212));
#58 = CARTESIAN_POINT('',(22.163130204186,0.,53.511844741895));
#59 = CARTESIAN_POINT('',(21.294359753614,0.,55.343973979006));
#60 = CARTESIAN_POINT('',(20.312721305257,0.,57.086610603687));
#61 = CARTESIAN_POINT('',(19.221831291585,0.,58.732212922839));
#62 = CARTESIAN_POINT('',(18.026161266135,0.,60.273651356276));
#63 = CARTESIAN_POINT('',(16.731067173615,0.,61.704246117005));
#64 = CARTESIAN_POINT('',(15.342595572794,0.,63.017802791663));
#65 = CARTESIAN_POINT('',(13.868050913027,0.,64.208644525061));
#66 = CARTESIAN_POINT('',(12.313700391222,0.,65.271639719537));
#67 = CARTESIAN_POINT('',(10.692998976651,0.,66.202224610927));
#68 = CARTESIAN_POINT('',(8.995843359723,0.,66.996420649663));
#69 = CARTESIAN_POINT('',(7.302242410925,0.,67.650847136646));
#70 = CARTESIAN_POINT('',(5.359826759098,0.,68.162729912984));
#71 = CARTESIAN_POINT('',(4.154498212044,0.,68.529907031707));
#72 = CARTESIAN_POINT('',(6.29180954673E-02,0.,68.750832277428));
#73 = CARTESIAN_POINT('',(4.449570043541,0.,68.8));
#74 = CARTESIAN_POINT('',(0.,0.,68.8));
#75 = AXIS1_PLACEMENT('',#76,#77);
#76 = CARTESIAN_POINT('',(0.,0.,0.));
#77 = DIRECTION('',(0.,0.,1.));
#78 = ( GEOMETRIC_REPRESENTATION_CONTEXT(3) 
GLOBAL_UNCERTAINTY_ASSIGNED_CONTEXT((#82)) GLOBAL_UNIT_ASSIGNED_CONTEXT(
(#79,#80,#81)) REPRESENTATION_CONTEXT('Context #1',
  '3D Context with UNIT and UNCERTAINTY') );
#79 = ( LENGTH_UNIT() NAMED_UNIT(*) SI_UNIT(.MILLI.,.METRE.) );
#80 = ( NAMED_UNIT(*) PLANE_ANGLE_UNIT() SI_UNIT($,.RADIAN.) );
#81 = ( NAMED_UNIT(*) SI_UNIT($,.STERADIAN.) SOLID_ANGLE_UNIT() );
#82 = UNCERTAINTY_MEASURE_WITH_UNIT(LENGTH_MEASURE(1.E-07),#79,
  'distance_accuracy_value','confusion accuracy');
#83 = PRODUCT_RELATED_PRODUCT_CATEGORY('part',$,(#7));
ENDSEC;
END-ISO-10303-21;
