ISO-10303-21;
HEADER;
FILE_DESCRIPTION(('Open CASCADE Model'),'2;1');
FILE_NAME('Open CASCADE Shape Model','2026-10-09T00:37:59',('Author'),(
    'Open CASCADE'),'Open CASCADE STEP processor 8.0','build123d',
  'Unknown');
FILE_SCHEMA(('AUTOMOTIVE_DESIGN { 1 0 10303 214 1 1 1 1 }'));
ENDSEC;
DATA;
#1 = APPLICATION_PROTOCOL_DEFINITION('international standard',
  'automotive_design',2000,#2);
#2 = APPLICATION_CONTEXT(
  'core data for automotive mechanical design processes');
#3 = SHAPE_DEFINITION_REPRESENTATION(#4,#10);
#4 = PRODUCT_DEFINITION_SHAPE('','',#5);
#5 = PRODUCT_DEFINITION('design','',#6,#9);
#6 = PRODUCT_DEFINITION_FORMATION('','',#7);
#7 = PRODUCT('COMPOUND','COMPOUND','',(#8));
#8 = PRODUCT_CONTEXT('',#2,'mechanical');
#9 = PRODUCT_DEFINITION_CONTEXT('part definition',#2,'design');
#10 = ADVANCED_BREP_SHAPE_REPRESENTATION('',(#11,#15),#141);
#11 = AXIS2_PLACEMENT_3D('',#12,#13,#14);
#12 = CARTESIAN_POINT('',(0.,0.,0.));
#13 = DIRECTION('',(0.,0.,1.));
#14 = DIRECTION('',(1.,0.,-0.));
#15 = BREP_WITH_VOIDS('',#16,(#78));
#16 = CLOSED_SHELL('',(#17));
#17 = ADVANCED_FACE('',(#18),#22,.T.);
#18 = FACE_BOUND('',#19,.T.);
#19 = VERTEX_LOOP('',#20);
#20 = VERTEX_POINT('',#21);
#21 = CARTESIAN_POINT('',(0.,0.,80.));
#22 = SURFACE_OF_REVOLUTION('',#23,#75);
#23 = B_SPLINE_CURVE_WITH_KNOTS('',3,(#24,#25,#26,#27,#28,#29,#30,#31,
    #32,#33,#34,#35,#36,#37,#38,#39,#40,#41,#42,#43,#44,#45,#46,#47,#48,
    #49,#50,#51,#52,#53,#54,#55,#56,#57,#58,#59,#60,#61,#62,#63,#64,#65,
    #66,#67,#68,#69,#70,#71,#72,#73,#74),.UNSPECIFIED.,.F.,.F.,(4,1,1,1,
    1,1,1,1,1,1,1,1,1,1,1,1,1,1,1,1,1,1,1,1,1,1,1,1,1,1,1,1,1,1,1,1,1,1,
    1,1,1,1,1,1,1,1,1,1,4),(0.,1.618534957731,3.251528636278,
    4.912742997181,6.614639887613,8.367935593422,10.181335264638,
    12.061431852084,14.012732939013,16.037773895187,18.137281306878,
    20.310360239473,22.554688320974,24.866707026176,27.241805575556,
    29.674495925335,32.158578975443,34.687302856451,37.253514339744,
    39.849804289213,42.468647785899,45.102539194902,47.744122052377,
    50.386313251955,53.022420614567,55.646252537842,58.25221804612,
    60.835415209088,63.391705584933,65.917772104167,68.411157690443,
    70.870281978228,73.294433809747,75.683737850998,78.039094715618,
    80.362095436408,82.654912913113,84.920174933628,87.16082526535,
    89.379980838779,91.580793900191,93.766327983963,95.939455587911,
    98.102783639291,100.25861047055,102.40891541111,104.55537956244,
    106.69943410137,108.84233068731),.UNSPECIFIED.);
#24 = CARTESIAN_POINT('',(0.,0.,0.));
#25 = CARTESIAN_POINT('',(0.542279573664,0.,0.));
#26 = CARTESIAN_POINT('',(1.622922218286,0.,5.77395136203E-02));
#27 = CARTESIAN_POINT('',(3.244391082829,0.,0.316691970706));
#28 = CARTESIAN_POINT('',(4.855750587416,0.,0.746684494923));
#29 = CARTESIAN_POINT('',(6.455489423122,0.,1.345441876576));
#30 = CARTESIAN_POINT('',(8.039055588136,0.,2.10995699793));
#31 = CARTESIAN_POINT('',(9.602756152456,0.,3.036579215058));
#32 = CARTESIAN_POINT('',(11.142565048233,0.,4.121065482928));
#33 = CARTESIAN_POINT('',(12.654350166548,0.,5.358600740655));
#34 = CARTESIAN_POINT('',(14.133728652499,0.,6.743801904798));
#35 = CARTESIAN_POINT('',(15.576056960307,0.,8.270718112717));
#36 = CARTESIAN_POINT('',(16.976409930966,0.,9.932834802653));
#37 = CARTESIAN_POINT('',(18.3295846839,0.,11.723084743141));
#38 = CARTESIAN_POINT('',(19.630114377275,0.,13.633866400812));
#39 = CARTESIAN_POINT('',(20.872292688436,0.,15.657068801738));
#40 = CARTESIAN_POINT('',(22.05020668297,0.,17.784101697078));
#41 = CARTESIAN_POINT('',(23.157777475008,0.,20.005929910245));
#42 = CARTESIAN_POINT('',(24.188808013474,0.,22.313110942491));
#43 = CARTESIAN_POINT('',(25.137037479704,0.,24.695835117709));
#44 = CARTESIAN_POINT('',(25.996201701811,0.,27.14396770979));
#45 = CARTESIAN_POINT('',(26.760098891602,0.,29.647092610028));
#46 = CARTESIAN_POINT('',(27.422659885982,0.,32.19455716533));
#47 = CARTESIAN_POINT('',(27.978021960307,0.,34.775517861383));
#48 = CARTESIAN_POINT('',(28.420605185301,0.,37.37898654895));
#49 = CARTESIAN_POINT('',(28.745190230257,0.,39.993876925532));
#50 = CARTESIAN_POINT('',(28.946996476614,0.,42.609050997053));
#51 = CARTESIAN_POINT('',(29.021759298829,0.,45.213365263386));
#52 = CARTESIAN_POINT('',(28.965805391161,0.,47.79571640569));
#53 = CARTESIAN_POINT('',(28.776125063311,0.,50.345086310724));
#54 = CARTESIAN_POINT('',(28.450440480967,0.,52.850586353245));
#55 = CARTESIAN_POINT('',(27.987268876441,0.,55.301500972725));
#56 = CARTESIAN_POINT('',(27.385979757118,0.,57.687330715239));
#57 = CARTESIAN_POINT('',(26.646845147162,0.,59.997835040944));
#58 = CARTESIAN_POINT('',(25.771081632774,0.,62.223075281273));
#59 = CARTESIAN_POINT('',(24.760883434434,0.,64.353458115124));
#60 = CARTESIAN_POINT('',(23.619443378206,0.,66.379779771729));
#61 = CARTESIAN_POINT('',(22.350966618122,0.,68.29327084051));
#62 = CARTESIAN_POINT('',(20.960652635041,0.,70.085641111949));
#63 = CARTESIAN_POINT('',(19.454729271645,0.,71.749123391867));
#64 = CARTESIAN_POINT('',(17.840227410225,0.,73.276514874027));
#65 = CARTESIAN_POINT('',(16.125640596543,0.,74.661214564024));
#66 = CARTESIAN_POINT('',(14.318256268863,0.,75.897255487833));
#67 = CARTESIAN_POINT('',(12.433719740292,0.,76.979330942938));
#68 = CARTESIAN_POINT('',(10.460282976422,0.,77.90281470891));
#69 = CARTESIAN_POINT('',(8.490979547587,0.,78.663775740286));
#70 = CARTESIAN_POINT('',(6.232356696626,0.,79.258988270912));
#71 = CARTESIAN_POINT('',(4.83081187447,0.,79.685938408962));
#72 = CARTESIAN_POINT('',(7.316057612477E-02,0.,79.942828229568));
#73 = CARTESIAN_POINT('',(5.173918655281,-0.,80.));
#74 = CARTESIAN_POINT('',(0.,0.,80.));
#75 = AXIS1_PLACEMENT('',#76,#77);
#76 = CARTESIAN_POINT('',(0.,0.,0.));
#77 = DIRECTION('',(0.,0.,1.));
#78 = ORIENTED_CLOSED_SHELL('',*,#79,.F.);
#79 = CLOSED_SHELL('',(#80));
#80 = ADVANCED_FACE('',(#81),#85,.T.);
#81 = FACE_BOUND('',#82,.T.);
#82 = VERTEX_LOOP('',#83);
#83 = VERTEX_POINT('',#84);
#84 = CARTESIAN_POINT('',(0.,0.,78.6));
#85 = SURFACE_OF_REVOLUTION('',#86,#138);
#86 = B_SPLINE_CURVE_WITH_KNOTS('',3,(#87,#88,#89,#90,#91,#92,#93,#94,
    #95,#96,#97,#98,#99,#100,#101,#102,#103,#104,#105,#106,#107,#108,
    #109,#110,#111,#112,#113,#114,#115,#116,#117,#118,#119,#120,#121,
    #122,#123,#124,#125,#126,#127,#128,#129,#130,#131,#132,#133,#134,
    #135,#136,#137),.UNSPECIFIED.,.F.,.F.,(4,1,1,1,1,1,1,1,1,1,1,1,1,1,1
    ,1,1,1,1,1,1,1,1,1,1,1,1,1,1,1,1,1,1,1,1,1,1,1,1,1,1,1,1,1,1,1,1,1,4
    ),(0.,1.540459368171,3.095157644536,4.677637812551,6.300146858797,
    7.973196977535,9.705309056908,11.502921087312,13.370422975961,
    15.310275062057,17.323173988284,19.408239757869,21.563207493836,
    23.784614840929,26.067980904206,28.407975566211,30.798579568423,
    33.233236394767,35.704997122524,38.206659247313,40.73090018759,
    43.270405811442,45.817993947007,48.366732457764,50.910051093443,
    53.441845969682,55.956575187869,58.449343787617,60.91597594263,
    63.353072091233,65.758048574502,68.129157390584,70.46548392787,
    72.766921079571,75.034119022374,77.268411181751,79.471718465178,
    81.646435601026,83.795305171172,85.921286404813,88.027426735396,
    90.116744295743,92.192128842325,94.256267115116,96.311596551613,
    98.360288867185,100.40426258811,102.4452214276,104.48471359075),
  .UNSPECIFIED.);
#87 = CARTESIAN_POINT('',(0.,0.,1.4));
#88 = CARTESIAN_POINT('',(0.516201835808,0.,1.4));
#89 = CARTESIAN_POINT('',(1.544778646496,0.,1.455739028915));
#90 = CARTESIAN_POINT('',(3.088223639104,0.,1.705700273309));
#91 = CARTESIAN_POINT('',(4.621937077405,0.,2.120744019514));
#92 = CARTESIAN_POINT('',(6.144547087026,0.,2.698654342014));
#93 = CARTESIAN_POINT('',(7.651704724005,0.,3.436512295954));
#94 = CARTESIAN_POINT('',(9.139913047898,0.,4.330784534417));
#95 = CARTESIAN_POINT('',(10.605352237784,0.,5.377372621632));
#96 = CARTESIAN_POINT('',(12.044102512549,0.,6.571630850396));
#97 = CARTESIAN_POINT('',(13.452001932893,0.,7.908367916765));
#98 = CARTESIAN_POINT('',(14.824637653574,0.,9.381845455051));
#99 = CARTESIAN_POINT('',(16.157326235923,0.,10.985780938485));
#100 = CARTESIAN_POINT('',(17.445118090292,0.,12.713357826339));
#101 = CARTESIAN_POINT('',(18.682811158308,0.,14.557243137008));
#102 = CARTESIAN_POINT('',(19.864974692292,0.,16.509611468748));
#103 = CARTESIAN_POINT('',(20.985980873972,0.,18.562174214538));
#104 = CARTESIAN_POINT('',(22.040043741558,0.,20.706212829606));
#105 = CARTESIAN_POINT('',(23.021264820699,0.,22.932615234414));
#106 = CARTESIAN_POINT('',(23.923684997584,0.,25.231914650794));
#107 = CARTESIAN_POINT('',(24.741342088227,0.,27.594330335147));
#108 = CARTESIAN_POINT('',(25.468333456966,0.,30.009809787168));
#109 = CARTESIAN_POINT('',(26.098882913934,0.,32.46807208514));
#110 = CARTESIAN_POINT('',(26.627411007869,0.,34.958652041364));
#111 = CARTESIAN_POINT('',(27.04860773563,0.,37.470944894463));
#112 = CARTESIAN_POINT('',(27.357506620426,0.,39.994251268217));
#113 = CARTESIAN_POINT('',(27.54955907023,0.,42.517822136936));
#114 = CARTESIAN_POINT('',(27.620707917152,0.,45.030903552724));
#115 = CARTESIAN_POINT('',(27.567459055724,0.,47.522780917496));
#116 = CARTESIAN_POINT('',(27.386950138362,0.,49.982822629503));
#117 = CARTESIAN_POINT('',(27.077015337943,0.,52.400523005909));
#118 = CARTESIAN_POINT('',(26.636245241002,0.,54.765544481029));
#119 = CARTESIAN_POINT('',(26.064040950861,0.,57.067759197821));
#120 = CARTESIAN_POINT('',(25.360661511139,0.,59.297290229325));
#121 = CARTESIAN_POINT('',(24.527263529057,0.,61.444552754085));
#122 = CARTESIAN_POINT('',(23.565932358186,0.,63.50029552012));
#123 = CARTESIAN_POINT('',(22.479701896702,0.,65.455642820767));
#124 = CARTESIAN_POINT('',(21.272567924445,0.,67.302136947251));
#125 = CARTESIAN_POINT('',(19.949470948539,0.,69.031780695947));
#126 = CARTESIAN_POINT('',(18.516330980494,0.,70.637079070025));
#127 = CARTESIAN_POINT('',(16.979828194129,0.,72.111078951066));
#128 = CARTESIAN_POINT('',(15.348051834135,0.,73.447405360048));
#129 = CARTESIAN_POINT('',(13.627890478733,0.,74.640293062451));
#130 = CARTESIAN_POINT('',(11.834380821659,0.,75.684612687216));
#131 = CARTESIAN_POINT('',(9.955822034049,0.,76.575891112843));
#132 = CARTESIAN_POINT('',(8.082590349111,0.,77.310326461314));
#133 = CARTESIAN_POINT('',(5.928916172618,0.,77.884798482139));
#134 = CARTESIAN_POINT('',(4.609064240549,0.,78.296875325166));
#135 = CARTESIAN_POINT('',(2.932233080523E-02,0.,78.544817696809));
#136 = CARTESIAN_POINT('',(5.010619697655,0.,78.6));
#137 = CARTESIAN_POINT('',(0.,0.,78.6));
#138 = AXIS1_PLACEMENT('',#139,#140);
#139 = CARTESIAN_POINT('',(0.,0.,1.4));
#140 = DIRECTION('',(0.,0.,1.));
#141 = ( GEOMETRIC_REPRESENTATION_CONTEXT(3) 
GLOBAL_UNCERTAINTY_ASSIGNED_CONTEXT((#145)) GLOBAL_UNIT_ASSIGNED_CONTEXT
((#142,#143,#144)) REPRESENTATION_CONTEXT('Context #1',
  '3D Context with UNIT and UNCERTAINTY') );
#142 = ( LENGTH_UNIT() NAMED_UNIT(*) SI_UNIT(.MILLI.,.METRE.) );
#143 = ( NAMED_UNIT(*) PLANE_ANGLE_UNIT() SI_UNIT($,.RADIAN.) );
#144 = ( NAMED_UNIT(*) SI_UNIT($,.STERADIAN.) SOLID_ANGLE_UNIT() );
#145 = UNCERTAINTY_MEASURE_WITH_UNIT(LENGTH_MEASURE(1.E-07),#142,
  'distance_accuracy_value','confusion accuracy');
#146 = PRODUCT_RELATED_PRODUCT_CATEGORY('part',$,(#7));
ENDSEC;
END-ISO-10303-21;
