ISO-10303-21;
HEADER;
FILE_DESCRIPTION(('Open CASCADE Model'),'2;1');
FILE_NAME('Open CASCADE Shape Model','2026-10-05T00:31:08',('Author'),(
    'Open CASCADE'),'Open CASCADE STEP processor 8.0','build123d',
  'Unknown');
FILE_SCHEMA(('AUTOMOTIVE_DESIGN { 1 0 10303 214 1 1 1 1 }'));
ENDSEC;
DATA;
#1 = APPLICATION_PROTOCOL_DEFINITION('international standard',
  'automotive_design',2000,#2);
#2 = APPLICATION_CONTEXT(
  'core data for automotive mechanical design processes');
#3 = SHAPE_DEFINITION_REPRESENTATION(#4,#10);
#4 = PRODUCT_DEFINITION_SHAPE('','',#5);
#5 = PRODUCT_DEFINITION('design','',#6,#9);
#6 = PRODUCT_DEFINITION_FORMATION('','',#7);
#7 = PRODUCT('COMPOUND','COMPOUND','',(#8));
#8 = PRODUCT_CONTEXT('',#2,'mechanical');
#9 = PRODUCT_DEFINITION_CONTEXT('part definition',#2,'design');
#10 = ADVANCED_BREP_SHAPE_REPRESENTATION('',(#11,#15),#1223);
#11 = AXIS2_PLACEMENT_3D('',#12,#13,#14);
#12 = CARTESIAN_POINT('',(0.,0.,0.));
#13 = DIRECTION('',(0.,0.,1.));
#14 = DIRECTION('',(1.,0.,-0.));
#15 = MANIFOLD_SOLID_BREP('',#16);
#16 = CLOSED_SHELL('',(#17,#85,#141,#302,#357,#417,#467,#517,#1111,#1164
    ,#1216));
#17 = ADVANCED_FACE('',(#18,#54),#31,.F.);
#18 = FACE_BOUND('',#19,.T.);
#19 = EDGE_LOOP('',(#20));
#20 = ORIENTED_EDGE('',*,*,#21,.F.);
#21 = EDGE_CURVE('',#22,#22,#24,.T.);
#22 = VERTEX_POINT('',#23);
#23 = CARTESIAN_POINT('',(0.,2.9,0.));
#24 = SURFACE_CURVE('',#25,(#30,#42),.PCURVE_S1.);
#25 = CIRCLE('',#26,2.9);
#26 = AXIS2_PLACEMENT_3D('',#27,#28,#29);
#27 = CARTESIAN_POINT('',(0.,0.,0.));
#28 = DIRECTION('',(1.,0.,0.));
#29 = DIRECTION('',(-0.,1.,0.));
#30 = PCURVE('',#31,#36);
#31 = PLANE('',#32);
#32 = AXIS2_PLACEMENT_3D('',#33,#34,#35);
#33 = CARTESIAN_POINT('',(0.,0.,0.));
#34 = DIRECTION('',(1.,0.,0.));
#35 = DIRECTION('',(-0.,1.,0.));
#36 = DEFINITIONAL_REPRESENTATION('',(#37),#41);
#37 = CIRCLE('',#38,2.9);
#38 = AXIS2_PLACEMENT_2D('',#39,#40);
#39 = CARTESIAN_POINT('',(0.,0.));
#40 = DIRECTION('',(1.,-0.));
#41 = ( GEOMETRIC_REPRESENTATION_CONTEXT(2) 
PARAMETRIC_REPRESENTATION_CONTEXT() REPRESENTATION_CONTEXT('2D SPACE',''
  ) );
#42 = PCURVE('',#43,#48);
#43 = TOROIDAL_SURFACE('',#44,2.9,1.6);
#44 = AXIS2_PLACEMENT_3D('',#45,#46,#47);
#45 = CARTESIAN_POINT('',(1.6,0.,0.));
#46 = DIRECTION('',(1.,0.,0.));
#47 = DIRECTION('',(-0.,1.,0.));
#48 = DEFINITIONAL_REPRESENTATION('',(#49),#53);
#49 = LINE('',#50,#51);
#50 = CARTESIAN_POINT('',(0.,4.712388980385));
#51 = VECTOR('',#52,1.);
#52 = DIRECTION('',(1.,0.));
#53 = ( GEOMETRIC_REPRESENTATION_CONTEXT(2) 
PARAMETRIC_REPRESENTATION_CONTEXT() REPRESENTATION_CONTEXT('2D SPACE',''
  ) );
#54 = FACE_BOUND('',#55,.T.);
#55 = EDGE_LOOP('',(#56));
#56 = ORIENTED_EDGE('',*,*,#57,.T.);
#57 = EDGE_CURVE('',#58,#58,#60,.T.);
#58 = VERTEX_POINT('',#59);
#59 = CARTESIAN_POINT('',(0.,-5.182705253992E-16,-2.116));
#60 = SURFACE_CURVE('',#61,(#66,#73),.PCURVE_S1.);
#61 = CIRCLE('',#62,2.116);
#62 = AXIS2_PLACEMENT_3D('',#63,#64,#65);
#63 = CARTESIAN_POINT('',(0.,0.,2.22044604925E-16));
#64 = DIRECTION('',(1.,0.,2.22044604925E-16));
#65 = DIRECTION('',(2.22044604925E-16,0.,-1.));
#66 = PCURVE('',#31,#67);
#67 = DEFINITIONAL_REPRESENTATION('',(#68),#72);
#68 = CIRCLE('',#69,2.116);
#69 = AXIS2_PLACEMENT_2D('',#70,#71);
#70 = CARTESIAN_POINT('',(0.,2.22044604925E-16));
#71 = DIRECTION('',(-0.,-1.));
#72 = ( GEOMETRIC_REPRESENTATION_CONTEXT(2) 
PARAMETRIC_REPRESENTATION_CONTEXT() REPRESENTATION_CONTEXT('2D SPACE',''
  ) );
#73 = PCURVE('',#74,#79);
#74 = CYLINDRICAL_SURFACE('',#75,2.116);
#75 = AXIS2_PLACEMENT_3D('',#76,#77,#78);
#76 = CARTESIAN_POINT('',(-1.,0.,0.));
#77 = DIRECTION('',(1.,0.,2.22044604925E-16));
#78 = DIRECTION('',(2.22044604925E-16,0.,-1.));
#79 = DEFINITIONAL_REPRESENTATION('',(#80),#84);
#80 = LINE('',#81,#82);
#81 = CARTESIAN_POINT('',(0.,1.));
#82 = VECTOR('',#83,1.);
#83 = DIRECTION('',(1.,0.));
#84 = ( GEOMETRIC_REPRESENTATION_CONTEXT(2) 
PARAMETRIC_REPRESENTATION_CONTEXT() REPRESENTATION_CONTEXT('2D SPACE',''
  ) );
#85 = ADVANCED_FACE('',(#86),#43,.T.);
#86 = FACE_BOUND('',#87,.T.);
#87 = EDGE_LOOP('',(#88,#89,#113,#140));
#88 = ORIENTED_EDGE('',*,*,#21,.T.);
#89 = ORIENTED_EDGE('',*,*,#90,.T.);
#90 = EDGE_CURVE('',#22,#91,#93,.T.);
#91 = VERTEX_POINT('',#92);
#92 = CARTESIAN_POINT('',(1.6,4.5,0.));
#93 = SEAM_CURVE('',#94,(#99,#106),.PCURVE_S1.);
#94 = CIRCLE('',#95,1.6);
#95 = AXIS2_PLACEMENT_3D('',#96,#97,#98);
#96 = CARTESIAN_POINT('',(1.6,2.9,0.));
#97 = DIRECTION('',(0.,0.,-1.));
#98 = DIRECTION('',(-1.,0.,0.));
#99 = PCURVE('',#43,#100);
#100 = DEFINITIONAL_REPRESENTATION('',(#101),#105);
#101 = LINE('',#102,#103);
#102 = CARTESIAN_POINT('',(0.,4.712388980385));
#103 = VECTOR('',#104,1.);
#104 = DIRECTION('',(0.,1.));
#105 = ( GEOMETRIC_REPRESENTATION_CONTEXT(2) 
PARAMETRIC_REPRESENTATION_CONTEXT() REPRESENTATION_CONTEXT('2D SPACE',''
  ) );
#106 = PCURVE('',#43,#107);
#107 = DEFINITIONAL_REPRESENTATION('',(#108),#112);
#108 = LINE('',#109,#110);
#109 = CARTESIAN_POINT('',(6.28318530718,4.712388980385));
#110 = VECTOR('',#111,1.);
#111 = DIRECTION('',(0.,1.));
#112 = ( GEOMETRIC_REPRESENTATION_CONTEXT(2) 
PARAMETRIC_REPRESENTATION_CONTEXT() REPRESENTATION_CONTEXT('2D SPACE',''
  ) );
#113 = ORIENTED_EDGE('',*,*,#114,.F.);
#114 = EDGE_CURVE('',#91,#91,#115,.T.);
#115 = SURFACE_CURVE('',#116,(#121,#128),.PCURVE_S1.);
#116 = CIRCLE('',#117,4.5);
#117 = AXIS2_PLACEMENT_3D('',#118,#119,#120);
#118 = CARTESIAN_POINT('',(1.6,0.,0.));
#119 = DIRECTION('',(1.,0.,0.));
#120 = DIRECTION('',(-0.,1.,0.));
#121 = PCURVE('',#43,#122);
#122 = DEFINITIONAL_REPRESENTATION('',(#123),#127);
#123 = LINE('',#124,#125);
#124 = CARTESIAN_POINT('',(0.,6.28318530718));
#125 = VECTOR('',#126,1.);
#126 = DIRECTION('',(1.,0.));
#127 = ( GEOMETRIC_REPRESENTATION_CONTEXT(2) 
PARAMETRIC_REPRESENTATION_CONTEXT() REPRESENTATION_CONTEXT('2D SPACE',''
  ) );
#128 = PCURVE('',#129,#134);
#129 = CYLINDRICAL_SURFACE('',#130,4.5);
#130 = AXIS2_PLACEMENT_3D('',#131,#132,#133);
#131 = CARTESIAN_POINT('',(0.,0.,0.));
#132 = DIRECTION('',(1.,0.,0.));
#133 = DIRECTION('',(-0.,1.,0.));
#134 = DEFINITIONAL_REPRESENTATION('',(#135),#139);
#135 = LINE('',#136,#137);
#136 = CARTESIAN_POINT('',(0.,1.6));
#137 = VECTOR('',#138,1.);
#138 = DIRECTION('',(1.,0.));
#139 = ( GEOMETRIC_REPRESENTATION_CONTEXT(2) 
PARAMETRIC_REPRESENTATION_CONTEXT() REPRESENTATION_CONTEXT('2D SPACE',''
  ) );
#140 = ORIENTED_EDGE('',*,*,#90,.F.);
#141 = ADVANCED_FACE('',(#142),#74,.F.);
#142 = FACE_BOUND('',#143,.F.);
#143 = EDGE_LOOP('',(#144,#167,#168,#169,#198,#227,#251,#280));
#144 = ORIENTED_EDGE('',*,*,#145,.F.);
#145 = EDGE_CURVE('',#58,#146,#148,.T.);
#146 = VERTEX_POINT('',#147);
#147 = CARTESIAN_POINT('',(7.,-5.182705253992E-16,-2.116));
#148 = SEAM_CURVE('',#149,(#153,#160),.PCURVE_S1.);
#149 = LINE('',#150,#151);
#150 = CARTESIAN_POINT('',(-1.,-5.182705253992E-16,-2.116));
#151 = VECTOR('',#152,1.);
#152 = DIRECTION('',(1.,0.,2.22044604925E-16));
#153 = PCURVE('',#74,#154);
#154 = DEFINITIONAL_REPRESENTATION('',(#155),#159);
#155 = LINE('',#156,#157);
#156 = CARTESIAN_POINT('',(0.,-0.));
#157 = VECTOR('',#158,1.);
#158 = DIRECTION('',(0.,1.));
#159 = ( GEOMETRIC_REPRESENTATION_CONTEXT(2) 
PARAMETRIC_REPRESENTATION_CONTEXT() REPRESENTATION_CONTEXT('2D SPACE',''
  ) );
#160 = PCURVE('',#74,#161);
#161 = DEFINITIONAL_REPRESENTATION('',(#162),#166);
#162 = LINE('',#163,#164);
#163 = CARTESIAN_POINT('',(6.28318530718,-0.));
#164 = VECTOR('',#165,1.);
#165 = DIRECTION('',(0.,1.));
#166 = ( GEOMETRIC_REPRESENTATION_CONTEXT(2) 
PARAMETRIC_REPRESENTATION_CONTEXT() REPRESENTATION_CONTEXT('2D SPACE',''
  ) );
#167 = ORIENTED_EDGE('',*,*,#57,.T.);
#168 = ORIENTED_EDGE('',*,*,#145,.T.);
#169 = ORIENTED_EDGE('',*,*,#170,.F.);
#170 = EDGE_CURVE('',#171,#146,#173,.T.);
#171 = VERTEX_POINT('',#172);
#172 = CARTESIAN_POINT('',(7.,-1.459239090909,-1.532343719784));
#173 = SURFACE_CURVE('',#174,(#179,#186),.PCURVE_S1.);
#174 = CIRCLE('',#175,2.116);
#175 = AXIS2_PLACEMENT_3D('',#176,#177,#178);
#176 = CARTESIAN_POINT('',(7.,0.,1.7763568394E-15));
#177 = DIRECTION('',(1.,-0.,2.22044604925E-16));
#178 = DIRECTION('',(2.22044604925E-16,0.,-1.));
#179 = PCURVE('',#74,#180);
#180 = DEFINITIONAL_REPRESENTATION('',(#181),#185);
#181 = LINE('',#182,#183);
#182 = CARTESIAN_POINT('',(0.,8.));
#183 = VECTOR('',#184,1.);
#184 = DIRECTION('',(1.,0.));
#185 = ( GEOMETRIC_REPRESENTATION_CONTEXT(2) 
PARAMETRIC_REPRESENTATION_CONTEXT() REPRESENTATION_CONTEXT('2D SPACE',''
  ) );
#186 = PCURVE('',#187,#192);
#187 = PLANE('',#188);
#188 = AXIS2_PLACEMENT_3D('',#189,#190,#191);
#189 = CARTESIAN_POINT('',(7.,0.,1.7763568394E-15));
#190 = DIRECTION('',(1.,0.,2.22044604925E-16));
#191 = DIRECTION('',(2.22044604925E-16,0.,-1.));
#192 = DEFINITIONAL_REPRESENTATION('',(#193),#197);
#193 = CIRCLE('',#194,2.116);
#194 = AXIS2_PLACEMENT_2D('',#195,#196);
#195 = CARTESIAN_POINT('',(0.,0.));
#196 = DIRECTION('',(1.,0.));
#197 = ( GEOMETRIC_REPRESENTATION_CONTEXT(2) 
PARAMETRIC_REPRESENTATION_CONTEXT() REPRESENTATION_CONTEXT('2D SPACE',''
  ) );
#198 = ORIENTED_EDGE('',*,*,#199,.F.);
#199 = EDGE_CURVE('',#200,#171,#202,.T.);
#200 = VERTEX_POINT('',#201);
#201 = CARTESIAN_POINT('',(7.,-1.459239090909,1.532343719784));
#202 = SURFACE_CURVE('',#203,(#208,#215),.PCURVE_S1.);
#203 = CIRCLE('',#204,2.116);
#204 = AXIS2_PLACEMENT_3D('',#205,#206,#207);
#205 = CARTESIAN_POINT('',(7.,0.,1.7763568394E-15));
#206 = DIRECTION('',(1.,-0.,2.22044604925E-16));
#207 = DIRECTION('',(2.22044604925E-16,0.,-1.));
#208 = PCURVE('',#74,#209);
#209 = DEFINITIONAL_REPRESENTATION('',(#210),#214);
#210 = LINE('',#211,#212);
#211 = CARTESIAN_POINT('',(0.,8.));
#212 = VECTOR('',#213,1.);
#213 = DIRECTION('',(1.,0.));
#214 = ( GEOMETRIC_REPRESENTATION_CONTEXT(2) 
PARAMETRIC_REPRESENTATION_CONTEXT() REPRESENTATION_CONTEXT('2D SPACE',''
  ) );
#215 = PCURVE('',#216,#221);
#216 = PLANE('',#217);
#217 = AXIS2_PLACEMENT_3D('',#218,#219,#220);
#218 = CARTESIAN_POINT('',(7.,-2.2,0.));
#219 = DIRECTION('',(1.,0.,2.22044604925E-16));
#220 = DIRECTION('',(2.22044604925E-16,0.,-1.));
#221 = DEFINITIONAL_REPRESENTATION('',(#222),#226);
#222 = CIRCLE('',#223,2.116);
#223 = AXIS2_PLACEMENT_2D('',#224,#225);
#224 = CARTESIAN_POINT('',(-1.7763568394E-15,2.2));
#225 = DIRECTION('',(1.,0.));
#226 = ( GEOMETRIC_REPRESENTATION_CONTEXT(2) 
PARAMETRIC_REPRESENTATION_CONTEXT() REPRESENTATION_CONTEXT('2D SPACE',''
  ) );
#227 = ORIENTED_EDGE('',*,*,#228,.F.);
#228 = EDGE_CURVE('',#229,#200,#231,.T.);
#229 = VERTEX_POINT('',#230);
#230 = CARTESIAN_POINT('',(7.,1.459239090909,1.532343719784));
#231 = SURFACE_CURVE('',#232,(#237,#244),.PCURVE_S1.);
#232 = CIRCLE('',#233,2.116);
#233 = AXIS2_PLACEMENT_3D('',#234,#235,#236);
#234 = CARTESIAN_POINT('',(7.,0.,1.7763568394E-15));
#235 = DIRECTION('',(1.,-0.,2.22044604925E-16));
#236 = DIRECTION('',(2.22044604925E-16,0.,-1.));
#237 = PCURVE('',#74,#238);
#238 = DEFINITIONAL_REPRESENTATION('',(#239),#243);
#239 = LINE('',#240,#241);
#240 = CARTESIAN_POINT('',(0.,8.));
#241 = VECTOR('',#242,1.);
#242 = DIRECTION('',(1.,0.));
#243 = ( GEOMETRIC_REPRESENTATION_CONTEXT(2) 
PARAMETRIC_REPRESENTATION_CONTEXT() REPRESENTATION_CONTEXT('2D SPACE',''
  ) );
#244 = PCURVE('',#187,#245);
#245 = DEFINITIONAL_REPRESENTATION('',(#246),#250);
#246 = CIRCLE('',#247,2.116);
#247 = AXIS2_PLACEMENT_2D('',#248,#249);
#248 = CARTESIAN_POINT('',(0.,0.));
#249 = DIRECTION('',(1.,0.));
#250 = ( GEOMETRIC_REPRESENTATION_CONTEXT(2) 
PARAMETRIC_REPRESENTATION_CONTEXT() REPRESENTATION_CONTEXT('2D SPACE',''
  ) );
#251 = ORIENTED_EDGE('',*,*,#252,.F.);
#252 = EDGE_CURVE('',#253,#229,#255,.T.);
#253 = VERTEX_POINT('',#254);
#254 = CARTESIAN_POINT('',(7.,1.459239090909,-1.532343719784));
#255 = SURFACE_CURVE('',#256,(#261,#268),.PCURVE_S1.);
#256 = CIRCLE('',#257,2.116);
#257 = AXIS2_PLACEMENT_3D('',#258,#259,#260);
#258 = CARTESIAN_POINT('',(7.,0.,1.7763568394E-15));
#259 = DIRECTION('',(1.,-0.,2.22044604925E-16));
#260 = DIRECTION('',(2.22044604925E-16,0.,-1.));
#261 = PCURVE('',#74,#262);
#262 = DEFINITIONAL_REPRESENTATION('',(#263),#267);
#263 = LINE('',#264,#265);
#264 = CARTESIAN_POINT('',(0.,8.));
#265 = VECTOR('',#266,1.);
#266 = DIRECTION('',(1.,0.));
#267 = ( GEOMETRIC_REPRESENTATION_CONTEXT(2) 
PARAMETRIC_REPRESENTATION_CONTEXT() REPRESENTATION_CONTEXT('2D SPACE',''
  ) );
#268 = PCURVE('',#269,#274);
#269 = PLANE('',#270);
#270 = AXIS2_PLACEMENT_3D('',#271,#272,#273);
#271 = CARTESIAN_POINT('',(7.,2.2,0.));
#272 = DIRECTION('',(1.,0.,2.22044604925E-16));
#273 = DIRECTION('',(2.22044604925E-16,0.,-1.));
#274 = DEFINITIONAL_REPRESENTATION('',(#275),#279);
#275 = CIRCLE('',#276,2.116);
#276 = AXIS2_PLACEMENT_2D('',#277,#278);
#277 = CARTESIAN_POINT('',(-1.7763568394E-15,-2.2));
#278 = DIRECTION('',(1.,0.));
#279 = ( GEOMETRIC_REPRESENTATION_CONTEXT(2) 
PARAMETRIC_REPRESENTATION_CONTEXT() REPRESENTATION_CONTEXT('2D SPACE',''
  ) );
#280 = ORIENTED_EDGE('',*,*,#281,.F.);
#281 = EDGE_CURVE('',#146,#253,#282,.T.);
#282 = SURFACE_CURVE('',#283,(#288,#295),.PCURVE_S1.);
#283 = CIRCLE('',#284,2.116);
#284 = AXIS2_PLACEMENT_3D('',#285,#286,#287);
#285 = CARTESIAN_POINT('',(7.,0.,1.7763568394E-15));
#286 = DIRECTION('',(1.,-0.,2.22044604925E-16));
#287 = DIRECTION('',(2.22044604925E-16,0.,-1.));
#288 = PCURVE('',#74,#289);
#289 = DEFINITIONAL_REPRESENTATION('',(#290),#294);
#290 = LINE('',#291,#292);
#291 = CARTESIAN_POINT('',(0.,8.));
#292 = VECTOR('',#293,1.);
#293 = DIRECTION('',(1.,0.));
#294 = ( GEOMETRIC_REPRESENTATION_CONTEXT(2) 
PARAMETRIC_REPRESENTATION_CONTEXT() REPRESENTATION_CONTEXT('2D SPACE',''
  ) );
#295 = PCURVE('',#187,#296);
#296 = DEFINITIONAL_REPRESENTATION('',(#297),#301);
#297 = CIRCLE('',#298,2.116);
#298 = AXIS2_PLACEMENT_2D('',#299,#300);
#299 = CARTESIAN_POINT('',(0.,0.));
#300 = DIRECTION('',(1.,0.));
#301 = ( GEOMETRIC_REPRESENTATION_CONTEXT(2) 
PARAMETRIC_REPRESENTATION_CONTEXT() REPRESENTATION_CONTEXT('2D SPACE',''
  ) );
#302 = ADVANCED_FACE('',(#303),#129,.T.);
#303 = FACE_BOUND('',#304,.T.);
#304 = EDGE_LOOP('',(#305,#306,#329,#356));
#305 = ORIENTED_EDGE('',*,*,#114,.T.);
#306 = ORIENTED_EDGE('',*,*,#307,.T.);
#307 = EDGE_CURVE('',#91,#308,#310,.T.);
#308 = VERTEX_POINT('',#309);
#309 = CARTESIAN_POINT('',(11.,4.5,0.));
#310 = SEAM_CURVE('',#311,(#315,#322),.PCURVE_S1.);
#311 = LINE('',#312,#313);
#312 = CARTESIAN_POINT('',(0.,4.5,0.));
#313 = VECTOR('',#314,1.);
#314 = DIRECTION('',(1.,0.,0.));
#315 = PCURVE('',#129,#316);
#316 = DEFINITIONAL_REPRESENTATION('',(#317),#321);
#317 = LINE('',#318,#319);
#318 = CARTESIAN_POINT('',(0.,0.));
#319 = VECTOR('',#320,1.);
#320 = DIRECTION('',(0.,1.));
#321 = ( GEOMETRIC_REPRESENTATION_CONTEXT(2) 
PARAMETRIC_REPRESENTATION_CONTEXT() REPRESENTATION_CONTEXT('2D SPACE',''
  ) );
#322 = PCURVE('',#129,#323);
#323 = DEFINITIONAL_REPRESENTATION('',(#324),#328);
#324 = LINE('',#325,#326);
#325 = CARTESIAN_POINT('',(6.28318530718,0.));
#326 = VECTOR('',#327,1.);
#327 = DIRECTION('',(0.,1.));
#328 = ( GEOMETRIC_REPRESENTATION_CONTEXT(2) 
PARAMETRIC_REPRESENTATION_CONTEXT() REPRESENTATION_CONTEXT('2D SPACE',''
  ) );
#329 = ORIENTED_EDGE('',*,*,#330,.F.);
#330 = EDGE_CURVE('',#308,#308,#331,.T.);
#331 = SURFACE_CURVE('',#332,(#337,#344),.PCURVE_S1.);
#332 = CIRCLE('',#333,4.5);
#333 = AXIS2_PLACEMENT_3D('',#334,#335,#336);
#334 = CARTESIAN_POINT('',(11.,0.,0.));
#335 = DIRECTION('',(1.,0.,0.));
#336 = DIRECTION('',(-0.,1.,0.));
#337 = PCURVE('',#129,#338);
#338 = DEFINITIONAL_REPRESENTATION('',(#339),#343);
#339 = LINE('',#340,#341);
#340 = CARTESIAN_POINT('',(0.,11.));
#341 = VECTOR('',#342,1.);
#342 = DIRECTION('',(1.,0.));
#343 = ( GEOMETRIC_REPRESENTATION_CONTEXT(2) 
PARAMETRIC_REPRESENTATION_CONTEXT() REPRESENTATION_CONTEXT('2D SPACE',''
  ) );
#344 = PCURVE('',#345,#350);
#345 = TOROIDAL_SURFACE('',#346,2.5,2.);
#346 = AXIS2_PLACEMENT_3D('',#347,#348,#349);
#347 = CARTESIAN_POINT('',(11.,0.,0.));
#348 = DIRECTION('',(1.,0.,0.));
#349 = DIRECTION('',(-0.,1.,0.));
#350 = DEFINITIONAL_REPRESENTATION('',(#351),#355);
#351 = LINE('',#352,#353);
#352 = CARTESIAN_POINT('',(0.,0.));
#353 = VECTOR('',#354,1.);
#354 = DIRECTION('',(1.,0.));
#355 = ( GEOMETRIC_REPRESENTATION_CONTEXT(2) 
PARAMETRIC_REPRESENTATION_CONTEXT() REPRESENTATION_CONTEXT('2D SPACE',''
  ) );
#356 = ORIENTED_EDGE('',*,*,#307,.F.);
#357 = ADVANCED_FACE('',(#358),#187,.F.);
#358 = FACE_BOUND('',#359,.F.);
#359 = EDGE_LOOP('',(#360,#387,#388,#415,#416));
#360 = ORIENTED_EDGE('',*,*,#361,.F.);
#361 = EDGE_CURVE('',#229,#253,#362,.T.);
#362 = SURFACE_CURVE('',#363,(#368,#375),.PCURVE_S1.);
#363 = CIRCLE('',#364,1.702);
#364 = AXIS2_PLACEMENT_3D('',#365,#366,#367);
#365 = CARTESIAN_POINT('',(7.,2.2,0.));
#366 = DIRECTION('',(1.,-0.,2.22044604925E-16));
#367 = DIRECTION('',(2.22044604925E-16,0.,-1.));
#368 = PCURVE('',#187,#369);
#369 = DEFINITIONAL_REPRESENTATION('',(#370),#374);
#370 = CIRCLE('',#371,1.702);
#371 = AXIS2_PLACEMENT_2D('',#372,#373);
#372 = CARTESIAN_POINT('',(1.7763568394E-15,2.2));
#373 = DIRECTION('',(1.,0.));
#374 = ( GEOMETRIC_REPRESENTATION_CONTEXT(2) 
PARAMETRIC_REPRESENTATION_CONTEXT() REPRESENTATION_CONTEXT('2D SPACE',''
  ) );
#375 = PCURVE('',#376,#381);
#376 = CYLINDRICAL_SURFACE('',#377,1.702);
#377 = AXIS2_PLACEMENT_3D('',#378,#379,#380);
#378 = CARTESIAN_POINT('',(7.,2.2,0.));
#379 = DIRECTION('',(1.,0.,2.22044604925E-16));
#380 = DIRECTION('',(2.22044604925E-16,0.,-1.));
#381 = DEFINITIONAL_REPRESENTATION('',(#382),#386);
#382 = LINE('',#383,#384);
#383 = CARTESIAN_POINT('',(0.,0.));
#384 = VECTOR('',#385,1.);
#385 = DIRECTION('',(1.,0.));
#386 = ( GEOMETRIC_REPRESENTATION_CONTEXT(2) 
PARAMETRIC_REPRESENTATION_CONTEXT() REPRESENTATION_CONTEXT('2D SPACE',''
  ) );
#387 = ORIENTED_EDGE('',*,*,#228,.T.);
#388 = ORIENTED_EDGE('',*,*,#389,.F.);
#389 = EDGE_CURVE('',#171,#200,#390,.T.);
#390 = SURFACE_CURVE('',#391,(#396,#403),.PCURVE_S1.);
#391 = CIRCLE('',#392,1.702);
#392 = AXIS2_PLACEMENT_3D('',#393,#394,#395);
#393 = CARTESIAN_POINT('',(7.,-2.2,0.));
#394 = DIRECTION('',(1.,-0.,2.22044604925E-16));
#395 = DIRECTION('',(2.22044604925E-16,0.,-1.));
#396 = PCURVE('',#187,#397);
#397 = DEFINITIONAL_REPRESENTATION('',(#398),#402);
#398 = CIRCLE('',#399,1.702);
#399 = AXIS2_PLACEMENT_2D('',#400,#401);
#400 = CARTESIAN_POINT('',(1.7763568394E-15,-2.2));
#401 = DIRECTION('',(1.,0.));
#402 = ( GEOMETRIC_REPRESENTATION_CONTEXT(2) 
PARAMETRIC_REPRESENTATION_CONTEXT() REPRESENTATION_CONTEXT('2D SPACE',''
  ) );
#403 = PCURVE('',#404,#409);
#404 = CYLINDRICAL_SURFACE('',#405,1.702);
#405 = AXIS2_PLACEMENT_3D('',#406,#407,#408);
#406 = CARTESIAN_POINT('',(7.,-2.2,0.));
#407 = DIRECTION('',(1.,0.,2.22044604925E-16));
#408 = DIRECTION('',(2.22044604925E-16,0.,-1.));
#409 = DEFINITIONAL_REPRESENTATION('',(#410),#414);
#410 = LINE('',#411,#412);
#411 = CARTESIAN_POINT('',(0.,0.));
#412 = VECTOR('',#413,1.);
#413 = DIRECTION('',(1.,0.));
#414 = ( GEOMETRIC_REPRESENTATION_CONTEXT(2) 
PARAMETRIC_REPRESENTATION_CONTEXT() REPRESENTATION_CONTEXT('2D SPACE',''
  ) );
#415 = ORIENTED_EDGE('',*,*,#170,.T.);
#416 = ORIENTED_EDGE('',*,*,#281,.T.);
#417 = ADVANCED_FACE('',(#418),#269,.T.);
#418 = FACE_BOUND('',#419,.T.);
#419 = EDGE_LOOP('',(#420,#444,#466));
#420 = ORIENTED_EDGE('',*,*,#421,.T.);
#421 = EDGE_CURVE('',#253,#422,#424,.T.);
#422 = VERTEX_POINT('',#423);
#423 = CARTESIAN_POINT('',(7.,2.2,-1.702));
#424 = SURFACE_CURVE('',#425,(#430,#437),.PCURVE_S1.);
#425 = CIRCLE('',#426,1.702);
#426 = AXIS2_PLACEMENT_3D('',#427,#428,#429);
#427 = CARTESIAN_POINT('',(7.,2.2,0.));
#428 = DIRECTION('',(1.,-0.,2.22044604925E-16));
#429 = DIRECTION('',(2.22044604925E-16,0.,-1.));
#430 = PCURVE('',#269,#431);
#431 = DEFINITIONAL_REPRESENTATION('',(#432),#436);
#432 = CIRCLE('',#433,1.702);
#433 = AXIS2_PLACEMENT_2D('',#434,#435);
#434 = CARTESIAN_POINT('',(0.,0.));
#435 = DIRECTION('',(1.,0.));
#436 = ( GEOMETRIC_REPRESENTATION_CONTEXT(2) 
PARAMETRIC_REPRESENTATION_CONTEXT() REPRESENTATION_CONTEXT('2D SPACE',''
  ) );
#437 = PCURVE('',#376,#438);
#438 = DEFINITIONAL_REPRESENTATION('',(#439),#443);
#439 = LINE('',#440,#441);
#440 = CARTESIAN_POINT('',(0.,0.));
#441 = VECTOR('',#442,1.);
#442 = DIRECTION('',(1.,0.));
#443 = ( GEOMETRIC_REPRESENTATION_CONTEXT(2) 
PARAMETRIC_REPRESENTATION_CONTEXT() REPRESENTATION_CONTEXT('2D SPACE',''
  ) );
#444 = ORIENTED_EDGE('',*,*,#445,.T.);
#445 = EDGE_CURVE('',#422,#229,#446,.T.);
#446 = SURFACE_CURVE('',#447,(#452,#459),.PCURVE_S1.);
#447 = CIRCLE('',#448,1.702);
#448 = AXIS2_PLACEMENT_3D('',#449,#450,#451);
#449 = CARTESIAN_POINT('',(7.,2.2,0.));
#450 = DIRECTION('',(1.,-0.,2.22044604925E-16));
#451 = DIRECTION('',(2.22044604925E-16,0.,-1.));
#452 = PCURVE('',#269,#453);
#453 = DEFINITIONAL_REPRESENTATION('',(#454),#458);
#454 = CIRCLE('',#455,1.702);
#455 = AXIS2_PLACEMENT_2D('',#456,#457);
#456 = CARTESIAN_POINT('',(0.,0.));
#457 = DIRECTION('',(1.,0.));
#458 = ( GEOMETRIC_REPRESENTATION_CONTEXT(2) 
PARAMETRIC_REPRESENTATION_CONTEXT() REPRESENTATION_CONTEXT('2D SPACE',''
  ) );
#459 = PCURVE('',#376,#460);
#460 = DEFINITIONAL_REPRESENTATION('',(#461),#465);
#461 = LINE('',#462,#463);
#462 = CARTESIAN_POINT('',(0.,0.));
#463 = VECTOR('',#464,1.);
#464 = DIRECTION('',(1.,0.));
#465 = ( GEOMETRIC_REPRESENTATION_CONTEXT(2) 
PARAMETRIC_REPRESENTATION_CONTEXT() REPRESENTATION_CONTEXT('2D SPACE',''
  ) );
#466 = ORIENTED_EDGE('',*,*,#252,.F.);
#467 = ADVANCED_FACE('',(#468),#216,.T.);
#468 = FACE_BOUND('',#469,.T.);
#469 = EDGE_LOOP('',(#470,#494,#516));
#470 = ORIENTED_EDGE('',*,*,#471,.T.);
#471 = EDGE_CURVE('',#200,#472,#474,.T.);
#472 = VERTEX_POINT('',#473);
#473 = CARTESIAN_POINT('',(7.,-2.2,-1.702));
#474 = SURFACE_CURVE('',#475,(#480,#487),.PCURVE_S1.);
#475 = CIRCLE('',#476,1.702);
#476 = AXIS2_PLACEMENT_3D('',#477,#478,#479);
#477 = CARTESIAN_POINT('',(7.,-2.2,0.));
#478 = DIRECTION('',(1.,-0.,2.22044604925E-16));
#479 = DIRECTION('',(2.22044604925E-16,0.,-1.));
#480 = PCURVE('',#216,#481);
#481 = DEFINITIONAL_REPRESENTATION('',(#482),#486);
#482 = CIRCLE('',#483,1.702);
#483 = AXIS2_PLACEMENT_2D('',#484,#485);
#484 = CARTESIAN_POINT('',(0.,0.));
#485 = DIRECTION('',(1.,0.));
#486 = ( GEOMETRIC_REPRESENTATION_CONTEXT(2) 
PARAMETRIC_REPRESENTATION_CONTEXT() REPRESENTATION_CONTEXT('2D SPACE',''
  ) );
#487 = PCURVE('',#404,#488);
#488 = DEFINITIONAL_REPRESENTATION('',(#489),#493);
#489 = LINE('',#490,#491);
#490 = CARTESIAN_POINT('',(0.,0.));
#491 = VECTOR('',#492,1.);
#492 = DIRECTION('',(1.,0.));
#493 = ( GEOMETRIC_REPRESENTATION_CONTEXT(2) 
PARAMETRIC_REPRESENTATION_CONTEXT() REPRESENTATION_CONTEXT('2D SPACE',''
  ) );
#494 = ORIENTED_EDGE('',*,*,#495,.T.);
#495 = EDGE_CURVE('',#472,#171,#496,.T.);
#496 = SURFACE_CURVE('',#497,(#502,#509),.PCURVE_S1.);
#497 = CIRCLE('',#498,1.702);
#498 = AXIS2_PLACEMENT_3D('',#499,#500,#501);
#499 = CARTESIAN_POINT('',(7.,-2.2,0.));
#500 = DIRECTION('',(1.,-0.,2.22044604925E-16));
#501 = DIRECTION('',(2.22044604925E-16,0.,-1.));
#502 = PCURVE('',#216,#503);
#503 = DEFINITIONAL_REPRESENTATION('',(#504),#508);
#504 = CIRCLE('',#505,1.702);
#505 = AXIS2_PLACEMENT_2D('',#506,#507);
#506 = CARTESIAN_POINT('',(0.,0.));
#507 = DIRECTION('',(1.,0.));
#508 = ( GEOMETRIC_REPRESENTATION_CONTEXT(2) 
PARAMETRIC_REPRESENTATION_CONTEXT() REPRESENTATION_CONTEXT('2D SPACE',''
  ) );
#509 = PCURVE('',#404,#510);
#510 = DEFINITIONAL_REPRESENTATION('',(#511),#515);
#511 = LINE('',#512,#513);
#512 = CARTESIAN_POINT('',(0.,0.));
#513 = VECTOR('',#514,1.);
#514 = DIRECTION('',(1.,0.));
#515 = ( GEOMETRIC_REPRESENTATION_CONTEXT(2) 
PARAMETRIC_REPRESENTATION_CONTEXT() REPRESENTATION_CONTEXT('2D SPACE',''
  ) );
#516 = ORIENTED_EDGE('',*,*,#199,.F.);
#517 = ADVANCED_FACE('',(#518),#345,.T.);
#518 = FACE_BOUND('',#519,.T.);
#519 = EDGE_LOOP('',(#520,#752,#781,#891,#913,#914,#915,#1025,#1057,
    #1081));
#520 = ORIENTED_EDGE('',*,*,#521,.T.);
#521 = EDGE_CURVE('',#522,#524,#526,.T.);
#522 = VERTEX_POINT('',#523);
#523 = CARTESIAN_POINT('',(12.980088760768,-2.2,-1.702));
#524 = VERTEX_POINT('',#525);
#525 = CARTESIAN_POINT('',(13.,-1.86209,1.668118950165));
#526 = SURFACE_CURVE('',#527,(#600,#676),.PCURVE_S1.);
#527 = B_SPLINE_CURVE_WITH_KNOTS('',6,(#528,#529,#530,#531,#532,#533,
    #534,#535,#536,#537,#538,#539,#540,#541,#542,#543,#544,#545,#546,
    #547,#548,#549,#550,#551,#552,#553,#554,#555,#556,#557,#558,#559,
    #560,#561,#562,#563,#564,#565,#566,#567,#568,#569,#570,#571,#572,
    #573,#574,#575,#576,#577,#578,#579,#580,#581,#582,#583,#584,#585,
    #586,#587,#588,#589,#590,#591,#592,#593,#594,#595,#596,#597,#598,
    #599),.UNSPECIFIED.,.F.,.F.,(7,5,5,5,5,5,5,5,5,5,5,5,5,5,7),(0.,
    6.320074006079E-02,0.19666068828,0.277936755707,0.310558115857,
    0.356150629482,0.396814841847,0.470819346884,0.542247189956,
    0.583893955542,0.629800042792,0.743864900788,0.857966916355,
    0.910749091676,1.),.UNSPECIFIED.);
#528 = CARTESIAN_POINT('',(12.980088760768,-2.2,-1.702));
#529 = CARTESIAN_POINT('',(12.973365252266,-2.259792017788,-1.702));
#530 = CARTESIAN_POINT('',(12.965407848337,-2.319479525009,
    -1.699479355442));
#531 = CARTESIAN_POINT('',(12.956317024327,-2.378902583748,
    -1.694454692098));
#532 = CARTESIAN_POINT('',(12.946192296109,-2.437915992912,
    -1.686959198452));
#533 = CARTESIAN_POINT('',(12.935130691047,-2.496389186268,
    -1.677036547553));
#534 = CARTESIAN_POINT('',(12.898084632182,-2.676297206839,
    -1.63875746365));
#535 = CARTESIAN_POINT('',(12.86918838743,-2.795427042603,
    -1.602178647467));
#536 = CARTESIAN_POINT('',(12.837404938898,-2.910566292302,
    -1.555451233391));
#537 = CARTESIAN_POINT('',(12.80354226884,-3.020836547756,
    -1.499106345513));
#538 = CARTESIAN_POINT('',(12.768379283335,-3.125503061421,
    -1.433674955199));
#539 = CARTESIAN_POINT('',(12.710988283763,-3.283835551833,
    -1.314432488188));
#540 = CARTESIAN_POINT('',(12.689082182654,-3.34143125074,
    -1.266088738891));
#541 = CARTESIAN_POINT('',(12.667173045395,-3.39654260529,
    -1.214630721533));
#542 = CARTESIAN_POINT('',(12.645452526096,-3.44900885548,
    -1.160155950174));
#543 = CARTESIAN_POINT('',(12.624126122504,-3.498660689762,
    -1.102763226253));
#544 = CARTESIAN_POINT('',(12.595104163042,-3.564047606909,
    -1.018387374128));
#545 = CARTESIAN_POINT('',(12.586891490786,-3.582292584926,
    -0.993768056492));
#546 = CARTESIAN_POINT('',(12.578792840845,-3.600043241383,
    -0.968702378958));
#547 = CARTESIAN_POINT('',(12.57082324012,-3.617287281271,
    -0.943197840716));
#548 = CARTESIAN_POINT('',(12.562998226715,-3.634011948406,
    -0.917262568668));
#549 = CARTESIAN_POINT('',(12.544621905351,-3.672834519339,
    -0.854067695384));
#550 = CARTESIAN_POINT('',(12.534223812452,-3.694424529974,
    -0.816406105438));
#551 = CARTESIAN_POINT('',(12.524183165104,-3.714938237052,
    -0.77794453302));
#552 = CARTESIAN_POINT('',(12.51454584811,-3.734337423425,
    -0.738711089276));
#553 = CARTESIAN_POINT('',(12.505358920957,-3.75258255756,
    -0.698739067909));
#554 = CARTESIAN_POINT('',(12.488919360849,-3.78484204023,
    -0.621793255826));
#555 = CARTESIAN_POINT('',(12.481565018661,-3.799100455227,
    -0.584962598723));
#556 = CARTESIAN_POINT('',(12.474639898873,-3.81238078764,-0.54760456708
    ));
#557 = CARTESIAN_POINT('',(12.468177525329,-3.824654389983,
    -0.509752235631));
#558 = CARTESIAN_POINT('',(12.462210179176,-3.835893473351,
    -0.471443937898));
#559 = CARTESIAN_POINT('',(12.446862566134,-3.864596616724,
    -0.362257828232));
#560 = CARTESIAN_POINT('',(12.43869372023,-3.879612088552,
    -0.290417062856));
#561 = CARTESIAN_POINT('',(12.43244427391,-3.890957094894,
    -0.217488477763));
#562 = CARTESIAN_POINT('',(12.428259267504,-3.898504725968,
    -0.143800115163));
#563 = CARTESIAN_POINT('',(12.42622118237,-3.902182898518,
    -6.972247821107E-02));
#564 = CARTESIAN_POINT('',(12.426426376181,-3.90181264421,
    7.580466275704E-02));
#565 = CARTESIAN_POINT('',(12.428523110623,-3.898028767318,
    0.147273026094));
#566 = CARTESIAN_POINT('',(12.432615370748,-3.890644111761,
    0.218364662396));
#567 = CARTESIAN_POINT('',(12.438627963156,-3.879724444221,
    0.288746973171));
#568 = CARTESIAN_POINT('',(12.446431442263,-3.86538305759,0.358124443516
    ));
#569 = CARTESIAN_POINT('',(12.461361571812,-3.837490674732,0.4659517554)
  );
#570 = CARTESIAN_POINT('',(12.467414369413,-3.826102428204,
    0.505239293415));
#571 = CARTESIAN_POINT('',(12.473989359827,-3.813626516717,
    0.544052118671));
#572 = CARTESIAN_POINT('',(12.481051948731,-3.800092732703,
    0.582348712934));
#573 = CARTESIAN_POINT('',(12.488566124902,-3.785531858285,
    0.620093360276));
#574 = CARTESIAN_POINT('',(12.505236847439,-3.752825708713,
    0.698217967992));
#575 = CARTESIAN_POINT('',(12.514482725687,-3.734466242274,
    0.738472434412));
#576 = CARTESIAN_POINT('',(12.524185520608,-3.714936529407,
    0.777978320411));
#577 = CARTESIAN_POINT('',(12.534297187092,-3.694276931245,
    0.816701627118));
#578 = CARTESIAN_POINT('',(12.544770886742,-3.672526458784,
    0.854613681026));
#579 = CARTESIAN_POINT('',(12.582375647724,-3.593057557139,
    0.983815289425));
#580 = CARTESIAN_POINT('',(12.611142768048,-3.529898724085,
    1.070757149519));
#581 = CARTESIAN_POINT('',(12.641190092911,-3.460786418839,
    1.152188823596));
#582 = CARTESIAN_POINT('',(12.67190422209,-3.386215600182,1.227820905838
    ));
#583 = CARTESIAN_POINT('',(12.702748481434,-3.306646416654,
    1.297390619388));
#584 = CARTESIAN_POINT('',(12.763717783535,-3.138283431972,
    1.423910156964));
#585 = CARTESIAN_POINT('',(12.793833448209,-3.049512185654,
    1.480837253664));
#586 = CARTESIAN_POINT('',(12.823076419614,-2.956580924009,
    1.531158400842));
#587 = CARTESIAN_POINT('',(12.850957906669,-2.8599477162,1.574556656698)
  );
#588 = CARTESIAN_POINT('',(12.876979834267,-2.760129945473,
    1.610702812297));
#589 = CARTESIAN_POINT('',(12.911549223305,-2.610348747166,
    1.652524448935));
#590 = CARTESIAN_POINT('',(12.921971470552,-2.562424796082,
    1.664134818034));
#591 = CARTESIAN_POINT('',(12.9318298203,-2.514011012547,1.674098142403)
  );
#592 = CARTESIAN_POINT('',(12.941069963623,-2.465174879917,
    1.682385368158));
#593 = CARTESIAN_POINT('',(12.949636060993,-2.415990326541,
    1.688970501547));
#594 = CARTESIAN_POINT('',(12.970719301557,-2.282917547734,
    1.702054244014));
#595 = CARTESIAN_POINT('',(12.981877053388,-2.198528820188,
    1.705349560196));
#596 = CARTESIAN_POINT('',(12.990669055739,-2.113766305515,
    1.703617368287));
#597 = CARTESIAN_POINT('',(12.996804675473,-2.029089145464,
    1.696798340582));
#598 = CARTESIAN_POINT('',(13.,-1.945011009623,1.684916216546));
#599 = CARTESIAN_POINT('',(13.,-1.86209,1.668118950165));
#600 = PCURVE('',#345,#601);
#601 = DEFINITIONAL_REPRESENTATION('',(#602),#675);
#602 = B_SPLINE_CURVE_WITH_KNOTS('',6,(#603,#604,#605,#606,#607,#608,
    #609,#610,#611,#612,#613,#614,#615,#616,#617,#618,#619,#620,#621,
    #622,#623,#624,#625,#626,#627,#628,#629,#630,#631,#632,#633,#634,
    #635,#636,#637,#638,#639,#640,#641,#642,#643,#644,#645,#646,#647,
    #648,#649,#650,#651,#652,#653,#654,#655,#656,#657,#658,#659,#660,
    #661,#662,#663,#664,#665,#666,#667,#668,#669,#670,#671,#672,#673,
    #674),.UNSPECIFIED.,.F.,.F.,(7,5,5,5,5,5,5,5,5,5,5,5,5,5,7),(0.,
    6.320074006079E-02,0.19666068828,0.277936755707,0.310558115857,
    0.356150629482,0.396814841847,0.470819346884,0.542247189956,
    0.583893955542,0.629800042792,0.743864900788,0.857966916355,
    0.910749091676,1.),.UNSPECIFIED.);
#603 = CARTESIAN_POINT('',(3.800050219323,1.429571805747));
#604 = CARTESIAN_POINT('',(3.786896724123,1.405688170253));
#605 = CARTESIAN_POINT('',(3.77358621101,1.382236274194));
#606 = CARTESIAN_POINT('',(3.76014412908,1.359221488238));
#607 = CARTESIAN_POINT('',(3.746590510016,1.336646507832));
#608 = CARTESIAN_POINT('',(3.732940623082,1.314512389013));
#609 = CARTESIAN_POINT('',(3.690201674603,1.247011250325));
#610 = CARTESIAN_POINT('',(3.660826425401,1.203183830784));
#611 = CARTESIAN_POINT('',(3.631170614272,1.161315979432));
#612 = CARTESIAN_POINT('',(3.601268876292,1.121424939382));
#613 = CARTESIAN_POINT('',(3.571121497968,1.083567230082));
#614 = CARTESIAN_POINT('',(3.522135213082,1.02611054196));
#615 = CARTESIAN_POINT('',(3.503486771942,1.005163750228));
#616 = CARTESIAN_POINT('',(3.484720487547,0.985044357836));
#617 = CARTESIAN_POINT('',(3.465825324617,0.965794619607));
#618 = CARTESIAN_POINT('',(3.446788657868,0.947471704956));
#619 = CARTESIAN_POINT('',(3.4198918326,0.923194308973));
#620 = CARTESIAN_POINT('',(3.412163258329,0.916402077922));
#621 = CARTESIAN_POINT('',(3.404408773269,0.909775683879));
#622 = CARTESIAN_POINT('',(3.396627595652,0.903320362525));
#623 = CARTESIAN_POINT('',(3.388819017692,0.897041805697));
#624 = CARTESIAN_POINT('',(3.370029740149,0.882426720608));
#625 = CARTESIAN_POINT('',(3.359022393099,0.874264625269));
#626 = CARTESIAN_POINT('',(3.347958609997,0.866476515424));
#627 = CARTESIAN_POINT('',(3.336837308039,0.859080992387));
#628 = CARTESIAN_POINT('',(3.325658187559,0.852097972264));
#629 = CARTESIAN_POINT('',(3.304400086816,0.839706118593));
#630 = CARTESIAN_POINT('',(3.294332857342,0.834208743879));
#631 = CARTESIAN_POINT('',(3.284220720501,0.829070543536));
#632 = CARTESIAN_POINT('',(3.274064955731,0.824306626027));
#633 = CARTESIAN_POINT('',(3.263867702419,0.819931854069));
#634 = CARTESIAN_POINT('',(3.235004417766,0.808731986114));
#635 = CARTESIAN_POINT('',(3.216246732287,0.802837535899));
#636 = CARTESIAN_POINT('',(3.19738361535,0.798363297288));
#637 = CARTESIAN_POINT('',(3.178443296938,0.795379111705));
#638 = CARTESIAN_POINT('',(3.159461104718,0.79392528918));
#639 = CARTESIAN_POINT('',(3.122165467076,0.794071647429));
#640 = CARTESIAN_POINT('',(3.103847448572,0.795567279033));
#641 = CARTESIAN_POINT('',(3.085569661505,0.798486368475));
#642 = CARTESIAN_POINT('',(3.067363854413,0.802792194363));
#643 = CARTESIAN_POINT('',(3.049255575974,0.808422431541));
#644 = CARTESIAN_POINT('',(3.020778641592,0.819310004074));
#645 = CARTESIAN_POINT('',(3.010330085026,0.823744399828));
#646 = CARTESIAN_POINT('',(2.999924843546,0.828588337111));
#647 = CARTESIAN_POINT('',(2.989565270042,0.83382586797));
#648 = CARTESIAN_POINT('',(2.979252768329,0.839440746914));
#649 = CARTESIAN_POINT('',(2.957673340276,0.852004993073));
#650 = CARTESIAN_POINT('',(2.9464167275,0.859032078114));
#651 = CARTESIAN_POINT('',(2.935218736463,0.866477490208));
#652 = CARTESIAN_POINT('',(2.924079063497,0.874320892905));
#653 = CARTESIAN_POINT('',(2.912996600336,0.882543300731));
#654 = CARTESIAN_POINT('',(2.874570154958,0.912457898892));
#655 = CARTESIAN_POINT('',(2.847519940118,0.93601776766));
#656 = CARTESIAN_POINT('',(2.82077821072,0.961553934145));
#657 = CARTESIAN_POINT('',(2.79431029465,0.988870793486));
#658 = CARTESIAN_POINT('',(2.768084614164,1.017834060583));
#659 = CARTESIAN_POINT('',(2.716041215522,1.078928118343));
#660 = CARTESIAN_POINT('',(2.690231177162,1.111050709657));
#661 = CARTESIAN_POINT('',(2.664607836719,1.144670855234));
#662 = CARTESIAN_POINT('',(2.639164802939,1.179746356764));
#663 = CARTESIAN_POINT('',(2.613918434468,1.216261573055));
#664 = CARTESIAN_POINT('',(2.577338162247,1.271783692269));
#665 = CARTESIAN_POINT('',(2.56581983507,1.289652547726));
#666 = CARTESIAN_POINT('',(2.554357385394,1.307829396406));
#667 = CARTESIAN_POINT('',(2.542957171566,1.326313956729));
#668 = CARTESIAN_POINT('',(2.531627526766,1.345105687976));
#669 = CARTESIAN_POINT('',(2.501358438617,1.396496545403));
#670 = CARTESIAN_POINT('',(2.482569081018,1.42966602901));
#671 = CARTESIAN_POINT('',(2.464063351125,1.463703450719));
#672 = CARTESIAN_POINT('',(2.445912769384,1.498594967962));
#673 = CARTESIAN_POINT('',(2.428212402056,1.534311082561));
#674 = CARTESIAN_POINT('',(2.411085348334,1.570796326795));
#675 = ( GEOMETRIC_REPRESENTATION_CONTEXT(2) 
PARAMETRIC_REPRESENTATION_CONTEXT() REPRESENTATION_CONTEXT('2D SPACE',''
  ) );
#676 = PCURVE('',#404,#677);
#677 = DEFINITIONAL_REPRESENTATION('',(#678),#751);
#678 = B_SPLINE_CURVE_WITH_KNOTS('',6,(#679,#680,#681,#682,#683,#684,
    #685,#686,#687,#688,#689,#690,#691,#692,#693,#694,#695,#696,#697,
    #698,#699,#700,#701,#702,#703,#704,#705,#706,#707,#708,#709,#710,
    #711,#712,#713,#714,#715,#716,#717,#718,#719,#720,#721,#722,#723,
    #724,#725,#726,#727,#728,#729,#730,#731,#732,#733,#734,#735,#736,
    #737,#738,#739,#740,#741,#742,#743,#744,#745,#746,#747,#748,#749,
    #750),.UNSPECIFIED.,.F.,.F.,(7,5,5,5,5,5,5,5,5,5,5,5,5,5,7),(0.,
    6.320074006079E-02,0.19666068828,0.277936755707,0.310558115857,
    0.356150629482,0.396814841847,0.470819346884,0.542247189956,
    0.583893955542,0.629800042792,0.743864900788,0.857966916355,
    0.910749091676,1.),.UNSPECIFIED.);
#679 = CARTESIAN_POINT('',(6.28318530718,5.980088760768));
#680 = CARTESIAN_POINT('',(6.248054861946,5.973365252266));
#681 = CARTESIAN_POINT('',(6.212985853219,5.965407848337));
#682 = CARTESIAN_POINT('',(6.177994055344,5.956317024327));
#683 = CARTESIAN_POINT('',(6.143088415594,5.946192296109));
#684 = CARTESIAN_POINT('',(6.10827172759,5.935130691047));
#685 = CARTESIAN_POINT('',(6.000201650283,5.898084632182));
#686 = CARTESIAN_POINT('',(5.927267392445,5.86918838743));
#687 = CARTESIAN_POINT('',(5.854675906448,5.837404938898));
#688 = CARTESIAN_POINT('',(5.782324543798,5.80354226884));
#689 = CARTESIAN_POINT('',(5.71007360245,5.768379283335));
#690 = CARTESIAN_POINT('',(5.593615397349,5.710988283763));
#691 = CARTESIAN_POINT('',(5.549496220226,5.689082182654));
#692 = CARTESIAN_POINT('',(5.50528807406,5.667173045395));
#693 = CARTESIAN_POINT('',(5.460945327155,5.645452526096));
#694 = CARTESIAN_POINT('',(5.416421675916,5.624126122504));
#695 = CARTESIAN_POINT('',(5.353703628707,5.595104163042));
#696 = CARTESIAN_POINT('',(5.335703706253,5.586891490786));
#697 = CARTESIAN_POINT('',(5.317663972901,5.578792840845));
#698 = CARTESIAN_POINT('',(5.299581674244,5.57082324012));
#699 = CARTESIAN_POINT('',(5.28145426467,5.562998226715));
#700 = CARTESIAN_POINT('',(5.237877724972,5.544621905351));
#701 = CARTESIAN_POINT('',(5.212383538963,5.534223812452));
#702 = CARTESIAN_POINT('',(5.186790396221,5.524183165104));
#703 = CARTESIAN_POINT('',(5.161093497784,5.51454584811));
#704 = CARTESIAN_POINT('',(5.135289900861,5.505358920957));
#705 = CARTESIAN_POINT('',(5.086268397656,5.488919360849));
#706 = CARTESIAN_POINT('',(5.063072604094,5.481565018661));
#707 = CARTESIAN_POINT('',(5.03979104473,5.474639898873));
#708 = CARTESIAN_POINT('',(5.016425066215,5.468177525329));
#709 = CARTESIAN_POINT('',(4.992977972739,5.462210179176));
#710 = CARTESIAN_POINT('',(4.926646675514,5.446862566134));
#711 = CARTESIAN_POINT('',(4.883580919272,5.43869372023));
#712 = CARTESIAN_POINT('',(4.840304634677,5.43244427391));
#713 = CARTESIAN_POINT('',(4.796872249299,5.428259267504));
#714 = CARTESIAN_POINT('',(4.753354146786,5.42622118237));
#715 = CARTESIAN_POINT('',(4.66785026196,5.426426376181));
#716 = CARTESIAN_POINT('',(4.62585403762,5.428523110623));
#717 = CARTESIAN_POINT('',(4.583940043328,5.432615370748));
#718 = CARTESIAN_POINT('',(4.542171536753,5.438627963156));
#719 = CARTESIAN_POINT('',(4.500597838062,5.446431442263));
#720 = CARTESIAN_POINT('',(4.435159264225,5.461361571812));
#721 = CARTESIAN_POINT('',(4.411136007748,5.467414369413));
#722 = CARTESIAN_POINT('',(4.387197515926,5.473989359827));
#723 = CARTESIAN_POINT('',(4.363347462479,5.481051948731));
#724 = CARTESIAN_POINT('',(4.339587361296,5.488566124902));
#725 = CARTESIAN_POINT('',(4.289825651273,5.505236847439));
#726 = CARTESIAN_POINT('',(4.263843458164,5.514482725687));
#727 = CARTESIAN_POINT('',(4.237969462693,5.524185520608));
#728 = CARTESIAN_POINT('',(4.212200666399,5.534297187092));
#729 = CARTESIAN_POINT('',(4.186532163746,5.544770886742));
#730 = CARTESIAN_POINT('',(4.097410498129,5.582375647724));
#731 = CARTESIAN_POINT('',(4.034458456214,5.611142768048));
#732 = CARTESIAN_POINT('',(3.971969771986,5.641190092911));
#733 = CARTESIAN_POINT('',(3.909821981649,5.67190422209));
#734 = CARTESIAN_POINT('',(3.847892122184,5.702748481434));
#735 = CARTESIAN_POINT('',(3.724154047439,5.763717783535));
#736 = CARTESIAN_POINT('',(3.662364014582,5.793833448209));
#737 = CARTESIAN_POINT('',(3.600526776508,5.823076419614));
#738 = CARTESIAN_POINT('',(3.538544870733,5.850957906669));
#739 = CARTESIAN_POINT('',(3.476347145387,5.876979834267));
#740 = CARTESIAN_POINT('',(3.384977985308,5.911549223305));
#741 = CARTESIAN_POINT('',(3.356023338466,5.921971470552));
#742 = CARTESIAN_POINT('',(3.327008339217,5.9318298203));
#743 = CARTESIAN_POINT('',(3.297931395025,5.941069963623));
#744 = CARTESIAN_POINT('',(3.268793402941,5.949636060993));
#745 = CARTESIAN_POINT('',(3.190230283112,5.970719301557));
#746 = CARTESIAN_POINT('',(3.140696329239,5.981877053388));
#747 = CARTESIAN_POINT('',(3.091017530533,5.990669055739));
#748 = CARTESIAN_POINT('',(3.041238902791,5.996804675473));
#749 = CARTESIAN_POINT('',(2.991436948991,6.));
#750 = CARTESIAN_POINT('',(2.941727658407,6.));
#751 = ( GEOMETRIC_REPRESENTATION_CONTEXT(2) 
PARAMETRIC_REPRESENTATION_CONTEXT() REPRESENTATION_CONTEXT('2D SPACE',''
  ) );
#752 = ORIENTED_EDGE('',*,*,#753,.F.);
#753 = EDGE_CURVE('',#754,#524,#756,.T.);
#754 = VERTEX_POINT('',#755);
#755 = CARTESIAN_POINT('',(13.,1.86209,1.668118950165));
#756 = SURFACE_CURVE('',#757,(#762,#769),.PCURVE_S1.);
#757 = CIRCLE('',#758,2.5);
#758 = AXIS2_PLACEMENT_3D('',#759,#760,#761);
#759 = CARTESIAN_POINT('',(13.,0.,0.));
#760 = DIRECTION('',(1.,0.,0.));
#761 = DIRECTION('',(-0.,1.,0.));
#762 = PCURVE('',#345,#763);
#763 = DEFINITIONAL_REPRESENTATION('',(#764),#768);
#764 = LINE('',#765,#766);
#765 = CARTESIAN_POINT('',(0.,1.570796326795));
#766 = VECTOR('',#767,1.);
#767 = DIRECTION('',(1.,0.));
#768 = ( GEOMETRIC_REPRESENTATION_CONTEXT(2) 
PARAMETRIC_REPRESENTATION_CONTEXT() REPRESENTATION_CONTEXT('2D SPACE',''
  ) );
#769 = PCURVE('',#770,#775);
#770 = PLANE('',#771);
#771 = AXIS2_PLACEMENT_3D('',#772,#773,#774);
#772 = CARTESIAN_POINT('',(13.,0.,0.));
#773 = DIRECTION('',(1.,0.,0.));
#774 = DIRECTION('',(-0.,1.,0.));
#775 = DEFINITIONAL_REPRESENTATION('',(#776),#780);
#776 = CIRCLE('',#777,2.5);
#777 = AXIS2_PLACEMENT_2D('',#778,#779);
#778 = CARTESIAN_POINT('',(0.,0.));
#779 = DIRECTION('',(1.,0.));
#780 = ( GEOMETRIC_REPRESENTATION_CONTEXT(2) 
PARAMETRIC_REPRESENTATION_CONTEXT() REPRESENTATION_CONTEXT('2D SPACE',''
  ) );
#781 = ORIENTED_EDGE('',*,*,#782,.T.);
#782 = EDGE_CURVE('',#754,#783,#785,.T.);
#783 = VERTEX_POINT('',#784);
#784 = CARTESIAN_POINT('',(12.426322544167,3.902,0.));
#785 = SURFACE_CURVE('',#786,(#819,#855),.PCURVE_S1.);
#786 = B_SPLINE_CURVE_WITH_KNOTS('',6,(#787,#788,#789,#790,#791,#792,
    #793,#794,#795,#796,#797,#798,#799,#800,#801,#802,#803,#804,#805,
    #806,#807,#808,#809,#810,#811,#812,#813,#814,#815,#816,#817,#818),
  .UNSPECIFIED.,.F.,.F.,(7,5,5,5,5,5,7),(0.,0.169056504916,0.26867591544
    ,0.483993136391,0.698954852568,0.784997772261,1.),.UNSPECIFIED.);
#787 = CARTESIAN_POINT('',(13.,1.86209,1.668118950165));
#788 = CARTESIAN_POINT('',(13.,1.945316399429,1.684978079203));
#789 = CARTESIAN_POINT('',(12.996781089489,2.029708424023,1.696885783795
    ));
#790 = CARTESIAN_POINT('',(12.990601155799,2.114701802746,1.703692495957
    ));
#791 = CARTESIAN_POINT('',(12.98174734036,2.199777376268,1.705374666413)
  );
#792 = CARTESIAN_POINT('',(12.970513527249,2.284471340341,1.701992885045
    ));
#793 = CARTESIAN_POINT('',(12.949319547142,2.417833323464,1.688733815729
    ));
#794 = CARTESIAN_POINT('',(12.940731405709,2.467011292852,1.682094916378
    ));
#795 = CARTESIAN_POINT('',(12.931470518197,2.515838899382,1.673754280389
    ));
#796 = CARTESIAN_POINT('',(12.921592707464,2.564242326047,1.663737974966
    ));
#797 = CARTESIAN_POINT('',(12.911152263811,2.612154190881,1.652075104034
    ));
#798 = CARTESIAN_POINT('',(12.876533171426,2.761875199561,1.610093792616
    ));
#799 = CARTESIAN_POINT('',(12.850485109463,2.861639699443,1.573844835411
    ));
#800 = CARTESIAN_POINT('',(12.822583666587,2.958214013072,1.530348792138
    ));
#801 = CARTESIAN_POINT('',(12.793326600259,3.051081578387,1.479934693866
    ));
#802 = CARTESIAN_POINT('',(12.7632025597,3.139784805097,1.422919169417)
  );
#803 = CARTESIAN_POINT('',(12.702268529837,3.307891943343,1.296315275078
    ));
#804 = CARTESIAN_POINT('',(12.67146885168,3.387285558381,1.22676636223)
  );
#805 = CARTESIAN_POINT('',(12.640804179378,3.461690544835,1.151174790879
    ));
#806 = CARTESIAN_POINT('',(12.610809329908,3.530648475684,1.069802225008
    ));
#807 = CARTESIAN_POINT('',(12.582095587006,3.593666081036,0.982937043974
    ));
#808 = CARTESIAN_POINT('',(12.544621905351,3.672834519339,0.854067695384
    ));
#809 = CARTESIAN_POINT('',(12.534223812452,3.694424529974,0.816406105438
    ));
#810 = CARTESIAN_POINT('',(12.524183165104,3.714938237052,0.77794453302)
  );
#811 = CARTESIAN_POINT('',(12.51454584811,3.734337423425,0.738711089276)
  );
#812 = CARTESIAN_POINT('',(12.505358920957,3.75258255756,0.698739067909)
  );
#813 = CARTESIAN_POINT('',(12.474956564159,3.812241349875,0.55644000287)
  );
#814 = CARTESIAN_POINT('',(12.456336936869,3.847421400177,0.450384318994
    ));
#815 = CARTESIAN_POINT('',(12.441571807223,3.874489656909,0.34061694409)
  );
#816 = CARTESIAN_POINT('',(12.431401769115,3.892833569107,0.228084100818
    ));
#817 = CARTESIAN_POINT('',(12.426322544167,3.902,0.114020292261));
#818 = CARTESIAN_POINT('',(12.426322544167,3.902,0.));
#819 = PCURVE('',#345,#820);
#820 = DEFINITIONAL_REPRESENTATION('',(#821),#854);
#821 = B_SPLINE_CURVE_WITH_KNOTS('',6,(#822,#823,#824,#825,#826,#827,
    #828,#829,#830,#831,#832,#833,#834,#835,#836,#837,#838,#839,#840,
    #841,#842,#843,#844,#845,#846,#847,#848,#849,#850,#851,#852,#853),
  .UNSPECIFIED.,.F.,.F.,(7,5,5,5,5,5,7),(0.,0.169056504916,0.26867591544
    ,0.483993136391,0.698954852568,0.784997772261,1.),.UNSPECIFIED.);
#822 = CARTESIAN_POINT('',(0.730507305256,1.570796326795));
#823 = CARTESIAN_POINT('',(0.713317174304,1.534176711046));
#824 = CARTESIAN_POINT('',(0.695549508437,1.498331922627));
#825 = CARTESIAN_POINT('',(0.677328764346,1.463318017001));
#826 = CARTESIAN_POINT('',(0.658750953413,1.4291647223));
#827 = CARTESIAN_POINT('',(0.639888211225,1.395885921097));
#828 = CARTESIAN_POINT('',(0.609541406591,1.344400364546));
#829 = CARTESIAN_POINT('',(0.598208618042,1.325616758671));
#830 = CARTESIAN_POINT('',(0.586805470483,1.307140387454));
#831 = CARTESIAN_POINT('',(0.575340259798,1.288971783555));
#832 = CARTESIAN_POINT('',(0.563819311034,1.271111227431));
#833 = CARTESIAN_POINT('',(0.527235198339,1.2156217579));
#834 = CARTESIAN_POINT('',(0.50198809007,1.179130630561));
#835 = CARTESIAN_POINT('',(0.476544583597,1.144079075741));
#836 = CARTESIAN_POINT('',(0.450920814145,1.110482904195));
#837 = CARTESIAN_POINT('',(0.425110234133,1.078384581277));
#838 = CARTESIAN_POINT('',(0.373099783566,1.017380807585));
#839 = CARTESIAN_POINT('',(0.346908134662,0.988479350273));
#840 = CARTESIAN_POINT('',(0.320474602384,0.961220863253));
#841 = CARTESIAN_POINT('',(0.293767694346,0.935739465987));
#842 = CARTESIAN_POINT('',(0.266752883895,0.91223034861));
#843 = CARTESIAN_POINT('',(0.22843708656,0.882426720608));
#844 = CARTESIAN_POINT('',(0.217429739509,0.874264625269));
#845 = CARTESIAN_POINT('',(0.206365956407,0.866476515424));
#846 = CARTESIAN_POINT('',(0.195244654449,0.859080992387));
#847 = CARTESIAN_POINT('',(0.184065533969,0.852097972264));
#848 = CARTESIAN_POINT('',(0.144752051164,0.829181205987));
#849 = CARTESIAN_POINT('',(0.116300294031,0.815508495348));
#850 = CARTESIAN_POINT('',(8.7512287128E-02,0.804873375377));
#851 = CARTESIAN_POINT('',(5.845304891388E-02,0.79762069001));
#852 = CARTESIAN_POINT('',(2.922098725297E-02,0.793997587343));
#853 = CARTESIAN_POINT('',(0.,0.793997587343));
#854 = ( GEOMETRIC_REPRESENTATION_CONTEXT(2) 
PARAMETRIC_REPRESENTATION_CONTEXT() REPRESENTATION_CONTEXT('2D SPACE',''
  ) );
#855 = PCURVE('',#376,#856);
#856 = DEFINITIONAL_REPRESENTATION('',(#857),#890);
#857 = B_SPLINE_CURVE_WITH_KNOTS('',6,(#858,#859,#860,#861,#862,#863,
    #864,#865,#866,#867,#868,#869,#870,#871,#872,#873,#874,#875,#876,
    #877,#878,#879,#880,#881,#882,#883,#884,#885,#886,#887,#888,#889),
  .UNSPECIFIED.,.F.,.F.,(7,5,5,5,5,5,7),(0.,0.169056504916,0.26867591544
    ,0.483993136391,0.698954852568,0.784997772261,1.),.UNSPECIFIED.);
#858 = CARTESIAN_POINT('',(3.341457648773,6.));
#859 = CARTESIAN_POINT('',(3.291565283831,6.));
#860 = CARTESIAN_POINT('',(3.241579600588,5.996781089489));
#861 = CARTESIAN_POINT('',(3.191617844148,5.990601155799));
#862 = CARTESIAN_POINT('',(3.141757212486,5.98174734036));
#863 = CARTESIAN_POINT('',(3.092042984967,5.970513527249));
#864 = CARTESIAN_POINT('',(3.013300633821,5.949319547142));
#865 = CARTESIAN_POINT('',(2.984162267421,5.940731405709));
#866 = CARTESIAN_POINT('',(2.955084995423,5.931470518197));
#867 = CARTESIAN_POINT('',(2.92606966517,5.921592707464));
#868 = CARTESIAN_POINT('',(2.897114640385,5.911152263811));
#869 = CARTESIAN_POINT('',(2.805754256862,5.876533171426));
#870 = CARTESIAN_POINT('',(2.743565277688,5.850485109463));
#871 = CARTESIAN_POINT('',(2.681591258259,5.822583666587));
#872 = CARTESIAN_POINT('',(2.619760807412,5.793326600259));
#873 = CARTESIAN_POINT('',(2.557976306194,5.7632025597));
#874 = CARTESIAN_POINT('',(2.434328560025,5.702268529837));
#875 = CARTESIAN_POINT('',(2.372483662464,5.67146885168));
#876 = CARTESIAN_POINT('',(2.310420160339,5.640804179378));
#877 = CARTESIAN_POINT('',(2.248015568621,5.610809329908));
#878 = CARTESIAN_POINT('',(2.185147980553,5.582095587006));
#879 = CARTESIAN_POINT('',(2.096285071382,5.544621905351));
#880 = CARTESIAN_POINT('',(2.070790885373,5.534223812452));
#881 = CARTESIAN_POINT('',(2.045197742631,5.524183165104));
#882 = CARTESIAN_POINT('',(2.019500844194,5.51454584811));
#883 = CARTESIAN_POINT('',(1.993697247271,5.505358920957));
#884 = CARTESIAN_POINT('',(1.903039758786,5.474956564159));
#885 = CARTESIAN_POINT('',(1.837581782327,5.456336936869));
#886 = CARTESIAN_POINT('',(1.771465729604,5.441571807223));
#887 = CARTESIAN_POINT('',(1.704805593659,5.431401769115));
#888 = CARTESIAN_POINT('',(1.637788272894,5.426322544167));
#889 = CARTESIAN_POINT('',(1.570796326795,5.426322544167));
#890 = ( GEOMETRIC_REPRESENTATION_CONTEXT(2) 
PARAMETRIC_REPRESENTATION_CONTEXT() REPRESENTATION_CONTEXT('2D SPACE',''
  ) );
#891 = ORIENTED_EDGE('',*,*,#892,.F.);
#892 = EDGE_CURVE('',#308,#783,#893,.T.);
#893 = SEAM_CURVE('',#894,(#899,#906),.PCURVE_S1.);
#894 = CIRCLE('',#895,2.);
#895 = AXIS2_PLACEMENT_3D('',#896,#897,#898);
#896 = CARTESIAN_POINT('',(11.,2.5,0.));
#897 = DIRECTION('',(0.,0.,-1.));
#898 = DIRECTION('',(-1.,0.,0.));
#899 = PCURVE('',#345,#900);
#900 = DEFINITIONAL_REPRESENTATION('',(#901),#905);
#901 = LINE('',#902,#903);
#902 = CARTESIAN_POINT('',(0.,-1.570796326795));
#903 = VECTOR('',#904,1.);
#904 = DIRECTION('',(0.,1.));
#905 = ( GEOMETRIC_REPRESENTATION_CONTEXT(2) 
PARAMETRIC_REPRESENTATION_CONTEXT() REPRESENTATION_CONTEXT('2D SPACE',''
  ) );
#906 = PCURVE('',#345,#907);
#907 = DEFINITIONAL_REPRESENTATION('',(#908),#912);
#908 = LINE('',#909,#910);
#909 = CARTESIAN_POINT('',(6.28318530718,-1.570796326795));
#910 = VECTOR('',#911,1.);
#911 = DIRECTION('',(0.,1.));
#912 = ( GEOMETRIC_REPRESENTATION_CONTEXT(2) 
PARAMETRIC_REPRESENTATION_CONTEXT() REPRESENTATION_CONTEXT('2D SPACE',''
  ) );
#913 = ORIENTED_EDGE('',*,*,#330,.T.);
#914 = ORIENTED_EDGE('',*,*,#892,.T.);
#915 = ORIENTED_EDGE('',*,*,#916,.T.);
#916 = EDGE_CURVE('',#783,#917,#919,.T.);
#917 = VERTEX_POINT('',#918);
#918 = CARTESIAN_POINT('',(12.980088760768,2.2,-1.702));
#919 = SURFACE_CURVE('',#920,(#953,#989),.PCURVE_S1.);
#920 = B_SPLINE_CURVE_WITH_KNOTS('',6,(#921,#922,#923,#924,#925,#926,
    #927,#928,#929,#930,#931,#932,#933,#934,#935,#936,#937,#938,#939,
    #940,#941,#942,#943,#944,#945,#946,#947,#948,#949,#950,#951,#952),
  .UNSPECIFIED.,.F.,.F.,(7,5,5,5,5,5,7),(0.,0.244345428325,0.34146245453
    ,0.408211776448,0.581484901479,0.863976640461,1.),.UNSPECIFIED.);
#921 = CARTESIAN_POINT('',(12.426322544167,3.902,0.));
#922 = CARTESIAN_POINT('',(12.426322544167,3.902,-0.114957116812));
#923 = CARTESIAN_POINT('',(12.431485554722,3.892682311055,
    -0.229958332062));
#924 = CARTESIAN_POINT('',(12.441823554036,3.874035711499,-0.34338979438
    ));
#925 = CARTESIAN_POINT('',(12.456823830229,3.846528528475,
    -0.453989305473));
#926 = CARTESIAN_POINT('',(12.475723744669,3.810791349909,
    -0.560792786353));
#927 = CARTESIAN_POINT('',(12.506494849182,3.750329544136,
    -0.703726249342));
#928 = CARTESIAN_POINT('',(12.51574154119,3.73193964374,-0.743674493152)
  );
#929 = CARTESIAN_POINT('',(12.525435860661,3.71239597699,-0.782879321563
    ));
#930 = CARTESIAN_POINT('',(12.535530627714,3.691738154309,-0.8213076736)
  );
#931 = CARTESIAN_POINT('',(12.545979882494,3.670004435045,
    -0.858931620601));
#932 = CARTESIAN_POINT('',(12.564135486935,3.631578057,-0.921017292835)
  );
#933 = CARTESIAN_POINT('',(12.571677798732,3.615434206759,
    -0.945915870631));
#934 = CARTESIAN_POINT('',(12.579352676631,3.598810832329,
    -0.970415316946));
#935 = CARTESIAN_POINT('',(12.587146317279,3.581719263405,
    -0.994508434152));
#936 = CARTESIAN_POINT('',(12.595045355349,3.564170435015,
    -1.018188557147));
#937 = CARTESIAN_POINT('',(12.623781847266,3.499460633955,
    -1.101832271702));
#938 = CARTESIAN_POINT('',(12.645148866197,3.449738840057,
    -1.159387084112));
#939 = CARTESIAN_POINT('',(12.666913798446,3.397188755055,-1.21401233311
    ));
#940 = CARTESIAN_POINT('',(12.688869700889,3.341980873861,
    -1.265608549958));
#941 = CARTESIAN_POINT('',(12.710823619648,3.284277030702,
    -1.314077604027));
#942 = CARTESIAN_POINT('',(12.768085247771,3.126335040522,
    -1.433084741422));
#943 = CARTESIAN_POINT('',(12.80307805141,3.022238591083,-1.498256709238
    ));
#944 = CARTESIAN_POINT('',(12.836789061102,2.912589663111,
    -1.554435733117));
#945 = CARTESIAN_POINT('',(12.868450941219,2.798111601922,
    -1.601099530919));
#946 = CARTESIAN_POINT('',(12.897268281532,2.679667761905,
    -1.637725213919));
#947 = CARTESIAN_POINT('',(12.934481476879,2.499813481555,
    -1.676452001411));
#948 = CARTESIAN_POINT('',(12.94571700949,2.440680986237,-1.686605932505
    ));
#949 = CARTESIAN_POINT('',(12.955997067541,2.380990858751,
    -1.694277073346));
#950 = CARTESIAN_POINT('',(12.965221237763,2.320877967365,
    -1.699419949585));
#951 = CARTESIAN_POINT('',(12.973286486096,2.260492486735,
    -1.702000000106));
#952 = CARTESIAN_POINT('',(12.980088760768,2.2,-1.702));
#953 = PCURVE('',#345,#954);
#954 = DEFINITIONAL_REPRESENTATION('',(#955),#988);
#955 = B_SPLINE_CURVE_WITH_KNOTS('',6,(#956,#957,#958,#959,#960,#961,
    #962,#963,#964,#965,#966,#967,#968,#969,#970,#971,#972,#973,#974,
    #975,#976,#977,#978,#979,#980,#981,#982,#983,#984,#985,#986,#987),
  .UNSPECIFIED.,.F.,.F.,(7,5,5,5,5,5,7),(0.,0.244345428325,0.34146245453
    ,0.408211776448,0.581484901479,0.863976640461,1.),.UNSPECIFIED.);
#956 = CARTESIAN_POINT('',(6.28318530718,0.793997587343));
#957 = CARTESIAN_POINT('',(6.253724231625,0.793997587343));
#958 = CARTESIAN_POINT('',(6.224251935952,0.797680465065));
#959 = CARTESIAN_POINT('',(6.194956937984,0.805052881777));
#960 = CARTESIAN_POINT('',(6.165939369446,0.815859256308));
#961 = CARTESIAN_POINT('',(6.137265093531,0.829744683649));
#962 = CARTESIAN_POINT('',(6.097727071628,0.852960618179));
#963 = CARTESIAN_POINT('',(6.086539301966,0.85999610292));
#964 = CARTESIAN_POINT('',(6.075409492621,0.867443491424));
#965 = CARTESIAN_POINT('',(6.064337286876,0.875282866915));
#966 = CARTESIAN_POINT('',(6.053321554724,0.883495655539));
#967 = CARTESIAN_POINT('',(6.034826881064,0.897955225406));
#968 = CARTESIAN_POINT('',(6.027319126617,0.904013721575));
#969 = CARTESIAN_POINT('',(6.019836666876,0.910235317929));
#970 = CARTESIAN_POINT('',(6.012378867707,0.916614970738));
#971 = CARTESIAN_POINT('',(6.00494503247,0.923148027012));
#972 = CARTESIAN_POINT('',(5.9782973063,0.947176396827));
#973 = CARTESIAN_POINT('',(5.959217692321,0.965526591965));
#974 = CARTESIAN_POINT('',(5.940280324333,0.984808205886));
#975 = CARTESIAN_POINT('',(5.921472490745,1.004963583896));
#976 = CARTESIAN_POINT('',(5.902783074827,1.025950127195));
#977 = CARTESIAN_POINT('',(5.853907799013,1.083265654154));
#978 = CARTESIAN_POINT('',(5.823908960524,1.120917806244));
#979 = CARTESIAN_POINT('',(5.794153663031,1.160583661903));
#980 = CARTESIAN_POINT('',(5.764641868279,1.202207149869));
#981 = CARTESIAN_POINT('',(5.735407201819,1.245770908033));
#982 = CARTESIAN_POINT('',(5.692637004234,1.3132165002));
#983 = CARTESIAN_POINT('',(5.678822660784,1.335589026525));
#984 = CARTESIAN_POINT('',(5.665106297336,1.358412823964));
#985 = CARTESIAN_POINT('',(5.651503626401,1.381686854597));
#986 = CARTESIAN_POINT('',(5.638035334566,1.405408378872));
#987 = CARTESIAN_POINT('',(5.624727744988,1.429571813408));
#988 = ( GEOMETRIC_REPRESENTATION_CONTEXT(2) 
PARAMETRIC_REPRESENTATION_CONTEXT() REPRESENTATION_CONTEXT('2D SPACE',''
  ) );
#989 = PCURVE('',#376,#990);
#990 = DEFINITIONAL_REPRESENTATION('',(#991),#1024);
#991 = B_SPLINE_CURVE_WITH_KNOTS('',6,(#992,#993,#994,#995,#996,#997,
    #998,#999,#1000,#1001,#1002,#1003,#1004,#1005,#1006,#1007,#1008,
    #1009,#1010,#1011,#1012,#1013,#1014,#1015,#1016,#1017,#1018,#1019,
    #1020,#1021,#1022,#1023),.UNSPECIFIED.,.F.,.F.,(7,5,5,5,5,5,7),(0.,
    0.244345428325,0.34146245453,0.408211776448,0.581484901479,
    0.863976640461,1.),.UNSPECIFIED.);
#992 = CARTESIAN_POINT('',(1.570796326795,5.426322544167));
#993 = CARTESIAN_POINT('',(1.50325395499,5.426322544167));
#994 = CARTESIAN_POINT('',(1.435685875033,5.431485554722));
#995 = CARTESIAN_POINT('',(1.368484266032,5.441823554036));
#996 = CARTESIAN_POINT('',(1.301839023529,5.456823830229));
#997 = CARTESIAN_POINT('',(1.235865267968,5.475723744669));
#998 = CARTESIAN_POINT('',(1.144681145631,5.506494849182));
#999 = CARTESIAN_POINT('',(1.118854838713,5.51574154119));
#1000 = CARTESIAN_POINT('',(1.09313529873,5.525435860661));
#1001 = CARTESIAN_POINT('',(1.067519440481,5.535530627714));
#1002 = CARTESIAN_POINT('',(1.042002342742,5.545979882494));
#1003 = CARTESIAN_POINT('',(0.999102704139,5.564135486935));
#1004 = CARTESIAN_POINT('',(0.981671600525,5.571677798732));
#1005 = CARTESIAN_POINT('',(0.96428203327,5.579352676631));
#1006 = CARTESIAN_POINT('',(0.94693172557,5.587146317279));
#1007 = CARTESIAN_POINT('',(0.929618223597,5.595045355349));
#1008 = CARTESIAN_POINT('',(0.867483863991,5.623781847266));
#1009 = CARTESIAN_POINT('',(0.822861723566,5.645148866197));
#1010 = CARTESIAN_POINT('',(0.778421743453,5.666913798446));
#1011 = CARTESIAN_POINT('',(0.73411732951,5.688869700889));
#1012 = CARTESIAN_POINT('',(0.68990254934,5.710823619648));
#1013 = CARTESIAN_POINT('',(0.573710795394,5.768085247771));
#1014 = CARTESIAN_POINT('',(0.501820576373,5.80307805141));
#1015 = CARTESIAN_POINT('',(0.429832566013,5.836789061102));
#1016 = CARTESIAN_POINT('',(0.357608653064,5.868450941219));
#1017 = CARTESIAN_POINT('',(0.28504708482,5.897268281532));
#1018 = CARTESIAN_POINT('',(0.176952826029,5.934481476879));
#1019 = CARTESIAN_POINT('',(0.141732478985,5.94571700949));
#1020 = CARTESIAN_POINT('',(0.106420984533,5.955997067541));
#1021 = CARTESIAN_POINT('',(7.102109827599E-02,5.965221237763));
#1022 = CARTESIAN_POINT('',(3.554200160695E-02,5.973286486096));
#1023 = CARTESIAN_POINT('',(0.,5.980088760768));
#1024 = ( GEOMETRIC_REPRESENTATION_CONTEXT(2) 
PARAMETRIC_REPRESENTATION_CONTEXT() REPRESENTATION_CONTEXT('2D SPACE',''
  ) );
#1025 = ORIENTED_EDGE('',*,*,#1026,.T.);
#1026 = EDGE_CURVE('',#917,#1027,#1029,.T.);
#1027 = VERTEX_POINT('',#1028);
#1028 = CARTESIAN_POINT('',(13.,1.86209,-1.668118950165));
#1029 = SURFACE_CURVE('',#1030,(#1037,#1047),.PCURVE_S1.);
#1030 = B_SPLINE_CURVE_WITH_KNOTS('',5,(#1031,#1032,#1033,#1034,#1035,
    #1036),.UNSPECIFIED.,.F.,.F.,(6,6),(0.,1.),
  .PIECEWISE_BEZIER_KNOTS.);
#1031 = CARTESIAN_POINT('',(12.980088760768,2.2,-1.702));
#1032 = CARTESIAN_POINT('',(12.98772216709,2.132116280294,-1.702));
#1033 = CARTESIAN_POINT('',(12.993698822343,2.064092156955,
    -1.698615575601));
#1034 = CARTESIAN_POINT('',(12.997848866803,1.996201764032,
    -1.691818871124));
#1035 = CARTESIAN_POINT('',(13.,1.928755742922,-1.68162339551));
#1036 = CARTESIAN_POINT('',(13.,1.86209,-1.668118950165));
#1037 = PCURVE('',#345,#1038);
#1038 = DEFINITIONAL_REPRESENTATION('',(#1039),#1046);
#1039 = B_SPLINE_CURVE_WITH_KNOTS('',5,(#1040,#1041,#1042,#1043,#1044,
    #1045),.UNSPECIFIED.,.F.,.F.,(6,6),(0.,1.),
  .PIECEWISE_BEZIER_KNOTS.);
#1040 = CARTESIAN_POINT('',(5.624727741446,1.429571805747));
#1041 = CARTESIAN_POINT('',(5.609794173149,1.456687632864));
#1042 = CARTESIAN_POINT('',(5.595071421401,1.484383198022));
#1043 = CARTESIAN_POINT('',(5.580603460552,1.512647624105));
#1044 = CARTESIAN_POINT('',(5.566447585358,1.541463399909));
#1045 = CARTESIAN_POINT('',(5.552678001924,1.570796326795));
#1046 = ( GEOMETRIC_REPRESENTATION_CONTEXT(2) 
PARAMETRIC_REPRESENTATION_CONTEXT() REPRESENTATION_CONTEXT('2D SPACE',''
  ) );
#1047 = PCURVE('',#376,#1048);
#1048 = DEFINITIONAL_REPRESENTATION('',(#1049),#1056);
#1049 = B_SPLINE_CURVE_WITH_KNOTS('',5,(#1050,#1051,#1052,#1053,#1054,
    #1055),.UNSPECIFIED.,.F.,.F.,(6,6),(0.,1.),
  .PIECEWISE_BEZIER_KNOTS.);
#1050 = CARTESIAN_POINT('',(6.28318530718,5.980088760768));
#1051 = CARTESIAN_POINT('',(6.243300630502,5.98772216709));
#1052 = CARTESIAN_POINT('',(6.203333411823,5.993698822343));
#1053 = CARTESIAN_POINT('',(6.163312841655,5.997848866803));
#1054 = CARTESIAN_POINT('',(6.123284933773,6.));
#1055 = CARTESIAN_POINT('',(6.083320311996,6.));
#1056 = ( GEOMETRIC_REPRESENTATION_CONTEXT(2) 
PARAMETRIC_REPRESENTATION_CONTEXT() REPRESENTATION_CONTEXT('2D SPACE',''
  ) );
#1057 = ORIENTED_EDGE('',*,*,#1058,.F.);
#1058 = EDGE_CURVE('',#1059,#1027,#1061,.T.);
#1059 = VERTEX_POINT('',#1060);
#1060 = CARTESIAN_POINT('',(13.,-1.86209,-1.668118950165));
#1061 = SURFACE_CURVE('',#1062,(#1067,#1074),.PCURVE_S1.);
#1062 = CIRCLE('',#1063,2.5);
#1063 = AXIS2_PLACEMENT_3D('',#1064,#1065,#1066);
#1064 = CARTESIAN_POINT('',(13.,0.,0.));
#1065 = DIRECTION('',(1.,0.,0.));
#1066 = DIRECTION('',(-0.,1.,0.));
#1067 = PCURVE('',#345,#1068);
#1068 = DEFINITIONAL_REPRESENTATION('',(#1069),#1073);
#1069 = LINE('',#1070,#1071);
#1070 = CARTESIAN_POINT('',(0.,1.570796326795));
#1071 = VECTOR('',#1072,1.);
#1072 = DIRECTION('',(1.,0.));
#1073 = ( GEOMETRIC_REPRESENTATION_CONTEXT(2) 
PARAMETRIC_REPRESENTATION_CONTEXT() REPRESENTATION_CONTEXT('2D SPACE',''
  ) );
#1074 = PCURVE('',#770,#1075);
#1075 = DEFINITIONAL_REPRESENTATION('',(#1076),#1080);
#1076 = CIRCLE('',#1077,2.5);
#1077 = AXIS2_PLACEMENT_2D('',#1078,#1079);
#1078 = CARTESIAN_POINT('',(0.,0.));
#1079 = DIRECTION('',(1.,0.));
#1080 = ( GEOMETRIC_REPRESENTATION_CONTEXT(2) 
PARAMETRIC_REPRESENTATION_CONTEXT() REPRESENTATION_CONTEXT('2D SPACE',''
  ) );
#1081 = ORIENTED_EDGE('',*,*,#1082,.T.);
#1082 = EDGE_CURVE('',#1059,#522,#1083,.T.);
#1083 = SURFACE_CURVE('',#1084,(#1091,#1101),.PCURVE_S1.);
#1084 = B_SPLINE_CURVE_WITH_KNOTS('',5,(#1085,#1086,#1087,#1088,#1089,
    #1090),.UNSPECIFIED.,.F.,.F.,(6,6),(0.,1.),
  .PIECEWISE_BEZIER_KNOTS.);
#1085 = CARTESIAN_POINT('',(13.,-1.86209,-1.668118950165));
#1086 = CARTESIAN_POINT('',(13.,-1.928755743291,-1.681623395584));
#1087 = CARTESIAN_POINT('',(12.997848864021,-1.996201767031,
    -1.691818869535));
#1088 = CARTESIAN_POINT('',(12.993698828083,-2.064092136725,
    -1.698615576092));
#1089 = CARTESIAN_POINT('',(12.987722164857,-2.132116277584,
    -1.701999999222));
#1090 = CARTESIAN_POINT('',(12.980088760768,-2.2,-1.702));
#1091 = PCURVE('',#345,#1092);
#1092 = DEFINITIONAL_REPRESENTATION('',(#1093),#1100);
#1093 = B_SPLINE_CURVE_WITH_KNOTS('',5,(#1094,#1095,#1096,#1097,#1098,
    #1099),.UNSPECIFIED.,.F.,.F.,(6,6),(0.,1.),
  .PIECEWISE_BEZIER_KNOTS.);
#1094 = CARTESIAN_POINT('',(3.872099958846,1.570796326795));
#1095 = CARTESIAN_POINT('',(3.858330375335,1.541463399747));
#1096 = CARTESIAN_POINT('',(3.844174466396,1.512647694899));
#1097 = CARTESIAN_POINT('',(3.829706602407,1.484383078966));
#1098 = CARTESIAN_POINT('',(3.814983764948,1.456687684532));
#1099 = CARTESIAN_POINT('',(3.80005019619,1.429571855799));
#1100 = ( GEOMETRIC_REPRESENTATION_CONTEXT(2) 
PARAMETRIC_REPRESENTATION_CONTEXT() REPRESENTATION_CONTEXT('2D SPACE',''
  ) );
#1101 = PCURVE('',#404,#1102);
#1102 = DEFINITIONAL_REPRESENTATION('',(#1103),#1110);
#1103 = B_SPLINE_CURVE_WITH_KNOTS('',5,(#1104,#1105,#1106,#1107,#1108,
    #1109),.UNSPECIFIED.,.F.,.F.,(6,6),(0.,1.),
  .PIECEWISE_BEZIER_KNOTS.);
#1104 = CARTESIAN_POINT('',(0.199864995183,6.));
#1105 = CARTESIAN_POINT('',(0.159900373185,6.));
#1106 = CARTESIAN_POINT('',(0.119872463828,5.997848864021));
#1107 = CARTESIAN_POINT('',(7.985190722909E-02,5.993698828083));
#1108 = CARTESIAN_POINT('',(3.988467827028E-02,5.987722164857));
#1109 = CARTESIAN_POINT('',(0.,5.980088760768));
#1110 = ( GEOMETRIC_REPRESENTATION_CONTEXT(2) 
PARAMETRIC_REPRESENTATION_CONTEXT() REPRESENTATION_CONTEXT('2D SPACE',''
  ) );
#1111 = ADVANCED_FACE('',(#1112),#376,.F.);
#1112 = FACE_BOUND('',#1113,.F.);
#1113 = EDGE_LOOP('',(#1114,#1115,#1136,#1137,#1138,#1139,#1140,#1141,
    #1163));
#1114 = ORIENTED_EDGE('',*,*,#916,.T.);
#1115 = ORIENTED_EDGE('',*,*,#1116,.F.);
#1116 = EDGE_CURVE('',#422,#917,#1117,.T.);
#1117 = SEAM_CURVE('',#1118,(#1122,#1129),.PCURVE_S1.);
#1118 = LINE('',#1119,#1120);
#1119 = CARTESIAN_POINT('',(7.,2.2,-1.702));
#1120 = VECTOR('',#1121,1.);
#1121 = DIRECTION('',(1.,0.,2.22044604925E-16));
#1122 = PCURVE('',#376,#1123);
#1123 = DEFINITIONAL_REPRESENTATION('',(#1124),#1128);
#1124 = LINE('',#1125,#1126);
#1125 = CARTESIAN_POINT('',(6.28318530718,-0.));
#1126 = VECTOR('',#1127,1.);
#1127 = DIRECTION('',(0.,1.));
#1128 = ( GEOMETRIC_REPRESENTATION_CONTEXT(2) 
PARAMETRIC_REPRESENTATION_CONTEXT() REPRESENTATION_CONTEXT('2D SPACE',''
  ) );
#1129 = PCURVE('',#376,#1130);
#1130 = DEFINITIONAL_REPRESENTATION('',(#1131),#1135);
#1131 = LINE('',#1132,#1133);
#1132 = CARTESIAN_POINT('',(0.,-0.));
#1133 = VECTOR('',#1134,1.);
#1134 = DIRECTION('',(0.,1.));
#1135 = ( GEOMETRIC_REPRESENTATION_CONTEXT(2) 
PARAMETRIC_REPRESENTATION_CONTEXT() REPRESENTATION_CONTEXT('2D SPACE',''
  ) );
#1136 = ORIENTED_EDGE('',*,*,#445,.T.);
#1137 = ORIENTED_EDGE('',*,*,#361,.T.);
#1138 = ORIENTED_EDGE('',*,*,#421,.T.);
#1139 = ORIENTED_EDGE('',*,*,#1116,.T.);
#1140 = ORIENTED_EDGE('',*,*,#1026,.T.);
#1141 = ORIENTED_EDGE('',*,*,#1142,.F.);
#1142 = EDGE_CURVE('',#754,#1027,#1143,.T.);
#1143 = SURFACE_CURVE('',#1144,(#1149,#1156),.PCURVE_S1.);
#1144 = CIRCLE('',#1145,1.702);
#1145 = AXIS2_PLACEMENT_3D('',#1146,#1147,#1148);
#1146 = CARTESIAN_POINT('',(13.,2.2,1.33226762955E-15));
#1147 = DIRECTION('',(1.,0.,2.22044604925E-16));
#1148 = DIRECTION('',(2.22044604925E-16,0.,-1.));
#1149 = PCURVE('',#376,#1150);
#1150 = DEFINITIONAL_REPRESENTATION('',(#1151),#1155);
#1151 = LINE('',#1152,#1153);
#1152 = CARTESIAN_POINT('',(0.,6.));
#1153 = VECTOR('',#1154,1.);
#1154 = DIRECTION('',(1.,0.));
#1155 = ( GEOMETRIC_REPRESENTATION_CONTEXT(2) 
PARAMETRIC_REPRESENTATION_CONTEXT() REPRESENTATION_CONTEXT('2D SPACE',''
  ) );
#1156 = PCURVE('',#770,#1157);
#1157 = DEFINITIONAL_REPRESENTATION('',(#1158),#1162);
#1158 = CIRCLE('',#1159,1.702);
#1159 = AXIS2_PLACEMENT_2D('',#1160,#1161);
#1160 = CARTESIAN_POINT('',(2.2,1.33226762955E-15));
#1161 = DIRECTION('',(0.,-1.));
#1162 = ( GEOMETRIC_REPRESENTATION_CONTEXT(2) 
PARAMETRIC_REPRESENTATION_CONTEXT() REPRESENTATION_CONTEXT('2D SPACE',''
  ) );
#1163 = ORIENTED_EDGE('',*,*,#782,.T.);
#1164 = ADVANCED_FACE('',(#1165),#404,.F.);
#1165 = FACE_BOUND('',#1166,.F.);
#1166 = EDGE_LOOP('',(#1167,#1168,#1189,#1190,#1191,#1192,#1193,#1194));
#1167 = ORIENTED_EDGE('',*,*,#1082,.T.);
#1168 = ORIENTED_EDGE('',*,*,#1169,.F.);
#1169 = EDGE_CURVE('',#472,#522,#1170,.T.);
#1170 = SEAM_CURVE('',#1171,(#1175,#1182),.PCURVE_S1.);
#1171 = LINE('',#1172,#1173);
#1172 = CARTESIAN_POINT('',(7.,-2.2,-1.702));
#1173 = VECTOR('',#1174,1.);
#1174 = DIRECTION('',(1.,0.,2.22044604925E-16));
#1175 = PCURVE('',#404,#1176);
#1176 = DEFINITIONAL_REPRESENTATION('',(#1177),#1181);
#1177 = LINE('',#1178,#1179);
#1178 = CARTESIAN_POINT('',(6.28318530718,-0.));
#1179 = VECTOR('',#1180,1.);
#1180 = DIRECTION('',(0.,1.));
#1181 = ( GEOMETRIC_REPRESENTATION_CONTEXT(2) 
PARAMETRIC_REPRESENTATION_CONTEXT() REPRESENTATION_CONTEXT('2D SPACE',''
  ) );
#1182 = PCURVE('',#404,#1183);
#1183 = DEFINITIONAL_REPRESENTATION('',(#1184),#1188);
#1184 = LINE('',#1185,#1186);
#1185 = CARTESIAN_POINT('',(0.,-0.));
#1186 = VECTOR('',#1187,1.);
#1187 = DIRECTION('',(0.,1.));
#1188 = ( GEOMETRIC_REPRESENTATION_CONTEXT(2) 
PARAMETRIC_REPRESENTATION_CONTEXT() REPRESENTATION_CONTEXT('2D SPACE',''
  ) );
#1189 = ORIENTED_EDGE('',*,*,#495,.T.);
#1190 = ORIENTED_EDGE('',*,*,#389,.T.);
#1191 = ORIENTED_EDGE('',*,*,#471,.T.);
#1192 = ORIENTED_EDGE('',*,*,#1169,.T.);
#1193 = ORIENTED_EDGE('',*,*,#521,.T.);
#1194 = ORIENTED_EDGE('',*,*,#1195,.F.);
#1195 = EDGE_CURVE('',#1059,#524,#1196,.T.);
#1196 = SURFACE_CURVE('',#1197,(#1202,#1209),.PCURVE_S1.);
#1197 = CIRCLE('',#1198,1.702);
#1198 = AXIS2_PLACEMENT_3D('',#1199,#1200,#1201);
#1199 = CARTESIAN_POINT('',(13.,-2.2,1.33226762955E-15));
#1200 = DIRECTION('',(1.,0.,2.22044604925E-16));
#1201 = DIRECTION('',(2.22044604925E-16,0.,-1.));
#1202 = PCURVE('',#404,#1203);
#1203 = DEFINITIONAL_REPRESENTATION('',(#1204),#1208);
#1204 = LINE('',#1205,#1206);
#1205 = CARTESIAN_POINT('',(0.,6.));
#1206 = VECTOR('',#1207,1.);
#1207 = DIRECTION('',(1.,0.));
#1208 = ( GEOMETRIC_REPRESENTATION_CONTEXT(2) 
PARAMETRIC_REPRESENTATION_CONTEXT() REPRESENTATION_CONTEXT('2D SPACE',''
  ) );
#1209 = PCURVE('',#770,#1210);
#1210 = DEFINITIONAL_REPRESENTATION('',(#1211),#1215);
#1211 = CIRCLE('',#1212,1.702);
#1212 = AXIS2_PLACEMENT_2D('',#1213,#1214);
#1213 = CARTESIAN_POINT('',(-2.2,1.33226762955E-15));
#1214 = DIRECTION('',(0.,-1.));
#1215 = ( GEOMETRIC_REPRESENTATION_CONTEXT(2) 
PARAMETRIC_REPRESENTATION_CONTEXT() REPRESENTATION_CONTEXT('2D SPACE',''
  ) );
#1216 = ADVANCED_FACE('',(#1217),#770,.T.);
#1217 = FACE_BOUND('',#1218,.T.);
#1218 = EDGE_LOOP('',(#1219,#1220,#1221,#1222));
#1219 = ORIENTED_EDGE('',*,*,#1142,.F.);
#1220 = ORIENTED_EDGE('',*,*,#753,.T.);
#1221 = ORIENTED_EDGE('',*,*,#1195,.F.);
#1222 = ORIENTED_EDGE('',*,*,#1058,.T.);
#1223 = ( GEOMETRIC_REPRESENTATION_CONTEXT(3) 
GLOBAL_UNCERTAINTY_ASSIGNED_CONTEXT((#1227)) 
GLOBAL_UNIT_ASSIGNED_CONTEXT((#1224,#1225,#1226)) REPRESENTATION_CONTEXT
('Context #1','3D Context with UNIT and UNCERTAINTY') );
#1224 = ( LENGTH_UNIT() NAMED_UNIT(*) SI_UNIT(.MILLI.,.METRE.) );
#1225 = ( NAMED_UNIT(*) PLANE_ANGLE_UNIT() SI_UNIT($,.RADIAN.) );
#1226 = ( NAMED_UNIT(*) SI_UNIT($,.STERADIAN.) SOLID_ANGLE_UNIT() );
#1227 = UNCERTAINTY_MEASURE_WITH_UNIT(LENGTH_MEASURE(1.E-07),#1224,
  'distance_accuracy_value','confusion accuracy');
#1228 = PRODUCT_RELATED_PRODUCT_CATEGORY('part',$,(#7));
ENDSEC;
END-ISO-10303-21;
