ISO-10303-21;
HEADER;
FILE_DESCRIPTION(('Open CASCADE Model'),'2;1');
FILE_NAME('Open CASCADE Shape Model','2026-10-05T00:03:31',('Author'),(
    'Open CASCADE'),'Open CASCADE STEP processor 8.0','build123d',
  'Unknown');
FILE_SCHEMA(('AUTOMOTIVE_DESIGN { 1 0 10303 214 1 1 1 1 }'));
ENDSEC;
DATA;
#1 = APPLICATION_PROTOCOL_DEFINITION('international standard',
  'automotive_design',2000,#2);
#2 = APPLICATION_CONTEXT(
  'core data for automotive mechanical design processes');
#3 = SHAPE_DEFINITION_REPRESENTATION(#4,#10);
#4 = PRODUCT_DEFINITION_SHAPE('','',#5);
#5 = PRODUCT_DEFINITION('design','',#6,#9);
#6 = PRODUCT_DEFINITION_FORMATION('','',#7);
#7 = PRODUCT('COMPOUND','COMPOUND','',(#8));
#8 = PRODUCT_CONTEXT('',#2,'mechanical');
#9 = PRODUCT_DEFINITION_CONTEXT('part definition',#2,'design');
#10 = SHAPE_REPRESENTATION('',(#11,#15,#589),#1163);
#11 = AXIS2_PLACEMENT_3D('',#12,#13,#14);
#12 = CARTESIAN_POINT('',(0.,0.,0.));
#13 = DIRECTION('',(0.,0.,1.));
#14 = DIRECTION('',(1.,0.,-0.));
#15 = MANIFOLD_SOLID_BREP('',#16);
#16 = CLOSED_SHELL('',(#17,#459,#500,#558));
#17 = ADVANCED_FACE('',(#18),#40,.F.);
#18 = FACE_BOUND('',#19,.F.);
#19 = EDGE_LOOP('',(#20,#188,#341,#388,#430));
#20 = ORIENTED_EDGE('',*,*,#21,.T.);
#21 = EDGE_CURVE('',#22,#24,#26,.T.);
#22 = VERTEX_POINT('',#23);
#23 = CARTESIAN_POINT('',(2.,1.904018316131,-24.73700282115));
#24 = VERTEX_POINT('',#25);
#25 = CARTESIAN_POINT('',(2.,0.695981683869,-27.26299717884));
#26 = SURFACE_CURVE('',#27,(#39,#168),.PCURVE_S1.);
#27 = B_SPLINE_CURVE_WITH_KNOTS('',10,(#28,#29,#30,#31,#32,#33,#34,#35,
    #36,#37,#38),.UNSPECIFIED.,.F.,.F.,(11,11),(0.,1.),
  .PIECEWISE_BEZIER_KNOTS.);
#28 = CARTESIAN_POINT('',(2.,1.904018316131,-24.73700282115));
#29 = CARTESIAN_POINT('',(1.560177028497,1.904018316131,-24.73700282115)
  );
#30 = CARTESIAN_POINT('',(1.120354095198,1.837780475694,-24.87550558401)
  );
#31 = CARTESIAN_POINT('',(0.740820765163,1.705303153718,-25.15251454128)
  );
#32 = CARTESIAN_POINT('',(0.481869379607,1.518267728851,-25.54360402919)
  );
#33 = CARTESIAN_POINT('',(0.389612969135,1.300000000001,-26.));
#34 = CARTESIAN_POINT('',(0.481869379607,1.081732271148,-26.4563959708)
  );
#35 = CARTESIAN_POINT('',(0.740820765163,0.894696846282,-26.84748545872)
  );
#36 = CARTESIAN_POINT('',(1.120354095198,0.762219524306,-27.12449441598)
  );
#37 = CARTESIAN_POINT('',(1.560177047599,0.695981683869,-27.26299717885)
  );
#38 = CARTESIAN_POINT('',(2.,0.695981683869,-27.26299717884));
#39 = PCURVE('',#40,#162);
#40 = ( BOUNDED_SURFACE() B_SPLINE_SURFACE(10,6,(
    (#41,#42,#43,#44,#45,#46,#47,#48,#49,#50,#51)
    ,(#52,#53,#54,#55,#56,#57,#58,#59,#60,#61,#62)
    ,(#63,#64,#65,#66,#67,#68,#69,#70,#71,#72,#73)
    ,(#74,#75,#76,#77,#78,#79,#80,#81,#82,#83,#84)
    ,(#85,#86,#87,#88,#89,#90,#91,#92,#93,#94,#95)
    ,(#96,#97,#98,#99,#100,#101,#102,#103,#104,#105,#106)
    ,(#107,#108,#109,#110,#111,#112,#113,#114,#115,#116,#117)
    ,(#118,#119,#120,#121,#122,#123,#124,#125,#126,#127,#128)
    ,(#129,#130,#131,#132,#133,#134,#135,#136,#137,#138,#139)
    ,(#140,#141,#142,#143,#144,#145,#146,#147,#148,#149,#150)
    ,(#151,#152,#153,#154,#155,#156,#157,#158,#159,#160,#161
)),.UNSPECIFIED.,.F.,.F.,.F.) B_SPLINE_SURFACE_WITH_KNOTS((11,11),(7,4,7
    ),(0.,1.),(0.,0.511781605739,1.),.UNSPECIFIED.) 
GEOMETRIC_REPRESENTATION_ITEM() RATIONAL_B_SPLINE_SURFACE((
    (1.,1.,1.,1.,1.,1.,1.,1.,1.,1.,1.)
    ,(1.,1.,1.,1.,1.,1.,1.,1.,1.,1.,1.)
    ,(1.,1.,1.,1.,1.,1.,1.,1.,1.,1.,1.)
    ,(1.,1.,1.,1.,1.,1.,1.,1.,1.,1.,1.)
    ,(1.,1.,1.,1.,1.,1.,1.,1.,1.,1.,1.)
    ,(1.,1.,1.,1.,1.,1.,1.,1.,1.,1.,1.)
    ,(1.,1.,1.,1.,1.,1.,1.,1.,1.,1.,1.)
    ,(1.,1.,1.,1.,1.,1.,1.,1.,1.,1.,1.)
    ,(1.,1.,1.,1.,1.,1.,1.,1.,1.,1.,1.)
    ,(1.,1.,1.,1.,1.,1.,1.,1.,1.,1.,1.)
,(1.,1.,1.,1.,1.,1.,1.,1.,1.,1.,1.
  ))) REPRESENTATION_ITEM('') SURFACE() );
#41 = CARTESIAN_POINT('',(2.,1.904018316131,-24.73700282115));
#42 = CARTESIAN_POINT('',(2.,3.582114131242,-25.71514184695));
#43 = CARTESIAN_POINT('',(2.,3.028266884339,-26.20626598574));
#44 = CARTESIAN_POINT('',(2.,5.061300345961,-27.41428111351));
#45 = CARTESIAN_POINT('',(2.,4.534407804625,-28.60545148775));
#46 = CARTESIAN_POINT('',(2.,4.731970695799,-31.00769434863));
#47 = CARTESIAN_POINT('',(2.,3.579163897405,-32.92478893489));
#48 = CARTESIAN_POINT('',(2.,3.147830917852,-33.70238524809));
#49 = CARTESIAN_POINT('',(2.,2.429362882634,-34.45292541675));
#50 = CARTESIAN_POINT('',(2.,1.919763476819,-35.15462428347));
#51 = CARTESIAN_POINT('',(2.,1.308118023631,-35.85526901646));
#52 = CARTESIAN_POINT('',(1.560177028497,1.904018316131,-24.73700282115)
  );
#53 = CARTESIAN_POINT('',(1.457451231978,3.582114131239,-25.71514184693)
  );
#54 = CARTESIAN_POINT('',(1.707881794123,3.028266884346,-26.20626598578)
  );
#55 = CARTESIAN_POINT('',(1.365872299875,5.061300345955,-27.41428111348)
  );
#56 = CARTESIAN_POINT('',(1.65627714324,4.534407804626,-28.60545148776)
  );
#57 = CARTESIAN_POINT('',(1.626977044176,4.731970695798,-31.00769434862)
  );
#58 = CARTESIAN_POINT('',(1.725231986696,3.579163897406,-32.92478893489)
  );
#59 = CARTESIAN_POINT('',(1.707454006867,3.147830917852,-33.7023852481)
  );
#60 = CARTESIAN_POINT('',(1.776339278049,2.429362882634,-34.45292541674)
  );
#61 = CARTESIAN_POINT('',(1.771566071756,1.919763476819,-35.15462428347)
  );
#62 = CARTESIAN_POINT('',(1.805221255477,1.308118023631,-35.85526901646)
  );
#63 = CARTESIAN_POINT('',(1.120354095198,1.837780475694,-24.87550558401)
  );
#64 = CARTESIAN_POINT('',(0.914903356627,3.399562277068,-25.79863127386)
  );
#65 = CARTESIAN_POINT('',(1.415761990884,2.977747327303,-26.31554298573)
  );
#66 = CARTESIAN_POINT('',(0.731746307823,4.844249745023,-27.48911293477)
  );
#67 = CARTESIAN_POINT('',(1.312553306535,4.412516859172,-28.63632055731)
  );
#68 = CARTESIAN_POINT('',(1.253955714408,4.599751699124,-30.97857675591)
  );
#69 = CARTESIAN_POINT('',(1.450461875653,3.495650074841,-32.87386118445)
  );
#70 = CARTESIAN_POINT('',(1.414920721564,3.059997205401,-33.65422998486)
  );
#71 = CARTESIAN_POINT('',(1.552655004012,2.366298492993,-34.40321350389)
  );
#72 = CARTESIAN_POINT('',(1.543140723726,1.854061521775,-35.11096974603)
  );
#73 = CARTESIAN_POINT('',(1.610440714178,1.252396798507,-35.81630951508)
  );
#74 = CARTESIAN_POINT('',(0.740820765163,1.705303153718,-25.15251454128)
  );
#75 = CARTESIAN_POINT('',(0.446720930135,3.034454045789,-25.96561219585)
  );
#76 = CARTESIAN_POINT('',(1.163695415944,2.876706961665,-26.53409969394)
  );
#77 = CARTESIAN_POINT('',(0.18453387939,4.410143165426,-27.63877843049)
  );
#78 = CARTESIAN_POINT('',(1.0159525236,4.16873194833,-28.69805946145));
#79 = CARTESIAN_POINT('',(0.932056884948,4.335310429922,-30.92034084897)
  );
#80 = CARTESIAN_POINT('',(1.213369923631,3.328620360593,-32.7720044219)
  );
#81 = CARTESIAN_POINT('',(1.162406320837,2.884327604336,-33.55791826539)
  );
#82 = CARTESIAN_POINT('',(1.359782680422,2.240168151233,-34.30378844632)
  );
#83 = CARTESIAN_POINT('',(1.345972765554,1.722655983863,-35.02365958967)
  );
#84 = CARTESIAN_POINT('',(1.442371643346,1.140952967714,-35.73838954704)
  );
#85 = CARTESIAN_POINT('',(0.481869379607,1.518267728851,-25.54360402919)
  );
#86 = CARTESIAN_POINT('',(0.127300379734,2.518983381609,-26.20136083047)
  );
#87 = CARTESIAN_POINT('',(0.991684145435,2.734055166934,-26.84266455601)
  );
#88 = CARTESIAN_POINT('',(-0.188793516046,3.797258580224,-27.85008063195
    ));
#89 = CARTESIAN_POINT('',(0.813567025138,3.824549157641,-28.78522428289)
  );
#90 = CARTESIAN_POINT('',(0.712457399661,3.961964377954,-30.83812166295)
  );
#91 = CARTESIAN_POINT('',(1.051566744859,3.092802840231,-32.62820001373)
  );
#92 = CARTESIAN_POINT('',(0.990345500882,2.636312034731,-33.421942514));
#93 = CARTESIAN_POINT('',(1.22776620841,2.062093581881,-34.1634171922));
#94 = CARTESIAN_POINT('',(1.211600444173,1.537133735627,-34.9003925129)
  );
#95 = CARTESIAN_POINT('',(1.32766752176,0.983613251527,-35.62837981777)
  );
#96 = CARTESIAN_POINT('',(0.389612969135,1.300000000001,-26.));
#97 = CARTESIAN_POINT('',(1.34778990902E-02,1.917436314994,
    -26.47647619401));
#98 = CARTESIAN_POINT('',(0.930445517087,2.567582514871,-27.20275544278)
  );
#99 = CARTESIAN_POINT('',(-0.321843088382,3.082030828052,-28.09666734831
    ));
#100 = CARTESIAN_POINT('',(0.741490489963,3.422892647506,-28.88694441275
    ));
#101 = CARTESIAN_POINT('',(0.634177948941,3.526274749097,-30.7421730209)
  );
#102 = CARTESIAN_POINT('',(0.993978378348,2.817607087214,-32.46038227785
    ));
#103 = CARTESIAN_POINT('',(0.928704032989,2.346881328541,-33.26326071135
    ));
#104 = CARTESIAN_POINT('',(1.181367498273,1.854283046281,-33.99960589833
    ));
#105 = CARTESIAN_POINT('',(1.163497220623,1.320631862771,-34.75654155605
    ));
#106 = CARTESIAN_POINT('',(1.286850809137,0.8,-35.5));
#107 = CARTESIAN_POINT('',(0.481869379607,1.081732271148,-26.4563959708)
  );
#108 = CARTESIAN_POINT('',(0.127300379734,1.315889248487,-26.75159155834
    ));
#109 = CARTESIAN_POINT('',(0.991684145436,2.401109862576,-27.56284632774
    ));
#110 = CARTESIAN_POINT('',(-0.188793516048,2.366803076103,-28.3432540665
    ));
#111 = CARTESIAN_POINT('',(0.813567025138,3.021236137318,-28.98866454213
    ));
#112 = CARTESIAN_POINT('',(0.712457399662,3.090585120263,-30.646224379)
  );
#113 = CARTESIAN_POINT('',(1.051566744858,2.542411334165,-32.29256454176
    ));
#114 = CARTESIAN_POINT('',(0.990345500885,2.057450622376,-33.10457890836
    ));
#115 = CARTESIAN_POINT('',(1.227766208407,1.646472510674,-33.8357946051)
  );
#116 = CARTESIAN_POINT('',(1.211600444175,1.104129989916,-34.61269059886
    ));
#117 = CARTESIAN_POINT('',(1.327667521759,0.616386748473,-35.37162018222
    ));
#118 = CARTESIAN_POINT('',(0.740820765163,0.894696846282,-26.84748545872
    ));
#119 = CARTESIAN_POINT('',(0.446720930135,0.800418584226,-26.98734019235
    ));
#120 = CARTESIAN_POINT('',(1.163695415942,2.25845806802,-27.8714111912)
  );
#121 = CARTESIAN_POINT('',(0.184533879392,1.753918490733,-28.55455626655
    ));
#122 = CARTESIAN_POINT('',(1.015952523599,2.677053346668,-29.07582936394
    ));
#123 = CARTESIAN_POINT('',(0.932056884948,2.717239068278,-30.56400519287
    ));
#124 = CARTESIAN_POINT('',(1.213369923632,2.306593813826,-32.14876013375
    ));
#125 = CARTESIAN_POINT('',(1.162406320834,1.809435052755,-32.96860315722
    ));
#126 = CARTESIAN_POINT('',(1.359782680425,1.468397941326,-33.69542335049
    ));
#127 = CARTESIAN_POINT('',(1.345972765552,0.91860774168,-34.48942352235)
  );
#128 = CARTESIAN_POINT('',(1.442371643346,0.459047032286,-35.26161045295
    ));
#129 = CARTESIAN_POINT('',(1.120354095198,0.762219524306,-27.12449441598
    ));
#130 = CARTESIAN_POINT('',(0.914903356626,0.435310352991,-27.15432111469
    ));
#131 = CARTESIAN_POINT('',(1.415761990885,2.157417702283,-28.08996789863
    ));
#132 = CARTESIAN_POINT('',(0.731746307821,1.319811911231,-28.70422176306
    ));
#133 = CARTESIAN_POINT('',(1.312553306535,2.433268435804,-29.13756826788
    ));
#134 = CARTESIAN_POINT('',(1.253955714408,2.452797799085,-30.50576928599
    ));
#135 = CARTESIAN_POINT('',(1.450461875653,2.139564099566,-32.04690337111
    ));
#136 = CARTESIAN_POINT('',(1.414920721566,1.633765451696,-32.87229143761
    ));
#137 = CARTESIAN_POINT('',(1.55265500401,1.342267599566,-33.5959982932)
  );
#138 = CARTESIAN_POINT('',(1.543140723727,0.787202203767,-34.40211336584
    ));
#139 = CARTESIAN_POINT('',(1.610440714178,0.347603201493,-35.18369048492
    ));
#140 = CARTESIAN_POINT('',(1.560177047599,0.695981683869,-27.26299717885
    ));
#141 = CARTESIAN_POINT('',(1.457451259484,0.252758498802,-27.23781054149
    ));
#142 = CARTESIAN_POINT('',(1.707881799244,2.106898145281,-28.19924489887
    ));
#143 = CARTESIAN_POINT('',(1.365872335123,1.10276131026,-28.77905358406)
  );
#144 = CARTESIAN_POINT('',(1.656277153459,2.311377490359,-29.16843733751
    ));
#145 = CARTESIAN_POINT('',(1.62697706781,2.320578802407,-30.47665169325)
  );
#146 = CARTESIAN_POINT('',(1.725231988734,2.056050277006,-31.99597562071
    ));
#147 = CARTESIAN_POINT('',(1.707454078725,1.545931739244,-32.82413617442
    ));
#148 = CARTESIAN_POINT('',(1.776339177821,1.279203209924,-33.54628638026
    ));
#149 = CARTESIAN_POINT('',(1.771566121604,0.721500248723,-34.35845882844
    ));
#150 = CARTESIAN_POINT('',(1.805221255477,0.291881976369,-35.14473098353
    ));
#151 = CARTESIAN_POINT('',(2.,0.695981683869,-27.26299717884));
#152 = CARTESIAN_POINT('',(1.999999999999,0.252758498803,-27.23781054148
    ));
#153 = CARTESIAN_POINT('',(2.000000000002,2.10689814528,-28.19924489888)
  );
#154 = CARTESIAN_POINT('',(1.999999999998,1.102761310261,-28.77905358405
    ));
#155 = CARTESIAN_POINT('',(2.,2.311377490359,-29.16843733751));
#156 = CARTESIAN_POINT('',(2.,2.320578802408,-30.47665169325));
#157 = CARTESIAN_POINT('',(2.,2.056050277006,-31.99597562071));
#158 = CARTESIAN_POINT('',(2.,1.545931739244,-32.82413617442));
#159 = CARTESIAN_POINT('',(2.,1.279203209924,-33.54628638025));
#160 = CARTESIAN_POINT('',(2.,0.721500248723,-34.35845882845));
#161 = CARTESIAN_POINT('',(2.,0.291881976369,-35.14473098353));
#162 = DEFINITIONAL_REPRESENTATION('',(#163),#167);
#163 = LINE('',#164,#165);
#164 = CARTESIAN_POINT('',(0.,0.));
#165 = VECTOR('',#166,1.);
#166 = DIRECTION('',(1.,0.));
#167 = ( GEOMETRIC_REPRESENTATION_CONTEXT(2) 
PARAMETRIC_REPRESENTATION_CONTEXT() REPRESENTATION_CONTEXT('2D SPACE',''
  ) );
#168 = PCURVE('',#169,#174);
#169 = PLANE('',#170);
#170 = AXIS2_PLACEMENT_3D('',#171,#172,#173);
#171 = CARTESIAN_POINT('',(2.,1.904018316131,-24.73700282115));
#172 = DIRECTION('',(8.180181711525E-14,-0.902140842034,0.431441654379)
  );
#173 = DIRECTION('',(-1.7763568394E-14,0.431441654379,0.902140842034));
#174 = DEFINITIONAL_REPRESENTATION('',(#175),#187);
#175 = B_SPLINE_CURVE_WITH_KNOTS('',10,(#176,#177,#178,#179,#180,#181,
    #182,#183,#184,#185,#186),.UNSPECIFIED.,.F.,.F.,(11,11),(0.,1.),
  .PIECEWISE_BEZIER_KNOTS.);
#176 = CARTESIAN_POINT('',(0.,0.));
#177 = CARTESIAN_POINT('',(-4.81788971426E-13,0.439822971503));
#178 = CARTESIAN_POINT('',(-0.153526762574,0.879645904802));
#179 = CARTESIAN_POINT('',(-0.460584091493,1.259179234837));
#180 = CARTESIAN_POINT('',(-0.894096764562,1.518130620393));
#181 = CARTESIAN_POINT('',(-1.400000000002,1.610387030865));
#182 = CARTESIAN_POINT('',(-1.905903235434,1.518130620393));
#183 = CARTESIAN_POINT('',(-2.33941590851,1.259179234837));
#184 = CARTESIAN_POINT('',(-2.646473237425,0.879645904802));
#185 = CARTESIAN_POINT('',(-2.800000000001,0.439822952401));
#186 = CARTESIAN_POINT('',(-2.8,-1.89326617253E-29));
#187 = ( GEOMETRIC_REPRESENTATION_CONTEXT(2) 
PARAMETRIC_REPRESENTATION_CONTEXT() REPRESENTATION_CONTEXT('2D SPACE',''
  ) );
#188 = ORIENTED_EDGE('',*,*,#189,.T.);
#189 = EDGE_CURVE('',#24,#190,#192,.T.);
#190 = VERTEX_POINT('',#191);
#191 = CARTESIAN_POINT('',(2.,0.291881976369,-35.14473098353));
#192 = SURFACE_CURVE('',#193,(#205,#212),.PCURVE_S1.);
#193 = ( BOUNDED_CURVE() B_SPLINE_CURVE(6,(#194,#195,#196,#197,#198,#199
    ,#200,#201,#202,#203,#204),.UNSPECIFIED.,.F.,.F.) 
B_SPLINE_CURVE_WITH_KNOTS((7,4,7),(0.,0.511781605739,1.),.UNSPECIFIED.) 
CURVE() GEOMETRIC_REPRESENTATION_ITEM() RATIONAL_B_SPLINE_CURVE((1.,1.,
1.,1.,1.,1.,1.,1.,1.,1.,1.)) REPRESENTATION_ITEM('') );
#194 = CARTESIAN_POINT('',(2.,0.695981683869,-27.26299717884));
#195 = CARTESIAN_POINT('',(1.999999999999,0.252758498803,-27.23781054148
    ));
#196 = CARTESIAN_POINT('',(2.000000000002,2.10689814528,-28.19924489888)
  );
#197 = CARTESIAN_POINT('',(1.999999999998,1.102761310261,-28.77905358405
    ));
#198 = CARTESIAN_POINT('',(2.,2.311377490359,-29.16843733751));
#199 = CARTESIAN_POINT('',(2.,2.320578802408,-30.47665169325));
#200 = CARTESIAN_POINT('',(2.,2.056050277006,-31.99597562071));
#201 = CARTESIAN_POINT('',(2.,1.545931739244,-32.82413617442));
#202 = CARTESIAN_POINT('',(2.,1.279203209924,-33.54628638025));
#203 = CARTESIAN_POINT('',(2.,0.721500248723,-34.35845882845));
#204 = CARTESIAN_POINT('',(2.,0.291881976369,-35.14473098353));
#205 = PCURVE('',#40,#206);
#206 = DEFINITIONAL_REPRESENTATION('',(#207),#211);
#207 = LINE('',#208,#209);
#208 = CARTESIAN_POINT('',(1.,0.));
#209 = VECTOR('',#210,1.);
#210 = DIRECTION('',(0.,1.));
#211 = ( GEOMETRIC_REPRESENTATION_CONTEXT(2) 
PARAMETRIC_REPRESENTATION_CONTEXT() REPRESENTATION_CONTEXT('2D SPACE',''
  ) );
#212 = PCURVE('',#213,#335);
#213 = ( BOUNDED_SURFACE() B_SPLINE_SURFACE(10,6,(
    (#214,#215,#216,#217,#218,#219,#220,#221,#222,#223,#224)
    ,(#225,#226,#227,#228,#229,#230,#231,#232,#233,#234,#235)
    ,(#236,#237,#238,#239,#240,#241,#242,#243,#244,#245,#246)
    ,(#247,#248,#249,#250,#251,#252,#253,#254,#255,#256,#257)
    ,(#258,#259,#260,#261,#262,#263,#264,#265,#266,#267,#268)
    ,(#269,#270,#271,#272,#273,#274,#275,#276,#277,#278,#279)
    ,(#280,#281,#282,#283,#284,#285,#286,#287,#288,#289,#290)
    ,(#291,#292,#293,#294,#295,#296,#297,#298,#299,#300,#301)
    ,(#302,#303,#304,#305,#306,#307,#308,#309,#310,#311,#312)
    ,(#313,#314,#315,#316,#317,#318,#319,#320,#321,#322,#323)
    ,(#324,#325,#326,#327,#328,#329,#330,#331,#332,#333,#334
)),.UNSPECIFIED.,.F.,.F.,.F.) B_SPLINE_SURFACE_WITH_KNOTS((11,11),(7,4,7
    ),(1.,2.),(0.,0.511781605739,1.),.UNSPECIFIED.) 
GEOMETRIC_REPRESENTATION_ITEM() RATIONAL_B_SPLINE_SURFACE((
    (1.,1.,1.,1.,1.,1.,1.,1.,1.,1.,1.)
    ,(1.,1.,1.,1.,1.,1.,1.,1.,1.,1.,1.)
    ,(1.,1.,1.,1.,1.,1.,1.,1.,1.,1.,1.)
    ,(1.,1.,1.,1.,1.,1.,1.,1.,1.,1.,1.)
    ,(1.,1.,1.,1.,1.,1.,1.,1.,1.,1.,1.)
    ,(1.,1.,1.,1.,1.,1.,1.,1.,1.,1.,1.)
    ,(1.,1.,1.,1.,1.,1.,1.,1.,1.,1.,1.)
    ,(1.,1.,1.,1.,1.,1.,1.,1.,1.,1.,1.)
    ,(1.,1.,1.,1.,1.,1.,1.,1.,1.,1.,1.)
    ,(1.,1.,1.,1.,1.,1.,1.,1.,1.,1.,1.)
,(1.,1.,1.,1.,1.,1.,1.,1.,1.,1.,1.
  ))) REPRESENTATION_ITEM('') SURFACE() );
#214 = CARTESIAN_POINT('',(2.,0.695981683869,-27.26299717884));
#215 = CARTESIAN_POINT('',(1.999999999999,0.252758498803,-27.23781054148
    ));
#216 = CARTESIAN_POINT('',(2.000000000002,2.10689814528,-28.19924489888)
  );
#217 = CARTESIAN_POINT('',(1.999999999998,1.102761310261,-28.77905358405
    ));
#218 = CARTESIAN_POINT('',(2.,2.311377490359,-29.16843733751));
#219 = CARTESIAN_POINT('',(2.,2.320578802408,-30.47665169325));
#220 = CARTESIAN_POINT('',(2.,2.056050277006,-31.99597562071));
#221 = CARTESIAN_POINT('',(2.,1.545931739244,-32.82413617442));
#222 = CARTESIAN_POINT('',(2.,1.279203209924,-33.54628638025));
#223 = CARTESIAN_POINT('',(2.,0.721500248723,-34.35845882845));
#224 = CARTESIAN_POINT('',(2.,0.291881976369,-35.14473098353));
#225 = CARTESIAN_POINT('',(2.439822952401,0.695981683869,-27.26299717884
    ));
#226 = CARTESIAN_POINT('',(2.542548740515,0.252758498803,-27.23781054147
    ));
#227 = CARTESIAN_POINT('',(2.292118200759,2.106898145279,-28.19924489889
    ));
#228 = CARTESIAN_POINT('',(2.634127664874,1.102761310261,-28.77905358405
    ));
#229 = CARTESIAN_POINT('',(2.343722846542,2.311377490358,-29.16843733751
    ));
#230 = CARTESIAN_POINT('',(2.37302293219,2.320578802408,-30.47665169325)
  );
#231 = CARTESIAN_POINT('',(2.274768011266,2.056050277006,-31.9959756207)
  );
#232 = CARTESIAN_POINT('',(2.292545921276,1.545931739244,-32.82413617443
    ));
#233 = CARTESIAN_POINT('',(2.223660822178,1.279203209924,-33.54628638024
    ));
#234 = CARTESIAN_POINT('',(2.228433878397,0.721500248723,-34.35845882845
    ));
#235 = CARTESIAN_POINT('',(2.194778744523,0.291881976369,-35.14473098353
    ));
#236 = CARTESIAN_POINT('',(2.879645904801,0.762219524306,-27.12449441597
    ));
#237 = CARTESIAN_POINT('',(3.085096643379,0.435310352994,-27.15432111466
    ));
#238 = CARTESIAN_POINT('',(2.584238009102,2.157417702279,-28.08996789866
    ));
#239 = CARTESIAN_POINT('',(3.268253692192,1.319811911234,-28.70422176305
    ));
#240 = CARTESIAN_POINT('',(2.687446693462,2.433268435803,-29.13756826788
    ));
#241 = CARTESIAN_POINT('',(2.746044285592,2.452797799086,-30.505769286)
  );
#242 = CARTESIAN_POINT('',(2.549538124346,2.139564099566,-32.04690337111
    ));
#243 = CARTESIAN_POINT('',(2.585079278432,1.633765451697,-32.87229143764
    ));
#244 = CARTESIAN_POINT('',(2.447344995993,1.342267599566,-33.59599829316
    ));
#245 = CARTESIAN_POINT('',(2.456859276272,0.787202203767,-34.40211336586
    ));
#246 = CARTESIAN_POINT('',(2.389559285822,0.347603201493,-35.18369048492
    ));
#247 = CARTESIAN_POINT('',(3.259179234838,0.894696846282,-26.84748545873
    ));
#248 = CARTESIAN_POINT('',(3.553279069854,0.800418584222,-26.98734019241
    ));
#249 = CARTESIAN_POINT('',(2.836304584084,2.258458068026,-27.87141119111
    ));
#250 = CARTESIAN_POINT('',(3.815466120581,1.753918490728,-28.55455626662
    ));
#251 = CARTESIAN_POINT('',(2.984047476406,2.67705334667,-29.07582936393)
  );
#252 = CARTESIAN_POINT('',(3.067943115052,2.717239068276,-30.56400519286
    ));
#253 = CARTESIAN_POINT('',(2.78663007637,2.306593813826,-32.14876013376)
  );
#254 = CARTESIAN_POINT('',(2.837593679172,1.809435052755,-32.96860315716
    ));
#255 = CARTESIAN_POINT('',(2.640217319566,1.468397941325,-33.69542335058
    ));
#256 = CARTESIAN_POINT('',(2.654027234453,0.91860774168,-34.4894235223)
  );
#257 = CARTESIAN_POINT('',(2.557628356654,0.459047032286,-35.26161045295
    ));
#258 = CARTESIAN_POINT('',(3.518130620392,1.081732271148,-26.45639597079
    ));
#259 = CARTESIAN_POINT('',(3.872699620285,1.31588924849,-26.75159155822)
  );
#260 = CARTESIAN_POINT('',(3.008315854521,2.401109862572,-27.56284632794
    ));
#261 = CARTESIAN_POINT('',(4.18879351609,2.366803076103,-28.34325406633)
  );
#262 = CARTESIAN_POINT('',(3.186432974853,3.021236137316,-28.98866454217
    ));
#263 = CARTESIAN_POINT('',(3.287542600339,3.090585120265,-30.646224379)
  );
#264 = CARTESIAN_POINT('',(2.948433255139,2.542411334166,-32.29256454177
    ));
#265 = CARTESIAN_POINT('',(3.009654499106,2.057450622374,-33.10457890845
    ));
#266 = CARTESIAN_POINT('',(2.772233791608,1.646472510675,-33.83579460497
    ));
#267 = CARTESIAN_POINT('',(2.788399555818,1.104129989915,-34.61269059893
    ));
#268 = CARTESIAN_POINT('',(2.67233247824,0.616386748473,-35.37162018222)
  );
#269 = CARTESIAN_POINT('',(3.610387030867,1.3,-26.00000000001));
#270 = CARTESIAN_POINT('',(3.986522100889,1.917436314995,-26.47647619416
    ));
#271 = CARTESIAN_POINT('',(3.06955448296,2.567582514866,-27.2027554425)
  );
#272 = CARTESIAN_POINT('',(4.321843088336,3.082030828061,-28.09666734855
    ));
#273 = CARTESIAN_POINT('',(3.258509510046,3.422892647506,-28.8869444127)
  );
#274 = CARTESIAN_POINT('',(3.36582205106,3.526274749095,-30.7421730209)
  );
#275 = CARTESIAN_POINT('',(3.006021621653,2.817607087212,-32.46038227784
    ));
#276 = CARTESIAN_POINT('',(3.071295967025,2.346881328543,-33.26326071124
    ));
#277 = CARTESIAN_POINT('',(2.818632501707,1.854283046281,-33.99960589849
    ));
#278 = CARTESIAN_POINT('',(2.836502779387,1.320631862771,-34.75654155597
    ));
#279 = CARTESIAN_POINT('',(2.713149190863,0.8,-35.5));
#280 = CARTESIAN_POINT('',(3.518130620392,1.518267728851,-25.54360402918
    ));
#281 = CARTESIAN_POINT('',(3.872699620283,2.518983381606,-26.20136083033
    ));
#282 = CARTESIAN_POINT('',(3.008315854526,2.734055166945,-26.84266455629
    ));
#283 = CARTESIAN_POINT('',(4.188793516085,3.79725858021,-27.8500806317)
  );
#284 = CARTESIAN_POINT('',(3.186432974855,3.824549157642,-28.78522428295
    ));
#285 = CARTESIAN_POINT('',(3.287542600338,3.961964377956,-30.83812166294
    ));
#286 = CARTESIAN_POINT('',(2.94843325514,3.092802840233,-32.62820001374)
  );
#287 = CARTESIAN_POINT('',(3.009654499104,2.636312034731,-33.42194251409
    ));
#288 = CARTESIAN_POINT('',(2.772233791609,2.062093581879,-34.16341719206
    ));
#289 = CARTESIAN_POINT('',(2.788399555817,1.537133735628,-34.90039251296
    ));
#290 = CARTESIAN_POINT('',(2.672332478241,0.983613251527,-35.62837981777
    ));
#291 = CARTESIAN_POINT('',(3.259179234838,1.705303153718,-25.15251454128
    ));
#292 = CARTESIAN_POINT('',(3.553279069854,3.034454045792,-25.96561219595
    ));
#293 = CARTESIAN_POINT('',(2.83630458408,2.876706961654,-26.53409969373)
  );
#294 = CARTESIAN_POINT('',(3.815466120586,4.410143165439,-27.63877843069
    ));
#295 = CARTESIAN_POINT('',(2.984047476405,4.168731948329,-28.6980594614)
  );
#296 = CARTESIAN_POINT('',(3.067943115052,4.335310429922,-30.92034084898
    ));
#297 = CARTESIAN_POINT('',(2.786630076369,3.328620360592,-32.77200442188
    ));
#298 = CARTESIAN_POINT('',(2.837593679173,2.884327604335,-33.55791826534
    ));
#299 = CARTESIAN_POINT('',(2.640217319565,2.240168151235,-34.3037884464)
  );
#300 = CARTESIAN_POINT('',(2.654027234453,1.722655983862,-35.02365958963
    ));
#301 = CARTESIAN_POINT('',(2.557628356654,1.140952967714,-35.73838954704
    ));
#302 = CARTESIAN_POINT('',(2.879645904801,1.837780475694,-24.87550558401
    ));
#303 = CARTESIAN_POINT('',(3.085096643378,3.399562277067,-25.79863127381
    ));
#304 = CARTESIAN_POINT('',(2.584238009105,2.977747327309,-26.31554298582
    ));
#305 = CARTESIAN_POINT('',(3.268253692189,4.844249745016,-27.48911293468
    ));
#306 = CARTESIAN_POINT('',(2.687446693463,4.412516859173,-28.63632055733
    ));
#307 = CARTESIAN_POINT('',(2.746044285592,4.599751699125,-30.9785767559)
  );
#308 = CARTESIAN_POINT('',(2.549538124347,3.495650074841,-32.87386118446
    ));
#309 = CARTESIAN_POINT('',(2.585079278432,3.059997205402,-33.65422998488
    ));
#310 = CARTESIAN_POINT('',(2.447344995994,2.366298492991,-34.40321350386
    ));
#311 = CARTESIAN_POINT('',(2.456859276271,1.854061521776,-35.11096974604
    ));
#312 = CARTESIAN_POINT('',(2.389559285822,1.252396798507,-35.81630951508
    ));
#313 = CARTESIAN_POINT('',(2.439822971503,1.904018316131,-24.73700282115
    ));
#314 = CARTESIAN_POINT('',(2.542548768021,3.58211413124,-25.71514184694)
  );
#315 = CARTESIAN_POINT('',(2.292118205879,3.028266884344,-26.20626598575
    ));
#316 = CARTESIAN_POINT('',(2.634127700122,5.061300345957,-27.4142811135)
  );
#317 = CARTESIAN_POINT('',(2.34372285676,4.534407804626,-28.60545148775)
  );
#318 = CARTESIAN_POINT('',(2.373022955824,4.731970695798,-31.00769434863
    ));
#319 = CARTESIAN_POINT('',(2.274768013304,3.579163897406,-32.92478893489
    ));
#320 = CARTESIAN_POINT('',(2.292545993134,3.147830917852,-33.7023852481)
  );
#321 = CARTESIAN_POINT('',(2.22366072195,2.429362882634,-34.45292541674)
  );
#322 = CARTESIAN_POINT('',(2.228433928245,1.919763476819,-35.15462428347
    ));
#323 = CARTESIAN_POINT('',(2.194778744523,1.308118023631,-35.85526901646
    ));
#324 = CARTESIAN_POINT('',(2.,1.904018316131,-24.73700282115));
#325 = CARTESIAN_POINT('',(2.,3.582114131242,-25.71514184695));
#326 = CARTESIAN_POINT('',(2.,3.02826688434,-26.20626598573));
#327 = CARTESIAN_POINT('',(2.,5.061300345961,-27.41428111352));
#328 = CARTESIAN_POINT('',(2.,4.534407804625,-28.60545148774));
#329 = CARTESIAN_POINT('',(2.,4.731970695799,-31.00769434863));
#330 = CARTESIAN_POINT('',(2.,3.579163897405,-32.92478893489));
#331 = CARTESIAN_POINT('',(2.,3.147830917852,-33.7023852481));
#332 = CARTESIAN_POINT('',(2.,2.429362882634,-34.45292541675));
#333 = CARTESIAN_POINT('',(2.,1.919763476819,-35.15462428347));
#334 = CARTESIAN_POINT('',(2.,1.308118023631,-35.85526901646));
#335 = DEFINITIONAL_REPRESENTATION('',(#336),#340);
#336 = LINE('',#337,#338);
#337 = CARTESIAN_POINT('',(1.,0.));
#338 = VECTOR('',#339,1.);
#339 = DIRECTION('',(0.,1.));
#340 = ( GEOMETRIC_REPRESENTATION_CONTEXT(2) 
PARAMETRIC_REPRESENTATION_CONTEXT() REPRESENTATION_CONTEXT('2D SPACE',''
  ) );
#341 = ORIENTED_EDGE('',*,*,#342,.F.);
#342 = EDGE_CURVE('',#343,#190,#345,.T.);
#343 = VERTEX_POINT('',#344);
#344 = CARTESIAN_POINT('',(1.380000022866,0.8,-35.5));
#345 = SURFACE_CURVE('',#346,(#358,#365),.PCURVE_S1.);
#346 = B_SPLINE_CURVE_WITH_KNOTS('',10,(#347,#348,#349,#350,#351,#352,
    #353,#354,#355,#356,#357),.UNSPECIFIED.,.F.,.F.,(11,11),(0.,1.),
  .PIECEWISE_BEZIER_KNOTS.);
#347 = CARTESIAN_POINT('',(2.,1.308118023631,-35.85526901646));
#348 = CARTESIAN_POINT('',(1.805221255477,1.308118023631,-35.85526901646
    ));
#349 = CARTESIAN_POINT('',(1.610440714178,1.252396798507,-35.81630951508
    ));
#350 = CARTESIAN_POINT('',(1.442371643346,1.140952967714,-35.73838954704
    ));
#351 = CARTESIAN_POINT('',(1.32766752176,0.983613251527,-35.62837981777)
  );
#352 = CARTESIAN_POINT('',(1.286850809137,0.8,-35.5));
#353 = CARTESIAN_POINT('',(1.327667521759,0.616386748473,-35.37162018222
    ));
#354 = CARTESIAN_POINT('',(1.442371643346,0.459047032286,-35.26161045295
    ));
#355 = CARTESIAN_POINT('',(1.610440714178,0.347603201493,-35.18369048492
    ));
#356 = CARTESIAN_POINT('',(1.805221255477,0.291881976369,-35.14473098353
    ));
#357 = CARTESIAN_POINT('',(2.,0.291881976369,-35.14473098353));
#358 = PCURVE('',#40,#359);
#359 = DEFINITIONAL_REPRESENTATION('',(#360),#364);
#360 = LINE('',#361,#362);
#361 = CARTESIAN_POINT('',(0.,1.));
#362 = VECTOR('',#363,1.);
#363 = DIRECTION('',(1.,0.));
#364 = ( GEOMETRIC_REPRESENTATION_CONTEXT(2) 
PARAMETRIC_REPRESENTATION_CONTEXT() REPRESENTATION_CONTEXT('2D SPACE',''
  ) );
#365 = PCURVE('',#366,#371);
#366 = SPHERICAL_SURFACE('',#367,0.62);
#367 = AXIS2_PLACEMENT_3D('',#368,#369,#370);
#368 = CARTESIAN_POINT('',(2.,0.8,-35.5));
#369 = DIRECTION('',(-0.,-0.,1.));
#370 = DIRECTION('',(-1.,-0.,-0.));
#371 = DEFINITIONAL_REPRESENTATION('',(#372),#387);
#372 = B_SPLINE_CURVE_WITH_KNOTS('',7,(#373,#374,#375,#376,#377,#378,
    #379,#380,#381,#382,#383,#384,#385,#386),.UNSPECIFIED.,.F.,.F.,(8,6,
    8),(0.5,0.75,1.),.UNSPECIFIED.);
#373 = CARTESIAN_POINT('',(-6.283185307179,2.865091887787E-13));
#374 = CARTESIAN_POINT('',(-6.191232553933,6.429207917861E-02));
#375 = CARTESIAN_POINT('',(-6.099279784911,0.128584036892));
#376 = CARTESIAN_POINT('',(-6.006085433521,0.191989058805));
#377 = CARTESIAN_POINT('',(-5.910407610492,0.253614953786));
#378 = CARTESIAN_POINT('',(-5.811010819085,0.312495431762));
#379 = CARTESIAN_POINT('',(-5.70665376141,0.367452318149));
#380 = CARTESIAN_POINT('',(-5.486625522751,0.466904516686));
#381 = CARTESIAN_POINT('',(-5.370952155641,0.511401098107));
#382 = CARTESIAN_POINT('',(-5.248935856498,0.549353350652));
#383 = CARTESIAN_POINT('',(-5.120372070894,0.579369057748));
#384 = CARTESIAN_POINT('',(-4.986195577342,0.599911399568));
#385 = CARTESIAN_POINT('',(-4.849293860932,0.61017945729));
#386 = CARTESIAN_POINT('',(-4.712388980385,0.61017945729));
#387 = ( GEOMETRIC_REPRESENTATION_CONTEXT(2) 
PARAMETRIC_REPRESENTATION_CONTEXT() REPRESENTATION_CONTEXT('2D SPACE',''
  ) );
#388 = ORIENTED_EDGE('',*,*,#389,.F.);
#389 = EDGE_CURVE('',#390,#343,#392,.T.);
#390 = VERTEX_POINT('',#391);
#391 = CARTESIAN_POINT('',(2.,1.308118023631,-35.85526901646));
#392 = SURFACE_CURVE('',#393,(#405,#412),.PCURVE_S1.);
#393 = B_SPLINE_CURVE_WITH_KNOTS('',10,(#394,#395,#396,#397,#398,#399,
    #400,#401,#402,#403,#404),.UNSPECIFIED.,.F.,.F.,(11,11),(0.,1.),
  .PIECEWISE_BEZIER_KNOTS.);
#394 = CARTESIAN_POINT('',(2.,1.308118023631,-35.85526901646));
#395 = CARTESIAN_POINT('',(1.805221255477,1.308118023631,-35.85526901646
    ));
#396 = CARTESIAN_POINT('',(1.610440714178,1.252396798507,-35.81630951508
    ));
#397 = CARTESIAN_POINT('',(1.442371643346,1.140952967714,-35.73838954704
    ));
#398 = CARTESIAN_POINT('',(1.32766752176,0.983613251527,-35.62837981777)
  );
#399 = CARTESIAN_POINT('',(1.286850809137,0.8,-35.5));
#400 = CARTESIAN_POINT('',(1.327667521759,0.616386748473,-35.37162018222
    ));
#401 = CARTESIAN_POINT('',(1.442371643346,0.459047032286,-35.26161045295
    ));
#402 = CARTESIAN_POINT('',(1.610440714178,0.347603201493,-35.18369048492
    ));
#403 = CARTESIAN_POINT('',(1.805221255477,0.291881976369,-35.14473098353
    ));
#404 = CARTESIAN_POINT('',(2.,0.291881976369,-35.14473098353));
#405 = PCURVE('',#40,#406);
#406 = DEFINITIONAL_REPRESENTATION('',(#407),#411);
#407 = LINE('',#408,#409);
#408 = CARTESIAN_POINT('',(0.,1.));
#409 = VECTOR('',#410,1.);
#410 = DIRECTION('',(1.,0.));
#411 = ( GEOMETRIC_REPRESENTATION_CONTEXT(2) 
PARAMETRIC_REPRESENTATION_CONTEXT() REPRESENTATION_CONTEXT('2D SPACE',''
  ) );
#412 = PCURVE('',#366,#413);
#413 = DEFINITIONAL_REPRESENTATION('',(#414),#429);
#414 = B_SPLINE_CURVE_WITH_KNOTS('',7,(#415,#416,#417,#418,#419,#420,
    #421,#422,#423,#424,#425,#426,#427,#428),.UNSPECIFIED.,.F.,.F.,(8,6,
    8),(0.,0.25,0.5),.UNSPECIFIED.);
#415 = CARTESIAN_POINT('',(-1.570796326795,-0.610179457291));
#416 = CARTESIAN_POINT('',(-1.433891446247,-0.610179457291));
#417 = CARTESIAN_POINT('',(-1.296989729838,-0.599911399568));
#418 = CARTESIAN_POINT('',(-1.162813236286,-0.579369057748));
#419 = CARTESIAN_POINT('',(-1.034249450684,-0.549353350652));
#420 = CARTESIAN_POINT('',(-0.912233151537,-0.511401098107));
#421 = CARTESIAN_POINT('',(-0.796559784429,-0.466904516686));
#422 = CARTESIAN_POINT('',(-0.576531545769,-0.367452318149));
#423 = CARTESIAN_POINT('',(-0.472174488093,-0.312495431762));
#424 = CARTESIAN_POINT('',(-0.37277769669,-0.253614953785));
#425 = CARTESIAN_POINT('',(-0.277099873655,-0.191989058805));
#426 = CARTESIAN_POINT('',(-0.183905522269,-0.128584036891));
#427 = CARTESIAN_POINT('',(-9.195275324606E-02,-6.429207917808E-02));
#428 = CARTESIAN_POINT('',(4.334310688137E-13,2.865091887787E-13));
#429 = ( GEOMETRIC_REPRESENTATION_CONTEXT(2) 
PARAMETRIC_REPRESENTATION_CONTEXT() REPRESENTATION_CONTEXT('2D SPACE',''
  ) );
#430 = ORIENTED_EDGE('',*,*,#431,.F.);
#431 = EDGE_CURVE('',#22,#390,#432,.T.);
#432 = SURFACE_CURVE('',#433,(#445,#452),.PCURVE_S1.);
#433 = ( BOUNDED_CURVE() B_SPLINE_CURVE(6,(#434,#435,#436,#437,#438,#439
    ,#440,#441,#442,#443,#444),.UNSPECIFIED.,.F.,.F.) 
B_SPLINE_CURVE_WITH_KNOTS((7,4,7),(0.,0.511781605739,1.),.UNSPECIFIED.) 
CURVE() GEOMETRIC_REPRESENTATION_ITEM() RATIONAL_B_SPLINE_CURVE((1.,1.,
1.,1.,1.,1.,1.,1.,1.,1.,1.)) REPRESENTATION_ITEM('') );
#434 = CARTESIAN_POINT('',(2.,1.904018316131,-24.73700282115));
#435 = CARTESIAN_POINT('',(2.,3.582114131242,-25.71514184695));
#436 = CARTESIAN_POINT('',(2.,3.028266884339,-26.20626598574));
#437 = CARTESIAN_POINT('',(2.,5.061300345961,-27.41428111351));
#438 = CARTESIAN_POINT('',(2.,4.534407804625,-28.60545148775));
#439 = CARTESIAN_POINT('',(2.,4.731970695799,-31.00769434863));
#440 = CARTESIAN_POINT('',(2.,3.579163897405,-32.92478893489));
#441 = CARTESIAN_POINT('',(2.,3.147830917852,-33.70238524809));
#442 = CARTESIAN_POINT('',(2.,2.429362882634,-34.45292541675));
#443 = CARTESIAN_POINT('',(2.,1.919763476819,-35.15462428347));
#444 = CARTESIAN_POINT('',(2.,1.308118023631,-35.85526901646));
#445 = PCURVE('',#40,#446);
#446 = DEFINITIONAL_REPRESENTATION('',(#447),#451);
#447 = LINE('',#448,#449);
#448 = CARTESIAN_POINT('',(0.,0.));
#449 = VECTOR('',#450,1.);
#450 = DIRECTION('',(0.,1.));
#451 = ( GEOMETRIC_REPRESENTATION_CONTEXT(2) 
PARAMETRIC_REPRESENTATION_CONTEXT() REPRESENTATION_CONTEXT('2D SPACE',''
  ) );
#452 = PCURVE('',#213,#453);
#453 = DEFINITIONAL_REPRESENTATION('',(#454),#458);
#454 = LINE('',#455,#456);
#455 = CARTESIAN_POINT('',(2.,0.));
#456 = VECTOR('',#457,1.);
#457 = DIRECTION('',(0.,1.));
#458 = ( GEOMETRIC_REPRESENTATION_CONTEXT(2) 
PARAMETRIC_REPRESENTATION_CONTEXT() REPRESENTATION_CONTEXT('2D SPACE',''
  ) );
#459 = ADVANCED_FACE('',(#460),#169,.T.);
#460 = FACE_BOUND('',#461,.F.);
#461 = EDGE_LOOP('',(#462,#463));
#462 = ORIENTED_EDGE('',*,*,#21,.F.);
#463 = ORIENTED_EDGE('',*,*,#464,.F.);
#464 = EDGE_CURVE('',#24,#22,#465,.T.);
#465 = SURFACE_CURVE('',#466,(#478,#493),.PCURVE_S1.);
#466 = B_SPLINE_CURVE_WITH_KNOTS('',10,(#467,#468,#469,#470,#471,#472,
    #473,#474,#475,#476,#477),.UNSPECIFIED.,.F.,.F.,(11,11),(1.,2.),
  .PIECEWISE_BEZIER_KNOTS.);
#467 = CARTESIAN_POINT('',(2.,0.695981683869,-27.26299717884));
#468 = CARTESIAN_POINT('',(2.439822952401,0.695981683869,-27.26299717884
    ));
#469 = CARTESIAN_POINT('',(2.879645904801,0.762219524306,-27.12449441597
    ));
#470 = CARTESIAN_POINT('',(3.259179234838,0.894696846282,-26.84748545873
    ));
#471 = CARTESIAN_POINT('',(3.518130620392,1.081732271148,-26.45639597079
    ));
#472 = CARTESIAN_POINT('',(3.610387030867,1.3,-26.00000000001));
#473 = CARTESIAN_POINT('',(3.518130620392,1.518267728851,-25.54360402918
    ));
#474 = CARTESIAN_POINT('',(3.259179234838,1.705303153718,-25.15251454128
    ));
#475 = CARTESIAN_POINT('',(2.879645904801,1.837780475694,-24.87550558401
    ));
#476 = CARTESIAN_POINT('',(2.439822971503,1.904018316131,-24.73700282115
    ));
#477 = CARTESIAN_POINT('',(2.,1.904018316131,-24.73700282115));
#478 = PCURVE('',#169,#479);
#479 = DEFINITIONAL_REPRESENTATION('',(#480),#492);
#480 = B_SPLINE_CURVE_WITH_KNOTS('',10,(#481,#482,#483,#484,#485,#486,
    #487,#488,#489,#490,#491),.UNSPECIFIED.,.F.,.F.,(11,11),(1.,2.),
  .PIECEWISE_BEZIER_KNOTS.);
#481 = CARTESIAN_POINT('',(-2.8,-1.89326617253E-29));
#482 = CARTESIAN_POINT('',(-2.799999999999,-0.439822952401));
#483 = CARTESIAN_POINT('',(-2.646473237421,-0.879645904801));
#484 = CARTESIAN_POINT('',(-2.339415908518,-1.259179234838));
#485 = CARTESIAN_POINT('',(-1.905903235423,-1.518130620392));
#486 = CARTESIAN_POINT('',(-1.400000000011,-1.610387030867));
#487 = CARTESIAN_POINT('',(-0.894096764557,-1.518130620392));
#488 = CARTESIAN_POINT('',(-0.460584091495,-1.259179234838));
#489 = CARTESIAN_POINT('',(-0.153526762574,-0.879645904801));
#490 = CARTESIAN_POINT('',(-4.358931745177E-13,-0.439822971503));
#491 = CARTESIAN_POINT('',(0.,0.));
#492 = ( GEOMETRIC_REPRESENTATION_CONTEXT(2) 
PARAMETRIC_REPRESENTATION_CONTEXT() REPRESENTATION_CONTEXT('2D SPACE',''
  ) );
#493 = PCURVE('',#213,#494);
#494 = DEFINITIONAL_REPRESENTATION('',(#495),#499);
#495 = LINE('',#496,#497);
#496 = CARTESIAN_POINT('',(0.,0.));
#497 = VECTOR('',#498,1.);
#498 = DIRECTION('',(1.,0.));
#499 = ( GEOMETRIC_REPRESENTATION_CONTEXT(2) 
PARAMETRIC_REPRESENTATION_CONTEXT() REPRESENTATION_CONTEXT('2D SPACE',''
  ) );
#500 = ADVANCED_FACE('',(#501),#213,.F.);
#501 = FACE_BOUND('',#502,.F.);
#502 = EDGE_LOOP('',(#503,#504,#505,#557));
#503 = ORIENTED_EDGE('',*,*,#464,.T.);
#504 = ORIENTED_EDGE('',*,*,#431,.T.);
#505 = ORIENTED_EDGE('',*,*,#506,.F.);
#506 = EDGE_CURVE('',#190,#390,#507,.T.);
#507 = SURFACE_CURVE('',#508,(#520,#527),.PCURVE_S1.);
#508 = B_SPLINE_CURVE_WITH_KNOTS('',10,(#509,#510,#511,#512,#513,#514,
    #515,#516,#517,#518,#519),.UNSPECIFIED.,.F.,.F.,(11,11),(1.,2.),
  .PIECEWISE_BEZIER_KNOTS.);
#509 = CARTESIAN_POINT('',(2.,0.291881976369,-35.14473098353));
#510 = CARTESIAN_POINT('',(2.194778744523,0.291881976369,-35.14473098353
    ));
#511 = CARTESIAN_POINT('',(2.389559285822,0.347603201493,-35.18369048492
    ));
#512 = CARTESIAN_POINT('',(2.557628356654,0.459047032286,-35.26161045295
    ));
#513 = CARTESIAN_POINT('',(2.67233247824,0.616386748473,-35.37162018222)
  );
#514 = CARTESIAN_POINT('',(2.713149190863,0.8,-35.5));
#515 = CARTESIAN_POINT('',(2.672332478241,0.983613251527,-35.62837981777
    ));
#516 = CARTESIAN_POINT('',(2.557628356654,1.140952967714,-35.73838954704
    ));
#517 = CARTESIAN_POINT('',(2.389559285822,1.252396798507,-35.81630951508
    ));
#518 = CARTESIAN_POINT('',(2.194778744523,1.308118023631,-35.85526901646
    ));
#519 = CARTESIAN_POINT('',(2.,1.308118023631,-35.85526901646));
#520 = PCURVE('',#213,#521);
#521 = DEFINITIONAL_REPRESENTATION('',(#522),#526);
#522 = LINE('',#523,#524);
#523 = CARTESIAN_POINT('',(0.,1.));
#524 = VECTOR('',#525,1.);
#525 = DIRECTION('',(1.,0.));
#526 = ( GEOMETRIC_REPRESENTATION_CONTEXT(2) 
PARAMETRIC_REPRESENTATION_CONTEXT() REPRESENTATION_CONTEXT('2D SPACE',''
  ) );
#527 = PCURVE('',#366,#528);
#528 = DEFINITIONAL_REPRESENTATION('',(#529),#556);
#529 = B_SPLINE_CURVE_WITH_KNOTS('',9,(#530,#531,#532,#533,#534,#535,
    #536,#537,#538,#539,#540,#541,#542,#543,#544,#545,#546,#547,#548,
    #549,#550,#551,#552,#553,#554,#555),.UNSPECIFIED.,.F.,.F.,(10,8,8,10
    ),(1.,1.25,1.625,2.),.UNSPECIFIED.);
#530 = CARTESIAN_POINT('',(-4.712388980385,0.61017945729));
#531 = CARTESIAN_POINT('',(-4.605907406625,0.61017945729));
#532 = CARTESIAN_POINT('',(-4.499427678613,0.604189756952));
#533 = CARTESIAN_POINT('',(-4.394083987482,0.592207761953));
#534 = CARTESIAN_POINT('',(-4.291056476134,0.574455084969));
#535 = CARTESIAN_POINT('',(-4.191218217083,0.551365671643));
#536 = CARTESIAN_POINT('',(-4.095026482512,0.523506488216));
#537 = CARTESIAN_POINT('',(-4.002572621073,0.491479575313));
#538 = CARTESIAN_POINT('',(-3.913704855945,0.455854272404));
#539 = CARTESIAN_POINT('',(-3.699788512804,0.359164634937));
#540 = CARTESIAN_POINT('',(-3.578864072269,0.29428417405));
#541 = CARTESIAN_POINT('',(-3.464382586779,0.224382503511));
#542 = CARTESIAN_POINT('',(-3.354603406795,0.151101157899));
#543 = CARTESIAN_POINT('',(-3.247709085552,7.582108202394E-02));
#544 = CARTESIAN_POINT('',(-3.141974173249,-2.57535046761E-04));
#545 = CARTESIAN_POINT('',(-3.035679429122,-7.597070944955E-02));
#546 = CARTESIAN_POINT('',(-2.927029517158,-0.150053168569));
#547 = CARTESIAN_POINT('',(-2.701634985164,-0.29210620495));
#548 = CARTESIAN_POINT('',(-2.584887553318,-0.360075461391));
#549 = CARTESIAN_POINT('',(-2.462418072875,-0.423560128718));
#550 = CARTESIAN_POINT('',(-2.332522874385,-0.480945085937));
#551 = CARTESIAN_POINT('',(-2.194161329739,-0.530391066823));
#552 = CARTESIAN_POINT('',(-2.046107977472,-0.569750756707));
#553 = CARTESIAN_POINT('',(-1.890239355416,-0.596700871385));
#554 = CARTESIAN_POINT('',(-1.730518687434,-0.610179457291));
#555 = CARTESIAN_POINT('',(-1.570796326795,-0.610179457291));
#556 = ( GEOMETRIC_REPRESENTATION_CONTEXT(2) 
PARAMETRIC_REPRESENTATION_CONTEXT() REPRESENTATION_CONTEXT('2D SPACE',''
  ) );
#557 = ORIENTED_EDGE('',*,*,#189,.F.);
#558 = ADVANCED_FACE('',(#559),#366,.T.);
#559 = FACE_BOUND('',#560,.F.);
#560 = EDGE_LOOP('',(#561,#562,#586,#587,#588));
#561 = ORIENTED_EDGE('',*,*,#389,.T.);
#562 = ORIENTED_EDGE('',*,*,#563,.F.);
#563 = EDGE_CURVE('',#564,#343,#566,.T.);
#564 = VERTEX_POINT('',#565);
#565 = CARTESIAN_POINT('',(2.,0.8,-36.12));
#566 = SEAM_CURVE('',#567,(#572,#579),.PCURVE_S1.);
#567 = CIRCLE('',#568,0.62);
#568 = AXIS2_PLACEMENT_3D('',#569,#570,#571);
#569 = CARTESIAN_POINT('',(2.,0.8,-35.5));
#570 = DIRECTION('',(-2.449293598295E-16,1.,0.));
#571 = DIRECTION('',(-1.,-2.449293598295E-16,-0.));
#572 = PCURVE('',#366,#573);
#573 = DEFINITIONAL_REPRESENTATION('',(#574),#578);
#574 = LINE('',#575,#576);
#575 = CARTESIAN_POINT('',(-6.28318530718,-6.28318530718));
#576 = VECTOR('',#577,1.);
#577 = DIRECTION('',(-0.,1.));
#578 = ( GEOMETRIC_REPRESENTATION_CONTEXT(2) 
PARAMETRIC_REPRESENTATION_CONTEXT() REPRESENTATION_CONTEXT('2D SPACE',''
  ) );
#579 = PCURVE('',#366,#580);
#580 = DEFINITIONAL_REPRESENTATION('',(#581),#585);
#581 = LINE('',#582,#583);
#582 = CARTESIAN_POINT('',(-0.,-6.28318530718));
#583 = VECTOR('',#584,1.);
#584 = DIRECTION('',(-0.,1.));
#585 = ( GEOMETRIC_REPRESENTATION_CONTEXT(2) 
PARAMETRIC_REPRESENTATION_CONTEXT() REPRESENTATION_CONTEXT('2D SPACE',''
  ) );
#586 = ORIENTED_EDGE('',*,*,#563,.T.);
#587 = ORIENTED_EDGE('',*,*,#342,.T.);
#588 = ORIENTED_EDGE('',*,*,#506,.T.);
#589 = MANIFOLD_SOLID_BREP('',#590);
#590 = CLOSED_SHELL('',(#591,#1033,#1074,#1132));
#591 = ADVANCED_FACE('',(#592),#614,.F.);
#592 = FACE_BOUND('',#593,.F.);
#593 = EDGE_LOOP('',(#594,#762,#915,#962,#1004));
#594 = ORIENTED_EDGE('',*,*,#595,.T.);
#595 = EDGE_CURVE('',#596,#598,#600,.T.);
#596 = VERTEX_POINT('',#597);
#597 = CARTESIAN_POINT('',(2.,-0.695981683869,-27.26299717884));
#598 = VERTEX_POINT('',#599);
#599 = CARTESIAN_POINT('',(2.,-1.904018316131,-24.73700282115));
#600 = SURFACE_CURVE('',#601,(#613,#742),.PCURVE_S1.);
#601 = B_SPLINE_CURVE_WITH_KNOTS('',10,(#602,#603,#604,#605,#606,#607,
    #608,#609,#610,#611,#612),.UNSPECIFIED.,.F.,.F.,(11,11),(0.,1.),
  .PIECEWISE_BEZIER_KNOTS.);
#602 = CARTESIAN_POINT('',(2.,-0.695981683869,-27.26299717884));
#603 = CARTESIAN_POINT('',(1.560177028497,-0.695981683869,
    -27.26299717884));
#604 = CARTESIAN_POINT('',(1.120354095198,-0.762219524306,
    -27.12449441597));
#605 = CARTESIAN_POINT('',(0.740820765163,-0.894696846282,
    -26.84748545873));
#606 = CARTESIAN_POINT('',(0.481869379607,-1.081732271148,
    -26.45639597079));
#607 = CARTESIAN_POINT('',(0.389612969135,-1.3,-26.00000000001));
#608 = CARTESIAN_POINT('',(0.481869379607,-1.518267728851,
    -25.54360402918));
#609 = CARTESIAN_POINT('',(0.740820765163,-1.705303153718,
    -25.15251454128));
#610 = CARTESIAN_POINT('',(1.120354095198,-1.837780475694,
    -24.87550558401));
#611 = CARTESIAN_POINT('',(1.560177047599,-1.904018316131,
    -24.73700282115));
#612 = CARTESIAN_POINT('',(2.,-1.904018316131,-24.73700282115));
#613 = PCURVE('',#614,#736);
#614 = ( BOUNDED_SURFACE() B_SPLINE_SURFACE(10,6,(
    (#615,#616,#617,#618,#619,#620,#621,#622,#623,#624,#625)
    ,(#626,#627,#628,#629,#630,#631,#632,#633,#634,#635,#636)
    ,(#637,#638,#639,#640,#641,#642,#643,#644,#645,#646,#647)
    ,(#648,#649,#650,#651,#652,#653,#654,#655,#656,#657,#658)
    ,(#659,#660,#661,#662,#663,#664,#665,#666,#667,#668,#669)
    ,(#670,#671,#672,#673,#674,#675,#676,#677,#678,#679,#680)
    ,(#681,#682,#683,#684,#685,#686,#687,#688,#689,#690,#691)
    ,(#692,#693,#694,#695,#696,#697,#698,#699,#700,#701,#702)
    ,(#703,#704,#705,#706,#707,#708,#709,#710,#711,#712,#713)
    ,(#714,#715,#716,#717,#718,#719,#720,#721,#722,#723,#724)
    ,(#725,#726,#727,#728,#729,#730,#731,#732,#733,#734,#735
)),.UNSPECIFIED.,.F.,.F.,.F.) B_SPLINE_SURFACE_WITH_KNOTS((11,11),(7,4,7
    ),(0.,1.),(0.,0.500834100849,1.),.UNSPECIFIED.) 
GEOMETRIC_REPRESENTATION_ITEM() RATIONAL_B_SPLINE_SURFACE((
    (1.,1.,1.,1.,1.,1.,1.,1.,1.,1.,1.)
    ,(1.,1.,1.,1.,1.,1.,1.,1.,1.,1.,1.)
    ,(1.,1.,1.,1.,1.,1.,1.,1.,1.,1.,1.)
    ,(1.,1.,1.,1.,1.,1.,1.,1.,1.,1.,1.)
    ,(1.,1.,1.,1.,1.,1.,1.,1.,1.,1.,1.)
    ,(1.,1.,1.,1.,1.,1.,1.,1.,1.,1.,1.)
    ,(1.,1.,1.,1.,1.,1.,1.,1.,1.,1.,1.)
    ,(1.,1.,1.,1.,1.,1.,1.,1.,1.,1.,1.)
    ,(1.,1.,1.,1.,1.,1.,1.,1.,1.,1.,1.)
    ,(1.,1.,1.,1.,1.,1.,1.,1.,1.,1.,1.)
,(1.,1.,1.,1.,1.,1.,1.,1.,1.,1.,1.
  ))) REPRESENTATION_ITEM('') SURFACE() );
#615 = CARTESIAN_POINT('',(2.,-0.695981683869,-27.26299717884));
#616 = CARTESIAN_POINT('',(2.000000000001,-0.327303298916,
    -27.29978387805));
#617 = CARTESIAN_POINT('',(1.999999999999,-2.070813936651,
    -28.19872518209));
#618 = CARTESIAN_POINT('',(2.000000000001,-1.126793648421,
    -28.78792243775));
#619 = CARTESIAN_POINT('',(2.,-2.314337889494,-29.17678203838));
#620 = CARTESIAN_POINT('',(2.,-2.316925306176,-30.51867249706));
#621 = CARTESIAN_POINT('',(2.,-2.04909793049,-32.02744685835));
#622 = CARTESIAN_POINT('',(2.000000000001,-1.519605594321,
    -32.85453634157));
#623 = CARTESIAN_POINT('',(1.999999999999,-1.276839986249,-33.5660499047
    ));
#624 = CARTESIAN_POINT('',(2.,-0.709199545479,-34.37216041719));
#625 = CARTESIAN_POINT('',(2.,-0.291881976369,-35.14473098353));
#626 = CARTESIAN_POINT('',(1.560177028497,-0.695981683869,
    -27.26299717884));
#627 = CARTESIAN_POINT('',(1.462651541871,-0.327303298913,
    -27.29978387803));
#628 = CARTESIAN_POINT('',(1.70080237426,-2.070813936656,-28.19872518212
    ));
#629 = CARTESIAN_POINT('',(1.370684626943,-1.126793648416,
    -28.78792243772));
#630 = CARTESIAN_POINT('',(1.656269708538,-2.314337889496,
    -29.17678203839));
#631 = CARTESIAN_POINT('',(1.627274534964,-2.316925306175,
    -30.51867249706));
#632 = CARTESIAN_POINT('',(1.727726089133,-2.04909793049,-32.02744685835
    ));
#633 = CARTESIAN_POINT('',(1.705574676047,-1.519605594321,
    -32.85453634158));
#634 = CARTESIAN_POINT('',(1.779786608555,-1.276839986248,
    -33.56604990468));
#635 = CARTESIAN_POINT('',(1.770608585595,-0.709199545479,-34.3721604172
    ));
#636 = CARTESIAN_POINT('',(1.805221255477,-0.291881976369,
    -35.14473098353));
#637 = CARTESIAN_POINT('',(1.120354095198,-0.762219524306,
    -27.12449441597));
#638 = CARTESIAN_POINT('',(0.925303836545,-0.5100296216,-27.21783725944)
  );
#639 = CARTESIAN_POINT('',(1.401603382458,-2.123041740481,
    -28.08942515854));
#640 = CARTESIAN_POINT('',(0.741370753418,-1.342904898453,
    -28.71384486406));
#641 = CARTESIAN_POINT('',(1.312538551065,-2.436234972143,
    -29.14651608367));
#642 = CARTESIAN_POINT('',(1.254550574242,-2.448903735379,
    -30.54914754266));
#643 = CARTESIAN_POINT('',(1.455450157751,-2.131377743107,
    -32.07861858561));
#644 = CARTESIAN_POINT('',(1.411161911458,-1.608296448789,
    -32.90234864409));
#645 = CARTESIAN_POINT('',(1.559549361003,-1.33855699638,-33.61592568277
    ));
#646 = CARTESIAN_POINT('',(1.541226124364,-0.775330931937,
    -34.41560458258));
#647 = CARTESIAN_POINT('',(1.610440714178,-0.347603201493,
    -35.18369048492));
#648 = CARTESIAN_POINT('',(0.740820765163,-0.894696846282,
    -26.84748545873));
#649 = CARTESIAN_POINT('',(0.461609643537,-0.875486794113,
    -27.05394199163));
#650 = CARTESIAN_POINT('',(1.143426544968,-2.22749864224,-27.8708224039)
  );
#651 = CARTESIAN_POINT('',(0.198312137068,-1.775132752771,
    -28.56568788085));
#652 = CARTESIAN_POINT('',(1.015930725913,-2.680032157572,
    -29.08598342448));
#653 = CARTESIAN_POINT('',(0.932909125841,-2.712863863665,
    -30.61009838892));
#654 = CARTESIAN_POINT('',(1.220509998008,-2.2959394069,-32.18096330793)
  );
#655 = CARTESIAN_POINT('',(1.157026610528,-1.785680355135,
    -32.99797443404));
#656 = CARTESIAN_POINT('',(1.369653488449,-1.461992545715,
    -33.71567847418));
#657 = CARTESIAN_POINT('',(1.343229878595,-0.907595343329,
    -34.50249398994));
#658 = CARTESIAN_POINT('',(1.442371643346,-0.459047032286,
    -35.26161045295));
#659 = CARTESIAN_POINT('',(0.481869379607,-1.081732271148,
    -26.45639597079));
#660 = CARTESIAN_POINT('',(0.145248870151,-1.391450104118,
    -26.82254977659));
#661 = CARTESIAN_POINT('',(0.967250438265,-2.374974003922,-27.5621925298
    ));
#662 = CARTESIAN_POINT('',(-0.172184882873,-2.385364898091,
    -28.35651544465));
#663 = CARTESIAN_POINT('',(0.813542461538,-3.024232277805,
    -29.00052161498));
#664 = CARTESIAN_POINT('',(0.713483070646,-3.085530626598,
    -30.69615060713));
#665 = CARTESIAN_POINT('',(1.060176349087,-2.528272460167,
    -32.32545663207));
#666 = CARTESIAN_POINT('',(0.983857208522,-2.03611623193,-33.1329817689)
  );
#667 = CARTESIAN_POINT('',(1.239662380749,-1.63626252698,-33.85651243395
    ));
#668 = CARTESIAN_POINT('',(1.208299098577,-1.094330174677,
    -34.62516704015));
#669 = CARTESIAN_POINT('',(1.32766752176,-0.616386748473,-35.37162018222
    ));
#670 = CARTESIAN_POINT('',(0.389612969135,-1.3,-26.00000000001));
#671 = CARTESIAN_POINT('',(3.252024795473E-02,-1.993572081257,
    -26.55251829239));
#672 = CARTESIAN_POINT('',(0.904521795371,-2.547075691774,
    -27.20202577775));
#673 = CARTESIAN_POINT('',(-0.304220475493,-3.097497289489,
    -28.1124141316));
#674 = CARTESIAN_POINT('',(0.741461873099,-3.425909011384,
    -28.90078887699));
#675 = CARTESIAN_POINT('',(0.635268685092,-3.520427534606,
    -30.79657234416));
#676 = CARTESIAN_POINT('',(1.003109445661,-2.799401888785,
    -32.49407832344));
#677 = CARTESIAN_POINT('',(0.921824789036,-2.328371402823,
    -33.29053344414));
#678 = CARTESIAN_POINT('',(1.193993423752,-1.839633161367,
    -34.02086369712));
#679 = CARTESIAN_POINT('',(1.159986873139,-1.312247115117,
    -34.76832477714));
#680 = CARTESIAN_POINT('',(1.286850809137,-0.8,-35.5));
#681 = CARTESIAN_POINT('',(0.481869379607,-1.518267728851,
    -25.54360402918));
#682 = CARTESIAN_POINT('',(0.145248870149,-2.595694058558,
    -26.28248680878));
#683 = CARTESIAN_POINT('',(0.967250438267,-2.719177379349,
    -26.84185902484));
#684 = CARTESIAN_POINT('',(-0.172184882875,-3.809629681126,
    -27.86831281956));
#685 = CARTESIAN_POINT('',(0.813542461539,-3.827585744911,
    -28.80105613881));
#686 = CARTESIAN_POINT('',(0.713483070646,-3.95532444262,-30.89699408107
    ));
#687 = CARTESIAN_POINT('',(1.060176349087,-3.070531317397,
    -32.66270001487));
#688 = CARTESIAN_POINT('',(0.983857208525,-2.620626573682,
    -33.44808511849));
#689 = CARTESIAN_POINT('',(1.239662380746,-2.043003795805,
    -34.18521496146));
#690 = CARTESIAN_POINT('',(1.208299098578,-1.530164055532,
    -34.91148251356));
#691 = CARTESIAN_POINT('',(1.327667521759,-0.983613251527,
    -35.62837981777));
#692 = CARTESIAN_POINT('',(0.740820765163,-1.705303153718,
    -25.15251454128));
#693 = CARTESIAN_POINT('',(0.461609643539,-3.11165736844,-26.05109459327
    ));
#694 = CARTESIAN_POINT('',(1.143426544965,-2.866652741241,
    -26.53322915143));
#695 = CARTESIAN_POINT('',(0.198312137071,-4.419861826264,
    -27.65914038257));
#696 = CARTESIAN_POINT('',(1.015930725913,-4.171785865184,
    -28.71559432946));
#697 = CARTESIAN_POINT('',(0.93290912584,-4.327991205547,-30.98304629937
    ));
#698 = CARTESIAN_POINT('',(1.220509998008,-3.30286437067,-32.80719333896
    ));
#699 = CARTESIAN_POINT('',(1.157026610525,-2.871062450502,
    -33.58309245405));
#700 = CARTESIAN_POINT('',(1.369653488453,-2.217273777032,
    -34.32604892033));
#701 = CARTESIAN_POINT('',(1.343229878593,-1.716898886899,
    -35.03415556421));
#702 = CARTESIAN_POINT('',(1.442371643346,-1.140952967714,
    -35.73838954705));
#703 = CARTESIAN_POINT('',(1.120354095198,-1.837780475694,
    -24.87550558401));
#704 = CARTESIAN_POINT('',(0.925303836543,-3.477114541022,
    -25.88719932574));
#705 = CARTESIAN_POINT('',(1.40160338246,-2.971109642883,-26.31462639637
    ));
#706 = CARTESIAN_POINT('',(0.741370753416,-4.852089680684,
    -27.51098339982));
#707 = CARTESIAN_POINT('',(1.312538551065,-4.41558305059,-28.65506167018
    ));
#708 = CARTESIAN_POINT('',(1.254550574242,-4.591951333837,
    -31.04399714559));
#709 = CARTESIAN_POINT('',(1.455450157751,-3.46742603446,-32.90953806131
    ));
#710 = CARTESIAN_POINT('',(1.41116191146,-3.048446356834,-33.67871824361
    ));
#711 = CARTESIAN_POINT('',(1.559549361001,-2.340709326387,
    -34.42580171225));
#712 = CARTESIAN_POINT('',(1.541226124365,-1.84916329828,-35.12104497132
    ));
#713 = CARTESIAN_POINT('',(1.610440714178,-1.252396798507,
    -35.81630951507));
#714 = CARTESIAN_POINT('',(1.560177047599,-1.904018316131,
    -24.73700282115));
#715 = CARTESIAN_POINT('',(1.4626515685,-3.659840863683,-25.80525270703)
  );
#716 = CARTESIAN_POINT('',(1.700802380765,-3.023337446751,
    -26.20532637298));
#717 = CARTESIAN_POINT('',(1.370684661011,-5.068200930683,
    -27.43690582596));
#718 = CARTESIAN_POINT('',(1.656269719288,-4.537480133246,
    -28.62479571551));
#719 = CARTESIAN_POINT('',(1.627274558016,-4.723929763039,
    -31.07447219119));
#720 = CARTESIAN_POINT('',(1.727726091424,-3.549705847078,
    -32.96070978857));
#721 = CARTESIAN_POINT('',(1.705574747294,-3.137137211306,
    -33.72653054624));
#722 = CARTESIAN_POINT('',(1.779786506761,-2.402426336512,
    -34.47567749016));
#723 = CARTESIAN_POINT('',(1.770608637223,-1.915294684741,
    -35.16448913679));
#724 = CARTESIAN_POINT('',(1.805221255477,-1.308118023631,
    -35.85526901646));
#725 = CARTESIAN_POINT('',(2.,-1.904018316131,-24.73700282115));
#726 = CARTESIAN_POINT('',(1.999999999999,-3.659840863682,
    -25.80525270704));
#727 = CARTESIAN_POINT('',(2.000000000002,-3.023337446752,
    -26.20532637297));
#728 = CARTESIAN_POINT('',(1.999999999998,-5.068200930682,
    -27.43690582597));
#729 = CARTESIAN_POINT('',(2.,-4.537480133246,-28.6247957155));
#730 = CARTESIAN_POINT('',(2.,-4.723929763039,-31.0744721912));
#731 = CARTESIAN_POINT('',(2.,-3.549705847078,-32.96070978856));
#732 = CARTESIAN_POINT('',(2.,-3.137137211307,-33.72653054625));
#733 = CARTESIAN_POINT('',(1.999999999999,-2.402426336512,
    -34.47567749015));
#734 = CARTESIAN_POINT('',(2.,-1.915294684742,-35.16448913679));
#735 = CARTESIAN_POINT('',(2.,-1.308118023631,-35.85526901646));
#736 = DEFINITIONAL_REPRESENTATION('',(#737),#741);
#737 = LINE('',#738,#739);
#738 = CARTESIAN_POINT('',(0.,0.));
#739 = VECTOR('',#740,1.);
#740 = DIRECTION('',(1.,0.));
#741 = ( GEOMETRIC_REPRESENTATION_CONTEXT(2) 
PARAMETRIC_REPRESENTATION_CONTEXT() REPRESENTATION_CONTEXT('2D SPACE',''
  ) );
#742 = PCURVE('',#743,#748);
#743 = PLANE('',#744);
#744 = AXIS2_PLACEMENT_3D('',#745,#746,#747);
#745 = CARTESIAN_POINT('',(2.,-0.695981683869,-27.26299717884));
#746 = DIRECTION('',(9.10653626235E-14,0.902140842034,0.43144165438));
#747 = DIRECTION('',(-1.776356839401E-14,0.43144165438,-0.902140842034)
  );
#748 = DEFINITIONAL_REPRESENTATION('',(#749),#761);
#749 = B_SPLINE_CURVE_WITH_KNOTS('',10,(#750,#751,#752,#753,#754,#755,
    #756,#757,#758,#759,#760),.UNSPECIFIED.,.F.,.F.,(11,11),(0.,1.),
  .PIECEWISE_BEZIER_KNOTS.);
#750 = CARTESIAN_POINT('',(0.,0.));
#751 = CARTESIAN_POINT('',(1.035279511225E-12,0.439822971503));
#752 = CARTESIAN_POINT('',(-0.153526762579,0.879645904802));
#753 = CARTESIAN_POINT('',(-0.460584091482,1.259179234837));
#754 = CARTESIAN_POINT('',(-0.894096764577,1.518130620393));
#755 = CARTESIAN_POINT('',(-1.399999999989,1.610387030865));
#756 = CARTESIAN_POINT('',(-1.905903235443,1.518130620393));
#757 = CARTESIAN_POINT('',(-2.339415908505,1.259179234837));
#758 = CARTESIAN_POINT('',(-2.646473237426,0.879645904802));
#759 = CARTESIAN_POINT('',(-2.8,0.439822952401));
#760 = CARTESIAN_POINT('',(-2.8,-5.048709793414E-29));
#761 = ( GEOMETRIC_REPRESENTATION_CONTEXT(2) 
PARAMETRIC_REPRESENTATION_CONTEXT() REPRESENTATION_CONTEXT('2D SPACE',''
  ) );
#762 = ORIENTED_EDGE('',*,*,#763,.T.);
#763 = EDGE_CURVE('',#598,#764,#766,.T.);
#764 = VERTEX_POINT('',#765);
#765 = CARTESIAN_POINT('',(2.,-1.308118023631,-35.85526901646));
#766 = SURFACE_CURVE('',#767,(#779,#786),.PCURVE_S1.);
#767 = ( BOUNDED_CURVE() B_SPLINE_CURVE(6,(#768,#769,#770,#771,#772,#773
    ,#774,#775,#776,#777,#778),.UNSPECIFIED.,.F.,.F.) 
B_SPLINE_CURVE_WITH_KNOTS((7,4,7),(0.,0.500834100849,1.),.UNSPECIFIED.) 
CURVE() GEOMETRIC_REPRESENTATION_ITEM() RATIONAL_B_SPLINE_CURVE((1.,1.,
1.,1.,1.,1.,1.,1.,1.,1.,1.)) REPRESENTATION_ITEM('') );
#768 = CARTESIAN_POINT('',(2.,-1.904018316131,-24.73700282115));
#769 = CARTESIAN_POINT('',(1.999999999999,-3.659840863682,
    -25.80525270704));
#770 = CARTESIAN_POINT('',(2.000000000002,-3.023337446752,
    -26.20532637297));
#771 = CARTESIAN_POINT('',(1.999999999998,-5.068200930682,
    -27.43690582597));
#772 = CARTESIAN_POINT('',(2.,-4.537480133246,-28.6247957155));
#773 = CARTESIAN_POINT('',(2.,-4.723929763039,-31.0744721912));
#774 = CARTESIAN_POINT('',(2.,-3.549705847078,-32.96070978856));
#775 = CARTESIAN_POINT('',(2.,-3.137137211307,-33.72653054625));
#776 = CARTESIAN_POINT('',(1.999999999999,-2.402426336512,
    -34.47567749015));
#777 = CARTESIAN_POINT('',(2.,-1.915294684742,-35.16448913679));
#778 = CARTESIAN_POINT('',(2.,-1.308118023631,-35.85526901646));
#779 = PCURVE('',#614,#780);
#780 = DEFINITIONAL_REPRESENTATION('',(#781),#785);
#781 = LINE('',#782,#783);
#782 = CARTESIAN_POINT('',(1.,0.));
#783 = VECTOR('',#784,1.);
#784 = DIRECTION('',(0.,1.));
#785 = ( GEOMETRIC_REPRESENTATION_CONTEXT(2) 
PARAMETRIC_REPRESENTATION_CONTEXT() REPRESENTATION_CONTEXT('2D SPACE',''
  ) );
#786 = PCURVE('',#787,#909);
#787 = ( BOUNDED_SURFACE() B_SPLINE_SURFACE(10,6,(
    (#788,#789,#790,#791,#792,#793,#794,#795,#796,#797,#798)
    ,(#799,#800,#801,#802,#803,#804,#805,#806,#807,#808,#809)
    ,(#810,#811,#812,#813,#814,#815,#816,#817,#818,#819,#820)
    ,(#821,#822,#823,#824,#825,#826,#827,#828,#829,#830,#831)
    ,(#832,#833,#834,#835,#836,#837,#838,#839,#840,#841,#842)
    ,(#843,#844,#845,#846,#847,#848,#849,#850,#851,#852,#853)
    ,(#854,#855,#856,#857,#858,#859,#860,#861,#862,#863,#864)
    ,(#865,#866,#867,#868,#869,#870,#871,#872,#873,#874,#875)
    ,(#876,#877,#878,#879,#880,#881,#882,#883,#884,#885,#886)
    ,(#887,#888,#889,#890,#891,#892,#893,#894,#895,#896,#897)
    ,(#898,#899,#900,#901,#902,#903,#904,#905,#906,#907,#908
)),.UNSPECIFIED.,.F.,.F.,.F.) B_SPLINE_SURFACE_WITH_KNOTS((11,11),(7,4,7
    ),(1.,2.),(0.,0.500834100849,1.),.UNSPECIFIED.) 
GEOMETRIC_REPRESENTATION_ITEM() RATIONAL_B_SPLINE_SURFACE((
    (1.,1.,1.,1.,1.,1.,1.,1.,1.,1.,1.)
    ,(1.,1.,1.,1.,1.,1.,1.,1.,1.,1.,1.)
    ,(1.,1.,1.,1.,1.,1.,1.,1.,1.,1.,1.)
    ,(1.,1.,1.,1.,1.,1.,1.,1.,1.,1.,1.)
    ,(1.,1.,1.,1.,1.,1.,1.,1.,1.,1.,1.)
    ,(1.,1.,1.,1.,1.,1.,1.,1.,1.,1.,1.)
    ,(1.,1.,1.,1.,1.,1.,1.,1.,1.,1.,1.)
    ,(1.,1.,1.,1.,1.,1.,1.,1.,1.,1.,1.)
    ,(1.,1.,1.,1.,1.,1.,1.,1.,1.,1.,1.)
    ,(1.,1.,1.,1.,1.,1.,1.,1.,1.,1.,1.)
,(1.,1.,1.,1.,1.,1.,1.,1.,1.,1.,1.
  ))) REPRESENTATION_ITEM('') SURFACE() );
#788 = CARTESIAN_POINT('',(2.,-1.904018316131,-24.73700282115));
#789 = CARTESIAN_POINT('',(1.999999999999,-3.659840863682,
    -25.80525270704));
#790 = CARTESIAN_POINT('',(2.000000000002,-3.023337446752,
    -26.20532637297));
#791 = CARTESIAN_POINT('',(1.999999999998,-5.068200930682,
    -27.43690582597));
#792 = CARTESIAN_POINT('',(2.,-4.537480133246,-28.6247957155));
#793 = CARTESIAN_POINT('',(2.,-4.723929763039,-31.0744721912));
#794 = CARTESIAN_POINT('',(2.,-3.549705847078,-32.96070978856));
#795 = CARTESIAN_POINT('',(2.,-3.137137211307,-33.72653054625));
#796 = CARTESIAN_POINT('',(1.999999999999,-2.402426336512,
    -34.47567749015));
#797 = CARTESIAN_POINT('',(2.,-1.915294684742,-35.16448913679));
#798 = CARTESIAN_POINT('',(2.,-1.308118023631,-35.85526901646));
#799 = CARTESIAN_POINT('',(2.439822952401,-1.904018316131,
    -24.73700282115));
#800 = CARTESIAN_POINT('',(2.537348431498,-3.659840863682,
    -25.80525270705));
#801 = CARTESIAN_POINT('',(2.299197619239,-3.023337446753,
    -26.20532637295));
#802 = CARTESIAN_POINT('',(2.629315338985,-5.068200930681,
    -27.43690582598));
#803 = CARTESIAN_POINT('',(2.343730280713,-4.537480133246,-28.6247957155
    ));
#804 = CARTESIAN_POINT('',(2.372725441984,-4.723929763039,-31.0744721912
    ));
#805 = CARTESIAN_POINT('',(2.272273908576,-3.549705847078,
    -32.96070978856));
#806 = CARTESIAN_POINT('',(2.294425252706,-3.137137211307,
    -33.72653054626));
#807 = CARTESIAN_POINT('',(2.220213493238,-2.402426336512,
    -34.47567749015));
#808 = CARTESIAN_POINT('',(2.229391362777,-1.915294684742,-35.1644891368
    ));
#809 = CARTESIAN_POINT('',(2.194778744523,-1.308118023631,
    -35.85526901646));
#810 = CARTESIAN_POINT('',(2.879645904801,-1.837780475694,
    -24.87550558401));
#811 = CARTESIAN_POINT('',(3.074696163467,-3.477114541019,
    -25.88719932578));
#812 = CARTESIAN_POINT('',(2.598396617524,-2.971109642888,-26.3146263963
    ));
#813 = CARTESIAN_POINT('',(3.258629246597,-4.852089680681,
    -27.51098339988));
#814 = CARTESIAN_POINT('',(2.687461448932,-4.415583050591,
    -28.65506167016));
#815 = CARTESIAN_POINT('',(2.745449425759,-4.591951333837,
    -31.04399714561));
#816 = CARTESIAN_POINT('',(2.544549842248,-3.46742603446,-32.90953806129
    ));
#817 = CARTESIAN_POINT('',(2.588838088538,-3.048446356835,
    -33.67871824366));
#818 = CARTESIAN_POINT('',(2.440450639003,-2.340709326387,
    -34.42580171219));
#819 = CARTESIAN_POINT('',(2.458773875633,-1.84916329828,-35.12104497135
    ));
#820 = CARTESIAN_POINT('',(2.389559285822,-1.252396798507,
    -35.81630951507));
#821 = CARTESIAN_POINT('',(3.259179234838,-1.705303153718,
    -25.15251454128));
#822 = CARTESIAN_POINT('',(3.538390356437,-3.111657368447,
    -26.05109459318));
#823 = CARTESIAN_POINT('',(2.856573455071,-2.866652741229,
    -26.53322915158));
#824 = CARTESIAN_POINT('',(3.801687862899,-4.419861826274,
    -27.65914038244));
#825 = CARTESIAN_POINT('',(2.984069274094,-4.171785865182,
    -28.71559432951));
#826 = CARTESIAN_POINT('',(3.067090874159,-4.327991205546,
    -30.98304629932));
#827 = CARTESIAN_POINT('',(2.779490001993,-3.302864370671,
    -32.80719333901));
#828 = CARTESIAN_POINT('',(2.84297338948,-2.871062450497,-33.58309245393
    ));
#829 = CARTESIAN_POINT('',(2.630346511539,-2.217273777036,
    -34.32604892046));
#830 = CARTESIAN_POINT('',(2.656770121411,-1.716898886897,
    -35.03415556414));
#831 = CARTESIAN_POINT('',(2.557628356654,-1.140952967714,
    -35.73838954705));
#832 = CARTESIAN_POINT('',(3.518130620392,-1.518267728851,
    -25.54360402919));
#833 = CARTESIAN_POINT('',(3.854751129887,-2.595694058542,-26.2824868089
    ));
#834 = CARTESIAN_POINT('',(3.032749561678,-2.719177379377,
    -26.84185902463));
#835 = CARTESIAN_POINT('',(4.172184882921,-3.809629681104,
    -27.86831281971));
#836 = CARTESIAN_POINT('',(3.186457538452,-3.827585744915,
    -28.80105613874));
#837 = CARTESIAN_POINT('',(3.286516929355,-3.955324442621,
    -30.89699408115));
#838 = CARTESIAN_POINT('',(2.939823650911,-3.070531317395,-32.6627000148
    ));
#839 = CARTESIAN_POINT('',(3.016142791466,-2.620626573689,
    -33.44808511867));
#840 = CARTESIAN_POINT('',(2.760337619269,-2.043003795797,
    -34.18521496127));
#841 = CARTESIAN_POINT('',(2.791700901414,-1.530164055535,
    -34.91148251365));
#842 = CARTESIAN_POINT('',(2.67233247824,-0.983613251527,-35.62837981777
    ));
#843 = CARTESIAN_POINT('',(3.610387030867,-1.300000000001,-26.));
#844 = CARTESIAN_POINT('',(3.967479752004,-1.993572081281,
    -26.55251829231));
#845 = CARTESIAN_POINT('',(3.095478204692,-2.547075691732,
    -27.20202577791));
#846 = CARTESIAN_POINT('',(4.30422047544,-3.097497289524,-28.11241413149
    ));
#847 = CARTESIAN_POINT('',(3.258538126912,-3.425909011377,
    -28.90078887706));
#848 = CARTESIAN_POINT('',(3.364731314907,-3.520427534605,
    -30.79657234407));
#849 = CARTESIAN_POINT('',(2.996890554341,-2.799401888787,
    -32.49407832351));
#850 = CARTESIAN_POINT('',(3.078175210977,-2.328371402813,
    -33.29053344396));
#851 = CARTESIAN_POINT('',(2.806006576228,-1.839633161378,
    -34.02086369731));
#852 = CARTESIAN_POINT('',(2.840013126871,-1.312247115112,
    -34.76832477705));
#853 = CARTESIAN_POINT('',(2.713149190863,-0.8,-35.5));
#854 = CARTESIAN_POINT('',(3.518130620392,-1.081732271148,-26.4563959708
    ));
#855 = CARTESIAN_POINT('',(3.854751129884,-1.391450104092,
    -26.82254977662));
#856 = CARTESIAN_POINT('',(3.032749561682,-2.374974003967,
    -27.56219252972));
#857 = CARTESIAN_POINT('',(4.172184882918,-2.385364898052,
    -28.35651544468));
#858 = CARTESIAN_POINT('',(3.186457538453,-3.024232277813,
    -29.00052161494));
#859 = CARTESIAN_POINT('',(3.286516929355,-3.085530626598,-30.6961506072
    ));
#860 = CARTESIAN_POINT('',(2.939823650911,-2.528272460167,
    -32.32545663202));
#861 = CARTESIAN_POINT('',(3.016142791465,-2.036116231938,
    -33.13298176906));
#862 = CARTESIAN_POINT('',(2.760337619269,-1.63626252697,-33.85651243379
    ));
#863 = CARTESIAN_POINT('',(2.791700901414,-1.094330174682,
    -34.62516704022));
#864 = CARTESIAN_POINT('',(2.672332478241,-0.616386748473,
    -35.37162018222));
#865 = CARTESIAN_POINT('',(3.259179234838,-0.894696846282,
    -26.84748545872));
#866 = CARTESIAN_POINT('',(3.538390356442,-0.875486794132,
    -27.05394199164));
#867 = CARTESIAN_POINT('',(2.856573455064,-2.227498642207,-27.8708224039
    ));
#868 = CARTESIAN_POINT('',(3.801687862905,-1.775132752799,
    -28.56568788087));
#869 = CARTESIAN_POINT('',(2.984069274092,-2.680032157566,-29.0859834245
    ));
#870 = CARTESIAN_POINT('',(3.06709087416,-2.712863863666,-30.61009838888
    ));
#871 = CARTESIAN_POINT('',(2.779490001993,-2.2959394069,-32.18096330796)
  );
#872 = CARTESIAN_POINT('',(2.842973389481,-1.78568035513,-32.99797443394
    ));
#873 = CARTESIAN_POINT('',(2.630346511538,-1.461992545722,
    -33.71567847428));
#874 = CARTESIAN_POINT('',(2.656770121412,-0.907595343326,-34.5024939899
    ));
#875 = CARTESIAN_POINT('',(2.557628356654,-0.459047032286,
    -35.26161045295));
#876 = CARTESIAN_POINT('',(2.879645904801,-0.762219524306,
    -27.12449441598));
#877 = CARTESIAN_POINT('',(3.074696163465,-0.510029621591,
    -27.21783725943));
#878 = CARTESIAN_POINT('',(2.598396617527,-2.123041740496,
    -28.08942515856));
#879 = CARTESIAN_POINT('',(3.258629246594,-1.342904898439,
    -28.71384486404));
#880 = CARTESIAN_POINT('',(2.687461448933,-2.436234972146,
    -29.14651608366));
#881 = CARTESIAN_POINT('',(2.745449425759,-2.448903735379,
    -30.54914754267));
#882 = CARTESIAN_POINT('',(2.544549842249,-2.131377743107,-32.0786185856
    ));
#883 = CARTESIAN_POINT('',(2.588838088537,-1.608296448792,
    -32.90234864413));
#884 = CARTESIAN_POINT('',(2.440450639003,-1.338556996377,
    -33.61592568272));
#885 = CARTESIAN_POINT('',(2.458773875633,-0.775330931938,-34.4156045826
    ));
#886 = CARTESIAN_POINT('',(2.389559285822,-0.347603201493,
    -35.18369048492));
#887 = CARTESIAN_POINT('',(2.439822971503,-0.695981683869,
    -27.26299717884));
#888 = CARTESIAN_POINT('',(2.537348458127,-0.327303298916,
    -27.29978387803));
#889 = CARTESIAN_POINT('',(2.299197625743,-2.070813936652,
    -28.19872518212));
#890 = CARTESIAN_POINT('',(2.629315373054,-1.126793648419,
    -28.78792243772));
#891 = CARTESIAN_POINT('',(2.343730291463,-2.314337889495,
    -29.17678203839));
#892 = CARTESIAN_POINT('',(2.372725465037,-2.316925306175,
    -30.51867249706));
#893 = CARTESIAN_POINT('',(2.272273910867,-2.04909793049,-32.02744685836
    ));
#894 = CARTESIAN_POINT('',(2.294425323954,-1.519605594321,
    -32.85453634157));
#895 = CARTESIAN_POINT('',(2.220213391443,-1.276839986249,
    -33.56604990469));
#896 = CARTESIAN_POINT('',(2.229391414406,-0.709199545479,
    -34.37216041719));
#897 = CARTESIAN_POINT('',(2.194778744523,-0.291881976369,
    -35.14473098353));
#898 = CARTESIAN_POINT('',(2.,-0.695981683869,-27.26299717884));
#899 = CARTESIAN_POINT('',(2.,-0.327303298916,-27.29978387804));
#900 = CARTESIAN_POINT('',(2.,-2.070813936651,-28.1987251821));
#901 = CARTESIAN_POINT('',(2.,-1.126793648421,-28.78792243774));
#902 = CARTESIAN_POINT('',(2.,-2.314337889494,-29.17678203838));
#903 = CARTESIAN_POINT('',(2.,-2.316925306176,-30.51867249706));
#904 = CARTESIAN_POINT('',(2.,-2.04909793049,-32.02744685836));
#905 = CARTESIAN_POINT('',(2.,-1.519605594321,-32.85453634156));
#906 = CARTESIAN_POINT('',(2.,-1.276839986249,-33.5660499047));
#907 = CARTESIAN_POINT('',(2.,-0.709199545479,-34.37216041719));
#908 = CARTESIAN_POINT('',(2.,-0.291881976369,-35.14473098353));
#909 = DEFINITIONAL_REPRESENTATION('',(#910),#914);
#910 = LINE('',#911,#912);
#911 = CARTESIAN_POINT('',(1.,0.));
#912 = VECTOR('',#913,1.);
#913 = DIRECTION('',(0.,1.));
#914 = ( GEOMETRIC_REPRESENTATION_CONTEXT(2) 
PARAMETRIC_REPRESENTATION_CONTEXT() REPRESENTATION_CONTEXT('2D SPACE',''
  ) );
#915 = ORIENTED_EDGE('',*,*,#916,.F.);
#916 = EDGE_CURVE('',#917,#764,#919,.T.);
#917 = VERTEX_POINT('',#918);
#918 = CARTESIAN_POINT('',(1.380000022866,-0.8,-35.5));
#919 = SURFACE_CURVE('',#920,(#932,#939),.PCURVE_S1.);
#920 = B_SPLINE_CURVE_WITH_KNOTS('',10,(#921,#922,#923,#924,#925,#926,
    #927,#928,#929,#930,#931),.UNSPECIFIED.,.F.,.F.,(11,11),(0.,1.),
  .PIECEWISE_BEZIER_KNOTS.);
#921 = CARTESIAN_POINT('',(2.,-0.291881976369,-35.14473098353));
#922 = CARTESIAN_POINT('',(1.805221255477,-0.291881976369,
    -35.14473098353));
#923 = CARTESIAN_POINT('',(1.610440714178,-0.347603201493,
    -35.18369048492));
#924 = CARTESIAN_POINT('',(1.442371643346,-0.459047032286,
    -35.26161045295));
#925 = CARTESIAN_POINT('',(1.32766752176,-0.616386748473,-35.37162018222
    ));
#926 = CARTESIAN_POINT('',(1.286850809137,-0.8,-35.5));
#927 = CARTESIAN_POINT('',(1.327667521759,-0.983613251527,
    -35.62837981777));
#928 = CARTESIAN_POINT('',(1.442371643346,-1.140952967714,
    -35.73838954705));
#929 = CARTESIAN_POINT('',(1.610440714178,-1.252396798507,
    -35.81630951507));
#930 = CARTESIAN_POINT('',(1.805221255477,-1.308118023631,
    -35.85526901646));
#931 = CARTESIAN_POINT('',(2.,-1.308118023631,-35.85526901646));
#932 = PCURVE('',#614,#933);
#933 = DEFINITIONAL_REPRESENTATION('',(#934),#938);
#934 = LINE('',#935,#936);
#935 = CARTESIAN_POINT('',(0.,1.));
#936 = VECTOR('',#937,1.);
#937 = DIRECTION('',(1.,0.));
#938 = ( GEOMETRIC_REPRESENTATION_CONTEXT(2) 
PARAMETRIC_REPRESENTATION_CONTEXT() REPRESENTATION_CONTEXT('2D SPACE',''
  ) );
#939 = PCURVE('',#940,#945);
#940 = SPHERICAL_SURFACE('',#941,0.62);
#941 = AXIS2_PLACEMENT_3D('',#942,#943,#944);
#942 = CARTESIAN_POINT('',(2.,-0.8,-35.5));
#943 = DIRECTION('',(-0.,-0.,1.));
#944 = DIRECTION('',(-1.,-0.,-0.));
#945 = DEFINITIONAL_REPRESENTATION('',(#946),#961);
#946 = B_SPLINE_CURVE_WITH_KNOTS('',7,(#947,#948,#949,#950,#951,#952,
    #953,#954,#955,#956,#957,#958,#959,#960),.UNSPECIFIED.,.F.,.F.,(8,6,
    8),(0.5,0.75,1.),.UNSPECIFIED.);
#947 = CARTESIAN_POINT('',(-6.28318530718,-1.146036755115E-14));
#948 = CARTESIAN_POINT('',(-6.191232553933,-6.429207917834E-02));
#949 = CARTESIAN_POINT('',(-6.099279784909,-0.128584036891));
#950 = CARTESIAN_POINT('',(-6.006085433528,-0.191989058805));
#951 = CARTESIAN_POINT('',(-5.910407610484,-0.253614953785));
#952 = CARTESIAN_POINT('',(-5.811010819088,-0.312495431762));
#953 = CARTESIAN_POINT('',(-5.70665376141,-0.367452318149));
#954 = CARTESIAN_POINT('',(-5.486625522751,-0.466904516686));
#955 = CARTESIAN_POINT('',(-5.370952155642,-0.511401098107));
#956 = CARTESIAN_POINT('',(-5.248935856497,-0.549353350653));
#957 = CARTESIAN_POINT('',(-5.120372070894,-0.579369057748));
#958 = CARTESIAN_POINT('',(-4.986195577341,-0.599911399569));
#959 = CARTESIAN_POINT('',(-4.849293860933,-0.610179457291));
#960 = CARTESIAN_POINT('',(-4.712388980385,-0.610179457291));
#961 = ( GEOMETRIC_REPRESENTATION_CONTEXT(2) 
PARAMETRIC_REPRESENTATION_CONTEXT() REPRESENTATION_CONTEXT('2D SPACE',''
  ) );
#962 = ORIENTED_EDGE('',*,*,#963,.F.);
#963 = EDGE_CURVE('',#964,#917,#966,.T.);
#964 = VERTEX_POINT('',#965);
#965 = CARTESIAN_POINT('',(2.,-0.291881976369,-35.14473098353));
#966 = SURFACE_CURVE('',#967,(#979,#986),.PCURVE_S1.);
#967 = B_SPLINE_CURVE_WITH_KNOTS('',10,(#968,#969,#970,#971,#972,#973,
    #974,#975,#976,#977,#978),.UNSPECIFIED.,.F.,.F.,(11,11),(0.,1.),
  .PIECEWISE_BEZIER_KNOTS.);
#968 = CARTESIAN_POINT('',(2.,-0.291881976369,-35.14473098353));
#969 = CARTESIAN_POINT('',(1.805221255477,-0.291881976369,
    -35.14473098353));
#970 = CARTESIAN_POINT('',(1.610440714178,-0.347603201493,
    -35.18369048492));
#971 = CARTESIAN_POINT('',(1.442371643346,-0.459047032286,
    -35.26161045295));
#972 = CARTESIAN_POINT('',(1.32766752176,-0.616386748473,-35.37162018222
    ));
#973 = CARTESIAN_POINT('',(1.286850809137,-0.8,-35.5));
#974 = CARTESIAN_POINT('',(1.327667521759,-0.983613251527,
    -35.62837981777));
#975 = CARTESIAN_POINT('',(1.442371643346,-1.140952967714,
    -35.73838954705));
#976 = CARTESIAN_POINT('',(1.610440714178,-1.252396798507,
    -35.81630951507));
#977 = CARTESIAN_POINT('',(1.805221255477,-1.308118023631,
    -35.85526901646));
#978 = CARTESIAN_POINT('',(2.,-1.308118023631,-35.85526901646));
#979 = PCURVE('',#614,#980);
#980 = DEFINITIONAL_REPRESENTATION('',(#981),#985);
#981 = LINE('',#982,#983);
#982 = CARTESIAN_POINT('',(0.,1.));
#983 = VECTOR('',#984,1.);
#984 = DIRECTION('',(1.,0.));
#985 = ( GEOMETRIC_REPRESENTATION_CONTEXT(2) 
PARAMETRIC_REPRESENTATION_CONTEXT() REPRESENTATION_CONTEXT('2D SPACE',''
  ) );
#986 = PCURVE('',#940,#987);
#987 = DEFINITIONAL_REPRESENTATION('',(#988),#1003);
#988 = B_SPLINE_CURVE_WITH_KNOTS('',7,(#989,#990,#991,#992,#993,#994,
    #995,#996,#997,#998,#999,#1000,#1001,#1002),.UNSPECIFIED.,.F.,.F.,(8
    ,6,8),(0.,0.25,0.5),.UNSPECIFIED.);
#989 = CARTESIAN_POINT('',(-1.570796326795,0.610179457291));
#990 = CARTESIAN_POINT('',(-1.433891446247,0.610179457291));
#991 = CARTESIAN_POINT('',(-1.296989729838,0.599911399568));
#992 = CARTESIAN_POINT('',(-1.162813236285,0.579369057748));
#993 = CARTESIAN_POINT('',(-1.034249450685,0.549353350652));
#994 = CARTESIAN_POINT('',(-0.912233151537,0.511401098107));
#995 = CARTESIAN_POINT('',(-0.796559784429,0.466904516686));
#996 = CARTESIAN_POINT('',(-0.576531545769,0.367452318149));
#997 = CARTESIAN_POINT('',(-0.472174488093,0.312495431762));
#998 = CARTESIAN_POINT('',(-0.372777696691,0.253614953785));
#999 = CARTESIAN_POINT('',(-0.277099873655,0.191989058805));
#1000 = CARTESIAN_POINT('',(-0.183905522269,0.128584036891));
#1001 = CARTESIAN_POINT('',(-9.195275324646E-02,6.429207917832E-02));
#1002 = CARTESIAN_POINT('',(2.6645352591E-15,-1.146036755115E-14));
#1003 = ( GEOMETRIC_REPRESENTATION_CONTEXT(2) 
PARAMETRIC_REPRESENTATION_CONTEXT() REPRESENTATION_CONTEXT('2D SPACE',''
  ) );
#1004 = ORIENTED_EDGE('',*,*,#1005,.F.);
#1005 = EDGE_CURVE('',#596,#964,#1006,.T.);
#1006 = SURFACE_CURVE('',#1007,(#1019,#1026),.PCURVE_S1.);
#1007 = ( BOUNDED_CURVE() B_SPLINE_CURVE(6,(#1008,#1009,#1010,#1011,
    #1012,#1013,#1014,#1015,#1016,#1017,#1018),.UNSPECIFIED.,.F.,.F.) 
B_SPLINE_CURVE_WITH_KNOTS((7,4,7),(0.,0.500834100849,1.),.UNSPECIFIED.) 
CURVE() GEOMETRIC_REPRESENTATION_ITEM() RATIONAL_B_SPLINE_CURVE((1.,1.,
1.,1.,1.,1.,1.,1.,1.,1.,1.)) REPRESENTATION_ITEM('') );
#1008 = CARTESIAN_POINT('',(2.,-0.695981683869,-27.26299717884));
#1009 = CARTESIAN_POINT('',(2.000000000001,-0.327303298916,
    -27.29978387805));
#1010 = CARTESIAN_POINT('',(1.999999999999,-2.070813936651,
    -28.19872518209));
#1011 = CARTESIAN_POINT('',(2.000000000001,-1.126793648421,
    -28.78792243775));
#1012 = CARTESIAN_POINT('',(2.,-2.314337889494,-29.17678203838));
#1013 = CARTESIAN_POINT('',(2.,-2.316925306176,-30.51867249706));
#1014 = CARTESIAN_POINT('',(2.,-2.04909793049,-32.02744685835));
#1015 = CARTESIAN_POINT('',(2.000000000001,-1.519605594321,
    -32.85453634157));
#1016 = CARTESIAN_POINT('',(1.999999999999,-1.276839986249,
    -33.5660499047));
#1017 = CARTESIAN_POINT('',(2.,-0.709199545479,-34.37216041719));
#1018 = CARTESIAN_POINT('',(2.,-0.291881976369,-35.14473098353));
#1019 = PCURVE('',#614,#1020);
#1020 = DEFINITIONAL_REPRESENTATION('',(#1021),#1025);
#1021 = LINE('',#1022,#1023);
#1022 = CARTESIAN_POINT('',(0.,0.));
#1023 = VECTOR('',#1024,1.);
#1024 = DIRECTION('',(0.,1.));
#1025 = ( GEOMETRIC_REPRESENTATION_CONTEXT(2) 
PARAMETRIC_REPRESENTATION_CONTEXT() REPRESENTATION_CONTEXT('2D SPACE',''
  ) );
#1026 = PCURVE('',#787,#1027);
#1027 = DEFINITIONAL_REPRESENTATION('',(#1028),#1032);
#1028 = LINE('',#1029,#1030);
#1029 = CARTESIAN_POINT('',(2.,0.));
#1030 = VECTOR('',#1031,1.);
#1031 = DIRECTION('',(0.,1.));
#1032 = ( GEOMETRIC_REPRESENTATION_CONTEXT(2) 
PARAMETRIC_REPRESENTATION_CONTEXT() REPRESENTATION_CONTEXT('2D SPACE',''
  ) );
#1033 = ADVANCED_FACE('',(#1034),#743,.T.);
#1034 = FACE_BOUND('',#1035,.F.);
#1035 = EDGE_LOOP('',(#1036,#1037));
#1036 = ORIENTED_EDGE('',*,*,#595,.F.);
#1037 = ORIENTED_EDGE('',*,*,#1038,.F.);
#1038 = EDGE_CURVE('',#598,#596,#1039,.T.);
#1039 = SURFACE_CURVE('',#1040,(#1052,#1067),.PCURVE_S1.);
#1040 = B_SPLINE_CURVE_WITH_KNOTS('',10,(#1041,#1042,#1043,#1044,#1045,
    #1046,#1047,#1048,#1049,#1050,#1051),.UNSPECIFIED.,.F.,.F.,(11,11),(
    1.,2.),.PIECEWISE_BEZIER_KNOTS.);
#1041 = CARTESIAN_POINT('',(2.,-1.904018316131,-24.73700282115));
#1042 = CARTESIAN_POINT('',(2.439822952401,-1.904018316131,
    -24.73700282115));
#1043 = CARTESIAN_POINT('',(2.879645904801,-1.837780475694,
    -24.87550558401));
#1044 = CARTESIAN_POINT('',(3.259179234838,-1.705303153718,
    -25.15251454128));
#1045 = CARTESIAN_POINT('',(3.518130620392,-1.518267728851,
    -25.54360402919));
#1046 = CARTESIAN_POINT('',(3.610387030867,-1.300000000001,-26.));
#1047 = CARTESIAN_POINT('',(3.518130620392,-1.081732271148,
    -26.4563959708));
#1048 = CARTESIAN_POINT('',(3.259179234838,-0.894696846282,
    -26.84748545872));
#1049 = CARTESIAN_POINT('',(2.879645904801,-0.762219524306,
    -27.12449441598));
#1050 = CARTESIAN_POINT('',(2.439822971503,-0.695981683869,
    -27.26299717884));
#1051 = CARTESIAN_POINT('',(2.,-0.695981683869,-27.26299717884));
#1052 = PCURVE('',#743,#1053);
#1053 = DEFINITIONAL_REPRESENTATION('',(#1054),#1066);
#1054 = B_SPLINE_CURVE_WITH_KNOTS('',10,(#1055,#1056,#1057,#1058,#1059,
    #1060,#1061,#1062,#1063,#1064,#1065),.UNSPECIFIED.,.F.,.F.,(11,11),(
    1.,2.),.PIECEWISE_BEZIER_KNOTS.);
#1055 = CARTESIAN_POINT('',(-2.8,-5.048709793414E-29));
#1056 = CARTESIAN_POINT('',(-2.8,-0.439822952401));
#1057 = CARTESIAN_POINT('',(-2.646473237426,-0.879645904801));
#1058 = CARTESIAN_POINT('',(-2.339415908507,-1.259179234838));
#1059 = CARTESIAN_POINT('',(-1.905903235438,-1.518130620392));
#1060 = CARTESIAN_POINT('',(-1.399999999998,-1.610387030867));
#1061 = CARTESIAN_POINT('',(-0.894096764566,-1.518130620392));
#1062 = CARTESIAN_POINT('',(-0.46058409149,-1.259179234838));
#1063 = CARTESIAN_POINT('',(-0.153526762575,-0.879645904801));
#1064 = CARTESIAN_POINT('',(-1.570243918393E-13,-0.439822971503));
#1065 = CARTESIAN_POINT('',(0.,0.));
#1066 = ( GEOMETRIC_REPRESENTATION_CONTEXT(2) 
PARAMETRIC_REPRESENTATION_CONTEXT() REPRESENTATION_CONTEXT('2D SPACE',''
  ) );
#1067 = PCURVE('',#787,#1068);
#1068 = DEFINITIONAL_REPRESENTATION('',(#1069),#1073);
#1069 = LINE('',#1070,#1071);
#1070 = CARTESIAN_POINT('',(0.,0.));
#1071 = VECTOR('',#1072,1.);
#1072 = DIRECTION('',(1.,0.));
#1073 = ( GEOMETRIC_REPRESENTATION_CONTEXT(2) 
PARAMETRIC_REPRESENTATION_CONTEXT() REPRESENTATION_CONTEXT('2D SPACE',''
  ) );
#1074 = ADVANCED_FACE('',(#1075),#787,.F.);
#1075 = FACE_BOUND('',#1076,.F.);
#1076 = EDGE_LOOP('',(#1077,#1078,#1079,#1131));
#1077 = ORIENTED_EDGE('',*,*,#1038,.T.);
#1078 = ORIENTED_EDGE('',*,*,#1005,.T.);
#1079 = ORIENTED_EDGE('',*,*,#1080,.F.);
#1080 = EDGE_CURVE('',#764,#964,#1081,.T.);
#1081 = SURFACE_CURVE('',#1082,(#1094,#1101),.PCURVE_S1.);
#1082 = B_SPLINE_CURVE_WITH_KNOTS('',10,(#1083,#1084,#1085,#1086,#1087,
    #1088,#1089,#1090,#1091,#1092,#1093),.UNSPECIFIED.,.F.,.F.,(11,11),(
    1.,2.),.PIECEWISE_BEZIER_KNOTS.);
#1083 = CARTESIAN_POINT('',(2.,-1.308118023631,-35.85526901646));
#1084 = CARTESIAN_POINT('',(2.194778744523,-1.308118023631,
    -35.85526901646));
#1085 = CARTESIAN_POINT('',(2.389559285822,-1.252396798507,
    -35.81630951507));
#1086 = CARTESIAN_POINT('',(2.557628356654,-1.140952967714,
    -35.73838954705));
#1087 = CARTESIAN_POINT('',(2.67233247824,-0.983613251527,
    -35.62837981777));
#1088 = CARTESIAN_POINT('',(2.713149190863,-0.8,-35.5));
#1089 = CARTESIAN_POINT('',(2.672332478241,-0.616386748473,
    -35.37162018222));
#1090 = CARTESIAN_POINT('',(2.557628356654,-0.459047032286,
    -35.26161045295));
#1091 = CARTESIAN_POINT('',(2.389559285822,-0.347603201493,
    -35.18369048492));
#1092 = CARTESIAN_POINT('',(2.194778744523,-0.291881976369,
    -35.14473098353));
#1093 = CARTESIAN_POINT('',(2.,-0.291881976369,-35.14473098353));
#1094 = PCURVE('',#787,#1095);
#1095 = DEFINITIONAL_REPRESENTATION('',(#1096),#1100);
#1096 = LINE('',#1097,#1098);
#1097 = CARTESIAN_POINT('',(0.,1.));
#1098 = VECTOR('',#1099,1.);
#1099 = DIRECTION('',(1.,0.));
#1100 = ( GEOMETRIC_REPRESENTATION_CONTEXT(2) 
PARAMETRIC_REPRESENTATION_CONTEXT() REPRESENTATION_CONTEXT('2D SPACE',''
  ) );
#1101 = PCURVE('',#940,#1102);
#1102 = DEFINITIONAL_REPRESENTATION('',(#1103),#1130);
#1103 = B_SPLINE_CURVE_WITH_KNOTS('',9,(#1104,#1105,#1106,#1107,#1108,
    #1109,#1110,#1111,#1112,#1113,#1114,#1115,#1116,#1117,#1118,#1119,
    #1120,#1121,#1122,#1123,#1124,#1125,#1126,#1127,#1128,#1129),
  .UNSPECIFIED.,.F.,.F.,(10,8,8,10),(1.,1.25,1.625,2.),.UNSPECIFIED.);
#1104 = CARTESIAN_POINT('',(-4.712388980385,-0.610179457291));
#1105 = CARTESIAN_POINT('',(-4.605907406625,-0.610179457291));
#1106 = CARTESIAN_POINT('',(-4.499427678614,-0.604189756953));
#1107 = CARTESIAN_POINT('',(-4.394083987483,-0.592207761953));
#1108 = CARTESIAN_POINT('',(-4.291056476135,-0.574455084969));
#1109 = CARTESIAN_POINT('',(-4.191218217083,-0.551365671644));
#1110 = CARTESIAN_POINT('',(-4.095026482512,-0.523506488216));
#1111 = CARTESIAN_POINT('',(-4.002572621073,-0.491479575313));
#1112 = CARTESIAN_POINT('',(-3.913704855945,-0.455854272404));
#1113 = CARTESIAN_POINT('',(-3.699788512804,-0.359164634937));
#1114 = CARTESIAN_POINT('',(-3.578864072269,-0.29428417405));
#1115 = CARTESIAN_POINT('',(-3.464382586779,-0.224382503511));
#1116 = CARTESIAN_POINT('',(-3.354603406794,-0.151101157899));
#1117 = CARTESIAN_POINT('',(-3.247709085552,-7.582108202395E-02));
#1118 = CARTESIAN_POINT('',(-3.141974173248,2.575350467895E-04));
#1119 = CARTESIAN_POINT('',(-3.035679429122,7.597070944954E-02));
#1120 = CARTESIAN_POINT('',(-2.927029517158,0.150053168569));
#1121 = CARTESIAN_POINT('',(-2.701634985164,0.29210620495));
#1122 = CARTESIAN_POINT('',(-2.584887553326,0.360075461396));
#1123 = CARTESIAN_POINT('',(-2.462418072868,0.423560128695));
#1124 = CARTESIAN_POINT('',(-2.3325228744,0.480945085979));
#1125 = CARTESIAN_POINT('',(-2.194161329724,0.530391066781));
#1126 = CARTESIAN_POINT('',(-2.046107977509,0.569750756731));
#1127 = CARTESIAN_POINT('',(-1.890239355414,0.596700871382));
#1128 = CARTESIAN_POINT('',(-1.730518687434,0.610179457291));
#1129 = CARTESIAN_POINT('',(-1.570796326795,0.610179457291));
#1130 = ( GEOMETRIC_REPRESENTATION_CONTEXT(2) 
PARAMETRIC_REPRESENTATION_CONTEXT() REPRESENTATION_CONTEXT('2D SPACE',''
  ) );
#1131 = ORIENTED_EDGE('',*,*,#763,.F.);
#1132 = ADVANCED_FACE('',(#1133),#940,.T.);
#1133 = FACE_BOUND('',#1134,.F.);
#1134 = EDGE_LOOP('',(#1135,#1136,#1160,#1161,#1162));
#1135 = ORIENTED_EDGE('',*,*,#963,.T.);
#1136 = ORIENTED_EDGE('',*,*,#1137,.F.);
#1137 = EDGE_CURVE('',#1138,#917,#1140,.T.);
#1138 = VERTEX_POINT('',#1139);
#1139 = CARTESIAN_POINT('',(2.,-0.8,-36.12));
#1140 = SEAM_CURVE('',#1141,(#1146,#1153),.PCURVE_S1.);
#1141 = CIRCLE('',#1142,0.62);
#1142 = AXIS2_PLACEMENT_3D('',#1143,#1144,#1145);
#1143 = CARTESIAN_POINT('',(2.,-0.8,-35.5));
#1144 = DIRECTION('',(-2.449293598295E-16,1.,0.));
#1145 = DIRECTION('',(-1.,-2.449293598295E-16,-0.));
#1146 = PCURVE('',#940,#1147);
#1147 = DEFINITIONAL_REPRESENTATION('',(#1148),#1152);
#1148 = LINE('',#1149,#1150);
#1149 = CARTESIAN_POINT('',(-6.28318530718,-6.28318530718));
#1150 = VECTOR('',#1151,1.);
#1151 = DIRECTION('',(-0.,1.));
#1152 = ( GEOMETRIC_REPRESENTATION_CONTEXT(2) 
PARAMETRIC_REPRESENTATION_CONTEXT() REPRESENTATION_CONTEXT('2D SPACE',''
  ) );
#1153 = PCURVE('',#940,#1154);
#1154 = DEFINITIONAL_REPRESENTATION('',(#1155),#1159);
#1155 = LINE('',#1156,#1157);
#1156 = CARTESIAN_POINT('',(-0.,-6.28318530718));
#1157 = VECTOR('',#1158,1.);
#1158 = DIRECTION('',(-0.,1.));
#1159 = ( GEOMETRIC_REPRESENTATION_CONTEXT(2) 
PARAMETRIC_REPRESENTATION_CONTEXT() REPRESENTATION_CONTEXT('2D SPACE',''
  ) );
#1160 = ORIENTED_EDGE('',*,*,#1137,.T.);
#1161 = ORIENTED_EDGE('',*,*,#916,.T.);
#1162 = ORIENTED_EDGE('',*,*,#1080,.T.);
#1163 = ( GEOMETRIC_REPRESENTATION_CONTEXT(3) 
GLOBAL_UNCERTAINTY_ASSIGNED_CONTEXT((#1167)) 
GLOBAL_UNIT_ASSIGNED_CONTEXT((#1164,#1165,#1166)) REPRESENTATION_CONTEXT
('Context #1','3D Context with UNIT and UNCERTAINTY') );
#1164 = ( LENGTH_UNIT() NAMED_UNIT(*) SI_UNIT(.MILLI.,.METRE.) );
#1165 = ( NAMED_UNIT(*) PLANE_ANGLE_UNIT() SI_UNIT($,.RADIAN.) );
#1166 = ( NAMED_UNIT(*) SI_UNIT($,.STERADIAN.) SOLID_ANGLE_UNIT() );
#1167 = UNCERTAINTY_MEASURE_WITH_UNIT(LENGTH_MEASURE(2.E-07),#1164,
  'distance_accuracy_value','confusion accuracy');
#1168 = PRODUCT_RELATED_PRODUCT_CATEGORY('part',$,(#7));
ENDSEC;
END-ISO-10303-21;
