ISO-10303-21;
HEADER;
FILE_DESCRIPTION(('Open CASCADE Model'),'2;1');
FILE_NAME('Open CASCADE Shape Model','2026-10-06T00:54:08',('Author'),(
    'Open CASCADE'),'Open CASCADE STEP processor 8.0','build123d',
  'Unknown');
FILE_SCHEMA(('AUTOMOTIVE_DESIGN { 1 0 10303 214 1 1 1 1 }'));
ENDSEC;
DATA;
#1 = APPLICATION_PROTOCOL_DEFINITION('international standard',
  'automotive_design',2000,#2);
#2 = APPLICATION_CONTEXT(
  'core data for automotive mechanical design processes');
#3 = SHAPE_DEFINITION_REPRESENTATION(#4,#10);
#4 = PRODUCT_DEFINITION_SHAPE('','',#5);
#5 = PRODUCT_DEFINITION('design','',#6,#9);
#6 = PRODUCT_DEFINITION_FORMATION('','',#7);
#7 = PRODUCT('COMPOUND','COMPOUND','',(#8));
#8 = PRODUCT_CONTEXT('',#2,'mechanical');
#9 = PRODUCT_DEFINITION_CONTEXT('part definition',#2,'design');
#10 = ADVANCED_BREP_SHAPE_REPRESENTATION('',(#11,#15),#408);
#11 = AXIS2_PLACEMENT_3D('',#12,#13,#14);
#12 = CARTESIAN_POINT('',(0.,0.,0.));
#13 = DIRECTION('',(0.,0.,1.));
#14 = DIRECTION('',(1.,0.,-0.));
#15 = MANIFOLD_SOLID_BREP('',#16);
#16 = CLOSED_SHELL('',(#17,#124,#188,#249,#308,#347,#401));
#17 = ADVANCED_FACE('',(#18),#31,.F.);
#18 = FACE_BOUND('',#19,.F.);
#19 = EDGE_LOOP('',(#20,#67,#96,#123));
#20 = ORIENTED_EDGE('',*,*,#21,.T.);
#21 = EDGE_CURVE('',#22,#22,#24,.T.);
#22 = VERTEX_POINT('',#23);
#23 = CARTESIAN_POINT('',(-11.62605933398,3.607127730514,7.667764074931)
  );
#24 = SURFACE_CURVE('',#25,(#30,#51),.PCURVE_S1.);
#25 = CIRCLE('',#26,3.8);
#26 = AXIS2_PLACEMENT_3D('',#27,#28,#29);
#27 = CARTESIAN_POINT('',(-12.5613496701,4.119310533626,4.020449890033)
  );
#28 = DIRECTION('',(-0.841854120847,0.461015351893,0.280618040282));
#29 = DIRECTION('',(0.246129035821,-0.134784948188,0.959819522342));
#30 = PCURVE('',#31,#45);
#31 = SURFACE_OF_REVOLUTION('',#32,#42);
#32 = B_SPLINE_CURVE_WITH_KNOTS('',3,(#33,#34,#35,#36,#37,#38,#39,#40,
    #41),.UNSPECIFIED.,.F.,.F.,(4,1,1,1,1,1,4),(0.,1.244226667453,
    2.714774897977,4.347146848623,6.154398780788,7.880247192735,
    8.844955244795),.UNSPECIFIED.);
#33 = CARTESIAN_POINT('',(-11.62605933398,3.607127730514,7.667764074931)
  );
#34 = CARTESIAN_POINT('',(-11.48393680208,3.529298724953,8.076674646966)
  );
#35 = CARTESIAN_POINT('',(-10.97681097478,3.251586962382,8.789338708961)
  );
#36 = CARTESIAN_POINT('',(-9.727386592049,2.567378371836,9.358400404053)
  );
#37 = CARTESIAN_POINT('',(-8.27459957028,1.771804526582,9.117977934829)
  );
#38 = CARTESIAN_POINT('',(-6.846790848664,0.989909274268,8.510410564895)
  );
#39 = CARTESIAN_POINT('',(-5.805924936712,0.419911274866,7.554018801504)
  );
#40 = CARTESIAN_POINT('',(-5.300848241836,0.143321656243,6.862521634057)
  );
#41 = CARTESIAN_POINT('',(-5.137368288979,5.379692015507E-02,
    6.601087639479));
#42 = AXIS1_PLACEMENT('',#43,#44);
#43 = CARTESIAN_POINT('',(-12.5613496701,4.119310533626,4.020449890033)
  );
#44 = DIRECTION('',(-0.841854120847,0.461015351893,0.280618040282));
#45 = DEFINITIONAL_REPRESENTATION('',(#46),#50);
#46 = LINE('',#47,#48);
#47 = CARTESIAN_POINT('',(0.,0.));
#48 = VECTOR('',#49,1.);
#49 = DIRECTION('',(1.,0.));
#50 = ( GEOMETRIC_REPRESENTATION_CONTEXT(2) 
PARAMETRIC_REPRESENTATION_CONTEXT() REPRESENTATION_CONTEXT('2D SPACE',''
  ) );
#51 = PCURVE('',#52,#57);
#52 = PLANE('',#53);
#53 = AXIS2_PLACEMENT_3D('',#54,#55,#56);
#54 = CARTESIAN_POINT('',(-12.5613496701,4.119310533626,4.020449890033)
  );
#55 = DIRECTION('',(0.841854120847,-0.461015351893,-0.280618040282));
#56 = DIRECTION('',(-0.246129035821,0.134784948188,-0.959819522342));
#57 = DEFINITIONAL_REPRESENTATION('',(#58),#66);
#58 = ( BOUNDED_CURVE() B_SPLINE_CURVE(2,(#59,#60,#61,#62,#63,#64,#65),
.UNSPECIFIED.,.T.,.F.) B_SPLINE_CURVE_WITH_KNOTS((1,2,2,2,2,1),(
    -2.094395102393,0.,2.094395102393,4.188790204786,6.28318530718,
8.377580409573),.UNSPECIFIED.) CURVE() GEOMETRIC_REPRESENTATION_ITEM() 
RATIONAL_B_SPLINE_CURVE((1.,0.5,1.,0.5,1.,0.5,1.)) REPRESENTATION_ITEM(
  '') );
#59 = CARTESIAN_POINT('',(-3.8,-1.054711873394E-16));
#60 = CARTESIAN_POINT('',(-3.8,6.581793068762));
#61 = CARTESIAN_POINT('',(1.9,3.290896534381));
#62 = CARTESIAN_POINT('',(7.6,1.141673942031E-15));
#63 = CARTESIAN_POINT('',(1.9,-3.290896534381));
#64 = CARTESIAN_POINT('',(-3.8,-6.581793068762));
#65 = CARTESIAN_POINT('',(-3.8,-1.054711873394E-16));
#66 = ( GEOMETRIC_REPRESENTATION_CONTEXT(2) 
PARAMETRIC_REPRESENTATION_CONTEXT() REPRESENTATION_CONTEXT('2D SPACE',''
  ) );
#67 = ORIENTED_EDGE('',*,*,#68,.T.);
#68 = EDGE_CURVE('',#22,#69,#71,.T.);
#69 = VERTEX_POINT('',#70);
#70 = CARTESIAN_POINT('',(-5.137368288979,5.379692015507E-02,
    6.601087639479));
#71 = SEAM_CURVE('',#72,(#82,#89),.PCURVE_S1.);
#72 = B_SPLINE_CURVE_WITH_KNOTS('',3,(#73,#74,#75,#76,#77,#78,#79,#80,
    #81),.UNSPECIFIED.,.F.,.F.,(4,1,1,1,1,1,4),(0.,1.244226667453,
    2.714774897977,4.347146848623,6.154398780788,7.880247192735,
    8.844955244795),.UNSPECIFIED.);
#73 = CARTESIAN_POINT('',(-11.62605933398,3.607127730514,7.667764074931)
  );
#74 = CARTESIAN_POINT('',(-11.48393680208,3.529298724953,8.076674646966)
  );
#75 = CARTESIAN_POINT('',(-10.97681097478,3.251586962382,8.789338708961)
  );
#76 = CARTESIAN_POINT('',(-9.727386592049,2.567378371836,9.358400404053)
  );
#77 = CARTESIAN_POINT('',(-8.27459957028,1.771804526582,9.117977934829)
  );
#78 = CARTESIAN_POINT('',(-6.846790848664,0.989909274268,8.510410564895)
  );
#79 = CARTESIAN_POINT('',(-5.805924936712,0.419911274866,7.554018801504)
  );
#80 = CARTESIAN_POINT('',(-5.300848241836,0.143321656243,6.862521634057)
  );
#81 = CARTESIAN_POINT('',(-5.137368288979,5.379692015507E-02,
    6.601087639479));
#82 = PCURVE('',#31,#83);
#83 = DEFINITIONAL_REPRESENTATION('',(#84),#88);
#84 = LINE('',#85,#86);
#85 = CARTESIAN_POINT('',(0.,0.));
#86 = VECTOR('',#87,1.);
#87 = DIRECTION('',(0.,1.));
#88 = ( GEOMETRIC_REPRESENTATION_CONTEXT(2) 
PARAMETRIC_REPRESENTATION_CONTEXT() REPRESENTATION_CONTEXT('2D SPACE',''
  ) );
#89 = PCURVE('',#31,#90);
#90 = DEFINITIONAL_REPRESENTATION('',(#91),#95);
#91 = LINE('',#92,#93);
#92 = CARTESIAN_POINT('',(6.28318530718,0.));
#93 = VECTOR('',#94,1.);
#94 = DIRECTION('',(0.,1.));
#95 = ( GEOMETRIC_REPRESENTATION_CONTEXT(2) 
PARAMETRIC_REPRESENTATION_CONTEXT() REPRESENTATION_CONTEXT('2D SPACE',''
  ) );
#96 = ORIENTED_EDGE('',*,*,#97,.F.);
#97 = EDGE_CURVE('',#69,#69,#98,.T.);
#98 = SURFACE_CURVE('',#99,(#104,#111),.PCURVE_S1.);
#99 = CIRCLE('',#100,4.852173913043);
#100 = AXIS2_PLACEMENT_3D('',#101,#102,#103);
#101 = CARTESIAN_POINT('',(-6.331629175831,0.707796929621,1.943876391944
    ));
#102 = DIRECTION('',(-0.841854120847,0.461015351893,0.280618040282));
#103 = DIRECTION('',(0.246129035821,-0.134784948188,0.959819522342));
#104 = PCURVE('',#31,#105);
#105 = DEFINITIONAL_REPRESENTATION('',(#106),#110);
#106 = LINE('',#107,#108);
#107 = CARTESIAN_POINT('',(0.,8.844955244795));
#108 = VECTOR('',#109,1.);
#109 = DIRECTION('',(1.,0.));
#110 = ( GEOMETRIC_REPRESENTATION_CONTEXT(2) 
PARAMETRIC_REPRESENTATION_CONTEXT() REPRESENTATION_CONTEXT('2D SPACE',''
  ) );
#111 = PCURVE('',#112,#117);
#112 = CONICAL_SURFACE('',#113,4.852173913043,1.179828792846);
#113 = AXIS2_PLACEMENT_3D('',#114,#115,#116);
#114 = CARTESIAN_POINT('',(-6.331629175831,0.707796929621,1.943876391944
    ));
#115 = DIRECTION('',(0.841854120847,-0.461015351893,-0.280618040282));
#116 = DIRECTION('',(0.246129035821,-0.134784948188,0.959819522342));
#117 = DEFINITIONAL_REPRESENTATION('',(#118),#122);
#118 = LINE('',#119,#120);
#119 = CARTESIAN_POINT('',(-0.,-0.));
#120 = VECTOR('',#121,1.);
#121 = DIRECTION('',(-1.,-0.));
#122 = ( GEOMETRIC_REPRESENTATION_CONTEXT(2) 
PARAMETRIC_REPRESENTATION_CONTEXT() REPRESENTATION_CONTEXT('2D SPACE',''
  ) );
#123 = ORIENTED_EDGE('',*,*,#68,.F.);
#124 = ADVANCED_FACE('',(#125),#112,.F.);
#125 = FACE_BOUND('',#126,.F.);
#126 = EDGE_LOOP('',(#127,#128,#151,#187));
#127 = ORIENTED_EDGE('',*,*,#97,.T.);
#128 = ORIENTED_EDGE('',*,*,#129,.T.);
#129 = EDGE_CURVE('',#69,#130,#132,.T.);
#130 = VERTEX_POINT('',#131);
#131 = CARTESIAN_POINT('',(-5.425165201833,0.21139999148,6.191490122782)
  );
#132 = SEAM_CURVE('',#133,(#137,#144),.PCURVE_S1.);
#133 = LINE('',#134,#135);
#134 = CARTESIAN_POINT('',(-5.137368288979,5.379692015507E-02,
    6.601087639479));
#135 = VECTOR('',#136,1.);
#136 = DIRECTION('',(-0.548372724431,0.300299349093,-0.780453493832));
#137 = PCURVE('',#112,#138);
#138 = DEFINITIONAL_REPRESENTATION('',(#139),#143);
#139 = LINE('',#140,#141);
#140 = CARTESIAN_POINT('',(-0.,-0.));
#141 = VECTOR('',#142,1.);
#142 = DIRECTION('',(-0.,-1.));
#143 = ( GEOMETRIC_REPRESENTATION_CONTEXT(2) 
PARAMETRIC_REPRESENTATION_CONTEXT() REPRESENTATION_CONTEXT('2D SPACE',''
  ) );
#144 = PCURVE('',#112,#145);
#145 = DEFINITIONAL_REPRESENTATION('',(#146),#150);
#146 = LINE('',#147,#148);
#147 = CARTESIAN_POINT('',(-6.28318530718,-0.));
#148 = VECTOR('',#149,1.);
#149 = DIRECTION('',(-0.,-1.));
#150 = ( GEOMETRIC_REPRESENTATION_CONTEXT(2) 
PARAMETRIC_REPRESENTATION_CONTEXT() REPRESENTATION_CONTEXT('2D SPACE',''
  ) );
#151 = ORIENTED_EDGE('',*,*,#152,.F.);
#152 = EDGE_CURVE('',#130,#130,#153,.T.);
#153 = SURFACE_CURVE('',#154,(#159,#166),.PCURVE_S1.);
#154 = CIRCLE('',#155,4.366956521739);
#155 = AXIS2_PLACEMENT_3D('',#156,#157,#158);
#156 = CARTESIAN_POINT('',(-6.5,0.8,2.));
#157 = DIRECTION('',(-0.841854120847,0.461015351893,0.280618040282));
#158 = DIRECTION('',(0.246129035821,-0.134784948188,0.959819522342));
#159 = PCURVE('',#112,#160);
#160 = DEFINITIONAL_REPRESENTATION('',(#161),#165);
#161 = LINE('',#162,#163);
#162 = CARTESIAN_POINT('',(-0.,-0.2));
#163 = VECTOR('',#164,1.);
#164 = DIRECTION('',(-1.,-0.));
#165 = ( GEOMETRIC_REPRESENTATION_CONTEXT(2) 
PARAMETRIC_REPRESENTATION_CONTEXT() REPRESENTATION_CONTEXT('2D SPACE',''
  ) );
#166 = PCURVE('',#167,#181);
#167 = SURFACE_OF_REVOLUTION('',#168,#178);
#168 = B_SPLINE_CURVE_WITH_KNOTS('',3,(#169,#170,#171,#172,#173,#174,
    #175,#176,#177),.UNSPECIFIED.,.F.,.F.,(4,1,1,1,1,1,4),(0.,
    1.077822140758,2.5859267838,4.294658404176,5.739169464764,
    6.83903163176,7.931982494288),.UNSPECIFIED.);
#169 = CARTESIAN_POINT('',(-5.425165201833,0.21139999148,6.191490122782)
  );
#170 = CARTESIAN_POINT('',(-5.608579507741,0.311841159001,6.482734246943
    ));
#171 = CARTESIAN_POINT('',(-6.100082835441,0.580997743218,7.144104353377
    ));
#172 = CARTESIAN_POINT('',(-7.093879181811,1.125219551944,8.043695404882
    ));
#173 = CARTESIAN_POINT('',(-8.370365028224,1.824247515456,8.641810004141
    ));
#174 = CARTESIAN_POINT('',(-9.642674172511,2.520988237328,8.779757942166
    ));
#175 = CARTESIAN_POINT('',(-10.67111888407,3.0841841508,8.220613569755)
  );
#176 = CARTESIAN_POINT('',(-10.96721440119,3.246331695891,7.560596196878
    ));
#177 = CARTESIAN_POINT('',(-10.984322042,3.255700165861,7.141292883989)
  );
#178 = AXIS1_PLACEMENT('',#179,#180);
#179 = CARTESIAN_POINT('',(-12.5613496701,4.119310533626,4.020449890033)
  );
#180 = DIRECTION('',(-0.841854120847,0.461015351893,0.280618040282));
#181 = DEFINITIONAL_REPRESENTATION('',(#182),#186);
#182 = LINE('',#183,#184);
#183 = CARTESIAN_POINT('',(0.,0.));
#184 = VECTOR('',#185,1.);
#185 = DIRECTION('',(1.,0.));
#186 = ( GEOMETRIC_REPRESENTATION_CONTEXT(2) 
PARAMETRIC_REPRESENTATION_CONTEXT() REPRESENTATION_CONTEXT('2D SPACE',''
  ) );
#187 = ORIENTED_EDGE('',*,*,#129,.F.);
#188 = ADVANCED_FACE('',(#189),#167,.F.);
#189 = FACE_BOUND('',#190,.F.);
#190 = EDGE_LOOP('',(#191,#192,#221,#248));
#191 = ORIENTED_EDGE('',*,*,#152,.T.);
#192 = ORIENTED_EDGE('',*,*,#193,.T.);
#193 = EDGE_CURVE('',#130,#194,#196,.T.);
#194 = VERTEX_POINT('',#195);
#195 = CARTESIAN_POINT('',(-10.984322042,3.255700165861,7.141292883989)
  );
#196 = SEAM_CURVE('',#197,(#207,#214),.PCURVE_S1.);
#197 = B_SPLINE_CURVE_WITH_KNOTS('',3,(#198,#199,#200,#201,#202,#203,
    #204,#205,#206),.UNSPECIFIED.,.F.,.F.,(4,1,1,1,1,1,4),(0.,
    1.077822140758,2.5859267838,4.294658404176,5.739169464764,
    6.83903163176,7.931982494288),.UNSPECIFIED.);
#198 = CARTESIAN_POINT('',(-5.425165201833,0.21139999148,6.191490122782)
  );
#199 = CARTESIAN_POINT('',(-5.608579507741,0.311841159001,6.482734246943
    ));
#200 = CARTESIAN_POINT('',(-6.100082835441,0.580997743218,7.144104353377
    ));
#201 = CARTESIAN_POINT('',(-7.093879181811,1.125219551944,8.043695404882
    ));
#202 = CARTESIAN_POINT('',(-8.370365028224,1.824247515456,8.641810004141
    ));
#203 = CARTESIAN_POINT('',(-9.642674172511,2.520988237328,8.779757942166
    ));
#204 = CARTESIAN_POINT('',(-10.67111888407,3.0841841508,8.220613569755)
  );
#205 = CARTESIAN_POINT('',(-10.96721440119,3.246331695891,7.560596196878
    ));
#206 = CARTESIAN_POINT('',(-10.984322042,3.255700165861,7.141292883989)
  );
#207 = PCURVE('',#167,#208);
#208 = DEFINITIONAL_REPRESENTATION('',(#209),#213);
#209 = LINE('',#210,#211);
#210 = CARTESIAN_POINT('',(0.,0.));
#211 = VECTOR('',#212,1.);
#212 = DIRECTION('',(0.,1.));
#213 = ( GEOMETRIC_REPRESENTATION_CONTEXT(2) 
PARAMETRIC_REPRESENTATION_CONTEXT() REPRESENTATION_CONTEXT('2D SPACE',''
  ) );
#214 = PCURVE('',#167,#215);
#215 = DEFINITIONAL_REPRESENTATION('',(#216),#220);
#216 = LINE('',#217,#218);
#217 = CARTESIAN_POINT('',(6.28318530718,0.));
#218 = VECTOR('',#219,1.);
#219 = DIRECTION('',(0.,1.));
#220 = ( GEOMETRIC_REPRESENTATION_CONTEXT(2) 
PARAMETRIC_REPRESENTATION_CONTEXT() REPRESENTATION_CONTEXT('2D SPACE',''
  ) );
#221 = ORIENTED_EDGE('',*,*,#222,.F.);
#222 = EDGE_CURVE('',#194,#194,#223,.T.);
#223 = SURFACE_CURVE('',#224,(#229,#236),.PCURVE_S1.);
#224 = CIRCLE('',#225,3.5);
#225 = AXIS2_PLACEMENT_3D('',#226,#227,#228);
#226 = CARTESIAN_POINT('',(-11.84577366738,3.727447484518,3.781924555793
    ));
#227 = DIRECTION('',(-0.841854120847,0.461015351893,0.280618040282));
#228 = DIRECTION('',(0.246129035821,-0.134784948188,0.959819522342));
#229 = PCURVE('',#167,#230);
#230 = DEFINITIONAL_REPRESENTATION('',(#231),#235);
#231 = LINE('',#232,#233);
#232 = CARTESIAN_POINT('',(0.,7.931982494288));
#233 = VECTOR('',#234,1.);
#234 = DIRECTION('',(1.,0.));
#235 = ( GEOMETRIC_REPRESENTATION_CONTEXT(2) 
PARAMETRIC_REPRESENTATION_CONTEXT() REPRESENTATION_CONTEXT('2D SPACE',''
  ) );
#236 = PCURVE('',#237,#242);
#237 = CYLINDRICAL_SURFACE('',#238,3.5);
#238 = AXIS2_PLACEMENT_3D('',#239,#240,#241);
#239 = CARTESIAN_POINT('',(-11.84577366738,3.727447484518,3.781924555793
    ));
#240 = DIRECTION('',(0.841854120847,-0.461015351893,-0.280618040282));
#241 = DIRECTION('',(0.246129035821,-0.134784948188,0.959819522342));
#242 = DEFINITIONAL_REPRESENTATION('',(#243),#247);
#243 = LINE('',#244,#245);
#244 = CARTESIAN_POINT('',(-0.,0.));
#245 = VECTOR('',#246,1.);
#246 = DIRECTION('',(-1.,0.));
#247 = ( GEOMETRIC_REPRESENTATION_CONTEXT(2) 
PARAMETRIC_REPRESENTATION_CONTEXT() REPRESENTATION_CONTEXT('2D SPACE',''
  ) );
#248 = ORIENTED_EDGE('',*,*,#193,.F.);
#249 = ADVANCED_FACE('',(#250),#237,.T.);
#250 = FACE_BOUND('',#251,.F.);
#251 = EDGE_LOOP('',(#252,#253,#276,#307));
#252 = ORIENTED_EDGE('',*,*,#222,.T.);
#253 = ORIENTED_EDGE('',*,*,#254,.T.);
#254 = EDGE_CURVE('',#194,#255,#257,.T.);
#255 = VERTEX_POINT('',#256);
#256 = CARTESIAN_POINT('',(-6.817144143814,0.973674173993,5.752233584591
    ));
#257 = SEAM_CURVE('',#258,(#262,#269),.PCURVE_S1.);
#258 = LINE('',#259,#260);
#259 = CARTESIAN_POINT('',(-10.984322042,3.255700165861,7.141292883989)
  );
#260 = VECTOR('',#261,1.);
#261 = DIRECTION('',(0.841854120847,-0.461015351893,-0.280618040282));
#262 = PCURVE('',#237,#263);
#263 = DEFINITIONAL_REPRESENTATION('',(#264),#268);
#264 = LINE('',#265,#266);
#265 = CARTESIAN_POINT('',(-0.,0.));
#266 = VECTOR('',#267,1.);
#267 = DIRECTION('',(-0.,1.));
#268 = ( GEOMETRIC_REPRESENTATION_CONTEXT(2) 
PARAMETRIC_REPRESENTATION_CONTEXT() REPRESENTATION_CONTEXT('2D SPACE',''
  ) );
#269 = PCURVE('',#237,#270);
#270 = DEFINITIONAL_REPRESENTATION('',(#271),#275);
#271 = LINE('',#272,#273);
#272 = CARTESIAN_POINT('',(-6.28318530718,0.));
#273 = VECTOR('',#274,1.);
#274 = DIRECTION('',(-0.,1.));
#275 = ( GEOMETRIC_REPRESENTATION_CONTEXT(2) 
PARAMETRIC_REPRESENTATION_CONTEXT() REPRESENTATION_CONTEXT('2D SPACE',''
  ) );
#276 = ORIENTED_EDGE('',*,*,#277,.F.);
#277 = EDGE_CURVE('',#255,#255,#278,.T.);
#278 = SURFACE_CURVE('',#279,(#284,#291),.PCURVE_S1.);
#279 = CIRCLE('',#280,3.5);
#280 = AXIS2_PLACEMENT_3D('',#281,#282,#283);
#281 = CARTESIAN_POINT('',(-7.678595769186,1.44542149265,2.392865256395)
  );
#282 = DIRECTION('',(-0.841854120847,0.461015351893,0.280618040282));
#283 = DIRECTION('',(0.246129035821,-0.134784948188,0.959819522342));
#284 = PCURVE('',#237,#285);
#285 = DEFINITIONAL_REPRESENTATION('',(#286),#290);
#286 = LINE('',#287,#288);
#287 = CARTESIAN_POINT('',(-0.,4.95));
#288 = VECTOR('',#289,1.);
#289 = DIRECTION('',(-1.,0.));
#290 = ( GEOMETRIC_REPRESENTATION_CONTEXT(2) 
PARAMETRIC_REPRESENTATION_CONTEXT() REPRESENTATION_CONTEXT('2D SPACE',''
  ) );
#291 = PCURVE('',#292,#297);
#292 = PLANE('',#293);
#293 = AXIS2_PLACEMENT_3D('',#294,#295,#296);
#294 = CARTESIAN_POINT('',(-7.678595769186,1.44542149265,2.392865256395)
  );
#295 = DIRECTION('',(0.841854120847,-0.461015351893,-0.280618040282));
#296 = DIRECTION('',(-0.246129035821,0.134784948188,-0.959819522342));
#297 = DEFINITIONAL_REPRESENTATION('',(#298),#306);
#298 = ( BOUNDED_CURVE() B_SPLINE_CURVE(2,(#299,#300,#301,#302,#303,#304
,#305),.UNSPECIFIED.,.T.,.F.) B_SPLINE_CURVE_WITH_KNOTS((1,2,2,2,2,1),(
    -2.094395102393,0.,2.094395102393,4.188790204786,6.28318530718,
8.377580409573),.UNSPECIFIED.) CURVE() GEOMETRIC_REPRESENTATION_ITEM() 
RATIONAL_B_SPLINE_CURVE((1.,0.5,1.,0.5,1.,0.5,1.)) REPRESENTATION_ITEM(
  '') );
#299 = CARTESIAN_POINT('',(-3.5,-9.71445146547E-17));
#300 = CARTESIAN_POINT('',(-3.5,6.062177826491));
#301 = CARTESIAN_POINT('',(1.75,3.031088913246));
#302 = CARTESIAN_POINT('',(7.,1.051541788713E-15));
#303 = CARTESIAN_POINT('',(1.75,-3.031088913246));
#304 = CARTESIAN_POINT('',(-3.5,-6.062177826491));
#305 = CARTESIAN_POINT('',(-3.5,-9.71445146547E-17));
#306 = ( GEOMETRIC_REPRESENTATION_CONTEXT(2) 
PARAMETRIC_REPRESENTATION_CONTEXT() REPRESENTATION_CONTEXT('2D SPACE',''
  ) );
#307 = ORIENTED_EDGE('',*,*,#254,.F.);
#308 = ADVANCED_FACE('',(#309,#312),#292,.T.);
#309 = FACE_BOUND('',#310,.F.);
#310 = EDGE_LOOP('',(#311));
#311 = ORIENTED_EDGE('',*,*,#277,.T.);
#312 = FACE_BOUND('',#313,.F.);
#313 = EDGE_LOOP('',(#314));
#314 = ORIENTED_EDGE('',*,*,#315,.F.);
#315 = EDGE_CURVE('',#316,#316,#318,.T.);
#316 = VERTEX_POINT('',#317);
#317 = CARTESIAN_POINT('',(-6.984511888172,1.065327938761,5.099556309399
    ));
#318 = SURFACE_CURVE('',#319,(#324,#335),.PCURVE_S1.);
#319 = CIRCLE('',#320,2.82);
#320 = AXIS2_PLACEMENT_3D('',#321,#322,#323);
#321 = CARTESIAN_POINT('',(-7.678595769186,1.44542149265,2.392865256395)
  );
#322 = DIRECTION('',(-0.841854120847,0.461015351893,0.280618040282));
#323 = DIRECTION('',(0.246129035821,-0.134784948188,0.959819522342));
#324 = PCURVE('',#292,#325);
#325 = DEFINITIONAL_REPRESENTATION('',(#326),#334);
#326 = ( BOUNDED_CURVE() B_SPLINE_CURVE(2,(#327,#328,#329,#330,#331,#332
,#333),.UNSPECIFIED.,.T.,.F.) B_SPLINE_CURVE_WITH_KNOTS((1,2,2,2,2,1),(
    -2.094395102393,0.,2.094395102393,4.188790204786,6.28318530718,
8.377580409573),.UNSPECIFIED.) CURVE() GEOMETRIC_REPRESENTATION_ITEM() 
RATIONAL_B_SPLINE_CURVE((1.,0.5,1.,0.5,1.,0.5,1.)) REPRESENTATION_ITEM(
  '') );
#327 = CARTESIAN_POINT('',(-2.82,-7.827072323607E-17));
#328 = CARTESIAN_POINT('',(-2.82,4.884383277344));
#329 = CARTESIAN_POINT('',(1.41,2.442191638672));
#330 = CARTESIAN_POINT('',(5.64,8.472422411913E-16));
#331 = CARTESIAN_POINT('',(1.41,-2.442191638672));
#332 = CARTESIAN_POINT('',(-2.82,-4.884383277344));
#333 = CARTESIAN_POINT('',(-2.82,-7.827072323607E-17));
#334 = ( GEOMETRIC_REPRESENTATION_CONTEXT(2) 
PARAMETRIC_REPRESENTATION_CONTEXT() REPRESENTATION_CONTEXT('2D SPACE',''
  ) );
#335 = PCURVE('',#336,#341);
#336 = CYLINDRICAL_SURFACE('',#337,2.82);
#337 = AXIS2_PLACEMENT_3D('',#338,#339,#340);
#338 = CARTESIAN_POINT('',(-7.678595769186,1.44542149265,2.392865256395)
  );
#339 = DIRECTION('',(-0.841854120847,0.461015351893,0.280618040282));
#340 = DIRECTION('',(0.246129035821,-0.134784948188,0.959819522342));
#341 = DEFINITIONAL_REPRESENTATION('',(#342),#346);
#342 = LINE('',#343,#344);
#343 = CARTESIAN_POINT('',(0.,0.));
#344 = VECTOR('',#345,1.);
#345 = DIRECTION('',(1.,0.));
#346 = ( GEOMETRIC_REPRESENTATION_CONTEXT(2) 
PARAMETRIC_REPRESENTATION_CONTEXT() REPRESENTATION_CONTEXT('2D SPACE',''
  ) );
#347 = ADVANCED_FACE('',(#348),#336,.F.);
#348 = FACE_BOUND('',#349,.F.);
#349 = EDGE_LOOP('',(#350,#351,#374,#400));
#350 = ORIENTED_EDGE('',*,*,#315,.T.);
#351 = ORIENTED_EDGE('',*,*,#352,.T.);
#352 = EDGE_CURVE('',#316,#353,#355,.T.);
#353 = VERTEX_POINT('',#354);
#354 = CARTESIAN_POINT('',(-11.86726578908,3.739216979737,6.727140943037
    ));
#355 = SEAM_CURVE('',#356,(#360,#367),.PCURVE_S1.);
#356 = LINE('',#357,#358);
#357 = CARTESIAN_POINT('',(-6.984511888172,1.065327938761,5.099556309399
    ));
#358 = VECTOR('',#359,1.);
#359 = DIRECTION('',(-0.841854120847,0.461015351893,0.280618040282));
#360 = PCURVE('',#336,#361);
#361 = DEFINITIONAL_REPRESENTATION('',(#362),#366);
#362 = LINE('',#363,#364);
#363 = CARTESIAN_POINT('',(0.,0.));
#364 = VECTOR('',#365,1.);
#365 = DIRECTION('',(0.,1.));
#366 = ( GEOMETRIC_REPRESENTATION_CONTEXT(2) 
PARAMETRIC_REPRESENTATION_CONTEXT() REPRESENTATION_CONTEXT('2D SPACE',''
  ) );
#367 = PCURVE('',#336,#368);
#368 = DEFINITIONAL_REPRESENTATION('',(#369),#373);
#369 = LINE('',#370,#371);
#370 = CARTESIAN_POINT('',(6.28318530718,0.));
#371 = VECTOR('',#372,1.);
#372 = DIRECTION('',(0.,1.));
#373 = ( GEOMETRIC_REPRESENTATION_CONTEXT(2) 
PARAMETRIC_REPRESENTATION_CONTEXT() REPRESENTATION_CONTEXT('2D SPACE',''
  ) );
#374 = ORIENTED_EDGE('',*,*,#375,.F.);
#375 = EDGE_CURVE('',#353,#353,#376,.T.);
#376 = SURFACE_CURVE('',#377,(#382,#389),.PCURVE_S1.);
#377 = CIRCLE('',#378,2.82);
#378 = AXIS2_PLACEMENT_3D('',#379,#380,#381);
#379 = CARTESIAN_POINT('',(-12.5613496701,4.119310533626,4.020449890033)
  );
#380 = DIRECTION('',(-0.841854120847,0.461015351893,0.280618040282));
#381 = DIRECTION('',(0.246129035821,-0.134784948188,0.959819522342));
#382 = PCURVE('',#336,#383);
#383 = DEFINITIONAL_REPRESENTATION('',(#384),#388);
#384 = LINE('',#385,#386);
#385 = CARTESIAN_POINT('',(0.,5.8));
#386 = VECTOR('',#387,1.);
#387 = DIRECTION('',(1.,0.));
#388 = ( GEOMETRIC_REPRESENTATION_CONTEXT(2) 
PARAMETRIC_REPRESENTATION_CONTEXT() REPRESENTATION_CONTEXT('2D SPACE',''
  ) );
#389 = PCURVE('',#52,#390);
#390 = DEFINITIONAL_REPRESENTATION('',(#391),#399);
#391 = ( BOUNDED_CURVE() B_SPLINE_CURVE(2,(#392,#393,#394,#395,#396,#397
,#398),.UNSPECIFIED.,.T.,.F.) B_SPLINE_CURVE_WITH_KNOTS((1,2,2,2,2,1),(
    -2.094395102393,0.,2.094395102393,4.188790204786,6.28318530718,
8.377580409573),.UNSPECIFIED.) CURVE() GEOMETRIC_REPRESENTATION_ITEM() 
RATIONAL_B_SPLINE_CURVE((1.,0.5,1.,0.5,1.,0.5,1.)) REPRESENTATION_ITEM(
  '') );
#392 = CARTESIAN_POINT('',(-2.82,-7.827072323607E-17));
#393 = CARTESIAN_POINT('',(-2.82,4.884383277344));
#394 = CARTESIAN_POINT('',(1.41,2.442191638672));
#395 = CARTESIAN_POINT('',(5.64,8.472422411913E-16));
#396 = CARTESIAN_POINT('',(1.41,-2.442191638672));
#397 = CARTESIAN_POINT('',(-2.82,-4.884383277344));
#398 = CARTESIAN_POINT('',(-2.82,-7.827072323607E-17));
#399 = ( GEOMETRIC_REPRESENTATION_CONTEXT(2) 
PARAMETRIC_REPRESENTATION_CONTEXT() REPRESENTATION_CONTEXT('2D SPACE',''
  ) );
#400 = ORIENTED_EDGE('',*,*,#352,.F.);
#401 = ADVANCED_FACE('',(#402,#405),#52,.F.);
#402 = FACE_BOUND('',#403,.F.);
#403 = EDGE_LOOP('',(#404));
#404 = ORIENTED_EDGE('',*,*,#375,.T.);
#405 = FACE_BOUND('',#406,.F.);
#406 = EDGE_LOOP('',(#407));
#407 = ORIENTED_EDGE('',*,*,#21,.F.);
#408 = ( GEOMETRIC_REPRESENTATION_CONTEXT(3) 
GLOBAL_UNCERTAINTY_ASSIGNED_CONTEXT((#412)) GLOBAL_UNIT_ASSIGNED_CONTEXT
((#409,#410,#411)) REPRESENTATION_CONTEXT('Context #1',
  '3D Context with UNIT and UNCERTAINTY') );
#409 = ( LENGTH_UNIT() NAMED_UNIT(*) SI_UNIT(.MILLI.,.METRE.) );
#410 = ( NAMED_UNIT(*) PLANE_ANGLE_UNIT() SI_UNIT($,.RADIAN.) );
#411 = ( NAMED_UNIT(*) SI_UNIT($,.STERADIAN.) SOLID_ANGLE_UNIT() );
#412 = UNCERTAINTY_MEASURE_WITH_UNIT(LENGTH_MEASURE(1.E-07),#409,
  'distance_accuracy_value','confusion accuracy');
#413 = PRODUCT_RELATED_PRODUCT_CATEGORY('part',$,(#7));
ENDSEC;
END-ISO-10303-21;
