  0
SECTION
  2
HEADER
  9
$ACADVER
  1
AC1024
  9
$ACADMAINTVER
 70
6
  9
$DWGCODEPAGE
  3
ANSI_1252
  9
$LASTSAVEDBY
  1
ezdxf
  9
$INSBASE
 10
0.0
 20
0.0
 30
0.0
  9
$EXTMIN
 10
1e+20
 20
1e+20
 30
1e+20
  9
$EXTMAX
 10
-1e+20
 20
-1e+20
 30
-1e+20
  9
$LIMMIN
 10
0.0
 20
0.0
  9
$LIMMAX
 10
420.0
 20
297.0
  9
$ORTHOMODE
 70
0
  9
$REGENMODE
 70
1
  9
$FILLMODE
 70
1
  9
$QTEXTMODE
 70
0
  9
$MIRRTEXT
 70
1
  9
$LTSCALE
 40
1.0
  9
$ATTMODE
 70
1
  9
$TEXTSIZE
 40
2.5
  9
$TRACEWID
 40
1.0
  9
$TEXTSTYLE
  7
Standard
  9
$CLAYER
  8
0
  9
$CELTYPE
  6
ByLayer
  9
$CECOLOR
 62
256
  9
$CELTSCALE
 40
1.0
  9
$DISPSILH
 70
0
  9
$DIMSCALE
 40
1.0
  9
$DIMASZ
 40
2.5
  9
$DIMEXO
 40
0.625
  9
$DIMDLI
 40
3.75
  9
$DIMRND
 40
0.0
  9
$DIMDLE
 40
0.0
  9
$DIMEXE
 40
1.25
  9
$DIMTP
 40
0.0
  9
$DIMTM
 40
0.0
  9
$DIMTXT
 40
2.5
  9
$DIMCEN
 40
2.5
  9
$DIMTSZ
 40
0.0
  9
$DIMTOL
 70
0
  9
$DIMLIM
 70
0
  9
$DIMTIH
 70
0
  9
$DIMTOH
 70
0
  9
$DIMSE1
 70
0
  9
$DIMSE2
 70
0
  9
$DIMTAD
 70
1
  9
$DIMZIN
 70
8
  9
$DIMBLK
  1

  9
$DIMASO
 70
1
  9
$DIMSHO
 70
1
  9
$DIMPOST
  1

  9
$DIMAPOST
  1

  9
$DIMALT
 70
0
  9
$DIMALTD
 70
3
  9
$DIMALTF
 40
0.03937007874
  9
$DIMLFAC
 40
1.0
  9
$DIMTOFL
 70
1
  9
$DIMTVP
 40
0.0
  9
$DIMTIX
 70
0
  9
$DIMSOXD
 70
0
  9
$DIMSAH
 70
0
  9
$DIMBLK1
  1

  9
$DIMBLK2
  1

  9
$DIMSTYLE
  2
ISO-25
  9
$DIMCLRD
 70
0
  9
$DIMCLRE
 70
0
  9
$DIMCLRT
 70
0
  9
$DIMTFAC
 40
1.0
  9
$DIMGAP
 40
0.625
  9
$DIMJUST
 70
0
  9
$DIMSD1
 70
0
  9
$DIMSD2
 70
0
  9
$DIMTOLJ
 70
0
  9
$DIMTZIN
 70
8
  9
$DIMALTZ
 70
0
  9
$DIMALTTZ
 70
0
  9
$DIMUPT
 70
0
  9
$DIMDEC
 70
2
  9
$DIMTDEC
 70
2
  9
$DIMALTU
 70
2
  9
$DIMALTTD
 70
3
  9
$DIMTXSTY
  7
Standard
  9
$DIMAUNIT
 70
0
  9
$DIMADEC
 70
0
  9
$DIMALTRND
 40
0.0
  9
$DIMAZIN
 70
0
  9
$DIMDSEP
 70
44
  9
$DIMATFIT
 70
3
  9
$DIMFRAC
 70
0
  9
$DIMLDRBLK
  1

  9
$DIMLUNIT
 70
2
  9
$DIMLWD
 70
-2
  9
$DIMLWE
 70
-2
  9
$DIMTMOVE
 70
0
  9
$DIMFXL
 40
1.0
  9
$DIMFXLON
 70
0
  9
$DIMJOGANG
 40
0.785398163397
  9
$DIMTFILL
 70
0
  9
$DIMTFILLCLR
 70
0
  9
$DIMARCSYM
 70
0
  9
$DIMLTYPE
  6

  9
$DIMLTEX1
  6

  9
$DIMLTEX2
  6

  9
$DIMTXTDIRECTION
 70
0
  9
$LUNITS
 70
2
  9
$LUPREC
 70
4
  9
$SKETCHINC
 40
1.0
  9
$FILLETRAD
 40
10.0
  9
$AUNITS
 70
0
  9
$AUPREC
 70
2
  9
$MENU
  1
.
  9
$ELEVATION
 40
0.0
  9
$PELEVATION
 40
0.0
  9
$THICKNESS
 40
0.0
  9
$LIMCHECK
 70
0
  9
$CHAMFERA
 40
0.0
  9
$CHAMFERB
 40
0.0
  9
$CHAMFERC
 40
0.0
  9
$CHAMFERD
 40
0.0
  9
$SKPOLY
 70
0
  9
$TDCREATE
 40
2461324.762997685
  9
$TDUCREATE
 40
2458532.153996898
  9
$TDUPDATE
 40
2461324.762997685
  9
$TDUUPDATE
 40
2458532.1544311
  9
$TDINDWG
 40
0.0
  9
$TDUSRTIMER
 40
0.0
  9
$USRTIMER
 70
1
  9
$ANGBASE
 50
0.0
  9
$ANGDIR
 70
0
  9
$PDMODE
 70
0
  9
$PDSIZE
 40
0.0
  9
$PLINEWID
 40
0.0
  9
$SPLFRAME
 70
0
  9
$SPLINETYPE
 70
6
  9
$SPLINESEGS
 70
8
  9
$HANDSEED
  5
41
  9
$SURFTAB1
 70
6
  9
$SURFTAB2
 70
6
  9
$SURFTYPE
 70
6
  9
$SURFU
 70
6
  9
$SURFV
 70
6
  9
$UCSBASE
  2

  9
$UCSNAME
  2

  9
$UCSORG
 10
0.0
 20
0.0
 30
0.0
  9
$UCSXDIR
 10
1.0
 20
0.0
 30
0.0
  9
$UCSYDIR
 10
0.0
 20
1.0
 30
0.0
  9
$UCSORTHOREF
  2

  9
$UCSORTHOVIEW
 70
0
  9
$UCSORGTOP
 10
0.0
 20
0.0
 30
0.0
  9
$UCSORGBOTTOM
 10
0.0
 20
0.0
 30
0.0
  9
$UCSORGLEFT
 10
0.0
 20
0.0
 30
0.0
  9
$UCSORGRIGHT
 10
0.0
 20
0.0
 30
0.0
  9
$UCSORGFRONT
 10
0.0
 20
0.0
 30
0.0
  9
$UCSORGBACK
 10
0.0
 20
0.0
 30
0.0
  9
$PUCSBASE
  2

  9
$PUCSNAME
  2

  9
$PUCSORG
 10
0.0
 20
0.0
 30
0.0
  9
$PUCSXDIR
 10
1.0
 20
0.0
 30
0.0
  9
$PUCSYDIR
 10
0.0
 20
1.0
 30
0.0
  9
$PUCSORTHOREF
  2

  9
$PUCSORTHOVIEW
 70
0
  9
$PUCSORGTOP
 10
0.0
 20
0.0
 30
0.0
  9
$PUCSORGBOTTOM
 10
0.0
 20
0.0
 30
0.0
  9
$PUCSORGLEFT
 10
0.0
 20
0.0
 30
0.0
  9
$PUCSORGRIGHT
 10
0.0
 20
0.0
 30
0.0
  9
$PUCSORGFRONT
 10
0.0
 20
0.0
 30
0.0
  9
$PUCSORGBACK
 10
0.0
 20
0.0
 30
0.0
  9
$USERI1
 70
0
  9
$USERI2
 70
0
  9
$USERI3
 70
0
  9
$USERI4
 70
0
  9
$USERI5
 70
0
  9
$USERR1
 40
0.0
  9
$USERR2
 40
0.0
  9
$USERR3
 40
0.0
  9
$USERR4
 40
0.0
  9
$USERR5
 40
0.0
  9
$WORLDVIEW
 70
1
  9
$SHADEDGE
 70
3
  9
$SHADEDIF
 70
70
  9
$TILEMODE
 70
1
  9
$MAXACTVP
 70
64
  9
$PINSBASE
 10
0.0
 20
0.0
 30
0.0
  9
$PLIMCHECK
 70
0
  9
$PEXTMIN
 10
1e+20
 20
1e+20
 30
1e+20
  9
$PEXTMAX
 10
-1e+20
 20
-1e+20
 30
-1e+20
  9
$PLIMMIN
 10
0.0
 20
0.0
  9
$PLIMMAX
 10
420.0
 20
297.0
  9
$UNITMODE
 70
0
  9
$VISRETAIN
 70
1
  9
$PLINEGEN
 70
0
  9
$PSLTSCALE
 70
1
  9
$TREEDEPTH
 70
3020
  9
$CMLSTYLE
  2
Standard
  9
$CMLJUST
 70
0
  9
$CMLSCALE
 40
20.0
  9
$PROXYGRAPHICS
 70
1
  9
$MEASUREMENT
 70
1
  9
$CELWEIGHT
370
-1
  9
$ENDCAPS
280
0
  9
$JOINSTYLE
280
0
  9
$LWDISPLAY
290
0
  9
$INSUNITS
 70
4
  9
$HYPERLINKBASE
  1

  9
$STYLESHEET
  1

  9
$XEDIT
290
1
  9
$CEPSNTYPE
380
0
  9
$PSTYLEMODE
290
1
  9
$FINGERPRINTGUID
  2
{FC5F2FD3-7F85-4F75-8669-A8980BB54A4C}
  9
$VERSIONGUID
  2
{D6FA7F3E-25CF-4FF5-B4F8-F2B437AFD636}
  9
$EXTNAMES
290
1
  9
$PSVPSCALE
 40
0.0
  9
$OLESTARTUP
290
0
  9
$SORTENTS
280
127
  9
$INDEXCTL
280
0
  9
$HIDETEXT
280
1
  9
$XCLIPFRAME
280
1
  9
$HALOGAP
280
0
  9
$OBSCOLOR
 70
257
  9
$OBSLTYPE
280
0
  9
$INTERSECTIONDISPLAY
280
0
  9
$INTERSECTIONCOLOR
 70
257
  9
$DIMASSOC
280
2
  9
$PROJECTNAME
  1

  9
$CAMERADISPLAY
290
0
  9
$LENSLENGTH
 40
50.0
  9
$CAMERAHEIGHT
 40
0.0
  9
$STEPSPERSEC
 40
24.0
  9
$STEPSIZE
 40
100.0
  9
$3DDWFPREC
 40
2.0
  9
$PSOLWIDTH
 40
0.005
  9
$PSOLHEIGHT
 40
0.08
  9
$LOFTANG1
 40
1.570796326795
  9
$LOFTANG2
 40
1.570796326795
  9
$LOFTMAG1
 40
0.0
  9
$LOFTMAG2
 40
0.0
  9
$LOFTPARAM
 70
7
  9
$LOFTNORMALS
280
1
  9
$LATITUDE
 40
37.795
  9
$LONGITUDE
 40
-122.394
  9
$NORTHDIRECTION
 40
0.0
  9
$TIMEZONE
 70
-8000
  9
$LIGHTGLYPHDISPLAY
280
1
  9
$TILEMODELIGHTSYNCH
280
1
  9
$CMATERIAL
347
20
  9
$SOLIDHIST
280
0
  9
$SHOWHIST
280
1
  9
$DWFFRAME
280
2
  9
$DGNFRAME
280
2
  9
$REALWORLDSCALE
290
1
  9
$INTERFERECOLOR
 62
256
  9
$CSHADOW
280
0
  9
$SHADOWPLANELOCATION
 40
0.0
  0
ENDSEC
  0
SECTION
  2
CLASSES
  0
CLASS
  1
ACDBDICTIONARYWDFLT
  2
AcDbDictionaryWithDefault
  3
ObjectDBX Classes
 90
0
 91
0
280
0
281
0
  0
CLASS
  1
SUN
  2
AcDbSun
  3
SCENEOE
 90
1153
 91
0
280
0
281
0
  0
CLASS
  1
VISUALSTYLE
  2
AcDbVisualStyle
  3
ObjectDBX Classes
 90
4095
 91
0
280
0
281
0
  0
CLASS
  1
MATERIAL
  2
AcDbMaterial
  3
ObjectDBX Classes
 90
1153
 91
0
280
0
281
0
  0
CLASS
  1
SCALE
  2
AcDbScale
  3
ObjectDBX Classes
 90
1153
 91
0
280
0
281
0
  0
CLASS
  1
TABLESTYLE
  2
AcDbTableStyle
  3
ObjectDBX Classes
 90
4095
 91
0
280
0
281
0
  0
CLASS
  1
MLEADERSTYLE
  2
AcDbMLeaderStyle
  3
ACDB_MLEADERSTYLE_CLASS
 90
4095
 91
0
280
0
281
0
  0
CLASS
  1
DICTIONARYVAR
  2
AcDbDictionaryVar
  3
ObjectDBX Classes
 90
0
 91
0
280
0
281
0
  0
CLASS
  1
CELLSTYLEMAP
  2
AcDbCellStyleMap
  3
ObjectDBX Classes
 90
1152
 91
0
280
0
281
0
  0
CLASS
  1
MENTALRAYRENDERSETTINGS
  2
AcDbMentalRayRenderSettings
  3
SCENEOE
 90
1024
 91
0
280
0
281
0
  0
CLASS
  1
ACDBDETAILVIEWSTYLE
  2
AcDbDetailViewStyle
  3
ObjectDBX Classes
 90
1025
 91
0
280
0
281
0
  0
CLASS
  1
ACDBSECTIONVIEWSTYLE
  2
AcDbSectionViewStyle
  3
ObjectDBX Classes
 90
1025
 91
0
280
0
281
0
  0
CLASS
  1
RASTERVARIABLES
  2
AcDbRasterVariables
  3
ISM
 90
0
 91
0
280
0
281
0
  0
CLASS
  1
ACDBPLACEHOLDER
  2
AcDbPlaceHolder
  3
ObjectDBX Classes
 90
0
 91
0
280
0
281
0
  0
CLASS
  1
LAYOUT
  2
AcDbLayout
  3
ObjectDBX Classes
 90
0
 91
0
280
0
281
0
  0
ENDSEC
  0
SECTION
  2
TABLES
  0
TABLE
  2
VPORT
  5
8
330
0
100
AcDbSymbolTable
 70
1
  0
VPORT
  5
23
330
8
100
AcDbSymbolTableRecord
100
AcDbViewportTableRecord
  2
*Active
 70
0
 10
0.0
 20
0.0
 11
1.0
 21
1.0
 12
0.0
 22
0.0
 13
0.0
 23
0.0
 14
0.5
 24
0.5
 15
0.5
 25
0.5
 16
0.0
 26
0.0
 36
1.0
 17
0.0
 27
0.0
 37
0.0
 40
1000.0
 41
1.34
 42
50.0
 43
0.0
 44
0.0
 50
0.0
 51
0.0
 71
0
 72
1000
 73
1
 74
3
 75
0
 76
0
 77
0
 78
0
281
0
 65
0
146
0.0
  0
ENDTAB
  0
TABLE
  2
LTYPE
  5
2
330
0
100
AcDbSymbolTable
 70
3
  0
LTYPE
  5
24
330
2
100
AcDbSymbolTableRecord
100
AcDbLinetypeTableRecord
  2
ByBlock
 70
0
  3

 72
65
 73
0
 40
0.0
  0
LTYPE
  5
25
330
2
100
AcDbSymbolTableRecord
100
AcDbLinetypeTableRecord
  2
ByLayer
 70
0
  3

 72
65
 73
0
 40
0.0
  0
LTYPE
  5
26
330
2
100
AcDbSymbolTableRecord
100
AcDbLinetypeTableRecord
  2
Continuous
 70
0
  3

 72
65
 73
0
 40
0.0
  0
ENDTAB
  0
TABLE
  2
LAYER
  5
1
330
0
100
AcDbSymbolTable
 70
7
  0
LAYER
  5
27
330
1
100
AcDbSymbolTableRecord
100
AcDbLayerTableRecord
  2
0
 70
0
 62
7
  6
Continuous
370
-3
390
13
347
21
  0
LAYER
  5
28
330
1
100
AcDbSymbolTableRecord
100
AcDbLayerTableRecord
  2
Defpoints
 70
0
 62
7
  6
Continuous
290
0
370
-3
390
13
347
21
  0
LAYER
  5
2F
330
1
100
AcDbSymbolTableRecord
100
AcDbLayerTableRecord
  2
CUT_OUTSIDE
 70
0
 62
1
  6
Continuous
370
-3
390
13
347
21
  0
LAYER
  5
31
330
1
100
AcDbSymbolTableRecord
100
AcDbLayerTableRecord
  2
CUT_INSIDE
 70
0
 62
5
  6
Continuous
370
-3
390
13
347
21
  0
LAYER
  5
38
330
1
100
AcDbSymbolTableRecord
100
AcDbLayerTableRecord
  2
NOTES
 70
0
 62
7
  6
Continuous
370
-3
390
13
347
21
  0
LAYER
  5
3A
330
1
100
AcDbSymbolTableRecord
100
AcDbLayerTableRecord
  2
POCKET_5MM
 70
0
 62
3
  6
Continuous
370
-3
390
13
347
21
  0
LAYER
  5
3C
330
1
100
AcDbSymbolTableRecord
100
AcDbLayerTableRecord
  2
POCKET_7.5MM
 70
0
 62
3
  6
Continuous
370
-3
390
13
347
21
  0
ENDTAB
  0
TABLE
  2
STYLE
  5
5
330
0
100
AcDbSymbolTable
 70
1
  0
STYLE
  5
29
330
5
100
AcDbSymbolTableRecord
100
AcDbTextStyleTableRecord
  2
Standard
 70
0
 40
0.0
 41
1.0
 50
0.0
 71
0
 42
2.5
  3
txt
  4

  0
ENDTAB
  0
TABLE
  2
VIEW
  5
7
330
0
100
AcDbSymbolTable
 70
0
  0
ENDTAB
  0
TABLE
  2
UCS
  5
6
330
0
100
AcDbSymbolTable
 70
0
  0
ENDTAB
  0
TABLE
  2
APPID
  5
3
330
0
100
AcDbSymbolTable
 70
3
  0
APPID
  5
2A
330
3
100
AcDbSymbolTableRecord
100
AcDbRegAppTableRecord
  2
ACAD
 70
0
  0
APPID
  5
3E
330
3
100
AcDbSymbolTableRecord
100
AcDbRegAppTableRecord
  2
HATCHBACKGROUNDCOLOR
 70
0
  0
APPID
  5
3F
330
3
100
AcDbSymbolTableRecord
100
AcDbRegAppTableRecord
  2
EZDXF
 70
0
  0
ENDTAB
  0
TABLE
  2
DIMSTYLE
  5
4
330
0
100
AcDbSymbolTable
 70
1
100
AcDbDimStyleTable
  0
DIMSTYLE
105
2B
330
4
100
AcDbSymbolTableRecord
100
AcDbDimStyleTableRecord
  2
Standard
 70
0
 40
1.0
 41
2.5
 42
0.625
 43
3.75
 44
1.25
 45
0.0
 46
0.0
 47
0.0
 48
0.0
 49
2.5
140
2.5
141
2.5
142
0.0
143
0.03937007874
144
1.0
145
0.0
146
1.0
147
0.625
148
0.0
 69
0
 70
0
 71
0
 72
0
 73
0
 74
0
 75
0
 76
0
 77
1
 78
8
 79
3
170
0
171
3
172
1
173
0
174
0
175
0
176
0
177
0
178
0
179
2
271
2
272
2
273
2
274
3
275
0
276
0
277
2
278
44
279
0
280
0
281
0
282
0
283
0
284
8
285
0
286
0
288
0
289
3
290
0
371
-2
372
-2
  0
ENDTAB
  0
TABLE
  2
BLOCK_RECORD
  5
9
330
0
100
AcDbSymbolTable
 70
2
  0
BLOCK_RECORD
  5
17
330
9
100
AcDbSymbolTableRecord
100
AcDbBlockTableRecord
  2
*Model_Space
340
1A
 70
0
280
1
281
0
  0
BLOCK_RECORD
  5
1B
330
9
100
AcDbSymbolTableRecord
100
AcDbBlockTableRecord
  2
*Paper_Space
340
1E
 70
0
280
1
281
0
  0
ENDTAB
  0
ENDSEC
  0
SECTION
  2
BLOCKS
  0
BLOCK
  5
18
330
17
100
AcDbEntity
  8
0
100
AcDbBlockBegin
  2
*Model_Space
 70
0
 10
0.0
 20
0.0
 30
0.0
  3
*Model_Space
  1

  0
ENDBLK
  5
19
330
17
100
AcDbEntity
  8
0
100
AcDbBlockEnd
  0
BLOCK
  5
1C
330
1B
100
AcDbEntity
  8
0
100
AcDbBlockBegin
  2
*Paper_Space
 70
0
 10
0.0
 20
0.0
 30
0.0
  3
*Paper_Space
  1

  0
ENDBLK
  5
1D
330
1B
100
AcDbEntity
  8
0
100
AcDbBlockEnd
  0
ENDSEC
  0
SECTION
  2
ENTITIES
  0
LWPOLYLINE
  5
30
330
17
100
AcDbEntity
  8
CUT_OUTSIDE
100
AcDbPolyline
 90
5
 70
1
 10
0.0
 20
0.0
 10
194.0
 20
0.0
 10
194.0
 20
364.0
 10
0.0
 20
364.0
 10
0.0
 20
0.0
  0
CIRCLE
  5
32
330
17
100
AcDbEntity
  8
CUT_INSIDE
100
AcDbCircle
 10
40.78501089566946
 20
55.78501089566947
 30
0.0
 40
2.5
  0
CIRCLE
  5
33
330
17
100
AcDbEntity
  8
CUT_INSIDE
100
AcDbCircle
 10
40.78501089566948
 20
168.21498910433053
 30
0.0
 40
2.5
  0
CIRCLE
  5
34
330
17
100
AcDbEntity
  8
CUT_INSIDE
100
AcDbCircle
 10
97.0
 20
112.0
 30
0.0
 40
72.45
  0
CIRCLE
  5
35
330
17
100
AcDbEntity
  8
CUT_INSIDE
100
AcDbCircle
 10
153.21498910433053
 20
55.78501089566946
 30
0.0
 40
2.5
  0
CIRCLE
  5
36
330
17
100
AcDbEntity
  8
CUT_INSIDE
100
AcDbCircle
 10
153.21498910433053
 20
168.21498910433053
 30
0.0
 40
2.5
  0
CIRCLE
  5
37
330
17
100
AcDbEntity
  8
CUT_INSIDE
100
AcDbCircle
 10
97.0
 20
272.0
 30
0.0
 40
50.2
  0
TEXT
  5
39
330
17
100
AcDbEntity
  8
NOTES
100
AcDbText
 10
2.0
 20
368.0
 30
0.0
 40
6.0
  1
baffle  18 mm baltic-birch, outer face
 11
2.0
 21
368.0
 31
0.0
100
AcDbText
  0
LWPOLYLINE
  5
3B
330
17
100
AcDbEntity
  8
POCKET_5MM
100
AcDbPolyline
 90
366
 70
1
 10
155.25
 20
272.0
 10
155.24136963393101
 20
273.00267799607735
 10
155.21548109308782
 20
274.00505887702496
 10
155.17234204880373
 20
275.0068456157545
 10
155.1119652841086
 20
276.0077413612351
 10
155.0343686899409
 20
277.0074495264563
 10
154.9395752598461
 20
278.0056738763131
 10
154.82761308316336
 20
279.0021186153873
 10
154.69851533670197
 20
279.9964884755977
 10
154.5523202749104
 20
280.9884888036944
 10
154.38907121854052
 20
281.97782564857107
 10
154.20881654181102
 20
282.964205848369
 10
154.0116096580728
 20
283.94733711734705
 10
153.7975090039816
 20
284.9269281324926
 10
153.56657802218186
 20
285.9026886198466
 10
153.31888514250744
 20
286.87432944051784
 10
153.05450376170415
 20
287.84156267636166
 10
152.77351222168105
 20
288.8041017152955
 10
152.47599378629565
 20
289.7616613362289
 10
152.16203661668138
 20
290.7139577935802
 10
151.83173374512333
 20
291.6607089013571
 10
151.4851830474909
 20
292.60163411677365
 10
151.1224872142349
 20
293.5364546233817
 10
150.74375371995842
 20
294.4648934136901
 10
150.34909479156948
 20
295.3866753712479
 10
149.93862737502602
 20
296.3015273521675
 10
149.51247310068223
 20
297.2091782660626
 10
149.07075824724672
 20
298.10935915637896
 10
148.61361370436353
 20
299.0018032800911
 10
148.14117493382673
 20
299.8862461867447
 10
147.6535819294401
 20
300.76242579681866
 10
147.1509791755339
 20
301.6300824793851
 10
146.63351560415126
 20
302.4889591290433
 10
146.1013445509161
 20
303.338801242106
 10
145.55462370959668
 20
304.1793569920139
 10
144.99351508537754
 20
305.0103773039576
 10
144.41818494685367
 20
305.8316159286839
 10
143.82880377676182
 20
306.6428295154645
 10
143.22554622146257
 20
307.4437776842061
 10
142.6085910391889
 20
308.2342230966806
 10
141.9781210470763
 20
309.01393152685284
 10
141.3343230669901
 20
309.7826719302877
 10
140.67738787016611
 20
310.5402165126127
 10
140.00751012068093
 20
311.2863407970191
 10
139.32488831776897
 20
312.02082369077857
 10
138.62972473700245
 20
312.7434475507585
 10
137.92222537035337
 20
313.4539982479134
 10
137.20259986515308
 20
314.15226523073693
 10
136.4710614619696
 20
314.8380415876522
 10
135.72782693141966
 20
315.51112410832434
 10
134.973116509935
 20
316.17131334387625
 10
134.20715383450144
 20
316.8184136659894
 10
133.43016587639062
 20
317.4522333248727
 10
132.6423828739032
 20
318.0725845060823
 10
131.84403826414461
 20
318.6792833861749
 10
131.03536861385246
 20
319.2721501871788
 10
130.21661354929657
 20
319.85100922986567
 10
129.38801568527282
 20
320.41568898580834
 10
128.5498205532109
 20
320.96602212820835
 10
127.70227652841814
 20
321.5018455814785
 10
126.84563475648068
 20
322.0230005695655
 10
125.98014907884325
 20
322.529332662999
 10
125.10607595759097
 20
323.02069182465215
 10
124.22367439945361
 20
323.49693245420093
 10
123.33320587905675
 20
323.9579134312687
 10
122.43493426144067
 20
324.4034981572432
 10
121.5291257238722
 20
324.8335545957535
 10
120.6160486769698
 20
325.2479553117957
 10
119.69597368516838
 20
325.64657750949397
 10
118.7691733865448
 20
326.0293030684882
 10
117.83592241202956
 20
326.3960185789354
 10
116.89649730402755
 20
326.7466153751154
 10
115.95117643447287
 20
327.08098956763104
 10
115.00023992234068
 20
327.3990420741927
 10
114.04396955064257
 20
327.7006786489785
 10
113.08264868292756
 20
327.9858099105615
 10
112.11656217931588
 20
328.2543513683953
 10
111.14599631208822
 20
328.5062234478503
 10
110.17123868085778
 20
328.7413515137935
 10
109.19257812734755
 20
328.9596658927045
 10
108.21030464980085
 20
329.16110189332124
 10
107.22470931704817
 20
329.34559982580936
 10
106.2360841822576
 20
329.5131050194497
 10
105.24472219639276
 20
329.66356783883833
 10
104.2509171214055
 20
329.79694369859453
 10
103.25496344318749
 20
329.9131930765727
 10
102.25715628430817
 20
330.0122815255732
 10
101.25779131656303
 20
330.09417968355007
 10
100.25716467336018
 20
330.15886328231164
 10
99.25557286196914
 20
330.20631315471155
 10
98.2533126756599
 20
330.23651524032863
 10
97.2506811057562
 20
330.2494605896331
 10
96.24797525363068
 20
330.2451453666385
 10
95.2454922426676
 20
330.2235708500386
 10
94.24352913021832
 20
330.1847434328282
 10
93.24238281957733
 20
330.1286746204091
 10
92.24234997200287
 20
330.0553810271804
 10
91.24372691881025
 20
329.96488437161565
 10
90.24680957356209
 20
329.8572114698269
 10
89.25189334438312
 20
329.7323942276187
 10
88.25927304642398
 20
329.59046963103384
 10
87.26924281450154
 20
329.4314797353931
 10
86.2820960159401
 20
329.255471652834
 10
85.29812516364049
 20
329.0624975383498
 10
84.317621829402
 20
328.85261457433546
 10
83.34087655752364
 20
328.6258849536428
 10
82.36817877870926
 20
328.38237586115173
 10
81.39981672430336
 20
328.1221594538617
 10
80.43607734088154
 20
327.84531283951003
 10
79.47724620522239
 20
327.55191805372345
 10
78.52360743968458
 20
327.242062035709
 10
77.5754436280156
 20
326.915836602492
 10
76.6330357316159
 20
326.57333842170885
 10
75.69666300628407
 20
326.2146689829623
 10
74.76660291946709
 20
325.83993456774766
 10
73.84313106804112
 20
325.4492462179597
 10
72.92652109664581
 20
325.0427197029881
 10
72.0170446165978
 20
324.62047548541284
 10
71.11497112540627
 20
324.18263868530846
 10
70.22056792691491
 20
323.72933904316795
 10
69.33410005209433
 20
323.26071088145846
 10
68.45583018050729
 20
322.776893064818
 10
67.58601856247145
 20
322.2780289589073
 10
66.72492294194122
 20
321.7642663879274
 10
65.872798480133
 20
321.2357575908159
 10
65.02989767991511
 20
320.6926591761356
 10
64.19647031098597
 20
320.13513207566774
 10
63.37276333586186
 20
319.5633414967246
 10
62.55902083669656
 20
318.977456873195
 10
61.75548394295453
 20
318.37765181533734
 10
60.96239075995919
 20
317.76410405833514
 10
60.179976298336925
 20
317.1369954096301
 10
59.40847240437867
 20
316.4965116950491
 10
58.64810769133865
 20
315.8428427037395
 10
57.899107471691266
 20
315.17618213193066
 10
57.161693690366434
 20
314.4967275255379
 10
56.436084858982184
 20
313.8046802216248
 10
55.722495991095215
 20
313.1002452887431
 10
55.02113853848759
 20
312.38363146616643
 10
54.332220328509024
 20
311.65505110203617
 10
53.65594550249324
 20
310.9147200904383
 10
52.992514455266345
 20
310.1628578074292
 10
52.34212377576573
 20
309.39968704602984
 10
51.704966188786216
 20
308.62543395020737
 10
51.0812304978719
 20
307.84032794786384
 10
50.471101529369236
 20
307.04460168285175
 10
49.8747600776593
 20
306.23849094603656
 10
49.292382851584335
 20
305.4222346054269
 10
48.72414242208515
 20
304.5960745353928
 10
48.170207171064646
 20
303.7602555449929
 10
47.630741241492586
 20
302.9150253054326
 10
47.10590448876653
 20
302.0606342766734
 10
46.595852433343225
 20
301.1973356332164
 10
46.100736214654546
 20
300.3253851890812
 10
45.62070254632152
 20
299.44504132200257
 10
45.155893672680094
 20
298.5565648968677
 10
44.70644732663088
 20
297.6602191884163
 10
44.272496688826095
 20
296.75626980322653
 10
43.85417034820514
 20
295.84498460100997
 10
43.451592263890944
 20
294.9266336152392
 10
43.064881728458246
 20
294.00148897313096
 10
42.69415333258459
 20
293.06982481500893
 10
42.33951693109467
 20
292.1319172130702
 10
42.001077610407876
 20
291.18804408957885
 10
41.6789356573991
 20
290.2384851345119
 10
41.37318652968138
 20
289.2835217226808
 10
41.08392082731988
 20
288.32343683035435
 10
40.81122426598507
 20
287.35851495140645
 10
40.555177651553336
 20
286.3890420130145
 10
40.31585685616249
 20
285.4153052909332
 10
40.09333279572916
 20
284.4375933243681
 10
39.887671408934935
 20
283.45619583047585
 10
39.698933637687226
 20
282.471403618514
 10
39.52717540906098
 20
281.48350850366865
 10
39.372447618726156
 20
280.4928032205827
 10
39.23479611586636
 20
279.49958133661283
 10
39.114261689592624
 20
278.5041371648387
 10
39.01088005685682
 20
277.50676567685184
 10
38.924681851867874
 20
276.50776241534925
 10
38.855692617014235
 20
275.50742340655745
 10
38.803932795295104
 20
274.5060450725139
 10
38.76941772426272
 20
273.50392414323045
 10
38.75215763147753
 20
272.50135756876614
 10
38.75215763147753
 20
271.49864243123386
 10
38.76941772426272
 20
270.4960758567695
 10
38.803932795295104
 20
269.4939549274861
 10
38.855692617014235
 20
268.49257659344255
 10
38.924681851867874
 20
267.49223758465075
 10
39.01088005685682
 20
266.49323432314816
 10
39.114261689592624
 20
265.4958628351613
 10
39.23479611586635
 20
264.50041866338717
 10
39.372447618726156
 20
263.5071967794173
 10
39.52717540906098
 20
262.51649149633135
 10
39.69893363768724
 20
261.52859638148595
 10
39.88767140893494
 20
260.54380416952415
 10
40.093332795729175
 20
259.56240667563185
 10
40.3158568561625
 20
258.5846947090668
 10
40.55517765155334
 20
257.61095798698545
 10
40.81122426598507
 20
256.64148504859355
 10
41.08392082731988
 20
255.67656316964565
 10
41.373186529681384
 20
254.7164782773192
 10
41.6789356573991
 20
253.7615148654881
 10
42.00107761040789
 20
252.8119559104211
 10
42.33951693109467
 20
251.86808278692973
 10
42.694153332584605
 20
250.93017518499101
 10
43.06488172845825
 20
249.99851102686904
 10
43.45159226389095
 20
249.0733663847608
 10
43.85417034820514
 20
248.15501539899003
 10
44.2724966888261
 20
247.24373019677347
 10
44.70644732663089
 20
246.33978081158364
 10
45.15589367268009
 20
245.4434351031323
 10
45.620702546321525
 20
244.55495867799743
 10
46.100736214654546
 20
243.6746148109188
 10
46.59585243334325
 20
242.80266436678357
 10
47.10590448876654
 20
241.93936572332655
 10
47.6307412414926
 20
241.08497469456734
 10
48.17020717106466
 20
240.23974445500704
 10
48.72414242208518
 20
239.4039254646072
 10
49.292382851584364
 20
238.57776539457308
 10
49.87476007765932
 20
237.76150905396344
 10
50.471101529369236
 20
236.95539831714825
 10
51.0812304978719
 20
236.15967205213616
 10
51.704966188786244
 20
235.37456604979263
 10
52.34212377576574
 20
234.60031295397016
 10
52.992514455266374
 20
233.83714219257078
 10
53.65594550249324
 20
233.08527990956168
 10
54.332220328509024
 20
232.3449488979638
 10
55.021138538487605
 20
231.61636853383357
 10
55.72249599109523
 20
230.8997547112569
 10
56.4360848589822
 20
230.19531977837522
 10
57.161693690366434
 20
229.5032724744621
 10
57.89910747169128
 20
228.8238178680693
 10
58.64810769133865
 20
228.1571572962605
 10
59.4084724043787
 20
227.50348830495088
 10
60.17997629833694
 20
226.86300459036988
 10
60.96239075995916
 20
226.2358959416649
 10
61.75548394295453
 20
225.62234818466266
 10
62.55902083669656
 20
225.02254312680498
 10
63.37276333586189
 20
224.4366585032754
 10
64.19647031098599
 20
223.86486792433226
 10
65.02989767991511
 20
223.30734082386442
 10
65.87279848013297
 20
222.76424240918408
 10
66.72492294194123
 20
222.23573361207258
 10
67.58601856247144
 20
221.72197104109267
 10
68.45583018050729
 20
221.223106935182
 10
69.33410005209431
 20
220.73928911854156
 10
70.22056792691495
 20
220.27066095683202
 10
71.11497112540629
 20
219.81736131469154
 10
72.01704461659784
 20
219.37952451458713
 10
72.92652109664583
 20
218.9572802970119
 10
73.84313106804112
 20
218.55075378204032
 10
74.7666029194671
 20
218.16006543225234
 10
75.6966630062841
 20
217.7853310170377
 10
76.63303573161596
 20
217.42666157829112
 10
77.57544362801562
 20
217.08416339750798
 10
78.52360743968458
 20
216.757937964291
 10
79.47724620522237
 20
216.44808194627655
 10
80.43607734088154
 20
216.15468716048997
 10
81.39981672430335
 20
215.87784054613832
 10
82.36817877870928
 20
215.61762413884827
 10
83.34087655752363
 20
215.3741150463572
 10
84.31762182940204
 20
215.14738542566454
 10
85.29812516364052
 20
214.9375024616502
 10
86.28209601594016
 20
214.74452834716604
 10
87.26924281450157
 20
214.5685202646069
 10
88.25927304642398
 20
214.40953036896616
 10
89.25189334438309
 20
214.26760577238127
 10
90.24680957356209
 20
214.1427885301731
 10
91.24372691881022
 20
214.03511562838437
 10
92.24234997200287
 20
213.9446189728196
 10
93.24238281957732
 20
213.8713253795909
 10
94.24352913021836
 20
213.8152565671718
 10
95.24549224266761
 20
213.77642914996144
 10
96.24797525363074
 20
213.7548546333615
 10
97.25068110575623
 20
213.7505394103669
 10
98.25331267565994
 20
213.76348475967137
 10
99.25557286196916
 20
213.79368684528845
 10
100.25716467336012
 20
213.84113671768839
 10
101.257791316563
 20
213.90582031644993
 10
102.25715628430812
 20
213.9877184744268
 10
103.25496344318748
 20
214.0868069234273
 10
104.2509171214055
 20
214.20305630140544
 10
105.24472219639279
 20
214.3364321611617
 10
106.2360841822576
 20
214.4868949805503
 10
107.22470931704821
 20
214.65440017419064
 10
108.21030464980086
 20
214.83889810667876
 10
109.19257812734759
 20
215.0403341072955
 10
110.17123868085778
 20
215.2586484862065
 10
111.14599631208824
 20
215.4937765521497
 10
112.11656217931582
 20
215.7456486316047
 10
113.08264868292756
 20
216.01419008943847
 10
114.04396955064257
 20
216.2993213510215
 10
115.00023992234071
 20
216.6009579258073
 10
115.95117643447287
 20
216.91901043236896
 10
116.8964973040276
 20
217.25338462488457
 10
117.83592241202956
 20
217.60398142106462
 10
118.76917338654482
 20
217.97069693151178
 10
119.69597368516838
 20
218.35342249050603
 10
120.61604867696983
 20
218.7520446882043
 10
121.5291257238722
 20
219.16644540424645
 10
122.4349342614407
 20
219.59650184275682
 10
123.33320587905675
 20
220.0420865687313
 10
124.22367439945364
 20
220.50306754579907
 10
125.10607595759097
 20
220.97930817534785
 10
125.98014907884328
 20
221.47066733700098
 10
126.84563475648068
 20
221.9769994304345
 10
127.70227652841817
 20
222.4981544185215
 10
128.5498205532109
 20
223.03397787179165
 10
129.38801568527282
 20
223.58431101419168
 10
130.2166135492966
 20
224.14899077013436
 10
131.03536861385246
 20
224.7278498128212
 10
131.84403826414464
 20
225.32071661382508
 10
132.64238287390322
 20
225.92741549391775
 10
133.43016587639062
 20
226.54776667512732
 10
134.20715383450147
 20
227.18158633401063
 10
134.973116509935
 20
227.82868665612375
 10
135.72782693141968
 20
228.48887589167566
 10
136.4710614619696
 20
229.16195841234784
 10
137.2025998651531
 20
229.8477347692631
 10
137.92222537035337
 20
230.54600175208662
 10
138.62972473700245
 20
231.25655244924155
 10
139.32488831776897
 20
231.9791763092214
 10
140.00751012068096
 20
232.71365920298092
 10
140.67738787016611
 20
233.45978348738728
 10
141.33432306699012
 20
234.21732806971232
 10
141.9781210470763
 20
234.98606847314716
 10
142.60859103918892
 20
235.76577690331948
 10
143.2255462214626
 20
236.5562223157939
 10
143.82880377676184
 20
237.35717048453552
 10
144.41818494685367
 20
238.1683840713161
 10
144.99351508537754
 20
238.98962269604243
 10
145.5546237095967
 20
239.82064300798618
 10
146.1013445509161
 20
240.66119875789406
 10
146.63351560415126
 20
241.51104087095672
 10
147.1509791755339
 20
242.36991752061493
 10
147.6535819294401
 20
243.23757420318134
 10
148.14117493382673
 20
244.1137538132553
 10
148.61361370436353
 20
244.99819671990895
 10
149.07075824724672
 20
245.8906408436211
 10
149.51247310068223
 20
246.79082173393738
 10
149.93862737502604
 20
247.69847264783255
 10
150.34909479156948
 20
248.61332462875208
 10
150.74375371995842
 20
249.5351065863099
 10
151.12248721423492
 20
250.4635453766183
 10
151.4851830474909
 20
251.39836588322635
 10
151.83173374512336
 20
252.3392910986429
 10
152.16203661668138
 20
253.28604220641978
 10
152.47599378629565
 20
254.23833866377117
 10
152.77351222168102
 20
255.19589828470453
 10
153.05450376170415
 20
256.15843732363834
 10
153.3188851425074
 20
257.1256705594821
 10
153.56657802218186
 20
258.0973113801534
 10
153.7975090039816
 20
259.0730718675074
 10
154.0116096580728
 20
260.05266288265295
 10
154.20881654181102
 20
261.035794151631
 10
154.38907121854052
 20
262.02217435142893
 10
154.5523202749104
 20
263.0115111963056
 10
154.69851533670197
 20
264.0035115244023
 10
154.82761308316336
 20
264.9978813846127
 10
154.9395752598461
 20
265.9943261236869
 10
155.0343686899409
 20
266.99255047354376
 10
155.1119652841086
 20
267.9922586387649
 10
155.17234204880373
 20
268.9931543842455
 10
155.21548109308782
 20
269.9949411229751
 10
155.24136963393101
 20
270.99732200392265
 10
155.25
 20
272.0
  0
LWPOLYLINE
  5
3D
330
17
100
AcDbEntity
  8
POCKET_7.5MM
100
AcDbPolyline
 90
401
 70
1
 10
183.0
 20
112.00000000000003
 10
182.9893903934228
 20
113.35082928881658
 10
182.9575641914529
 20
114.70132528071912
 10
182.9045292467294
 20
116.05115476102935
 10
182.83029864483137
 20
117.39998467952094
 10
182.734890701049
 20
118.74748223259465
 10
182.61832895586488
 20
120.09331494539228
 10
182.48064216914543
 20
121.43715075382994
 10
182.32186431304507
 20
122.77865808653021
 10
182.14203456362395
 20
124.11750594663206
 10
181.94119729118182
 20
125.45336399345996
 10
181.71940204931056
 20
126.78590262402923
 10
181.47670356266724
 20
128.11479305437234
 10
181.21316171347183
 20
129.43970740066007
 10
180.92884152673224
 20
130.76031876010273
 10
180.62381315420018
 20
132.07630129160793
 10
180.2981518570623
 20
133.38733029617748
 10
179.95193798737063
 20
134.6930822970221
 10
179.5852569682171
 20
135.99323511937376
 10
179.19819927265638
 20
137.28746796997817
 10
178.79086040138316
 20
138.57546151624558
 10
178.3633408591689
 20
139.85689796504087
 10
177.91574613006338
 20
141.13146114109506
 10
177.4481866513686
 20
142.3988365650161
 10
176.9607777863896
 20
143.65871153088239
 10
176.45363979597064
 20
144.9107751833978
 10
175.92689780882236
 20
146.15471859459117
 10
175.38068179064828
 20
147.3902348400394
 10
174.81512651207765
 20
148.61701907459636
 10
174.23037151541294
 20
149.83476860760874
 10
173.62656108019962
 20
151.04318297760105
 10
173.00384418762764
 20
152.24196402640933
 10
172.36237448377227
 20
153.43081597274752
 10
171.70231024168442
 20
154.6094454851871
 10
171.02381432233915
 20
155.77756175453192
 10
170.32705413445188
 20
156.93487656557164
 10
169.61220159317332
 20
158.08110436819368
 10
168.8794330776712
 20
159.21596234783937
 10
168.1289293876123
 20
160.33917049528327
 10
167.360875698552
 20
161.45045167572198
 10
166.57546151624547
 20
162.5495316971527
 10
165.77288062988978
 20
163.63613937802603
 10
164.95333106430934
 20
164.71000661415604
 10
164.11701503109632
 20
165.7708684448707
 10
163.26413887871783
 20
166.81846311838737
 10
162.39491304160262
 20
167.85253215639585
 10
161.50955198821947
 20
168.87282041783408
 10
160.6082741681604
 20
169.87907616184054
 10
159.69130195824135
 20
170.87105110986727
 10
158.75886160763423
 20
171.84850050693905
 10
157.81118318204307
 20
172.8111831820431
 10
156.84850050693902
 20
173.75886160763423
 10
155.8710511098672
 20
174.6913019582414
 10
154.87907616184046
 20
175.60827416816048
 10
153.87282041783408
 20
176.50955198821953
 10
152.8525321563958
 20
177.39491304160265
 10
151.81846311838729
 20
178.26413887871792
 10
150.77086844487062
 20
179.1170150310964
 10
149.71000661415596
 20
179.9533310643094
 10
148.636139378026
 20
180.7728806298898
 10
147.54953169715262
 20
181.57546151624553
 10
146.45045167572195
 20
182.36087569855204
 10
145.33917049528316
 20
183.12892938761235
 10
144.21596234783934
 20
183.87943307767125
 10
143.08110436819365
 20
184.61220159317332
 10
141.93487656557156
 20
185.32705413445194
 10
140.7775617545319
 20
186.02381432233918
 10
139.60944548518702
 20
186.70231024168447
 10
138.4308159727475
 20
187.36237448377227
 10
137.24196402640928
 20
188.00384418762764
 10
136.04318297760102
 20
188.62656108019965
 10
134.83476860760868
 20
189.23037151541294
 10
133.61701907459624
 20
189.81512651207768
 10
132.39023484003937
 20
190.38068179064828
 10
131.1547185945911
 20
190.9268978088224
 10
129.91077518339773
 20
191.45363979597064
 10
128.65871153088227
 20
191.96077778638966
 10
127.39883656501607
 20
192.4481866513686
 10
126.13146114109495
 20
192.91574613006344
 10
124.85689796504082
 20
193.3633408591689
 10
123.57546151624547
 20
193.7908604013832
 10
122.28746796997814
 20
194.19819927265638
 10
120.99323511937365
 20
194.58525696821712
 10
119.69308229702199
 20
194.95193798737066
 10
118.38733029617754
 20
195.29815185706227
 10
117.07630129160782
 20
195.6238131542002
 10
115.76031876010268
 20
195.92884152673227
 10
114.43970740066004
 20
196.21316171347186
 10
113.11479305437229
 20
196.47670356266724
 10
111.7859026240292
 20
196.71940204931056
 10
110.45336399345985
 20
196.94119729118185
 10
109.1175059466321
 20
197.14203456362395
 10
107.77865808653009
 20
197.32186431304513
 10
106.43715075382983
 20
197.48064216914548
 10
105.09331494539217
 20
197.61832895586488
 10
103.7474822325946
 20
197.734890701049
 10
102.3999846795209
 20
197.83029864483137
 10
101.05115476102922
 20
197.90452924672942
 10
99.701325280719
 20
197.95756419145292
 10
98.35082928881656
 20
197.9893903934228
 10
96.99999999999999
 20
198.0
 10
95.64917071118342
 20
197.9893903934228
 10
94.29867471928097
 20
197.95756419145292
 10
92.94884523897066
 20
197.9045292467294
 10
91.60001532047906
 20
197.83029864483137
 10
90.25251776740535
 20
197.734890701049
 10
88.90668505460772
 20
197.61832895586488
 10
87.56284924617007
 20
197.48064216914543
 10
86.2213419134698
 20
197.32186431304507
 10
84.88249405336786
 20
197.14203456362395
 10
83.54663600654006
 20
196.94119729118182
 10
82.2140973759707
 20
196.71940204931053
 10
80.8852069456276
 20
196.4767035626672
 10
79.56029259933993
 20
196.21316171347183
 10
78.23968123989728
 20
195.92884152673224
 10
76.92369870839208
 20
195.62381315420018
 10
75.61266970382245
 20
195.29815185706227
 10
74.3069177029779
 20
194.95193798737063
 10
73.00676488062633
 20
194.5852569682171
 10
71.71253203002183
 20
194.19819927265638
 10
70.4245384837545
 20
193.7908604013832
 10
69.14310203495914
 20
193.3633408591689
 10
67.86853885890494
 20
192.91574613006338
 10
66.6011634349839
 20
192.4481866513686
 10
65.34128846911764
 20
191.9607777863896
 10
64.08922481660224
 20
191.45363979597064
 10
62.84528140540883
 20
190.92689780882236
 10
61.6097651599606
 20
190.38068179064828
 10
60.38298092540366
 20
189.81512651207765
 10
59.16523139239128
 20
189.23037151541294
 10
57.956817022398965
 20
188.62656108019962
 10
56.75803597359068
 20
188.00384418762764
 10
55.56918402725242
 20
187.36237448377221
 10
54.39055451481289
 20
186.70231024168442
 10
53.22243824546808
 20
186.02381432233915
 10
52.06512343442836
 20
185.3270541344519
 10
50.91889563180625
 20
184.61220159317327
 10
49.784037652160634
 20
183.87943307767122
 10
48.660829504716745
 20
183.1289293876123
 10
47.54954832427802
 20
182.360875698552
 10
46.4504683028473
 20
181.57546151624547
 10
45.36386062197396
 20
180.77288062988978
 10
44.289993385843964
 20
179.95333106430934
 10
43.229131555129364
 20
179.11701503109634
 10
42.181536881612644
 20
178.26413887871786
 10
41.14746784360417
 20
177.39491304160265
 10
40.12717958216591
 20
176.50955198821947
 10
39.1209238381595
 20
175.60827416816045
 10
38.12894889013275
 20
174.69130195824138
 10
37.151499493060925
 20
173.7588616076342
 10
36.1888168179569
 20
172.81118318204307
 10
35.241138392365755
 20
171.84850050693905
 10
34.30869804175859
 20
170.8710511098672
 10
33.39172583183955
 20
169.8790761618405
 10
32.49044801178047
 20
168.87282041783405
 10
31.605086958397365
 20
167.8525321563958
 10
30.735861121282127
 20
166.8184631183873
 10
29.882984968903614
 20
165.77086844487062
 10
29.046668935690633
 20
164.710006614156
 10
28.227119370110202
 20
163.63613937802603
 10
27.42453848375449
 20
162.54953169715264
 10
26.639124301447936
 20
161.4504516757219
 10
25.87107061238767
 20
160.3391704952832
 10
25.12056692232875
 20
159.2159623478393
 10
24.387798406826676
 20
158.08110436819368
 10
23.67294586554803
 20
156.93487656557153
 10
22.976185677660823
 20
155.7775617545319
 10
22.297689758315556
 20
154.60944548518705
 10
21.637625516227743
 20
153.43081597274752
 10
20.99615581237235
 20
152.24196402640928
 10
20.373438919800336
 20
151.04318297760096
 10
19.76962848458706
 20
149.83476860760868
 10
19.18487348792233
 20
148.61701907459627
 10
18.619318209351718
 20
147.39023484003937
 10
18.07310219117761
 20
146.15471859459112
 10
17.546360204029355
 20
144.91077518339773
 10
17.039222213610373
 20
143.6587115308823
 10
16.5518133486314
 20
142.3988365650161
 10
16.08425386993659
 20
141.131461141095
 10
15.636659140831085
 20
139.8568979650408
 10
15.209139598616787
 20
138.57546151624547
 10
14.801800727343604
 20
137.2874679699781
 10
14.414743031782876
 20
135.99323511937365
 10
14.048062012629359
 20
134.69308229702204
 10
13.701848142937735
 20
133.38733029617754
 10
13.376186845799808
 20
132.07630129160785
 10
13.071158473267715
 20
130.76031876010262
 10
12.786838286528138
 20
129.43970740066004
 10
12.523296437332775
 20
128.11479305437234
 10
12.28059795068944
 20
126.7859026240292
 10
12.058802708818149
 20
125.45336399345982
 10
11.857965436376048
 20
124.1175059466321
 10
11.678135686954903
 20
122.77865808653013
 10
11.519357830854545
 20
121.43715075382991
 10
11.381671044135118
 20
120.09331494539222
 10
11.26510929895099
 20
118.74748223259462
 10
11.169701355168641
 20
117.39998467952091
 10
11.095470753270575
 20
116.05115476102927
 10
11.042435808547083
 20
114.701325280719
 10
11.01060960657719
 20
113.35082928881653
 10
11.0
 20
112.0
 10
11.01060960657719
 20
110.64917071118339
 10
11.042435808547083
 20
109.29867471928097
 10
11.09547075327059
 20
107.9488452389707
 10
11.169701355168641
 20
106.60001532047903
 10
11.26510929895099
 20
105.25251776740537
 10
11.381671044135118
 20
103.90668505460776
 10
11.519357830854545
 20
102.56284924617015
 10
11.678135686954903
 20
101.22134191346984
 10
11.857965436376048
 20
99.88249405336788
 10
12.058802708818163
 20
98.5466360065401
 10
12.28059795068944
 20
97.21409737597078
 10
12.523296437332775
 20
95.88520694562766
 10
12.786838286528152
 20
94.5602925993399
 10
13.071158473267744
 20
93.2396812398973
 10
13.376186845799822
 20
91.92369870839212
 10
13.701848142937735
 20
90.61266970382245
 10
14.048062012629359
 20
89.30691770297794
 10
14.414743031782905
 20
88.00676488062626
 10
14.801800727343604
 20
86.71253203002185
 10
15.209139598616801
 20
85.42453848375452
 10
15.636659140831114
 20
84.14310203495911
 10
16.084253869936617
 20
82.86853885890491
 10
16.551813348631413
 20
81.60116343498386
 10
17.0392222136104
 20
80.34128846911764
 10
17.54636020402934
 20
79.08922481660227
 10
18.07310219117764
 20
77.84528140540883
 10
18.619318209351704
 20
76.60976515996066
 10
19.18487348792233
 20
75.38298092540373
 10
19.76962848458706
 20
74.16523139239129
 10
20.373438919800392
 20
72.95681702239892
 10
20.99615581237238
 20
71.75803597359065
 10
21.63762551622773
 20
70.56918402725249
 10
22.29768975831557
 20
69.39055451481293
 10
22.976185677660837
 20
68.22243824546808
 10
23.672945865548073
 20
67.06512343442839
 10
24.387798406826704
 20
65.9188956318063
 10
25.120566922328777
 20
64.78403765216065
 10
25.871070612387697
 20
63.66082950471676
 10
26.63912430144802
 20
62.54954832427799
 10
27.42453848375453
 20
61.4504683028473
 10
28.227119370110245
 20
60.36386062197394
 10
29.04666893569062
 20
59.28999338584404
 10
29.882984968903656
 20
58.22913155512933
 10
30.735861121282127
 20
57.18153688161267
 10
31.605086958397337
 20
56.147467843604204
 10
32.4904480117805
 20
55.12717958216592
 10
33.39172583183959
 20
54.120923838159456
 10
34.308698041758625
 20
53.12894889013276
 10
35.2411383923658
 20
52.151499493060925
 10
36.18881681795692
 20
51.188816817956905
 10
37.151499493060996
 20
50.24113839236574
 10
38.12894889013277
 20
49.30869804175862
 10
39.12092383815951
 20
48.39172583183955
 10
40.12717958216595
 20
47.49044801178047
 10
41.14746784360425
 20
46.60508695839731
 10
42.18153688161271
 20
45.7358611212821
 10
43.22913155512936
 20
44.88298496890364
 10
44.28999338584404
 20
44.04666893569062
 10
45.363860621973956
 20
43.22711937011023
 10
46.45046830284733
 20
42.42453848375452
 10
47.54954832427805
 20
41.63912430144799
 10
48.66082950471679
 20
40.87107061238767
 10
49.78403765216069
 20
40.12056692232875
 10
50.918895631806336
 20
39.387798406826676
 10
52.0651234344284
 20
38.67294586554806
 10
53.22243824546811
 20
37.97618567766082
 10
54.39055451481295
 20
37.297689758315556
 10
55.569184027252504
 20
36.63762551622773
 10
56.758035973590694
 20
35.996155812372365
 10
57.95681702239898
 20
35.373438919800364
 10
59.165231392391334
 20
34.76962848458703
 10
60.382980925403785
 20
34.1848734879223
 10
61.60976515996066
 20
33.61931820935169
 10
62.8452814054089
 20
33.07310219117761
 10
64.08922481660228
 20
32.54636020402934
 10
65.34128846911773
 20
32.03922221361036
 10
66.6011634349839
 20
31.5518133486314
 10
67.86853885890498
 20
31.08425386993659
 10
69.14310203495914
 20
30.6366591408311
 10
70.42453848375459
 20
30.209139598616773
 10
71.71253203002188
 20
29.801800727343604
 10
73.00676488062628
 20
29.41474303178289
 10
74.30691770297796
 20
29.04806201262936
 10
75.61266970382249
 20
28.701848142937735
 10
76.92369870839215
 20
28.376186845799808
 10
78.23968123989732
 20
28.07115847326773
 10
79.56029259933993
 20
27.786838286528152
 10
80.88520694562769
 20
27.523296437332775
 10
82.21409737597081
 20
27.28059795068944
 10
83.54663600654015
 20
27.05880270881815
 10
84.88249405336792
 20
26.85796543637605
 10
86.22134191346983
 20
26.678135686954917
 10
87.56284924617013
 20
26.519357830854545
 10
88.90668505460776
 20
26.381671044135118
 10
90.25251776740537
 20
26.26510929895099
 10
91.60001532047906
 20
26.16970135516864
 10
92.94884523897078
 20
26.095470753270575
 10
94.29867471928098
 20
26.042435808547083
 10
95.64917071118346
 20
26.01060960657719
 10
97.0
 20
26.0
 10
98.35082928881661
 20
26.01060960657719
 10
99.70132528071905
 20
26.042435808547083
 10
101.05115476102931
 20
26.09547075327059
 10
102.39998467952094
 20
26.16970135516864
 10
103.74748223259473
 20
26.26510929895099
 10
105.09331494539225
 20
26.381671044135118
 10
106.43715075382994
 20
26.51935783085456
 10
107.77865808653019
 20
26.678135686954917
 10
109.11750594663211
 20
26.85796543637605
 10
110.45336399345985
 20
27.05880270881815
 10
111.78590262402923
 20
27.28059795068944
 10
113.11479305437234
 20
27.523296437332775
 10
114.43970740066007
 20
27.786838286528152
 10
115.76031876010268
 20
28.07115847326773
 10
117.07630129160788
 20
28.376186845799822
 10
118.38733029617754
 20
28.701848142937735
 10
119.69308229702204
 20
29.04806201262936
 10
120.99323511937374
 20
29.414743031782905
 10
122.28746796997814
 20
29.801800727343604
 10
123.5754615162455
 20
30.2091395986168
 10
124.85689796504084
 20
30.6366591408311
 10
126.13146114109509
 20
31.084253869936617
 10
127.39883656501613
 20
31.551813348631413
 10
128.65871153088233
 20
32.03922221361039
 10
129.91077518339773
 20
32.54636020402934
 10
131.15471859459117
 20
33.073102191177625
 10
132.39023484003937
 20
33.61931820935172
 10
133.61701907459627
 20
34.18487348792233
 10
134.8347686076087
 20
34.76962848458706
 10
136.04318297760108
 20
35.37343891980038
 10
137.24196402640933
 20
35.996155812372365
 10
138.43081597274755
 20
36.63762551622776
 10
139.60944548518705
 20
37.29768975831557
 10
140.77756175453192
 20
37.97618567766085
 10
141.9348765655716
 20
38.67294586554807
 10
143.0811043681937
 20
39.387798406826704
 10
144.21596234783934
 20
40.12056692232876
 10
145.3391704952832
 20
40.87107061238767
 10
146.45045167572198
 20
41.63912430144799
 10
147.5495316971527
 20
42.42453848375452
 10
148.63613937802603
 20
43.22711937011023
 10
149.710006614156
 20
44.04666893569062
 10
150.77086844487064
 20
44.882984968903656
 10
151.8184631183873
 20
45.73586112128213
 10
152.8525321563958
 20
46.605086958397365
 10
153.87282041783405
 20
47.49044801178047
 10
154.87907616184052
 20
48.39172583183958
 10
155.87105110986724
 20
49.30869804175862
 10
156.84850050693905
 20
50.2411383923658
 10
157.8111831820431
 20
51.18881681795692
 10
158.75886160763426
 20
52.15149949306098
 10
159.6913019582414
 20
53.12894889013276
 10
160.60827416816045
 20
54.12092383815953
 10
161.50955198821953
 20
55.12717958216595
 10
162.3949130416027
 20
56.14746784360423
 10
163.2641388787179
 20
57.181536881612686
 10
164.1170150310964
 20
58.229131555129385
 10
164.9533310643094
 20
59.28999338584404
 10
165.77288062988976
 20
60.363860621973956
 10
166.57546151624547
 20
61.45046830284733
 10
167.360875698552
 20
62.549548324278035
 10
168.12892938761235
 20
63.66082950471679
 10
168.87943307767125
 20
64.78403765216066
 10
169.61220159317332
 20
65.91889563180631
 10
170.32705413445194
 20
67.06512343442839
 10
171.02381432233915
 20
68.22243824546808
 10
171.70231024168444
 20
69.39055451481295
 10
172.36237448377227
 20
70.5691840272525
 10
173.00384418762764
 20
71.75803597359068
 10
173.62656108019965
 20
72.95681702239901
 10
174.23037151541294
 20
74.16523139239129
 10
174.8151265120777
 20
75.38298092540379
 10
175.38068179064828
 20
76.60976515996063
 10
175.9268978088224
 20
77.8452814054089
 10
176.45363979597067
 20
79.08922481660227
 10
176.96077778638966
 20
80.34128846911773
 10
177.4481866513686
 20
81.6011634349839
 10
177.91574613006338
 20
82.86853885890498
 10
178.3633408591689
 20
84.14310203495916
 10
178.7908604013832
 20
85.42453848375456
 10
179.19819927265638
 20
86.71253203002186
 10
179.5852569682171
 20
88.00676488062632
 10
179.95193798737063
 20
89.30691770297796
 10
180.29815185706227
 20
90.61266970382248
 10
180.6238131542002
 20
91.92369870839215
 10
180.92884152673227
 20
93.23968123989732
 10
181.21316171347186
 20
94.56029259933995
 10
181.47670356266724
 20
95.88520694562767
 10
181.71940204931056
 20
97.2140973759708
 10
181.94119729118182
 20
98.54663600654014
 10
182.14203456362395
 20
99.8824940533679
 10
182.32186431304507
 20
101.22134191346983
 10
182.48064216914545
 20
102.56284924617013
 10
182.61832895586488
 20
103.90668505460776
 10
182.734890701049
 20
105.25251776740537
 10
182.83029864483137
 20
106.60001532047905
 10
182.90452924672942
 20
107.94884523897076
 10
182.95756419145292
 20
109.29867471928097
 10
182.9893903934228
 20
110.64917071118344
 10
183.0
 20
112.0
  0
ENDSEC
  0
SECTION
  2
OBJECTS
  0
DICTIONARY
  5
A
330
0
100
AcDbDictionary
281
1
  3
ACAD_COLOR
350
B
  3
ACAD_GROUP
350
C
  3
ACAD_LAYOUT
350
D
  3
ACAD_MATERIAL
350
E
  3
ACAD_MLEADERSTYLE
350
F
  3
ACAD_MLINESTYLE
350
10
  3
ACAD_PLOTSETTINGS
350
11
  3
ACAD_PLOTSTYLENAME
350
12
  3
ACAD_SCALELIST
350
14
  3
ACAD_TABLESTYLE
350
15
  3
ACAD_VISUALSTYLE
350
16
  3
EZDXF_META
350
2D
  0
DICTIONARY
  5
B
330
A
100
AcDbDictionary
281
1
  0
DICTIONARY
  5
C
330
A
100
AcDbDictionary
281
1
  0
DICTIONARY
  5
D
330
A
100
AcDbDictionary
281
1
  3
Model
350
1A
  3
Layout1
350
1E
  0
DICTIONARY
  5
E
330
A
100
AcDbDictionary
281
1
  3
ByBlock
350
1F
  3
ByLayer
350
20
  3
Global
350
21
  0
DICTIONARY
  5
F
330
A
100
AcDbDictionary
281
1
  3
Standard
350
2C
  0
DICTIONARY
  5
10
330
A
100
AcDbDictionary
281
1
  3
Standard
350
22
  0
DICTIONARY
  5
11
330
A
100
AcDbDictionary
281
1
  0
ACDBDICTIONARYWDFLT
  5
12
330
A
100
AcDbDictionary
281
1
  3
Normal
350
13
100
AcDbDictionaryWithDefault
340
13
  0
ACDBPLACEHOLDER
  5
13
330
12
  0
DICTIONARY
  5
14
330
A
100
AcDbDictionary
281
1
  0
DICTIONARY
  5
15
330
A
100
AcDbDictionary
281
1
  0
DICTIONARY
  5
16
330
A
100
AcDbDictionary
281
1
  0
LAYOUT
  5
1A
330
D
100
AcDbPlotSettings
  1

  4
A3
  6

 40
7.5
 41
20.0
 42
7.5
 43
20.0
 44
420.0
 45
297.0
 46
0.0
 47
0.0
 48
0.0
 49
0.0
140
0.0
141
0.0
142
1.0
143
1.0
 70
1024
 72
1
 73
0
 74
5
  7

 75
16
 76
0
 77
2
 78
300
147
1.0
148
0.0
149
0.0
100
AcDbLayout
  1
Model
 70
1
 71
0
 10
0.0
 20
0.0
 11
420.0
 21
297.0
 12
0.0
 22
0.0
 32
0.0
 14
1e+20
 24
1e+20
 34
1e+20
 15
-1e+20
 25
-1e+20
 35
-1e+20
146
0.0
 13
0.0
 23
0.0
 33
0.0
 16
1.0
 26
0.0
 36
0.0
 17
0.0
 27
1.0
 37
0.0
 76
1
330
17
  0
LAYOUT
  5
1E
330
D
100
AcDbPlotSettings
  1

  4
A3
  6

 40
7.5
 41
20.0
 42
7.5
 43
20.0
 44
420.0
 45
297.0
 46
0.0
 47
0.0
 48
0.0
 49
0.0
140
0.0
141
0.0
142
1.0
143
1.0
 70
0
 72
1
 73
0
 74
5
  7

 75
16
 76
0
 77
2
 78
300
147
1.0
148
0.0
149
0.0
100
AcDbLayout
  1
Layout1
 70
1
 71
1
 10
0.0
 20
0.0
 11
420.0
 21
297.0
 12
0.0
 22
0.0
 32
0.0
 14
1e+20
 24
1e+20
 34
1e+20
 15
-1e+20
 25
-1e+20
 35
-1e+20
146
0.0
 13
0.0
 23
0.0
 33
0.0
 16
1.0
 26
0.0
 36
0.0
 17
0.0
 27
1.0
 37
0.0
 76
1
330
1B
  0
MATERIAL
  5
1F
102
{ACAD_REACTORS
330
E
102
}
330
E
100
AcDbMaterial
  1
ByBlock
  2

 70
0
 40
1.0
 71
1
 41
1.0
 91
-1023410177
 42
1.0
 72
1
  3

 73
1
 74
1
 75
1
 44
0.5
 73
0
 45
1.0
 46
1.0
 77
1
  4

 78
1
 79
1
170
1
 48
1.0
171
1
  6

172
1
173
1
174
1
140
1.0
141
1.0
175
1
  7

176
1
177
1
178
1
143
1.0
179
1
  8

270
1
271
1
272
1
145
1.0
146
1.0
273
1
  9

274
1
275
1
276
1
 42
1.0
 72
1
  3

 73
1
 74
1
 75
1
 94
63
  0
MATERIAL
  5
20
102
{ACAD_REACTORS
330
E
102
}
330
E
100
AcDbMaterial
  1
ByLayer
  2

 70
0
 40
1.0
 71
1
 41
1.0
 91
-1023410177
 42
1.0
 72
1
  3

 73
1
 74
1
 75
1
 44
0.5
 73
0
 45
1.0
 46
1.0
 77
1
  4

 78
1
 79
1
170
1
 48
1.0
171
1
  6

172
1
173
1
174
1
140
1.0
141
1.0
175
1
  7

176
1
177
1
178
1
143
1.0
179
1
  8

270
1
271
1
272
1
145
1.0
146
1.0
273
1
  9

274
1
275
1
276
1
 42
1.0
 72
1
  3

 73
1
 74
1
 75
1
 94
63
  0
MATERIAL
  5
21
102
{ACAD_REACTORS
330
E
102
}
330
E
100
AcDbMaterial
  1
Global
  2

 70
0
 40
1.0
 71
1
 41
1.0
 91
-1023410177
 42
1.0
 72
1
  3

 73
1
 74
1
 75
1
 44
0.5
 73
0
 45
1.0
 46
1.0
 77
1
  4

 78
1
 79
1
170
1
 48
1.0
171
1
  6

172
1
173
1
174
1
140
1.0
141
1.0
175
1
  7

176
1
177
1
178
1
143
1.0
179
1
  8

270
1
271
1
272
1
145
1.0
146
1.0
273
1
  9

274
1
275
1
276
1
 42
1.0
 72
1
  3

 73
1
 74
1
 75
1
 94
63
  0
MLINESTYLE
  5
22
102
{ACAD_REACTORS
330
10
102
}
330
10
100
AcDbMlineStyle
  2
Standard
 70
0
  3

 62
256
 51
90.0
 52
90.0
 71
2
 49
0.5
 62
256
  6
BYLAYER
 49
-0.5
 62
256
  6
BYLAYER
  0
MLEADERSTYLE
  5
2C
102
{ACAD_REACTORS
330
F
102
}
330
F
100
AcDbMLeaderStyle
179
2
170
2
171
1
172
0
 90
2
 40
0.0
 41
0.0
173
1
 91
-1056964608
 92
-2
290
1
 42
2.0
291
1
 43
8.0
  3
Standard
 44
4.0
300

342
29
174
1
175
1
176
0
178
1
 93
-1056964608
 45
4.0
292
0
297
0
 46
4.0
 94
-1056964608
 47
1.0
 49
1.0
140
1.0
294
1
141
0.0
177
0
142
1.0
295
0
296
0
143
3.75
271
0
272
9
273
9
  0
DICTIONARY
  5
2D
330
A
100
AcDbDictionary
280
1
281
1
  3
CREATED_BY_EZDXF
350
2E
  3
WRITTEN_BY_EZDXF
350
40
  0
DICTIONARYVAR
  5
2E
330
2D
100
DictionaryVariables
280
0
  1
1.4.4 @ 2026-10-10T18:18:43.250213+00:00
  0
DICTIONARYVAR
  5
40
330
2D
100
DictionaryVariables
280
0
  1
1.4.4 @ 2026-10-10T18:18:43.255319+00:00
  0
ENDSEC
  0
EOF
