  0
SECTION
  2
HEADER
  9
$ACADVER
  1
AC1024
  9
$ACADMAINTVER
 70
6
  9
$DWGCODEPAGE
  3
ANSI_1252
  9
$LASTSAVEDBY
  1
ezdxf
  9
$INSBASE
 10
0.0
 20
0.0
 30
0.0
  9
$EXTMIN
 10
1e+20
 20
1e+20
 30
1e+20
  9
$EXTMAX
 10
-1e+20
 20
-1e+20
 30
-1e+20
  9
$LIMMIN
 10
0.0
 20
0.0
  9
$LIMMAX
 10
420.0
 20
297.0
  9
$ORTHOMODE
 70
0
  9
$REGENMODE
 70
1
  9
$FILLMODE
 70
1
  9
$QTEXTMODE
 70
0
  9
$MIRRTEXT
 70
1
  9
$LTSCALE
 40
1.0
  9
$ATTMODE
 70
1
  9
$TEXTSIZE
 40
2.5
  9
$TRACEWID
 40
1.0
  9
$TEXTSTYLE
  7
Standard
  9
$CLAYER
  8
0
  9
$CELTYPE
  6
ByLayer
  9
$CECOLOR
 62
256
  9
$CELTSCALE
 40
1.0
  9
$DISPSILH
 70
0
  9
$DIMSCALE
 40
1.0
  9
$DIMASZ
 40
2.5
  9
$DIMEXO
 40
0.625
  9
$DIMDLI
 40
3.75
  9
$DIMRND
 40
0.0
  9
$DIMDLE
 40
0.0
  9
$DIMEXE
 40
1.25
  9
$DIMTP
 40
0.0
  9
$DIMTM
 40
0.0
  9
$DIMTXT
 40
2.5
  9
$DIMCEN
 40
2.5
  9
$DIMTSZ
 40
0.0
  9
$DIMTOL
 70
0
  9
$DIMLIM
 70
0
  9
$DIMTIH
 70
0
  9
$DIMTOH
 70
0
  9
$DIMSE1
 70
0
  9
$DIMSE2
 70
0
  9
$DIMTAD
 70
1
  9
$DIMZIN
 70
8
  9
$DIMBLK
  1

  9
$DIMASO
 70
1
  9
$DIMSHO
 70
1
  9
$DIMPOST
  1

  9
$DIMAPOST
  1

  9
$DIMALT
 70
0
  9
$DIMALTD
 70
3
  9
$DIMALTF
 40
0.03937007874
  9
$DIMLFAC
 40
1.0
  9
$DIMTOFL
 70
1
  9
$DIMTVP
 40
0.0
  9
$DIMTIX
 70
0
  9
$DIMSOXD
 70
0
  9
$DIMSAH
 70
0
  9
$DIMBLK1
  1

  9
$DIMBLK2
  1

  9
$DIMSTYLE
  2
ISO-25
  9
$DIMCLRD
 70
0
  9
$DIMCLRE
 70
0
  9
$DIMCLRT
 70
0
  9
$DIMTFAC
 40
1.0
  9
$DIMGAP
 40
0.625
  9
$DIMJUST
 70
0
  9
$DIMSD1
 70
0
  9
$DIMSD2
 70
0
  9
$DIMTOLJ
 70
0
  9
$DIMTZIN
 70
8
  9
$DIMALTZ
 70
0
  9
$DIMALTTZ
 70
0
  9
$DIMUPT
 70
0
  9
$DIMDEC
 70
2
  9
$DIMTDEC
 70
2
  9
$DIMALTU
 70
2
  9
$DIMALTTD
 70
3
  9
$DIMTXSTY
  7
Standard
  9
$DIMAUNIT
 70
0
  9
$DIMADEC
 70
0
  9
$DIMALTRND
 40
0.0
  9
$DIMAZIN
 70
0
  9
$DIMDSEP
 70
44
  9
$DIMATFIT
 70
3
  9
$DIMFRAC
 70
0
  9
$DIMLDRBLK
  1

  9
$DIMLUNIT
 70
2
  9
$DIMLWD
 70
-2
  9
$DIMLWE
 70
-2
  9
$DIMTMOVE
 70
0
  9
$DIMFXL
 40
1.0
  9
$DIMFXLON
 70
0
  9
$DIMJOGANG
 40
0.785398163397
  9
$DIMTFILL
 70
0
  9
$DIMTFILLCLR
 70
0
  9
$DIMARCSYM
 70
0
  9
$DIMLTYPE
  6

  9
$DIMLTEX1
  6

  9
$DIMLTEX2
  6

  9
$DIMTXTDIRECTION
 70
0
  9
$LUNITS
 70
2
  9
$LUPREC
 70
4
  9
$SKETCHINC
 40
1.0
  9
$FILLETRAD
 40
10.0
  9
$AUNITS
 70
0
  9
$AUPREC
 70
2
  9
$MENU
  1
.
  9
$ELEVATION
 40
0.0
  9
$PELEVATION
 40
0.0
  9
$THICKNESS
 40
0.0
  9
$LIMCHECK
 70
0
  9
$CHAMFERA
 40
0.0
  9
$CHAMFERB
 40
0.0
  9
$CHAMFERC
 40
0.0
  9
$CHAMFERD
 40
0.0
  9
$SKPOLY
 70
0
  9
$TDCREATE
 40
2461325.004039352
  9
$TDUCREATE
 40
2458532.153996898
  9
$TDUPDATE
 40
2461325.004039352
  9
$TDUUPDATE
 40
2458532.1544311
  9
$TDINDWG
 40
0.0
  9
$TDUSRTIMER
 40
0.0
  9
$USRTIMER
 70
1
  9
$ANGBASE
 50
0.0
  9
$ANGDIR
 70
0
  9
$PDMODE
 70
0
  9
$PDSIZE
 40
0.0
  9
$PLINEWID
 40
0.0
  9
$SPLFRAME
 70
0
  9
$SPLINETYPE
 70
6
  9
$SPLINESEGS
 70
8
  9
$HANDSEED
  5
64
  9
$SURFTAB1
 70
6
  9
$SURFTAB2
 70
6
  9
$SURFTYPE
 70
6
  9
$SURFU
 70
6
  9
$SURFV
 70
6
  9
$UCSBASE
  2

  9
$UCSNAME
  2

  9
$UCSORG
 10
0.0
 20
0.0
 30
0.0
  9
$UCSXDIR
 10
1.0
 20
0.0
 30
0.0
  9
$UCSYDIR
 10
0.0
 20
1.0
 30
0.0
  9
$UCSORTHOREF
  2

  9
$UCSORTHOVIEW
 70
0
  9
$UCSORGTOP
 10
0.0
 20
0.0
 30
0.0
  9
$UCSORGBOTTOM
 10
0.0
 20
0.0
 30
0.0
  9
$UCSORGLEFT
 10
0.0
 20
0.0
 30
0.0
  9
$UCSORGRIGHT
 10
0.0
 20
0.0
 30
0.0
  9
$UCSORGFRONT
 10
0.0
 20
0.0
 30
0.0
  9
$UCSORGBACK
 10
0.0
 20
0.0
 30
0.0
  9
$PUCSBASE
  2

  9
$PUCSNAME
  2

  9
$PUCSORG
 10
0.0
 20
0.0
 30
0.0
  9
$PUCSXDIR
 10
1.0
 20
0.0
 30
0.0
  9
$PUCSYDIR
 10
0.0
 20
1.0
 30
0.0
  9
$PUCSORTHOREF
  2

  9
$PUCSORTHOVIEW
 70
0
  9
$PUCSORGTOP
 10
0.0
 20
0.0
 30
0.0
  9
$PUCSORGBOTTOM
 10
0.0
 20
0.0
 30
0.0
  9
$PUCSORGLEFT
 10
0.0
 20
0.0
 30
0.0
  9
$PUCSORGRIGHT
 10
0.0
 20
0.0
 30
0.0
  9
$PUCSORGFRONT
 10
0.0
 20
0.0
 30
0.0
  9
$PUCSORGBACK
 10
0.0
 20
0.0
 30
0.0
  9
$USERI1
 70
0
  9
$USERI2
 70
0
  9
$USERI3
 70
0
  9
$USERI4
 70
0
  9
$USERI5
 70
0
  9
$USERR1
 40
0.0
  9
$USERR2
 40
0.0
  9
$USERR3
 40
0.0
  9
$USERR4
 40
0.0
  9
$USERR5
 40
0.0
  9
$WORLDVIEW
 70
1
  9
$SHADEDGE
 70
3
  9
$SHADEDIF
 70
70
  9
$TILEMODE
 70
1
  9
$MAXACTVP
 70
64
  9
$PINSBASE
 10
0.0
 20
0.0
 30
0.0
  9
$PLIMCHECK
 70
0
  9
$PEXTMIN
 10
1e+20
 20
1e+20
 30
1e+20
  9
$PEXTMAX
 10
-1e+20
 20
-1e+20
 30
-1e+20
  9
$PLIMMIN
 10
0.0
 20
0.0
  9
$PLIMMAX
 10
420.0
 20
297.0
  9
$UNITMODE
 70
0
  9
$VISRETAIN
 70
1
  9
$PLINEGEN
 70
0
  9
$PSLTSCALE
 70
1
  9
$TREEDEPTH
 70
3020
  9
$CMLSTYLE
  2
Standard
  9
$CMLJUST
 70
0
  9
$CMLSCALE
 40
20.0
  9
$PROXYGRAPHICS
 70
1
  9
$MEASUREMENT
 70
1
  9
$CELWEIGHT
370
-1
  9
$ENDCAPS
280
0
  9
$JOINSTYLE
280
0
  9
$LWDISPLAY
290
0
  9
$INSUNITS
 70
4
  9
$HYPERLINKBASE
  1

  9
$STYLESHEET
  1

  9
$XEDIT
290
1
  9
$CEPSNTYPE
380
0
  9
$PSTYLEMODE
290
1
  9
$FINGERPRINTGUID
  2
{B074261F-6ED9-4636-85CD-FE1C9494CDA8}
  9
$VERSIONGUID
  2
{755D91B5-7F75-4C92-8CEF-24BEDA001AD7}
  9
$EXTNAMES
290
1
  9
$PSVPSCALE
 40
0.0
  9
$OLESTARTUP
290
0
  9
$SORTENTS
280
127
  9
$INDEXCTL
280
0
  9
$HIDETEXT
280
1
  9
$XCLIPFRAME
280
1
  9
$HALOGAP
280
0
  9
$OBSCOLOR
 70
257
  9
$OBSLTYPE
280
0
  9
$INTERSECTIONDISPLAY
280
0
  9
$INTERSECTIONCOLOR
 70
257
  9
$DIMASSOC
280
2
  9
$PROJECTNAME
  1

  9
$CAMERADISPLAY
290
0
  9
$LENSLENGTH
 40
50.0
  9
$CAMERAHEIGHT
 40
0.0
  9
$STEPSPERSEC
 40
24.0
  9
$STEPSIZE
 40
100.0
  9
$3DDWFPREC
 40
2.0
  9
$PSOLWIDTH
 40
0.005
  9
$PSOLHEIGHT
 40
0.08
  9
$LOFTANG1
 40
1.570796326795
  9
$LOFTANG2
 40
1.570796326795
  9
$LOFTMAG1
 40
0.0
  9
$LOFTMAG2
 40
0.0
  9
$LOFTPARAM
 70
7
  9
$LOFTNORMALS
280
1
  9
$LATITUDE
 40
37.795
  9
$LONGITUDE
 40
-122.394
  9
$NORTHDIRECTION
 40
0.0
  9
$TIMEZONE
 70
-8000
  9
$LIGHTGLYPHDISPLAY
280
1
  9
$TILEMODELIGHTSYNCH
280
1
  9
$CMATERIAL
347
20
  9
$SOLIDHIST
280
0
  9
$SHOWHIST
280
1
  9
$DWFFRAME
280
2
  9
$DGNFRAME
280
2
  9
$REALWORLDSCALE
290
1
  9
$INTERFERECOLOR
 62
256
  9
$CSHADOW
280
0
  9
$SHADOWPLANELOCATION
 40
0.0
  0
ENDSEC
  0
SECTION
  2
CLASSES
  0
CLASS
  1
ACDBDICTIONARYWDFLT
  2
AcDbDictionaryWithDefault
  3
ObjectDBX Classes
 90
0
 91
0
280
0
281
0
  0
CLASS
  1
SUN
  2
AcDbSun
  3
SCENEOE
 90
1153
 91
0
280
0
281
0
  0
CLASS
  1
VISUALSTYLE
  2
AcDbVisualStyle
  3
ObjectDBX Classes
 90
4095
 91
0
280
0
281
0
  0
CLASS
  1
MATERIAL
  2
AcDbMaterial
  3
ObjectDBX Classes
 90
1153
 91
0
280
0
281
0
  0
CLASS
  1
SCALE
  2
AcDbScale
  3
ObjectDBX Classes
 90
1153
 91
0
280
0
281
0
  0
CLASS
  1
TABLESTYLE
  2
AcDbTableStyle
  3
ObjectDBX Classes
 90
4095
 91
0
280
0
281
0
  0
CLASS
  1
MLEADERSTYLE
  2
AcDbMLeaderStyle
  3
ACDB_MLEADERSTYLE_CLASS
 90
4095
 91
0
280
0
281
0
  0
CLASS
  1
DICTIONARYVAR
  2
AcDbDictionaryVar
  3
ObjectDBX Classes
 90
0
 91
0
280
0
281
0
  0
CLASS
  1
CELLSTYLEMAP
  2
AcDbCellStyleMap
  3
ObjectDBX Classes
 90
1152
 91
0
280
0
281
0
  0
CLASS
  1
MENTALRAYRENDERSETTINGS
  2
AcDbMentalRayRenderSettings
  3
SCENEOE
 90
1024
 91
0
280
0
281
0
  0
CLASS
  1
ACDBDETAILVIEWSTYLE
  2
AcDbDetailViewStyle
  3
ObjectDBX Classes
 90
1025
 91
0
280
0
281
0
  0
CLASS
  1
ACDBSECTIONVIEWSTYLE
  2
AcDbSectionViewStyle
  3
ObjectDBX Classes
 90
1025
 91
0
280
0
281
0
  0
CLASS
  1
RASTERVARIABLES
  2
AcDbRasterVariables
  3
ISM
 90
0
 91
0
280
0
281
0
  0
CLASS
  1
LAYOUT
  2
AcDbLayout
  3
ObjectDBX Classes
 90
0
 91
0
280
0
281
0
  0
CLASS
  1
ACDBPLACEHOLDER
  2
AcDbPlaceHolder
  3
ObjectDBX Classes
 90
0
 91
0
280
0
281
0
  0
ENDSEC
  0
SECTION
  2
TABLES
  0
TABLE
  2
VPORT
  5
8
330
0
100
AcDbSymbolTable
 70
1
  0
VPORT
  5
23
330
8
100
AcDbSymbolTableRecord
100
AcDbViewportTableRecord
  2
*Active
 70
0
 10
0.0
 20
0.0
 11
1.0
 21
1.0
 12
0.0
 22
0.0
 13
0.0
 23
0.0
 14
0.5
 24
0.5
 15
0.5
 25
0.5
 16
0.0
 26
0.0
 36
1.0
 17
0.0
 27
0.0
 37
0.0
 40
1000.0
 41
1.34
 42
50.0
 43
0.0
 44
0.0
 50
0.0
 51
0.0
 71
0
 72
1000
 73
1
 74
3
 75
0
 76
0
 77
0
 78
0
281
0
 65
0
146
0.0
  0
ENDTAB
  0
TABLE
  2
LTYPE
  5
2
330
0
100
AcDbSymbolTable
 70
3
  0
LTYPE
  5
24
330
2
100
AcDbSymbolTableRecord
100
AcDbLinetypeTableRecord
  2
ByBlock
 70
0
  3

 72
65
 73
0
 40
0.0
  0
LTYPE
  5
25
330
2
100
AcDbSymbolTableRecord
100
AcDbLinetypeTableRecord
  2
ByLayer
 70
0
  3

 72
65
 73
0
 40
0.0
  0
LTYPE
  5
26
330
2
100
AcDbSymbolTableRecord
100
AcDbLinetypeTableRecord
  2
Continuous
 70
0
  3

 72
65
 73
0
 40
0.0
  0
ENDTAB
  0
TABLE
  2
LAYER
  5
1
330
0
100
AcDbSymbolTable
 70
7
  0
LAYER
  5
27
330
1
100
AcDbSymbolTableRecord
100
AcDbLayerTableRecord
  2
0
 70
0
 62
7
  6
Continuous
370
-3
390
13
347
21
  0
LAYER
  5
28
330
1
100
AcDbSymbolTableRecord
100
AcDbLayerTableRecord
  2
Defpoints
 70
0
 62
7
  6
Continuous
290
0
370
-3
390
13
347
21
  0
LAYER
  5
30
330
1
100
AcDbSymbolTableRecord
100
AcDbLayerTableRecord
  2
CUT_OUTSIDE
 70
0
 62
1
  6
Continuous
370
-3
390
13
347
21
  0
LAYER
  5
32
330
1
100
AcDbSymbolTableRecord
100
AcDbLayerTableRecord
  2
CUT_INSIDE
 70
0
 62
5
  6
Continuous
370
-3
390
13
347
21
  0
LAYER
  5
41
330
1
100
AcDbSymbolTableRecord
100
AcDbLayerTableRecord
  2
POCKET_5MM
 70
0
 62
3
  6
Continuous
370
-3
390
13
347
21
  0
LAYER
  5
43
330
1
100
AcDbSymbolTableRecord
100
AcDbLayerTableRecord
  2
POCKET_7.5MM
 70
0
 62
3
  6
Continuous
370
-3
390
13
347
21
  0
LAYER
  5
52
330
1
100
AcDbSymbolTableRecord
100
AcDbLayerTableRecord
  2
POCKET_4.5MM
 70
0
 62
3
  6
Continuous
370
-3
390
13
347
21
  0
ENDTAB
  0
TABLE
  2
STYLE
  5
5
330
0
100
AcDbSymbolTable
 70
1
  0
STYLE
  5
29
330
5
100
AcDbSymbolTableRecord
100
AcDbTextStyleTableRecord
  2
Standard
 70
0
 40
0.0
 41
1.0
 50
0.0
 71
0
 42
2.5
  3
txt
  4

  0
ENDTAB
  0
TABLE
  2
VIEW
  5
7
330
0
100
AcDbSymbolTable
 70
0
  0
ENDTAB
  0
TABLE
  2
UCS
  5
6
330
0
100
AcDbSymbolTable
 70
0
  0
ENDTAB
  0
TABLE
  2
APPID
  5
3
330
0
100
AcDbSymbolTable
 70
3
  0
APPID
  5
2A
330
3
100
AcDbSymbolTableRecord
100
AcDbRegAppTableRecord
  2
ACAD
 70
0
  0
APPID
  5
61
330
3
100
AcDbSymbolTableRecord
100
AcDbRegAppTableRecord
  2
HATCHBACKGROUNDCOLOR
 70
0
  0
APPID
  5
62
330
3
100
AcDbSymbolTableRecord
100
AcDbRegAppTableRecord
  2
EZDXF
 70
0
  0
ENDTAB
  0
TABLE
  2
DIMSTYLE
  5
4
330
0
100
AcDbSymbolTable
 70
1
100
AcDbDimStyleTable
  0
DIMSTYLE
105
2B
330
4
100
AcDbSymbolTableRecord
100
AcDbDimStyleTableRecord
  2
Standard
 70
0
 40
1.0
 41
2.5
 42
0.625
 43
3.75
 44
1.25
 45
0.0
 46
0.0
 47
0.0
 48
0.0
 49
2.5
140
2.5
141
2.5
142
0.0
143
0.03937007874
144
1.0
145
0.0
146
1.0
147
0.625
148
0.0
 69
0
 70
0
 71
0
 72
0
 73
0
 74
0
 75
0
 76
0
 77
1
 78
8
 79
3
170
0
171
3
172
1
173
0
174
0
175
0
176
0
177
0
178
0
179
2
271
2
272
2
273
2
274
3
275
0
276
0
277
2
278
44
279
0
280
0
281
0
282
0
283
0
284
8
285
0
286
0
288
0
289
3
290
0
371
-2
372
-2
  0
ENDTAB
  0
TABLE
  2
BLOCK_RECORD
  5
9
330
0
100
AcDbSymbolTable
 70
2
  0
BLOCK_RECORD
  5
17
330
9
100
AcDbSymbolTableRecord
100
AcDbBlockTableRecord
  2
*Model_Space
340
1A
 70
0
280
1
281
0
  0
BLOCK_RECORD
  5
1B
330
9
100
AcDbSymbolTableRecord
100
AcDbBlockTableRecord
  2
*Paper_Space
340
1E
 70
0
280
1
281
0
  0
ENDTAB
  0
ENDSEC
  0
SECTION
  2
BLOCKS
  0
BLOCK
  5
18
330
17
100
AcDbEntity
  8
0
100
AcDbBlockBegin
  2
*Model_Space
 70
0
 10
0.0
 20
0.0
 30
0.0
  3
*Model_Space
  1

  0
ENDBLK
  5
19
330
17
100
AcDbEntity
  8
0
100
AcDbBlockEnd
  0
BLOCK
  5
1C
330
1B
100
AcDbEntity
  8
0
100
AcDbBlockBegin
  2
*Paper_Space
 70
0
 10
0.0
 20
0.0
 30
0.0
  3
*Paper_Space
  1

  0
ENDBLK
  5
1D
330
1B
100
AcDbEntity
  8
0
100
AcDbBlockEnd
  0
ENDSEC
  0
SECTION
  2
ENTITIES
  0
LWPOLYLINE
  5
2F
330
17
100
AcDbEntity
  8
SHEET_EDGE
100
AcDbPolyline
 90
4
 70
1
 10
0.0
 20
0.0
 10
1525.0
 20
0.0
 10
1525.0
 20
1525.0
 10
0.0
 20
1525.0
  0
LWPOLYLINE
  5
31
330
17
100
AcDbEntity
  8
CUT_OUTSIDE
100
AcDbPolyline
 90
5
 70
1
 10
275.0
 20
15.0
 10
275.0
 20
415.0
 10
15.0
 20
415.0
 10
15.0
 20
15.0
 10
275.0
 20
15.0
  0
TEXT
  5
33
330
17
100
AcDbEntity
  8
NOTES
100
AcDbText
 10
25.0
 20
25.0
 30
0.0
 40
12.0
  1
left
 11
25.0
 21
25.0
 31
0.0
100
AcDbText
  0
LWPOLYLINE
  5
34
330
17
100
AcDbEntity
  8
CUT_OUTSIDE
100
AcDbPolyline
 90
5
 70
1
 10
547.0
 20
15.0
 10
547.0
 20
415.0
 10
287.0
 20
415.0
 10
287.0
 20
15.0
 10
547.0
 20
15.0
  0
TEXT
  5
35
330
17
100
AcDbEntity
  8
NOTES
100
AcDbText
 10
297.0
 20
25.0
 30
0.0
 40
12.0
  1
left
 11
297.0
 21
25.0
 31
0.0
100
AcDbText
  0
LWPOLYLINE
  5
36
330
17
100
AcDbEntity
  8
CUT_OUTSIDE
100
AcDbPolyline
 90
5
 70
1
 10
559.0
 20
415.0
 10
559.0
 20
15.0
 10
819.0
 20
15.0
 10
819.0
 20
415.0
 10
559.0
 20
415.0
  0
TEXT
  5
37
330
17
100
AcDbEntity
  8
NOTES
100
AcDbText
 10
569.0
 20
25.0
 30
0.0
 40
12.0
  1
right
 11
569.0
 21
25.0
 31
0.0
100
AcDbText
  0
LWPOLYLINE
  5
38
330
17
100
AcDbEntity
  8
CUT_OUTSIDE
100
AcDbPolyline
 90
5
 70
1
 10
831.0
 20
415.0
 10
831.0
 20
15.0
 10
1091.0
 20
15.0
 10
1091.0
 20
415.0
 10
831.0
 20
415.0
  0
TEXT
  5
39
330
17
100
AcDbEntity
  8
NOTES
100
AcDbText
 10
841.0
 20
25.0
 30
0.0
 40
12.0
  1
right
 11
841.0
 21
25.0
 31
0.0
100
AcDbText
  0
LWPOLYLINE
  5
3A
330
17
100
AcDbEntity
  8
CUT_OUTSIDE
100
AcDbPolyline
 90
5
 70
1
 10
1103.0
 20
15.0
 10
1297.0
 20
15.0
 10
1297.0
 20
379.0
 10
1103.0
 20
379.0
 10
1103.0
 20
15.0
  0
CIRCLE
  5
3B
330
17
100
AcDbEntity
  8
CUT_INSIDE
100
AcDbCircle
 10
1143.7850108956695
 20
70.78501089566947
 30
0.0
 40
2.5
  0
CIRCLE
  5
3C
330
17
100
AcDbEntity
  8
CUT_INSIDE
100
AcDbCircle
 10
1143.7850108956695
 20
183.21498910433053
 30
0.0
 40
2.5
  0
CIRCLE
  5
3D
330
17
100
AcDbEntity
  8
CUT_INSIDE
100
AcDbCircle
 10
1200.0
 20
127.0
 30
0.0
 40
72.45
  0
CIRCLE
  5
3E
330
17
100
AcDbEntity
  8
CUT_INSIDE
100
AcDbCircle
 10
1256.2149891043305
 20
70.78501089566946
 30
0.0
 40
2.5
  0
CIRCLE
  5
3F
330
17
100
AcDbEntity
  8
CUT_INSIDE
100
AcDbCircle
 10
1256.2149891043305
 20
183.21498910433053
 30
0.0
 40
2.5
  0
CIRCLE
  5
40
330
17
100
AcDbEntity
  8
CUT_INSIDE
100
AcDbCircle
 10
1200.0
 20
287.0
 30
0.0
 40
50.2
  0
LWPOLYLINE
  5
42
330
17
100
AcDbEntity
  8
POCKET_5MM
100
AcDbPolyline
 90
366
 70
1
 10
1258.25
 20
287.0
 10
1258.241369633931
 20
288.00267799607735
 10
1258.2154810930879
 20
289.00505887702496
 10
1258.1723420488038
 20
290.0068456157545
 10
1258.1119652841087
 20
291.0077413612351
 10
1258.034368689941
 20
292.0074495264563
 10
1257.9395752598462
 20
293.0056738763131
 10
1257.8276130831634
 20
294.0021186153873
 10
1257.698515336702
 20
294.9964884755977
 10
1257.5523202749105
 20
295.9884888036944
 10
1257.3890712185405
 20
296.97782564857107
 10
1257.208816541811
 20
297.964205848369
 10
1257.0116096580728
 20
298.94733711734705
 10
1256.7975090039815
 20
299.9269281324926
 10
1256.5665780221818
 20
300.9026886198466
 10
1256.3188851425075
 20
301.87432944051784
 10
1256.0545037617042
 20
302.84156267636166
 10
1255.7735122216811
 20
303.8041017152955
 10
1255.4759937862957
 20
304.7616613362289
 10
1255.1620366166815
 20
305.7139577935802
 10
1254.8317337451233
 20
306.6607089013571
 10
1254.4851830474909
 20
307.60163411677365
 10
1254.122487214235
 20
308.5364546233817
 10
1253.7437537199585
 20
309.4648934136901
 10
1253.3490947915695
 20
310.3866753712479
 10
1252.938627375026
 20
311.3015273521675
 10
1252.5124731006822
 20
312.2091782660626
 10
1252.0707582472467
 20
313.10935915637896
 10
1251.6136137043636
 20
314.0018032800911
 10
1251.1411749338267
 20
314.8862461867447
 10
1250.6535819294402
 20
315.76242579681866
 10
1250.1509791755338
 20
316.6300824793851
 10
1249.6335156041512
 20
317.4889591290433
 10
1249.101344550916
 20
318.338801242106
 10
1248.5546237095966
 20
319.1793569920139
 10
1247.9935150853776
 20
320.0103773039576
 10
1247.4181849468537
 20
320.8316159286839
 10
1246.8288037767618
 20
321.6428295154645
 10
1246.2255462214625
 20
322.4437776842061
 10
1245.608591039189
 20
323.2342230966806
 10
1244.9781210470762
 20
324.01393152685284
 10
1244.33432306699
 20
324.7826719302877
 10
1243.677387870166
 20
325.5402165126127
 10
1243.007510120681
 20
326.2863407970191
 10
1242.324888317769
 20
327.02082369077857
 10
1241.6297247370026
 20
327.7434475507585
 10
1240.9222253703533
 20
328.4539982479134
 10
1240.2025998651532
 20
329.15226523073693
 10
1239.4710614619696
 20
329.8380415876522
 10
1238.7278269314197
 20
330.51112410832434
 10
1237.973116509935
 20
331.17131334387625
 10
1237.2071538345015
 20
331.8184136659894
 10
1236.4301658763907
 20
332.4522333248727
 10
1235.6423828739032
 20
333.0725845060823
 10
1234.8440382641447
 20
333.6792833861749
 10
1234.0353686138524
 20
334.2721501871788
 10
1233.2166135492967
 20
334.85100922986567
 10
1232.3880156852729
 20
335.41568898580834
 10
1231.5498205532108
 20
335.96602212820835
 10
1230.7022765284182
 20
336.5018455814785
 10
1229.8456347564806
 20
337.0230005695655
 10
1228.9801490788432
 20
337.529332662999
 10
1228.106075957591
 20
338.02069182465215
 10
1227.2236743994536
 20
338.49693245420093
 10
1226.3332058790568
 20
338.9579134312687
 10
1225.4349342614407
 20
339.4034981572432
 10
1224.5291257238723
 20
339.8335545957535
 10
1223.6160486769697
 20
340.2479553117957
 10
1222.6959736851684
 20
340.64657750949397
 10
1221.7691733865447
 20
341.0293030684882
 10
1220.8359224120295
 20
341.3960185789354
 10
1219.8964973040274
 20
341.7466153751154
 10
1218.951176434473
 20
342.08098956763104
 10
1218.0002399223406
 20
342.3990420741927
 10
1217.0439695506425
 20
342.7006786489785
 10
1216.0826486829276
 20
342.9858099105615
 10
1215.116562179316
 20
343.2543513683953
 10
1214.1459963120883
 20
343.5062234478503
 10
1213.1712386808579
 20
343.7413515137935
 10
1212.1925781273476
 20
343.9596658927045
 10
1211.210304649801
 20
344.16110189332124
 10
1210.224709317048
 20
344.34559982580936
 10
1209.2360841822576
 20
344.5131050194497
 10
1208.2447221963928
 20
344.66356783883833
 10
1207.2509171214056
 20
344.79694369859453
 10
1206.2549634431875
 20
344.9131930765727
 10
1205.2571562843082
 20
345.0122815255732
 10
1204.257791316563
 20
345.09417968355007
 10
1203.2571646733602
 20
345.15886328231164
 10
1202.255572861969
 20
345.20631315471155
 10
1201.2533126756598
 20
345.23651524032863
 10
1200.2506811057563
 20
345.2494605896331
 10
1199.2479752536308
 20
345.2451453666385
 10
1198.2454922426675
 20
345.2235708500386
 10
1197.2435291302183
 20
345.1847434328282
 10
1196.2423828195774
 20
345.1286746204091
 10
1195.2423499720028
 20
345.0553810271804
 10
1194.2437269188104
 20
344.96488437161565
 10
1193.2468095735621
 20
344.8572114698269
 10
1192.251893344383
 20
344.7323942276187
 10
1191.259273046424
 20
344.59046963103384
 10
1190.2692428145015
 20
344.4314797353931
 10
1189.2820960159402
 20
344.255471652834
 10
1188.2981251636404
 20
344.0624975383498
 10
1187.317621829402
 20
343.85261457433546
 10
1186.3408765575236
 20
343.6258849536428
 10
1185.3681787787093
 20
343.38237586115173
 10
1184.3998167243033
 20
343.1221594538617
 10
1183.4360773408816
 20
342.84531283951003
 10
1182.4772462052224
 20
342.55191805372345
 10
1181.5236074396846
 20
342.242062035709
 10
1180.5754436280156
 20
341.915836602492
 10
1179.633035731616
 20
341.57333842170885
 10
1178.696663006284
 20
341.2146689829623
 10
1177.766602919467
 20
340.83993456774766
 10
1176.8431310680412
 20
340.4492462179597
 10
1175.9265210966457
 20
340.0427197029881
 10
1175.0170446165978
 20
339.62047548541284
 10
1174.1149711254063
 20
339.18263868530846
 10
1173.220567926915
 20
338.72933904316795
 10
1172.3341000520943
 20
338.26071088145846
 10
1171.4558301805073
 20
337.776893064818
 10
1170.5860185624715
 20
337.2780289589073
 10
1169.7249229419413
 20
336.7642663879274
 10
1168.872798480133
 20
336.2357575908159
 10
1168.0298976799152
 20
335.6926591761356
 10
1167.196470310986
 20
335.13513207566774
 10
1166.372763335862
 20
334.5633414967246
 10
1165.5590208366966
 20
333.977456873195
 10
1164.7554839429545
 20
333.37765181533734
 10
1163.9623907599591
 20
332.76410405833514
 10
1163.179976298337
 20
332.1369954096301
 10
1162.4084724043787
 20
331.4965116950491
 10
1161.6481076913387
 20
330.8428427037395
 10
1160.8991074716912
 20
330.17618213193066
 10
1160.1616936903665
 20
329.4967275255379
 10
1159.4360848589822
 20
328.8046802216248
 10
1158.7224959910952
 20
328.1002452887431
 10
1158.0211385384875
 20
327.38363146616643
 10
1157.332220328509
 20
326.65505110203617
 10
1156.6559455024933
 20
325.9147200904383
 10
1155.9925144552662
 20
325.1628578074292
 10
1155.3421237757657
 20
324.39968704602984
 10
1154.7049661887863
 20
323.62543395020737
 10
1154.081230497872
 20
322.84032794786384
 10
1153.4711015293692
 20
322.04460168285175
 10
1152.8747600776594
 20
321.23849094603656
 10
1152.2923828515843
 20
320.4222346054269
 10
1151.7241424220852
 20
319.5960745353928
 10
1151.1702071710647
 20
318.7602555449929
 10
1150.6307412414926
 20
317.9150253054326
 10
1150.1059044887666
 20
317.0606342766734
 10
1149.5958524333432
 20
316.1973356332164
 10
1149.1007362146545
 20
315.3253851890812
 10
1148.6207025463216
 20
314.44504132200257
 10
1148.1558936726801
 20
313.5565648968677
 10
1147.706447326631
 20
312.6602191884163
 10
1147.272496688826
 20
311.75626980322653
 10
1146.8541703482051
 20
310.84498460100997
 10
1146.451592263891
 20
309.9266336152392
 10
1146.0648817284582
 20
309.00148897313096
 10
1145.6941533325846
 20
308.06982481500893
 10
1145.3395169310947
 20
307.1319172130702
 10
1145.001077610408
 20
306.18804408957885
 10
1144.678935657399
 20
305.2384851345119
 10
1144.3731865296813
 20
304.2835217226808
 10
1144.0839208273198
 20
303.32343683035435
 10
1143.8112242659852
 20
302.35851495140645
 10
1143.5551776515533
 20
301.3890420130145
 10
1143.3158568561626
 20
300.4153052909332
 10
1143.093332795729
 20
299.4375933243681
 10
1142.887671408935
 20
298.45619583047585
 10
1142.6989336376873
 20
297.471403618514
 10
1142.5271754090609
 20
296.48350850366865
 10
1142.3724476187263
 20
295.4928032205827
 10
1142.2347961158664
 20
294.49958133661283
 10
1142.1142616895927
 20
293.5041371648387
 10
1142.0108800568569
 20
292.50676567685184
 10
1141.924681851868
 20
291.50776241534925
 10
1141.8556926170143
 20
290.50742340655745
 10
1141.8039327952952
 20
289.5060450725139
 10
1141.7694177242627
 20
288.50392414323045
 10
1141.7521576314775
 20
287.50135756876614
 10
1141.7521576314775
 20
286.49864243123386
 10
1141.7694177242627
 20
285.4960758567695
 10
1141.8039327952952
 20
284.4939549274861
 10
1141.8556926170143
 20
283.49257659344255
 10
1141.924681851868
 20
282.49223758465075
 10
1142.0108800568569
 20
281.49323432314816
 10
1142.1142616895927
 20
280.4958628351613
 10
1142.2347961158664
 20
279.50041866338717
 10
1142.3724476187263
 20
278.5071967794173
 10
1142.5271754090609
 20
277.51649149633135
 10
1142.6989336376873
 20
276.52859638148595
 10
1142.887671408935
 20
275.54380416952415
 10
1143.093332795729
 20
274.56240667563185
 10
1143.3158568561626
 20
273.5846947090668
 10
1143.5551776515533
 20
272.61095798698545
 10
1143.8112242659852
 20
271.64148504859355
 10
1144.0839208273198
 20
270.67656316964565
 10
1144.3731865296813
 20
269.7164782773192
 10
1144.678935657399
 20
268.7615148654881
 10
1145.001077610408
 20
267.8119559104211
 10
1145.3395169310947
 20
266.86808278692973
 10
1145.6941533325846
 20
265.930175184991
 10
1146.0648817284582
 20
264.99851102686904
 10
1146.451592263891
 20
264.0733663847608
 10
1146.8541703482051
 20
263.15501539899003
 10
1147.272496688826
 20
262.24373019677347
 10
1147.706447326631
 20
261.33978081158364
 10
1148.1558936726801
 20
260.4434351031323
 10
1148.6207025463216
 20
259.55495867799743
 10
1149.1007362146545
 20
258.6746148109188
 10
1149.5958524333432
 20
257.8026643667836
 10
1150.1059044887666
 20
256.93936572332655
 10
1150.6307412414926
 20
256.08497469456734
 10
1151.1702071710647
 20
255.23974445500704
 10
1151.7241424220852
 20
254.4039254646072
 10
1152.2923828515843
 20
253.57776539457308
 10
1152.8747600776594
 20
252.76150905396344
 10
1153.4711015293692
 20
251.95539831714825
 10
1154.081230497872
 20
251.15967205213616
 10
1154.7049661887863
 20
250.37456604979263
 10
1155.3421237757657
 20
249.60031295397016
 10
1155.9925144552665
 20
248.83714219257078
 10
1156.6559455024933
 20
248.08527990956168
 10
1157.332220328509
 20
247.3449488979638
 10
1158.0211385384875
 20
246.61636853383357
 10
1158.7224959910952
 20
245.8997547112569
 10
1159.4360848589822
 20
245.19531977837522
 10
1160.1616936903665
 20
244.5032724744621
 10
1160.8991074716912
 20
243.8238178680693
 10
1161.6481076913387
 20
243.1571572962605
 10
1162.4084724043787
 20
242.50348830495088
 10
1163.179976298337
 20
241.86300459036988
 10
1163.9623907599591
 20
241.2358959416649
 10
1164.7554839429545
 20
240.62234818466266
 10
1165.5590208366966
 20
240.02254312680498
 10
1166.372763335862
 20
239.4366585032754
 10
1167.196470310986
 20
238.86486792433226
 10
1168.0298976799152
 20
238.30734082386442
 10
1168.872798480133
 20
237.76424240918408
 10
1169.7249229419413
 20
237.23573361207258
 10
1170.5860185624715
 20
236.72197104109267
 10
1171.4558301805073
 20
236.223106935182
 10
1172.3341000520943
 20
235.73928911854156
 10
1173.220567926915
 20
235.27066095683202
 10
1174.1149711254063
 20
234.81736131469154
 10
1175.0170446165978
 20
234.37952451458713
 10
1175.9265210966457
 20
233.9572802970119
 10
1176.8431310680412
 20
233.55075378204032
 10
1177.766602919467
 20
233.16006543225234
 10
1178.696663006284
 20
232.7853310170377
 10
1179.633035731616
 20
232.42666157829112
 10
1180.5754436280156
 20
232.08416339750798
 10
1181.5236074396846
 20
231.757937964291
 10
1182.4772462052224
 20
231.44808194627655
 10
1183.4360773408816
 20
231.15468716048997
 10
1184.3998167243033
 20
230.87784054613832
 10
1185.3681787787093
 20
230.61762413884827
 10
1186.3408765575236
 20
230.3741150463572
 10
1187.317621829402
 20
230.14738542566454
 10
1188.2981251636406
 20
229.9375024616502
 10
1189.2820960159402
 20
229.74452834716604
 10
1190.2692428145015
 20
229.5685202646069
 10
1191.259273046424
 20
229.40953036896616
 10
1192.251893344383
 20
229.26760577238127
 10
1193.2468095735621
 20
229.1427885301731
 10
1194.2437269188101
 20
229.03511562838437
 10
1195.2423499720028
 20
228.9446189728196
 10
1196.2423828195774
 20
228.8713253795909
 10
1197.2435291302183
 20
228.8152565671718
 10
1198.2454922426675
 20
228.77642914996144
 10
1199.2479752536308
 20
228.7548546333615
 10
1200.2506811057563
 20
228.7505394103669
 10
1201.25331267566
 20
228.76348475967137
 10
1202.255572861969
 20
228.79368684528845
 10
1203.2571646733602
 20
228.84113671768839
 10
1204.257791316563
 20
228.90582031644993
 10
1205.2571562843082
 20
228.9877184744268
 10
1206.2549634431875
 20
229.0868069234273
 10
1207.2509171214056
 20
229.20305630140544
 10
1208.2447221963928
 20
229.3364321611617
 10
1209.2360841822576
 20
229.4868949805503
 10
1210.224709317048
 20
229.65440017419064
 10
1211.210304649801
 20
229.83889810667876
 10
1212.1925781273476
 20
230.0403341072955
 10
1213.1712386808579
 20
230.2586484862065
 10
1214.1459963120883
 20
230.4937765521497
 10
1215.116562179316
 20
230.7456486316047
 10
1216.0826486829276
 20
231.01419008943847
 10
1217.0439695506425
 20
231.2993213510215
 10
1218.0002399223408
 20
231.6009579258073
 10
1218.951176434473
 20
231.91901043236896
 10
1219.8964973040277
 20
232.25338462488457
 10
1220.8359224120295
 20
232.60398142106462
 10
1221.769173386545
 20
232.97069693151178
 10
1222.6959736851684
 20
233.35342249050603
 10
1223.6160486769697
 20
233.7520446882043
 10
1224.5291257238723
 20
234.16644540424645
 10
1225.4349342614407
 20
234.59650184275682
 10
1226.3332058790568
 20
235.0420865687313
 10
1227.2236743994536
 20
235.50306754579907
 10
1228.106075957591
 20
235.97930817534785
 10
1228.9801490788432
 20
236.47066733700098
 10
1229.8456347564806
 20
236.9769994304345
 10
1230.7022765284182
 20
237.4981544185215
 10
1231.5498205532108
 20
238.03397787179165
 10
1232.3880156852729
 20
238.58431101419168
 10
1233.2166135492967
 20
239.14899077013436
 10
1234.0353686138524
 20
239.7278498128212
 10
1234.8440382641447
 20
240.32071661382508
 10
1235.6423828739032
 20
240.92741549391775
 10
1236.4301658763907
 20
241.54776667512732
 10
1237.2071538345015
 20
242.18158633401063
 10
1237.973116509935
 20
242.82868665612375
 10
1238.7278269314197
 20
243.48887589167566
 10
1239.4710614619696
 20
244.16195841234784
 10
1240.2025998651532
 20
244.8477347692631
 10
1240.9222253703533
 20
245.54600175208662
 10
1241.6297247370026
 20
246.25655244924155
 10
1242.324888317769
 20
246.9791763092214
 10
1243.007510120681
 20
247.71365920298092
 10
1243.677387870166
 20
248.45978348738728
 10
1244.3343230669902
 20
249.21732806971232
 10
1244.9781210470762
 20
249.98606847314716
 10
1245.608591039189
 20
250.76577690331948
 10
1246.2255462214625
 20
251.5562223157939
 10
1246.8288037767618
 20
252.35717048453552
 10
1247.4181849468537
 20
253.1683840713161
 10
1247.9935150853776
 20
253.98962269604243
 10
1248.5546237095966
 20
254.82064300798618
 10
1249.101344550916
 20
255.66119875789406
 10
1249.6335156041512
 20
256.5110408709567
 10
1250.1509791755338
 20
257.36991752061493
 10
1250.6535819294402
 20
258.23757420318134
 10
1251.1411749338267
 20
259.1137538132553
 10
1251.6136137043636
 20
259.99819671990895
 10
1252.0707582472467
 20
260.8906408436211
 10
1252.5124731006822
 20
261.7908217339374
 10
1252.938627375026
 20
262.69847264783255
 10
1253.3490947915695
 20
263.6133246287521
 10
1253.7437537199585
 20
264.5351065863099
 10
1254.122487214235
 20
265.4635453766183
 10
1254.4851830474909
 20
266.39836588322635
 10
1254.8317337451233
 20
267.3392910986429
 10
1255.1620366166815
 20
268.2860422064198
 10
1255.4759937862957
 20
269.2383386637712
 10
1255.773512221681
 20
270.1958982847045
 10
1256.0545037617042
 20
271.15843732363834
 10
1256.3188851425075
 20
272.1256705594821
 10
1256.5665780221818
 20
273.0973113801534
 10
1256.7975090039815
 20
274.0730718675074
 10
1257.0116096580728
 20
275.05266288265295
 10
1257.208816541811
 20
276.035794151631
 10
1257.3890712185405
 20
277.02217435142893
 10
1257.5523202749105
 20
278.0115111963056
 10
1257.698515336702
 20
279.0035115244023
 10
1257.8276130831634
 20
279.9978813846127
 10
1257.9395752598462
 20
280.9943261236869
 10
1258.034368689941
 20
281.99255047354376
 10
1258.1119652841087
 20
282.9922586387649
 10
1258.1723420488038
 20
283.9931543842455
 10
1258.2154810930879
 20
284.9949411229751
 10
1258.241369633931
 20
285.99732200392265
 10
1258.25
 20
287.0
  0
LWPOLYLINE
  5
44
330
17
100
AcDbEntity
  8
POCKET_7.5MM
100
AcDbPolyline
 90
401
 70
1
 10
1286.0
 20
127.00000000000003
 10
1285.9893903934228
 20
128.35082928881658
 10
1285.957564191453
 20
129.70132528071912
 10
1285.9045292467295
 20
131.05115476102935
 10
1285.8302986448314
 20
132.39998467952094
 10
1285.734890701049
 20
133.74748223259465
 10
1285.6183289558649
 20
135.09331494539228
 10
1285.4806421691455
 20
136.43715075382994
 10
1285.3218643130451
 20
137.7786580865302
 10
1285.1420345636238
 20
139.11750594663206
 10
1284.9411972911819
 20
140.45336399345996
 10
1284.7194020493105
 20
141.78590262402923
 10
1284.4767035626674
 20
143.11479305437234
 10
1284.213161713472
 20
144.43970740066007
 10
1283.9288415267322
 20
145.76031876010273
 10
1283.6238131542002
 20
147.07630129160793
 10
1283.2981518570623
 20
148.38733029617748
 10
1282.9519379873707
 20
149.6930822970221
 10
1282.585256968217
 20
150.99323511937376
 10
1282.1981992726564
 20
152.28746796997817
 10
1281.7908604013833
 20
153.57546151624558
 10
1281.3633408591688
 20
154.85689796504087
 10
1280.9157461300633
 20
156.13146114109506
 10
1280.4481866513686
 20
157.3988365650161
 10
1279.9607777863896
 20
158.65871153088239
 10
1279.4536397959707
 20
159.9107751833978
 10
1278.9268978088223
 20
161.15471859459117
 10
1278.3806817906484
 20
162.3902348400394
 10
1277.8151265120778
 20
163.61701907459636
 10
1277.230371515413
 20
164.83476860760874
 10
1276.6265610801997
 20
166.04318297760105
 10
1276.0038441876277
 20
167.24196402640933
 10
1275.3623744837723
 20
168.43081597274752
 10
1274.7023102416845
 20
169.6094454851871
 10
1274.0238143223391
 20
170.77756175453192
 10
1273.3270541344518
 20
171.93487656557164
 10
1272.6122015931733
 20
173.08110436819368
 10
1271.8794330776711
 20
174.21596234783937
 10
1271.1289293876123
 20
175.33917049528327
 10
1270.360875698552
 20
176.45045167572198
 10
1269.5754615162455
 20
177.5495316971527
 10
1268.7728806298899
 20
178.63613937802603
 10
1267.9533310643094
 20
179.71000661415604
 10
1267.1170150310963
 20
180.7708684448707
 10
1266.2641388787179
 20
181.81846311838737
 10
1265.3949130416026
 20
182.85253215639585
 10
1264.5095519882195
 20
183.87282041783408
 10
1263.6082741681603
 20
184.87907616184054
 10
1262.6913019582414
 20
185.87105110986727
 10
1261.7588616076341
 20
186.84850050693905
 10
1260.8111831820431
 20
187.8111831820431
 10
1259.848500506939
 20
188.75886160763423
 10
1258.8710511098673
 20
189.6913019582414
 10
1257.8790761618404
 20
190.60827416816048
 10
1256.8728204178342
 20
191.50955198821953
 10
1255.8525321563957
 20
192.39491304160265
 10
1254.8184631183872
 20
193.26413887871792
 10
1253.7708684448705
 20
194.1170150310964
 10
1252.7100066141559
 20
194.9533310643094
 10
1251.636139378026
 20
195.7728806298898
 10
1250.5495316971526
 20
196.57546151624553
 10
1249.450451675722
 20
197.36087569855204
 10
1248.3391704952833
 20
198.12892938761235
 10
1247.2159623478394
 20
198.87943307767125
 10
1246.0811043681936
 20
199.61220159317332
 10
1244.9348765655716
 20
200.32705413445194
 10
1243.777561754532
 20
201.02381432233918
 10
1242.609445485187
 20
201.70231024168447
 10
1241.4308159727475
 20
202.36237448377227
 10
1240.2419640264093
 20
203.00384418762764
 10
1239.043182977601
 20
203.62656108019965
 10
1237.8347686076086
 20
204.23037151541294
 10
1236.6170190745963
 20
204.81512651207768
 10
1235.3902348400393
 20
205.38068179064828
 10
1234.154718594591
 20
205.9268978088224
 10
1232.9107751833976
 20
206.45363979597064
 10
1231.6587115308823
 20
206.96077778638966
 10
1230.3988365650162
 20
207.4481866513686
 10
1229.1314611410949
 20
207.91574613006344
 10
1227.8568979650408
 20
208.3633408591689
 10
1226.5754615162455
 20
208.7908604013832
 10
1225.287467969978
 20
209.19819927265638
 10
1223.9932351193736
 20
209.58525696821712
 10
1222.693082297022
 20
209.95193798737066
 10
1221.3873302961774
 20
210.29815185706227
 10
1220.0763012916077
 20
210.6238131542002
 10
1218.7603187601026
 20
210.92884152673227
 10
1217.4397074006602
 20
211.21316171347186
 10
1216.1147930543723
 20
211.47670356266724
 10
1214.7859026240292
 20
211.71940204931056
 10
1213.4533639934598
 20
211.94119729118185
 10
1212.117505946632
 20
212.14203456362395
 10
1210.7786580865302
 20
212.32186431304513
 10
1209.4371507538299
 20
212.48064216914548
 10
1208.0933149453922
 20
212.61832895586488
 10
1206.7474822325946
 20
212.734890701049
 10
1205.399984679521
 20
212.83029864483137
 10
1204.0511547610292
 20
212.90452924672942
 10
1202.701325280719
 20
212.95756419145292
 10
1201.3508292888166
 20
212.9893903934228
 10
1200.0
 20
213.0
 10
1198.6491707111834
 20
212.9893903934228
 10
1197.298674719281
 20
212.95756419145292
 10
1195.9488452389708
 20
212.9045292467294
 10
1194.600015320479
 20
212.83029864483137
 10
1193.2525177674054
 20
212.734890701049
 10
1191.9066850546078
 20
212.61832895586488
 10
1190.5628492461701
 20
212.48064216914543
 10
1189.2213419134698
 20
212.32186431304507
 10
1187.882494053368
 20
212.14203456362395
 10
1186.54663600654
 20
211.94119729118182
 10
1185.2140973759706
 20
211.71940204931053
 10
1183.8852069456275
 20
211.4767035626672
 10
1182.5602925993398
 20
211.21316171347183
 10
1181.2396812398972
 20
210.92884152673224
 10
1179.923698708392
 20
210.62381315420018
 10
1178.6126697038223
 20
210.29815185706227
 10
1177.306917702978
 20
209.95193798737063
 10
1176.0067648806264
 20
209.5852569682171
 10
1174.7125320300217
 20
209.19819927265638
 10
1173.4245384837545
 20
208.7908604013832
 10
1172.1431020349592
 20
208.3633408591689
 10
1170.868538858905
 20
207.91574613006338
 10
1169.6011634349838
 20
207.4481866513686
 10
1168.3412884691177
 20
206.9607777863896
 10
1167.0892248166022
 20
206.45363979597064
 10
1165.8452814054087
 20
205.92689780882236
 10
1164.6097651599607
 20
205.38068179064828
 10
1163.3829809254037
 20
204.81512651207765
 10
1162.1652313923912
 20
204.23037151541294
 10
1160.956817022399
 20
203.62656108019962
 10
1159.7580359735907
 20
203.00384418762764
 10
1158.5691840272525
 20
202.36237448377221
 10
1157.390554514813
 20
201.70231024168442
 10
1156.222438245468
 20
201.02381432233915
 10
1155.0651234344284
 20
200.3270541344519
 10
1153.9188956318062
 20
199.61220159317327
 10
1152.7840376521606
 20
198.87943307767122
 10
1151.6608295047167
 20
198.1289293876123
 10
1150.549548324278
 20
197.360875698552
 10
1149.4504683028472
 20
196.57546151624547
 10
1148.363860621974
 20
195.77288062988978
 10
1147.289993385844
 20
194.95333106430934
 10
1146.2291315551295
 20
194.11701503109634
 10
1145.1815368816126
 20
193.26413887871786
 10
1144.147467843604
 20
192.39491304160265
 10
1143.1271795821658
 20
191.50955198821947
 10
1142.1209238381596
 20
190.60827416816045
 10
1141.1289488901327
 20
189.69130195824138
 10
1140.151499493061
 20
188.7588616076342
 10
1139.1888168179569
 20
187.81118318204307
 10
1138.2411383923657
 20
186.84850050693905
 10
1137.3086980417586
 20
185.8710511098672
 10
1136.3917258318395
 20
184.8790761618405
 10
1135.4904480117805
 20
183.87282041783405
 10
1134.6050869583974
 20
182.8525321563958
 10
1133.7358611212821
 20
181.8184631183873
 10
1132.8829849689037
 20
180.77086844487062
 10
1132.0466689356906
 20
179.710006614156
 10
1131.2271193701101
 20
178.63613937802603
 10
1130.4245384837545
 20
177.54953169715264
 10
1129.639124301448
 20
176.4504516757219
 10
1128.8710706123877
 20
175.3391704952832
 10
1128.1205669223286
 20
174.2159623478393
 10
1127.3877984068267
 20
173.08110436819368
 10
1126.672945865548
 20
171.93487656557153
 10
1125.9761856776609
 20
170.7775617545319
 10
1125.2976897583155
 20
169.60944548518705
 10
1124.6376255162277
 20
168.43081597274752
 10
1123.9961558123723
 20
167.24196402640928
 10
1123.3734389198003
 20
166.04318297760096
 10
1122.769628484587
 20
164.83476860760868
 10
1122.1848734879222
 20
163.61701907459627
 10
1121.6193182093516
 20
162.39023484003937
 10
1121.0731021911777
 20
161.15471859459112
 10
1120.5463602040293
 20
159.91077518339773
 10
1120.0392222136104
 20
158.6587115308823
 10
1119.5518133486314
 20
157.3988365650161
 10
1119.0842538699367
 20
156.131461141095
 10
1118.6366591408312
 20
154.8568979650408
 10
1118.2091395986167
 20
153.57546151624547
 10
1117.8018007273436
 20
152.2874679699781
 10
1117.4147430317828
 20
150.99323511937365
 10
1117.0480620126293
 20
149.69308229702204
 10
1116.7018481429377
 20
148.38733029617754
 10
1116.3761868457998
 20
147.07630129160785
 10
1116.0711584732678
 20
145.76031876010262
 10
1115.786838286528
 20
144.43970740066004
 10
1115.5232964373329
 20
143.11479305437234
 10
1115.2805979506895
 20
141.7859026240292
 10
1115.0588027088181
 20
140.45336399345982
 10
1114.8579654363762
 20
139.1175059466321
 10
1114.6781356869549
 20
137.77865808653013
 10
1114.5193578308545
 20
136.4371507538299
 10
1114.3816710441351
 20
135.09331494539222
 10
1114.265109298951
 20
133.74748223259462
 10
1114.1697013551686
 20
132.3999846795209
 10
1114.0954707532705
 20
131.05115476102927
 10
1114.042435808547
 20
129.701325280719
 10
1114.0106096065772
 20
128.35082928881653
 10
1114.0
 20
127.0
 10
1114.0106096065772
 20
125.64917071118339
 10
1114.042435808547
 20
124.29867471928097
 10
1114.0954707532705
 20
122.9488452389707
 10
1114.1697013551686
 20
121.60001532047903
 10
1114.265109298951
 20
120.25251776740537
 10
1114.3816710441351
 20
118.90668505460776
 10
1114.5193578308545
 20
117.56284924617015
 10
1114.6781356869549
 20
116.22134191346984
 10
1114.8579654363762
 20
114.88249405336788
 10
1115.0588027088181
 20
113.5466360065401
 10
1115.2805979506895
 20
112.21409737597078
 10
1115.5232964373329
 20
110.88520694562766
 10
1115.786838286528
 20
109.5602925993399
 10
1116.0711584732678
 20
108.2396812398973
 10
1116.3761868457998
 20
106.92369870839212
 10
1116.7018481429377
 20
105.61266970382245
 10
1117.0480620126293
 20
104.30691770297794
 10
1117.414743031783
 20
103.00676488062626
 10
1117.8018007273436
 20
101.71253203002185
 10
1118.2091395986167
 20
100.42453848375452
 10
1118.6366591408312
 20
99.14310203495911
 10
1119.0842538699367
 20
97.86853885890491
 10
1119.5518133486314
 20
96.60116343498386
 10
1120.0392222136104
 20
95.34128846911764
 10
1120.5463602040293
 20
94.08922481660227
 10
1121.0731021911777
 20
92.84528140540883
 10
1121.6193182093516
 20
91.60976515996066
 10
1122.1848734879222
 20
90.38298092540373
 10
1122.769628484587
 20
89.16523139239129
 10
1123.3734389198005
 20
87.95681702239892
 10
1123.9961558123723
 20
86.75803597359065
 10
1124.6376255162277
 20
85.56918402725249
 10
1125.2976897583155
 20
84.39055451481293
 10
1125.9761856776609
 20
83.22243824546808
 10
1126.6729458655482
 20
82.06512343442839
 10
1127.3877984068267
 20
80.9188956318063
 10
1128.1205669223289
 20
79.78403765216065
 10
1128.8710706123877
 20
78.66082950471676
 10
1129.639124301448
 20
77.54954832427799
 10
1130.4245384837545
 20
76.4504683028473
 10
1131.2271193701104
 20
75.36386062197394
 10
1132.0466689356906
 20
74.28999338584404
 10
1132.8829849689037
 20
73.22913155512933
 10
1133.7358611212821
 20
72.18153688161267
 10
1134.6050869583974
 20
71.1474678436042
 10
1135.4904480117805
 20
70.12717958216592
 10
1136.3917258318395
 20
69.12092383815946
 10
1137.3086980417586
 20
68.12894889013276
 10
1138.2411383923659
 20
67.15149949306092
 10
1139.1888168179569
 20
66.1888168179569
 10
1140.151499493061
 20
65.24113839236574
 10
1141.1289488901327
 20
64.30869804175862
 10
1142.1209238381596
 20
63.39172583183955
 10
1143.127179582166
 20
62.49044801178047
 10
1144.1474678436043
 20
61.60508695839731
 10
1145.1815368816126
 20
60.7358611212821
 10
1146.2291315551292
 20
59.88298496890364
 10
1147.2899933858441
 20
59.04666893569062
 10
1148.363860621974
 20
58.22711937011023
 10
1149.4504683028474
 20
57.42453848375452
 10
1150.549548324278
 20
56.63912430144799
 10
1151.6608295047167
 20
55.87107061238767
 10
1152.7840376521608
 20
55.12056692232875
 10
1153.9188956318064
 20
54.387798406826676
 10
1155.0651234344284
 20
53.67294586554806
 10
1156.222438245468
 20
52.97618567766082
 10
1157.390554514813
 20
52.297689758315556
 10
1158.5691840272525
 20
51.63762551622773
 10
1159.7580359735907
 20
50.996155812372365
 10
1160.956817022399
 20
50.373438919800364
 10
1162.1652313923914
 20
49.76962848458703
 10
1163.382980925404
 20
49.1848734879223
 10
1164.6097651599607
 20
48.61931820935169
 10
1165.845281405409
 20
48.07310219117761
 10
1167.0892248166024
 20
47.54636020402934
 10
1168.3412884691177
 20
47.03922221361036
 10
1169.6011634349838
 20
46.5518133486314
 10
1170.868538858905
 20
46.08425386993659
 10
1172.1431020349592
 20
45.6366591408311
 10
1173.4245384837545
 20
45.20913959861677
 10
1174.712532030022
 20
44.801800727343604
 10
1176.0067648806262
 20
44.41474303178289
 10
1177.306917702978
 20
44.04806201262936
 10
1178.6126697038226
 20
43.701848142937735
 10
1179.923698708392
 20
43.37618684579981
 10
1181.2396812398974
 20
43.07115847326773
 10
1182.5602925993398
 20
42.78683828652815
 10
1183.8852069456277
 20
42.523296437332775
 10
1185.2140973759708
 20
42.28059795068944
 10
1186.5466360065402
 20
42.05880270881815
 10
1187.882494053368
 20
41.85796543637605
 10
1189.2213419134698
 20
41.67813568695492
 10
1190.5628492461701
 20
41.519357830854545
 10
1191.9066850546078
 20
41.38167104413512
 10
1193.2525177674054
 20
41.26510929895099
 10
1194.600015320479
 20
41.16970135516864
 10
1195.9488452389708
 20
41.095470753270575
 10
1197.298674719281
 20
41.04243580854708
 10
1198.6491707111834
 20
41.01060960657719
 10
1200.0
 20
41.0
 10
1201.3508292888166
 20
41.01060960657719
 10
1202.701325280719
 20
41.04243580854708
 10
1204.0511547610292
 20
41.09547075327059
 10
1205.399984679521
 20
41.16970135516864
 10
1206.7474822325948
 20
41.26510929895099
 10
1208.0933149453922
 20
41.38167104413512
 10
1209.4371507538299
 20
41.51935783085456
 10
1210.7786580865302
 20
41.67813568695492
 10
1212.117505946632
 20
41.85796543637605
 10
1213.4533639934598
 20
42.05880270881815
 10
1214.7859026240292
 20
42.28059795068944
 10
1216.1147930543723
 20
42.523296437332775
 10
1217.4397074006602
 20
42.78683828652815
 10
1218.7603187601026
 20
43.07115847326773
 10
1220.076301291608
 20
43.37618684579982
 10
1221.3873302961774
 20
43.701848142937735
 10
1222.693082297022
 20
44.04806201262936
 10
1223.9932351193738
 20
44.414743031782905
 10
1225.287467969978
 20
44.801800727343604
 10
1226.5754615162455
 20
45.2091395986168
 10
1227.8568979650408
 20
45.6366591408311
 10
1229.131461141095
 20
46.08425386993662
 10
1230.3988365650162
 20
46.55181334863141
 10
1231.6587115308823
 20
47.03922221361039
 10
1232.9107751833976
 20
47.54636020402934
 10
1234.1547185945913
 20
48.073102191177625
 10
1235.3902348400393
 20
48.61931820935172
 10
1236.6170190745963
 20
49.18487348792233
 10
1237.8347686076088
 20
49.76962848458706
 10
1239.0431829776012
 20
50.37343891980038
 10
1240.2419640264093
 20
50.996155812372365
 10
1241.4308159727475
 20
51.63762551622776
 10
1242.609445485187
 20
52.29768975831557
 10
1243.777561754532
 20
52.97618567766085
 10
1244.9348765655716
 20
53.67294586554807
 10
1246.0811043681938
 20
54.387798406826704
 10
1247.2159623478394
 20
55.12056692232876
 10
1248.3391704952833
 20
55.87107061238767
 10
1249.450451675722
 20
56.63912430144799
 10
1250.5495316971528
 20
57.42453848375452
 10
1251.636139378026
 20
58.22711937011023
 10
1252.710006614156
 20
59.04666893569062
 10
1253.7708684448708
 20
59.882984968903656
 10
1254.8184631183874
 20
60.73586112128213
 10
1255.8525321563957
 20
61.605086958397365
 10
1256.872820417834
 20
62.49044801178047
 10
1257.8790761618404
 20
63.39172583183958
 10
1258.8710511098673
 20
64.30869804175862
 10
1259.848500506939
 20
65.2411383923658
 10
1260.8111831820431
 20
66.18881681795692
 10
1261.7588616076343
 20
67.15149949306098
 10
1262.6913019582414
 20
68.12894889013276
 10
1263.6082741681605
 20
69.12092383815953
 10
1264.5095519882195
 20
70.12717958216595
 10
1265.3949130416026
 20
71.14746784360423
 10
1266.2641388787179
 20
72.18153688161269
 10
1267.1170150310963
 20
73.22913155512938
 10
1267.9533310643094
 20
74.28999338584404
 10
1268.7728806298896
 20
75.36386062197396
 10
1269.5754615162455
 20
76.45046830284733
 10
1270.360875698552
 20
77.54954832427804
 10
1271.1289293876123
 20
78.66082950471679
 10
1271.8794330776714
 20
79.78403765216066
 10
1272.6122015931733
 20
80.91889563180631
 10
1273.3270541344518
 20
82.06512343442839
 10
1274.0238143223391
 20
83.22243824546808
 10
1274.7023102416845
 20
84.39055451481295
 10
1275.3623744837723
 20
85.5691840272525
 10
1276.0038441876277
 20
86.75803597359068
 10
1276.6265610801997
 20
87.95681702239901
 10
1277.230371515413
 20
89.16523139239129
 10
1277.8151265120778
 20
90.38298092540379
 10
1278.3806817906484
 20
91.60976515996063
 10
1278.9268978088223
 20
92.8452814054089
 10
1279.4536397959707
 20
94.08922481660227
 10
1279.9607777863896
 20
95.34128846911773
 10
1280.4481866513686
 20
96.6011634349839
 10
1280.9157461300633
 20
97.86853885890498
 10
1281.3633408591688
 20
99.14310203495916
 10
1281.7908604013833
 20
100.42453848375456
 10
1282.1981992726564
 20
101.71253203002186
 10
1282.585256968217
 20
103.00676488062632
 10
1282.9519379873707
 20
104.30691770297796
 10
1283.2981518570623
 20
105.61266970382248
 10
1283.6238131542002
 20
106.92369870839215
 10
1283.9288415267322
 20
108.23968123989732
 10
1284.213161713472
 20
109.56029259933995
 10
1284.4767035626674
 20
110.88520694562767
 10
1284.7194020493105
 20
112.2140973759708
 10
1284.9411972911819
 20
113.54663600654014
 10
1285.1420345636238
 20
114.8824940533679
 10
1285.3218643130451
 20
116.22134191346983
 10
1285.4806421691455
 20
117.56284924617013
 10
1285.6183289558649
 20
118.90668505460776
 10
1285.734890701049
 20
120.25251776740537
 10
1285.8302986448314
 20
121.60001532047905
 10
1285.9045292467295
 20
122.94884523897076
 10
1285.957564191453
 20
124.29867471928097
 10
1285.9893903934228
 20
125.64917071118344
 10
1286.0
 20
127.0
  0
TEXT
  5
45
330
17
100
AcDbEntity
  8
NOTES
100
AcDbText
 10
1113.0
 20
25.0
 30
0.0
 40
12.0
  1
baffle
 11
1113.0
 21
25.0
 31
0.0
100
AcDbText
  0
LWPOLYLINE
  5
46
330
17
100
AcDbEntity
  8
CUT_OUTSIDE
100
AcDbPolyline
 90
5
 70
1
 10
1309.0
 20
15.0
 10
1503.0
 20
15.0
 10
1503.0
 20
379.0
 10
1309.0
 20
379.0
 10
1309.0
 20
15.0
  0
CIRCLE
  5
47
330
17
100
AcDbEntity
  8
CUT_INSIDE
100
AcDbCircle
 10
1349.7850108956695
 20
70.78501089566947
 30
0.0
 40
2.5
  0
CIRCLE
  5
48
330
17
100
AcDbEntity
  8
CUT_INSIDE
100
AcDbCircle
 10
1349.7850108956695
 20
183.21498910433053
 30
0.0
 40
2.5
  0
CIRCLE
  5
49
330
17
100
AcDbEntity
  8
CUT_INSIDE
100
AcDbCircle
 10
1406.0
 20
127.0
 30
0.0
 40
72.45
  0
CIRCLE
  5
4A
330
17
100
AcDbEntity
  8
CUT_INSIDE
100
AcDbCircle
 10
1462.2149891043305
 20
70.78501089566946
 30
0.0
 40
2.5
  0
CIRCLE
  5
4B
330
17
100
AcDbEntity
  8
CUT_INSIDE
100
AcDbCircle
 10
1462.2149891043305
 20
183.21498910433053
 30
0.0
 40
2.5
  0
CIRCLE
  5
4C
330
17
100
AcDbEntity
  8
CUT_INSIDE
100
AcDbCircle
 10
1406.0
 20
287.0
 30
0.0
 40
50.2
  0
LWPOLYLINE
  5
4D
330
17
100
AcDbEntity
  8
POCKET_5MM
100
AcDbPolyline
 90
366
 70
1
 10
1464.25
 20
287.0
 10
1464.241369633931
 20
288.00267799607735
 10
1464.2154810930879
 20
289.00505887702496
 10
1464.1723420488038
 20
290.0068456157545
 10
1464.1119652841087
 20
291.0077413612351
 10
1464.034368689941
 20
292.0074495264563
 10
1463.9395752598462
 20
293.0056738763131
 10
1463.8276130831634
 20
294.0021186153873
 10
1463.698515336702
 20
294.9964884755977
 10
1463.5523202749105
 20
295.9884888036944
 10
1463.3890712185405
 20
296.97782564857107
 10
1463.208816541811
 20
297.964205848369
 10
1463.0116096580728
 20
298.94733711734705
 10
1462.7975090039815
 20
299.9269281324926
 10
1462.5665780221818
 20
300.9026886198466
 10
1462.3188851425075
 20
301.87432944051784
 10
1462.0545037617042
 20
302.84156267636166
 10
1461.7735122216811
 20
303.8041017152955
 10
1461.4759937862957
 20
304.7616613362289
 10
1461.1620366166815
 20
305.7139577935802
 10
1460.8317337451233
 20
306.6607089013571
 10
1460.4851830474909
 20
307.60163411677365
 10
1460.122487214235
 20
308.5364546233817
 10
1459.7437537199585
 20
309.4648934136901
 10
1459.3490947915695
 20
310.3866753712479
 10
1458.938627375026
 20
311.3015273521675
 10
1458.5124731006822
 20
312.2091782660626
 10
1458.0707582472467
 20
313.10935915637896
 10
1457.6136137043636
 20
314.0018032800911
 10
1457.1411749338267
 20
314.8862461867447
 10
1456.6535819294402
 20
315.76242579681866
 10
1456.1509791755338
 20
316.6300824793851
 10
1455.6335156041512
 20
317.4889591290433
 10
1455.101344550916
 20
318.338801242106
 10
1454.5546237095966
 20
319.1793569920139
 10
1453.9935150853776
 20
320.0103773039576
 10
1453.4181849468537
 20
320.8316159286839
 10
1452.8288037767618
 20
321.6428295154645
 10
1452.2255462214625
 20
322.4437776842061
 10
1451.608591039189
 20
323.2342230966806
 10
1450.9781210470762
 20
324.01393152685284
 10
1450.33432306699
 20
324.7826719302877
 10
1449.677387870166
 20
325.5402165126127
 10
1449.007510120681
 20
326.2863407970191
 10
1448.324888317769
 20
327.02082369077857
 10
1447.6297247370026
 20
327.7434475507585
 10
1446.9222253703533
 20
328.4539982479134
 10
1446.2025998651532
 20
329.15226523073693
 10
1445.4710614619696
 20
329.8380415876522
 10
1444.7278269314197
 20
330.51112410832434
 10
1443.973116509935
 20
331.17131334387625
 10
1443.2071538345015
 20
331.8184136659894
 10
1442.4301658763907
 20
332.4522333248727
 10
1441.6423828739032
 20
333.0725845060823
 10
1440.8440382641447
 20
333.6792833861749
 10
1440.0353686138524
 20
334.2721501871788
 10
1439.2166135492967
 20
334.85100922986567
 10
1438.3880156852729
 20
335.41568898580834
 10
1437.5498205532108
 20
335.96602212820835
 10
1436.7022765284182
 20
336.5018455814785
 10
1435.8456347564806
 20
337.0230005695655
 10
1434.9801490788432
 20
337.529332662999
 10
1434.106075957591
 20
338.02069182465215
 10
1433.2236743994536
 20
338.49693245420093
 10
1432.3332058790568
 20
338.9579134312687
 10
1431.4349342614407
 20
339.4034981572432
 10
1430.5291257238723
 20
339.8335545957535
 10
1429.6160486769697
 20
340.2479553117957
 10
1428.6959736851684
 20
340.64657750949397
 10
1427.7691733865447
 20
341.0293030684882
 10
1426.8359224120295
 20
341.3960185789354
 10
1425.8964973040274
 20
341.7466153751154
 10
1424.951176434473
 20
342.08098956763104
 10
1424.0002399223406
 20
342.3990420741927
 10
1423.0439695506425
 20
342.7006786489785
 10
1422.0826486829276
 20
342.9858099105615
 10
1421.116562179316
 20
343.2543513683953
 10
1420.1459963120883
 20
343.5062234478503
 10
1419.1712386808579
 20
343.7413515137935
 10
1418.1925781273476
 20
343.9596658927045
 10
1417.210304649801
 20
344.16110189332124
 10
1416.224709317048
 20
344.34559982580936
 10
1415.2360841822576
 20
344.5131050194497
 10
1414.2447221963928
 20
344.66356783883833
 10
1413.2509171214056
 20
344.79694369859453
 10
1412.2549634431875
 20
344.9131930765727
 10
1411.2571562843082
 20
345.0122815255732
 10
1410.257791316563
 20
345.09417968355007
 10
1409.2571646733602
 20
345.15886328231164
 10
1408.255572861969
 20
345.20631315471155
 10
1407.2533126756598
 20
345.23651524032863
 10
1406.2506811057563
 20
345.2494605896331
 10
1405.2479752536308
 20
345.2451453666385
 10
1404.2454922426675
 20
345.2235708500386
 10
1403.2435291302183
 20
345.1847434328282
 10
1402.2423828195774
 20
345.1286746204091
 10
1401.2423499720028
 20
345.0553810271804
 10
1400.2437269188104
 20
344.96488437161565
 10
1399.2468095735621
 20
344.8572114698269
 10
1398.251893344383
 20
344.7323942276187
 10
1397.259273046424
 20
344.59046963103384
 10
1396.2692428145015
 20
344.4314797353931
 10
1395.2820960159402
 20
344.255471652834
 10
1394.2981251636404
 20
344.0624975383498
 10
1393.317621829402
 20
343.85261457433546
 10
1392.3408765575236
 20
343.6258849536428
 10
1391.3681787787093
 20
343.38237586115173
 10
1390.3998167243033
 20
343.1221594538617
 10
1389.4360773408816
 20
342.84531283951003
 10
1388.4772462052224
 20
342.55191805372345
 10
1387.5236074396846
 20
342.242062035709
 10
1386.5754436280156
 20
341.915836602492
 10
1385.633035731616
 20
341.57333842170885
 10
1384.696663006284
 20
341.2146689829623
 10
1383.766602919467
 20
340.83993456774766
 10
1382.8431310680412
 20
340.4492462179597
 10
1381.9265210966457
 20
340.0427197029881
 10
1381.0170446165978
 20
339.62047548541284
 10
1380.1149711254063
 20
339.18263868530846
 10
1379.220567926915
 20
338.72933904316795
 10
1378.3341000520943
 20
338.26071088145846
 10
1377.4558301805073
 20
337.776893064818
 10
1376.5860185624715
 20
337.2780289589073
 10
1375.7249229419413
 20
336.7642663879274
 10
1374.872798480133
 20
336.2357575908159
 10
1374.0298976799152
 20
335.6926591761356
 10
1373.196470310986
 20
335.13513207566774
 10
1372.372763335862
 20
334.5633414967246
 10
1371.5590208366966
 20
333.977456873195
 10
1370.7554839429545
 20
333.37765181533734
 10
1369.9623907599591
 20
332.76410405833514
 10
1369.179976298337
 20
332.1369954096301
 10
1368.4084724043787
 20
331.4965116950491
 10
1367.6481076913387
 20
330.8428427037395
 10
1366.8991074716912
 20
330.17618213193066
 10
1366.1616936903665
 20
329.4967275255379
 10
1365.4360848589822
 20
328.8046802216248
 10
1364.7224959910952
 20
328.1002452887431
 10
1364.0211385384875
 20
327.38363146616643
 10
1363.332220328509
 20
326.65505110203617
 10
1362.6559455024933
 20
325.9147200904383
 10
1361.9925144552662
 20
325.1628578074292
 10
1361.3421237757657
 20
324.39968704602984
 10
1360.7049661887863
 20
323.62543395020737
 10
1360.081230497872
 20
322.84032794786384
 10
1359.4711015293692
 20
322.04460168285175
 10
1358.8747600776594
 20
321.23849094603656
 10
1358.2923828515843
 20
320.4222346054269
 10
1357.7241424220852
 20
319.5960745353928
 10
1357.1702071710647
 20
318.7602555449929
 10
1356.6307412414926
 20
317.9150253054326
 10
1356.1059044887666
 20
317.0606342766734
 10
1355.5958524333432
 20
316.1973356332164
 10
1355.1007362146545
 20
315.3253851890812
 10
1354.6207025463216
 20
314.44504132200257
 10
1354.1558936726801
 20
313.5565648968677
 10
1353.706447326631
 20
312.6602191884163
 10
1353.272496688826
 20
311.75626980322653
 10
1352.8541703482051
 20
310.84498460100997
 10
1352.451592263891
 20
309.9266336152392
 10
1352.0648817284582
 20
309.00148897313096
 10
1351.6941533325846
 20
308.06982481500893
 10
1351.3395169310947
 20
307.1319172130702
 10
1351.001077610408
 20
306.18804408957885
 10
1350.678935657399
 20
305.2384851345119
 10
1350.3731865296813
 20
304.2835217226808
 10
1350.0839208273198
 20
303.32343683035435
 10
1349.8112242659852
 20
302.35851495140645
 10
1349.5551776515533
 20
301.3890420130145
 10
1349.3158568561626
 20
300.4153052909332
 10
1349.093332795729
 20
299.4375933243681
 10
1348.887671408935
 20
298.45619583047585
 10
1348.6989336376873
 20
297.471403618514
 10
1348.5271754090609
 20
296.48350850366865
 10
1348.3724476187263
 20
295.4928032205827
 10
1348.2347961158664
 20
294.49958133661283
 10
1348.1142616895927
 20
293.5041371648387
 10
1348.0108800568569
 20
292.50676567685184
 10
1347.924681851868
 20
291.50776241534925
 10
1347.8556926170143
 20
290.50742340655745
 10
1347.8039327952952
 20
289.5060450725139
 10
1347.7694177242627
 20
288.50392414323045
 10
1347.7521576314775
 20
287.50135756876614
 10
1347.7521576314775
 20
286.49864243123386
 10
1347.7694177242627
 20
285.4960758567695
 10
1347.8039327952952
 20
284.4939549274861
 10
1347.8556926170143
 20
283.49257659344255
 10
1347.924681851868
 20
282.49223758465075
 10
1348.0108800568569
 20
281.49323432314816
 10
1348.1142616895927
 20
280.4958628351613
 10
1348.2347961158664
 20
279.50041866338717
 10
1348.3724476187263
 20
278.5071967794173
 10
1348.5271754090609
 20
277.51649149633135
 10
1348.6989336376873
 20
276.52859638148595
 10
1348.887671408935
 20
275.54380416952415
 10
1349.093332795729
 20
274.56240667563185
 10
1349.3158568561626
 20
273.5846947090668
 10
1349.5551776515533
 20
272.61095798698545
 10
1349.8112242659852
 20
271.64148504859355
 10
1350.0839208273198
 20
270.67656316964565
 10
1350.3731865296813
 20
269.7164782773192
 10
1350.678935657399
 20
268.7615148654881
 10
1351.001077610408
 20
267.8119559104211
 10
1351.3395169310947
 20
266.86808278692973
 10
1351.6941533325846
 20
265.930175184991
 10
1352.0648817284582
 20
264.99851102686904
 10
1352.451592263891
 20
264.0733663847608
 10
1352.8541703482051
 20
263.15501539899003
 10
1353.272496688826
 20
262.24373019677347
 10
1353.706447326631
 20
261.33978081158364
 10
1354.1558936726801
 20
260.4434351031323
 10
1354.6207025463216
 20
259.55495867799743
 10
1355.1007362146545
 20
258.6746148109188
 10
1355.5958524333432
 20
257.8026643667836
 10
1356.1059044887666
 20
256.93936572332655
 10
1356.6307412414926
 20
256.08497469456734
 10
1357.1702071710647
 20
255.23974445500704
 10
1357.7241424220852
 20
254.4039254646072
 10
1358.2923828515843
 20
253.57776539457308
 10
1358.8747600776594
 20
252.76150905396344
 10
1359.4711015293692
 20
251.95539831714825
 10
1360.081230497872
 20
251.15967205213616
 10
1360.7049661887863
 20
250.37456604979263
 10
1361.3421237757657
 20
249.60031295397016
 10
1361.9925144552665
 20
248.83714219257078
 10
1362.6559455024933
 20
248.08527990956168
 10
1363.332220328509
 20
247.3449488979638
 10
1364.0211385384875
 20
246.61636853383357
 10
1364.7224959910952
 20
245.8997547112569
 10
1365.4360848589822
 20
245.19531977837522
 10
1366.1616936903665
 20
244.5032724744621
 10
1366.8991074716912
 20
243.8238178680693
 10
1367.6481076913387
 20
243.1571572962605
 10
1368.4084724043787
 20
242.50348830495088
 10
1369.179976298337
 20
241.86300459036988
 10
1369.9623907599591
 20
241.2358959416649
 10
1370.7554839429545
 20
240.62234818466266
 10
1371.5590208366966
 20
240.02254312680498
 10
1372.372763335862
 20
239.4366585032754
 10
1373.196470310986
 20
238.86486792433226
 10
1374.0298976799152
 20
238.30734082386442
 10
1374.872798480133
 20
237.76424240918408
 10
1375.7249229419413
 20
237.23573361207258
 10
1376.5860185624715
 20
236.72197104109267
 10
1377.4558301805073
 20
236.223106935182
 10
1378.3341000520943
 20
235.73928911854156
 10
1379.220567926915
 20
235.27066095683202
 10
1380.1149711254063
 20
234.81736131469154
 10
1381.0170446165978
 20
234.37952451458713
 10
1381.9265210966457
 20
233.9572802970119
 10
1382.8431310680412
 20
233.55075378204032
 10
1383.766602919467
 20
233.16006543225234
 10
1384.696663006284
 20
232.7853310170377
 10
1385.633035731616
 20
232.42666157829112
 10
1386.5754436280156
 20
232.08416339750798
 10
1387.5236074396846
 20
231.757937964291
 10
1388.4772462052224
 20
231.44808194627655
 10
1389.4360773408816
 20
231.15468716048997
 10
1390.3998167243033
 20
230.87784054613832
 10
1391.3681787787093
 20
230.61762413884827
 10
1392.3408765575236
 20
230.3741150463572
 10
1393.317621829402
 20
230.14738542566454
 10
1394.2981251636406
 20
229.9375024616502
 10
1395.2820960159402
 20
229.74452834716604
 10
1396.2692428145015
 20
229.5685202646069
 10
1397.259273046424
 20
229.40953036896616
 10
1398.251893344383
 20
229.26760577238127
 10
1399.2468095735621
 20
229.1427885301731
 10
1400.2437269188101
 20
229.03511562838437
 10
1401.2423499720028
 20
228.9446189728196
 10
1402.2423828195774
 20
228.8713253795909
 10
1403.2435291302183
 20
228.8152565671718
 10
1404.2454922426675
 20
228.77642914996144
 10
1405.2479752536308
 20
228.7548546333615
 10
1406.2506811057563
 20
228.7505394103669
 10
1407.25331267566
 20
228.76348475967137
 10
1408.255572861969
 20
228.79368684528845
 10
1409.2571646733602
 20
228.84113671768839
 10
1410.257791316563
 20
228.90582031644993
 10
1411.2571562843082
 20
228.9877184744268
 10
1412.2549634431875
 20
229.0868069234273
 10
1413.2509171214056
 20
229.20305630140544
 10
1414.2447221963928
 20
229.3364321611617
 10
1415.2360841822576
 20
229.4868949805503
 10
1416.224709317048
 20
229.65440017419064
 10
1417.210304649801
 20
229.83889810667876
 10
1418.1925781273476
 20
230.0403341072955
 10
1419.1712386808579
 20
230.2586484862065
 10
1420.1459963120883
 20
230.4937765521497
 10
1421.116562179316
 20
230.7456486316047
 10
1422.0826486829276
 20
231.01419008943847
 10
1423.0439695506425
 20
231.2993213510215
 10
1424.0002399223408
 20
231.6009579258073
 10
1424.951176434473
 20
231.91901043236896
 10
1425.8964973040277
 20
232.25338462488457
 10
1426.8359224120295
 20
232.60398142106462
 10
1427.769173386545
 20
232.97069693151178
 10
1428.6959736851684
 20
233.35342249050603
 10
1429.6160486769697
 20
233.7520446882043
 10
1430.5291257238723
 20
234.16644540424645
 10
1431.4349342614407
 20
234.59650184275682
 10
1432.3332058790568
 20
235.0420865687313
 10
1433.2236743994536
 20
235.50306754579907
 10
1434.106075957591
 20
235.97930817534785
 10
1434.9801490788432
 20
236.47066733700098
 10
1435.8456347564806
 20
236.9769994304345
 10
1436.7022765284182
 20
237.4981544185215
 10
1437.5498205532108
 20
238.03397787179165
 10
1438.3880156852729
 20
238.58431101419168
 10
1439.2166135492967
 20
239.14899077013436
 10
1440.0353686138524
 20
239.7278498128212
 10
1440.8440382641447
 20
240.32071661382508
 10
1441.6423828739032
 20
240.92741549391775
 10
1442.4301658763907
 20
241.54776667512732
 10
1443.2071538345015
 20
242.18158633401063
 10
1443.973116509935
 20
242.82868665612375
 10
1444.7278269314197
 20
243.48887589167566
 10
1445.4710614619696
 20
244.16195841234784
 10
1446.2025998651532
 20
244.8477347692631
 10
1446.9222253703533
 20
245.54600175208662
 10
1447.6297247370026
 20
246.25655244924155
 10
1448.324888317769
 20
246.9791763092214
 10
1449.007510120681
 20
247.71365920298092
 10
1449.677387870166
 20
248.45978348738728
 10
1450.3343230669902
 20
249.21732806971232
 10
1450.9781210470762
 20
249.98606847314716
 10
1451.608591039189
 20
250.76577690331948
 10
1452.2255462214625
 20
251.5562223157939
 10
1452.8288037767618
 20
252.35717048453552
 10
1453.4181849468537
 20
253.1683840713161
 10
1453.9935150853776
 20
253.98962269604243
 10
1454.5546237095966
 20
254.82064300798618
 10
1455.101344550916
 20
255.66119875789406
 10
1455.6335156041512
 20
256.5110408709567
 10
1456.1509791755338
 20
257.36991752061493
 10
1456.6535819294402
 20
258.23757420318134
 10
1457.1411749338267
 20
259.1137538132553
 10
1457.6136137043636
 20
259.99819671990895
 10
1458.0707582472467
 20
260.8906408436211
 10
1458.5124731006822
 20
261.7908217339374
 10
1458.938627375026
 20
262.69847264783255
 10
1459.3490947915695
 20
263.6133246287521
 10
1459.7437537199585
 20
264.5351065863099
 10
1460.122487214235
 20
265.4635453766183
 10
1460.4851830474909
 20
266.39836588322635
 10
1460.8317337451233
 20
267.3392910986429
 10
1461.1620366166815
 20
268.2860422064198
 10
1461.4759937862957
 20
269.2383386637712
 10
1461.773512221681
 20
270.1958982847045
 10
1462.0545037617042
 20
271.15843732363834
 10
1462.3188851425075
 20
272.1256705594821
 10
1462.5665780221818
 20
273.0973113801534
 10
1462.7975090039815
 20
274.0730718675074
 10
1463.0116096580728
 20
275.05266288265295
 10
1463.208816541811
 20
276.035794151631
 10
1463.3890712185405
 20
277.02217435142893
 10
1463.5523202749105
 20
278.0115111963056
 10
1463.698515336702
 20
279.0035115244023
 10
1463.8276130831634
 20
279.9978813846127
 10
1463.9395752598462
 20
280.9943261236869
 10
1464.034368689941
 20
281.99255047354376
 10
1464.1119652841087
 20
282.9922586387649
 10
1464.1723420488038
 20
283.9931543842455
 10
1464.2154810930879
 20
284.9949411229751
 10
1464.241369633931
 20
285.99732200392265
 10
1464.25
 20
287.0
  0
LWPOLYLINE
  5
4E
330
17
100
AcDbEntity
  8
POCKET_7.5MM
100
AcDbPolyline
 90
401
 70
1
 10
1492.0
 20
127.00000000000003
 10
1491.9893903934228
 20
128.35082928881658
 10
1491.957564191453
 20
129.70132528071912
 10
1491.9045292467295
 20
131.05115476102935
 10
1491.8302986448314
 20
132.39998467952094
 10
1491.734890701049
 20
133.74748223259465
 10
1491.6183289558649
 20
135.09331494539228
 10
1491.4806421691455
 20
136.43715075382994
 10
1491.3218643130451
 20
137.7786580865302
 10
1491.1420345636238
 20
139.11750594663206
 10
1490.9411972911819
 20
140.45336399345996
 10
1490.7194020493105
 20
141.78590262402923
 10
1490.4767035626674
 20
143.11479305437234
 10
1490.213161713472
 20
144.43970740066007
 10
1489.9288415267322
 20
145.76031876010273
 10
1489.6238131542002
 20
147.07630129160793
 10
1489.2981518570623
 20
148.38733029617748
 10
1488.9519379873707
 20
149.6930822970221
 10
1488.585256968217
 20
150.99323511937376
 10
1488.1981992726564
 20
152.28746796997817
 10
1487.7908604013833
 20
153.57546151624558
 10
1487.3633408591688
 20
154.85689796504087
 10
1486.9157461300633
 20
156.13146114109506
 10
1486.4481866513686
 20
157.3988365650161
 10
1485.9607777863896
 20
158.65871153088239
 10
1485.4536397959707
 20
159.9107751833978
 10
1484.9268978088223
 20
161.15471859459117
 10
1484.3806817906484
 20
162.3902348400394
 10
1483.8151265120778
 20
163.61701907459636
 10
1483.230371515413
 20
164.83476860760874
 10
1482.6265610801997
 20
166.04318297760105
 10
1482.0038441876277
 20
167.24196402640933
 10
1481.3623744837723
 20
168.43081597274752
 10
1480.7023102416845
 20
169.6094454851871
 10
1480.0238143223391
 20
170.77756175453192
 10
1479.3270541344518
 20
171.93487656557164
 10
1478.6122015931733
 20
173.08110436819368
 10
1477.8794330776711
 20
174.21596234783937
 10
1477.1289293876123
 20
175.33917049528327
 10
1476.360875698552
 20
176.45045167572198
 10
1475.5754615162455
 20
177.5495316971527
 10
1474.7728806298899
 20
178.63613937802603
 10
1473.9533310643094
 20
179.71000661415604
 10
1473.1170150310963
 20
180.7708684448707
 10
1472.2641388787179
 20
181.81846311838737
 10
1471.3949130416026
 20
182.85253215639585
 10
1470.5095519882195
 20
183.87282041783408
 10
1469.6082741681603
 20
184.87907616184054
 10
1468.6913019582414
 20
185.87105110986727
 10
1467.7588616076341
 20
186.84850050693905
 10
1466.8111831820431
 20
187.8111831820431
 10
1465.848500506939
 20
188.75886160763423
 10
1464.8710511098673
 20
189.6913019582414
 10
1463.8790761618404
 20
190.60827416816048
 10
1462.8728204178342
 20
191.50955198821953
 10
1461.8525321563957
 20
192.39491304160265
 10
1460.8184631183872
 20
193.26413887871792
 10
1459.7708684448705
 20
194.1170150310964
 10
1458.7100066141559
 20
194.9533310643094
 10
1457.636139378026
 20
195.7728806298898
 10
1456.5495316971526
 20
196.57546151624553
 10
1455.450451675722
 20
197.36087569855204
 10
1454.3391704952833
 20
198.12892938761235
 10
1453.2159623478394
 20
198.87943307767125
 10
1452.0811043681936
 20
199.61220159317332
 10
1450.9348765655716
 20
200.32705413445194
 10
1449.777561754532
 20
201.02381432233918
 10
1448.609445485187
 20
201.70231024168447
 10
1447.4308159727475
 20
202.36237448377227
 10
1446.2419640264093
 20
203.00384418762764
 10
1445.043182977601
 20
203.62656108019965
 10
1443.8347686076086
 20
204.23037151541294
 10
1442.6170190745963
 20
204.81512651207768
 10
1441.3902348400393
 20
205.38068179064828
 10
1440.154718594591
 20
205.9268978088224
 10
1438.9107751833976
 20
206.45363979597064
 10
1437.6587115308823
 20
206.96077778638966
 10
1436.3988365650162
 20
207.4481866513686
 10
1435.1314611410949
 20
207.91574613006344
 10
1433.8568979650408
 20
208.3633408591689
 10
1432.5754615162455
 20
208.7908604013832
 10
1431.287467969978
 20
209.19819927265638
 10
1429.9932351193736
 20
209.58525696821712
 10
1428.693082297022
 20
209.95193798737066
 10
1427.3873302961774
 20
210.29815185706227
 10
1426.0763012916077
 20
210.6238131542002
 10
1424.7603187601026
 20
210.92884152673227
 10
1423.4397074006602
 20
211.21316171347186
 10
1422.1147930543723
 20
211.47670356266724
 10
1420.7859026240292
 20
211.71940204931056
 10
1419.4533639934598
 20
211.94119729118185
 10
1418.117505946632
 20
212.14203456362395
 10
1416.7786580865302
 20
212.32186431304513
 10
1415.4371507538299
 20
212.48064216914548
 10
1414.0933149453922
 20
212.61832895586488
 10
1412.7474822325946
 20
212.734890701049
 10
1411.399984679521
 20
212.83029864483137
 10
1410.0511547610292
 20
212.90452924672942
 10
1408.701325280719
 20
212.95756419145292
 10
1407.3508292888166
 20
212.9893903934228
 10
1406.0
 20
213.0
 10
1404.6491707111834
 20
212.9893903934228
 10
1403.298674719281
 20
212.95756419145292
 10
1401.9488452389708
 20
212.9045292467294
 10
1400.600015320479
 20
212.83029864483137
 10
1399.2525177674054
 20
212.734890701049
 10
1397.9066850546078
 20
212.61832895586488
 10
1396.5628492461701
 20
212.48064216914543
 10
1395.2213419134698
 20
212.32186431304507
 10
1393.882494053368
 20
212.14203456362395
 10
1392.54663600654
 20
211.94119729118182
 10
1391.2140973759706
 20
211.71940204931053
 10
1389.8852069456275
 20
211.4767035626672
 10
1388.5602925993398
 20
211.21316171347183
 10
1387.2396812398972
 20
210.92884152673224
 10
1385.923698708392
 20
210.62381315420018
 10
1384.6126697038223
 20
210.29815185706227
 10
1383.306917702978
 20
209.95193798737063
 10
1382.0067648806264
 20
209.5852569682171
 10
1380.7125320300217
 20
209.19819927265638
 10
1379.4245384837545
 20
208.7908604013832
 10
1378.1431020349592
 20
208.3633408591689
 10
1376.868538858905
 20
207.91574613006338
 10
1375.6011634349838
 20
207.4481866513686
 10
1374.3412884691177
 20
206.9607777863896
 10
1373.0892248166022
 20
206.45363979597064
 10
1371.8452814054087
 20
205.92689780882236
 10
1370.6097651599607
 20
205.38068179064828
 10
1369.3829809254037
 20
204.81512651207765
 10
1368.1652313923912
 20
204.23037151541294
 10
1366.956817022399
 20
203.62656108019962
 10
1365.7580359735907
 20
203.00384418762764
 10
1364.5691840272525
 20
202.36237448377221
 10
1363.390554514813
 20
201.70231024168442
 10
1362.222438245468
 20
201.02381432233915
 10
1361.0651234344284
 20
200.3270541344519
 10
1359.9188956318062
 20
199.61220159317327
 10
1358.7840376521606
 20
198.87943307767122
 10
1357.6608295047167
 20
198.1289293876123
 10
1356.549548324278
 20
197.360875698552
 10
1355.4504683028472
 20
196.57546151624547
 10
1354.363860621974
 20
195.77288062988978
 10
1353.289993385844
 20
194.95333106430934
 10
1352.2291315551295
 20
194.11701503109634
 10
1351.1815368816126
 20
193.26413887871786
 10
1350.147467843604
 20
192.39491304160265
 10
1349.1271795821658
 20
191.50955198821947
 10
1348.1209238381596
 20
190.60827416816045
 10
1347.1289488901327
 20
189.69130195824138
 10
1346.151499493061
 20
188.7588616076342
 10
1345.1888168179569
 20
187.81118318204307
 10
1344.2411383923657
 20
186.84850050693905
 10
1343.3086980417586
 20
185.8710511098672
 10
1342.3917258318395
 20
184.8790761618405
 10
1341.4904480117805
 20
183.87282041783405
 10
1340.6050869583974
 20
182.8525321563958
 10
1339.7358611212821
 20
181.8184631183873
 10
1338.8829849689037
 20
180.77086844487062
 10
1338.0466689356906
 20
179.710006614156
 10
1337.2271193701101
 20
178.63613937802603
 10
1336.4245384837545
 20
177.54953169715264
 10
1335.639124301448
 20
176.4504516757219
 10
1334.8710706123877
 20
175.3391704952832
 10
1334.1205669223286
 20
174.2159623478393
 10
1333.3877984068267
 20
173.08110436819368
 10
1332.672945865548
 20
171.93487656557153
 10
1331.9761856776609
 20
170.7775617545319
 10
1331.2976897583155
 20
169.60944548518705
 10
1330.6376255162277
 20
168.43081597274752
 10
1329.9961558123723
 20
167.24196402640928
 10
1329.3734389198003
 20
166.04318297760096
 10
1328.769628484587
 20
164.83476860760868
 10
1328.1848734879222
 20
163.61701907459627
 10
1327.6193182093516
 20
162.39023484003937
 10
1327.0731021911777
 20
161.15471859459112
 10
1326.5463602040293
 20
159.91077518339773
 10
1326.0392222136104
 20
158.6587115308823
 10
1325.5518133486314
 20
157.3988365650161
 10
1325.0842538699367
 20
156.131461141095
 10
1324.6366591408312
 20
154.8568979650408
 10
1324.2091395986167
 20
153.57546151624547
 10
1323.8018007273436
 20
152.2874679699781
 10
1323.4147430317828
 20
150.99323511937365
 10
1323.0480620126293
 20
149.69308229702204
 10
1322.7018481429377
 20
148.38733029617754
 10
1322.3761868457998
 20
147.07630129160785
 10
1322.0711584732678
 20
145.76031876010262
 10
1321.786838286528
 20
144.43970740066004
 10
1321.5232964373329
 20
143.11479305437234
 10
1321.2805979506895
 20
141.7859026240292
 10
1321.0588027088181
 20
140.45336399345982
 10
1320.8579654363762
 20
139.1175059466321
 10
1320.6781356869549
 20
137.77865808653013
 10
1320.5193578308545
 20
136.4371507538299
 10
1320.3816710441351
 20
135.09331494539222
 10
1320.265109298951
 20
133.74748223259462
 10
1320.1697013551686
 20
132.3999846795209
 10
1320.0954707532705
 20
131.05115476102927
 10
1320.042435808547
 20
129.701325280719
 10
1320.0106096065772
 20
128.35082928881653
 10
1320.0
 20
127.0
 10
1320.0106096065772
 20
125.64917071118339
 10
1320.042435808547
 20
124.29867471928097
 10
1320.0954707532705
 20
122.9488452389707
 10
1320.1697013551686
 20
121.60001532047903
 10
1320.265109298951
 20
120.25251776740537
 10
1320.3816710441351
 20
118.90668505460776
 10
1320.5193578308545
 20
117.56284924617015
 10
1320.6781356869549
 20
116.22134191346984
 10
1320.8579654363762
 20
114.88249405336788
 10
1321.0588027088181
 20
113.5466360065401
 10
1321.2805979506895
 20
112.21409737597078
 10
1321.5232964373329
 20
110.88520694562766
 10
1321.786838286528
 20
109.5602925993399
 10
1322.0711584732678
 20
108.2396812398973
 10
1322.3761868457998
 20
106.92369870839212
 10
1322.7018481429377
 20
105.61266970382245
 10
1323.0480620126293
 20
104.30691770297794
 10
1323.414743031783
 20
103.00676488062626
 10
1323.8018007273436
 20
101.71253203002185
 10
1324.2091395986167
 20
100.42453848375452
 10
1324.6366591408312
 20
99.14310203495911
 10
1325.0842538699367
 20
97.86853885890491
 10
1325.5518133486314
 20
96.60116343498386
 10
1326.0392222136104
 20
95.34128846911764
 10
1326.5463602040293
 20
94.08922481660227
 10
1327.0731021911777
 20
92.84528140540883
 10
1327.6193182093516
 20
91.60976515996066
 10
1328.1848734879222
 20
90.38298092540373
 10
1328.769628484587
 20
89.16523139239129
 10
1329.3734389198005
 20
87.95681702239892
 10
1329.9961558123723
 20
86.75803597359065
 10
1330.6376255162277
 20
85.56918402725249
 10
1331.2976897583155
 20
84.39055451481293
 10
1331.9761856776609
 20
83.22243824546808
 10
1332.6729458655482
 20
82.06512343442839
 10
1333.3877984068267
 20
80.9188956318063
 10
1334.1205669223289
 20
79.78403765216065
 10
1334.8710706123877
 20
78.66082950471676
 10
1335.639124301448
 20
77.54954832427799
 10
1336.4245384837545
 20
76.4504683028473
 10
1337.2271193701104
 20
75.36386062197394
 10
1338.0466689356906
 20
74.28999338584404
 10
1338.8829849689037
 20
73.22913155512933
 10
1339.7358611212821
 20
72.18153688161267
 10
1340.6050869583974
 20
71.1474678436042
 10
1341.4904480117805
 20
70.12717958216592
 10
1342.3917258318395
 20
69.12092383815946
 10
1343.3086980417586
 20
68.12894889013276
 10
1344.2411383923659
 20
67.15149949306092
 10
1345.1888168179569
 20
66.1888168179569
 10
1346.151499493061
 20
65.24113839236574
 10
1347.1289488901327
 20
64.30869804175862
 10
1348.1209238381596
 20
63.39172583183955
 10
1349.127179582166
 20
62.49044801178047
 10
1350.1474678436043
 20
61.60508695839731
 10
1351.1815368816126
 20
60.7358611212821
 10
1352.2291315551292
 20
59.88298496890364
 10
1353.2899933858441
 20
59.04666893569062
 10
1354.363860621974
 20
58.22711937011023
 10
1355.4504683028474
 20
57.42453848375452
 10
1356.549548324278
 20
56.63912430144799
 10
1357.6608295047167
 20
55.87107061238767
 10
1358.7840376521608
 20
55.12056692232875
 10
1359.9188956318064
 20
54.387798406826676
 10
1361.0651234344284
 20
53.67294586554806
 10
1362.222438245468
 20
52.97618567766082
 10
1363.390554514813
 20
52.297689758315556
 10
1364.5691840272525
 20
51.63762551622773
 10
1365.7580359735907
 20
50.996155812372365
 10
1366.956817022399
 20
50.373438919800364
 10
1368.1652313923914
 20
49.76962848458703
 10
1369.382980925404
 20
49.1848734879223
 10
1370.6097651599607
 20
48.61931820935169
 10
1371.845281405409
 20
48.07310219117761
 10
1373.0892248166024
 20
47.54636020402934
 10
1374.3412884691177
 20
47.03922221361036
 10
1375.6011634349838
 20
46.5518133486314
 10
1376.868538858905
 20
46.08425386993659
 10
1378.1431020349592
 20
45.6366591408311
 10
1379.4245384837545
 20
45.20913959861677
 10
1380.712532030022
 20
44.801800727343604
 10
1382.0067648806262
 20
44.41474303178289
 10
1383.306917702978
 20
44.04806201262936
 10
1384.6126697038226
 20
43.701848142937735
 10
1385.923698708392
 20
43.37618684579981
 10
1387.2396812398974
 20
43.07115847326773
 10
1388.5602925993398
 20
42.78683828652815
 10
1389.8852069456277
 20
42.523296437332775
 10
1391.2140973759708
 20
42.28059795068944
 10
1392.5466360065402
 20
42.05880270881815
 10
1393.882494053368
 20
41.85796543637605
 10
1395.2213419134698
 20
41.67813568695492
 10
1396.5628492461701
 20
41.519357830854545
 10
1397.9066850546078
 20
41.38167104413512
 10
1399.2525177674054
 20
41.26510929895099
 10
1400.600015320479
 20
41.16970135516864
 10
1401.9488452389708
 20
41.095470753270575
 10
1403.298674719281
 20
41.04243580854708
 10
1404.6491707111834
 20
41.01060960657719
 10
1406.0
 20
41.0
 10
1407.3508292888166
 20
41.01060960657719
 10
1408.701325280719
 20
41.04243580854708
 10
1410.0511547610292
 20
41.09547075327059
 10
1411.399984679521
 20
41.16970135516864
 10
1412.7474822325948
 20
41.26510929895099
 10
1414.0933149453922
 20
41.38167104413512
 10
1415.4371507538299
 20
41.51935783085456
 10
1416.7786580865302
 20
41.67813568695492
 10
1418.117505946632
 20
41.85796543637605
 10
1419.4533639934598
 20
42.05880270881815
 10
1420.7859026240292
 20
42.28059795068944
 10
1422.1147930543723
 20
42.523296437332775
 10
1423.4397074006602
 20
42.78683828652815
 10
1424.7603187601026
 20
43.07115847326773
 10
1426.076301291608
 20
43.37618684579982
 10
1427.3873302961774
 20
43.701848142937735
 10
1428.693082297022
 20
44.04806201262936
 10
1429.9932351193738
 20
44.414743031782905
 10
1431.287467969978
 20
44.801800727343604
 10
1432.5754615162455
 20
45.2091395986168
 10
1433.8568979650408
 20
45.6366591408311
 10
1435.131461141095
 20
46.08425386993662
 10
1436.3988365650162
 20
46.55181334863141
 10
1437.6587115308823
 20
47.03922221361039
 10
1438.9107751833976
 20
47.54636020402934
 10
1440.1547185945913
 20
48.073102191177625
 10
1441.3902348400393
 20
48.61931820935172
 10
1442.6170190745963
 20
49.18487348792233
 10
1443.8347686076088
 20
49.76962848458706
 10
1445.0431829776012
 20
50.37343891980038
 10
1446.2419640264093
 20
50.996155812372365
 10
1447.4308159727475
 20
51.63762551622776
 10
1448.609445485187
 20
52.29768975831557
 10
1449.777561754532
 20
52.97618567766085
 10
1450.9348765655716
 20
53.67294586554807
 10
1452.0811043681938
 20
54.387798406826704
 10
1453.2159623478394
 20
55.12056692232876
 10
1454.3391704952833
 20
55.87107061238767
 10
1455.450451675722
 20
56.63912430144799
 10
1456.5495316971528
 20
57.42453848375452
 10
1457.636139378026
 20
58.22711937011023
 10
1458.710006614156
 20
59.04666893569062
 10
1459.7708684448708
 20
59.882984968903656
 10
1460.8184631183874
 20
60.73586112128213
 10
1461.8525321563957
 20
61.605086958397365
 10
1462.872820417834
 20
62.49044801178047
 10
1463.8790761618404
 20
63.39172583183958
 10
1464.8710511098673
 20
64.30869804175862
 10
1465.848500506939
 20
65.2411383923658
 10
1466.8111831820431
 20
66.18881681795692
 10
1467.7588616076343
 20
67.15149949306098
 10
1468.6913019582414
 20
68.12894889013276
 10
1469.6082741681605
 20
69.12092383815953
 10
1470.5095519882195
 20
70.12717958216595
 10
1471.3949130416026
 20
71.14746784360423
 10
1472.2641388787179
 20
72.18153688161269
 10
1473.1170150310963
 20
73.22913155512938
 10
1473.9533310643094
 20
74.28999338584404
 10
1474.7728806298896
 20
75.36386062197396
 10
1475.5754615162455
 20
76.45046830284733
 10
1476.360875698552
 20
77.54954832427804
 10
1477.1289293876123
 20
78.66082950471679
 10
1477.8794330776714
 20
79.78403765216066
 10
1478.6122015931733
 20
80.91889563180631
 10
1479.3270541344518
 20
82.06512343442839
 10
1480.0238143223391
 20
83.22243824546808
 10
1480.7023102416845
 20
84.39055451481295
 10
1481.3623744837723
 20
85.5691840272525
 10
1482.0038441876277
 20
86.75803597359068
 10
1482.6265610801997
 20
87.95681702239901
 10
1483.230371515413
 20
89.16523139239129
 10
1483.8151265120778
 20
90.38298092540379
 10
1484.3806817906484
 20
91.60976515996063
 10
1484.9268978088223
 20
92.8452814054089
 10
1485.4536397959707
 20
94.08922481660227
 10
1485.9607777863896
 20
95.34128846911773
 10
1486.4481866513686
 20
96.6011634349839
 10
1486.9157461300633
 20
97.86853885890498
 10
1487.3633408591688
 20
99.14310203495916
 10
1487.7908604013833
 20
100.42453848375456
 10
1488.1981992726564
 20
101.71253203002186
 10
1488.585256968217
 20
103.00676488062632
 10
1488.9519379873707
 20
104.30691770297796
 10
1489.2981518570623
 20
105.61266970382248
 10
1489.6238131542002
 20
106.92369870839215
 10
1489.9288415267322
 20
108.23968123989732
 10
1490.213161713472
 20
109.56029259933995
 10
1490.4767035626674
 20
110.88520694562767
 10
1490.7194020493105
 20
112.2140973759708
 10
1490.9411972911819
 20
113.54663600654014
 10
1491.1420345636238
 20
114.8824940533679
 10
1491.3218643130451
 20
116.22134191346983
 10
1491.4806421691455
 20
117.56284924617013
 10
1491.6183289558649
 20
118.90668505460776
 10
1491.734890701049
 20
120.25251776740537
 10
1491.8302986448314
 20
121.60001532047905
 10
1491.9045292467295
 20
122.94884523897076
 10
1491.957564191453
 20
124.29867471928097
 10
1491.9893903934228
 20
125.64917071118344
 10
1492.0
 20
127.0
  0
TEXT
  5
4F
330
17
100
AcDbEntity
  8
NOTES
100
AcDbText
 10
1319.0
 20
25.0
 30
0.0
 40
12.0
  1
baffle
 11
1319.0
 21
25.0
 31
0.0
100
AcDbText
  0
LWPOLYLINE
  5
50
330
17
100
AcDbEntity
  8
CUT_OUTSIDE
100
AcDbPolyline
 90
5
 70
1
 10
15.0
 20
427.0
 10
209.0
 20
427.0
 10
209.0
 20
791.0
 10
15.0
 20
791.0
 10
15.0
 20
427.0
  0
LWPOLYLINE
  5
51
330
17
100
AcDbEntity
  8
CUT_INSIDE
100
AcDbPolyline
 90
5
 70
1
 10
160.0
 20
754.5
 10
64.0
 20
754.5
 10
64.0
 20
463.5
 10
160.0
 20
463.5
 10
160.0
 20
754.5
  0
LWPOLYLINE
  5
53
330
17
100
AcDbEntity
  8
POCKET_4.5MM
100
AcDbPolyline
 90
5
 70
1
 10
51.75
 20
451.25
 10
172.25
 20
451.25
 10
172.25
 20
766.75
 10
51.75
 20
766.75
 10
51.75
 20
451.25
  0
TEXT
  5
54
330
17
100
AcDbEntity
  8
NOTES
100
AcDbText
 10
25.0
 20
437.0
 30
0.0
 40
12.0
  1
back
 11
25.0
 21
437.0
 31
0.0
100
AcDbText
  0
LWPOLYLINE
  5
55
330
17
100
AcDbEntity
  8
CUT_OUTSIDE
100
AcDbPolyline
 90
5
 70
1
 10
221.0
 20
427.0
 10
415.0
 20
427.0
 10
415.0
 20
791.0
 10
221.0
 20
791.0
 10
221.0
 20
427.0
  0
LWPOLYLINE
  5
56
330
17
100
AcDbEntity
  8
CUT_INSIDE
100
AcDbPolyline
 90
5
 70
1
 10
366.0
 20
754.5
 10
270.0
 20
754.5
 10
270.0
 20
463.5
 10
366.0
 20
463.5
 10
366.0
 20
754.5
  0
LWPOLYLINE
  5
57
330
17
100
AcDbEntity
  8
POCKET_4.5MM
100
AcDbPolyline
 90
5
 70
1
 10
257.75
 20
451.25
 10
378.25
 20
451.25
 10
378.25
 20
766.75
 10
257.75
 20
766.75
 10
257.75
 20
451.25
  0
TEXT
  5
58
330
17
100
AcDbEntity
  8
NOTES
100
AcDbText
 10
231.0
 20
437.0
 30
0.0
 40
12.0
  1
back
 11
231.0
 21
437.0
 31
0.0
100
AcDbText
  0
LWPOLYLINE
  5
59
330
17
100
AcDbEntity
  8
CUT_OUTSIDE
100
AcDbPolyline
 90
5
 70
1
 10
427.0
 20
687.0
 10
427.0
 20
427.0
 10
621.0
 20
427.0
 10
621.0
 20
687.0
 10
427.0
 20
687.0
  0
TEXT
  5
5A
330
17
100
AcDbEntity
  8
NOTES
100
AcDbText
 10
437.0
 20
437.0
 30
0.0
 40
12.0
  1
top
 11
437.0
 21
437.0
 31
0.0
100
AcDbText
  0
LWPOLYLINE
  5
5B
330
17
100
AcDbEntity
  8
CUT_OUTSIDE
100
AcDbPolyline
 90
5
 70
1
 10
633.0
 20
687.0
 10
633.0
 20
427.0
 10
827.0
 20
427.0
 10
827.0
 20
687.0
 10
633.0
 20
687.0
  0
TEXT
  5
5C
330
17
100
AcDbEntity
  8
NOTES
100
AcDbText
 10
643.0
 20
437.0
 30
0.0
 40
12.0
  1
top
 11
643.0
 21
437.0
 31
0.0
100
AcDbText
  0
LWPOLYLINE
  5
5D
330
17
100
AcDbEntity
  8
CUT_OUTSIDE
100
AcDbPolyline
 90
5
 70
1
 10
839.0
 20
687.0
 10
839.0
 20
427.0
 10
1033.0
 20
427.0
 10
1033.0
 20
687.0
 10
839.0
 20
687.0
  0
TEXT
  5
5E
330
17
100
AcDbEntity
  8
NOTES
100
AcDbText
 10
849.0
 20
437.0
 30
0.0
 40
12.0
  1
bottom
 11
849.0
 21
437.0
 31
0.0
100
AcDbText
  0
LWPOLYLINE
  5
5F
330
17
100
AcDbEntity
  8
CUT_OUTSIDE
100
AcDbPolyline
 90
5
 70
1
 10
1045.0
 20
687.0
 10
1045.0
 20
427.0
 10
1239.0
 20
427.0
 10
1239.0
 20
687.0
 10
1045.0
 20
687.0
  0
TEXT
  5
60
330
17
100
AcDbEntity
  8
NOTES
100
AcDbText
 10
1055.0
 20
437.0
 30
0.0
 40
12.0
  1
bottom
 11
1055.0
 21
437.0
 31
0.0
100
AcDbText
  0
ENDSEC
  0
SECTION
  2
OBJECTS
  0
DICTIONARY
  5
A
330
0
100
AcDbDictionary
281
1
  3
ACAD_COLOR
350
B
  3
ACAD_GROUP
350
C
  3
ACAD_LAYOUT
350
D
  3
ACAD_MATERIAL
350
E
  3
ACAD_MLEADERSTYLE
350
F
  3
ACAD_MLINESTYLE
350
10
  3
ACAD_PLOTSETTINGS
350
11
  3
ACAD_PLOTSTYLENAME
350
12
  3
ACAD_SCALELIST
350
14
  3
ACAD_TABLESTYLE
350
15
  3
ACAD_VISUALSTYLE
350
16
  3
EZDXF_META
350
2D
  0
DICTIONARY
  5
B
330
A
100
AcDbDictionary
281
1
  0
DICTIONARY
  5
C
330
A
100
AcDbDictionary
281
1
  0
DICTIONARY
  5
D
330
A
100
AcDbDictionary
281
1
  3
Model
350
1A
  3
Layout1
350
1E
  0
DICTIONARY
  5
E
330
A
100
AcDbDictionary
281
1
  3
ByBlock
350
1F
  3
ByLayer
350
20
  3
Global
350
21
  0
DICTIONARY
  5
F
330
A
100
AcDbDictionary
281
1
  3
Standard
350
2C
  0
DICTIONARY
  5
10
330
A
100
AcDbDictionary
281
1
  3
Standard
350
22
  0
DICTIONARY
  5
11
330
A
100
AcDbDictionary
281
1
  0
ACDBDICTIONARYWDFLT
  5
12
330
A
100
AcDbDictionary
281
1
  3
Normal
350
13
100
AcDbDictionaryWithDefault
340
13
  0
ACDBPLACEHOLDER
  5
13
330
12
  0
DICTIONARY
  5
14
330
A
100
AcDbDictionary
281
1
  0
DICTIONARY
  5
15
330
A
100
AcDbDictionary
281
1
  0
DICTIONARY
  5
16
330
A
100
AcDbDictionary
281
1
  0
LAYOUT
  5
1A
330
D
100
AcDbPlotSettings
  1

  4
A3
  6

 40
7.5
 41
20.0
 42
7.5
 43
20.0
 44
420.0
 45
297.0
 46
0.0
 47
0.0
 48
0.0
 49
0.0
140
0.0
141
0.0
142
1.0
143
1.0
 70
1024
 72
1
 73
0
 74
5
  7

 75
16
 76
0
 77
2
 78
300
147
1.0
148
0.0
149
0.0
100
AcDbLayout
  1
Model
 70
1
 71
0
 10
0.0
 20
0.0
 11
420.0
 21
297.0
 12
0.0
 22
0.0
 32
0.0
 14
1e+20
 24
1e+20
 34
1e+20
 15
-1e+20
 25
-1e+20
 35
-1e+20
146
0.0
 13
0.0
 23
0.0
 33
0.0
 16
1.0
 26
0.0
 36
0.0
 17
0.0
 27
1.0
 37
0.0
 76
1
330
17
  0
LAYOUT
  5
1E
330
D
100
AcDbPlotSettings
  1

  4
A3
  6

 40
7.5
 41
20.0
 42
7.5
 43
20.0
 44
420.0
 45
297.0
 46
0.0
 47
0.0
 48
0.0
 49
0.0
140
0.0
141
0.0
142
1.0
143
1.0
 70
0
 72
1
 73
0
 74
5
  7

 75
16
 76
0
 77
2
 78
300
147
1.0
148
0.0
149
0.0
100
AcDbLayout
  1
Layout1
 70
1
 71
1
 10
0.0
 20
0.0
 11
420.0
 21
297.0
 12
0.0
 22
0.0
 32
0.0
 14
1e+20
 24
1e+20
 34
1e+20
 15
-1e+20
 25
-1e+20
 35
-1e+20
146
0.0
 13
0.0
 23
0.0
 33
0.0
 16
1.0
 26
0.0
 36
0.0
 17
0.0
 27
1.0
 37
0.0
 76
1
330
1B
  0
MATERIAL
  5
1F
102
{ACAD_REACTORS
330
E
102
}
330
E
100
AcDbMaterial
  1
ByBlock
  2

 70
0
 40
1.0
 71
1
 41
1.0
 91
-1023410177
 42
1.0
 72
1
  3

 73
1
 74
1
 75
1
 44
0.5
 73
0
 45
1.0
 46
1.0
 77
1
  4

 78
1
 79
1
170
1
 48
1.0
171
1
  6

172
1
173
1
174
1
140
1.0
141
1.0
175
1
  7

176
1
177
1
178
1
143
1.0
179
1
  8

270
1
271
1
272
1
145
1.0
146
1.0
273
1
  9

274
1
275
1
276
1
 42
1.0
 72
1
  3

 73
1
 74
1
 75
1
 94
63
  0
MATERIAL
  5
20
102
{ACAD_REACTORS
330
E
102
}
330
E
100
AcDbMaterial
  1
ByLayer
  2

 70
0
 40
1.0
 71
1
 41
1.0
 91
-1023410177
 42
1.0
 72
1
  3

 73
1
 74
1
 75
1
 44
0.5
 73
0
 45
1.0
 46
1.0
 77
1
  4

 78
1
 79
1
170
1
 48
1.0
171
1
  6

172
1
173
1
174
1
140
1.0
141
1.0
175
1
  7

176
1
177
1
178
1
143
1.0
179
1
  8

270
1
271
1
272
1
145
1.0
146
1.0
273
1
  9

274
1
275
1
276
1
 42
1.0
 72
1
  3

 73
1
 74
1
 75
1
 94
63
  0
MATERIAL
  5
21
102
{ACAD_REACTORS
330
E
102
}
330
E
100
AcDbMaterial
  1
Global
  2

 70
0
 40
1.0
 71
1
 41
1.0
 91
-1023410177
 42
1.0
 72
1
  3

 73
1
 74
1
 75
1
 44
0.5
 73
0
 45
1.0
 46
1.0
 77
1
  4

 78
1
 79
1
170
1
 48
1.0
171
1
  6

172
1
173
1
174
1
140
1.0
141
1.0
175
1
  7

176
1
177
1
178
1
143
1.0
179
1
  8

270
1
271
1
272
1
145
1.0
146
1.0
273
1
  9

274
1
275
1
276
1
 42
1.0
 72
1
  3

 73
1
 74
1
 75
1
 94
63
  0
MLINESTYLE
  5
22
102
{ACAD_REACTORS
330
10
102
}
330
10
100
AcDbMlineStyle
  2
Standard
 70
0
  3

 62
256
 51
90.0
 52
90.0
 71
2
 49
0.5
 62
256
  6
BYLAYER
 49
-0.5
 62
256
  6
BYLAYER
  0
MLEADERSTYLE
  5
2C
102
{ACAD_REACTORS
330
F
102
}
330
F
100
AcDbMLeaderStyle
179
2
170
2
171
1
172
0
 90
2
 40
0.0
 41
0.0
173
1
 91
-1056964608
 92
-2
290
1
 42
2.0
291
1
 43
8.0
  3
Standard
 44
4.0
300

342
29
174
1
175
1
176
0
178
1
 93
-1056964608
 45
4.0
292
0
297
0
 46
4.0
 94
-1056964608
 47
1.0
 49
1.0
140
1.0
294
1
141
0.0
177
0
142
1.0
295
0
296
0
143
3.75
271
0
272
9
273
9
  0
DICTIONARY
  5
2D
330
A
100
AcDbDictionary
280
1
281
1
  3
CREATED_BY_EZDXF
350
2E
  3
WRITTEN_BY_EZDXF
350
63
  0
DICTIONARYVAR
  5
2E
330
2D
100
DictionaryVariables
280
0
  1
1.4.4 @ 2026-10-11T00:05:49.199059+00:00
  0
DICTIONARYVAR
  5
63
330
2D
100
DictionaryVariables
280
0
  1
1.4.4 @ 2026-10-11T00:05:49.212382+00:00
  0
ENDSEC
  0
EOF
