<svg xmlns="http://www.w3.org/2000/svg" width="345" height="365" font-family="sans-serif" font-size="9">
<rect x="20.0" y="30" width="305.0" height="305.0" fill="#f4efe6" stroke="#333"/>
<text x="20.0" y="20">baltic-birch 18 mm, sheet 1</text>
<rect x="23.0" y="252.0" width="52.0" height="80.0" fill="#d9c7a3" stroke="#6b5532"/>
<text x="24.6" y="260.0">left</text>
<rect x="77.4" y="252.0" width="52.0" height="80.0" fill="#d9c7a3" stroke="#6b5532"/>
<text x="79.0" y="260.0">left</text>
<rect x="131.8" y="252.0" width="52.0" height="80.0" fill="#d9c7a3" stroke="#6b5532"/>
<text x="133.4" y="260.0">right</text>
<rect x="186.2" y="252.0" width="52.0" height="80.0" fill="#d9c7a3" stroke="#6b5532"/>
<text x="187.8" y="260.0">right</text>
<rect x="240.6" y="259.2" width="38.8" height="72.8" fill="#d9c7a3" stroke="#6b5532"/>
<text x="242.2" y="267.2">baffle</text>
<rect x="281.8" y="259.2" width="38.8" height="72.8" fill="#d9c7a3" stroke="#6b5532"/>
<text x="283.4" y="267.2">baffle</text>
<rect x="23.0" y="176.8" width="38.8" height="72.8" fill="#d9c7a3" stroke="#6b5532"/>
<text x="24.6" y="184.8">back</text>
<rect x="64.2" y="176.8" width="38.8" height="72.8" fill="#d9c7a3" stroke="#6b5532"/>
<text x="65.8" y="184.8">back</text>
<rect x="105.4" y="197.6" width="38.8" height="52.0" fill="#d9c7a3" stroke="#6b5532"/>
<text x="107.0" y="205.6">top</text>
<rect x="146.6" y="197.6" width="38.8" height="52.0" fill="#d9c7a3" stroke="#6b5532"/>
<text x="148.2" y="205.6">top</text>
<rect x="187.8" y="197.6" width="38.8" height="52.0" fill="#d9c7a3" stroke="#6b5532"/>
<text x="189.4" y="205.6">bottom</text>
<rect x="229.0" y="197.6" width="38.8" height="52.0" fill="#d9c7a3" stroke="#6b5532"/>
<text x="230.6" y="205.6">bottom</text>
</svg>