  0
SECTION
  2
HEADER
  9
$ACADVER
  1
AC1024
  9
$ACADMAINTVER
 70
6
  9
$DWGCODEPAGE
  3
ANSI_1252
  9
$LASTSAVEDBY
  1
ezdxf
  9
$INSBASE
 10
0.0
 20
0.0
 30
0.0
  9
$EXTMIN
 10
1e+20
 20
1e+20
 30
1e+20
  9
$EXTMAX
 10
-1e+20
 20
-1e+20
 30
-1e+20
  9
$LIMMIN
 10
0.0
 20
0.0
  9
$LIMMAX
 10
420.0
 20
297.0
  9
$ORTHOMODE
 70
0
  9
$REGENMODE
 70
1
  9
$FILLMODE
 70
1
  9
$QTEXTMODE
 70
0
  9
$MIRRTEXT
 70
1
  9
$LTSCALE
 40
1.0
  9
$ATTMODE
 70
1
  9
$TEXTSIZE
 40
2.5
  9
$TRACEWID
 40
1.0
  9
$TEXTSTYLE
  7
Standard
  9
$CLAYER
  8
0
  9
$CELTYPE
  6
ByLayer
  9
$CECOLOR
 62
256
  9
$CELTSCALE
 40
1.0
  9
$DISPSILH
 70
0
  9
$DIMSCALE
 40
1.0
  9
$DIMASZ
 40
2.5
  9
$DIMEXO
 40
0.625
  9
$DIMDLI
 40
3.75
  9
$DIMRND
 40
0.0
  9
$DIMDLE
 40
0.0
  9
$DIMEXE
 40
1.25
  9
$DIMTP
 40
0.0
  9
$DIMTM
 40
0.0
  9
$DIMTXT
 40
2.5
  9
$DIMCEN
 40
2.5
  9
$DIMTSZ
 40
0.0
  9
$DIMTOL
 70
0
  9
$DIMLIM
 70
0
  9
$DIMTIH
 70
0
  9
$DIMTOH
 70
0
  9
$DIMSE1
 70
0
  9
$DIMSE2
 70
0
  9
$DIMTAD
 70
1
  9
$DIMZIN
 70
8
  9
$DIMBLK
  1

  9
$DIMASO
 70
1
  9
$DIMSHO
 70
1
  9
$DIMPOST
  1

  9
$DIMAPOST
  1

  9
$DIMALT
 70
0
  9
$DIMALTD
 70
3
  9
$DIMALTF
 40
0.03937007874
  9
$DIMLFAC
 40
1.0
  9
$DIMTOFL
 70
1
  9
$DIMTVP
 40
0.0
  9
$DIMTIX
 70
0
  9
$DIMSOXD
 70
0
  9
$DIMSAH
 70
0
  9
$DIMBLK1
  1

  9
$DIMBLK2
  1

  9
$DIMSTYLE
  2
ISO-25
  9
$DIMCLRD
 70
0
  9
$DIMCLRE
 70
0
  9
$DIMCLRT
 70
0
  9
$DIMTFAC
 40
1.0
  9
$DIMGAP
 40
0.625
  9
$DIMJUST
 70
0
  9
$DIMSD1
 70
0
  9
$DIMSD2
 70
0
  9
$DIMTOLJ
 70
0
  9
$DIMTZIN
 70
8
  9
$DIMALTZ
 70
0
  9
$DIMALTTZ
 70
0
  9
$DIMUPT
 70
0
  9
$DIMDEC
 70
2
  9
$DIMTDEC
 70
2
  9
$DIMALTU
 70
2
  9
$DIMALTTD
 70
3
  9
$DIMTXSTY
  7
Standard
  9
$DIMAUNIT
 70
0
  9
$DIMADEC
 70
0
  9
$DIMALTRND
 40
0.0
  9
$DIMAZIN
 70
0
  9
$DIMDSEP
 70
44
  9
$DIMATFIT
 70
3
  9
$DIMFRAC
 70
0
  9
$DIMLDRBLK
  1

  9
$DIMLUNIT
 70
2
  9
$DIMLWD
 70
-2
  9
$DIMLWE
 70
-2
  9
$DIMTMOVE
 70
0
  9
$DIMFXL
 40
1.0
  9
$DIMFXLON
 70
0
  9
$DIMJOGANG
 40
0.785398163397
  9
$DIMTFILL
 70
0
  9
$DIMTFILLCLR
 70
0
  9
$DIMARCSYM
 70
0
  9
$DIMLTYPE
  6

  9
$DIMLTEX1
  6

  9
$DIMLTEX2
  6

  9
$DIMTXTDIRECTION
 70
0
  9
$LUNITS
 70
2
  9
$LUPREC
 70
4
  9
$SKETCHINC
 40
1.0
  9
$FILLETRAD
 40
10.0
  9
$AUNITS
 70
0
  9
$AUPREC
 70
2
  9
$MENU
  1
.
  9
$ELEVATION
 40
0.0
  9
$PELEVATION
 40
0.0
  9
$THICKNESS
 40
0.0
  9
$LIMCHECK
 70
0
  9
$CHAMFERA
 40
0.0
  9
$CHAMFERB
 40
0.0
  9
$CHAMFERC
 40
0.0
  9
$CHAMFERD
 40
0.0
  9
$SKPOLY
 70
0
  9
$TDCREATE
 40
2461322.7277314817
  9
$TDUCREATE
 40
2458532.153996898
  9
$TDUPDATE
 40
2461322.7277314817
  9
$TDUUPDATE
 40
2458532.1544311
  9
$TDINDWG
 40
0.0
  9
$TDUSRTIMER
 40
0.0
  9
$USRTIMER
 70
1
  9
$ANGBASE
 50
0.0
  9
$ANGDIR
 70
0
  9
$PDMODE
 70
0
  9
$PDSIZE
 40
0.0
  9
$PLINEWID
 40
0.0
  9
$SPLFRAME
 70
0
  9
$SPLINETYPE
 70
6
  9
$SPLINESEGS
 70
8
  9
$HANDSEED
  5
3D
  9
$SURFTAB1
 70
6
  9
$SURFTAB2
 70
6
  9
$SURFTYPE
 70
6
  9
$SURFU
 70
6
  9
$SURFV
 70
6
  9
$UCSBASE
  2

  9
$UCSNAME
  2

  9
$UCSORG
 10
0.0
 20
0.0
 30
0.0
  9
$UCSXDIR
 10
1.0
 20
0.0
 30
0.0
  9
$UCSYDIR
 10
0.0
 20
1.0
 30
0.0
  9
$UCSORTHOREF
  2

  9
$UCSORTHOVIEW
 70
0
  9
$UCSORGTOP
 10
0.0
 20
0.0
 30
0.0
  9
$UCSORGBOTTOM
 10
0.0
 20
0.0
 30
0.0
  9
$UCSORGLEFT
 10
0.0
 20
0.0
 30
0.0
  9
$UCSORGRIGHT
 10
0.0
 20
0.0
 30
0.0
  9
$UCSORGFRONT
 10
0.0
 20
0.0
 30
0.0
  9
$UCSORGBACK
 10
0.0
 20
0.0
 30
0.0
  9
$PUCSBASE
  2

  9
$PUCSNAME
  2

  9
$PUCSORG
 10
0.0
 20
0.0
 30
0.0
  9
$PUCSXDIR
 10
1.0
 20
0.0
 30
0.0
  9
$PUCSYDIR
 10
0.0
 20
1.0
 30
0.0
  9
$PUCSORTHOREF
  2

  9
$PUCSORTHOVIEW
 70
0
  9
$PUCSORGTOP
 10
0.0
 20
0.0
 30
0.0
  9
$PUCSORGBOTTOM
 10
0.0
 20
0.0
 30
0.0
  9
$PUCSORGLEFT
 10
0.0
 20
0.0
 30
0.0
  9
$PUCSORGRIGHT
 10
0.0
 20
0.0
 30
0.0
  9
$PUCSORGFRONT
 10
0.0
 20
0.0
 30
0.0
  9
$PUCSORGBACK
 10
0.0
 20
0.0
 30
0.0
  9
$USERI1
 70
0
  9
$USERI2
 70
0
  9
$USERI3
 70
0
  9
$USERI4
 70
0
  9
$USERI5
 70
0
  9
$USERR1
 40
0.0
  9
$USERR2
 40
0.0
  9
$USERR3
 40
0.0
  9
$USERR4
 40
0.0
  9
$USERR5
 40
0.0
  9
$WORLDVIEW
 70
1
  9
$SHADEDGE
 70
3
  9
$SHADEDIF
 70
70
  9
$TILEMODE
 70
1
  9
$MAXACTVP
 70
64
  9
$PINSBASE
 10
0.0
 20
0.0
 30
0.0
  9
$PLIMCHECK
 70
0
  9
$PEXTMIN
 10
1e+20
 20
1e+20
 30
1e+20
  9
$PEXTMAX
 10
-1e+20
 20
-1e+20
 30
-1e+20
  9
$PLIMMIN
 10
0.0
 20
0.0
  9
$PLIMMAX
 10
420.0
 20
297.0
  9
$UNITMODE
 70
0
  9
$VISRETAIN
 70
1
  9
$PLINEGEN
 70
0
  9
$PSLTSCALE
 70
1
  9
$TREEDEPTH
 70
3020
  9
$CMLSTYLE
  2
Standard
  9
$CMLJUST
 70
0
  9
$CMLSCALE
 40
20.0
  9
$PROXYGRAPHICS
 70
1
  9
$MEASUREMENT
 70
1
  9
$CELWEIGHT
370
-1
  9
$ENDCAPS
280
0
  9
$JOINSTYLE
280
0
  9
$LWDISPLAY
290
0
  9
$INSUNITS
 70
4
  9
$HYPERLINKBASE
  1

  9
$STYLESHEET
  1

  9
$XEDIT
290
1
  9
$CEPSNTYPE
380
0
  9
$PSTYLEMODE
290
1
  9
$FINGERPRINTGUID
  2
{179CEA9D-2EF6-419D-802E-3884C3474C88}
  9
$VERSIONGUID
  2
{9B639BEC-C294-4B25-8434-FABE015225DE}
  9
$EXTNAMES
290
1
  9
$PSVPSCALE
 40
0.0
  9
$OLESTARTUP
290
0
  9
$SORTENTS
280
127
  9
$INDEXCTL
280
0
  9
$HIDETEXT
280
1
  9
$XCLIPFRAME
280
1
  9
$HALOGAP
280
0
  9
$OBSCOLOR
 70
257
  9
$OBSLTYPE
280
0
  9
$INTERSECTIONDISPLAY
280
0
  9
$INTERSECTIONCOLOR
 70
257
  9
$DIMASSOC
280
2
  9
$PROJECTNAME
  1

  9
$CAMERADISPLAY
290
0
  9
$LENSLENGTH
 40
50.0
  9
$CAMERAHEIGHT
 40
0.0
  9
$STEPSPERSEC
 40
24.0
  9
$STEPSIZE
 40
100.0
  9
$3DDWFPREC
 40
2.0
  9
$PSOLWIDTH
 40
0.005
  9
$PSOLHEIGHT
 40
0.08
  9
$LOFTANG1
 40
1.570796326795
  9
$LOFTANG2
 40
1.570796326795
  9
$LOFTMAG1
 40
0.0
  9
$LOFTMAG2
 40
0.0
  9
$LOFTPARAM
 70
7
  9
$LOFTNORMALS
280
1
  9
$LATITUDE
 40
37.795
  9
$LONGITUDE
 40
-122.394
  9
$NORTHDIRECTION
 40
0.0
  9
$TIMEZONE
 70
-8000
  9
$LIGHTGLYPHDISPLAY
280
1
  9
$TILEMODELIGHTSYNCH
280
1
  9
$CMATERIAL
347
20
  9
$SOLIDHIST
280
0
  9
$SHOWHIST
280
1
  9
$DWFFRAME
280
2
  9
$DGNFRAME
280
2
  9
$REALWORLDSCALE
290
1
  9
$INTERFERECOLOR
 62
256
  9
$CSHADOW
280
0
  9
$SHADOWPLANELOCATION
 40
0.0
  0
ENDSEC
  0
SECTION
  2
CLASSES
  0
CLASS
  1
ACDBDICTIONARYWDFLT
  2
AcDbDictionaryWithDefault
  3
ObjectDBX Classes
 90
0
 91
0
280
0
281
0
  0
CLASS
  1
SUN
  2
AcDbSun
  3
SCENEOE
 90
1153
 91
0
280
0
281
0
  0
CLASS
  1
VISUALSTYLE
  2
AcDbVisualStyle
  3
ObjectDBX Classes
 90
4095
 91
0
280
0
281
0
  0
CLASS
  1
MATERIAL
  2
AcDbMaterial
  3
ObjectDBX Classes
 90
1153
 91
0
280
0
281
0
  0
CLASS
  1
SCALE
  2
AcDbScale
  3
ObjectDBX Classes
 90
1153
 91
0
280
0
281
0
  0
CLASS
  1
TABLESTYLE
  2
AcDbTableStyle
  3
ObjectDBX Classes
 90
4095
 91
0
280
0
281
0
  0
CLASS
  1
MLEADERSTYLE
  2
AcDbMLeaderStyle
  3
ACDB_MLEADERSTYLE_CLASS
 90
4095
 91
0
280
0
281
0
  0
CLASS
  1
DICTIONARYVAR
  2
AcDbDictionaryVar
  3
ObjectDBX Classes
 90
0
 91
0
280
0
281
0
  0
CLASS
  1
CELLSTYLEMAP
  2
AcDbCellStyleMap
  3
ObjectDBX Classes
 90
1152
 91
0
280
0
281
0
  0
CLASS
  1
MENTALRAYRENDERSETTINGS
  2
AcDbMentalRayRenderSettings
  3
SCENEOE
 90
1024
 91
0
280
0
281
0
  0
CLASS
  1
ACDBDETAILVIEWSTYLE
  2
AcDbDetailViewStyle
  3
ObjectDBX Classes
 90
1025
 91
0
280
0
281
0
  0
CLASS
  1
ACDBSECTIONVIEWSTYLE
  2
AcDbSectionViewStyle
  3
ObjectDBX Classes
 90
1025
 91
0
280
0
281
0
  0
CLASS
  1
RASTERVARIABLES
  2
AcDbRasterVariables
  3
ISM
 90
0
 91
0
280
0
281
0
  0
CLASS
  1
ACDBPLACEHOLDER
  2
AcDbPlaceHolder
  3
ObjectDBX Classes
 90
0
 91
0
280
0
281
0
  0
CLASS
  1
LAYOUT
  2
AcDbLayout
  3
ObjectDBX Classes
 90
0
 91
0
280
0
281
0
  0
ENDSEC
  0
SECTION
  2
TABLES
  0
TABLE
  2
VPORT
  5
8
330
0
100
AcDbSymbolTable
 70
1
  0
VPORT
  5
23
330
8
100
AcDbSymbolTableRecord
100
AcDbViewportTableRecord
  2
*Active
 70
0
 10
0.0
 20
0.0
 11
1.0
 21
1.0
 12
0.0
 22
0.0
 13
0.0
 23
0.0
 14
0.5
 24
0.5
 15
0.5
 25
0.5
 16
0.0
 26
0.0
 36
1.0
 17
0.0
 27
0.0
 37
0.0
 40
1000.0
 41
1.34
 42
50.0
 43
0.0
 44
0.0
 50
0.0
 51
0.0
 71
0
 72
1000
 73
1
 74
3
 75
0
 76
0
 77
0
 78
0
281
0
 65
0
146
0.0
  0
ENDTAB
  0
TABLE
  2
LTYPE
  5
2
330
0
100
AcDbSymbolTable
 70
3
  0
LTYPE
  5
24
330
2
100
AcDbSymbolTableRecord
100
AcDbLinetypeTableRecord
  2
ByBlock
 70
0
  3

 72
65
 73
0
 40
0.0
  0
LTYPE
  5
25
330
2
100
AcDbSymbolTableRecord
100
AcDbLinetypeTableRecord
  2
ByLayer
 70
0
  3

 72
65
 73
0
 40
0.0
  0
LTYPE
  5
26
330
2
100
AcDbSymbolTableRecord
100
AcDbLinetypeTableRecord
  2
Continuous
 70
0
  3

 72
65
 73
0
 40
0.0
  0
ENDTAB
  0
TABLE
  2
LAYER
  5
1
330
0
100
AcDbSymbolTable
 70
3
  0
LAYER
  5
27
330
1
100
AcDbSymbolTableRecord
100
AcDbLayerTableRecord
  2
0
 70
0
 62
7
  6
Continuous
370
-3
390
13
347
21
  0
LAYER
  5
28
330
1
100
AcDbSymbolTableRecord
100
AcDbLayerTableRecord
  2
Defpoints
 70
0
 62
7
  6
Continuous
290
0
370
-3
390
13
347
21
  0
LAYER
  5
2F
330
1
100
AcDbSymbolTableRecord
100
AcDbLayerTableRecord
  2
CUT
 70
0
 62
7
  6
Continuous
370
-3
390
13
347
21
  0
ENDTAB
  0
TABLE
  2
STYLE
  5
5
330
0
100
AcDbSymbolTable
 70
1
  0
STYLE
  5
29
330
5
100
AcDbSymbolTableRecord
100
AcDbTextStyleTableRecord
  2
Standard
 70
0
 40
0.0
 41
1.0
 50
0.0
 71
0
 42
2.5
  3
txt
  4

  0
ENDTAB
  0
TABLE
  2
VIEW
  5
7
330
0
100
AcDbSymbolTable
 70
0
  0
ENDTAB
  0
TABLE
  2
UCS
  5
6
330
0
100
AcDbSymbolTable
 70
0
  0
ENDTAB
  0
TABLE
  2
APPID
  5
3
330
0
100
AcDbSymbolTable
 70
3
  0
APPID
  5
2A
330
3
100
AcDbSymbolTableRecord
100
AcDbRegAppTableRecord
  2
ACAD
 70
0
  0
APPID
  5
3A
330
3
100
AcDbSymbolTableRecord
100
AcDbRegAppTableRecord
  2
HATCHBACKGROUNDCOLOR
 70
0
  0
APPID
  5
3B
330
3
100
AcDbSymbolTableRecord
100
AcDbRegAppTableRecord
  2
EZDXF
 70
0
  0
ENDTAB
  0
TABLE
  2
DIMSTYLE
  5
4
330
0
100
AcDbSymbolTable
 70
1
100
AcDbDimStyleTable
  0
DIMSTYLE
105
2B
330
4
100
AcDbSymbolTableRecord
100
AcDbDimStyleTableRecord
  2
Standard
 70
0
 40
1.0
 41
2.5
 42
0.625
 43
3.75
 44
1.25
 45
0.0
 46
0.0
 47
0.0
 48
0.0
 49
2.5
140
2.5
141
2.5
142
0.0
143
0.03937007874
144
1.0
145
0.0
146
1.0
147
0.625
148
0.0
 69
0
 70
0
 71
0
 72
0
 73
0
 74
0
 75
0
 76
0
 77
1
 78
8
 79
3
170
0
171
3
172
1
173
0
174
0
175
0
176
0
177
0
178
0
179
2
271
2
272
2
273
2
274
3
275
0
276
0
277
2
278
44
279
0
280
0
281
0
282
0
283
0
284
8
285
0
286
0
288
0
289
3
290
0
371
-2
372
-2
  0
ENDTAB
  0
TABLE
  2
BLOCK_RECORD
  5
9
330
0
100
AcDbSymbolTable
 70
2
  0
BLOCK_RECORD
  5
17
330
9
100
AcDbSymbolTableRecord
100
AcDbBlockTableRecord
  2
*Model_Space
340
1A
 70
0
280
1
281
0
  0
BLOCK_RECORD
  5
1B
330
9
100
AcDbSymbolTableRecord
100
AcDbBlockTableRecord
  2
*Paper_Space
340
1E
 70
0
280
1
281
0
  0
ENDTAB
  0
ENDSEC
  0
SECTION
  2
BLOCKS
  0
BLOCK
  5
18
330
17
100
AcDbEntity
  8
0
100
AcDbBlockBegin
  2
*Model_Space
 70
0
 10
0.0
 20
0.0
 30
0.0
  3
*Model_Space
  1

  0
ENDBLK
  5
19
330
17
100
AcDbEntity
  8
0
100
AcDbBlockEnd
  0
BLOCK
  5
1C
330
1B
100
AcDbEntity
  8
0
100
AcDbBlockBegin
  2
*Paper_Space
 70
0
 10
0.0
 20
0.0
 30
0.0
  3
*Paper_Space
  1

  0
ENDBLK
  5
1D
330
1B
100
AcDbEntity
  8
0
100
AcDbBlockEnd
  0
ENDSEC
  0
SECTION
  2
ENTITIES
  0
LWPOLYLINE
  5
30
330
17
100
AcDbEntity
  8
CUT
100
AcDbPolyline
 90
233
 70
1
 10
19.875000000000007
 20
11.900000000000002
 10
19.875000000000007
 20
11.05
 10
9.975000000000001
 20
11.05
 10
9.981375000000007
 20
10.772000000000002
 10
10.00050000000001
 20
10.508000000000003
 10
10.032374999999995
 20
10.258
 10
10.077000000000005
 20
10.022000000000002
 10
10.134374999999999
 20
9.8
 10
10.204500000000003
 20
9.592000000000002
 10
10.287375000000004
 20
9.398
 10
10.383000000000003
 20
9.218
 10
10.491374999999998
 20
9.052000000000003
 10
10.612500000000004
 20
8.900000000000002
 10
10.747374999999998
 20
8.762250000000002
 10
10.896999999999998
 20
8.639000000000003
 10
11.061375000000005
 20
8.530249999999999
 10
11.240500000000004
 20
8.436
 10
11.434374999999996
 20
8.35625
 10
11.643000000000008
 20
8.291
 10
11.866374999999998
 20
8.24025
 10
12.104499999999994
 20
8.204
 10
12.357374999999998
 20
8.18225
 10
12.625000000000007
 20
8.175
 10
12.8945987654321
 20
8.18148148148148
 10
13.147839506172836
 20
8.200925925925926
 10
13.38472222222223
 20
8.233333333333334
 10
13.605246913580253
 20
8.278703703703705
 10
13.809413580246918
 20
8.337037037037039
 10
13.997222222222227
 20
8.408333333333335
 10
14.16867283950618
 20
8.492592592592594
 10
14.323765432098774
 20
8.589814814814815
 10
14.462499999999999
 20
8.7
 10
14.618367346938776
 20
8.857142857142858
 10
14.750255102040818
 20
9.028571428571428
 10
14.858163265306125
 20
9.214285714285715
 10
14.942091836734697
 20
9.414285714285715
 10
15.002040816326534
 20
9.62857142857143
 10
15.038010204081637
 20
9.857142857142858
 10
15.050000000000004
 20
10.100000000000001
 10
19.875000000000007
 20
10.100000000000001
 10
19.86994459833796
 20
9.85027700831025
 10
19.8547783933518
 20
9.606371191135736
 10
19.829501385041546
 20
9.368282548476454
 10
19.79411357340721
 20
9.136011080332413
 10
19.748614958448762
 20
8.909556786703604
 10
19.693005540166205
 20
8.688919667590028
 10
19.62728531855955
 20
8.474099722991692
 10
19.551454293628815
 20
8.26509695290859
 10
19.46551246537397
 20
8.061911357340723
 10
19.369459833795013
 20
7.864542936288089
 10
19.263296398891974
 20
7.672991689750692
 10
19.147022160664825
 20
7.487257617728535
 10
19.02063711911358
 20
7.307340720221607
 10
18.884141274238225
 20
7.133240997229919
 10
18.737534626038787
 20
6.964958448753464
 10
18.58081717451524
 20
6.802493074792245
 10
18.413988919667595
 20
6.64584487534626
 10
18.23704986149584
 20
6.495013850415514
 10
18.050000000000004
 20
6.350000000000001
 10
17.89500868055557
 20
6.239843750000002
 10
17.734201388888884
 20
6.134375000000002
 10
17.567578125000004
 20
6.033593750000001
 10
17.3951388888889
 20
5.9375
 10
17.21688368055556
 20
5.846093750000001
 10
17.0328125
 20
5.759375000000002
 10
16.842925347222227
 20
5.677343750000002
 10
16.647222222222233
 20
5.600000000000001
 10
16.445703125
 20
5.52734375
 10
16.23836805555556
 20
5.459375000000001
 10
16.025217013888884
 20
5.396093750000002
 10
15.806249999999999
 20
5.337500000000002
 10
15.58146701388889
 20
5.283593750000001
 10
15.350868055555559
 20
5.234375
 10
15.114453125000004
 20
5.189843750000001
 10
14.872222222222227
 20
5.150000000000002
 10
14.624175347222227
 20
5.114843750000002
 10
14.370312500000004
 20
5.084375000000001
 10
14.110633680555559
 20
5.05859375
 10
13.84513888888889
 20
5.037500000000001
 10
13.573828124999999
 20
5.021093750000002
 10
13.296701388888884
 20
5.009375000000002
 10
13.013758680555561
 20
5.002343750000001
 10
12.725000000000001
 20
5.0
 10
12.444748520710057
 20
5.00253328402367
 10
12.169378698224854
 20
5.010133136094677
 10
11.898890532544378
 20
5.02279955621302
 10
11.633284023668644
 20
5.040532544378699
 10
11.372559171597636
 20
5.063332100591715
 10
11.116715976331356
 20
5.0911982248520715
 10
10.865754437869832
 20
5.124130917159764
 10
10.61967455621302
 20
5.162130177514793
 10
10.37847633136095
 20
5.205196005917159
 10
10.142159763313607
 20
5.253328402366865
 10
9.910724852071006
 20
5.306527366863907
 10
9.684171597633132
 20
5.364792899408286
 10
9.462499999999999
 20
5.428125000000001
 10
9.245710059171593
 20
5.496523668639053
 10
9.033801775147928
 20
5.569988905325445
 10
8.826775147928991
 20
5.648520710059174
 10
8.624630177514796
 20
5.732119082840239
 10
8.427366863905327
 20
5.82078402366864
 10
8.2349852071006
 20
5.914515532544378
 10
8.0474852071006
 20
6.013313609467456
 10
7.864866863905327
 20
6.117178254437871
 10
7.6871301775147955
 20
6.226109467455622
 10
7.514275147928991
 20
6.3401072485207095
 10
7.3463017751479285
 20
6.459171597633137
 10
7.183210059171593
 20
6.583302514792901
 10
7.024999999999999
 20
6.712500000000002
 10
6.866239999999998
 20
6.852320000000002
 10
6.71396
 20
6.997780000000002
 10
6.568159999999999
 20
7.148880000000002
 10
6.428840000000001
 20
7.305620000000001
 10
6.295999999999999
 20
7.468
 10
6.169640000000001
 20
7.636020000000002
 10
6.049759999999999
 20
7.80968
 10
5.9363600000000005
 20
7.9889800000000015
 10
5.829439999999998
 20
8.173919999999999
 10
5.728999999999999
 20
8.364500000000003
 10
5.635040000000004
 20
8.56072
 10
5.547560000000004
 20
8.76258
 10
5.466560000000001
 20
8.97008
 10
5.3920400000000015
 20
9.183220000000002
 10
5.324000000000005
 20
9.402000000000001
 10
5.262439999999998
 20
9.62642
 10
5.207360000000001
 20
9.856480000000001
 10
5.158760000000001
 20
10.092180000000003
 10
5.116640000000004
 20
10.33352
 10
5.081000000000003
 20
10.5805
 10
5.0518399999999986
 20
10.833120000000001
 10
5.0291600000000045
 20
11.091380000000001
 10
5.01296
 20
11.35528
 10
5.003239999999998
 20
11.624820000000003
 10
5.0
 20
11.900000000000002
 10
5.003160000000001
 20
12.169360000000001
 10
5.012640000000005
 20
12.433440000000001
 10
5.028440000000003
 20
12.692240000000002
 10
5.050560000000004
 20
12.94576
 10
5.079000000000001
 20
13.194000000000003
 10
5.113759999999999
 20
13.436960000000003
 10
5.15484
 20
13.67464
 10
5.202240000000003
 20
13.907039999999999
 10
5.255960000000002
 20
14.134159999999998
 10
5.3160000000000025
 20
14.356000000000002
 10
5.3823599999999985
 20
14.572560000000003
 10
5.455040000000004
 20
14.783840000000001
 10
5.5340400000000045
 20
14.989840000000001
 10
5.61936
 20
15.190560000000001
 10
5.7109999999999985
 20
15.386
 10
5.808959999999999
 20
15.576160000000005
 10
5.913240000000002
 20
15.761039999999998
 10
6.02384
 20
15.940639999999998
 10
6.14076
 20
16.11496
 10
6.264000000000003
 20
16.284000000000002
 10
6.393560000000001
 20
16.44776
 10
6.529440000000001
 20
16.606240000000003
 10
6.671640000000004
 20
16.75944
 10
6.820160000000001
 20
16.90736
 10
6.975000000000001
 20
17.05
 10
7.135399999999997
 20
17.1872
 10
7.300599999999996
 20
17.3188
 10
7.4705999999999975
 20
17.444800000000004
 10
7.645400000000002
 20
17.5652
 10
7.824999999999996
 20
17.680000000000003
 10
8.009400000000007
 20
17.789199999999997
 10
8.198600000000006
 20
17.892799999999998
 10
8.392599999999995
 20
17.990799999999997
 10
8.5914
 20
18.0832
 10
8.794999999999995
 20
18.169999999999998
 10
9.003400000000006
 20
18.2512
 10
9.216600000000007
 20
18.326800000000002
 10
9.434599999999996
 20
18.396800000000002
 10
9.657400000000003
 20
18.4612
 10
9.884999999999998
 20
18.52
 10
10.117399999999996
 20
18.573200000000003
 10
10.354599999999998
 20
18.6208
 10
10.596600000000002
 20
18.6628
 10
10.843399999999995
 20
18.6992
 10
11.095000000000006
 20
18.73
 10
11.351400000000005
 20
18.7552
 10
11.612600000000008
 20
18.774800000000003
 10
11.878599999999999
 20
18.7888
 10
12.149400000000007
 20
18.7972
 10
12.425000000000004
 20
18.8
 10
12.712260000000008
 20
18.797279999999997
 10
12.994040000000005
 20
18.78912
 10
13.270339999999997
 20
18.775519999999997
 10
13.541159999999998
 20
18.75648
 10
13.806500000000007
 20
18.732000000000003
 10
14.066359999999996
 20
18.70208
 10
14.320740000000008
 20
18.66672
 10
14.56964
 20
18.625919999999997
 10
14.81306
 20
18.57968
 10
15.051000000000009
 20
18.528000000000002
 10
15.283459999999998
 20
18.470879999999998
 10
15.51044000000001
 20
18.40832
 10
15.731940000000002
 20
18.340320000000002
 10
15.947960000000002
 20
18.266879999999997
 10
16.158499999999997
 20
18.188
 10
16.36356
 20
18.10368
 10
16.563139999999997
 20
18.013920000000002
 10
16.757240000000003
 20
17.918720000000004
 10
16.945860000000003
 20
17.81808
 10
17.129000000000012
 20
17.712
 10
17.30666
 20
17.60048
 10
17.478839999999998
 20
17.483520000000002
 10
17.645540000000004
 20
17.361120000000003
 10
17.806760000000004
 20
17.233280000000004
 10
17.9625
 20
17.099999999999998
 10
18.11244
 20
16.961119999999998
 10
18.256260000000005
 20
16.816480000000002
 10
18.39396
 20
16.666079999999997
 10
18.52554
 20
16.509919999999997
 10
18.651000000000003
 20
16.348000000000003
 10
18.770339999999997
 20
16.18032
 10
18.88356000000001
 20
16.00688
 10
18.99066
 20
15.827679999999997
 10
19.091640000000005
 20
15.64272
 10
19.186500000000002
 20
15.452000000000002
 10
19.275240000000004
 20
15.25552
 10
19.35786000000001
 20
15.053280000000004
 10
19.434360000000005
 20
14.845279999999999
 10
19.504740000000005
 20
14.631520000000002
 10
19.56900000000001
 20
14.412000000000003
 10
19.627140000000004
 20
14.186720000000001
 10
19.679160000000003
 20
13.955680000000005
 10
19.725060000000006
 20
13.718880000000002
 10
19.76484
 20
13.476320000000001
 10
19.79850000000001
 20
13.228000000000002
 10
19.82604
 20
12.97392
 10
19.847460000000005
 20
12.71408
 10
19.86276
 20
12.44848
 10
19.871940000000002
 20
12.177120000000002
  0
LWPOLYLINE
  5
31
330
17
100
AcDbEntity
  8
CUT
100
AcDbPolyline
 90
36
 70
1
 10
10.000000000000007
 20
13.400000000000002
 10
14.850000000000001
 20
13.400000000000002
 10
14.840820312500007
 20
13.649609375
 10
14.81328125000001
 20
13.8859375
 10
14.76738281250001
 20
14.108984375000002
 10
14.703125000000007
 20
14.318750000000001
 10
14.620507812500001
 20
14.515234375000002
 10
14.519531250000007
 20
14.6984375
 10
14.40019531250001
 20
14.868359375
 10
14.26250000000001
 20
15.025000000000002
 10
14.108398437500007
 20
15.165625000000002
 10
13.939843750000001
 20
15.287499999999998
 10
13.756835937500007
 20
15.390625000000004
 10
13.559374999999996
 20
15.474999999999998
 10
13.347460937499996
 20
15.540625000000002
 10
13.121093750000007
 20
15.587500000000002
 10
12.880273437500001
 20
15.615624999999998
 10
12.625000000000007
 20
15.625000000000004
 10
12.383379501385043
 20
15.61883656509696
 10
12.153254847645435
 20
15.600346260387813
 10
11.934626038781168
 20
15.569529085872578
 10
11.727493074792243
 20
15.526385041551247
 10
11.531855955678672
 20
15.470914127423828
 10
11.347714681440443
 20
15.403116343490307
 10
11.175069252077556
 20
15.32299168975069
 10
11.013919667590024
 20
15.230540166204985
 10
10.864265927977847
 20
15.125761772853185
 10
10.726108033240997
 20
15.008656509695292
 10
10.599445983379503
 20
14.879224376731305
 10
10.48427977839335
 20
14.737465373961221
 10
10.380609418282553
 20
14.583379501385043
 10
10.288434903047097
 20
14.416966759002772
 10
10.207756232686982
 20
14.238227146814406
 10
10.138573407202223
 20
14.047160664819945
 10
10.080886426592805
 20
13.843767313019395
 10
10.034695290858728
 20
13.628047091412743
  0
LWPOLYLINE
  5
32
330
17
100
AcDbEntity
  8
CUT
100
AcDbPolyline
 90
256
 70
1
 10
34.74999999999999
 20
14.500000000000004
 10
34.74999999999999
 20
9.350000000000001
 10
34.762499999999996
 20
9.146875000000001
 10
34.800000000000004
 20
8.962500000000002
 10
34.862500000000004
 20
8.796875
 10
34.949999999999996
 20
8.650000000000002
 10
35.06249999999999
 20
8.529687500000001
 10
35.199999999999996
 20
8.443750000000001
 10
35.362500000000004
 20
8.392187500000002
 10
35.550000000000004
 20
8.375
 10
36.449999999999996
 20
8.375
 10
36.449999999999996
 20
5.5
 10
36.397656250000004
 20
5.471093750000001
 10
36.315625000000004
 20
5.434374999999999
 10
36.203906249999996
 20
5.389843750000001
 10
36.06249999999999
 20
5.337500000000002
 10
35.889843750000004
 20
5.28125
 10
35.684374999999996
 20
5.225000000000001
 10
35.446093749999996
 20
5.168749999999999
 10
35.175000000000004
 20
5.112500000000001
 10
34.978472222222216
 20
5.078125
 10
34.77222222222222
 20
5.050000000000001
 10
34.55625
 20
5.028124999999999
 10
34.330555555555556
 20
5.012499999999999
 10
34.09513888888889
 20
5.003125000000001
 10
33.85
 20
5.0
 10
33.565125
 20
5.004375
 10
33.2905
 20
5.017500000000002
 10
33.026125
 20
5.039375
 10
32.772
 20
5.07
 10
32.528124999999996
 20
5.109375
 10
32.29449999999999
 20
5.157500000000002
 10
32.071125
 20
5.214375
 10
31.857999999999997
 20
5.280000000000001
 10
31.65512499999999
 20
5.354375000000001
 10
31.4625
 20
5.4375
 10
31.237304687499993
 20
5.552148437500001
 10
31.030468750000004
 20
5.677343750000002
 10
30.841992187500004
 20
5.813085937500002
 10
30.671874999999993
 20
5.959375000000001
 10
30.5201171875
 20
6.1162109375
 10
30.386718749999993
 20
6.283593750000001
 10
30.271679687500004
 20
6.461523437500002
 10
30.175000000000004
 20
6.650000000000002
 10
29.982750000000003
 20
6.503
 10
29.785999999999994
 20
6.362000000000002
 10
29.584749999999993
 20
6.227
 10
29.378999999999998
 20
6.0980000000000025
 10
29.168749999999996
 20
5.975000000000001
 10
28.954
 20
5.8580000000000005
 10
28.73475
 20
5.747
 10
28.511000000000003
 20
5.6419999999999995
 10
28.28275
 20
5.542999999999999
 10
28.050000000000004
 20
5.449999999999999
 10
27.851388888888884
 20
5.378125000000001
 10
27.64722222222222
 20
5.3125
 10
27.437499999999993
 20
5.253125000000001
 10
27.22222222222222
 20
5.199999999999999
 10
27.00138888888889
 20
5.153124999999999
 10
26.775
 20
5.112500000000001
 10
26.543055555555547
 20
5.078125
 10
26.30555555555555
 20
5.050000000000001
 10
26.062499999999993
 20
5.028124999999999
 10
25.81388888888889
 20
5.012499999999999
 10
25.559722222222227
 20
5.003125000000001
 10
25.300000000000004
 20
5.0
 10
25.03049307958478
 20
5.003200692041524
 10
24.769031141868517
 20
5.01280276816609
 10
24.515614186851217
 20
5.028806228373703
 10
24.270242214532864
 20
5.051211072664362
 10
24.032915224913488
 20
5.080017301038062
 10
23.803633217993074
 20
5.11522491349481
 10
23.582396193771622
 20
5.156833910034603
 10
23.369204152249132
 20
5.204844290657441
 10
23.164057093425605
 20
5.259256055363323
 10
22.96695501730104
 20
5.320069204152251
 10
22.777897923875436
 20
5.387283737024223
 10
22.59688581314878
 20
5.46089965397924
 10
22.4239186851211
 20
5.540916955017302
 10
22.258996539792385
 20
5.6273356401384085
 10
22.10211937716263
 20
5.72015570934256
 10
21.953287197231838
 20
5.81937716262976
 10
21.812499999999993
 20
5.925000000000001
 10
21.679757785467125
 20
6.0370242214532865
 10
21.55506055363322
 20
6.155449826989621
 10
21.438408304498275
 20
6.280276816608996
 10
21.32980103806228
 20
6.41150519031142
 10
21.22923875432526
 20
6.549134948096889
 10
21.1367214532872
 20
6.693166089965398
 10
21.05224913494809
 20
6.843598615916957
 10
20.97582179930796
 20
7.00043252595156
 10
20.907439446366787
 20
7.163667820069204
 10
20.847102076124564
 20
7.3333044982698965
 10
20.794809688581317
 20
7.509342560553634
 10
20.75056228373702
 20
7.691782006920416
 10
20.714359861591696
 20
7.880622837370243
 10
20.68620242214532
 20
8.075865051903115
 10
20.666089965397923
 20
8.277508650519032
 10
20.654022491349473
 20
8.485553633217993
 10
20.65
 20
8.7
 10
20.655293367346935
 20
8.970344387755102
 10
20.67117346938776
 20
9.231377551020408
 10
20.697640306122445
 20
9.483099489795919
 10
20.734693877551017
 20
9.725510204081633
 10
20.782334183673463
 20
9.958609693877552
 10
20.840561224489797
 20
10.182397959183675
 10
20.909375000000004
 20
10.396875000000001
 10
20.988775510204086
 20
10.602040816326532
 10
21.07876275510204
 20
10.797895408163267
 10
21.17933673469387
 20
10.984438775510206
 10
21.290497448979586
 20
11.16167091836735
 10
21.412244897959177
 20
11.329591836734696
 10
21.544579081632655
 20
11.488201530612248
 10
21.687499999999993
 20
11.6375
 10
21.840369897959185
 20
11.778890306122449
 10
22.002551020408156
 20
11.913775510204083
 10
22.174043367346933
 20
12.042155612244898
 10
22.354846938775516
 20
12.164030612244897
 10
22.544961734693878
 20
12.27940051020408
 10
22.744387755102046
 20
12.388265306122449
 10
22.953124999999993
 20
12.490625000000001
 10
23.17117346938776
 20
12.586479591836735
 10
23.398533163265306
 20
12.675829081632653
 10
23.635204081632658
 20
12.758673469387755
 10
23.881186224489788
 20
12.835012755102042
 10
24.13647959183674
 20
12.90484693877551
 10
24.40108418367347
 20
12.968176020408162
 10
24.675000000000004
 20
13.025000000000002
 10
24.863435374149653
 20
13.059863945578233
 10
25.057312925170073
 20
13.093027210884355
 10
25.256632653061224
 20
13.124489795918368
 10
25.461394557823134
 20
13.154251700680273
 10
25.671598639455787
 20
13.182312925170066
 10
25.887244897959185
 20
13.208673469387758
 10
26.108333333333327
 20
13.233333333333334
 10
26.334863945578228
 20
13.256292517006802
 10
26.566836734693872
 20
13.277551020408165
 10
26.804251700680275
 20
13.297108843537416
 10
27.04710884353741
 20
13.314965986394558
 10
27.2954081632653
 20
13.331122448979595
 10
27.54914965986395
 20
13.345578231292517
 10
27.80833333333333
 20
13.358333333333338
 10
28.07295918367347
 20
13.369387755102043
 10
28.34302721088435
 20
13.37874149659864
 10
28.618537414965978
 20
13.386394557823127
 10
28.899489795918363
 20
13.392346938775514
 10
29.185884353741493
 20
13.396598639455785
 10
29.477721088435366
 20
13.399149659863948
 10
29.775
 20
13.400000000000002
 10
29.775
 20
14.05
 10
29.760069444444447
 20
14.29791666666667
 10
29.71527777777778
 20
14.525000000000002
 10
29.640624999999993
 20
14.73125
 10
29.53611111111112
 20
14.916666666666668
 10
29.401736111111113
 20
15.08125
 10
29.237500000000004
 20
15.224999999999998
 10
29.07755102040816
 20
15.331122448979595
 10
28.904846938775513
 20
15.420918367346939
 10
28.71938775510204
 20
15.494387755102043
 10
28.521173469387755
 20
15.5515306122449
 10
28.310204081632655
 20
15.59234693877551
 10
28.086479591836728
 20
15.61683673469388
 10
27.85
 20
15.625000000000004
 10
27.59756944444444
 20
15.617361111111112
 10
27.356944444444444
 20
15.594444444444452
 10
27.128125000000004
 20
15.556250000000002
 10
26.911111111111104
 20
15.502777777777776
 10
26.705902777777773
 20
15.434027777777775
 10
26.512499999999996
 20
15.349999999999998
 10
26.309999999999995
 20
15.227
 10
26.152499999999996
 20
15.078
 10
26.04
 20
14.903000000000002
 10
25.972500000000004
 20
14.702000000000002
 10
25.949999999999996
 20
14.475000000000001
 10
25.949999999999996
 20
14.375000000000004
 10
21.050000000000004
 20
14.375000000000004
 10
21.039062499999993
 20
14.443750000000001
 10
21.031249999999993
 20
14.525000000000002
 10
21.026562500000004
 20
14.618750000000002
 10
21.025
 20
14.725000000000001
 10
21.031982421874993
 20
14.95634765625
 10
21.052929687500004
 20
15.181640625000004
 10
21.087841796875004
 20
15.400878906250004
 10
21.136718749999993
 20
15.6140625
 10
21.199560546875
 20
15.821191406249998
 10
21.276367187499993
 20
16.022265625
 10
21.367138671875004
 20
16.217285156250004
 10
21.471875000000004
 20
16.406250000000004
 10
21.590576171874993
 20
16.58916015625
 10
21.7232421875
 20
16.766015624999998
 10
21.869873046874993
 20
16.93681640625
 10
22.030468750000004
 20
17.101562500000004
 10
22.205029296875004
 20
17.260253906250004
 10
22.393554687499993
 20
17.412890625
 10
22.596044921875
 20
17.559472656249998
 10
22.812499999999993
 20
17.7
 10
22.978176652892564
 20
17.797727272727276
 10
23.150206611570248
 20
17.890909090909094
 10
23.328589876033057
 20
17.979545454545455
 10
23.513326446280992
 20
18.063636363636366
 10
23.704416322314053
 20
18.14318181818182
 10
23.901859504132226
 20
18.218181818181822
 10
24.10565599173554
 20
18.28863636363636
 10
24.315805785123963
 20
18.354545454545455
 10
24.532308884297514
 20
18.415909090909086
 10
24.75516528925619
 20
18.472727272727273
 10
24.984374999999993
 20
18.525000000000002
 10
25.21993801652892
 20
18.572727272727274
 10
25.461854338842976
 20
18.61590909090909
 10
25.71012396694214
 20
18.65454545454546
 10
25.964746900826448
 20
18.688636363636366
 10
26.225723140495866
 20
18.718181818181822
 10
26.49305268595041
 20
18.74318181818182
 10
26.76673553719008
 20
18.763636363636362
 10
27.046771694214875
 20
18.77954545454546
 10
27.333161157024797
 20
18.790909090909093
 10
27.62590392561983
 20
18.797727272727276
 10
27.925000000000004
 20
18.8
 10
28.210544217687065
 20
18.79770408163265
 10
28.49098639455783
 20
18.790816326530614
 10
28.76632653061224
 20
18.779336734693874
 10
29.03656462585034
 20
18.763265306122445
 10
29.301700680272113
 20
18.742602040816326
 10
29.561734693877547
 20
18.71734693877551
 10
29.81666666666667
 20
18.687500000000004
 10
30.066496598639453
 20
18.653061224489793
 10
30.31122448979591
 20
18.614030612244893
 10
30.55085034013606
 20
18.57040816326531
 10
30.785374149659866
 20
18.52219387755102
 10
31.014795918367348
 20
18.469387755102044
 10
31.239115646258504
 20
18.41198979591837
 10
31.458333333333336
 20
18.349999999999998
 10
31.67244897959184
 20
18.283418367346943
 10
31.881462585034008
 20
18.212244897959184
 10
32.08537414965986
 20
18.136479591836736
 10
32.28418367346939
 20
18.05612244897959
 10
32.47789115646258
 20
17.971173469387754
 10
32.66649659863946
 20
17.881632653061228
 10
32.85
 20
17.787499999999998
 10
33.05524691358024
 20
17.67110339506173
 10
33.24876543209877
 20
17.546913580246912
 10
33.430555555555564
 20
17.41493055555556
 10
33.60061728395062
 20
17.275154320987657
 10
33.75895061728395
 20
17.127584876543214
 10
33.90555555555556
 20
16.972222222222225
 10
34.04043209876543
 20
16.809066358024698
 10
34.163580246913575
 20
16.638117283950617
 10
34.275
 20
16.459374999999998
 10
34.3746913580247
 20
16.27283950617284
 10
34.46265432098766
 20
16.078510802469136
 10
34.538888888888884
 20
15.876388888888886
 10
34.6033950617284
 20
15.666473765432098
 10
34.656172839506176
 20
15.448765432098764
 10
34.697222222222216
 20
15.22326388888889
 10
34.726543209876546
 20
14.989969135802472
 10
34.74413580246914
 20
14.748881172839507
  0
LWPOLYLINE
  5
33
330
17
100
AcDbEntity
  8
CUT
100
AcDbPolyline
 90
49
 70
1
 10
25.624999999999993
 20
9.350000000000001
 10
25.636805555555547
 20
9.150347222222223
 10
25.672222222222224
 20
8.968055555555559
 10
25.731249999999996
 20
8.803125000000001
 10
25.81388888888889
 20
8.655555555555555
 10
25.920138888888893
 20
8.525347222222223
 10
26.050000000000004
 20
8.412500000000001
 10
26.203472222222224
 20
8.31701388888889
 10
26.380555555555553
 20
8.23888888888889
 10
26.581250000000004
 20
8.178125000000001
 10
26.80555555555555
 20
8.134722222222223
 10
27.05347222222222
 20
8.108680555555555
 10
27.324999999999996
 20
8.100000000000001
 10
27.5650390625
 20
8.108203125
 10
27.797656249999996
 20
8.1328125
 10
28.0228515625
 20
8.173828125
 10
28.240625
 20
8.23125
 10
28.450976562499996
 20
8.305078125000001
 10
28.65390625
 20
8.3953125
 10
28.849414062499996
 20
8.501953125
 10
29.0375
 20
8.625
 10
29.233163265306125
 20
8.780102040816328
 10
29.398724489795917
 20
8.94540816326531
 10
29.53418367346938
 20
9.120918367346938
 10
29.639540816326523
 20
9.306632653061225
 10
29.71479591836735
 20
9.502551020408166
 10
29.759948979591833
 20
9.708673469387758
 10
29.775
 20
9.925
 10
29.775
 20
11.05
 10
29.454659763313607
 20
11.04726331360947
 10
29.147485207100594
 20
11.03905325443787
 10
28.853476331360945
 20
11.025369822485207
 10
28.572633136094673
 20
11.006213017751481
 10
28.30495562130178
 20
10.981582840236687
 10
28.05044378698225
 20
10.951479289940831
 10
27.809097633136098
 20
10.915902366863907
 10
27.58091715976331
 20
10.874852071005918
 10
27.3659023668639
 20
10.828328402366864
 10
27.164053254437867
 20
10.776331360946745
 10
26.975369822485213
 20
10.718860946745561
 10
26.799852071005922
 20
10.655917159763316
 10
26.637499999999996
 20
10.587500000000002
 10
26.400195312499996
 20
10.4669921875
 10
26.194531250000004
 20
10.33671875
 10
26.020507812499993
 20
10.196679687500001
 10
25.878125000000004
 20
10.046875
 10
25.767382812499996
 20
9.887304687500002
 10
25.688281249999996
 20
9.71796875
 10
25.640820312500004
 20
9.5388671875
  0
LWPOLYLINE
  5
34
330
17
100
AcDbEntity
  8
CUT
100
AcDbPolyline
 90
58
 70
1
 10
46.699999999999996
 20
18.525000000000002
 10
46.699999999999996
 20
14.350000000000001
 10
45.1
 20
14.350000000000001
 10
44.82530991735536
 20
14.343388429752068
 10
44.56487603305785
 20
14.323553719008263
 10
44.318698347107436
 20
14.290495867768595
 10
44.086776859504134
 20
14.244214876033059
 10
43.86911157024793
 20
14.184710743801656
 10
43.66570247933884
 20
14.111983471074382
 10
43.47654958677686
 20
14.02603305785124
 10
43.30165289256198
 20
13.926859504132235
 10
43.141012396694215
 20
13.814462809917355
 10
42.994628099173546
 20
13.688842975206615
 10
42.86249999999999
 20
13.55
 10
42.74318181818182
 20
13.398140495867768
 10
42.63522727272727
 20
13.233471074380166
 10
42.538636363636364
 20
13.05599173553719
 10
42.45340909090908
 20
12.865702479338843
 10
42.37954545454544
 20
12.662603305785122
 10
42.31704545454544
 20
12.446694214876032
 10
42.26590909090908
 20
12.21797520661157
 10
42.226136363636364
 20
11.976446280991734
 10
42.19772727272727
 20
11.722107438016529
 10
42.18068181818182
 20
11.454958677685951
 10
42.17499999999999
 20
11.175
 10
42.17499999999999
 20
5.300000000000001
 10
37.199999999999996
 20
5.300000000000001
 10
37.199999999999996
 20
18.500000000000004
 10
41.275
 20
18.500000000000004
 10
41.6
 20
16.500000000000004
 10
41.695249999999994
 20
16.724375
 10
41.800999999999995
 20
16.937500000000004
 10
41.91724999999999
 20
17.139375000000005
 10
42.04399999999999
 20
17.330000000000002
 10
42.18125
 20
17.509375000000002
 10
42.329
 20
17.6775
 10
42.487249999999996
 20
17.834374999999998
 10
42.656
 20
17.98
 10
42.835249999999995
 20
18.114375
 10
43.025
 20
18.2375
 10
43.22249999999999
 20
18.349125000000004
 10
43.425000000000004
 20
18.449
 10
43.6325
 20
18.537125
 10
43.84499999999999
 20
18.613500000000005
 10
44.06249999999999
 20
18.678124999999998
 10
44.28499999999999
 20
18.730999999999998
 10
44.512499999999996
 20
18.772125
 10
44.745
 20
18.8015
 10
44.982499999999995
 20
18.819125000000003
 10
45.225
 20
18.825
 10
45.449999999999996
 20
18.8195
 10
45.665
 20
18.803
 10
45.87
 20
18.775499999999997
 10
46.06499999999999
 20
18.737
 10
46.24999999999999
 20
18.687500000000004
 10
46.446875
 20
18.62578125
 10
46.5875
 20
18.578125000000004
 10
46.67187499999999
 20
18.544531250000002
  0
LWPOLYLINE
  5
35
330
17
100
AcDbEntity
  8
CUT
100
AcDbPolyline
 90
165
 70
1
 10
70.70000000000002
 20
13.850000000000001
 10
70.70000000000002
 20
5.300000000000001
 10
65.725
 20
5.300000000000001
 10
65.725
 20
13.25
 10
65.71658163265306
 20
13.485969387755102
 10
65.69132653061226
 20
13.708163265306123
 10
65.64923469387756
 20
13.91658163265306
 10
65.590306122449
 20
14.11122448979592
 10
65.51454081632653
 20
14.292091836734695
 10
65.4219387755102
 20
14.459183673469386
 10
65.3125
 20
14.6125
 10
65.165625
 20
14.769097222222225
 10
65.0
 20
14.897222222222226
 10
64.81562500000001
 20
14.996875
 10
64.61250000000001
 20
15.068055555555556
 10
64.390625
 20
15.110763888888886
 10
64.15
 20
15.125000000000004
 10
63.90663265306123
 20
15.112755102040818
 10
63.676530612244896
 20
15.076020408163263
 10
63.459693877551025
 20
15.014795918367344
 10
63.25612244897959
 20
14.929081632653062
 10
63.065816326530616
 20
14.81887755102041
 10
62.88877551020409
 20
14.684183673469388
 10
62.725
 20
14.525000000000002
 10
62.579081632653065
 20
14.34795918367347
 10
62.45561224489797
 20
14.159693877551021
 10
62.35459183673469
 20
13.960204081632654
 10
62.27602040816327
 20
13.749489795918368
 10
62.219897959183676
 20
13.527551020408165
 10
62.186224489795926
 20
13.29438775510204
 10
62.175000000000004
 20
13.05
 10
62.175000000000004
 20
5.300000000000001
 10
57.20000000000001
 20
5.300000000000001
 10
57.20000000000001
 20
13.25
 10
57.191581632653076
 20
13.485969387755102
 10
57.166326530612245
 20
13.708163265306123
 10
57.12423469387755
 20
13.91658163265306
 10
57.06530612244898
 20
14.11122448979592
 10
56.98954081632653
 20
14.292091836734695
 10
56.896938775510215
 20
14.459183673469386
 10
56.7875
 20
14.6125
 10
56.64062500000001
 20
14.769097222222225
 10
56.475
 20
14.897222222222226
 10
56.290625
 20
14.996875
 10
56.0875
 20
15.068055555555556
 10
55.865625
 20
15.110763888888886
 10
55.62500000000001
 20
15.125000000000004
 10
55.381632653061224
 20
15.112755102040818
 10
55.151530612244905
 20
15.076020408163263
 10
54.93469387755102
 20
15.014795918367344
 10
54.7311224489796
 20
14.929081632653062
 10
54.54081632653061
 20
14.81887755102041
 10
54.363775510204086
 20
14.684183673469388
 10
54.20000000000001
 20
14.525000000000002
 10
54.05408163265306
 20
14.34795918367347
 10
53.930612244897965
 20
14.159693877551021
 10
53.8295918367347
 20
13.960204081632654
 10
53.751020408163264
 20
13.749489795918368
 10
53.694897959183685
 20
13.527551020408165
 10
53.66122448979592
 20
13.29438775510204
 10
53.65
 20
13.05
 10
53.65
 20
5.300000000000001
 10
48.675000000000004
 20
5.300000000000001
 10
48.675000000000004
 20
18.500000000000004
 10
52.75000000000001
 20
18.500000000000004
 10
53.07500000000001
 20
16.525000000000002
 10
53.21539256198347
 20
16.712293388429753
 10
53.363842975206616
 20
16.892355371900823
 10
53.52035123966943
 20
17.065185950413227
 10
53.6849173553719
 20
17.230785123966943
 10
53.857541322314056
 20
17.389152892561984
 10
54.038223140495866
 20
17.540289256198346
 10
54.22696280991736
 20
17.684194214876033
 10
54.42376033057851
 20
17.82086776859504
 10
54.628615702479344
 20
17.950309917355373
 10
54.84152892561983
 20
18.072520661157025
 10
55.06250000000001
 20
18.187500000000004
 10
55.269704861111116
 20
18.285329861111112
 10
55.47881944444445
 20
18.37465277777778
 10
55.68984375
 20
18.455468749999998
 10
55.90277777777778
 20
18.527777777777782
 10
56.11762152777778
 20
18.59157986111111
 10
56.334375
 20
18.646874999999998
 10
56.55303819444445
 20
18.693663194444444
 10
56.773611111111116
 20
18.731944444444448
 10
56.99609375000001
 20
18.761718750000004
 10
57.22048611111112
 20
18.78298611111111
 10
57.446788194444444
 20
18.795746527777776
 10
57.675000000000004
 20
18.8
 10
57.94142561983471
 20
18.79529958677686
 10
58.19979338842975
 20
18.781198347107438
 10
58.45010330578513
 20
18.757696280991734
 10
58.69235537190084
 20
18.72479338842975
 10
58.926549586776865
 20
18.68248966942149
 10
59.15268595041322
 20
18.63078512396694
 10
59.37076446280992
 20
18.56967975206612
 10
59.580785123966955
 20
18.499173553719007
 10
59.7827479338843
 20
18.419266528925622
 10
59.976652892561994
 20
18.329958677685948
 10
60.1625
 20
18.23125
 10
60.34028925619835
 20
18.12314049586777
 10
60.510020661157036
 20
18.005630165289258
 10
60.671694214876034
 20
17.878719008264465
 10
60.825309917355376
 20
17.74240702479339
 10
60.97086776859505
 20
17.596694214876035
 10
61.10836776859505
 20
17.441580578512397
 10
61.23780991735537
 20
17.27706611570248
 10
61.359194214876034
 20
17.103150826446285
 10
61.47252066115703
 20
16.919834710743803
 10
61.57778925619835
 20
16.72711776859504
 10
61.675000000000004
 20
16.525000000000002
 10
61.81952479338843
 20
16.712293388429753
 10
61.97128099173553
 20
16.892355371900823
 10
62.130268595041336
 20
17.065185950413227
 10
62.296487603305785
 20
17.230785123966943
 10
62.469938016528936
 20
17.389152892561984
 10
62.650619834710746
 20
17.540289256198346
 10
62.838533057851244
 20
17.684194214876033
 10
63.033677685950416
 20
17.82086776859504
 10
63.236053719008275
 20
17.950309917355373
 10
63.445661157024794
 20
18.072520661157025
 10
63.6625
 20
18.187500000000004
 10
63.88388429752066
 20
18.293801652892558
 10
64.10712809917356
 20
18.389979338842974
 10
64.33223140495869
 20
18.476033057851243
 10
64.55919421487604
 20
18.55196280991736
 10
64.78801652892562
 20
18.617768595041323
 10
65.01869834710743
 20
18.67345041322314
 10
65.2512396694215
 20
18.71900826446281
 10
65.48564049586778
 20
18.75444214876033
 10
65.7219008264463
 20
18.7797520661157
 10
65.96002066115705
 20
18.794938016528928
 10
66.20000000000002
 20
18.8
 10
66.47685546875002
 20
18.794970703125
 10
66.74492187500002
 20
18.779882812500002
 10
67.00419921875002
 20
18.754736328125002
 10
67.25468750000002
 20
18.71953125
 10
67.49638671875002
 20
18.674267578125
 10
67.72929687500002
 20
18.6189453125
 10
67.95341796875002
 20
18.553564453125002
 10
68.16875000000002
 20
18.478125000000002
 10
68.37529296875002
 20
18.392626953125
 10
68.57304687500002
 20
18.2970703125
 10
68.76201171875002
 20
18.191455078125
 10
68.94218750000002
 20
18.075781250000002
 10
69.11357421875002
 20
17.950048828125002
 10
69.27617187500002
 20
17.8142578125
 10
69.42998046875002
 20
17.668408203125
 10
69.57500000000002
 20
17.5125
 10
69.70346020761247
 20
17.35726643598616
 10
69.82413494809688
 20
17.194506920415225
 10
69.9370242214533
 20
17.0242214532872
 10
70.04212802768166
 20
16.846410034602076
 10
70.13944636678201
 20
16.66107266435986
 10
70.22897923875433
 20
16.468209342560552
 10
70.31072664359863
 20
16.267820069204152
 10
70.38468858131489
 20
16.05990484429066
 10
70.45086505190312
 20
15.844463667820069
 10
70.50925605536332
 20
15.621496539792393
 10
70.5598615916955
 20
15.391003460207617
 10
70.60268166089966
 20
15.152984429065743
 10
70.63771626297577
 20
14.907439446366784
 10
70.66496539792388
 20
14.654368512110729
 10
70.68442906574396
 20
14.393771626297582
 10
70.696107266436
 20
14.12564878892734
  0
LWPOLYLINE
  5
36
330
17
100
AcDbEntity
  8
CUT
100
AcDbPolyline
 90
4
 70
1
 10
72.97500000000002
 20
20.05
 10
72.97500000000002
 20
23.425
 10
77.95000000000002
 20
23.425
 10
77.95000000000002
 20
20.05
  0
LWPOLYLINE
  5
37
330
17
100
AcDbEntity
  8
CUT
100
AcDbPolyline
 90
4
 70
1
 10
72.97500000000002
 20
5.300000000000001
 10
72.97500000000002
 20
18.500000000000004
 10
77.95000000000002
 20
18.500000000000004
 10
77.95000000000002
 20
5.300000000000001
  0
LWPOLYLINE
  5
38
330
17
100
AcDbEntity
  8
CUT
100
AcDbPolyline
 90
4
 70
1
 10
80.42500000000001
 20
5.300000000000001
 10
80.42500000000001
 20
23.425
 10
85.4
 20
23.425
 10
85.4
 20
5.300000000000001
  0
LWPOLYLINE
  5
39
330
17
100
AcDbEntity
  8
CUT
100
AcDbPolyline
 90
12
 70
1
 10
96.89999999999998
 20
18.500000000000004
 10
102.69999999999999
 20
18.500000000000004
 10
97.82499999999999
 20
13.175
 10
102.82499999999999
 20
5.300000000000001
 10
97.17499999999998
 20
5.300000000000001
 10
94.39999999999998
 20
9.825
 10
92.67499999999998
 20
8.150000000000002
 10
92.67499999999998
 20
5.300000000000001
 10
87.69999999999999
 20
5.300000000000001
 10
87.69999999999999
 20
23.450000000000006
 10
92.67499999999998
 20
23.450000000000006
 10
92.67499999999998
 20
13.45
  0
ENDSEC
  0
SECTION
  2
OBJECTS
  0
DICTIONARY
  5
A
330
0
100
AcDbDictionary
281
1
  3
ACAD_COLOR
350
B
  3
ACAD_GROUP
350
C
  3
ACAD_LAYOUT
350
D
  3
ACAD_MATERIAL
350
E
  3
ACAD_MLEADERSTYLE
350
F
  3
ACAD_MLINESTYLE
350
10
  3
ACAD_PLOTSETTINGS
350
11
  3
ACAD_PLOTSTYLENAME
350
12
  3
ACAD_SCALELIST
350
14
  3
ACAD_TABLESTYLE
350
15
  3
ACAD_VISUALSTYLE
350
16
  3
EZDXF_META
350
2D
  0
DICTIONARY
  5
B
330
A
100
AcDbDictionary
281
1
  0
DICTIONARY
  5
C
330
A
100
AcDbDictionary
281
1
  0
DICTIONARY
  5
D
330
A
100
AcDbDictionary
281
1
  3
Model
350
1A
  3
Layout1
350
1E
  0
DICTIONARY
  5
E
330
A
100
AcDbDictionary
281
1
  3
ByBlock
350
1F
  3
ByLayer
350
20
  3
Global
350
21
  0
DICTIONARY
  5
F
330
A
100
AcDbDictionary
281
1
  3
Standard
350
2C
  0
DICTIONARY
  5
10
330
A
100
AcDbDictionary
281
1
  3
Standard
350
22
  0
DICTIONARY
  5
11
330
A
100
AcDbDictionary
281
1
  0
ACDBDICTIONARYWDFLT
  5
12
330
A
100
AcDbDictionary
281
1
  3
Normal
350
13
100
AcDbDictionaryWithDefault
340
13
  0
ACDBPLACEHOLDER
  5
13
330
12
  0
DICTIONARY
  5
14
330
A
100
AcDbDictionary
281
1
  0
DICTIONARY
  5
15
330
A
100
AcDbDictionary
281
1
  0
DICTIONARY
  5
16
330
A
100
AcDbDictionary
281
1
  0
LAYOUT
  5
1A
330
D
100
AcDbPlotSettings
  1

  4
A3
  6

 40
7.5
 41
20.0
 42
7.5
 43
20.0
 44
420.0
 45
297.0
 46
0.0
 47
0.0
 48
0.0
 49
0.0
140
0.0
141
0.0
142
1.0
143
1.0
 70
1024
 72
1
 73
0
 74
5
  7

 75
16
 76
0
 77
2
 78
300
147
1.0
148
0.0
149
0.0
100
AcDbLayout
  1
Model
 70
1
 71
0
 10
0.0
 20
0.0
 11
420.0
 21
297.0
 12
0.0
 22
0.0
 32
0.0
 14
1e+20
 24
1e+20
 34
1e+20
 15
-1e+20
 25
-1e+20
 35
-1e+20
146
0.0
 13
0.0
 23
0.0
 33
0.0
 16
1.0
 26
0.0
 36
0.0
 17
0.0
 27
1.0
 37
0.0
 76
1
330
17
  0
LAYOUT
  5
1E
330
D
100
AcDbPlotSettings
  1

  4
A3
  6

 40
7.5
 41
20.0
 42
7.5
 43
20.0
 44
420.0
 45
297.0
 46
0.0
 47
0.0
 48
0.0
 49
0.0
140
0.0
141
0.0
142
1.0
143
1.0
 70
0
 72
1
 73
0
 74
5
  7

 75
16
 76
0
 77
2
 78
300
147
1.0
148
0.0
149
0.0
100
AcDbLayout
  1
Layout1
 70
1
 71
1
 10
0.0
 20
0.0
 11
420.0
 21
297.0
 12
0.0
 22
0.0
 32
0.0
 14
1e+20
 24
1e+20
 34
1e+20
 15
-1e+20
 25
-1e+20
 35
-1e+20
146
0.0
 13
0.0
 23
0.0
 33
0.0
 16
1.0
 26
0.0
 36
0.0
 17
0.0
 27
1.0
 37
0.0
 76
1
330
1B
  0
MATERIAL
  5
1F
102
{ACAD_REACTORS
330
E
102
}
330
E
100
AcDbMaterial
  1
ByBlock
  2

 70
0
 40
1.0
 71
1
 41
1.0
 91
-1023410177
 42
1.0
 72
1
  3

 73
1
 74
1
 75
1
 44
0.5
 73
0
 45
1.0
 46
1.0
 77
1
  4

 78
1
 79
1
170
1
 48
1.0
171
1
  6

172
1
173
1
174
1
140
1.0
141
1.0
175
1
  7

176
1
177
1
178
1
143
1.0
179
1
  8

270
1
271
1
272
1
145
1.0
146
1.0
273
1
  9

274
1
275
1
276
1
 42
1.0
 72
1
  3

 73
1
 74
1
 75
1
 94
63
  0
MATERIAL
  5
20
102
{ACAD_REACTORS
330
E
102
}
330
E
100
AcDbMaterial
  1
ByLayer
  2

 70
0
 40
1.0
 71
1
 41
1.0
 91
-1023410177
 42
1.0
 72
1
  3

 73
1
 74
1
 75
1
 44
0.5
 73
0
 45
1.0
 46
1.0
 77
1
  4

 78
1
 79
1
170
1
 48
1.0
171
1
  6

172
1
173
1
174
1
140
1.0
141
1.0
175
1
  7

176
1
177
1
178
1
143
1.0
179
1
  8

270
1
271
1
272
1
145
1.0
146
1.0
273
1
  9

274
1
275
1
276
1
 42
1.0
 72
1
  3

 73
1
 74
1
 75
1
 94
63
  0
MATERIAL
  5
21
102
{ACAD_REACTORS
330
E
102
}
330
E
100
AcDbMaterial
  1
Global
  2

 70
0
 40
1.0
 71
1
 41
1.0
 91
-1023410177
 42
1.0
 72
1
  3

 73
1
 74
1
 75
1
 44
0.5
 73
0
 45
1.0
 46
1.0
 77
1
  4

 78
1
 79
1
170
1
 48
1.0
171
1
  6

172
1
173
1
174
1
140
1.0
141
1.0
175
1
  7

176
1
177
1
178
1
143
1.0
179
1
  8

270
1
271
1
272
1
145
1.0
146
1.0
273
1
  9

274
1
275
1
276
1
 42
1.0
 72
1
  3

 73
1
 74
1
 75
1
 94
63
  0
MLINESTYLE
  5
22
102
{ACAD_REACTORS
330
10
102
}
330
10
100
AcDbMlineStyle
  2
Standard
 70
0
  3

 62
256
 51
90.0
 52
90.0
 71
2
 49
0.5
 62
256
  6
BYLAYER
 49
-0.5
 62
256
  6
BYLAYER
  0
MLEADERSTYLE
  5
2C
102
{ACAD_REACTORS
330
F
102
}
330
F
100
AcDbMLeaderStyle
179
2
170
2
171
1
172
0
 90
2
 40
0.0
 41
0.0
173
1
 91
-1056964608
 92
-2
290
1
 42
2.0
291
1
 43
8.0
  3
Standard
 44
4.0
300

342
29
174
1
175
1
176
0
178
1
 93
-1056964608
 45
4.0
292
0
297
0
 46
4.0
 94
-1056964608
 47
1.0
 49
1.0
140
1.0
294
1
141
0.0
177
0
142
1.0
295
0
296
0
143
3.75
271
0
272
9
273
9
  0
DICTIONARY
  5
2D
330
A
100
AcDbDictionary
280
1
281
1
  3
CREATED_BY_EZDXF
350
2E
  3
WRITTEN_BY_EZDXF
350
3C
  0
DICTIONARYVAR
  5
2E
330
2D
100
DictionaryVariables
280
0
  1
1.4.4 @ 2026-10-08T17:27:56.412388+00:00
  0
DICTIONARYVAR
  5
3C
330
2D
100
DictionaryVariables
280
0
  1
1.4.4 @ 2026-10-08T17:27:56.417799+00:00
  0
ENDSEC
  0
EOF
