  0
SECTION
  2
HEADER
  9
$ACADVER
  1
AC1024
  9
$ACADMAINTVER
 70
6
  9
$DWGCODEPAGE
  3
ANSI_1252
  9
$LASTSAVEDBY
  1
ezdxf
  9
$INSBASE
 10
0.0
 20
0.0
 30
0.0
  9
$EXTMIN
 10
1e+20
 20
1e+20
 30
1e+20
  9
$EXTMAX
 10
-1e+20
 20
-1e+20
 30
-1e+20
  9
$LIMMIN
 10
0.0
 20
0.0
  9
$LIMMAX
 10
420.0
 20
297.0
  9
$ORTHOMODE
 70
0
  9
$REGENMODE
 70
1
  9
$FILLMODE
 70
1
  9
$QTEXTMODE
 70
0
  9
$MIRRTEXT
 70
1
  9
$LTSCALE
 40
1.0
  9
$ATTMODE
 70
1
  9
$TEXTSIZE
 40
2.5
  9
$TRACEWID
 40
1.0
  9
$TEXTSTYLE
  7
Standard
  9
$CLAYER
  8
0
  9
$CELTYPE
  6
ByLayer
  9
$CECOLOR
 62
256
  9
$CELTSCALE
 40
1.0
  9
$DISPSILH
 70
0
  9
$DIMSCALE
 40
1.0
  9
$DIMASZ
 40
2.5
  9
$DIMEXO
 40
0.625
  9
$DIMDLI
 40
3.75
  9
$DIMRND
 40
0.0
  9
$DIMDLE
 40
0.0
  9
$DIMEXE
 40
1.25
  9
$DIMTP
 40
0.0
  9
$DIMTM
 40
0.0
  9
$DIMTXT
 40
2.5
  9
$DIMCEN
 40
2.5
  9
$DIMTSZ
 40
0.0
  9
$DIMTOL
 70
0
  9
$DIMLIM
 70
0
  9
$DIMTIH
 70
0
  9
$DIMTOH
 70
0
  9
$DIMSE1
 70
0
  9
$DIMSE2
 70
0
  9
$DIMTAD
 70
1
  9
$DIMZIN
 70
8
  9
$DIMBLK
  1

  9
$DIMASO
 70
1
  9
$DIMSHO
 70
1
  9
$DIMPOST
  1

  9
$DIMAPOST
  1

  9
$DIMALT
 70
0
  9
$DIMALTD
 70
3
  9
$DIMALTF
 40
0.03937007874
  9
$DIMLFAC
 40
1.0
  9
$DIMTOFL
 70
1
  9
$DIMTVP
 40
0.0
  9
$DIMTIX
 70
0
  9
$DIMSOXD
 70
0
  9
$DIMSAH
 70
0
  9
$DIMBLK1
  1

  9
$DIMBLK2
  1

  9
$DIMSTYLE
  2
ISO-25
  9
$DIMCLRD
 70
0
  9
$DIMCLRE
 70
0
  9
$DIMCLRT
 70
0
  9
$DIMTFAC
 40
1.0
  9
$DIMGAP
 40
0.625
  9
$DIMJUST
 70
0
  9
$DIMSD1
 70
0
  9
$DIMSD2
 70
0
  9
$DIMTOLJ
 70
0
  9
$DIMTZIN
 70
8
  9
$DIMALTZ
 70
0
  9
$DIMALTTZ
 70
0
  9
$DIMUPT
 70
0
  9
$DIMDEC
 70
2
  9
$DIMTDEC
 70
2
  9
$DIMALTU
 70
2
  9
$DIMALTTD
 70
3
  9
$DIMTXSTY
  7
Standard
  9
$DIMAUNIT
 70
0
  9
$DIMADEC
 70
0
  9
$DIMALTRND
 40
0.0
  9
$DIMAZIN
 70
0
  9
$DIMDSEP
 70
44
  9
$DIMATFIT
 70
3
  9
$DIMFRAC
 70
0
  9
$DIMLDRBLK
  1

  9
$DIMLUNIT
 70
2
  9
$DIMLWD
 70
-2
  9
$DIMLWE
 70
-2
  9
$DIMTMOVE
 70
0
  9
$DIMFXL
 40
1.0
  9
$DIMFXLON
 70
0
  9
$DIMJOGANG
 40
0.785398163397
  9
$DIMTFILL
 70
0
  9
$DIMTFILLCLR
 70
0
  9
$DIMARCSYM
 70
0
  9
$DIMLTYPE
  6

  9
$DIMLTEX1
  6

  9
$DIMLTEX2
  6

  9
$DIMTXTDIRECTION
 70
0
  9
$LUNITS
 70
2
  9
$LUPREC
 70
4
  9
$SKETCHINC
 40
1.0
  9
$FILLETRAD
 40
10.0
  9
$AUNITS
 70
0
  9
$AUPREC
 70
2
  9
$MENU
  1
.
  9
$ELEVATION
 40
0.0
  9
$PELEVATION
 40
0.0
  9
$THICKNESS
 40
0.0
  9
$LIMCHECK
 70
0
  9
$CHAMFERA
 40
0.0
  9
$CHAMFERB
 40
0.0
  9
$CHAMFERC
 40
0.0
  9
$CHAMFERD
 40
0.0
  9
$SKPOLY
 70
0
  9
$TDCREATE
 40
2461324.7897106484
  9
$TDUCREATE
 40
2458532.153996898
  9
$TDUPDATE
 40
2461324.7897106484
  9
$TDUUPDATE
 40
2458532.1544311
  9
$TDINDWG
 40
0.0
  9
$TDUSRTIMER
 40
0.0
  9
$USRTIMER
 70
1
  9
$ANGBASE
 50
0.0
  9
$ANGDIR
 70
0
  9
$PDMODE
 70
0
  9
$PDSIZE
 40
0.0
  9
$PLINEWID
 40
0.0
  9
$SPLFRAME
 70
0
  9
$SPLINETYPE
 70
6
  9
$SPLINESEGS
 70
8
  9
$HANDSEED
  5
47
  9
$SURFTAB1
 70
6
  9
$SURFTAB2
 70
6
  9
$SURFTYPE
 70
6
  9
$SURFU
 70
6
  9
$SURFV
 70
6
  9
$UCSBASE
  2

  9
$UCSNAME
  2

  9
$UCSORG
 10
0.0
 20
0.0
 30
0.0
  9
$UCSXDIR
 10
1.0
 20
0.0
 30
0.0
  9
$UCSYDIR
 10
0.0
 20
1.0
 30
0.0
  9
$UCSORTHOREF
  2

  9
$UCSORTHOVIEW
 70
0
  9
$UCSORGTOP
 10
0.0
 20
0.0
 30
0.0
  9
$UCSORGBOTTOM
 10
0.0
 20
0.0
 30
0.0
  9
$UCSORGLEFT
 10
0.0
 20
0.0
 30
0.0
  9
$UCSORGRIGHT
 10
0.0
 20
0.0
 30
0.0
  9
$UCSORGFRONT
 10
0.0
 20
0.0
 30
0.0
  9
$UCSORGBACK
 10
0.0
 20
0.0
 30
0.0
  9
$PUCSBASE
  2

  9
$PUCSNAME
  2

  9
$PUCSORG
 10
0.0
 20
0.0
 30
0.0
  9
$PUCSXDIR
 10
1.0
 20
0.0
 30
0.0
  9
$PUCSYDIR
 10
0.0
 20
1.0
 30
0.0
  9
$PUCSORTHOREF
  2

  9
$PUCSORTHOVIEW
 70
0
  9
$PUCSORGTOP
 10
0.0
 20
0.0
 30
0.0
  9
$PUCSORGBOTTOM
 10
0.0
 20
0.0
 30
0.0
  9
$PUCSORGLEFT
 10
0.0
 20
0.0
 30
0.0
  9
$PUCSORGRIGHT
 10
0.0
 20
0.0
 30
0.0
  9
$PUCSORGFRONT
 10
0.0
 20
0.0
 30
0.0
  9
$PUCSORGBACK
 10
0.0
 20
0.0
 30
0.0
  9
$USERI1
 70
0
  9
$USERI2
 70
0
  9
$USERI3
 70
0
  9
$USERI4
 70
0
  9
$USERI5
 70
0
  9
$USERR1
 40
0.0
  9
$USERR2
 40
0.0
  9
$USERR3
 40
0.0
  9
$USERR4
 40
0.0
  9
$USERR5
 40
0.0
  9
$WORLDVIEW
 70
1
  9
$SHADEDGE
 70
3
  9
$SHADEDIF
 70
70
  9
$TILEMODE
 70
1
  9
$MAXACTVP
 70
64
  9
$PINSBASE
 10
0.0
 20
0.0
 30
0.0
  9
$PLIMCHECK
 70
0
  9
$PEXTMIN
 10
1e+20
 20
1e+20
 30
1e+20
  9
$PEXTMAX
 10
-1e+20
 20
-1e+20
 30
-1e+20
  9
$PLIMMIN
 10
0.0
 20
0.0
  9
$PLIMMAX
 10
420.0
 20
297.0
  9
$UNITMODE
 70
0
  9
$VISRETAIN
 70
1
  9
$PLINEGEN
 70
0
  9
$PSLTSCALE
 70
1
  9
$TREEDEPTH
 70
3020
  9
$CMLSTYLE
  2
Standard
  9
$CMLJUST
 70
0
  9
$CMLSCALE
 40
20.0
  9
$PROXYGRAPHICS
 70
1
  9
$MEASUREMENT
 70
1
  9
$CELWEIGHT
370
-1
  9
$ENDCAPS
280
0
  9
$JOINSTYLE
280
0
  9
$LWDISPLAY
290
0
  9
$INSUNITS
 70
4
  9
$HYPERLINKBASE
  1

  9
$STYLESHEET
  1

  9
$XEDIT
290
1
  9
$CEPSNTYPE
380
0
  9
$PSTYLEMODE
290
1
  9
$FINGERPRINTGUID
  2
{ED3484F2-9C34-492F-8ABF-00828FFDD887}
  9
$VERSIONGUID
  2
{B531EC7A-BA83-496F-9074-A4579C9DC2E6}
  9
$EXTNAMES
290
1
  9
$PSVPSCALE
 40
0.0
  9
$OLESTARTUP
290
0
  9
$SORTENTS
280
127
  9
$INDEXCTL
280
0
  9
$HIDETEXT
280
1
  9
$XCLIPFRAME
280
1
  9
$HALOGAP
280
0
  9
$OBSCOLOR
 70
257
  9
$OBSLTYPE
280
0
  9
$INTERSECTIONDISPLAY
280
0
  9
$INTERSECTIONCOLOR
 70
257
  9
$DIMASSOC
280
2
  9
$PROJECTNAME
  1

  9
$CAMERADISPLAY
290
0
  9
$LENSLENGTH
 40
50.0
  9
$CAMERAHEIGHT
 40
0.0
  9
$STEPSPERSEC
 40
24.0
  9
$STEPSIZE
 40
100.0
  9
$3DDWFPREC
 40
2.0
  9
$PSOLWIDTH
 40
0.005
  9
$PSOLHEIGHT
 40
0.08
  9
$LOFTANG1
 40
1.570796326795
  9
$LOFTANG2
 40
1.570796326795
  9
$LOFTMAG1
 40
0.0
  9
$LOFTMAG2
 40
0.0
  9
$LOFTPARAM
 70
7
  9
$LOFTNORMALS
280
1
  9
$LATITUDE
 40
37.795
  9
$LONGITUDE
 40
-122.394
  9
$NORTHDIRECTION
 40
0.0
  9
$TIMEZONE
 70
-8000
  9
$LIGHTGLYPHDISPLAY
280
1
  9
$TILEMODELIGHTSYNCH
280
1
  9
$CMATERIAL
347
20
  9
$SOLIDHIST
280
0
  9
$SHOWHIST
280
1
  9
$DWFFRAME
280
2
  9
$DGNFRAME
280
2
  9
$REALWORLDSCALE
290
1
  9
$INTERFERECOLOR
 62
256
  9
$CSHADOW
280
0
  9
$SHADOWPLANELOCATION
 40
0.0
  0
ENDSEC
  0
SECTION
  2
CLASSES
  0
CLASS
  1
ACDBDICTIONARYWDFLT
  2
AcDbDictionaryWithDefault
  3
ObjectDBX Classes
 90
0
 91
0
280
0
281
0
  0
CLASS
  1
SUN
  2
AcDbSun
  3
SCENEOE
 90
1153
 91
0
280
0
281
0
  0
CLASS
  1
VISUALSTYLE
  2
AcDbVisualStyle
  3
ObjectDBX Classes
 90
4095
 91
0
280
0
281
0
  0
CLASS
  1
MATERIAL
  2
AcDbMaterial
  3
ObjectDBX Classes
 90
1153
 91
0
280
0
281
0
  0
CLASS
  1
SCALE
  2
AcDbScale
  3
ObjectDBX Classes
 90
1153
 91
0
280
0
281
0
  0
CLASS
  1
TABLESTYLE
  2
AcDbTableStyle
  3
ObjectDBX Classes
 90
4095
 91
0
280
0
281
0
  0
CLASS
  1
MLEADERSTYLE
  2
AcDbMLeaderStyle
  3
ACDB_MLEADERSTYLE_CLASS
 90
4095
 91
0
280
0
281
0
  0
CLASS
  1
DICTIONARYVAR
  2
AcDbDictionaryVar
  3
ObjectDBX Classes
 90
0
 91
0
280
0
281
0
  0
CLASS
  1
CELLSTYLEMAP
  2
AcDbCellStyleMap
  3
ObjectDBX Classes
 90
1152
 91
0
280
0
281
0
  0
CLASS
  1
MENTALRAYRENDERSETTINGS
  2
AcDbMentalRayRenderSettings
  3
SCENEOE
 90
1024
 91
0
280
0
281
0
  0
CLASS
  1
ACDBDETAILVIEWSTYLE
  2
AcDbDetailViewStyle
  3
ObjectDBX Classes
 90
1025
 91
0
280
0
281
0
  0
CLASS
  1
ACDBSECTIONVIEWSTYLE
  2
AcDbSectionViewStyle
  3
ObjectDBX Classes
 90
1025
 91
0
280
0
281
0
  0
CLASS
  1
RASTERVARIABLES
  2
AcDbRasterVariables
  3
ISM
 90
0
 91
0
280
0
281
0
  0
CLASS
  1
ACDBPLACEHOLDER
  2
AcDbPlaceHolder
  3
ObjectDBX Classes
 90
0
 91
0
280
0
281
0
  0
CLASS
  1
LAYOUT
  2
AcDbLayout
  3
ObjectDBX Classes
 90
0
 91
0
280
0
281
0
  0
ENDSEC
  0
SECTION
  2
TABLES
  0
TABLE
  2
VPORT
  5
8
330
0
100
AcDbSymbolTable
 70
1
  0
VPORT
  5
23
330
8
100
AcDbSymbolTableRecord
100
AcDbViewportTableRecord
  2
*Active
 70
0
 10
0.0
 20
0.0
 11
1.0
 21
1.0
 12
0.0
 22
0.0
 13
0.0
 23
0.0
 14
0.5
 24
0.5
 15
0.5
 25
0.5
 16
0.0
 26
0.0
 36
1.0
 17
0.0
 27
0.0
 37
0.0
 40
1000.0
 41
1.34
 42
50.0
 43
0.0
 44
0.0
 50
0.0
 51
0.0
 71
0
 72
1000
 73
1
 74
3
 75
0
 76
0
 77
0
 78
0
281
0
 65
0
146
0.0
  0
ENDTAB
  0
TABLE
  2
LTYPE
  5
2
330
0
100
AcDbSymbolTable
 70
3
  0
LTYPE
  5
24
330
2
100
AcDbSymbolTableRecord
100
AcDbLinetypeTableRecord
  2
ByBlock
 70
0
  3

 72
65
 73
0
 40
0.0
  0
LTYPE
  5
25
330
2
100
AcDbSymbolTableRecord
100
AcDbLinetypeTableRecord
  2
ByLayer
 70
0
  3

 72
65
 73
0
 40
0.0
  0
LTYPE
  5
26
330
2
100
AcDbSymbolTableRecord
100
AcDbLinetypeTableRecord
  2
Continuous
 70
0
  3

 72
65
 73
0
 40
0.0
  0
ENDTAB
  0
TABLE
  2
LAYER
  5
1
330
0
100
AcDbSymbolTable
 70
7
  0
LAYER
  5
27
330
1
100
AcDbSymbolTableRecord
100
AcDbLayerTableRecord
  2
0
 70
0
 62
7
  6
Continuous
370
-3
390
13
347
21
  0
LAYER
  5
28
330
1
100
AcDbSymbolTableRecord
100
AcDbLayerTableRecord
  2
Defpoints
 70
0
 62
7
  6
Continuous
290
0
370
-3
390
13
347
21
  0
LAYER
  5
2F
330
1
100
AcDbSymbolTableRecord
100
AcDbLayerTableRecord
  2
CUT_OUTSIDE
 70
0
 62
1
  6
Continuous
370
-3
390
13
347
21
  0
LAYER
  5
31
330
1
100
AcDbSymbolTableRecord
100
AcDbLayerTableRecord
  2
CUT_INSIDE
 70
0
 62
5
  6
Continuous
370
-3
390
13
347
21
  0
LAYER
  5
3D
330
1
100
AcDbSymbolTableRecord
100
AcDbLayerTableRecord
  2
NOTES
 70
0
 62
7
  6
Continuous
370
-3
390
13
347
21
  0
LAYER
  5
3F
330
1
100
AcDbSymbolTableRecord
100
AcDbLayerTableRecord
  2
POCKET_5MM
 70
0
 62
3
  6
Continuous
370
-3
390
13
347
21
  0
LAYER
  5
42
330
1
100
AcDbSymbolTableRecord
100
AcDbLayerTableRecord
  2
POCKET_11MM
 70
0
 62
3
  6
Continuous
370
-3
390
13
347
21
  0
ENDTAB
  0
TABLE
  2
STYLE
  5
5
330
0
100
AcDbSymbolTable
 70
1
  0
STYLE
  5
29
330
5
100
AcDbSymbolTableRecord
100
AcDbTextStyleTableRecord
  2
Standard
 70
0
 40
0.0
 41
1.0
 50
0.0
 71
0
 42
2.5
  3
txt
  4

  0
ENDTAB
  0
TABLE
  2
VIEW
  5
7
330
0
100
AcDbSymbolTable
 70
0
  0
ENDTAB
  0
TABLE
  2
UCS
  5
6
330
0
100
AcDbSymbolTable
 70
0
  0
ENDTAB
  0
TABLE
  2
APPID
  5
3
330
0
100
AcDbSymbolTable
 70
3
  0
APPID
  5
2A
330
3
100
AcDbSymbolTableRecord
100
AcDbRegAppTableRecord
  2
ACAD
 70
0
  0
APPID
  5
44
330
3
100
AcDbSymbolTableRecord
100
AcDbRegAppTableRecord
  2
HATCHBACKGROUNDCOLOR
 70
0
  0
APPID
  5
45
330
3
100
AcDbSymbolTableRecord
100
AcDbRegAppTableRecord
  2
EZDXF
 70
0
  0
ENDTAB
  0
TABLE
  2
DIMSTYLE
  5
4
330
0
100
AcDbSymbolTable
 70
1
100
AcDbDimStyleTable
  0
DIMSTYLE
105
2B
330
4
100
AcDbSymbolTableRecord
100
AcDbDimStyleTableRecord
  2
Standard
 70
0
 40
1.0
 41
2.5
 42
0.625
 43
3.75
 44
1.25
 45
0.0
 46
0.0
 47
0.0
 48
0.0
 49
2.5
140
2.5
141
2.5
142
0.0
143
0.03937007874
144
1.0
145
0.0
146
1.0
147
0.625
148
0.0
 69
0
 70
0
 71
0
 72
0
 73
0
 74
0
 75
0
 76
0
 77
1
 78
8
 79
3
170
0
171
3
172
1
173
0
174
0
175
0
176
0
177
0
178
0
179
2
271
2
272
2
273
2
274
3
275
0
276
0
277
2
278
44
279
0
280
0
281
0
282
0
283
0
284
8
285
0
286
0
288
0
289
3
290
0
371
-2
372
-2
  0
ENDTAB
  0
TABLE
  2
BLOCK_RECORD
  5
9
330
0
100
AcDbSymbolTable
 70
2
  0
BLOCK_RECORD
  5
17
330
9
100
AcDbSymbolTableRecord
100
AcDbBlockTableRecord
  2
*Model_Space
340
1A
 70
0
280
1
281
0
  0
BLOCK_RECORD
  5
1B
330
9
100
AcDbSymbolTableRecord
100
AcDbBlockTableRecord
  2
*Paper_Space
340
1E
 70
0
280
1
281
0
  0
ENDTAB
  0
ENDSEC
  0
SECTION
  2
BLOCKS
  0
BLOCK
  5
18
330
17
100
AcDbEntity
  8
0
100
AcDbBlockBegin
  2
*Model_Space
 70
0
 10
0.0
 20
0.0
 30
0.0
  3
*Model_Space
  1

  0
ENDBLK
  5
19
330
17
100
AcDbEntity
  8
0
100
AcDbBlockEnd
  0
BLOCK
  5
1C
330
1B
100
AcDbEntity
  8
0
100
AcDbBlockBegin
  2
*Paper_Space
 70
0
 10
0.0
 20
0.0
 30
0.0
  3
*Paper_Space
  1

  0
ENDBLK
  5
1D
330
1B
100
AcDbEntity
  8
0
100
AcDbBlockEnd
  0
ENDSEC
  0
SECTION
  2
ENTITIES
  0
LWPOLYLINE
  5
30
330
17
100
AcDbEntity
  8
CUT_OUTSIDE
100
AcDbPolyline
 90
5
 70
1
 10
0.0
 20
0.0
 10
484.0
 20
0.0
 10
484.0
 20
724.0
 10
0.0
 20
724.0
 10
0.0
 20
0.0
  0
CIRCLE
  5
32
330
17
100
AcDbEntity
  8
CUT_INSIDE
100
AcDbCircle
 10
122.0
 20
122.0
 30
0.0
 40
55.2
  0
CIRCLE
  5
33
330
17
100
AcDbEntity
  8
CUT_INSIDE
100
AcDbCircle
 10
170.24685643154555
 20
278.77258765413376
 30
0.0
 40
3.5
  0
CIRCLE
  5
34
330
17
100
AcDbEntity
  8
CUT_INSIDE
100
AcDbCircle
 10
68.7725876541337
 20
380.24685643154567
 30
0.0
 40
3.5
  0
CIRCLE
  5
35
330
17
100
AcDbEntity
  8
CUT_INSIDE
100
AcDbCircle
 10
68.77258765413373
 20
523.7531435684543
 30
0.0
 40
3.5
  0
CIRCLE
  5
36
330
17
100
AcDbEntity
  8
CUT_INSIDE
100
AcDbCircle
 10
170.24685643154567
 20
625.2274123458662
 30
0.0
 40
3.5
  0
CIRCLE
  5
37
330
17
100
AcDbEntity
  8
CUT_INSIDE
100
AcDbCircle
 10
313.7531435684544
 20
278.77258765413376
 30
0.0
 40
3.5
  0
CIRCLE
  5
38
330
17
100
AcDbEntity
  8
CUT_INSIDE
100
AcDbCircle
 10
362.0
 20
122.0
 30
0.0
 40
55.2
  0
CIRCLE
  5
39
330
17
100
AcDbEntity
  8
CUT_INSIDE
100
AcDbCircle
 10
242.0
 20
452.0
 30
0.0
 40
178.0
  0
CIRCLE
  5
3A
330
17
100
AcDbEntity
  8
CUT_INSIDE
100
AcDbCircle
 10
313.75314356845433
 20
625.2274123458662
 30
0.0
 40
3.5
  0
CIRCLE
  5
3B
330
17
100
AcDbEntity
  8
CUT_INSIDE
100
AcDbCircle
 10
415.22741234586624
 20
380.24685643154555
 30
0.0
 40
3.5
  0
CIRCLE
  5
3C
330
17
100
AcDbEntity
  8
CUT_INSIDE
100
AcDbCircle
 10
415.22741234586624
 20
523.7531435684543
 30
0.0
 40
3.5
  0
TEXT
  5
3E
330
17
100
AcDbEntity
  8
NOTES
100
AcDbText
 10
2.0
 20
728.0
 30
0.0
 40
6.0
  1
baffle  18 mm baltic-birch, outer face
 11
2.0
 21
728.0
 31
0.0
100
AcDbText
  0
LWPOLYLINE
  5
40
330
17
100
AcDbEntity
  8
POCKET_5MM
100
AcDbPolyline
 90
401
 70
1
 10
187.25
 20
122.00000000000003
 10
187.24195026942834
 20
123.02490245459632
 10
187.21780306386398
 20
124.04955202984794
 10
187.17756434126855
 20
125.07369590880418
 10
187.1212440299447
 20
126.09708139928776
 10
187.04885602608658
 20
127.11945599624192
 10
186.96041819035096
 20
128.1405674440331
 10
186.85595234345047
 20
129.16016379869075
 10
186.73548426076968
 20
130.1779934900709
 10
186.59904366600537
 20
131.19380538392736
 10
186.44666422383273
 20
132.20734884387514
 10
186.278383531599
 20
133.21837379323148
 10
186.09424311004693
 20
134.2266307767186
 10
185.8942883930702
 20
135.23187102201248
 10
185.67856871650326
 20
136.23384650112445
 10
185.4471373059484
 20
137.23230999159787
 10
185.20005126364316
 20
138.2270151375068
 10
184.9373715543713
 20
139.21771651024062
 10
184.6591629904205
 20
140.20416966905978
 10
184.36549421559104
 20
141.18613122140786
 10
184.05643768825874
 20
142.16335888296538
 10
183.73206966349733
 20
143.13561153742927
 10
183.3924701742632
 20
144.10264929600532
 10
183.03772301164884
 20
145.06423355659658
 10
182.66791570420838
 20
146.02012706267527
 10
182.28313949636146
 20
146.97009396182216
 10
181.88348932587976
 20
147.91389986391948
 10
181.46906380046278
 20
148.85131189898337
 10
181.03996517340775
 20
149.78209877462106
 10
180.59629931838015
 20
150.70603083309848
 10
180.13817570329098
 20
151.6228801080055
 10
179.6657073632872
 20
152.53242038050246
 10
179.1790108728621
 20
153.43442723513692
 10
178.67820631709196
 20
154.32867811521464
 10
178.1634172620073
 20
155.21495237771177
 10
177.6347707241045
 20
156.0930313477157
 10
177.09239713900647
 20
156.96269837237958
 10
176.5364303292796
 20
157.82373887437814
 10
175.96700747141514
 20
158.67594040485153
 10
175.38426906198274
 20
159.51909269582399
 10
174.78835888296533
 20
160.3529877120839
 10
174.17942396628263
 20
161.177419702514
 10
173.5576145575138
 20
161.99218525085672
 10
172.92308407882598
 20
162.7970833259048
 10
172.2759890911202
 20
163.59191533110203
 10
171.61648925540197
 20
164.37648515354454
 10
170.94474729338745
 20
165.15059921236832
 10
170.26092894735422
 20
165.91406650651277
 10
169.5652029392471
 20
166.66669866184697
 10
168.85774092904802
 20
167.40830997764857
 10
168.13871747242223
 20
168.13871747242223
 10
167.40830997764846
 20
168.8577409290481
 10
166.66669866184688
 20
169.56520293924714
 10
165.91406650651268
 20
170.26092894735433
 10
165.15059921236826
 20
170.9447472933875
 10
164.3764851535445
 20
171.616489255402
 10
163.59191533110197
 20
172.27598909112027
 10
162.79708332590468
 20
172.92308407882607
 10
161.9921852508567
 20
173.55761455751383
 10
161.17741970251393
 20
174.17942396628268
 10
160.3529877120838
 20
174.78835888296535
 10
159.51909269582393
 20
175.3842690619828
 10
158.67594040485147
 20
175.9670074714152
 10
157.8237388743781
 20
176.53643032927963
 10
156.9626983723795
 20
177.09239713900652
 10
156.09303134771562
 20
177.63477072410453
 10
155.2149523777117
 20
178.16341726200733
 10
154.32867811521456
 20
178.678206317092
 10
153.43442723513684
 20
179.17901087286214
 10
152.5324203805024
 20
179.66570736328725
 10
151.62288010800538
 20
180.13817570329104
 10
150.70603083309845
 20
180.59629931838018
 10
149.78209877462098
 20
181.03996517340778
 10
148.8513118989833
 20
181.46906380046283
 10
147.9138998639194
 20
181.8834893258798
 10
146.97009396182207
 20
182.28313949636146
 10
146.02012706267527
 20
182.66791570420838
 10
145.0642335565965
 20
183.03772301164884
 10
144.10264929600518
 20
183.39247017426322
 10
143.13561153742924
 20
183.73206966349733
 10
142.1633588829653
 20
184.05643768825877
 10
141.18613122140778
 20
184.36549421559107
 10
140.20416966905964
 20
184.65916299042055
 10
139.21771651024054
 20
184.93737155437134
 10
138.22701513750678
 20
185.20005126364316
 10
137.2323099915978
 20
185.44713730594842
 10
136.23384650112436
 20
185.67856871650326
 10
135.2318710220124
 20
185.8942883930702
 10
134.2266307767185
 20
186.09424311004693
 10
133.21837379323145
 20
186.278383531599
 10
132.20734884387505
 20
186.44666422383273
 10
131.1938053839272
 20
186.5990436660054
 10
130.17799349007086
 20
186.73548426076968
 10
129.16016379869066
 20
186.8559523434505
 10
128.14056744403302
 20
186.960418190351
 10
127.11945599624184
 20
187.0488560260866
 10
126.09708139928767
 20
187.1212440299447
 10
125.07369590880421
 20
187.17756434126852
 10
124.04955202984786
 20
187.21780306386398
 10
123.02490245459623
 20
187.24195026942834
 10
122.0
 20
187.25
 10
120.97509754540368
 20
187.24195026942834
 10
119.95044797015208
 20
187.21780306386398
 10
118.92630409119576
 20
187.17756434126852
 10
117.90291860071227
 20
187.1212440299447
 10
116.88054400375813
 20
187.04885602608658
 10
115.85943255596686
 20
186.96041819035096
 10
114.8398362013092
 20
186.85595234345047
 10
113.82200650992911
 20
186.73548426076968
 10
112.8061946160727
 20
186.5990436660054
 10
111.79265115612492
 20
186.44666422383273
 10
110.78162620676846
 20
186.278383531599
 10
109.7733692232814
 20
186.09424311004693
 10
108.76812897798757
 20
185.8942883930702
 10
107.76615349887555
 20
185.67856871650326
 10
106.76769000840207
 20
185.4471373059484
 10
105.77298486249319
 20
185.20005126364316
 10
104.7822834897594
 20
184.9373715543713
 10
103.79583033094033
 20
184.65916299042055
 10
102.8138687785921
 20
184.365494215591
 10
101.83664111703462
 20
184.05643768825874
 10
100.86438846257074
 20
183.73206966349733
 10
99.89735070399473
 20
183.39247017426322
 10
98.93576644340342
 20
183.03772301164884
 10
97.97987293732473
 20
182.66791570420838
 10
97.02990603817786
 20
182.28313949636146
 10
96.08610013608059
 20
181.8834893258798
 10
95.14868810101663
 20
181.46906380046278
 10
94.21790122537894
 20
181.03996517340775
 10
93.29396916690152
 20
180.59629931838015
 10
92.37711989199457
 20
180.13817570329098
 10
91.46757961949758
 20
179.66570736328725
 10
90.56557276486302
 20
179.17901087286208
 10
89.67132188478536
 20
178.67820631709196
 10
88.78504762228829
 20
178.16341726200733
 10
87.9069686522843
 20
177.6347707241045
 10
87.0373016276204
 20
177.09239713900644
 10
86.17626112562188
 20
176.53643032927963
 10
85.32405959514846
 20
175.96700747141514
 10
84.48090730417606
 20
175.38426906198276
 10
83.64701228791607
 20
174.78835888296527
 10
82.82258029748601
 20
174.17942396628263
 10
82.00781474914328
 20
173.5576145575138
 10
81.20291667409523
 20
172.92308407882604
 10
80.408084668898
 20
172.27598909112027
 10
79.62351484645549
 20
171.616489255402
 10
78.84940078763168
 20
170.94474729338745
 10
78.08593349348732
 20
170.2609289473543
 10
77.33330133815303
 20
169.56520293924706
 10
76.59169002235146
 20
168.85774092904805
 10
75.86128252757777
 20
168.13871747242223
 10
75.14225907095192
 20
167.4083099776485
 10
74.43479706075289
 20
166.6666986618469
 10
73.73907105264568
 20
165.91406650651268
 10
73.05525270661249
 20
165.15059921236826
 10
72.38351074459797
 20
164.37648515354448
 10
71.72401090887973
 20
163.59191533110197
 10
71.07691592117395
 20
162.79708332590474
 10
70.44238544248617
 20
161.99218525085666
 10
69.82057603371733
 20
161.17741970251393
 10
69.21164111703466
 20
160.35298771208386
 10
68.61573093801718
 20
159.51909269582387
 10
68.03299252858483
 20
158.6759404048515
 10
67.46356967072036
 20
157.82373887437808
 10
66.9076028609935
 20
156.96269837237952
 10
66.36522927589544
 20
156.09303134771562
 10
65.83658273799267
 20
155.2149523777117
 10
65.32179368290801
 20
154.32867811521456
 10
64.8209891271379
 20
153.43442723513692
 10
64.33429263671275
 20
152.5324203805024
 10
63.86182429670899
 20
151.6228801080054
 10
63.403700681619824
 20
150.70603083309842
 10
62.96003482659222
 20
149.78209877462098
 10
62.530936199537194
 20
148.85131189898334
 10
62.11651067412021
 20
147.9138998639194
 10
61.71686050363853
 20
146.97009396182207
 10
61.33208429579159
 20
146.02012706267524
 10
60.96227698835115
 20
145.0642335565965
 10
60.607529825736776
 20
144.1026492960052
 10
60.26793033650266
 20
143.1356115374292
 10
59.94356231174123
 20
142.16335888296533
 10
59.63450578440896
 20
141.18613122140783
 10
59.340837009579445
 20
140.20416966905967
 10
59.06262844562866
 20
139.21771651024056
 10
58.79994873635681
 20
138.22701513750675
 10
58.5528626940516
 20
137.23230999159782
 10
58.32143128349671
 20
136.23384650112433
 10
58.10571160692979
 20
135.23187102201243
 10
57.90575688995307
 20
134.2266307767185
 10
57.721616468400995
 20
133.21837379323145
 10
57.55333577616726
 20
132.207348843875
 10
57.400956333994614
 20
131.19380538392724
 10
57.26451573923032
 20
130.17799349007083
 10
57.14404765654952
 20
129.16016379869072
 10
57.039581809649036
 20
128.14056744403305
 10
56.95114397391339
 20
127.11945599624184
 10
56.87875597005528
 20
126.09708139928767
 10
56.82243565873145
 20
125.07369590880418
 10
56.78219693613602
 20
124.04955202984786
 10
56.75804973057164
 20
123.02490245459626
 10
56.75
 20
122.0
 10
56.75804973057164
 20
120.97509754540363
 10
56.78219693613602
 20
119.95044797015211
 10
56.822435658731465
 20
118.92630409119576
 10
56.87875597005528
 20
117.9029186007123
 10
56.9511439739134
 20
116.8805440037581
 10
57.039581809649036
 20
115.85943255596692
 10
57.14404765654952
 20
114.83983620130931
 10
57.26451573923032
 20
113.82200650992914
 10
57.400956333994614
 20
112.80619461607273
 10
57.55333577616727
 20
111.79265115612489
 10
57.72161646840101
 20
110.7816262067685
 10
57.90575688995307
 20
109.77336922328143
 10
58.10571160692979
 20
108.76812897798754
 10
58.321431283496736
 20
107.76615349887555
 10
58.55286269405161
 20
106.76769000840213
 10
58.79994873635684
 20
105.77298486249319
 10
59.06262844562869
 20
104.78228348975938
 10
59.340837009579474
 20
103.79583033094025
 10
59.63450578440896
 20
102.81386877859217
 10
59.94356231174123
 20
101.83664111703465
 10
60.26793033650267
 20
100.86438846257076
 10
60.607529825736805
 20
99.89735070399468
 10
60.962276988351164
 20
98.93576644340345
 10
61.33208429579162
 20
97.97987293732473
 10
61.71686050363854
 20
97.0299060381779
 10
62.11651067412025
 20
96.08610013608052
 10
62.53093619953721
 20
95.14868810101663
 10
62.96003482659225
 20
94.21790122537897
 10
63.40370068161984
 20
93.29396916690152
 10
63.86182429670902
 20
92.37711989199451
 10
64.33429263671277
 20
91.46757961949757
 10
64.82098912713792
 20
90.56557276486305
 10
65.32179368290804
 20
89.67132188478539
 10
65.83658273799269
 20
88.78504762228826
 10
66.3652292758955
 20
87.90696865228432
 10
66.9076028609935
 20
87.03730162762048
 10
67.46356967072037
 20
86.17626112562189
 10
68.03299252858483
 20
85.32405959514847
 10
68.61573093801724
 20
84.48090730417604
 10
69.21164111703469
 20
83.64701228791611
 10
69.82057603371736
 20
82.82258029748604
 10
70.4423854424862
 20
82.00781474914328
 10
71.07691592117402
 20
81.2029166740952
 10
71.72401090887976
 20
80.40808466889797
 10
72.383510744598
 20
79.62351484645549
 10
73.05525270661252
 20
78.84940078763171
 10
73.73907105264576
 20
78.08593349348725
 10
74.43479706075291
 20
77.33330133815306
 10
75.14225907095195
 20
76.59169002235146
 10
75.86128252757777
 20
75.86128252757777
 10
76.59169002235154
 20
75.1422590709519
 10
77.33330133815309
 20
74.43479706075289
 10
78.08593349348732
 20
73.7390710526457
 10
78.84940078763172
 20
73.0552527066125
 10
79.62351484645555
 20
72.38351074459797
 10
80.40808466889801
 20
71.72401090887973
 10
81.20291667409523
 20
71.07691592117399
 10
82.00781474914331
 20
70.4423854424862
 10
82.82258029748606
 20
69.82057603371734
 10
83.64701228791616
 20
69.21164111703466
 10
84.48090730417607
 20
68.61573093801722
 10
85.3240595951485
 20
68.03299252858483
 10
86.17626112562189
 20
67.46356967072037
 10
87.03730162762051
 20
66.90760286099349
 10
87.90696865228435
 20
66.36522927589547
 10
88.7850476222883
 20
65.83658273799267
 10
89.67132188478541
 20
65.32179368290802
 10
90.56557276486312
 20
64.82098912713788
 10
91.4675796194976
 20
64.33429263671275
 10
92.3771198919946
 20
63.86182429670899
 10
93.29396916690153
 20
63.403700681619824
 10
94.21790122537902
 20
62.96003482659222
 10
95.14868810101666
 20
62.530936199537194
 10
96.08610013608059
 20
62.11651067412022
 10
97.0299060381779
 20
61.71686050363854
 10
97.9798729373248
 20
61.332084295791574
 10
98.9357664434035
 20
60.96227698835115
 10
99.89735070399479
 20
60.607529825736776
 10
100.86438846257077
 20
60.26793033650267
 10
101.83664111703473
 20
59.94356231174122
 10
102.81386877859218
 20
59.63450578440896
 10
103.79583033094029
 20
59.340837009579474
 10
104.78228348975944
 20
59.06262844562866
 10
105.77298486249322
 20
58.799948736356825
 10
106.76769000840218
 20
58.5528626940516
 10
107.7661534988756
 20
58.321431283496736
 10
108.76812897798759
 20
58.10571160692979
 10
109.77336922328146
 20
57.90575688995307
 10
110.78162620676855
 20
57.721616468400995
 10
111.79265115612495
 20
57.55333577616726
 10
112.80619461607276
 20
57.400956333994614
 10
113.82200650992917
 20
57.26451573923032
 10
114.83983620130934
 20
57.14404765654952
 10
115.85943255596695
 20
57.039581809649036
 10
116.88054400375816
 20
56.9511439739134
 10
117.90291860071233
 20
56.87875597005528
 10
118.92630409119585
 20
56.82243565873145
 10
119.95044797015214
 20
56.78219693613602
 10
120.97509754540371
 20
56.75804973057164
 10
122.0
 20
56.75
 10
123.02490245459632
 20
56.75804973057164
 10
124.04955202984789
 20
56.78219693613602
 10
125.07369590880421
 20
56.822435658731465
 10
126.0970813992877
 20
56.87875597005528
 10
127.11945599624192
 20
56.9511439739134
 10
128.14056744403308
 20
57.039581809649036
 10
129.16016379869075
 20
57.14404765654953
 10
130.17799349007086
 20
57.26451573923032
 10
131.19380538392727
 20
57.400956333994614
 10
132.20734884387508
 20
57.55333577616727
 10
133.21837379323148
 20
57.721616468400995
 10
134.22663077671857
 20
57.90575688995307
 10
135.23187102201243
 20
58.10571160692979
 10
136.23384650112442
 20
58.321431283496736
 10
137.23230999159784
 20
58.55286269405161
 10
138.2270151375068
 20
58.79994873635684
 10
139.2177165102406
 20
59.062628445628675
 10
140.20416966905972
 20
59.340837009579474
 10
141.18613122140783
 20
59.63450578440896
 10
142.16335888296533
 20
59.94356231174123
 10
143.13561153742924
 20
60.26793033650267
 10
144.10264929600527
 20
60.607529825736805
 10
145.06423355659652
 20
60.962276988351164
 10
146.02012706267527
 20
61.33208429579162
 10
146.9700939618221
 20
61.71686050363854
 10
147.91389986391945
 20
62.116510674120235
 10
148.85131189898334
 20
62.530936199537194
 10
149.782098774621
 20
62.960034826592235
 10
150.70603083309848
 20
63.40370068161984
 10
151.62288010800546
 20
63.86182429670902
 10
152.53242038050243
 20
64.33429263671276
 10
153.43442723513695
 20
64.82098912713792
 10
154.3286781152146
 20
65.32179368290804
 10
155.2149523777117
 20
65.83658273799267
 10
156.09303134771568
 20
66.3652292758955
 10
156.96269837237952
 20
66.9076028609935
 10
157.8237388743781
 20
67.46356967072037
 10
158.67594040485153
 20
68.03299252858484
 10
159.51909269582396
 20
68.61573093801724
 10
160.35298771208386
 20
69.21164111703467
 10
161.17741970251393
 20
69.82057603371734
 10
161.99218525085672
 20
70.4423854424862
 10
162.7970833259048
 20
71.07691592117399
 10
163.591915331102
 20
71.72401090887975
 10
164.3764851535445
 20
72.383510744598
 10
165.1505992123683
 20
73.05525270661252
 10
165.91406650651274
 20
73.73907105264573
 10
166.66669866184694
 20
74.43479706075291
 10
167.4083099776485
 20
75.14225907095195
 10
168.13871747242223
 20
75.86128252757777
 10
168.85774092904808
 20
76.59169002235151
 10
169.56520293924711
 20
77.33330133815306
 10
170.2609289473543
 20
78.08593349348732
 10
170.94474729338748
 20
78.84940078763171
 10
171.61648925540203
 20
79.62351484645554
 10
172.27598909112027
 20
80.408084668898
 10
172.92308407882604
 20
81.20291667409526
 10
173.5576145575138
 20
82.00781474914328
 10
174.17942396628266
 20
82.82258029748607
 10
174.78835888296533
 20
83.64701228791614
 10
175.38426906198276
 20
84.48090730417607
 10
175.96700747141517
 20
85.32405959514847
 10
176.53643032927963
 20
86.17626112562189
 10
177.0923971390065
 20
87.03730162762048
 10
177.6347707241045
 20
87.90696865228432
 10
178.16341726200733
 20
88.78504762228829
 10
178.67820631709196
 20
89.67132188478541
 10
179.1790108728621
 20
90.5655727648631
 10
179.66570736328725
 20
91.4675796194976
 10
180.138175703291
 20
92.3771198919946
 10
180.59629931838018
 20
93.29396916690155
 10
181.03996517340778
 20
94.21790122537902
 10
181.4690638004628
 20
95.14868810101666
 10
181.8834893258798
 20
96.08610013608057
 10
182.28313949636146
 20
97.0299060381779
 10
182.6679157042084
 20
97.97987293732479
 10
183.03772301164884
 20
98.93576644340348
 10
183.39247017426322
 20
99.89735070399476
 10
183.73206966349733
 20
100.86438846257076
 10
184.05643768825877
 20
101.8366411170347
 10
184.36549421559104
 20
102.81386877859217
 10
184.65916299042055
 20
103.79583033094033
 10
184.93737155437134
 20
104.78228348975944
 10
185.20005126364316
 20
105.77298486249322
 10
185.4471373059484
 20
106.76769000840218
 10
185.67856871650326
 20
107.76615349887558
 10
185.8942883930702
 20
108.76812897798757
 10
186.09424311004693
 20
109.77336922328146
 10
186.278383531599
 20
110.78162620676855
 10
186.44666422383273
 20
111.79265115612492
 10
186.5990436660054
 20
112.80619461607276
 10
186.73548426076968
 20
113.82200650992914
 10
186.8559523434505
 20
114.83983620130931
 10
186.96041819035096
 20
115.85943255596695
 10
187.04885602608658
 20
116.88054400375813
 10
187.1212440299447
 20
117.9029186007123
 10
187.17756434126855
 20
118.92630409119585
 10
187.21780306386398
 20
119.95044797015214
 10
187.24195026942834
 20
120.97509754540371
 10
187.25
 20
122.0
  0
LWPOLYLINE
  5
41
330
17
100
AcDbEntity
  8
POCKET_5MM
100
AcDbPolyline
 90
401
 70
1
 10
427.25
 20
122.00000000000003
 10
427.24195026942834
 20
123.02490245459632
 10
427.217803063864
 20
124.04955202984794
 10
427.1775643412685
 20
125.07369590880418
 10
427.1212440299447
 20
126.09708139928776
 10
427.0488560260866
 20
127.11945599624192
 10
426.960418190351
 20
128.1405674440331
 10
426.85595234345044
 20
129.16016379869075
 10
426.7354842607697
 20
130.1779934900709
 10
426.5990436660054
 20
131.19380538392736
 10
426.4466642238327
 20
132.20734884387514
 10
426.278383531599
 20
133.21837379323148
 10
426.09424311004693
 20
134.2266307767186
 10
425.8942883930702
 20
135.23187102201248
 10
425.67856871650326
 20
136.23384650112445
 10
425.4471373059484
 20
137.23230999159787
 10
425.20005126364316
 20
138.2270151375068
 10
424.93737155437134
 20
139.21771651024062
 10
424.6591629904205
 20
140.20416966905978
 10
424.365494215591
 20
141.18613122140786
 10
424.05643768825877
 20
142.16335888296538
 10
423.7320696634973
 20
143.13561153742927
 10
423.39247017426317
 20
144.10264929600532
 10
423.03772301164884
 20
145.06423355659658
 10
422.6679157042084
 20
146.02012706267527
 10
422.28313949636146
 20
146.97009396182216
 10
421.88348932587974
 20
147.91389986391948
 10
421.4690638004628
 20
148.85131189898337
 10
421.0399651734077
 20
149.78209877462106
 10
420.59629931838015
 20
150.70603083309848
 10
420.138175703291
 20
151.6228801080055
 10
419.6657073632872
 20
152.53242038050246
 10
419.1790108728621
 20
153.43442723513692
 10
418.67820631709196
 20
154.32867811521464
 10
418.1634172620073
 20
155.21495237771177
 10
417.6347707241045
 20
156.0930313477157
 10
417.0923971390065
 20
156.96269837237958
 10
416.5364303292796
 20
157.82373887437814
 10
415.9670074714152
 20
158.67594040485153
 10
415.38426906198276
 20
159.51909269582399
 10
414.7883588829653
 20
160.3529877120839
 10
414.1794239662826
 20
161.177419702514
 10
413.5576145575138
 20
161.99218525085672
 10
412.923084078826
 20
162.7970833259048
 10
412.2759890911202
 20
163.59191533110203
 10
411.616489255402
 20
164.37648515354454
 10
410.9447472933875
 20
165.15059921236832
 10
410.2609289473542
 20
165.91406650651277
 10
409.56520293924706
 20
166.66669866184697
 10
408.857740929048
 20
167.40830997764857
 10
408.13871747242223
 20
168.13871747242223
 10
407.40830997764846
 20
168.8577409290481
 10
406.6666986618469
 20
169.56520293924714
 10
405.91406650651265
 20
170.26092894735433
 10
405.15059921236826
 20
170.9447472933875
 10
404.3764851535445
 20
171.616489255402
 10
403.591915331102
 20
172.27598909112027
 10
402.7970833259047
 20
172.92308407882607
 10
401.99218525085666
 20
173.55761455751383
 10
401.17741970251393
 20
174.17942396628268
 10
400.3529877120838
 20
174.78835888296535
 10
399.51909269582393
 20
175.3842690619828
 10
398.6759404048515
 20
175.9670074714152
 10
397.8237388743781
 20
176.53643032927963
 10
396.96269837237946
 20
177.09239713900652
 10
396.0930313477156
 20
177.63477072410453
 10
395.2149523777117
 20
178.16341726200733
 10
394.3286781152146
 20
178.678206317092
 10
393.43442723513687
 20
179.17901087286214
 10
392.5324203805024
 20
179.66570736328725
 10
391.62288010800535
 20
180.13817570329104
 10
390.70603083309845
 20
180.59629931838018
 10
389.782098774621
 20
181.03996517340778
 10
388.8513118989833
 20
181.46906380046283
 10
387.91389986391937
 20
181.8834893258798
 10
386.97009396182204
 20
182.28313949636146
 10
386.0201270626753
 20
182.66791570420838
 10
385.0642335565965
 20
183.03772301164884
 10
384.1026492960052
 20
183.39247017426322
 10
383.1356115374292
 20
183.73206966349733
 10
382.1633588829653
 20
184.05643768825877
 10
381.1861312214078
 20
184.36549421559107
 10
380.20416966905964
 20
184.65916299042055
 10
379.2177165102405
 20
184.93737155437134
 10
378.2270151375068
 20
185.20005126364316
 10
377.2323099915978
 20
185.44713730594842
 10
376.2338465011244
 20
185.67856871650326
 10
375.2318710220124
 20
185.8942883930702
 10
374.2266307767185
 20
186.09424311004693
 10
373.2183737932315
 20
186.278383531599
 10
372.207348843875
 20
186.44666422383273
 10
371.1938053839272
 20
186.5990436660054
 10
370.17799349007083
 20
186.73548426076968
 10
369.16016379869063
 20
186.8559523434505
 10
368.140567444033
 20
186.960418190351
 10
367.11945599624187
 20
187.0488560260866
 10
366.0970813992877
 20
187.1212440299447
 10
365.0736959088042
 20
187.17756434126852
 10
364.04955202984786
 20
187.21780306386398
 10
363.0249024545962
 20
187.24195026942834
 10
362.0
 20
187.25
 10
360.9750975454037
 20
187.24195026942834
 10
359.9504479701521
 20
187.21780306386398
 10
358.9263040911958
 20
187.17756434126852
 10
357.90291860071227
 20
187.1212440299447
 10
356.88054400375813
 20
187.04885602608658
 10
355.85943255596686
 20
186.96041819035096
 10
354.8398362013092
 20
186.85595234345047
 10
353.8220065099291
 20
186.73548426076968
 10
352.80619461607273
 20
186.5990436660054
 10
351.7926511561249
 20
186.44666422383273
 10
350.78162620676846
 20
186.278383531599
 10
349.7733692232814
 20
186.09424311004693
 10
348.76812897798754
 20
185.8942883930702
 10
347.76615349887555
 20
185.67856871650326
 10
346.7676900084021
 20
185.4471373059484
 10
345.7729848624932
 20
185.20005126364316
 10
344.7822834897594
 20
184.9373715543713
 10
343.7958303309403
 20
184.65916299042055
 10
342.8138687785921
 20
184.365494215591
 10
341.8366411170346
 20
184.05643768825874
 10
340.86438846257073
 20
183.73206966349733
 10
339.89735070399473
 20
183.39247017426322
 10
338.9357664434034
 20
183.03772301164884
 10
337.9798729373247
 20
182.66791570420838
 10
337.02990603817784
 20
182.28313949636146
 10
336.0861001360806
 20
181.8834893258798
 10
335.1486881010166
 20
181.46906380046278
 10
334.2179012253789
 20
181.03996517340775
 10
333.29396916690155
 20
180.59629931838015
 10
332.37711989199454
 20
180.13817570329098
 10
331.4675796194976
 20
179.66570736328725
 10
330.565572764863
 20
179.17901087286208
 10
329.67132188478536
 20
178.67820631709196
 10
328.7850476222883
 20
178.16341726200733
 10
327.9069686522843
 20
177.6347707241045
 10
327.0373016276204
 20
177.09239713900644
 10
326.17626112562186
 20
176.53643032927963
 10
325.32405959514847
 20
175.96700747141514
 10
324.48090730417607
 20
175.38426906198276
 10
323.6470122879161
 20
174.78835888296527
 10
322.822580297486
 20
174.17942396628263
 10
322.0078147491433
 20
173.5576145575138
 10
321.20291667409526
 20
172.92308407882604
 10
320.408084668898
 20
172.27598909112027
 10
319.62351484645546
 20
171.616489255402
 10
318.8494007876317
 20
170.94474729338745
 10
318.0859334934873
 20
170.2609289473543
 10
317.33330133815303
 20
169.56520293924706
 10
316.5916900223515
 20
168.85774092904805
 10
315.86128252757777
 20
168.13871747242223
 10
315.1422590709519
 20
167.4083099776485
 10
314.4347970607529
 20
166.6666986618469
 10
313.73907105264567
 20
165.91406650651268
 10
313.05525270661246
 20
165.15059921236826
 10
312.38351074459797
 20
164.37648515354448
 10
311.72401090887973
 20
163.59191533110197
 10
311.07691592117396
 20
162.79708332590474
 10
310.44238544248617
 20
161.99218525085666
 10
309.8205760337173
 20
161.17741970251393
 10
309.2116411170347
 20
160.35298771208386
 10
308.6157309380172
 20
159.51909269582387
 10
308.0329925285848
 20
158.6759404048515
 10
307.46356967072035
 20
157.82373887437808
 10
306.9076028609935
 20
156.96269837237952
 10
306.36522927589544
 20
156.09303134771562
 10
305.83658273799267
 20
155.2149523777117
 10
305.32179368290804
 20
154.32867811521456
 10
304.8209891271379
 20
153.43442723513692
 10
304.33429263671275
 20
152.5324203805024
 10
303.86182429670896
 20
151.6228801080054
 10
303.4037006816198
 20
150.70603083309842
 10
302.9600348265922
 20
149.78209877462098
 10
302.53093619953717
 20
148.85131189898334
 10
302.1165106741202
 20
147.9138998639194
 10
301.71686050363854
 20
146.97009396182207
 10
301.3320842957916
 20
146.02012706267524
 10
300.96227698835116
 20
145.0642335565965
 10
300.6075298257368
 20
144.1026492960052
 10
300.2679303365027
 20
143.1356115374292
 10
299.94356231174123
 20
142.16335888296533
 10
299.63450578440893
 20
141.18613122140783
 10
299.34083700957945
 20
140.20416966905967
 10
299.06262844562866
 20
139.21771651024056
 10
298.79994873635684
 20
138.22701513750675
 10
298.5528626940516
 20
137.23230999159782
 10
298.32143128349674
 20
136.23384650112433
 10
298.1057116069298
 20
135.23187102201243
 10
297.90575688995307
 20
134.2266307767185
 10
297.721616468401
 20
133.21837379323145
 10
297.5533357761673
 20
132.207348843875
 10
297.4009563339946
 20
131.19380538392724
 10
297.2645157392303
 20
130.17799349007083
 10
297.1440476565495
 20
129.16016379869072
 10
297.039581809649
 20
128.14056744403305
 10
296.9511439739134
 20
127.11945599624184
 10
296.8787559700553
 20
126.09708139928767
 10
296.8224356587315
 20
125.07369590880418
 10
296.782196936136
 20
124.04955202984786
 10
296.75804973057166
 20
123.02490245459626
 10
296.75
 20
122.0
 10
296.75804973057166
 20
120.97509754540363
 10
296.782196936136
 20
119.95044797015211
 10
296.8224356587315
 20
118.92630409119576
 10
296.8787559700553
 20
117.9029186007123
 10
296.9511439739134
 20
116.8805440037581
 10
297.039581809649
 20
115.85943255596692
 10
297.1440476565495
 20
114.83983620130931
 10
297.2645157392303
 20
113.82200650992914
 10
297.4009563339946
 20
112.80619461607273
 10
297.5533357761673
 20
111.79265115612489
 10
297.721616468401
 20
110.7816262067685
 10
297.90575688995307
 20
109.77336922328143
 10
298.1057116069298
 20
108.76812897798754
 10
298.32143128349674
 20
107.76615349887555
 10
298.5528626940516
 20
106.76769000840213
 10
298.79994873635684
 20
105.77298486249319
 10
299.06262844562866
 20
104.78228348975938
 10
299.3408370095795
 20
103.79583033094025
 10
299.63450578440893
 20
102.81386877859217
 10
299.94356231174123
 20
101.83664111703465
 10
300.2679303365027
 20
100.86438846257076
 10
300.60752982573683
 20
99.89735070399468
 10
300.96227698835116
 20
98.93576644340345
 10
301.3320842957916
 20
97.97987293732473
 10
301.71686050363854
 20
97.0299060381779
 10
302.11651067412026
 20
96.08610013608052
 10
302.5309361995372
 20
95.14868810101663
 10
302.9600348265922
 20
94.21790122537897
 10
303.40370068161985
 20
93.29396916690152
 10
303.861824296709
 20
92.37711989199451
 10
304.33429263671275
 20
91.46757961949757
 10
304.8209891271379
 20
90.56557276486305
 10
305.32179368290804
 20
89.67132188478539
 10
305.83658273799267
 20
88.78504762228826
 10
306.3652292758955
 20
87.90696865228432
 10
306.9076028609935
 20
87.03730162762048
 10
307.4635696707204
 20
86.17626112562189
 10
308.0329925285848
 20
85.32405959514847
 10
308.61573093801724
 20
84.48090730417604
 10
309.2116411170347
 20
83.64701228791611
 10
309.8205760337174
 20
82.82258029748604
 10
310.44238544248617
 20
82.00781474914328
 10
311.076915921174
 20
81.2029166740952
 10
311.72401090887973
 20
80.40808466889797
 10
312.383510744598
 20
79.62351484645549
 10
313.0552527066125
 20
78.84940078763171
 10
313.7390710526457
 20
78.08593349348725
 10
314.4347970607529
 20
77.33330133815306
 10
315.142259070952
 20
76.59169002235146
 10
315.86128252757777
 20
75.86128252757777
 10
316.59169002235154
 20
75.1422590709519
 10
317.3333013381531
 20
74.43479706075289
 10
318.08593349348735
 20
73.7390710526457
 10
318.84940078763174
 20
73.0552527066125
 10
319.6235148464555
 20
72.38351074459797
 10
320.408084668898
 20
71.72401090887973
 10
321.20291667409526
 20
71.07691592117399
 10
322.0078147491433
 20
70.4423854424862
 10
322.82258029748607
 20
69.82057603371734
 10
323.64701228791614
 20
69.21164111703466
 10
324.48090730417607
 20
68.61573093801722
 10
325.32405959514847
 20
68.03299252858483
 10
326.17626112562186
 20
67.46356967072037
 10
327.03730162762054
 20
66.90760286099349
 10
327.9069686522843
 20
66.36522927589547
 10
328.7850476222883
 20
65.83658273799267
 10
329.6713218847854
 20
65.32179368290802
 10
330.56557276486313
 20
64.82098912713788
 10
331.4675796194976
 20
64.33429263671275
 10
332.3771198919946
 20
63.86182429670899
 10
333.29396916690155
 20
63.403700681619824
 10
334.217901225379
 20
62.96003482659222
 10
335.14868810101666
 20
62.530936199537194
 10
336.0861001360806
 20
62.11651067412022
 10
337.0299060381779
 20
61.71686050363854
 10
337.9798729373248
 20
61.332084295791574
 10
338.9357664434035
 20
60.96227698835115
 10
339.8973507039948
 20
60.607529825736776
 10
340.8643884625708
 20
60.26793033650267
 10
341.83664111703473
 20
59.94356231174122
 10
342.81386877859217
 20
59.63450578440896
 10
343.7958303309403
 20
59.340837009579474
 10
344.78228348975944
 20
59.06262844562866
 10
345.7729848624932
 20
58.799948736356825
 10
346.7676900084022
 20
58.5528626940516
 10
347.7661534988756
 20
58.321431283496736
 10
348.7681289779876
 20
58.10571160692979
 10
349.77336922328146
 20
57.90575688995307
 10
350.7816262067686
 20
57.721616468400995
 10
351.7926511561249
 20
57.55333577616726
 10
352.80619461607273
 20
57.400956333994614
 10
353.82200650992917
 20
57.26451573923032
 10
354.8398362013093
 20
57.14404765654952
 10
355.859432555967
 20
57.039581809649036
 10
356.88054400375813
 20
56.9511439739134
 10
357.9029186007123
 20
56.87875597005528
 10
358.92630409119585
 20
56.82243565873145
 10
359.95044797015214
 20
56.78219693613602
 10
360.97509754540374
 20
56.75804973057164
 10
362.0
 20
56.75
 10
363.0249024545963
 20
56.75804973057164
 10
364.04955202984786
 20
56.78219693613602
 10
365.0736959088042
 20
56.822435658731465
 10
366.09708139928773
 20
56.87875597005528
 10
367.1194559962419
 20
56.9511439739134
 10
368.1405674440331
 20
57.039581809649036
 10
369.16016379869075
 20
57.14404765654953
 10
370.1779934900709
 20
57.26451573923032
 10
371.19380538392727
 20
57.400956333994614
 10
372.2073488438751
 20
57.55333577616727
 10
373.2183737932315
 20
57.721616468400995
 10
374.22663077671854
 20
57.90575688995307
 10
375.23187102201246
 20
58.10571160692979
 10
376.23384650112445
 20
58.321431283496736
 10
377.23230999159784
 20
58.55286269405161
 10
378.2270151375068
 20
58.79994873635684
 10
379.21771651024056
 20
59.062628445628675
 10
380.20416966905975
 20
59.340837009579474
 10
381.18613122140783
 20
59.63450578440896
 10
382.1633588829653
 20
59.94356231174123
 10
383.13561153742927
 20
60.26793033650267
 10
384.10264929600527
 20
60.607529825736805
 10
385.06423355659655
 20
60.962276988351164
 10
386.0201270626753
 20
61.33208429579162
 10
386.9700939618221
 20
61.71686050363854
 10
387.9138998639195
 20
62.116510674120235
 10
388.85131189898334
 20
62.530936199537194
 10
389.78209877462103
 20
62.960034826592235
 10
390.70603083309845
 20
63.40370068161984
 10
391.62288010800546
 20
63.86182429670902
 10
392.5324203805024
 20
64.33429263671276
 10
393.434427235137
 20
64.82098912713792
 10
394.3286781152146
 20
65.32179368290804
 10
395.2149523777117
 20
65.83658273799267
 10
396.0930313477157
 20
66.3652292758955
 10
396.9626983723795
 20
66.9076028609935
 10
397.82373887437814
 20
67.46356967072037
 10
398.67594040485153
 20
68.03299252858484
 10
399.51909269582393
 20
68.61573093801724
 10
400.35298771208386
 20
69.21164111703467
 10
401.17741970251393
 20
69.82057603371734
 10
401.9921852508567
 20
70.4423854424862
 10
402.7970833259048
 20
71.07691592117399
 10
403.59191533110203
 20
71.72401090887975
 10
404.3764851535445
 20
72.383510744598
 10
405.1505992123683
 20
73.05525270661252
 10
405.9140665065127
 20
73.73907105264573
 10
406.6666986618469
 20
74.43479706075291
 10
407.4083099776485
 20
75.14225907095195
 10
408.13871747242223
 20
75.86128252757777
 10
408.8577409290481
 20
76.59169002235151
 10
409.5652029392471
 20
77.33330133815306
 10
410.2609289473543
 20
78.08593349348732
 10
410.9447472933875
 20
78.84940078763171
 10
411.61648925540203
 20
79.62351484645554
 10
412.27598909112027
 20
80.408084668898
 10
412.92308407882604
 20
81.20291667409526
 10
413.55761455751383
 20
82.00781474914328
 10
414.1794239662827
 20
82.82258029748607
 10
414.7883588829653
 20
83.64701228791614
 10
415.38426906198276
 20
84.48090730417607
 10
415.9670074714152
 20
85.32405959514847
 10
416.5364303292796
 20
86.17626112562189
 10
417.0923971390065
 20
87.03730162762048
 10
417.6347707241045
 20
87.90696865228432
 10
418.16341726200733
 20
88.78504762228829
 10
418.67820631709196
 20
89.67132188478541
 10
419.17901087286214
 20
90.5655727648631
 10
419.66570736328725
 20
91.4675796194976
 10
420.13817570329104
 20
92.3771198919946
 10
420.59629931838015
 20
93.29396916690155
 10
421.0399651734078
 20
94.21790122537902
 10
421.4690638004628
 20
95.14868810101666
 10
421.8834893258798
 20
96.08610013608057
 10
422.28313949636146
 20
97.0299060381779
 10
422.66791570420844
 20
97.97987293732479
 10
423.03772301164884
 20
98.93576644340348
 10
423.3924701742632
 20
99.89735070399476
 10
423.7320696634973
 20
100.86438846257076
 10
424.05643768825877
 20
101.8366411170347
 10
424.36549421559107
 20
102.81386877859217
 10
424.65916299042055
 20
103.79583033094033
 10
424.93737155437134
 20
104.78228348975944
 10
425.20005126364316
 20
105.77298486249322
 10
425.4471373059484
 20
106.76769000840218
 10
425.67856871650326
 20
107.76615349887558
 10
425.8942883930702
 20
108.76812897798757
 10
426.09424311004693
 20
109.77336922328146
 10
426.278383531599
 20
110.78162620676855
 10
426.4466642238327
 20
111.79265115612492
 10
426.5990436660054
 20
112.80619461607276
 10
426.7354842607697
 20
113.82200650992914
 10
426.8559523434505
 20
114.83983620130931
 10
426.960418190351
 20
115.85943255596695
 10
427.0488560260866
 20
116.88054400375813
 10
427.1212440299447
 20
117.9029186007123
 10
427.1775643412685
 20
118.92630409119585
 10
427.217803063864
 20
119.95044797015214
 10
427.24195026942834
 20
120.97509754540371
 10
427.25
 20
122.0
  0
LWPOLYLINE
  5
43
330
17
100
AcDbEntity
  8
POCKET_11MM
100
AcDbPolyline
 90
401
 70
1
 10
439.3
 20
452.00000000000006
 10
439.27565958863164
 20
455.0990537056222
 10
439.20264436015884
 20
458.19734276611473
 10
439.0809723299967
 20
461.2941027250125
 10
438.91067351889797
 20
464.3885695031337
 10
438.69178994554613
 20
467.4799795871038
 10
438.4243756161877
 20
470.56757021774285
 10
438.10849651130695
 20
473.6505795782632
 10
437.7442305693465
 20
476.72824698223735
 10
437.33166766747684
 20
479.79981306128514
 10
436.87090959942066
 20
482.8645199524376
 10
436.3620700503369
 20
485.9216114851274
 10
435.80527456877024
 20
488.9703333677637
 10
435.2006605356744
 20
492.0099333738399
 10
434.5483771305149
 20
495.0396615275379
 10
433.8485852944616
 20
498.0587702887701
 10
433.1014576906789
 20
501.066514737626
 10
432.3071786617236
 20
504.06215275816817
 10
431.46594418406085
 20
507.04494522154005
 10
430.5779618197106
 20
510.01415616833344
 10
429.6434506650337
 20
512.9690529901774
 10
428.6626412966747
 20
515.9089066104949
 10
427.6357757146687
 20
518.832991664396
 10
426.56310728273286
 20
521.7405866776475
 10
425.44490066575196
 20
524.6309742446871
 10
424.28143176447685
 20
527.5034412056324
 10
423.07298764744945
 20
530.3572788222423
 10
421.81986648017335
 20
533.1917829527879
 10
420.5223774515456
 20
536.0062542257889
 10
419.18084069756947
 20
538.7999982125721
 10
417.795587222365
 20
541.5723255986127
 10
416.3669588164992
 20
544.3225523536112
 10
414.89530797265434
 20
547.0499999002684
 10
413.3809977986551
 20
549.7539952817142
 10
411.824401927878
 20
552.4338713275484
 10
410.22590442706246
 20
555.0889668184567
 10
408.58589970154765
 20
557.718626649356
 10
406.9047923979597
 20
560.3222019910315
 10
405.18299730437104
 20
562.8990504502254
 10
403.4209392479571
 20
565.4485362281389
 10
401.6190529901771
 20
567.970030277305
 10
399.7777831195028
 20
570.4629104567971
 10
397.8975839417237
 20
572.9265616857323
 10
395.9789193678525
 20
575.3603760950347
 10
394.0222627996633
 20
577.7637531774164
 10
392.02809701288606
 20
580.1360999355454
 10
389.9969140380896
 20
582.4768310283566
 10
387.9292150392796
 20
584.7853689154783
 10
385.8255101902445
 20
587.0611439997303
 10
383.68631854867704
 20
589.3035947676638
 10
381.5121679281058
 20
591.5121679281059
 10
379.30359476766364
 20
593.6863185486771
 10
377.06114399973023
 20
595.8255101902445
 10
374.78536891547816
 20
597.9292150392798
 10
372.4768310283564
 20
599.9969140380898
 10
370.13609993554513
 20
602.0280970128862
 10
367.7637531774164
 20
604.0222627996633
 10
365.36037609503444
 20
605.9789193678527
 10
362.92656168573217
 20
607.8975839417237
 10
360.46291045679686
 20
609.777783119503
 10
357.9700302773049
 20
611.6190529901771
 10
355.44853622813883
 20
613.4209392479571
 10
352.8990504502252
 20
615.1829973043712
 10
350.32220199103125
 20
616.9047923979598
 10
347.71862664935605
 20
618.5858997015475
 10
345.08896681845675
 20
620.2259044270623
 10
342.43387132754816
 20
621.8244019278782
 10
339.75399528171397
 20
623.3809977986552
 10
337.04999990026835
 20
624.8953079726543
 10
334.32255235361106
 20
626.3669588164993
 10
331.57232559861257
 20
627.795587222365
 10
328.79999821257206
 20
629.1808406975695
 10
326.00625422578884
 20
630.5223774515457
 10
323.191782952788
 20
631.8198664801733
 10
320.3572788222421
 20
633.0729876474495
 10
317.50344120563227
 20
634.2814317644768
 10
314.630974244687
 20
635.444900665752
 10
311.74058667764734
 20
636.5631072827329
 10
308.83299166439593
 20
637.6357757146687
 10
305.9089066104948
 20
638.6626412966747
 10
302.9690529901771
 20
639.6434506650338
 10
300.01415616833356
 20
640.5779618197105
 10
297.04494522153976
 20
641.465944184061
 10
294.0621527581681
 20
642.3071786617236
 10
291.0665147376259
 20
643.1014576906789
 10
288.05877028877
 20
643.8485852944616
 10
285.03966152753793
 20
644.5483771305148
 10
282.00993337383983
 20
645.2006605356744
 10
278.9703333677634
 20
645.8052745687703
 10
275.92161148512747
 20
646.3620700503369
 10
272.8645199524375
 20
646.8709095994207
 10
269.799813061285
 20
647.3316676674768
 10
266.72824698223724
 20
647.7442305693464
 10
263.6505795782631
 20
648.108496511307
 10
260.5675702177429
 20
648.4243756161877
 10
257.4799795871037
 20
648.6917899455461
 10
254.3885695031334
 20
648.910673518898
 10
251.29410272501258
 20
649.0809723299967
 10
248.19734276611462
 20
649.2026443601588
 10
245.09905370562217
 20
649.2756595886317
 10
241.99999999999994
 20
649.3
 10
238.90094629437777
 20
649.2756595886317
 10
235.8026572338853
 20
649.2026443601588
 10
232.70589727498734
 20
649.0809723299967
 10
229.61143049686632
 20
648.910673518898
 10
226.52002041289626
 20
648.6917899455461
 10
223.43242978225703
 20
648.4243756161877
 10
220.34942042173668
 20
648.108496511307
 10
217.2717530177627
 20
647.7442305693464
 10
214.2001869387149
 20
647.3316676674768
 10
211.13548004756242
 20
646.8709095994207
 10
208.0783885148723
 20
646.3620700503369
 10
205.02966663223634
 20
645.8052745687703
 10
201.99006662616011
 20
645.2006605356744
 10
198.960338472462
 20
644.5483771305148
 10
195.94122971122974
 20
643.8485852944616
 10
192.93348526237406
 20
643.1014576906789
 10
189.93784724183183
 20
642.3071786617236
 10
186.95505477846
 20
641.4659441840608
 10
183.9858438316664
 20
640.5779618197105
 10
181.03094700982285
 20
639.6434506650338
 10
178.0910933895051
 20
638.6626412966747
 10
175.167008335604
 20
637.6357757146686
 10
172.25941332235243
 20
636.5631072827327
 10
169.36902575531292
 20
635.4449006657519
 10
166.49655879436767
 20
634.2814317644768
 10
163.64272117775766
 20
633.0729876474495
 10
160.80821704721194
 20
631.8198664801733
 10
157.9937457742111
 20
630.5223774515456
 10
155.20000178742788
 20
629.1808406975695
 10
152.42767440138738
 20
627.7955872223649
 10
149.67744764638886
 20
626.3669588164992
 10
146.95000009973143
 20
624.8953079726542
 10
144.24600471828586
 20
623.380997798655
 10
141.5661286724516
 20
621.8244019278781
 10
138.9110331815432
 20
620.2259044270623
 10
136.28137335064386
 20
618.5858997015475
 10
133.67779800896852
 20
616.9047923979597
 10
131.10094954977455
 20
615.182997304371
 10
128.5514637718611
 20
613.4209392479571
 10
126.02996972269489
 20
611.619052990177
 10
123.53708954320291
 20
609.7777831195028
 10
121.07343831426772
 20
607.8975839417237
 10
118.63962390496539
 20
605.9789193678525
 10
116.23624682258344
 20
604.0222627996632
 10
113.86390006445467
 20
602.0280970128861
 10
111.5231689716434
 20
599.9969140380896
 10
109.21463108452178
 20
597.9292150392798
 10
106.93885600026965
 20
595.8255101902445
 10
104.69640523233628
 20
593.686318548677
 10
102.48783207189413
 20
591.5121679281058
 10
100.31368145132288
 20
589.3035947676638
 10
98.1744898097555
 20
587.0611439997303
 10
96.0707849607202
 20
584.7853689154781
 10
94.00308596191036
 20
582.4768310283565
 10
91.97190298711394
 20
580.1360999355453
 10
89.97773720033678
 20
577.7637531774164
 10
88.02108063214743
 20
575.3603760950346
 10
86.1024160582763
 20
572.9265616857323
 10
84.22221688049706
 20
570.462910456797
 10
82.38094700982285
 20
567.9700302773049
 10
80.57906075204275
 20
565.4485362281387
 10
78.81700269562893
 20
562.8990504502253
 10
77.09520760204029
 20
560.3222019910314
 10
75.41410029845238
 20
557.718626649356
 10
73.77409557293748
 20
555.0889668184566
 10
72.17559807212191
 20
552.4338713275482
 10
70.61900220134487
 20
549.753995281714
 10
69.10469202734572
 20
547.0499999002684
 10
67.63304118350078
 20
544.3225523536112
 10
66.20441277763501
 20
541.5723255986126
 10
64.81915930243053
 20
538.7999982125721
 10
63.47762254845438
 20
536.0062542257889
 10
62.180133519826654
 20
533.191782952788
 10
60.92701235255049
 20
530.3572788222422
 10
59.718568235523094
 20
527.5034412056322
 10
58.55509933424801
 20
524.6309742446871
 10
57.43689271726717
 20
521.7405866776475
 10
56.36422428533129
 20
518.8329916643959
 10
55.33735870332529
 20
515.9089066104948
 10
54.35654933496619
 20
512.9690529901771
 10
53.42203818028946
 20
510.01415616833356
 10
52.5340558159391
 20
507.0449452215398
 10
51.69282133827642
 20
504.06215275816805
 10
50.89854230932107
 20
501.0665147376259
 10
50.15141470553837
 20
498.0587702887701
 10
49.45162286948511
 20
495.03966152753776
 10
48.799339464325584
 20
492.0099333738399
 10
48.19472543122973
 20
488.9703333677635
 10
47.63792994966309
 20
485.9216114851274
 10
47.129090400579315
 20
482.8645199524375
 10
46.668332332523164
 20
479.799813061285
 10
46.255769430653515
 20
476.72824698223724
 10
45.89150348869302
 20
473.6505795782633
 10
45.57562438381231
 20
470.56757021774285
 10
45.30821005445381
 20
467.4799795871037
 10
45.089326481102006
 20
464.38856950313357
 10
44.91902767000332
 20
461.2941027250125
 10
44.79735563984116
 20
458.1973427661147
 10
44.72434041136836
 20
455.0990537056221
 10
44.69999999999999
 20
452.0
 10
44.72434041136836
 20
448.90094629437766
 10
44.79735563984116
 20
445.8026572338852
 10
44.91902767000332
 20
442.70589727498736
 10
45.089326481102006
 20
439.61143049686643
 10
45.30821005445384
 20
436.52002041289614
 10
45.57562438381231
 20
433.43242978225703
 10
45.89150348869302
 20
430.3494204217368
 10
46.255769430653515
 20
427.2717530177627
 10
46.66833233252319
 20
424.2001869387149
 10
47.129090400579315
 20
421.13548004756234
 10
47.63792994966312
 20
418.0783885148725
 10
48.19472543122973
 20
415.02966663223646
 10
48.79933946432561
 20
411.99006662616
 10
49.451622869485135
 20
408.9603384724621
 10
50.1514147055384
 20
405.9412297112298
 10
50.8985423093211
 20
402.93348526237406
 10
51.692821338276445
 20
399.93784724183183
 10
52.534055815939155
 20
396.95505477846
 10
53.42203818028946
 20
393.9858438316664
 10
54.35654933496622
 20
391.03094700982274
 10
55.33735870332529
 20
388.0910933895051
 10
56.36422428533132
 20
385.16700833560395
 10
57.43689271726717
 20
382.2594133223525
 10
58.55509933424804
 20
379.3690257553129
 10
59.71856823552312
 20
376.49655879436773
 10
60.92701235255055
 20
373.6427211777577
 10
62.18013351982668
 20
370.808217047212
 10
63.477622548454406
 20
367.993745774211
 10
64.81915930243053
 20
365.20000178742794
 10
66.20441277763507
 20
362.4276744013873
 10
67.63304118350081
 20
359.67744764638877
 10
69.10469202734569
 20
356.9500000997316
 10
70.6190022013449
 20
354.2460047182859
 10
72.17559807212194
 20
351.5661286724517
 10
73.7740955729376
 20
348.9110331815433
 10
75.41410029845241
 20
346.28137335064395
 10
77.09520760204032
 20
343.6777980089686
 10
78.81700269562893
 20
341.10094954977467
 10
80.57906075204289
 20
338.5514637718611
 10
82.38094700982288
 20
336.029969722695
 10
84.22221688049709
 20
333.537089543203
 10
86.10241605827628
 20
331.0734383142677
 10
88.02108063214757
 20
328.63962390496533
 10
89.9777372003368
 20
326.2362468225835
 10
91.97190298711396
 20
323.8639000644547
 10
94.0030859619103
 20
321.5231689716435
 10
96.07078496072035
 20
319.21463108452167
 10
98.17448980975553
 20
316.93885600026965
 10
100.31368145132294
 20
314.6964052323363
 10
102.48783207189419
 20
312.48783207189416
 10
104.69640523233645
 20
310.31368145132274
 10
106.93885600026977
 20
308.1744898097554
 10
109.21463108452176
 20
306.0707849607203
 10
111.52316897164351
 20
304.0030859619103
 10
113.86390006445484
 20
301.9719029871138
 10
116.23624682258355
 20
299.9777372003367
 10
118.63962390496536
 20
298.0210806321476
 10
121.07343831426778
 20
296.1024160582763
 10
123.53708954320308
 20
294.222216880497
 10
126.02996972269506
 20
292.3809470098229
 10
128.55146377186114
 20
290.5790607520429
 10
131.10094954977467
 20
288.8170026956289
 10
133.67779800896864
 20
287.0952076020402
 10
136.281373350644
 20
285.41410029845235
 10
138.9110331815433
 20
283.77409557293754
 10
141.56612867245184
 20
282.17559807212183
 10
144.24600471828603
 20
280.6190022013448
 10
146.9500000997316
 20
279.10469202734566
 10
149.67744764638888
 20
277.6330411835008
 10
152.4276744013875
 20
276.20441277763496
 10
155.20000178742794
 20
274.81915930243053
 10
157.99374577421122
 20
273.4776225484543
 10
160.80821704721208
 20
272.18013351982665
 10
163.6427211777579
 20
270.9270123525505
 10
166.4965587943678
 20
269.7185682355231
 10
169.36902575531315
 20
268.5550993342479
 10
172.25941332235254
 20
267.43689271726714
 10
175.16700833560412
 20
266.36422428533126
 10
178.09109338950512
 20
265.3373587033253
 10
181.03094700982302
 20
264.3565493349662
 10
183.98584383166641
 20
263.42203818028946
 10
186.95505477846007
 20
262.53405581593915
 10
189.93784724183195
 20
261.6928213382764
 10
192.93348526237412
 20
260.8985423093211
 10
195.94122971122988
 20
260.1514147055384
 10
198.9603384724621
 20
259.45162286948516
 10
201.99006662616011
 20
258.7993394643256
 10
205.02966663223648
 20
258.1947254312297
 10
208.07838851487253
 20
257.6379299496631
 10
211.13548004756242
 20
257.12909040057934
 10
214.20018693871498
 20
256.66833233252316
 10
217.27175301776276
 20
256.2557694306535
 10
220.34942042173682
 20
255.89150348869305
 10
223.43242978225712
 20
255.57562438381228
 10
226.52002041289626
 20
255.30821005445387
 10
229.61143049686646
 20
255.08932648110203
 10
232.70589727498756
 20
254.9190276700033
 10
235.8026572338853
 20
254.79735563984116
 10
238.90094629437783
 20
254.72434041136836
 10
242.0
 20
254.7
 10
245.09905370562228
 20
254.72434041136836
 10
248.19734276611473
 20
254.79735563984116
 10
251.29410272501258
 20
254.9190276700033
 10
254.38856950313357
 20
255.08932648110203
 10
257.4799795871039
 20
255.30821005445387
 10
260.5675702177429
 20
255.57562438381228
 10
263.6505795782633
 20
255.89150348869305
 10
266.7282469822373
 20
256.2557694306535
 10
269.799813061285
 20
256.66833233252316
 10
272.8645199524376
 20
257.12909040057934
 10
275.9216114851275
 20
257.6379299496631
 10
278.97033336776354
 20
258.1947254312297
 10
282.0099333738399
 20
258.7993394643256
 10
285.03966152753793
 20
259.45162286948516
 10
288.0587702887702
 20
260.1514147055384
 10
291.06651473762594
 20
260.8985423093211
 10
294.0621527581681
 20
261.6928213382764
 10
297.04494522154005
 20
262.53405581593915
 10
300.01415616833356
 20
263.42203818028946
 10
302.9690529901772
 20
264.3565493349662
 10
305.9089066104949
 20
265.3373587033253
 10
308.83299166439605
 20
266.3642242853313
 10
311.74058667764746
 20
267.43689271726714
 10
314.630974244687
 20
268.555099334248
 10
317.5034412056322
 20
269.7185682355231
 10
320.3572788222423
 20
270.9270123525505
 10
323.191782952788
 20
272.18013351982665
 10
326.0062542257889
 20
273.4776225484544
 10
328.79999821257206
 20
274.81915930243053
 10
331.5723255986127
 20
276.20441277763507
 10
334.3225523536112
 20
277.6330411835008
 10
337.0499999002685
 20
279.1046920273458
 10
339.753995281714
 20
280.61900220134487
 10
342.4338713275482
 20
282.1755980721219
 10
345.08896681845675
 20
283.77409557293765
 10
347.718626649356
 20
285.41410029845235
 10
350.3222019910314
 20
287.0952076020403
 10
352.89905045022533
 20
288.81700269562896
 10
355.44853622813895
 20
290.5790607520429
 10
357.97003027730494
 20
292.3809470098229
 10
360.462910456797
 20
294.22221688049706
 10
362.9265616857323
 20
296.1024160582763
 10
365.36037609503467
 20
298.0210806321476
 10
367.76375317741645
 20
299.9777372003368
 10
370.1360999355453
 20
301.97190298711394
 10
372.4768310283565
 20
304.0030859619103
 10
374.78536891547833
 20
306.07078496072035
 10
377.06114399973023
 20
308.1744898097555
 10
379.30359476766364
 20
310.31368145132285
 10
381.51216792810584
 20
312.4878320718942
 10
383.68631854867726
 20
314.6964052323364
 10
385.8255101902445
 20
316.93885600026977
 10
387.92921503927977
 20
319.2146310845218
 10
389.9969140380897
 20
321.5231689716435
 10
392.0280970128862
 20
323.8639000644548
 10
394.0222627996633
 20
326.23624682258355
 10
395.97891936785254
 20
328.63962390496545
 10
397.8975839417237
 20
331.0734383142677
 10
399.77778311950294
 20
333.537089543203
 10
401.6190529901771
 20
336.0299697226951
 10
403.4209392479571
 20
338.5514637718611
 10
405.18299730437104
 20
341.10094954977467
 10
406.9047923979597
 20
343.6777980089686
 10
408.58589970154765
 20
346.281373350644
 10
410.2259044270624
 20
348.9110331815433
 10
411.8244019278781
 20
351.5661286724518
 10
413.38099779865513
 20
354.246004718286
 10
414.89530797265434
 20
356.9500000997316
 10
416.3669588164992
 20
359.6774476463888
 10
417.79558722236504
 20
362.42767440138743
 10
419.18084069756947
 20
365.20000178742794
 10
420.5223774515457
 20
367.9937457742112
 10
421.81986648017335
 20
370.808217047212
 10
423.0729876474495
 20
373.64272117775783
 10
424.2814317644769
 20
376.4965587943678
 10
425.444900665752
 20
379.3690257553131
 10
426.56310728273286
 20
382.25941332235254
 10
427.63577571466874
 20
385.16700833560407
 10
428.6626412966747
 20
388.09109338950515
 10
429.6434506650338
 20
391.03094700982297
 10
430.57796181971054
 20
393.98584383166644
 10
431.4659441840609
 20
396.9550547784602
 10
432.3071786617236
 20
399.93784724183195
 10
433.1014576906789
 20
402.9334852623741
 10
433.8485852944616
 20
405.9412297112299
 10
434.54837713051484
 20
408.9603384724621
 10
435.2006605356744
 20
411.9900666261601
 10
435.8052745687703
 20
415.0296666322365
 10
436.3620700503369
 20
418.07838851487253
 10
436.87090959942066
 20
421.1354800475624
 10
437.33166766747684
 20
424.200186938715
 10
437.7442305693465
 20
427.27175301776276
 10
438.10849651130695
 20
430.3494204217368
 10
438.4243756161877
 20
433.4324297822571
 10
438.69178994554613
 20
436.52002041289626
 10
438.91067351889797
 20
439.61143049686643
 10
439.0809723299967
 20
442.7058972749876
 10
439.20264436015884
 20
445.80265723388527
 10
439.27565958863164
 20
448.90094629437783
 10
439.3
 20
452.0
  0
ENDSEC
  0
SECTION
  2
OBJECTS
  0
DICTIONARY
  5
A
330
0
100
AcDbDictionary
281
1
  3
ACAD_COLOR
350
B
  3
ACAD_GROUP
350
C
  3
ACAD_LAYOUT
350
D
  3
ACAD_MATERIAL
350
E
  3
ACAD_MLEADERSTYLE
350
F
  3
ACAD_MLINESTYLE
350
10
  3
ACAD_PLOTSETTINGS
350
11
  3
ACAD_PLOTSTYLENAME
350
12
  3
ACAD_SCALELIST
350
14
  3
ACAD_TABLESTYLE
350
15
  3
ACAD_VISUALSTYLE
350
16
  3
EZDXF_META
350
2D
  0
DICTIONARY
  5
B
330
A
100
AcDbDictionary
281
1
  0
DICTIONARY
  5
C
330
A
100
AcDbDictionary
281
1
  0
DICTIONARY
  5
D
330
A
100
AcDbDictionary
281
1
  3
Model
350
1A
  3
Layout1
350
1E
  0
DICTIONARY
  5
E
330
A
100
AcDbDictionary
281
1
  3
ByBlock
350
1F
  3
ByLayer
350
20
  3
Global
350
21
  0
DICTIONARY
  5
F
330
A
100
AcDbDictionary
281
1
  3
Standard
350
2C
  0
DICTIONARY
  5
10
330
A
100
AcDbDictionary
281
1
  3
Standard
350
22
  0
DICTIONARY
  5
11
330
A
100
AcDbDictionary
281
1
  0
ACDBDICTIONARYWDFLT
  5
12
330
A
100
AcDbDictionary
281
1
  3
Normal
350
13
100
AcDbDictionaryWithDefault
340
13
  0
ACDBPLACEHOLDER
  5
13
330
12
  0
DICTIONARY
  5
14
330
A
100
AcDbDictionary
281
1
  0
DICTIONARY
  5
15
330
A
100
AcDbDictionary
281
1
  0
DICTIONARY
  5
16
330
A
100
AcDbDictionary
281
1
  0
LAYOUT
  5
1A
330
D
100
AcDbPlotSettings
  1

  4
A3
  6

 40
7.5
 41
20.0
 42
7.5
 43
20.0
 44
420.0
 45
297.0
 46
0.0
 47
0.0
 48
0.0
 49
0.0
140
0.0
141
0.0
142
1.0
143
1.0
 70
1024
 72
1
 73
0
 74
5
  7

 75
16
 76
0
 77
2
 78
300
147
1.0
148
0.0
149
0.0
100
AcDbLayout
  1
Model
 70
1
 71
0
 10
0.0
 20
0.0
 11
420.0
 21
297.0
 12
0.0
 22
0.0
 32
0.0
 14
1e+20
 24
1e+20
 34
1e+20
 15
-1e+20
 25
-1e+20
 35
-1e+20
146
0.0
 13
0.0
 23
0.0
 33
0.0
 16
1.0
 26
0.0
 36
0.0
 17
0.0
 27
1.0
 37
0.0
 76
1
330
17
  0
LAYOUT
  5
1E
330
D
100
AcDbPlotSettings
  1

  4
A3
  6

 40
7.5
 41
20.0
 42
7.5
 43
20.0
 44
420.0
 45
297.0
 46
0.0
 47
0.0
 48
0.0
 49
0.0
140
0.0
141
0.0
142
1.0
143
1.0
 70
0
 72
1
 73
0
 74
5
  7

 75
16
 76
0
 77
2
 78
300
147
1.0
148
0.0
149
0.0
100
AcDbLayout
  1
Layout1
 70
1
 71
1
 10
0.0
 20
0.0
 11
420.0
 21
297.0
 12
0.0
 22
0.0
 32
0.0
 14
1e+20
 24
1e+20
 34
1e+20
 15
-1e+20
 25
-1e+20
 35
-1e+20
146
0.0
 13
0.0
 23
0.0
 33
0.0
 16
1.0
 26
0.0
 36
0.0
 17
0.0
 27
1.0
 37
0.0
 76
1
330
1B
  0
MATERIAL
  5
1F
102
{ACAD_REACTORS
330
E
102
}
330
E
100
AcDbMaterial
  1
ByBlock
  2

 70
0
 40
1.0
 71
1
 41
1.0
 91
-1023410177
 42
1.0
 72
1
  3

 73
1
 74
1
 75
1
 44
0.5
 73
0
 45
1.0
 46
1.0
 77
1
  4

 78
1
 79
1
170
1
 48
1.0
171
1
  6

172
1
173
1
174
1
140
1.0
141
1.0
175
1
  7

176
1
177
1
178
1
143
1.0
179
1
  8

270
1
271
1
272
1
145
1.0
146
1.0
273
1
  9

274
1
275
1
276
1
 42
1.0
 72
1
  3

 73
1
 74
1
 75
1
 94
63
  0
MATERIAL
  5
20
102
{ACAD_REACTORS
330
E
102
}
330
E
100
AcDbMaterial
  1
ByLayer
  2

 70
0
 40
1.0
 71
1
 41
1.0
 91
-1023410177
 42
1.0
 72
1
  3

 73
1
 74
1
 75
1
 44
0.5
 73
0
 45
1.0
 46
1.0
 77
1
  4

 78
1
 79
1
170
1
 48
1.0
171
1
  6

172
1
173
1
174
1
140
1.0
141
1.0
175
1
  7

176
1
177
1
178
1
143
1.0
179
1
  8

270
1
271
1
272
1
145
1.0
146
1.0
273
1
  9

274
1
275
1
276
1
 42
1.0
 72
1
  3

 73
1
 74
1
 75
1
 94
63
  0
MATERIAL
  5
21
102
{ACAD_REACTORS
330
E
102
}
330
E
100
AcDbMaterial
  1
Global
  2

 70
0
 40
1.0
 71
1
 41
1.0
 91
-1023410177
 42
1.0
 72
1
  3

 73
1
 74
1
 75
1
 44
0.5
 73
0
 45
1.0
 46
1.0
 77
1
  4

 78
1
 79
1
170
1
 48
1.0
171
1
  6

172
1
173
1
174
1
140
1.0
141
1.0
175
1
  7

176
1
177
1
178
1
143
1.0
179
1
  8

270
1
271
1
272
1
145
1.0
146
1.0
273
1
  9

274
1
275
1
276
1
 42
1.0
 72
1
  3

 73
1
 74
1
 75
1
 94
63
  0
MLINESTYLE
  5
22
102
{ACAD_REACTORS
330
10
102
}
330
10
100
AcDbMlineStyle
  2
Standard
 70
0
  3

 62
256
 51
90.0
 52
90.0
 71
2
 49
0.5
 62
256
  6
BYLAYER
 49
-0.5
 62
256
  6
BYLAYER
  0
MLEADERSTYLE
  5
2C
102
{ACAD_REACTORS
330
F
102
}
330
F
100
AcDbMLeaderStyle
179
2
170
2
171
1
172
0
 90
2
 40
0.0
 41
0.0
173
1
 91
-1056964608
 92
-2
290
1
 42
2.0
291
1
 43
8.0
  3
Standard
 44
4.0
300

342
29
174
1
175
1
176
0
178
1
 93
-1056964608
 45
4.0
292
0
297
0
 46
4.0
 94
-1056964608
 47
1.0
 49
1.0
140
1.0
294
1
141
0.0
177
0
142
1.0
295
0
296
0
143
3.75
271
0
272
9
273
9
  0
DICTIONARY
  5
2D
330
A
100
AcDbDictionary
280
1
281
1
  3
CREATED_BY_EZDXF
350
2E
  3
WRITTEN_BY_EZDXF
350
46
  0
DICTIONARYVAR
  5
2E
330
2D
100
DictionaryVariables
280
0
  1
1.4.4 @ 2026-10-10T18:57:11.146279+00:00
  0
DICTIONARYVAR
  5
46
330
2D
100
DictionaryVariables
280
0
  1
1.4.4 @ 2026-10-10T18:57:11.153299+00:00
  0
ENDSEC
  0
EOF
