  0
SECTION
  2
HEADER
  9
$ACADVER
  1
AC1024
  9
$ACADMAINTVER
 70
6
  9
$DWGCODEPAGE
  3
ANSI_1252
  9
$LASTSAVEDBY
  1
ezdxf
  9
$INSBASE
 10
0.0
 20
0.0
 30
0.0
  9
$EXTMIN
 10
1e+20
 20
1e+20
 30
1e+20
  9
$EXTMAX
 10
-1e+20
 20
-1e+20
 30
-1e+20
  9
$LIMMIN
 10
0.0
 20
0.0
  9
$LIMMAX
 10
420.0
 20
297.0
  9
$ORTHOMODE
 70
0
  9
$REGENMODE
 70
1
  9
$FILLMODE
 70
1
  9
$QTEXTMODE
 70
0
  9
$MIRRTEXT
 70
1
  9
$LTSCALE
 40
1.0
  9
$ATTMODE
 70
1
  9
$TEXTSIZE
 40
2.5
  9
$TRACEWID
 40
1.0
  9
$TEXTSTYLE
  7
Standard
  9
$CLAYER
  8
0
  9
$CELTYPE
  6
ByLayer
  9
$CECOLOR
 62
256
  9
$CELTSCALE
 40
1.0
  9
$DISPSILH
 70
0
  9
$DIMSCALE
 40
1.0
  9
$DIMASZ
 40
2.5
  9
$DIMEXO
 40
0.625
  9
$DIMDLI
 40
3.75
  9
$DIMRND
 40
0.0
  9
$DIMDLE
 40
0.0
  9
$DIMEXE
 40
1.25
  9
$DIMTP
 40
0.0
  9
$DIMTM
 40
0.0
  9
$DIMTXT
 40
2.5
  9
$DIMCEN
 40
2.5
  9
$DIMTSZ
 40
0.0
  9
$DIMTOL
 70
0
  9
$DIMLIM
 70
0
  9
$DIMTIH
 70
0
  9
$DIMTOH
 70
0
  9
$DIMSE1
 70
0
  9
$DIMSE2
 70
0
  9
$DIMTAD
 70
1
  9
$DIMZIN
 70
8
  9
$DIMBLK
  1

  9
$DIMASO
 70
1
  9
$DIMSHO
 70
1
  9
$DIMPOST
  1

  9
$DIMAPOST
  1

  9
$DIMALT
 70
0
  9
$DIMALTD
 70
3
  9
$DIMALTF
 40
0.03937007874
  9
$DIMLFAC
 40
1.0
  9
$DIMTOFL
 70
1
  9
$DIMTVP
 40
0.0
  9
$DIMTIX
 70
0
  9
$DIMSOXD
 70
0
  9
$DIMSAH
 70
0
  9
$DIMBLK1
  1

  9
$DIMBLK2
  1

  9
$DIMSTYLE
  2
ISO-25
  9
$DIMCLRD
 70
0
  9
$DIMCLRE
 70
0
  9
$DIMCLRT
 70
0
  9
$DIMTFAC
 40
1.0
  9
$DIMGAP
 40
0.625
  9
$DIMJUST
 70
0
  9
$DIMSD1
 70
0
  9
$DIMSD2
 70
0
  9
$DIMTOLJ
 70
0
  9
$DIMTZIN
 70
8
  9
$DIMALTZ
 70
0
  9
$DIMALTTZ
 70
0
  9
$DIMUPT
 70
0
  9
$DIMDEC
 70
2
  9
$DIMTDEC
 70
2
  9
$DIMALTU
 70
2
  9
$DIMALTTD
 70
3
  9
$DIMTXSTY
  7
Standard
  9
$DIMAUNIT
 70
0
  9
$DIMADEC
 70
0
  9
$DIMALTRND
 40
0.0
  9
$DIMAZIN
 70
0
  9
$DIMDSEP
 70
44
  9
$DIMATFIT
 70
3
  9
$DIMFRAC
 70
0
  9
$DIMLDRBLK
  1

  9
$DIMLUNIT
 70
2
  9
$DIMLWD
 70
-2
  9
$DIMLWE
 70
-2
  9
$DIMTMOVE
 70
0
  9
$DIMFXL
 40
1.0
  9
$DIMFXLON
 70
0
  9
$DIMJOGANG
 40
0.785398163397
  9
$DIMTFILL
 70
0
  9
$DIMTFILLCLR
 70
0
  9
$DIMARCSYM
 70
0
  9
$DIMLTYPE
  6

  9
$DIMLTEX1
  6

  9
$DIMLTEX2
  6

  9
$DIMTXTDIRECTION
 70
0
  9
$LUNITS
 70
2
  9
$LUPREC
 70
4
  9
$SKETCHINC
 40
1.0
  9
$FILLETRAD
 40
10.0
  9
$AUNITS
 70
0
  9
$AUPREC
 70
2
  9
$MENU
  1
.
  9
$ELEVATION
 40
0.0
  9
$PELEVATION
 40
0.0
  9
$THICKNESS
 40
0.0
  9
$LIMCHECK
 70
0
  9
$CHAMFERA
 40
0.0
  9
$CHAMFERB
 40
0.0
  9
$CHAMFERC
 40
0.0
  9
$CHAMFERD
 40
0.0
  9
$SKPOLY
 70
0
  9
$TDCREATE
 40
2461324.8077430557
  9
$TDUCREATE
 40
2458532.153996898
  9
$TDUPDATE
 40
2461324.8077430557
  9
$TDUUPDATE
 40
2458532.1544311
  9
$TDINDWG
 40
0.0
  9
$TDUSRTIMER
 40
0.0
  9
$USRTIMER
 70
1
  9
$ANGBASE
 50
0.0
  9
$ANGDIR
 70
0
  9
$PDMODE
 70
0
  9
$PDSIZE
 40
0.0
  9
$PLINEWID
 40
0.0
  9
$SPLFRAME
 70
0
  9
$SPLINETYPE
 70
6
  9
$SPLINESEGS
 70
8
  9
$HANDSEED
  5
43
  9
$SURFTAB1
 70
6
  9
$SURFTAB2
 70
6
  9
$SURFTYPE
 70
6
  9
$SURFU
 70
6
  9
$SURFV
 70
6
  9
$UCSBASE
  2

  9
$UCSNAME
  2

  9
$UCSORG
 10
0.0
 20
0.0
 30
0.0
  9
$UCSXDIR
 10
1.0
 20
0.0
 30
0.0
  9
$UCSYDIR
 10
0.0
 20
1.0
 30
0.0
  9
$UCSORTHOREF
  2

  9
$UCSORTHOVIEW
 70
0
  9
$UCSORGTOP
 10
0.0
 20
0.0
 30
0.0
  9
$UCSORGBOTTOM
 10
0.0
 20
0.0
 30
0.0
  9
$UCSORGLEFT
 10
0.0
 20
0.0
 30
0.0
  9
$UCSORGRIGHT
 10
0.0
 20
0.0
 30
0.0
  9
$UCSORGFRONT
 10
0.0
 20
0.0
 30
0.0
  9
$UCSORGBACK
 10
0.0
 20
0.0
 30
0.0
  9
$PUCSBASE
  2

  9
$PUCSNAME
  2

  9
$PUCSORG
 10
0.0
 20
0.0
 30
0.0
  9
$PUCSXDIR
 10
1.0
 20
0.0
 30
0.0
  9
$PUCSYDIR
 10
0.0
 20
1.0
 30
0.0
  9
$PUCSORTHOREF
  2

  9
$PUCSORTHOVIEW
 70
0
  9
$PUCSORGTOP
 10
0.0
 20
0.0
 30
0.0
  9
$PUCSORGBOTTOM
 10
0.0
 20
0.0
 30
0.0
  9
$PUCSORGLEFT
 10
0.0
 20
0.0
 30
0.0
  9
$PUCSORGRIGHT
 10
0.0
 20
0.0
 30
0.0
  9
$PUCSORGFRONT
 10
0.0
 20
0.0
 30
0.0
  9
$PUCSORGBACK
 10
0.0
 20
0.0
 30
0.0
  9
$USERI1
 70
0
  9
$USERI2
 70
0
  9
$USERI3
 70
0
  9
$USERI4
 70
0
  9
$USERI5
 70
0
  9
$USERR1
 40
0.0
  9
$USERR2
 40
0.0
  9
$USERR3
 40
0.0
  9
$USERR4
 40
0.0
  9
$USERR5
 40
0.0
  9
$WORLDVIEW
 70
1
  9
$SHADEDGE
 70
3
  9
$SHADEDIF
 70
70
  9
$TILEMODE
 70
1
  9
$MAXACTVP
 70
64
  9
$PINSBASE
 10
0.0
 20
0.0
 30
0.0
  9
$PLIMCHECK
 70
0
  9
$PEXTMIN
 10
1e+20
 20
1e+20
 30
1e+20
  9
$PEXTMAX
 10
-1e+20
 20
-1e+20
 30
-1e+20
  9
$PLIMMIN
 10
0.0
 20
0.0
  9
$PLIMMAX
 10
420.0
 20
297.0
  9
$UNITMODE
 70
0
  9
$VISRETAIN
 70
1
  9
$PLINEGEN
 70
0
  9
$PSLTSCALE
 70
1
  9
$TREEDEPTH
 70
3020
  9
$CMLSTYLE
  2
Standard
  9
$CMLJUST
 70
0
  9
$CMLSCALE
 40
20.0
  9
$PROXYGRAPHICS
 70
1
  9
$MEASUREMENT
 70
1
  9
$CELWEIGHT
370
-1
  9
$ENDCAPS
280
0
  9
$JOINSTYLE
280
0
  9
$LWDISPLAY
290
0
  9
$INSUNITS
 70
4
  9
$HYPERLINKBASE
  1

  9
$STYLESHEET
  1

  9
$XEDIT
290
1
  9
$CEPSNTYPE
380
0
  9
$PSTYLEMODE
290
1
  9
$FINGERPRINTGUID
  2
{49A679B2-8F32-45CC-B0ED-0FE1918FE229}
  9
$VERSIONGUID
  2
{BC8C06CA-D5F9-4D38-B729-4E15010A48FE}
  9
$EXTNAMES
290
1
  9
$PSVPSCALE
 40
0.0
  9
$OLESTARTUP
290
0
  9
$SORTENTS
280
127
  9
$INDEXCTL
280
0
  9
$HIDETEXT
280
1
  9
$XCLIPFRAME
280
1
  9
$HALOGAP
280
0
  9
$OBSCOLOR
 70
257
  9
$OBSLTYPE
280
0
  9
$INTERSECTIONDISPLAY
280
0
  9
$INTERSECTIONCOLOR
 70
257
  9
$DIMASSOC
280
2
  9
$PROJECTNAME
  1

  9
$CAMERADISPLAY
290
0
  9
$LENSLENGTH
 40
50.0
  9
$CAMERAHEIGHT
 40
0.0
  9
$STEPSPERSEC
 40
24.0
  9
$STEPSIZE
 40
100.0
  9
$3DDWFPREC
 40
2.0
  9
$PSOLWIDTH
 40
0.005
  9
$PSOLHEIGHT
 40
0.08
  9
$LOFTANG1
 40
1.570796326795
  9
$LOFTANG2
 40
1.570796326795
  9
$LOFTMAG1
 40
0.0
  9
$LOFTMAG2
 40
0.0
  9
$LOFTPARAM
 70
7
  9
$LOFTNORMALS
280
1
  9
$LATITUDE
 40
37.795
  9
$LONGITUDE
 40
-122.394
  9
$NORTHDIRECTION
 40
0.0
  9
$TIMEZONE
 70
-8000
  9
$LIGHTGLYPHDISPLAY
280
1
  9
$TILEMODELIGHTSYNCH
280
1
  9
$CMATERIAL
347
20
  9
$SOLIDHIST
280
0
  9
$SHOWHIST
280
1
  9
$DWFFRAME
280
2
  9
$DGNFRAME
280
2
  9
$REALWORLDSCALE
290
1
  9
$INTERFERECOLOR
 62
256
  9
$CSHADOW
280
0
  9
$SHADOWPLANELOCATION
 40
0.0
  0
ENDSEC
  0
SECTION
  2
CLASSES
  0
CLASS
  1
ACDBDICTIONARYWDFLT
  2
AcDbDictionaryWithDefault
  3
ObjectDBX Classes
 90
0
 91
0
280
0
281
0
  0
CLASS
  1
SUN
  2
AcDbSun
  3
SCENEOE
 90
1153
 91
0
280
0
281
0
  0
CLASS
  1
VISUALSTYLE
  2
AcDbVisualStyle
  3
ObjectDBX Classes
 90
4095
 91
0
280
0
281
0
  0
CLASS
  1
MATERIAL
  2
AcDbMaterial
  3
ObjectDBX Classes
 90
1153
 91
0
280
0
281
0
  0
CLASS
  1
SCALE
  2
AcDbScale
  3
ObjectDBX Classes
 90
1153
 91
0
280
0
281
0
  0
CLASS
  1
TABLESTYLE
  2
AcDbTableStyle
  3
ObjectDBX Classes
 90
4095
 91
0
280
0
281
0
  0
CLASS
  1
MLEADERSTYLE
  2
AcDbMLeaderStyle
  3
ACDB_MLEADERSTYLE_CLASS
 90
4095
 91
0
280
0
281
0
  0
CLASS
  1
DICTIONARYVAR
  2
AcDbDictionaryVar
  3
ObjectDBX Classes
 90
0
 91
0
280
0
281
0
  0
CLASS
  1
CELLSTYLEMAP
  2
AcDbCellStyleMap
  3
ObjectDBX Classes
 90
1152
 91
0
280
0
281
0
  0
CLASS
  1
MENTALRAYRENDERSETTINGS
  2
AcDbMentalRayRenderSettings
  3
SCENEOE
 90
1024
 91
0
280
0
281
0
  0
CLASS
  1
ACDBDETAILVIEWSTYLE
  2
AcDbDetailViewStyle
  3
ObjectDBX Classes
 90
1025
 91
0
280
0
281
0
  0
CLASS
  1
ACDBSECTIONVIEWSTYLE
  2
AcDbSectionViewStyle
  3
ObjectDBX Classes
 90
1025
 91
0
280
0
281
0
  0
CLASS
  1
RASTERVARIABLES
  2
AcDbRasterVariables
  3
ISM
 90
0
 91
0
280
0
281
0
  0
CLASS
  1
LAYOUT
  2
AcDbLayout
  3
ObjectDBX Classes
 90
0
 91
0
280
0
281
0
  0
CLASS
  1
ACDBPLACEHOLDER
  2
AcDbPlaceHolder
  3
ObjectDBX Classes
 90
0
 91
0
280
0
281
0
  0
ENDSEC
  0
SECTION
  2
TABLES
  0
TABLE
  2
VPORT
  5
8
330
0
100
AcDbSymbolTable
 70
1
  0
VPORT
  5
23
330
8
100
AcDbSymbolTableRecord
100
AcDbViewportTableRecord
  2
*Active
 70
0
 10
0.0
 20
0.0
 11
1.0
 21
1.0
 12
0.0
 22
0.0
 13
0.0
 23
0.0
 14
0.5
 24
0.5
 15
0.5
 25
0.5
 16
0.0
 26
0.0
 36
1.0
 17
0.0
 27
0.0
 37
0.0
 40
1000.0
 41
1.34
 42
50.0
 43
0.0
 44
0.0
 50
0.0
 51
0.0
 71
0
 72
1000
 73
1
 74
3
 75
0
 76
0
 77
0
 78
0
281
0
 65
0
146
0.0
  0
ENDTAB
  0
TABLE
  2
LTYPE
  5
2
330
0
100
AcDbSymbolTable
 70
3
  0
LTYPE
  5
24
330
2
100
AcDbSymbolTableRecord
100
AcDbLinetypeTableRecord
  2
ByBlock
 70
0
  3

 72
65
 73
0
 40
0.0
  0
LTYPE
  5
25
330
2
100
AcDbSymbolTableRecord
100
AcDbLinetypeTableRecord
  2
ByLayer
 70
0
  3

 72
65
 73
0
 40
0.0
  0
LTYPE
  5
26
330
2
100
AcDbSymbolTableRecord
100
AcDbLinetypeTableRecord
  2
Continuous
 70
0
  3

 72
65
 73
0
 40
0.0
  0
ENDTAB
  0
TABLE
  2
LAYER
  5
1
330
0
100
AcDbSymbolTable
 70
6
  0
LAYER
  5
27
330
1
100
AcDbSymbolTableRecord
100
AcDbLayerTableRecord
  2
0
 70
0
 62
7
  6
Continuous
370
-3
390
13
347
21
  0
LAYER
  5
28
330
1
100
AcDbSymbolTableRecord
100
AcDbLayerTableRecord
  2
Defpoints
 70
0
 62
7
  6
Continuous
290
0
370
-3
390
13
347
21
  0
LAYER
  5
2F
330
1
100
AcDbSymbolTableRecord
100
AcDbLayerTableRecord
  2
CUT_OUTSIDE
 70
0
 62
1
  6
Continuous
370
-3
390
13
347
21
  0
LAYER
  5
31
330
1
100
AcDbSymbolTableRecord
100
AcDbLayerTableRecord
  2
CUT_INSIDE
 70
0
 62
5
  6
Continuous
370
-3
390
13
347
21
  0
LAYER
  5
3C
330
1
100
AcDbSymbolTableRecord
100
AcDbLayerTableRecord
  2
NOTES
 70
0
 62
7
  6
Continuous
370
-3
390
13
347
21
  0
LAYER
  5
3E
330
1
100
AcDbSymbolTableRecord
100
AcDbLayerTableRecord
  2
POCKET_11MM
 70
0
 62
3
  6
Continuous
370
-3
390
13
347
21
  0
ENDTAB
  0
TABLE
  2
STYLE
  5
5
330
0
100
AcDbSymbolTable
 70
1
  0
STYLE
  5
29
330
5
100
AcDbSymbolTableRecord
100
AcDbTextStyleTableRecord
  2
Standard
 70
0
 40
0.0
 41
1.0
 50
0.0
 71
0
 42
2.5
  3
txt
  4

  0
ENDTAB
  0
TABLE
  2
VIEW
  5
7
330
0
100
AcDbSymbolTable
 70
0
  0
ENDTAB
  0
TABLE
  2
UCS
  5
6
330
0
100
AcDbSymbolTable
 70
0
  0
ENDTAB
  0
TABLE
  2
APPID
  5
3
330
0
100
AcDbSymbolTable
 70
3
  0
APPID
  5
2A
330
3
100
AcDbSymbolTableRecord
100
AcDbRegAppTableRecord
  2
ACAD
 70
0
  0
APPID
  5
40
330
3
100
AcDbSymbolTableRecord
100
AcDbRegAppTableRecord
  2
HATCHBACKGROUNDCOLOR
 70
0
  0
APPID
  5
41
330
3
100
AcDbSymbolTableRecord
100
AcDbRegAppTableRecord
  2
EZDXF
 70
0
  0
ENDTAB
  0
TABLE
  2
DIMSTYLE
  5
4
330
0
100
AcDbSymbolTable
 70
1
100
AcDbDimStyleTable
  0
DIMSTYLE
105
2B
330
4
100
AcDbSymbolTableRecord
100
AcDbDimStyleTableRecord
  2
Standard
 70
0
 40
1.0
 41
2.5
 42
0.625
 43
3.75
 44
1.25
 45
0.0
 46
0.0
 47
0.0
 48
0.0
 49
2.5
140
2.5
141
2.5
142
0.0
143
0.03937007874
144
1.0
145
0.0
146
1.0
147
0.625
148
0.0
 69
0
 70
0
 71
0
 72
0
 73
0
 74
0
 75
0
 76
0
 77
1
 78
8
 79
3
170
0
171
3
172
1
173
0
174
0
175
0
176
0
177
0
178
0
179
2
271
2
272
2
273
2
274
3
275
0
276
0
277
2
278
44
279
0
280
0
281
0
282
0
283
0
284
8
285
0
286
0
288
0
289
3
290
0
371
-2
372
-2
  0
ENDTAB
  0
TABLE
  2
BLOCK_RECORD
  5
9
330
0
100
AcDbSymbolTable
 70
2
  0
BLOCK_RECORD
  5
17
330
9
100
AcDbSymbolTableRecord
100
AcDbBlockTableRecord
  2
*Model_Space
340
1A
 70
0
280
1
281
0
  0
BLOCK_RECORD
  5
1B
330
9
100
AcDbSymbolTableRecord
100
AcDbBlockTableRecord
  2
*Paper_Space
340
1E
 70
0
280
1
281
0
  0
ENDTAB
  0
ENDSEC
  0
SECTION
  2
BLOCKS
  0
BLOCK
  5
18
330
17
100
AcDbEntity
  8
0
100
AcDbBlockBegin
  2
*Model_Space
 70
0
 10
0.0
 20
0.0
 30
0.0
  3
*Model_Space
  1

  0
ENDBLK
  5
19
330
17
100
AcDbEntity
  8
0
100
AcDbBlockEnd
  0
BLOCK
  5
1C
330
1B
100
AcDbEntity
  8
0
100
AcDbBlockBegin
  2
*Paper_Space
 70
0
 10
0.0
 20
0.0
 30
0.0
  3
*Paper_Space
  1

  0
ENDBLK
  5
1D
330
1B
100
AcDbEntity
  8
0
100
AcDbBlockEnd
  0
ENDSEC
  0
SECTION
  2
ENTITIES
  0
LWPOLYLINE
  5
30
330
17
100
AcDbEntity
  8
CUT_OUTSIDE
100
AcDbPolyline
 90
5
 70
1
 10
0.0
 20
0.0
 10
524.0
 20
0.0
 10
524.0
 20
844.0
 10
0.0
 20
844.0
 10
0.0
 20
0.0
  0
LWPOLYLINE
  5
32
330
17
100
AcDbEntity
  8
CUT_INSIDE
100
AcDbPolyline
 90
5
 70
1
 10
491.19999999999993
 20
149.2
 10
382.8
 20
149.2
 10
382.8
 20
40.800000000000004
 10
491.19999999999993
 20
40.8
 10
491.2
 20
149.2
  0
CIRCLE
  5
33
330
17
100
AcDbEntity
  8
CUT_INSIDE
100
AcDbCircle
 10
190.24685643154555
 20
286.77258765413376
 30
0.0
 40
3.5
  0
CIRCLE
  5
34
330
17
100
AcDbEntity
  8
CUT_INSIDE
100
AcDbCircle
 10
88.7725876541337
 20
388.24685643154567
 30
0.0
 40
3.5
  0
CIRCLE
  5
35
330
17
100
AcDbEntity
  8
CUT_INSIDE
100
AcDbCircle
 10
88.77258765413373
 20
531.7531435684543
 30
0.0
 40
3.5
  0
CIRCLE
  5
36
330
17
100
AcDbEntity
  8
CUT_INSIDE
100
AcDbCircle
 10
262.0
 20
460.0
 30
0.0
 40
178.0
  0
CIRCLE
  5
37
330
17
100
AcDbEntity
  8
CUT_INSIDE
100
AcDbCircle
 10
190.24685643154567
 20
633.2274123458662
 30
0.0
 40
3.5
  0
CIRCLE
  5
38
330
17
100
AcDbEntity
  8
CUT_INSIDE
100
AcDbCircle
 10
333.7531435684544
 20
286.77258765413376
 30
0.0
 40
3.5
  0
CIRCLE
  5
39
330
17
100
AcDbEntity
  8
CUT_INSIDE
100
AcDbCircle
 10
333.75314356845433
 20
633.2274123458662
 30
0.0
 40
3.5
  0
CIRCLE
  5
3A
330
17
100
AcDbEntity
  8
CUT_INSIDE
100
AcDbCircle
 10
435.22741234586624
 20
388.24685643154555
 30
0.0
 40
3.5
  0
CIRCLE
  5
3B
330
17
100
AcDbEntity
  8
CUT_INSIDE
100
AcDbCircle
 10
435.22741234586624
 20
531.7531435684543
 30
0.0
 40
3.5
  0
TEXT
  5
3D
330
17
100
AcDbEntity
  8
NOTES
100
AcDbText
 10
2.0
 20
848.0
 30
0.0
 40
6.0
  1
front-panel  18 mm baltic-birch, outer face
 11
2.0
 21
848.0
 31
0.0
100
AcDbText
  0
LWPOLYLINE
  5
3F
330
17
100
AcDbEntity
  8
POCKET_11MM
100
AcDbPolyline
 90
401
 70
1
 10
459.3
 20
460.00000000000006
 10
459.27565958863164
 20
463.0990537056222
 10
459.20264436015884
 20
466.19734276611473
 10
459.0809723299967
 20
469.2941027250125
 10
458.91067351889797
 20
472.3885695031337
 10
458.69178994554613
 20
475.4799795871038
 10
458.4243756161877
 20
478.5675702177428
 10
458.10849651130695
 20
481.65057957826315
 10
457.7442305693465
 20
484.7282469822373
 10
457.33166766747684
 20
487.79981306128514
 10
456.87090959942066
 20
490.8645199524376
 10
456.3620700503369
 20
493.92161148512736
 10
455.80527456877024
 20
496.9703333677637
 10
455.2006605356744
 20
500.0099333738399
 10
454.5483771305149
 20
503.0396615275379
 10
453.8485852944616
 20
506.0587702887701
 10
453.1014576906789
 20
509.066514737626
 10
452.3071786617236
 20
512.0621527581682
 10
451.46594418406085
 20
515.04494522154
 10
450.5779618197106
 20
518.0141561683334
 10
449.6434506650337
 20
520.9690529901774
 10
448.6626412966747
 20
523.9089066104949
 10
447.6357757146687
 20
526.832991664396
 10
446.56310728273286
 20
529.7405866776475
 10
445.44490066575196
 20
532.6309742446871
 10
444.28143176447685
 20
535.5034412056324
 10
443.07298764744945
 20
538.3572788222423
 10
441.81986648017335
 20
541.1917829527879
 10
440.5223774515456
 20
544.0062542257889
 10
439.18084069756947
 20
546.7999982125721
 10
437.795587222365
 20
549.5723255986127
 10
436.3669588164992
 20
552.3225523536112
 10
434.89530797265434
 20
555.0499999002684
 10
433.3809977986551
 20
557.7539952817142
 10
431.824401927878
 20
560.4338713275484
 10
430.22590442706246
 20
563.0889668184567
 10
428.58589970154765
 20
565.718626649356
 10
426.9047923979597
 20
568.3222019910315
 10
425.18299730437104
 20
570.8990504502254
 10
423.4209392479571
 20
573.4485362281389
 10
421.6190529901771
 20
575.970030277305
 10
419.7777831195028
 20
578.4629104567971
 10
417.8975839417237
 20
580.9265616857323
 10
415.9789193678525
 20
583.3603760950347
 10
414.0222627996633
 20
585.7637531774164
 10
412.02809701288606
 20
588.1360999355454
 10
409.9969140380896
 20
590.4768310283566
 10
407.9292150392796
 20
592.7853689154783
 10
405.8255101902445
 20
595.0611439997303
 10
403.68631854867704
 20
597.3035947676638
 10
401.5121679281058
 20
599.5121679281059
 10
399.30359476766364
 20
601.6863185486771
 10
397.06114399973023
 20
603.8255101902445
 10
394.78536891547816
 20
605.9292150392798
 10
392.4768310283564
 20
607.9969140380898
 10
390.13609993554513
 20
610.0280970128862
 10
387.7637531774164
 20
612.0222627996633
 10
385.36037609503444
 20
613.9789193678527
 10
382.92656168573217
 20
615.8975839417237
 10
380.46291045679686
 20
617.777783119503
 10
377.9700302773049
 20
619.6190529901771
 10
375.44853622813883
 20
621.4209392479571
 10
372.8990504502252
 20
623.1829973043712
 10
370.32220199103125
 20
624.9047923979598
 10
367.71862664935605
 20
626.5858997015475
 10
365.08896681845675
 20
628.2259044270623
 10
362.43387132754816
 20
629.8244019278782
 10
359.75399528171397
 20
631.3809977986552
 10
357.04999990026835
 20
632.8953079726543
 10
354.32255235361106
 20
634.3669588164993
 10
351.57232559861257
 20
635.795587222365
 10
348.79999821257206
 20
637.1808406975695
 10
346.00625422578884
 20
638.5223774515457
 10
343.191782952788
 20
639.8198664801733
 10
340.3572788222421
 20
641.0729876474495
 10
337.50344120563227
 20
642.2814317644768
 10
334.630974244687
 20
643.444900665752
 10
331.74058667764734
 20
644.5631072827329
 10
328.83299166439593
 20
645.6357757146687
 10
325.9089066104948
 20
646.6626412966747
 10
322.9690529901771
 20
647.6434506650338
 10
320.01415616833356
 20
648.5779618197105
 10
317.04494522153976
 20
649.465944184061
 10
314.0621527581681
 20
650.3071786617236
 10
311.0665147376259
 20
651.1014576906789
 10
308.05877028877
 20
651.8485852944616
 10
305.03966152753793
 20
652.5483771305148
 10
302.00993337383983
 20
653.2006605356744
 10
298.9703333677634
 20
653.8052745687703
 10
295.92161148512747
 20
654.3620700503369
 10
292.8645199524375
 20
654.8709095994207
 10
289.799813061285
 20
655.3316676674768
 10
286.72824698223724
 20
655.7442305693464
 10
283.6505795782631
 20
656.108496511307
 10
280.5675702177429
 20
656.4243756161877
 10
277.4799795871037
 20
656.6917899455461
 10
274.3885695031334
 20
656.910673518898
 10
271.2941027250126
 20
657.0809723299967
 10
268.1973427661146
 20
657.2026443601588
 10
265.09905370562217
 20
657.2756595886317
 10
261.99999999999994
 20
657.3
 10
258.9009462943778
 20
657.2756595886317
 10
255.80265723388527
 20
657.2026443601588
 10
252.70589727498736
 20
657.0809723299967
 10
249.61143049686632
 20
656.910673518898
 10
246.52002041289626
 20
656.6917899455461
 10
243.43242978225703
 20
656.4243756161877
 10
240.34942042173668
 20
656.108496511307
 10
237.2717530177627
 20
655.7442305693464
 10
234.2001869387149
 20
655.3316676674768
 10
231.13548004756242
 20
654.8709095994207
 10
228.0783885148723
 20
654.3620700503369
 10
225.02966663223634
 20
653.8052745687703
 10
221.99006662616011
 20
653.2006605356744
 10
218.960338472462
 20
652.5483771305148
 10
215.94122971122974
 20
651.8485852944616
 10
212.93348526237406
 20
651.1014576906789
 10
209.93784724183183
 20
650.3071786617236
 10
206.95505477846
 20
649.4659441840608
 10
203.9858438316664
 20
648.5779618197105
 10
201.03094700982285
 20
647.6434506650338
 10
198.0910933895051
 20
646.6626412966747
 10
195.167008335604
 20
645.6357757146686
 10
192.25941332235243
 20
644.5631072827327
 10
189.36902575531292
 20
643.4449006657519
 10
186.49655879436767
 20
642.2814317644768
 10
183.64272117775766
 20
641.0729876474495
 10
180.80821704721194
 20
639.8198664801733
 10
177.9937457742111
 20
638.5223774515456
 10
175.20000178742788
 20
637.1808406975695
 10
172.42767440138738
 20
635.7955872223649
 10
169.67744764638886
 20
634.3669588164992
 10
166.95000009973143
 20
632.8953079726542
 10
164.24600471828586
 20
631.380997798655
 10
161.5661286724516
 20
629.8244019278781
 10
158.9110331815432
 20
628.2259044270623
 10
156.28137335064386
 20
626.5858997015475
 10
153.67779800896852
 20
624.9047923979597
 10
151.10094954977455
 20
623.182997304371
 10
148.5514637718611
 20
621.4209392479571
 10
146.0299697226949
 20
619.619052990177
 10
143.5370895432029
 20
617.7777831195028
 10
141.07343831426772
 20
615.8975839417237
 10
138.6396239049654
 20
613.9789193678525
 10
136.23624682258344
 20
612.0222627996632
 10
133.86390006445467
 20
610.0280970128861
 10
131.5231689716434
 20
607.9969140380896
 10
129.21463108452178
 20
605.9292150392798
 10
126.93885600026965
 20
603.8255101902445
 10
124.69640523233628
 20
601.686318548677
 10
122.48783207189413
 20
599.5121679281058
 10
120.31368145132288
 20
597.3035947676638
 10
118.1744898097555
 20
595.0611439997303
 10
116.0707849607202
 20
592.7853689154781
 10
114.00308596191036
 20
590.4768310283565
 10
111.97190298711394
 20
588.1360999355453
 10
109.97773720033678
 20
585.7637531774164
 10
108.02108063214743
 20
583.3603760950346
 10
106.1024160582763
 20
580.9265616857323
 10
104.22221688049706
 20
578.462910456797
 10
102.38094700982285
 20
575.9700302773049
 10
100.57906075204275
 20
573.4485362281387
 10
98.81700269562893
 20
570.8990504502253
 10
97.09520760204029
 20
568.3222019910314
 10
95.41410029845238
 20
565.718626649356
 10
93.77409557293748
 20
563.0889668184566
 10
92.17559807212191
 20
560.4338713275482
 10
90.61900220134487
 20
557.753995281714
 10
89.10469202734572
 20
555.0499999002684
 10
87.63304118350078
 20
552.3225523536112
 10
86.20441277763501
 20
549.5723255986126
 10
84.81915930243053
 20
546.7999982125721
 10
83.47762254845438
 20
544.0062542257889
 10
82.18013351982665
 20
541.191782952788
 10
80.92701235255049
 20
538.3572788222422
 10
79.7185682355231
 20
535.5034412056322
 10
78.55509933424801
 20
532.6309742446871
 10
77.43689271726717
 20
529.7405866776475
 10
76.36422428533129
 20
526.8329916643959
 10
75.3373587033253
 20
523.9089066104948
 10
74.35654933496619
 20
520.9690529901771
 10
73.42203818028946
 20
518.0141561683336
 10
72.5340558159391
 20
515.0449452215398
 10
71.69282133827642
 20
512.062152758168
 10
70.89854230932107
 20
509.0665147376259
 10
70.15141470553837
 20
506.0587702887701
 10
69.4516228694851
 20
503.03966152753776
 10
68.79933946432558
 20
500.0099333738399
 10
68.19472543122973
 20
496.9703333677635
 10
67.63792994966309
 20
493.92161148512747
 10
67.12909040057932
 20
490.86451995243743
 10
66.66833233252316
 20
487.79981306128496
 10
66.25576943065352
 20
484.72824698223724
 10
65.89150348869302
 20
481.65057957826326
 10
65.57562438381231
 20
478.56757021774285
 10
65.30821005445381
 20
475.4799795871037
 10
65.089326481102
 20
472.3885695031335
 10
64.91902767000332
 20
469.2941027250125
 10
64.79735563984116
 20
466.1973427661147
 10
64.72434041136836
 20
463.0990537056221
 10
64.69999999999999
 20
460.0
 10
64.72434041136836
 20
456.90094629437766
 10
64.79735563984116
 20
453.8026572338852
 10
64.91902767000332
 20
450.70589727498736
 10
65.089326481102
 20
447.61143049686643
 10
65.30821005445384
 20
444.52002041289614
 10
65.57562438381231
 20
441.43242978225703
 10
65.89150348869302
 20
438.3494204217368
 10
66.25576943065352
 20
435.2717530177627
 10
66.66833233252319
 20
432.2001869387149
 10
67.12909040057932
 20
429.13548004756234
 10
67.63792994966312
 20
426.0783885148725
 10
68.19472543122973
 20
423.02966663223646
 10
68.79933946432561
 20
419.99006662616
 10
69.45162286948513
 20
416.9603384724621
 10
70.1514147055384
 20
413.9412297112298
 10
70.8985423093211
 20
410.93348526237406
 10
71.69282133827645
 20
407.93784724183183
 10
72.53405581593915
 20
404.95505477846
 10
73.42203818028946
 20
401.9858438316664
 10
74.35654933496622
 20
399.03094700982274
 10
75.3373587033253
 20
396.0910933895051
 10
76.36422428533132
 20
393.16700833560395
 10
77.43689271726717
 20
390.2594133223525
 10
78.55509933424804
 20
387.3690257553129
 10
79.71856823552312
 20
384.49655879436773
 10
80.92701235255055
 20
381.6427211777577
 10
82.18013351982668
 20
378.808217047212
 10
83.4776225484544
 20
375.993745774211
 10
84.81915930243053
 20
373.20000178742794
 10
86.20441277763507
 20
370.4276744013873
 10
87.63304118350081
 20
367.67744764638877
 10
89.10469202734569
 20
364.9500000997316
 10
90.6190022013449
 20
362.2460047182859
 10
92.17559807212194
 20
359.5661286724517
 10
93.7740955729376
 20
356.9110331815433
 10
95.41410029845241
 20
354.28137335064395
 10
97.09520760204032
 20
351.6777980089686
 10
98.81700269562893
 20
349.10094954977467
 10
100.57906075204289
 20
346.5514637718611
 10
102.38094700982288
 20
344.029969722695
 10
104.22221688049709
 20
341.537089543203
 10
106.10241605827628
 20
339.0734383142677
 10
108.02108063214757
 20
336.63962390496533
 10
109.9777372003368
 20
334.2362468225835
 10
111.97190298711396
 20
331.8639000644547
 10
114.0030859619103
 20
329.5231689716435
 10
116.07078496072035
 20
327.21463108452167
 10
118.17448980975553
 20
324.93885600026965
 10
120.31368145132294
 20
322.6964052323363
 10
122.48783207189419
 20
320.48783207189416
 10
124.69640523233645
 20
318.31368145132274
 10
126.93885600026977
 20
316.1744898097554
 10
129.21463108452176
 20
314.0707849607203
 10
131.5231689716435
 20
312.0030859619103
 10
133.86390006445484
 20
309.9719029871138
 10
136.23624682258355
 20
307.9777372003367
 10
138.63962390496536
 20
306.0210806321476
 10
141.07343831426778
 20
304.1024160582763
 10
143.53708954320308
 20
302.222216880497
 10
146.02996972269506
 20
300.3809470098229
 10
148.55146377186114
 20
298.5790607520429
 10
151.10094954977467
 20
296.8170026956289
 10
153.67779800896864
 20
295.0952076020402
 10
156.281373350644
 20
293.41410029845235
 10
158.9110331815433
 20
291.77409557293754
 10
161.56612867245184
 20
290.17559807212183
 10
164.24600471828603
 20
288.6190022013448
 10
166.9500000997316
 20
287.10469202734566
 10
169.67744764638888
 20
285.6330411835008
 10
172.4276744013875
 20
284.20441277763496
 10
175.20000178742794
 20
282.81915930243053
 10
177.99374577421122
 20
281.4776225484543
 10
180.80821704721208
 20
280.18013351982665
 10
183.6427211777579
 20
278.9270123525505
 10
186.4965587943678
 20
277.7185682355231
 10
189.36902575531315
 20
276.5550993342479
 10
192.25941332235254
 20
275.43689271726714
 10
195.16700833560412
 20
274.36422428533126
 10
198.09109338950512
 20
273.3373587033253
 10
201.03094700982302
 20
272.3565493349662
 10
203.98584383166641
 20
271.42203818028946
 10
206.95505477846007
 20
270.53405581593915
 10
209.93784724183195
 20
269.6928213382764
 10
212.93348526237412
 20
268.8985423093211
 10
215.94122971122988
 20
268.1514147055384
 10
218.9603384724621
 20
267.45162286948516
 10
221.99006662616011
 20
266.7993394643256
 10
225.02966663223648
 20
266.1947254312297
 10
228.07838851487253
 20
265.6379299496631
 10
231.13548004756242
 20
265.12909040057934
 10
234.20018693871498
 20
264.66833233252316
 10
237.27175301776276
 20
264.2557694306535
 10
240.3494204217368
 20
263.89150348869305
 10
243.4324297822571
 20
263.5756243838123
 10
246.52002041289626
 20
263.30821005445387
 10
249.6114304968665
 20
263.08932648110203
 10
252.7058972749876
 20
262.9190276700033
 10
255.80265723388527
 20
262.79735563984116
 10
258.90094629437783
 20
262.72434041136836
 10
262.0
 20
262.7
 10
265.0990537056223
 20
262.72434041136836
 10
268.19734276611473
 20
262.79735563984116
 10
271.2941027250126
 20
262.9190276700033
 10
274.38856950313357
 20
263.08932648110203
 10
277.4799795871039
 20
263.30821005445387
 10
280.5675702177429
 20
263.5756243838123
 10
283.6505795782633
 20
263.89150348869305
 10
286.7282469822373
 20
264.2557694306535
 10
289.799813061285
 20
264.66833233252316
 10
292.8645199524376
 20
265.12909040057934
 10
295.9216114851275
 20
265.6379299496631
 10
298.97033336776354
 20
266.1947254312297
 10
302.0099333738399
 20
266.7993394643256
 10
305.03966152753793
 20
267.45162286948516
 10
308.0587702887702
 20
268.1514147055384
 10
311.06651473762594
 20
268.8985423093211
 10
314.0621527581681
 20
269.6928213382764
 10
317.04494522154005
 20
270.53405581593915
 10
320.01415616833356
 20
271.42203818028946
 10
322.9690529901772
 20
272.3565493349662
 10
325.9089066104949
 20
273.3373587033253
 10
328.83299166439605
 20
274.3642242853313
 10
331.74058667764746
 20
275.43689271726714
 10
334.630974244687
 20
276.555099334248
 10
337.5034412056322
 20
277.7185682355231
 10
340.3572788222423
 20
278.9270123525505
 10
343.191782952788
 20
280.18013351982665
 10
346.0062542257889
 20
281.4776225484544
 10
348.79999821257206
 20
282.81915930243053
 10
351.5723255986127
 20
284.20441277763507
 10
354.3225523536112
 20
285.6330411835008
 10
357.0499999002685
 20
287.1046920273458
 10
359.753995281714
 20
288.61900220134487
 10
362.4338713275482
 20
290.1755980721219
 10
365.08896681845675
 20
291.77409557293765
 10
367.718626649356
 20
293.41410029845235
 10
370.3222019910314
 20
295.0952076020403
 10
372.89905045022533
 20
296.81700269562896
 10
375.44853622813895
 20
298.5790607520429
 10
377.97003027730494
 20
300.3809470098229
 10
380.462910456797
 20
302.22221688049706
 10
382.9265616857323
 20
304.1024160582763
 10
385.36037609503467
 20
306.0210806321476
 10
387.76375317741645
 20
307.9777372003368
 10
390.1360999355453
 20
309.97190298711394
 10
392.4768310283565
 20
312.0030859619103
 10
394.78536891547833
 20
314.07078496072035
 10
397.06114399973023
 20
316.1744898097555
 10
399.30359476766364
 20
318.31368145132285
 10
401.51216792810584
 20
320.4878320718942
 10
403.68631854867726
 20
322.6964052323364
 10
405.8255101902445
 20
324.93885600026977
 10
407.92921503927977
 20
327.2146310845218
 10
409.9969140380897
 20
329.5231689716435
 10
412.0280970128862
 20
331.8639000644548
 10
414.0222627996633
 20
334.23624682258355
 10
415.97891936785254
 20
336.63962390496545
 10
417.8975839417237
 20
339.0734383142677
 10
419.77778311950294
 20
341.537089543203
 10
421.6190529901771
 20
344.0299697226951
 10
423.4209392479571
 20
346.5514637718611
 10
425.18299730437104
 20
349.10094954977467
 10
426.9047923979597
 20
351.6777980089686
 10
428.58589970154765
 20
354.281373350644
 10
430.2259044270624
 20
356.9110331815433
 10
431.8244019278781
 20
359.5661286724518
 10
433.38099779865513
 20
362.246004718286
 10
434.89530797265434
 20
364.9500000997316
 10
436.3669588164992
 20
367.6774476463888
 10
437.79558722236504
 20
370.42767440138743
 10
439.18084069756947
 20
373.20000178742794
 10
440.5223774515457
 20
375.9937457742112
 10
441.81986648017335
 20
378.808217047212
 10
443.0729876474495
 20
381.64272117775783
 10
444.2814317644769
 20
384.4965587943678
 10
445.444900665752
 20
387.3690257553131
 10
446.56310728273286
 20
390.25941332235254
 10
447.63577571466874
 20
393.16700833560407
 10
448.6626412966747
 20
396.09109338950515
 10
449.6434506650338
 20
399.03094700982297
 10
450.57796181971054
 20
401.98584383166644
 10
451.4659441840609
 20
404.9550547784602
 10
452.3071786617236
 20
407.93784724183195
 10
453.1014576906789
 20
410.9334852623741
 10
453.8485852944616
 20
413.9412297112299
 10
454.54837713051484
 20
416.9603384724621
 10
455.2006605356744
 20
419.9900666261601
 10
455.8052745687703
 20
423.0296666322365
 10
456.3620700503369
 20
426.07838851487253
 10
456.87090959942066
 20
429.1354800475624
 10
457.33166766747684
 20
432.200186938715
 10
457.7442305693465
 20
435.27175301776276
 10
458.10849651130695
 20
438.3494204217368
 10
458.4243756161877
 20
441.4324297822571
 10
458.69178994554613
 20
444.52002041289626
 10
458.91067351889797
 20
447.61143049686643
 10
459.0809723299967
 20
450.7058972749876
 10
459.20264436015884
 20
453.80265723388527
 10
459.27565958863164
 20
456.90094629437783
 10
459.3
 20
460.0
  0
ENDSEC
  0
SECTION
  2
OBJECTS
  0
DICTIONARY
  5
A
330
0
100
AcDbDictionary
281
1
  3
ACAD_COLOR
350
B
  3
ACAD_GROUP
350
C
  3
ACAD_LAYOUT
350
D
  3
ACAD_MATERIAL
350
E
  3
ACAD_MLEADERSTYLE
350
F
  3
ACAD_MLINESTYLE
350
10
  3
ACAD_PLOTSETTINGS
350
11
  3
ACAD_PLOTSTYLENAME
350
12
  3
ACAD_SCALELIST
350
14
  3
ACAD_TABLESTYLE
350
15
  3
ACAD_VISUALSTYLE
350
16
  3
EZDXF_META
350
2D
  0
DICTIONARY
  5
B
330
A
100
AcDbDictionary
281
1
  0
DICTIONARY
  5
C
330
A
100
AcDbDictionary
281
1
  0
DICTIONARY
  5
D
330
A
100
AcDbDictionary
281
1
  3
Model
350
1A
  3
Layout1
350
1E
  0
DICTIONARY
  5
E
330
A
100
AcDbDictionary
281
1
  3
ByBlock
350
1F
  3
ByLayer
350
20
  3
Global
350
21
  0
DICTIONARY
  5
F
330
A
100
AcDbDictionary
281
1
  3
Standard
350
2C
  0
DICTIONARY
  5
10
330
A
100
AcDbDictionary
281
1
  3
Standard
350
22
  0
DICTIONARY
  5
11
330
A
100
AcDbDictionary
281
1
  0
ACDBDICTIONARYWDFLT
  5
12
330
A
100
AcDbDictionary
281
1
  3
Normal
350
13
100
AcDbDictionaryWithDefault
340
13
  0
ACDBPLACEHOLDER
  5
13
330
12
  0
DICTIONARY
  5
14
330
A
100
AcDbDictionary
281
1
  0
DICTIONARY
  5
15
330
A
100
AcDbDictionary
281
1
  0
DICTIONARY
  5
16
330
A
100
AcDbDictionary
281
1
  0
LAYOUT
  5
1A
330
D
100
AcDbPlotSettings
  1

  4
A3
  6

 40
7.5
 41
20.0
 42
7.5
 43
20.0
 44
420.0
 45
297.0
 46
0.0
 47
0.0
 48
0.0
 49
0.0
140
0.0
141
0.0
142
1.0
143
1.0
 70
1024
 72
1
 73
0
 74
5
  7

 75
16
 76
0
 77
2
 78
300
147
1.0
148
0.0
149
0.0
100
AcDbLayout
  1
Model
 70
1
 71
0
 10
0.0
 20
0.0
 11
420.0
 21
297.0
 12
0.0
 22
0.0
 32
0.0
 14
1e+20
 24
1e+20
 34
1e+20
 15
-1e+20
 25
-1e+20
 35
-1e+20
146
0.0
 13
0.0
 23
0.0
 33
0.0
 16
1.0
 26
0.0
 36
0.0
 17
0.0
 27
1.0
 37
0.0
 76
1
330
17
  0
LAYOUT
  5
1E
330
D
100
AcDbPlotSettings
  1

  4
A3
  6

 40
7.5
 41
20.0
 42
7.5
 43
20.0
 44
420.0
 45
297.0
 46
0.0
 47
0.0
 48
0.0
 49
0.0
140
0.0
141
0.0
142
1.0
143
1.0
 70
0
 72
1
 73
0
 74
5
  7

 75
16
 76
0
 77
2
 78
300
147
1.0
148
0.0
149
0.0
100
AcDbLayout
  1
Layout1
 70
1
 71
1
 10
0.0
 20
0.0
 11
420.0
 21
297.0
 12
0.0
 22
0.0
 32
0.0
 14
1e+20
 24
1e+20
 34
1e+20
 15
-1e+20
 25
-1e+20
 35
-1e+20
146
0.0
 13
0.0
 23
0.0
 33
0.0
 16
1.0
 26
0.0
 36
0.0
 17
0.0
 27
1.0
 37
0.0
 76
1
330
1B
  0
MATERIAL
  5
1F
102
{ACAD_REACTORS
330
E
102
}
330
E
100
AcDbMaterial
  1
ByBlock
  2

 70
0
 40
1.0
 71
1
 41
1.0
 91
-1023410177
 42
1.0
 72
1
  3

 73
1
 74
1
 75
1
 44
0.5
 73
0
 45
1.0
 46
1.0
 77
1
  4

 78
1
 79
1
170
1
 48
1.0
171
1
  6

172
1
173
1
174
1
140
1.0
141
1.0
175
1
  7

176
1
177
1
178
1
143
1.0
179
1
  8

270
1
271
1
272
1
145
1.0
146
1.0
273
1
  9

274
1
275
1
276
1
 42
1.0
 72
1
  3

 73
1
 74
1
 75
1
 94
63
  0
MATERIAL
  5
20
102
{ACAD_REACTORS
330
E
102
}
330
E
100
AcDbMaterial
  1
ByLayer
  2

 70
0
 40
1.0
 71
1
 41
1.0
 91
-1023410177
 42
1.0
 72
1
  3

 73
1
 74
1
 75
1
 44
0.5
 73
0
 45
1.0
 46
1.0
 77
1
  4

 78
1
 79
1
170
1
 48
1.0
171
1
  6

172
1
173
1
174
1
140
1.0
141
1.0
175
1
  7

176
1
177
1
178
1
143
1.0
179
1
  8

270
1
271
1
272
1
145
1.0
146
1.0
273
1
  9

274
1
275
1
276
1
 42
1.0
 72
1
  3

 73
1
 74
1
 75
1
 94
63
  0
MATERIAL
  5
21
102
{ACAD_REACTORS
330
E
102
}
330
E
100
AcDbMaterial
  1
Global
  2

 70
0
 40
1.0
 71
1
 41
1.0
 91
-1023410177
 42
1.0
 72
1
  3

 73
1
 74
1
 75
1
 44
0.5
 73
0
 45
1.0
 46
1.0
 77
1
  4

 78
1
 79
1
170
1
 48
1.0
171
1
  6

172
1
173
1
174
1
140
1.0
141
1.0
175
1
  7

176
1
177
1
178
1
143
1.0
179
1
  8

270
1
271
1
272
1
145
1.0
146
1.0
273
1
  9

274
1
275
1
276
1
 42
1.0
 72
1
  3

 73
1
 74
1
 75
1
 94
63
  0
MLINESTYLE
  5
22
102
{ACAD_REACTORS
330
10
102
}
330
10
100
AcDbMlineStyle
  2
Standard
 70
0
  3

 62
256
 51
90.0
 52
90.0
 71
2
 49
0.5
 62
256
  6
BYLAYER
 49
-0.5
 62
256
  6
BYLAYER
  0
MLEADERSTYLE
  5
2C
102
{ACAD_REACTORS
330
F
102
}
330
F
100
AcDbMLeaderStyle
179
2
170
2
171
1
172
0
 90
2
 40
0.0
 41
0.0
173
1
 91
-1056964608
 92
-2
290
1
 42
2.0
291
1
 43
8.0
  3
Standard
 44
4.0
300

342
29
174
1
175
1
176
0
178
1
 93
-1056964608
 45
4.0
292
0
297
0
 46
4.0
 94
-1056964608
 47
1.0
 49
1.0
140
1.0
294
1
141
0.0
177
0
142
1.0
295
0
296
0
143
3.75
271
0
272
9
273
9
  0
DICTIONARY
  5
2D
330
A
100
AcDbDictionary
280
1
281
1
  3
CREATED_BY_EZDXF
350
2E
  3
WRITTEN_BY_EZDXF
350
42
  0
DICTIONARYVAR
  5
2E
330
2D
100
DictionaryVariables
280
0
  1
1.4.4 @ 2026-10-10T19:23:09.613139+00:00
  0
DICTIONARYVAR
  5
42
330
2D
100
DictionaryVariables
280
0
  1
1.4.4 @ 2026-10-10T19:23:09.616639+00:00
  0
ENDSEC
  0
EOF
