  0
SECTION
  2
HEADER
  9
$ACADVER
  1
AC1024
  9
$ACADMAINTVER
 70
6
  9
$DWGCODEPAGE
  3
ANSI_1252
  9
$LASTSAVEDBY
  1
ezdxf
  9
$INSBASE
 10
0.0
 20
0.0
 30
0.0
  9
$EXTMIN
 10
1e+20
 20
1e+20
 30
1e+20
  9
$EXTMAX
 10
-1e+20
 20
-1e+20
 30
-1e+20
  9
$LIMMIN
 10
0.0
 20
0.0
  9
$LIMMAX
 10
420.0
 20
297.0
  9
$ORTHOMODE
 70
0
  9
$REGENMODE
 70
1
  9
$FILLMODE
 70
1
  9
$QTEXTMODE
 70
0
  9
$MIRRTEXT
 70
1
  9
$LTSCALE
 40
1.0
  9
$ATTMODE
 70
1
  9
$TEXTSIZE
 40
2.5
  9
$TRACEWID
 40
1.0
  9
$TEXTSTYLE
  7
Standard
  9
$CLAYER
  8
0
  9
$CELTYPE
  6
ByLayer
  9
$CECOLOR
 62
256
  9
$CELTSCALE
 40
1.0
  9
$DISPSILH
 70
0
  9
$DIMSCALE
 40
1.0
  9
$DIMASZ
 40
2.5
  9
$DIMEXO
 40
0.625
  9
$DIMDLI
 40
3.75
  9
$DIMRND
 40
0.0
  9
$DIMDLE
 40
0.0
  9
$DIMEXE
 40
1.25
  9
$DIMTP
 40
0.0
  9
$DIMTM
 40
0.0
  9
$DIMTXT
 40
2.5
  9
$DIMCEN
 40
2.5
  9
$DIMTSZ
 40
0.0
  9
$DIMTOL
 70
0
  9
$DIMLIM
 70
0
  9
$DIMTIH
 70
0
  9
$DIMTOH
 70
0
  9
$DIMSE1
 70
0
  9
$DIMSE2
 70
0
  9
$DIMTAD
 70
1
  9
$DIMZIN
 70
8
  9
$DIMBLK
  1

  9
$DIMASO
 70
1
  9
$DIMSHO
 70
1
  9
$DIMPOST
  1

  9
$DIMAPOST
  1

  9
$DIMALT
 70
0
  9
$DIMALTD
 70
3
  9
$DIMALTF
 40
0.03937007874
  9
$DIMLFAC
 40
1.0
  9
$DIMTOFL
 70
1
  9
$DIMTVP
 40
0.0
  9
$DIMTIX
 70
0
  9
$DIMSOXD
 70
0
  9
$DIMSAH
 70
0
  9
$DIMBLK1
  1

  9
$DIMBLK2
  1

  9
$DIMSTYLE
  2
ISO-25
  9
$DIMCLRD
 70
0
  9
$DIMCLRE
 70
0
  9
$DIMCLRT
 70
0
  9
$DIMTFAC
 40
1.0
  9
$DIMGAP
 40
0.625
  9
$DIMJUST
 70
0
  9
$DIMSD1
 70
0
  9
$DIMSD2
 70
0
  9
$DIMTOLJ
 70
0
  9
$DIMTZIN
 70
8
  9
$DIMALTZ
 70
0
  9
$DIMALTTZ
 70
0
  9
$DIMUPT
 70
0
  9
$DIMDEC
 70
2
  9
$DIMTDEC
 70
2
  9
$DIMALTU
 70
2
  9
$DIMALTTD
 70
3
  9
$DIMTXSTY
  7
Standard
  9
$DIMAUNIT
 70
0
  9
$DIMADEC
 70
0
  9
$DIMALTRND
 40
0.0
  9
$DIMAZIN
 70
0
  9
$DIMDSEP
 70
44
  9
$DIMATFIT
 70
3
  9
$DIMFRAC
 70
0
  9
$DIMLDRBLK
  1

  9
$DIMLUNIT
 70
2
  9
$DIMLWD
 70
-2
  9
$DIMLWE
 70
-2
  9
$DIMTMOVE
 70
0
  9
$DIMFXL
 40
1.0
  9
$DIMFXLON
 70
0
  9
$DIMJOGANG
 40
0.785398163397
  9
$DIMTFILL
 70
0
  9
$DIMTFILLCLR
 70
0
  9
$DIMARCSYM
 70
0
  9
$DIMLTYPE
  6

  9
$DIMLTEX1
  6

  9
$DIMLTEX2
  6

  9
$DIMTXTDIRECTION
 70
0
  9
$LUNITS
 70
2
  9
$LUPREC
 70
4
  9
$SKETCHINC
 40
1.0
  9
$FILLETRAD
 40
10.0
  9
$AUNITS
 70
0
  9
$AUPREC
 70
2
  9
$MENU
  1
.
  9
$ELEVATION
 40
0.0
  9
$PELEVATION
 40
0.0
  9
$THICKNESS
 40
0.0
  9
$LIMCHECK
 70
0
  9
$CHAMFERA
 40
0.0
  9
$CHAMFERB
 40
0.0
  9
$CHAMFERC
 40
0.0
  9
$CHAMFERD
 40
0.0
  9
$SKPOLY
 70
0
  9
$TDCREATE
 40
2461325.0267592594
  9
$TDUCREATE
 40
2458532.153996898
  9
$TDUPDATE
 40
2461325.0267592594
  9
$TDUUPDATE
 40
2458532.1544311
  9
$TDINDWG
 40
0.0
  9
$TDUSRTIMER
 40
0.0
  9
$USRTIMER
 70
1
  9
$ANGBASE
 50
0.0
  9
$ANGDIR
 70
0
  9
$PDMODE
 70
0
  9
$PDSIZE
 40
0.0
  9
$PLINEWID
 40
0.0
  9
$SPLFRAME
 70
0
  9
$SPLINETYPE
 70
6
  9
$SPLINESEGS
 70
8
  9
$HANDSEED
  5
B3
  9
$SURFTAB1
 70
6
  9
$SURFTAB2
 70
6
  9
$SURFTYPE
 70
6
  9
$SURFU
 70
6
  9
$SURFV
 70
6
  9
$UCSBASE
  2

  9
$UCSNAME
  2

  9
$UCSORG
 10
0.0
 20
0.0
 30
0.0
  9
$UCSXDIR
 10
1.0
 20
0.0
 30
0.0
  9
$UCSYDIR
 10
0.0
 20
1.0
 30
0.0
  9
$UCSORTHOREF
  2

  9
$UCSORTHOVIEW
 70
0
  9
$UCSORGTOP
 10
0.0
 20
0.0
 30
0.0
  9
$UCSORGBOTTOM
 10
0.0
 20
0.0
 30
0.0
  9
$UCSORGLEFT
 10
0.0
 20
0.0
 30
0.0
  9
$UCSORGRIGHT
 10
0.0
 20
0.0
 30
0.0
  9
$UCSORGFRONT
 10
0.0
 20
0.0
 30
0.0
  9
$UCSORGBACK
 10
0.0
 20
0.0
 30
0.0
  9
$PUCSBASE
  2

  9
$PUCSNAME
  2

  9
$PUCSORG
 10
0.0
 20
0.0
 30
0.0
  9
$PUCSXDIR
 10
1.0
 20
0.0
 30
0.0
  9
$PUCSYDIR
 10
0.0
 20
1.0
 30
0.0
  9
$PUCSORTHOREF
  2

  9
$PUCSORTHOVIEW
 70
0
  9
$PUCSORGTOP
 10
0.0
 20
0.0
 30
0.0
  9
$PUCSORGBOTTOM
 10
0.0
 20
0.0
 30
0.0
  9
$PUCSORGLEFT
 10
0.0
 20
0.0
 30
0.0
  9
$PUCSORGRIGHT
 10
0.0
 20
0.0
 30
0.0
  9
$PUCSORGFRONT
 10
0.0
 20
0.0
 30
0.0
  9
$PUCSORGBACK
 10
0.0
 20
0.0
 30
0.0
  9
$USERI1
 70
0
  9
$USERI2
 70
0
  9
$USERI3
 70
0
  9
$USERI4
 70
0
  9
$USERI5
 70
0
  9
$USERR1
 40
0.0
  9
$USERR2
 40
0.0
  9
$USERR3
 40
0.0
  9
$USERR4
 40
0.0
  9
$USERR5
 40
0.0
  9
$WORLDVIEW
 70
1
  9
$SHADEDGE
 70
3
  9
$SHADEDIF
 70
70
  9
$TILEMODE
 70
1
  9
$MAXACTVP
 70
64
  9
$PINSBASE
 10
0.0
 20
0.0
 30
0.0
  9
$PLIMCHECK
 70
0
  9
$PEXTMIN
 10
1e+20
 20
1e+20
 30
1e+20
  9
$PEXTMAX
 10
-1e+20
 20
-1e+20
 30
-1e+20
  9
$PLIMMIN
 10
0.0
 20
0.0
  9
$PLIMMAX
 10
420.0
 20
297.0
  9
$UNITMODE
 70
0
  9
$VISRETAIN
 70
1
  9
$PLINEGEN
 70
0
  9
$PSLTSCALE
 70
1
  9
$TREEDEPTH
 70
3020
  9
$CMLSTYLE
  2
Standard
  9
$CMLJUST
 70
0
  9
$CMLSCALE
 40
20.0
  9
$PROXYGRAPHICS
 70
1
  9
$MEASUREMENT
 70
1
  9
$CELWEIGHT
370
-1
  9
$ENDCAPS
280
0
  9
$JOINSTYLE
280
0
  9
$LWDISPLAY
290
0
  9
$INSUNITS
 70
4
  9
$HYPERLINKBASE
  1

  9
$STYLESHEET
  1

  9
$XEDIT
290
1
  9
$CEPSNTYPE
380
0
  9
$PSTYLEMODE
290
1
  9
$FINGERPRINTGUID
  2
{50A12096-E818-4FF4-A402-B98F524459EB}
  9
$VERSIONGUID
  2
{E376A830-BB91-4CBC-B7DC-4BD960B8685A}
  9
$EXTNAMES
290
1
  9
$PSVPSCALE
 40
0.0
  9
$OLESTARTUP
290
0
  9
$SORTENTS
280
127
  9
$INDEXCTL
280
0
  9
$HIDETEXT
280
1
  9
$XCLIPFRAME
280
1
  9
$HALOGAP
280
0
  9
$OBSCOLOR
 70
257
  9
$OBSLTYPE
280
0
  9
$INTERSECTIONDISPLAY
280
0
  9
$INTERSECTIONCOLOR
 70
257
  9
$DIMASSOC
280
2
  9
$PROJECTNAME
  1

  9
$CAMERADISPLAY
290
0
  9
$LENSLENGTH
 40
50.0
  9
$CAMERAHEIGHT
 40
0.0
  9
$STEPSPERSEC
 40
24.0
  9
$STEPSIZE
 40
100.0
  9
$3DDWFPREC
 40
2.0
  9
$PSOLWIDTH
 40
0.005
  9
$PSOLHEIGHT
 40
0.08
  9
$LOFTANG1
 40
1.570796326795
  9
$LOFTANG2
 40
1.570796326795
  9
$LOFTMAG1
 40
0.0
  9
$LOFTMAG2
 40
0.0
  9
$LOFTPARAM
 70
7
  9
$LOFTNORMALS
280
1
  9
$LATITUDE
 40
37.795
  9
$LONGITUDE
 40
-122.394
  9
$NORTHDIRECTION
 40
0.0
  9
$TIMEZONE
 70
-8000
  9
$LIGHTGLYPHDISPLAY
280
1
  9
$TILEMODELIGHTSYNCH
280
1
  9
$CMATERIAL
347
20
  9
$SOLIDHIST
280
0
  9
$SHOWHIST
280
1
  9
$DWFFRAME
280
2
  9
$DGNFRAME
280
2
  9
$REALWORLDSCALE
290
1
  9
$INTERFERECOLOR
 62
256
  9
$CSHADOW
280
0
  9
$SHADOWPLANELOCATION
 40
0.0
  0
ENDSEC
  0
SECTION
  2
CLASSES
  0
CLASS
  1
ACDBDICTIONARYWDFLT
  2
AcDbDictionaryWithDefault
  3
ObjectDBX Classes
 90
0
 91
0
280
0
281
0
  0
CLASS
  1
SUN
  2
AcDbSun
  3
SCENEOE
 90
1153
 91
0
280
0
281
0
  0
CLASS
  1
VISUALSTYLE
  2
AcDbVisualStyle
  3
ObjectDBX Classes
 90
4095
 91
0
280
0
281
0
  0
CLASS
  1
MATERIAL
  2
AcDbMaterial
  3
ObjectDBX Classes
 90
1153
 91
0
280
0
281
0
  0
CLASS
  1
SCALE
  2
AcDbScale
  3
ObjectDBX Classes
 90
1153
 91
0
280
0
281
0
  0
CLASS
  1
TABLESTYLE
  2
AcDbTableStyle
  3
ObjectDBX Classes
 90
4095
 91
0
280
0
281
0
  0
CLASS
  1
MLEADERSTYLE
  2
AcDbMLeaderStyle
  3
ACDB_MLEADERSTYLE_CLASS
 90
4095
 91
0
280
0
281
0
  0
CLASS
  1
DICTIONARYVAR
  2
AcDbDictionaryVar
  3
ObjectDBX Classes
 90
0
 91
0
280
0
281
0
  0
CLASS
  1
CELLSTYLEMAP
  2
AcDbCellStyleMap
  3
ObjectDBX Classes
 90
1152
 91
0
280
0
281
0
  0
CLASS
  1
MENTALRAYRENDERSETTINGS
  2
AcDbMentalRayRenderSettings
  3
SCENEOE
 90
1024
 91
0
280
0
281
0
  0
CLASS
  1
ACDBDETAILVIEWSTYLE
  2
AcDbDetailViewStyle
  3
ObjectDBX Classes
 90
1025
 91
0
280
0
281
0
  0
CLASS
  1
ACDBSECTIONVIEWSTYLE
  2
AcDbSectionViewStyle
  3
ObjectDBX Classes
 90
1025
 91
0
280
0
281
0
  0
CLASS
  1
RASTERVARIABLES
  2
AcDbRasterVariables
  3
ISM
 90
0
 91
0
280
0
281
0
  0
CLASS
  1
LAYOUT
  2
AcDbLayout
  3
ObjectDBX Classes
 90
0
 91
0
280
0
281
0
  0
CLASS
  1
ACDBPLACEHOLDER
  2
AcDbPlaceHolder
  3
ObjectDBX Classes
 90
0
 91
0
280
0
281
0
  0
ENDSEC
  0
SECTION
  2
TABLES
  0
TABLE
  2
VPORT
  5
8
330
0
100
AcDbSymbolTable
 70
1
  0
VPORT
  5
23
330
8
100
AcDbSymbolTableRecord
100
AcDbViewportTableRecord
  2
*Active
 70
0
 10
0.0
 20
0.0
 11
1.0
 21
1.0
 12
0.0
 22
0.0
 13
0.0
 23
0.0
 14
0.5
 24
0.5
 15
0.5
 25
0.5
 16
0.0
 26
0.0
 36
1.0
 17
0.0
 27
0.0
 37
0.0
 40
1000.0
 41
1.34
 42
50.0
 43
0.0
 44
0.0
 50
0.0
 51
0.0
 71
0
 72
1000
 73
1
 74
3
 75
0
 76
0
 77
0
 78
0
281
0
 65
0
146
0.0
  0
ENDTAB
  0
TABLE
  2
LTYPE
  5
2
330
0
100
AcDbSymbolTable
 70
3
  0
LTYPE
  5
24
330
2
100
AcDbSymbolTableRecord
100
AcDbLinetypeTableRecord
  2
ByBlock
 70
0
  3

 72
65
 73
0
 40
0.0
  0
LTYPE
  5
25
330
2
100
AcDbSymbolTableRecord
100
AcDbLinetypeTableRecord
  2
ByLayer
 70
0
  3

 72
65
 73
0
 40
0.0
  0
LTYPE
  5
26
330
2
100
AcDbSymbolTableRecord
100
AcDbLinetypeTableRecord
  2
Continuous
 70
0
  3

 72
65
 73
0
 40
0.0
  0
ENDTAB
  0
TABLE
  2
LAYER
  5
1
330
0
100
AcDbSymbolTable
 70
5
  0
LAYER
  5
27
330
1
100
AcDbSymbolTableRecord
100
AcDbLayerTableRecord
  2
0
 70
0
 62
7
  6
Continuous
370
-3
390
13
347
21
  0
LAYER
  5
28
330
1
100
AcDbSymbolTableRecord
100
AcDbLayerTableRecord
  2
Defpoints
 70
0
 62
7
  6
Continuous
290
0
370
-3
390
13
347
21
  0
LAYER
  5
2F
330
1
100
AcDbSymbolTableRecord
100
AcDbLayerTableRecord
  2
CUT_OUTSIDE
 70
0
 62
1
  6
Continuous
370
-3
390
13
347
21
  0
LAYER
  5
31
330
1
100
AcDbSymbolTableRecord
100
AcDbLayerTableRecord
  2
CUT_INSIDE
 70
0
 62
5
  6
Continuous
370
-3
390
13
347
21
  0
LAYER
  5
AE
330
1
100
AcDbSymbolTableRecord
100
AcDbLayerTableRecord
  2
NOTES
 70
0
 62
7
  6
Continuous
370
-3
390
13
347
21
  0
ENDTAB
  0
TABLE
  2
STYLE
  5
5
330
0
100
AcDbSymbolTable
 70
1
  0
STYLE
  5
29
330
5
100
AcDbSymbolTableRecord
100
AcDbTextStyleTableRecord
  2
Standard
 70
0
 40
0.0
 41
1.0
 50
0.0
 71
0
 42
2.5
  3
txt
  4

  0
ENDTAB
  0
TABLE
  2
VIEW
  5
7
330
0
100
AcDbSymbolTable
 70
0
  0
ENDTAB
  0
TABLE
  2
UCS
  5
6
330
0
100
AcDbSymbolTable
 70
0
  0
ENDTAB
  0
TABLE
  2
APPID
  5
3
330
0
100
AcDbSymbolTable
 70
3
  0
APPID
  5
2A
330
3
100
AcDbSymbolTableRecord
100
AcDbRegAppTableRecord
  2
ACAD
 70
0
  0
APPID
  5
B0
330
3
100
AcDbSymbolTableRecord
100
AcDbRegAppTableRecord
  2
HATCHBACKGROUNDCOLOR
 70
0
  0
APPID
  5
B1
330
3
100
AcDbSymbolTableRecord
100
AcDbRegAppTableRecord
  2
EZDXF
 70
0
  0
ENDTAB
  0
TABLE
  2
DIMSTYLE
  5
4
330
0
100
AcDbSymbolTable
 70
1
100
AcDbDimStyleTable
  0
DIMSTYLE
105
2B
330
4
100
AcDbSymbolTableRecord
100
AcDbDimStyleTableRecord
  2
Standard
 70
0
 40
1.0
 41
2.5
 42
0.625
 43
3.75
 44
1.25
 45
0.0
 46
0.0
 47
0.0
 48
0.0
 49
2.5
140
2.5
141
2.5
142
0.0
143
0.03937007874
144
1.0
145
0.0
146
1.0
147
0.625
148
0.0
 69
0
 70
0
 71
0
 72
0
 73
0
 74
0
 75
0
 76
0
 77
1
 78
8
 79
3
170
0
171
3
172
1
173
0
174
0
175
0
176
0
177
0
178
0
179
2
271
2
272
2
273
2
274
3
275
0
276
0
277
2
278
44
279
0
280
0
281
0
282
0
283
0
284
8
285
0
286
0
288
0
289
3
290
0
371
-2
372
-2
  0
ENDTAB
  0
TABLE
  2
BLOCK_RECORD
  5
9
330
0
100
AcDbSymbolTable
 70
2
  0
BLOCK_RECORD
  5
17
330
9
100
AcDbSymbolTableRecord
100
AcDbBlockTableRecord
  2
*Model_Space
340
1A
 70
0
280
1
281
0
  0
BLOCK_RECORD
  5
1B
330
9
100
AcDbSymbolTableRecord
100
AcDbBlockTableRecord
  2
*Paper_Space
340
1E
 70
0
280
1
281
0
  0
ENDTAB
  0
ENDSEC
  0
SECTION
  2
BLOCKS
  0
BLOCK
  5
18
330
17
100
AcDbEntity
  8
0
100
AcDbBlockBegin
  2
*Model_Space
 70
0
 10
0.0
 20
0.0
 30
0.0
  3
*Model_Space
  1

  0
ENDBLK
  5
19
330
17
100
AcDbEntity
  8
0
100
AcDbBlockEnd
  0
BLOCK
  5
1C
330
1B
100
AcDbEntity
  8
0
100
AcDbBlockBegin
  2
*Paper_Space
 70
0
 10
0.0
 20
0.0
 30
0.0
  3
*Paper_Space
  1

  0
ENDBLK
  5
1D
330
1B
100
AcDbEntity
  8
0
100
AcDbBlockEnd
  0
ENDSEC
  0
SECTION
  2
ENTITIES
  0
LWPOLYLINE
  5
30
330
17
100
AcDbEntity
  8
CUT_OUTSIDE
100
AcDbPolyline
 90
5
 70
1
 10
0.0
 20
841.0
 10
0.0
 20
0.0
 10
521.0
 20
0.0
 10
521.0
 20
841.0
 10
0.0
 20
841.0
  0
LWPOLYLINE
  5
32
330
17
100
AcDbEntity
  8
CUT_INSIDE
100
AcDbPolyline
 90
21
 70
1
 10
102.00000000000001
 20
179.93927890043662
 10
101.99999999999999
 20
43.24643052790472
 10
102.18092213764227
 20
42.22037009792771
 10
102.70186667064306
 20
41.3180676988451
 10
103.49999999999999
 20
40.648354316551405
 10
104.4790554669992
 20
40.29200726886809
 10
105.52094453300079
 20
40.29200726886809
 10
106.49999999999999
 20
40.648354316551405
 10
107.29813332935693
 20
41.3180676988451
 10
107.81907786235772
 20
42.22037009792771
 10
107.99999999999999
 20
43.24643052790472
 10
108.00000000000001
 20
179.93927890043662
 10
107.81907786235773
 20
180.96533933041363
 10
107.29813332935694
 20
181.86764172949626
 10
106.50000000000001
 20
182.53735511178994
 10
105.5209445330008
 20
182.89370215947326
 10
104.47905546699921
 20
182.89370215947326
 10
103.50000000000001
 20
182.53735511178994
 10
102.70186667064307
 20
181.86764172949626
 10
102.18092213764228
 20
180.96533933041363
 10
102.00000000000001
 20
179.93927890043662
  0
LWPOLYLINE
  5
33
330
17
100
AcDbEntity
  8
CUT_INSIDE
100
AcDbPolyline
 90
21
 70
1
 10
22.000000000000014
 20
268.7404796983679
 10
21.999999999999986
 20
58.6366915240439
 10
22.180922137642263
 20
57.61063109406689
 10
22.701866670643057
 20
56.708328694984274
 10
23.499999999999986
 20
56.03861531269058
 10
24.4790554669992
 20
55.68226826500727
 10
25.52094453300078
 20
55.68226826500727
 10
26.499999999999986
 20
56.03861531269058
 10
27.298133329356922
 20
56.708328694984274
 10
27.819077862357716
 20
57.61063109406689
 10
27.999999999999986
 20
58.6366915240439
 10
28.000000000000014
 20
268.7404796983679
 10
27.819077862357737
 20
269.7665401283449
 10
27.298133329356943
 20
270.6688425274275
 10
26.500000000000014
 20
271.3385559097212
 10
25.5209445330008
 20
271.6949029574045
 10
24.47905546699922
 20
271.6949029574045
 10
23.500000000000014
 20
271.3385559097212
 10
22.701866670643078
 20
270.6688425274275
 10
22.180922137642284
 20
269.7665401283449
 10
22.000000000000014
 20
268.7404796983679
  0
LWPOLYLINE
  5
34
330
17
100
AcDbEntity
  8
CUT_INSIDE
100
AcDbPolyline
 90
21
 70
1
 10
54.000000000000014
 20
279.8707609720538
 10
53.999999999999986
 20
40.09204776459997
 10
54.180922137642256
 20
39.06598733462296
 10
54.70186667064306
 20
38.163684935540346
 10
55.499999999999986
 20
37.49397155324665
 10
56.4790554669992
 20
37.13762450556334
 10
57.52094453300077
 20
37.13762450556334
 10
58.499999999999986
 20
37.49397155324665
 10
59.298133329356915
 20
38.163684935540346
 10
59.819077862357716
 20
39.06598733462296
 10
59.999999999999986
 20
40.09204776459997
 10
60.000000000000014
 20
279.8707609720538
 10
59.819077862357744
 20
280.8968214020308
 10
59.29813332935694
 20
281.7991238011134
 10
58.500000000000014
 20
282.4688371834071
 10
57.5209445330008
 20
282.8251842310904
 10
56.47905546699923
 20
282.8251842310904
 10
55.500000000000014
 20
282.4688371834071
 10
54.701866670643085
 20
281.7991238011134
 10
54.180922137642284
 20
280.8968214020308
 10
54.000000000000014
 20
279.8707609720538
  0
LWPOLYLINE
  5
35
330
17
100
AcDbEntity
  8
CUT_INSIDE
100
AcDbPolyline
 90
21
 70
1
 10
38.000000000000014
 20
270.26693675118605
 10
37.999999999999986
 20
75.94126271790896
 10
38.18092213764226
 20
74.91520228793195
 10
38.70186667064306
 20
74.01289988884933
 10
39.499999999999986
 20
73.34318650655564
 10
40.4790554669992
 20
72.98683945887232
 10
41.52094453300078
 20
72.98683945887232
 10
42.499999999999986
 20
73.34318650655564
 10
43.29813332935692
 20
74.01289988884933
 10
43.819077862357716
 20
74.91520228793195
 10
43.999999999999986
 20
75.94126271790896
 10
44.000000000000014
 20
270.26693675118605
 10
43.81907786235774
 20
271.29299718116306
 10
43.29813332935694
 20
272.19529958024566
 10
42.500000000000014
 20
272.86501296253937
 10
41.5209445330008
 20
273.22136001022267
 10
40.47905546699922
 20
273.22136001022267
 10
39.500000000000014
 20
272.86501296253937
 10
38.70186667064308
 20
272.19529958024566
 10
38.180922137642284
 20
271.29299718116306
 10
38.000000000000014
 20
270.26693675118605
  0
LWPOLYLINE
  5
36
330
17
100
AcDbEntity
  8
CUT_INSIDE
100
AcDbPolyline
 90
21
 70
1
 10
70.00000000000001
 20
310.36006000085627
 10
69.99999999999999
 20
78.05073987659998
 10
70.18092213764226
 20
77.02467944662297
 10
70.70186667064306
 20
76.12237704754035
 10
71.49999999999999
 20
75.45266366524666
 10
72.4790554669992
 20
75.09631661756335
 10
73.52094453300077
 20
75.09631661756335
 10
74.49999999999999
 20
75.45266366524666
 10
75.29813332935692
 20
76.12237704754035
 10
75.81907786235772
 20
77.02467944662297
 10
75.99999999999999
 20
78.05073987659998
 10
76.00000000000001
 20
310.36006000085627
 10
75.81907786235774
 20
311.38612043083333
 10
75.29813332935694
 20
312.28842282991593
 10
74.50000000000001
 20
312.95813621220964
 10
73.5209445330008
 20
313.31448325989294
 10
72.47905546699923
 20
313.31448325989294
 10
71.50000000000001
 20
312.95813621220964
 10
70.70186667064308
 20
312.28842282991593
 10
70.18092213764228
 20
311.38612043083333
 10
70.00000000000001
 20
310.36006000085627
  0
LWPOLYLINE
  5
37
330
17
100
AcDbEntity
  8
CUT_INSIDE
100
AcDbPolyline
 90
21
 70
1
 10
118.0
 20
243.89115858711443
 10
118.0
 20
25.975646910440616
 10
118.18092213764226
 20
24.94958648046361
 10
118.70186667064306
 20
24.047284081380994
 10
119.5
 20
23.3775706990873
 10
120.4790554669992
 20
23.021223651403986
 10
121.52094453300077
 20
23.021223651403986
 10
122.5
 20
23.3775706990873
 10
123.29813332935692
 20
24.047284081380994
 10
123.81907786235772
 20
24.94958648046361
 10
124.0
 20
25.975646910440616
 10
124.0
 20
243.89115858711443
 10
123.81907786235774
 20
244.91721901709144
 10
123.29813332935694
 20
245.81952141617404
 10
122.5
 20
246.48923479846775
 10
121.5209445330008
 20
246.84558184615105
 10
120.47905546699923
 20
246.84558184615105
 10
119.5
 20
246.48923479846775
 10
118.70186667064308
 20
245.81952141617404
 10
118.18092213764228
 20
244.91721901709144
 10
118.0
 20
243.89115858711443
  0
LWPOLYLINE
  5
38
330
17
100
AcDbEntity
  8
CUT_INSIDE
100
AcDbPolyline
 90
21
 70
1
 10
86.00000000000001
 20
310.61059791369627
 10
85.99999999999999
 20
62.29466481977305
 10
86.18092213764226
 20
61.26860438979604
 10
86.70186667064306
 20
60.366301990713424
 10
87.49999999999999
 20
59.69658860841973
 10
88.4790554669992
 20
59.340241560736416
 10
89.52094453300077
 20
59.340241560736416
 10
90.49999999999999
 20
59.69658860841973
 10
91.29813332935692
 20
60.366301990713424
 10
91.81907786235772
 20
61.26860438979604
 10
91.99999999999999
 20
62.29466481977305
 10
92.00000000000001
 20
310.61059791369627
 10
91.81907786235774
 20
311.6366583436733
 10
91.29813332935694
 20
312.5389607427559
 10
90.50000000000001
 20
313.2086741250496
 10
89.5209445330008
 20
313.56502117273294
 10
88.47905546699923
 20
313.56502117273294
 10
87.50000000000001
 20
313.2086741250496
 10
86.70186667064308
 20
312.5389607427559
 10
86.18092213764228
 20
311.6366583436733
 10
86.00000000000001
 20
310.61059791369627
  0
LWPOLYLINE
  5
39
330
17
100
AcDbEntity
  8
CUT_INSIDE
100
AcDbPolyline
 90
21
 70
1
 10
134.0
 20
319.348838260975
 10
134.0
 20
75.20138725826614
 10
134.18092213764226
 20
74.17532682828913
 10
134.70186667064306
 20
73.27302442920652
 10
135.5
 20
72.60331104691282
 10
136.4790554669992
 20
72.24696399922951
 10
137.52094453300077
 20
72.24696399922951
 10
138.5
 20
72.60331104691282
 10
139.29813332935692
 20
73.27302442920652
 10
139.81907786235772
 20
74.17532682828913
 10
140.0
 20
75.20138725826614
 10
140.0
 20
319.348838260975
 10
139.81907786235774
 20
320.374898690952
 10
139.29813332935694
 20
321.2772010900346
 10
138.5
 20
321.94691447232833
 10
137.5209445330008
 20
322.3032615200117
 10
136.47905546699923
 20
322.3032615200117
 10
135.5
 20
321.94691447232833
 10
134.70186667064308
 20
321.2772010900346
 10
134.18092213764228
 20
320.374898690952
 10
134.0
 20
319.348838260975
  0
LWPOLYLINE
  5
3A
330
17
100
AcDbEntity
  8
CUT_INSIDE
100
AcDbPolyline
 90
21
 70
1
 10
166.0
 20
156.27842106167043
 10
166.0
 20
42.10719922582237
 10
166.18092213764226
 20
41.08113879584536
 10
166.70186667064306
 20
40.178836396762755
 10
167.5
 20
39.509123014469054
 10
168.4790554669992
 20
39.15277596678575
 10
169.52094453300077
 20
39.15277596678575
 10
170.5
 20
39.509123014469054
 10
171.29813332935692
 20
40.178836396762755
 10
171.81907786235772
 20
41.08113879584536
 10
172.0
 20
42.10719922582237
 10
172.0
 20
156.27842106167043
 10
171.81907786235774
 20
157.30448149164744
 10
171.29813332935694
 20
158.20678389073004
 10
170.5
 20
158.87649727302374
 10
169.5209445330008
 20
159.23284432070704
 10
168.47905546699923
 20
159.23284432070704
 10
167.5
 20
158.87649727302374
 10
166.70186667064308
 20
158.20678389073004
 10
166.18092213764228
 20
157.30448149164744
 10
166.0
 20
156.27842106167043
  0
LWPOLYLINE
  5
3B
330
17
100
AcDbEntity
  8
CUT_INSIDE
100
AcDbPolyline
 90
21
 70
1
 10
150.0
 20
271.7641367740839
 10
150.0
 20
26.97810531691269
 10
150.18092213764226
 20
25.95204488693568
 10
150.70186667064306
 20
25.049742487853067
 10
151.5
 20
24.380029105559373
 10
152.4790554669992
 20
24.02368205787606
 10
153.52094453300077
 20
24.02368205787606
 10
154.5
 20
24.380029105559373
 10
155.29813332935692
 20
25.049742487853067
 10
155.81907786235772
 20
25.95204488693568
 10
156.0
 20
26.97810531691269
 10
156.0
 20
271.7641367740839
 10
155.81907786235774
 20
272.790197204061
 10
155.29813332935694
 20
273.6924996031436
 10
154.5
 20
274.3622129854373
 10
153.5209445330008
 20
274.7185600331206
 10
152.47905546699923
 20
274.7185600331206
 10
151.5
 20
274.3622129854373
 10
150.70186667064308
 20
273.6924996031436
 10
150.18092213764228
 20
272.790197204061
 10
150.0
 20
271.7641367740839
  0
LWPOLYLINE
  5
3C
330
17
100
AcDbEntity
  8
CUT_INSIDE
100
AcDbPolyline
 90
21
 70
1
 10
182.0
 20
281.5440889232046
 10
182.0
 20
57.07385191743805
 10
182.18092213764226
 20
56.04779148746104
 10
182.70186667064306
 20
55.145489088378426
 10
183.5
 20
54.47577570608473
 10
184.4790554669992
 20
54.11942865840142
 10
185.52094453300077
 20
54.11942865840142
 10
186.5
 20
54.47577570608473
 10
187.29813332935692
 20
55.145489088378426
 10
187.81907786235772
 20
56.04779148746104
 10
188.0
 20
57.07385191743805
 10
188.0
 20
281.5440889232046
 10
187.81907786235774
 20
282.5701493531816
 10
187.29813332935694
 20
283.4724517522642
 10
186.5
 20
284.1421651345579
 10
185.5209445330008
 20
284.4985121822412
 10
184.47905546699923
 20
284.4985121822412
 10
183.5
 20
284.1421651345579
 10
182.70186667064308
 20
283.4724517522642
 10
182.18092213764228
 20
282.5701493531816
 10
182.0
 20
281.5440889232046
  0
LWPOLYLINE
  5
3D
330
17
100
AcDbEntity
  8
CUT_INSIDE
100
AcDbPolyline
 90
21
 70
1
 10
230.0
 20
297.3839494495748
 10
230.0
 20
45.358040380410614
 10
230.18092213764226
 20
44.331979950433606
 10
230.70186667064306
 20
43.42967755135099
 10
231.49999999999997
 20
42.7599641690573
 10
232.4790554669992
 20
42.403617121374
 10
233.52094453300077
 20
42.403617121374
 10
234.49999999999997
 20
42.7599641690573
 10
235.29813332935692
 20
43.42967755135099
 10
235.81907786235772
 20
44.331979950433606
 10
236.0
 20
45.358040380410614
 10
236.0
 20
297.3839494495748
 10
235.81907786235774
 20
298.4100098795518
 10
235.29813332935694
 20
299.3123122786344
 10
234.50000000000003
 20
299.9820256609281
 10
233.5209445330008
 20
300.3383727086114
 10
232.47905546699923
 20
300.3383727086114
 10
231.50000000000003
 20
299.9820256609281
 10
230.70186667064308
 20
299.3123122786344
 10
230.18092213764228
 20
298.4100098795518
 10
230.0
 20
297.3839494495748
  0
LWPOLYLINE
  5
3E
330
17
100
AcDbEntity
  8
CUT_INSIDE
100
AcDbPolyline
 90
21
 70
1
 10
246.0
 20
262.1354551209783
 10
246.0
 20
44.511616583227166
 10
246.18092213764226
 20
43.48555615325016
 10
246.70186667064303
 20
42.58325375416754
 10
247.5
 20
41.91354037187385
 10
248.47905546699917
 20
41.557193324190536
 10
249.52094453300077
 20
41.557193324190536
 10
250.5
 20
41.91354037187385
 10
251.29813332935692
 20
42.58325375416754
 10
251.8190778623577
 20
43.48555615325016
 10
252.0
 20
44.511616583227166
 10
252.0
 20
262.1354551209783
 10
251.81907786235774
 20
263.1615155509553
 10
251.29813332935697
 20
264.0638179500379
 10
250.5
 20
264.7335313323316
 10
249.52094453300083
 20
265.08987838001497
 10
248.47905546699923
 20
265.08987838001497
 10
247.5
 20
264.7335313323316
 10
246.70186667064308
 20
264.0638179500379
 10
246.1809221376423
 20
263.1615155509553
 10
246.0
 20
262.1354551209783
  0
LWPOLYLINE
  5
3F
330
17
100
AcDbEntity
  8
CUT_INSIDE
100
AcDbPolyline
 90
21
 70
1
 10
198.0
 20
309.9756345080633
 10
198.0
 20
64.50987886234053
 10
198.18092213764226
 20
63.48381843236352
 10
198.70186667064306
 20
62.581516033280906
 10
199.49999999999997
 20
61.91180265098721
 10
200.4790554669992
 20
61.5554556033039
 10
201.52094453300077
 20
61.5554556033039
 10
202.5
 20
61.91180265098721
 10
203.29813332935692
 20
62.581516033280906
 10
203.81907786235772
 20
63.48381843236352
 10
204.0
 20
64.50987886234053
 10
204.0
 20
309.9756345080633
 10
203.81907786235774
 20
311.0016949380403
 10
203.29813332935694
 20
311.903997337123
 10
202.50000000000003
 20
312.5737107194166
 10
201.5209445330008
 20
312.9300577670999
 10
200.47905546699923
 20
312.9300577670999
 10
199.5
 20
312.5737107194166
 10
198.70186667064308
 20
311.903997337123
 10
198.18092213764228
 20
311.0016949380403
 10
198.0
 20
309.9756345080633
  0
LWPOLYLINE
  5
40
330
17
100
AcDbEntity
  8
CUT_INSIDE
100
AcDbPolyline
 90
21
 70
1
 10
214.0
 20
307.84515124768757
 10
214.0
 20
78.96219719575129
 10
214.18092213764226
 20
77.93613676577428
 10
214.70186667064306
 20
77.03383436669166
 10
215.5
 20
76.36412098439797
 10
216.4790554669992
 20
76.00777393671466
 10
217.52094453300077
 20
76.00777393671466
 10
218.5
 20
76.36412098439797
 10
219.29813332935692
 20
77.03383436669166
 10
219.81907786235772
 20
77.93613676577428
 10
220.0
 20
78.96219719575129
 10
220.0
 20
307.84515124768757
 10
219.81907786235774
 20
308.8712116776646
 10
219.29813332935694
 20
309.7735140767472
 10
218.5
 20
310.4432274590409
 10
217.5209445330008
 20
310.7995745067242
 10
216.47905546699923
 20
310.7995745067242
 10
215.5
 20
310.4432274590409
 10
214.70186667064308
 20
309.7735140767472
 10
214.18092213764228
 20
308.8712116776646
 10
214.0
 20
307.84515124768757
  0
LWPOLYLINE
  5
41
330
17
100
AcDbEntity
  8
CUT_INSIDE
100
AcDbPolyline
 90
21
 70
1
 10
102.00000000000001
 20
378.7622498218964
 10
101.99999999999999
 20
213.03556809478974
 10
102.18092213764227
 20
212.00950766481273
 10
102.70186667064306
 20
211.1072052657301
 10
103.49999999999999
 20
210.43749188343642
 10
104.4790554669992
 20
210.0811448357531
 10
105.52094453300079
 20
210.0811448357531
 10
106.49999999999999
 20
210.43749188343642
 10
107.29813332935693
 20
211.1072052657301
 10
107.81907786235772
 20
212.00950766481273
 10
107.99999999999999
 20
213.03556809478974
 10
108.00000000000001
 20
378.7622498218964
 10
107.81907786235773
 20
379.7883102518733
 10
107.29813332935694
 20
380.690612650956
 10
106.50000000000001
 20
381.36032603324963
 10
105.5209445330008
 20
381.716673080933
 10
104.47905546699921
 20
381.716673080933
 10
103.50000000000001
 20
381.36032603324963
 10
102.70186667064307
 20
380.690612650956
 10
102.18092213764228
 20
379.7883102518733
 10
102.00000000000001
 20
378.7622498218964
  0
LWPOLYLINE
  5
42
330
17
100
AcDbEntity
  8
CUT_INSIDE
100
AcDbPolyline
 90
21
 70
1
 10
38.00000000000001
 20
407.9263586102305
 10
37.99999999999999
 20
304.681344619196
 10
38.18092213764227
 20
303.655284189219
 10
38.701866670643064
 20
302.7529817901364
 10
39.49999999999999
 20
302.0832684078427
 10
40.479055466999206
 20
301.7269213601594
 10
41.52094453300079
 20
301.7269213601594
 10
42.49999999999999
 20
302.0832684078427
 10
43.29813332935693
 20
302.7529817901364
 10
43.819077862357716
 20
303.655284189219
 10
43.99999999999999
 20
304.681344619196
 10
44.00000000000001
 20
407.9263586102305
 10
43.81907786235773
 20
408.95241904020753
 10
43.298133329356936
 20
409.85472143929013
 10
42.50000000000001
 20
410.52443482158384
 10
41.520944533000794
 20
410.88078186926714
 10
40.47905546699921
 20
410.88078186926714
 10
39.50000000000001
 20
410.52443482158384
 10
38.70186667064307
 20
409.85472143929013
 10
38.180922137642284
 20
408.95241904020753
 10
38.00000000000001
 20
407.9263586102305
  0
LWPOLYLINE
  5
43
330
17
100
AcDbEntity
  8
CUT_INSIDE
100
AcDbPolyline
 90
21
 70
1
 10
54.0
 20
423.2550842989865
 10
54.0
 20
312.12236819812006
 10
54.18092213764227
 20
311.096307768143
 10
54.70186667064306
 20
310.1940053690604
 10
55.5
 20
309.5242919867667
 10
56.4790554669992
 20
309.1679449390834
 10
57.52094453300079
 20
309.1679449390834
 10
58.5
 20
309.5242919867667
 10
59.29813332935693
 20
310.1940053690604
 10
59.819077862357716
 20
311.096307768143
 10
60.0
 20
312.12236819812006
 10
60.0
 20
423.2550842989865
 10
59.81907786235773
 20
424.28114472896357
 10
59.29813332935694
 20
425.18344712804617
 10
58.5
 20
425.8531605103399
 10
57.5209445330008
 20
426.2095075580232
 10
56.47905546699921
 20
426.2095075580232
 10
55.5
 20
425.8531605103399
 10
54.70186667064307
 20
425.18344712804617
 10
54.180922137642284
 20
424.28114472896357
 10
54.0
 20
423.2550842989865
  0
LWPOLYLINE
  5
44
330
17
100
AcDbEntity
  8
CUT_INSIDE
100
AcDbPolyline
 90
21
 70
1
 10
118.0
 20
452.0983111402529
 10
118.0
 20
269.75011020058423
 10
118.18092213764226
 20
268.7240497706072
 10
118.70186667064306
 20
267.8217473715246
 10
119.5
 20
267.1520339892309
 10
120.4790554669992
 20
266.7956869415476
 10
121.52094453300077
 20
266.7956869415476
 10
122.5
 20
267.1520339892309
 10
123.29813332935692
 20
267.8217473715246
 10
123.81907786235772
 20
268.7240497706072
 10
124.0
 20
269.75011020058423
 10
124.0
 20
452.0983111402529
 10
123.81907786235774
 20
453.1243715702299
 10
123.29813332935694
 20
454.0266739693125
 10
122.5
 20
454.69638735160623
 10
121.5209445330008
 20
455.05273439928953
 10
120.47905546699923
 20
455.05273439928953
 10
119.5
 20
454.69638735160623
 10
118.70186667064308
 20
454.0266739693125
 10
118.18092213764228
 20
453.1243715702299
 10
118.0
 20
452.0983111402529
  0
LWPOLYLINE
  5
45
330
17
100
AcDbEntity
  8
CUT_INSIDE
100
AcDbPolyline
 90
21
 70
1
 10
86.00000000000001
 20
479.7045773900774
 10
85.99999999999999
 20
344.91046475491993
 10
86.18092213764227
 20
343.8844043249429
 10
86.70186667064306
 20
342.9821019258603
 10
87.49999999999999
 20
342.3123885435666
 10
88.4790554669992
 20
341.95604149588326
 10
89.52094453300079
 20
341.95604149588326
 10
90.49999999999999
 20
342.3123885435666
 10
91.29813332935693
 20
342.9821019258603
 10
91.81907786235772
 20
343.8844043249429
 10
91.99999999999999
 20
344.91046475491993
 10
92.00000000000001
 20
479.7045773900774
 10
91.81907786235773
 20
480.7306378200544
 10
91.29813332935694
 20
481.632940219137
 10
90.50000000000001
 20
482.30265360143073
 10
89.5209445330008
 20
482.6590006491141
 10
88.47905546699921
 20
482.6590006491141
 10
87.50000000000001
 20
482.30265360143073
 10
86.70186667064307
 20
481.632940219137
 10
86.18092213764228
 20
480.7306378200544
 10
86.00000000000001
 20
479.7045773900774
  0
LWPOLYLINE
  5
46
330
17
100
AcDbEntity
  8
CUT_INSIDE
100
AcDbPolyline
 90
21
 70
1
 10
134.0
 20
489.1737921296683
 10
134.0
 20
344.85894726982315
 10
134.18092213764226
 20
343.8328868398462
 10
134.70186667064306
 20
342.93058444076354
 10
135.5
 20
342.2608710584699
 10
136.4790554669992
 20
341.90452401078653
 10
137.52094453300077
 20
341.90452401078653
 10
138.5
 20
342.2608710584699
 10
139.29813332935692
 20
342.93058444076354
 10
139.81907786235772
 20
343.8328868398462
 10
140.0
 20
344.85894726982315
 10
140.0
 20
489.1737921296683
 10
139.81907786235774
 20
490.19985255964525
 10
139.29813332935694
 20
491.1021549587279
 10
138.5
 20
491.77186834102156
 10
137.5209445330008
 20
492.1282153887049
 10
136.47905546699923
 20
492.1282153887049
 10
135.5
 20
491.77186834102156
 10
134.70186667064308
 20
491.1021549587279
 10
134.18092213764228
 20
490.19985255964525
 10
134.0
 20
489.1737921296683
  0
LWPOLYLINE
  5
47
330
17
100
AcDbEntity
  8
CUT_INSIDE
100
AcDbPolyline
 90
21
 70
1
 10
166.0
 20
286.83712836315186
 10
166.0
 20
177.5295607771996
 10
166.18092213764226
 20
176.5035003472226
 10
166.70186667064306
 20
175.60119794814
 10
167.5
 20
174.9314845658463
 10
168.4790554669992
 20
174.575137518163
 10
169.52094453300077
 20
174.575137518163
 10
170.5
 20
174.9314845658463
 10
171.29813332935692
 20
175.60119794814
 10
171.81907786235772
 20
176.5035003472226
 10
172.0
 20
177.5295607771996
 10
172.0
 20
286.83712836315186
 10
171.81907786235774
 20
287.86318879312887
 10
171.29813332935694
 20
288.76549119221147
 10
170.5
 20
289.4352045745052
 10
169.5209445330008
 20
289.7915516221885
 10
168.47905546699923
 20
289.7915516221885
 10
167.5
 20
289.4352045745052
 10
166.70186667064308
 20
288.76549119221147
 10
166.18092213764228
 20
287.86318879312887
 10
166.0
 20
286.83712836315186
  0
LWPOLYLINE
  5
48
330
17
100
AcDbEntity
  8
CUT_INSIDE
100
AcDbPolyline
 90
21
 70
1
 10
150.0
 20
435.14890563654996
 10
150.0
 20
293.2230146008322
 10
150.18092213764226
 20
292.1969541708552
 10
150.70186667064306
 20
291.2946517717726
 10
151.5
 20
290.62493838947887
 10
152.4790554669992
 20
290.26859134179557
 10
153.52094453300077
 20
290.26859134179557
 10
154.5
 20
290.62493838947887
 10
155.29813332935692
 20
291.2946517717726
 10
155.81907786235772
 20
292.1969541708552
 10
156.0
 20
293.2230146008322
 10
156.0
 20
435.14890563654996
 10
155.81907786235774
 20
436.17496606652696
 10
155.29813332935694
 20
437.07726846560956
 10
154.5
 20
437.74698184790327
 10
153.5209445330008
 20
438.10332889558657
 10
152.47905546699923
 20
438.10332889558657
 10
151.5
 20
437.74698184790327
 10
150.70186667064308
 20
437.07726846560956
 10
150.18092213764228
 20
436.17496606652696
 10
150.0
 20
435.14890563654996
  0
LWPOLYLINE
  5
49
330
17
100
AcDbEntity
  8
CUT_INSIDE
100
AcDbPolyline
 90
21
 70
1
 10
182.0
 20
464.53346847202533
 10
182.0
 20
308.8347305470552
 10
182.18092213764226
 20
307.8086701170781
 10
182.70186667064306
 20
306.9063677179955
 10
183.5
 20
306.2366543357018
 10
184.4790554669992
 20
305.8803072880185
 10
185.52094453300077
 20
305.8803072880185
 10
186.5
 20
306.2366543357018
 10
187.29813332935692
 20
306.9063677179955
 10
187.81907786235772
 20
307.8086701170781
 10
188.0
 20
308.8347305470552
 10
188.0
 20
464.53346847202533
 10
187.81907786235774
 20
465.5595289020024
 10
187.29813332935694
 20
466.461831301085
 10
186.5
 20
467.1315446833787
 10
185.5209445330008
 20
467.487891731062
 10
184.47905546699923
 20
467.487891731062
 10
183.5
 20
467.1315446833787
 10
182.70186667064308
 20
466.461831301085
 10
182.18092213764228
 20
465.5595289020024
 10
182.0
 20
464.53346847202533
  0
LWPOLYLINE
  5
4A
330
17
100
AcDbEntity
  8
CUT_INSIDE
100
AcDbPolyline
 90
21
 70
1
 10
246.0
 20
496.61527200152864
 10
246.0
 20
294.5338245948766
 10
246.18092213764226
 20
293.5077641648996
 10
246.70186667064303
 20
292.605461765817
 10
247.5
 20
291.9357483835233
 10
248.47905546699917
 20
291.57940133584
 10
249.52094453300077
 20
291.57940133584
 10
250.5
 20
291.9357483835233
 10
251.29813332935692
 20
292.605461765817
 10
251.8190778623577
 20
293.5077641648996
 10
252.0
 20
294.5338245948766
 10
252.0
 20
496.61527200152864
 10
251.81907786235774
 20
497.6413324315056
 10
251.29813332935697
 20
498.5436348305883
 10
250.5
 20
499.213348212882
 10
249.52094453300083
 20
499.56969526056525
 10
248.47905546699923
 20
499.56969526056525
 10
247.5
 20
499.213348212882
 10
246.70186667064308
 20
498.5436348305883
 10
246.1809221376423
 20
497.6413324315056
 10
246.0
 20
496.61527200152864
  0
LWPOLYLINE
  5
4B
330
17
100
AcDbEntity
  8
CUT_INSIDE
100
AcDbPolyline
 90
21
 70
1
 10
342.0
 20
150.18320866299118
 10
342.0
 20
59.06671874818926
 10
342.18092213764226
 20
58.04065831821225
 10
342.7018666706431
 20
57.13835591912965
 10
343.5
 20
56.468642536835944
 10
344.4790554669992
 20
56.11229548915264
 10
345.5209445330008
 20
56.11229548915264
 10
346.5
 20
56.468642536835944
 10
347.2981333293569
 20
57.13835591912965
 10
347.81907786235774
 20
58.04065831821225
 10
348.0
 20
59.06671874818926
 10
348.0
 20
150.18320866299118
 10
347.81907786235774
 20
151.20926909296819
 10
347.2981333293569
 20
152.11157149205079
 10
346.5
 20
152.7812848743445
 10
345.5209445330008
 20
153.1376319220278
 10
344.4790554669992
 20
153.1376319220278
 10
343.5
 20
152.7812848743445
 10
342.7018666706431
 20
152.11157149205079
 10
342.18092213764226
 20
151.20926909296819
 10
342.0
 20
150.18320866299118
  0
LWPOLYLINE
  5
4C
330
17
100
AcDbEntity
  8
CUT_INSIDE
100
AcDbPolyline
 90
21
 70
1
 10
262.0
 20
268.0164661309805
 10
262.0
 20
66.56636355051143
 10
262.18092213764226
 20
65.54030312053442
 10
262.701866670643
 20
64.6380007214518
 10
263.5
 20
63.96828733915811
 10
264.47905546699917
 20
63.611940291474795
 10
265.5209445330008
 20
63.611940291474795
 10
266.5
 20
63.96828733915811
 10
267.2981333293569
 20
64.6380007214518
 10
267.8190778623577
 20
65.54030312053442
 10
268.0
 20
66.56636355051143
 10
268.0
 20
268.0164661309805
 10
267.81907786235774
 20
269.0425265609575
 10
267.298133329357
 20
269.9448289600401
 10
266.5
 20
270.61454234233383
 10
265.52094453300083
 20
270.97088939001713
 10
264.4790554669992
 20
270.97088939001713
 10
263.5
 20
270.61454234233383
 10
262.7018666706431
 20
269.9448289600401
 10
262.1809221376423
 20
269.0425265609575
 10
262.0
 20
268.0164661309805
  0
LWPOLYLINE
  5
4D
330
17
100
AcDbEntity
  8
CUT_INSIDE
100
AcDbPolyline
 90
21
 70
1
 10
278.0
 20
272.8342489053009
 10
278.0
 20
49.9987053990113
 10
278.18092213764226
 20
48.97264496903429
 10
278.701866670643
 20
48.07034256995168
 10
279.5
 20
47.400629187657984
 10
280.47905546699917
 20
47.04428213997467
 10
281.5209445330008
 20
47.04428213997467
 10
282.5
 20
47.400629187657984
 10
283.2981333293569
 20
48.07034256995168
 10
283.8190778623577
 20
48.97264496903429
 10
284.0
 20
49.9987053990113
 10
284.0
 20
272.8342489053009
 10
283.81907786235774
 20
273.860309335278
 10
283.298133329357
 20
274.7626117343606
 10
282.5
 20
275.4323251166543
 10
281.52094453300083
 20
275.7886721643376
 10
280.4790554669992
 20
275.7886721643376
 10
279.5
 20
275.4323251166543
 10
278.7018666706431
 20
274.7626117343606
 10
278.1809221376423
 20
273.860309335278
 10
278.0
 20
272.8342489053009
  0
LWPOLYLINE
  5
4E
330
17
100
AcDbEntity
  8
CUT_INSIDE
100
AcDbPolyline
 90
21
 70
1
 10
310.0
 20
240.74922990943526
 10
310.0
 20
75.61861132165907
 10
310.18092213764226
 20
74.59255089168207
 10
310.7018666706431
 20
73.69024849259945
 10
311.5
 20
73.02053511030576
 10
312.4790554669992
 20
72.66418806262244
 10
313.5209445330008
 20
72.66418806262244
 10
314.5
 20
73.02053511030576
 10
315.2981333293569
 20
73.69024849259945
 10
315.81907786235774
 20
74.59255089168207
 10
316.0
 20
75.61861132165907
 10
316.0
 20
240.74922990943526
 10
315.81907786235774
 20
241.77529033941232
 10
315.2981333293569
 20
242.67759273849492
 10
314.5
 20
243.34730612078863
 10
313.5209445330008
 20
243.70365316847193
 10
312.4790554669992
 20
243.70365316847193
 10
311.5
 20
243.34730612078863
 10
310.7018666706431
 20
242.67759273849492
 10
310.18092213764226
 20
241.77529033941232
 10
310.0
 20
240.74922990943526
  0
LWPOLYLINE
  5
4F
330
17
100
AcDbEntity
  8
CUT_INSIDE
100
AcDbPolyline
 90
21
 70
1
 10
294.0
 20
272.9924903011303
 10
294.0
 20
71.97520763290271
 10
294.18092213764226
 20
70.9491472029257
 10
294.701866670643
 20
70.04684480384309
 10
295.5
 20
69.3771314215494
 10
296.47905546699917
 20
69.02078437386608
 10
297.5209445330008
 20
69.02078437386608
 10
298.5
 20
69.3771314215494
 10
299.2981333293569
 20
70.04684480384309
 10
299.8190778623577
 20
70.9491472029257
 10
300.0
 20
71.97520763290271
 10
300.0
 20
272.9924903011303
 10
299.81907786235774
 20
274.0185507311073
 10
299.298133329357
 20
274.9208531301899
 10
298.5
 20
275.59056651248363
 10
297.52094453300083
 20
275.94691356016693
 10
296.4790554669992
 20
275.94691356016693
 10
295.5
 20
275.59056651248363
 10
294.7018666706431
 20
274.9208531301899
 10
294.1809221376423
 20
274.0185507311073
 10
294.0
 20
272.9924903011303
  0
LWPOLYLINE
  5
50
330
17
100
AcDbEntity
  8
CUT_INSIDE
100
AcDbPolyline
 90
21
 70
1
 10
326.0
 20
274.38160985175523
 10
326.0
 20
58.681803046712446
 10
326.18092213764226
 20
57.65574261673544
 10
326.701866670643
 20
56.75344021765282
 10
327.5
 20
56.08372683535913
 10
328.47905546699917
 20
55.727379787675815
 10
329.5209445330008
 20
55.727379787675815
 10
330.5
 20
56.08372683535913
 10
331.2981333293569
 20
56.75344021765282
 10
331.8190778623577
 20
57.65574261673544
 10
332.0
 20
58.681803046712446
 10
332.0
 20
274.38160985175523
 10
331.81907786235774
 20
275.40767028173224
 10
331.298133329357
 20
276.30997268081484
 10
330.5
 20
276.97968606310855
 10
329.52094453300083
 20
277.33603311079185
 10
328.4790554669992
 20
277.33603311079185
 10
327.5
 20
276.97968606310855
 10
326.7018666706431
 20
276.30997268081484
 10
326.1809221376423
 20
275.40767028173224
 10
326.0
 20
274.38160985175523
  0
LWPOLYLINE
  5
51
330
17
100
AcDbEntity
  8
CUT_INSIDE
100
AcDbPolyline
 90
21
 70
1
 10
358.0
 20
275.3847010460099
 10
358.0
 20
37.84370612183827
 10
358.18092213764226
 20
36.81764569186126
 10
358.701866670643
 20
35.915343292778644
 10
359.5
 20
35.24562991048495
 10
360.47905546699917
 20
34.889282862801636
 10
361.5209445330008
 20
34.889282862801636
 10
362.5
 20
35.24562991048495
 10
363.2981333293569
 20
35.915343292778644
 10
363.8190778623577
 20
36.81764569186126
 10
364.0
 20
37.84370612183827
 10
364.0
 20
275.3847010460099
 10
363.81907786235774
 20
276.410761475987
 10
363.298133329357
 20
277.3130638750696
 10
362.5
 20
277.9827772573633
 10
361.52094453300083
 20
278.3391243050466
 10
360.4790554669992
 20
278.3391243050466
 10
359.5
 20
277.9827772573633
 10
358.7018666706431
 20
277.3130638750696
 10
358.1809221376423
 20
276.410761475987
 10
358.0
 20
275.3847010460099
  0
LWPOLYLINE
  5
52
330
17
100
AcDbEntity
  8
CUT_INSIDE
100
AcDbPolyline
 90
21
 70
1
 10
374.0
 20
158.25214378887767
 10
374.0
 20
58.1324609240491
 10
374.18092213764226
 20
57.10640049407209
 10
374.7018666706431
 20
56.204098094989476
 10
375.5
 20
55.53438471269578
 10
376.4790554669992
 20
55.17803766501247
 10
377.5209445330008
 20
55.17803766501247
 10
378.5
 20
55.53438471269578
 10
379.2981333293569
 20
56.204098094989476
 10
379.81907786235774
 20
57.10640049407209
 10
380.0
 20
58.1324609240491
 10
380.0
 20
158.25214378887767
 10
379.81907786235774
 20
159.27820421885468
 10
379.2981333293569
 20
160.18050661793728
 10
378.5
 20
160.850220000231
 10
377.5209445330008
 20
161.2065670479143
 10
376.4790554669992
 20
161.2065670479143
 10
375.5
 20
160.850220000231
 10
374.7018666706431
 20
160.18050661793728
 10
374.18092213764226
 20
159.27820421885468
 10
374.0
 20
158.25214378887767
  0
LWPOLYLINE
  5
53
330
17
100
AcDbEntity
  8
CUT_INSIDE
100
AcDbPolyline
 90
21
 70
1
 10
390.0
 20
153.1090296946118
 10
390.0
 20
44.94990686508643
 10
390.18092213764226
 20
43.923846435109425
 10
390.7018666706431
 20
43.02154403602682
 10
391.5
 20
42.35183065373312
 10
392.4790554669992
 20
41.99548360604981
 10
393.5209445330008
 20
41.99548360604981
 10
394.5
 20
42.35183065373312
 10
395.2981333293569
 20
43.02154403602682
 10
395.81907786235774
 20
43.923846435109425
 10
396.0
 20
44.94990686508643
 10
396.0
 20
153.1090296946118
 10
395.81907786235774
 20
154.1350901245888
 10
395.2981333293569
 20
155.0373925236714
 10
394.5
 20
155.7071059059651
 10
393.5209445330008
 20
156.0634529536484
 10
392.4790554669992
 20
156.0634529536484
 10
391.5
 20
155.7071059059651
 10
390.7018666706431
 20
155.0373925236714
 10
390.18092213764226
 20
154.1350901245888
 10
390.0
 20
153.1090296946118
  0
LWPOLYLINE
  5
54
330
17
100
AcDbEntity
  8
CUT_INSIDE
100
AcDbPolyline
 90
21
 70
1
 10
406.0
 20
211.0156326100768
 10
406.0
 20
30.827590328501742
 10
406.18092213764226
 20
29.801529898524734
 10
406.701866670643
 20
28.89922749944212
 10
407.5
 20
28.229514117148426
 10
408.4790554669992
 20
27.87316706946511
 10
409.5209445330008
 20
27.87316706946511
 10
410.5
 20
28.229514117148426
 10
411.2981333293569
 20
28.89922749944212
 10
411.8190778623577
 20
29.801529898524734
 10
412.0
 20
30.827590328501742
 10
412.0
 20
211.0156326100768
 10
411.81907786235774
 20
212.04169304005381
 10
411.298133329357
 20
212.94399543913642
 10
410.5
 20
213.61370882143012
 10
409.5209445330008
 20
213.97005586911342
 10
408.4790554669992
 20
213.97005586911342
 10
407.5
 20
213.61370882143012
 10
406.7018666706431
 20
212.94399543913642
 10
406.1809221376423
 20
212.04169304005381
 10
406.0
 20
211.0156326100768
  0
LWPOLYLINE
  5
55
330
17
100
AcDbEntity
  8
CUT_INSIDE
100
AcDbPolyline
 90
21
 70
1
 10
454.0
 20
200.24896880380535
 10
454.0
 20
25.712978019833685
 10
454.18092213764226
 20
24.686917589856677
 10
454.7018666706431
 20
23.784615190774062
 10
455.5
 20
23.11490180848037
 10
456.4790554669992
 20
22.758554760797054
 10
457.5209445330008
 20
22.758554760797054
 10
458.5
 20
23.11490180848037
 10
459.2981333293569
 20
23.784615190774062
 10
459.8190778623577
 20
24.686917589856677
 10
460.0
 20
25.712978019833685
 10
460.0
 20
200.24896880380535
 10
459.81907786235774
 20
201.27502923378236
 10
459.2981333293569
 20
202.177331632865
 10
458.5
 20
202.84704501515867
 10
457.5209445330008
 20
203.203392062842
 10
456.4790554669992
 20
203.203392062842
 10
455.5
 20
202.84704501515867
 10
454.7018666706431
 20
202.177331632865
 10
454.1809221376423
 20
201.27502923378236
 10
454.0
 20
200.24896880380535
  0
LWPOLYLINE
  5
56
330
17
100
AcDbEntity
  8
CUT_INSIDE
100
AcDbPolyline
 90
21
 70
1
 10
422.0
 20
226.0752406381792
 10
422.0
 20
77.51254989391656
 10
422.18092213764226
 20
76.48648946393955
 10
422.7018666706431
 20
75.58418706485693
 10
423.5
 20
74.91447368256324
 10
424.4790554669992
 20
74.55812663487993
 10
425.5209445330008
 20
74.55812663487993
 10
426.5
 20
74.91447368256324
 10
427.2981333293569
 20
75.58418706485693
 10
427.81907786235774
 20
76.48648946393955
 10
428.0
 20
77.51254989391656
 10
428.0
 20
226.0752406381792
 10
427.81907786235774
 20
227.1013010681562
 10
427.2981333293569
 20
228.00360346723883
 10
426.5
 20
228.6733168495325
 10
425.5209445330008
 20
229.02966389721584
 10
424.4790554669992
 20
229.02966389721584
 10
423.5
 20
228.6733168495325
 10
422.7018666706431
 20
228.00360346723883
 10
422.18092213764226
 20
227.1013010681562
 10
422.0
 20
226.0752406381792
  0
LWPOLYLINE
  5
57
330
17
100
AcDbEntity
  8
CUT_INSIDE
100
AcDbPolyline
 90
21
 70
1
 10
438.0
 20
245.74923369755555
 10
438.0
 20
78.15093170556706
 10
438.18092213764226
 20
77.12487127559005
 10
438.7018666706431
 20
76.22256887650744
 10
439.5
 20
75.55285549421374
 10
440.4790554669992
 20
75.19650844653043
 10
441.5209445330008
 20
75.19650844653043
 10
442.5
 20
75.55285549421374
 10
443.2981333293569
 20
76.22256887650744
 10
443.81907786235774
 20
77.12487127559005
 10
444.0
 20
78.15093170556706
 10
444.0
 20
245.74923369755555
 10
443.81907786235774
 20
246.77529412753256
 10
443.2981333293569
 20
247.67759652661516
 10
442.5
 20
248.34730990890887
 10
441.5209445330008
 20
248.70365695659223
 10
440.4790554669992
 20
248.70365695659223
 10
439.5
 20
248.34730990890887
 10
438.7018666706431
 20
247.67759652661516
 10
438.18092213764226
 20
246.77529412753256
 10
438.0
 20
245.74923369755555
  0
LWPOLYLINE
  5
58
330
17
100
AcDbEntity
  8
CUT_INSIDE
100
AcDbPolyline
 90
21
 70
1
 10
470.0
 20
222.52137218185763
 10
470.0
 20
57.834029909924396
 10
470.18092213764226
 20
56.80796947994739
 10
470.7018666706431
 20
55.905667080864774
 10
471.5
 20
55.23595369857108
 10
472.4790554669992
 20
54.879606650887766
 10
473.5209445330008
 20
54.879606650887766
 10
474.5
 20
55.23595369857108
 10
475.2981333293569
 20
55.905667080864774
 10
475.81907786235774
 20
56.80796947994739
 10
476.0
 20
57.834029909924396
 10
476.0
 20
222.52137218185763
 10
475.81907786235774
 20
223.54743261183464
 10
475.2981333293569
 20
224.44973501091727
 10
474.5
 20
225.11944839321094
 10
473.5209445330008
 20
225.47579544089427
 10
472.4790554669992
 20
225.47579544089427
 10
471.5
 20
225.11944839321094
 10
470.7018666706431
 20
224.44973501091727
 10
470.18092213764226
 20
223.54743261183464
 10
470.0
 20
222.52137218185763
  0
LWPOLYLINE
  5
59
330
17
100
AcDbEntity
  8
CUT_INSIDE
100
AcDbPolyline
 90
21
 70
1
 10
486.0
 20
195.45087907304423
 10
486.0
 20
50.07418399220181
 10
486.18092213764226
 20
49.0481235622248
 10
486.7018666706431
 20
48.14582116314219
 10
487.5
 20
47.476107780848494
 10
488.4790554669992
 20
47.11976073316518
 10
489.5209445330008
 20
47.11976073316518
 10
490.5
 20
47.476107780848494
 10
491.2981333293569
 20
48.14582116314219
 10
491.81907786235774
 20
49.0481235622248
 10
492.0
 20
50.07418399220181
 10
492.0
 20
195.45087907304423
 10
491.81907786235774
 20
196.47693950302124
 10
491.2981333293569
 20
197.37924190210387
 10
490.5
 20
198.04895528439755
 10
489.5209445330008
 20
198.40530233208088
 10
488.4790554669992
 20
198.40530233208088
 10
487.5
 20
198.04895528439755
 10
486.7018666706431
 20
197.37924190210387
 10
486.18092213764226
 20
196.47693950302124
 10
486.0
 20
195.45087907304423
  0
LWPOLYLINE
  5
5A
330
17
100
AcDbEntity
  8
CUT_INSIDE
100
AcDbPolyline
 90
21
 70
1
 10
342.0
 20
300.1898179974368
 10
342.0
 20
177.72857673594916
 10
342.18092213764226
 20
176.70251630597215
 10
342.7018666706431
 20
175.80021390688952
 10
343.5
 20
175.13050052459585
 10
344.4790554669992
 20
174.77415347691252
 10
345.5209445330008
 20
174.77415347691252
 10
346.5
 20
175.13050052459585
 10
347.2981333293569
 20
175.80021390688952
 10
347.81907786235774
 20
176.70251630597215
 10
348.0
 20
177.72857673594916
 10
348.0
 20
300.1898179974368
 10
347.81907786235774
 20
301.2158784274138
 10
347.2981333293569
 20
302.1181808264964
 10
346.5
 20
302.78789420879014
 10
345.5209445330008
 20
303.1442412564735
 10
344.4790554669992
 20
303.1442412564735
 10
343.5
 20
302.78789420879014
 10
342.7018666706431
 20
302.1181808264964
 10
342.18092213764226
 20
301.2158784274138
 10
342.0
 20
300.1898179974368
  0
LWPOLYLINE
  5
5B
330
17
100
AcDbEntity
  8
CUT_INSIDE
100
AcDbPolyline
 90
21
 70
1
 10
262.0
 20
537.461182950525
 10
262.0
 20
292.71809886395425
 10
262.18092213764226
 20
291.69203843397725
 10
262.701866670643
 20
290.78973603489464
 10
263.5
 20
290.12002265260094
 10
264.47905546699917
 20
289.7636756049176
 10
265.5209445330008
 20
289.7636756049176
 10
266.5
 20
290.12002265260094
 10
267.2981333293569
 20
290.78973603489464
 10
267.8190778623577
 20
291.69203843397725
 10
268.0
 20
292.71809886395425
 10
268.0
 20
537.461182950525
 10
267.81907786235774
 20
538.4872433805019
 10
267.298133329357
 20
539.3895457795845
 10
266.5
 20
540.0592591618782
 10
265.52094453300083
 20
540.4156062095616
 10
264.4790554669992
 20
540.4156062095616
 10
263.5
 20
540.0592591618782
 10
262.7018666706431
 20
539.3895457795845
 10
262.1809221376423
 20
538.4872433805019
 10
262.0
 20
537.461182950525
  0
LWPOLYLINE
  5
5C
330
17
100
AcDbEntity
  8
CUT_INSIDE
100
AcDbPolyline
 90
21
 70
1
 10
278.0
 20
522.789650947237
 10
278.0
 20
303.1932400124832
 10
278.18092213764226
 20
302.1671795825062
 10
278.701866670643
 20
301.26487718342355
 10
279.5
 20
300.5951638011299
 10
280.47905546699917
 20
300.2388167534466
 10
281.5209445330008
 20
300.2388167534466
 10
282.5
 20
300.5951638011299
 10
283.2981333293569
 20
301.26487718342355
 10
283.8190778623577
 20
302.1671795825062
 10
284.0
 20
303.1932400124832
 10
284.0
 20
522.789650947237
 10
283.81907786235774
 20
523.815711377214
 10
283.298133329357
 20
524.7180137762966
 10
282.5
 20
525.3877271585903
 10
281.52094453300083
 20
525.7440742062736
 10
280.4790554669992
 20
525.7440742062736
 10
279.5
 20
525.3877271585903
 10
278.7018666706431
 20
524.7180137762966
 10
278.1809221376423
 20
523.815711377214
 10
278.0
 20
522.789650947237
  0
LWPOLYLINE
  5
5D
330
17
100
AcDbEntity
  8
CUT_INSIDE
100
AcDbPolyline
 90
21
 70
1
 10
310.0
 20
478.15874017403536
 10
310.0
 20
271.81203926693973
 10
310.18092213764226
 20
270.7859788369627
 10
310.701866670643
 20
269.8836764378801
 10
311.5
 20
269.2139630555864
 10
312.47905546699917
 20
268.8576160079031
 10
313.5209445330008
 20
268.8576160079031
 10
314.5
 20
269.2139630555864
 10
315.2981333293569
 20
269.8836764378801
 10
315.8190778623577
 20
270.7859788369627
 10
316.0
 20
271.81203926693973
 10
316.0
 20
478.15874017403536
 10
315.81907786235774
 20
479.18480060401237
 10
315.298133329357
 20
480.08710300309497
 10
314.5
 20
480.7568163853887
 10
313.52094453300083
 20
481.113163433072
 10
312.4790554669992
 20
481.113163433072
 10
311.5
 20
480.7568163853887
 10
310.7018666706431
 20
480.08710300309497
 10
310.1809221376423
 20
479.18480060401237
 10
310.0
 20
478.15874017403536
  0
LWPOLYLINE
  5
5E
330
17
100
AcDbEntity
  8
CUT_INSIDE
100
AcDbPolyline
 90
21
 70
1
 10
342.0
 20
427.75567659332853
 10
342.0
 20
321.0561061696592
 10
342.18092213764226
 20
320.0300457396822
 10
342.7018666706431
 20
319.1277433405996
 10
343.5
 20
318.4580299583059
 10
344.4790554669992
 20
318.10168291062257
 10
345.5209445330008
 20
318.10168291062257
 10
346.5
 20
318.4580299583059
 10
347.2981333293569
 20
319.1277433405996
 10
347.81907786235774
 20
320.0300457396822
 10
348.0
 20
321.0561061696592
 10
348.0
 20
427.75567659332853
 10
347.81907786235774
 20
428.78173702330554
 10
347.2981333293569
 20
429.68403942238814
 10
346.5
 20
430.35375280468185
 10
345.5209445330008
 20
430.71009985236515
 10
344.4790554669992
 20
430.71009985236515
 10
343.5
 20
430.35375280468185
 10
342.7018666706431
 20
429.68403942238814
 10
342.18092213764226
 20
428.78173702330554
 10
342.0
 20
427.75567659332853
  0
LWPOLYLINE
  5
5F
330
17
100
AcDbEntity
  8
CUT_INSIDE
100
AcDbPolyline
 90
21
 70
1
 10
326.0
 20
511.04193722411367
 10
326.0
 20
304.5714765460514
 10
326.18092213764226
 20
303.54541611607436
 10
326.701866670643
 20
302.64311371699176
 10
327.5
 20
301.97340033469806
 10
328.47905546699917
 20
301.61705328701476
 10
329.5209445330008
 20
301.61705328701476
 10
330.5
 20
301.97340033469806
 10
331.2981333293569
 20
302.64311371699176
 10
331.8190778623577
 20
303.54541611607436
 10
332.0
 20
304.5714765460514
 10
332.0
 20
511.04193722411367
 10
331.81907786235774
 20
512.0679976540907
 10
331.298133329357
 20
512.9703000531733
 10
330.5
 20
513.6400134354669
 10
329.52094453300083
 20
513.9963604831503
 10
328.4790554669992
 20
513.9963604831503
 10
327.5
 20
513.6400134354669
 10
326.7018666706431
 20
512.9703000531733
 10
326.1809221376423
 20
512.0679976540907
 10
326.0
 20
511.04193722411367
  0
LWPOLYLINE
  5
60
330
17
100
AcDbEntity
  8
CUT_INSIDE
100
AcDbPolyline
 90
21
 70
1
 10
358.0
 20
448.3091481463695
 10
358.0
 20
295.39527089866255
 10
358.18092213764226
 20
294.36921046868554
 10
358.7018666706431
 20
293.46690806960294
 10
359.5
 20
292.79719468730923
 10
360.4790554669992
 20
292.44084763962593
 10
361.5209445330008
 20
292.44084763962593
 10
362.5
 20
292.79719468730923
 10
363.2981333293569
 20
293.46690806960294
 10
363.81907786235774
 20
294.36921046868554
 10
364.0
 20
295.39527089866255
 10
364.0
 20
448.3091481463695
 10
363.81907786235774
 20
449.33520857634653
 10
363.2981333293569
 20
450.23751097542913
 10
362.5
 20
450.90722435772284
 10
361.5209445330008
 20
451.26357140540614
 10
360.4790554669992
 20
451.26357140540614
 10
359.5
 20
450.90722435772284
 10
358.7018666706431
 20
450.23751097542913
 10
358.18092213764226
 20
449.33520857634653
 10
358.0
 20
448.3091481463695
  0
LWPOLYLINE
  5
61
330
17
100
AcDbEntity
  8
CUT_INSIDE
100
AcDbPolyline
 90
21
 70
1
 10
374.0
 20
328.6691407290275
 10
374.0
 20
186.97567759957045
 10
374.18092213764226
 20
185.94961716959344
 10
374.7018666706431
 20
185.0473147705108
 10
375.5
 20
184.37760138821713
 10
376.4790554669992
 20
184.0212543405338
 10
377.5209445330008
 20
184.0212543405338
 10
378.5
 20
184.37760138821713
 10
379.2981333293569
 20
185.0473147705108
 10
379.81907786235774
 20
185.94961716959344
 10
380.0
 20
186.97567759957045
 10
380.0
 20
328.6691407290275
 10
379.81907786235774
 20
329.69520115900445
 10
379.2981333293569
 20
330.5975035580871
 10
378.5
 20
331.26721694038076
 10
377.5209445330008
 20
331.6235639880641
 10
376.4790554669992
 20
331.6235639880641
 10
375.5
 20
331.26721694038076
 10
374.7018666706431
 20
330.5975035580871
 10
374.18092213764226
 20
329.69520115900445
 10
374.0
 20
328.6691407290275
  0
LWPOLYLINE
  5
62
330
17
100
AcDbEntity
  8
CUT_INSIDE
100
AcDbPolyline
 90
21
 70
1
 10
390.0
 20
362.50008551116724
 10
390.0
 20
182.64403197183657
 10
390.18092213764226
 20
181.61797154185956
 10
390.701866670643
 20
180.71566914277696
 10
391.5
 20
180.04595576048325
 10
392.4790554669992
 20
179.68960871279995
 10
393.5209445330008
 20
179.68960871279995
 10
394.5
 20
180.04595576048325
 10
395.2981333293569
 20
180.71566914277696
 10
395.8190778623577
 20
181.61797154185956
 10
396.0
 20
182.64403197183657
 10
396.0
 20
362.50008551116724
 10
395.81907786235774
 20
363.52614594114425
 10
395.298133329357
 20
364.42844834022685
 10
394.5
 20
365.09816172252056
 10
393.5209445330008
 20
365.45450877020386
 10
392.4790554669992
 20
365.45450877020386
 10
391.5
 20
365.09816172252056
 10
390.7018666706431
 20
364.42844834022685
 10
390.1809221376423
 20
363.52614594114425
 10
390.0
 20
362.50008551116724
  0
LWPOLYLINE
  5
63
330
17
100
AcDbEntity
  8
CUT_INSIDE
100
AcDbPolyline
 90
21
 70
1
 10
406.0
 20
348.77740355851324
 10
406.0
 20
240.85832123486693
 10
406.18092213764226
 20
239.83226080488993
 10
406.7018666706431
 20
238.92995840580733
 10
407.5
 20
238.26024502351362
 10
408.4790554669992
 20
237.90389797583032
 10
409.5209445330008
 20
237.90389797583032
 10
410.5
 20
238.26024502351362
 10
411.2981333293569
 20
238.92995840580733
 10
411.81907786235774
 20
239.83226080488993
 10
412.0
 20
240.85832123486693
 10
412.0
 20
348.77740355851324
 10
411.81907786235774
 20
349.80346398849025
 10
411.2981333293569
 20
350.70576638757285
 10
410.5
 20
351.37547976986656
 10
409.5209445330008
 20
351.73182681754986
 10
408.4790554669992
 20
351.73182681754986
 10
407.5
 20
351.37547976986656
 10
406.7018666706431
 20
350.70576638757285
 10
406.18092213764226
 20
349.80346398849025
 10
406.0
 20
348.77740355851324
  0
LWPOLYLINE
  5
64
330
17
100
AcDbEntity
  8
CUT_INSIDE
100
AcDbPolyline
 90
21
 70
1
 10
486.0
 20
411.8079525255448
 10
486.0
 20
227.37115402362463
 10
486.18092213764226
 20
226.34509359364762
 10
486.701866670643
 20
225.442791194565
 10
487.5
 20
224.7730778122713
 10
488.4790554669992
 20
224.41673076458798
 10
489.5209445330008
 20
224.41673076458798
 10
490.5
 20
224.7730778122713
 10
491.2981333293569
 20
225.442791194565
 10
491.8190778623577
 20
226.34509359364762
 10
492.0
 20
227.37115402362463
 10
492.0
 20
411.8079525255448
 10
491.81907786235774
 20
412.8340129555218
 10
491.298133329357
 20
413.73631535460447
 10
490.5
 20
414.4060287368981
 10
489.5209445330008
 20
414.7623757845814
 10
488.4790554669992
 20
414.7623757845814
 10
487.5
 20
414.4060287368981
 10
486.7018666706431
 20
413.73631535460447
 10
486.1809221376423
 20
412.8340129555218
 10
486.0
 20
411.8079525255448
  0
LWPOLYLINE
  5
65
330
17
100
AcDbEntity
  8
CUT_INSIDE
100
AcDbPolyline
 90
21
 70
1
 10
422.0
 20
500.7905015962107
 10
422.0
 20
261.4534661858463
 10
422.18092213764226
 20
260.4274057558693
 10
422.701866670643
 20
259.5251033567867
 10
423.5
 20
258.855389974493
 10
424.47905546699917
 20
258.4990429268097
 10
425.5209445330008
 20
258.4990429268097
 10
426.5
 20
258.855389974493
 10
427.2981333293569
 20
259.5251033567867
 10
427.8190778623577
 20
260.4274057558693
 10
428.0
 20
261.4534661858463
 10
428.0
 20
500.7905015962107
 10
427.81907786235774
 20
501.81656202618774
 10
427.298133329357
 20
502.71886442527034
 10
426.5
 20
503.38857780756393
 10
425.52094453300083
 20
503.7449248552473
 10
424.4790554669992
 20
503.7449248552473
 10
423.5
 20
503.38857780756393
 10
422.7018666706431
 20
502.71886442527034
 10
422.1809221376423
 20
501.81656202618774
 10
422.0
 20
500.7905015962107
  0
LWPOLYLINE
  5
66
330
17
100
AcDbEntity
  8
CUT_INSIDE
100
AcDbPolyline
 90
21
 70
1
 10
454.0
 20
467.6226031460795
 10
454.0
 20
224.62957071576403
 10
454.18092213764226
 20
223.60351028578702
 10
454.701866670643
 20
222.7012078867044
 10
455.5
 20
222.03149450441072
 10
456.47905546699917
 20
221.6751474567274
 10
457.5209445330008
 20
221.6751474567274
 10
458.5
 20
222.03149450441072
 10
459.2981333293569
 20
222.7012078867044
 10
459.8190778623577
 20
223.60351028578702
 10
460.0
 20
224.62957071576403
 10
460.0
 20
467.6226031460795
 10
459.81907786235774
 20
468.6486635760565
 10
459.298133329357
 20
469.5509659751391
 10
458.5
 20
470.2206793574328
 10
457.52094453300083
 20
470.57702640511616
 10
456.4790554669992
 20
470.57702640511616
 10
455.5
 20
470.2206793574328
 10
454.7018666706431
 20
469.5509659751391
 10
454.1809221376423
 20
468.6486635760565
 10
454.0
 20
467.6226031460795
  0
LWPOLYLINE
  5
67
330
17
100
AcDbEntity
  8
CUT_INSIDE
100
AcDbPolyline
 90
21
 70
1
 10
438.0
 20
435.41067629278706
 10
438.0
 20
270.3316073337168
 10
438.18092213764226
 20
269.3055469037398
 10
438.7018666706431
 20
268.4032445046572
 10
439.5
 20
267.7335311223635
 10
440.4790554669992
 20
267.37718407468014
 10
441.5209445330008
 20
267.37718407468014
 10
442.5
 20
267.7335311223635
 10
443.2981333293569
 20
268.4032445046572
 10
443.81907786235774
 20
269.3055469037398
 10
444.0
 20
270.3316073337168
 10
444.0
 20
435.41067629278706
 10
443.81907786235774
 20
436.43673672276407
 10
443.2981333293569
 20
437.33903912184667
 10
442.5
 20
438.0087525041404
 10
441.5209445330008
 20
438.36509955182373
 10
440.4790554669992
 20
438.36509955182373
 10
439.5
 20
438.0087525041404
 10
438.7018666706431
 20
437.33903912184667
 10
438.18092213764226
 20
436.43673672276407
 10
438.0
 20
435.41067629278706
  0
LWPOLYLINE
  5
68
330
17
100
AcDbEntity
  8
CUT_INSIDE
100
AcDbPolyline
 90
21
 70
1
 10
470.0
 20
439.4945313127279
 10
470.0
 20
252.83939823140975
 10
470.18092213764226
 20
251.81333780143268
 10
470.701866670643
 20
250.91103540235008
 10
471.5
 20
250.24132202005637
 10
472.4790554669992
 20
249.88497497237307
 10
473.5209445330008
 20
249.88497497237307
 10
474.5
 20
250.24132202005637
 10
475.2981333293569
 20
250.91103540235008
 10
475.8190778623577
 20
251.81333780143268
 10
476.0
 20
252.83939823140975
 10
476.0
 20
439.4945313127279
 10
475.81907786235774
 20
440.52059174270494
 10
475.298133329357
 20
441.42289414178754
 10
474.5
 20
442.09260752408125
 10
473.5209445330008
 20
442.44895457176455
 10
472.4790554669992
 20
442.44895457176455
 10
471.5
 20
442.09260752408125
 10
470.7018666706431
 20
441.42289414178754
 10
470.1809221376423
 20
440.52059174270494
 10
470.0
 20
439.4945313127279
  0
LWPOLYLINE
  5
69
330
17
100
AcDbEntity
  8
CUT_INSIDE
100
AcDbPolyline
 90
21
 70
1
 10
22.000000000000014
 20
545.6801249895176
 10
21.999999999999986
 20
301.4635767474191
 10
22.180922137642263
 20
300.43751631744203
 10
22.70186667064305
 20
299.53521391835943
 10
23.499999999999986
 20
298.8655005360657
 10
24.4790554669992
 20
298.5091534883824
 10
25.52094453300078
 20
298.5091534883824
 10
26.499999999999986
 20
298.8655005360657
 10
27.298133329356922
 20
299.53521391835943
 10
27.81907786235771
 20
300.43751631744203
 10
27.999999999999986
 20
301.4635767474191
 10
28.000000000000014
 20
545.6801249895176
 10
27.819077862357737
 20
546.7061854194947
 10
27.29813332935695
 20
547.6084878185773
 10
26.500000000000014
 20
548.278201200871
 10
25.5209445330008
 20
548.6345482485542
 10
24.47905546699922
 20
548.6345482485542
 10
23.500000000000014
 20
548.278201200871
 10
22.701866670643078
 20
547.6084878185773
 10
22.18092213764229
 20
546.7061854194947
 10
22.000000000000014
 20
545.6801249895176
  0
LWPOLYLINE
  5
6A
330
17
100
AcDbEntity
  8
CUT_INSIDE
100
AcDbPolyline
 90
21
 70
1
 10
70.00000000000001
 20
582.4402008063213
 10
69.99999999999999
 20
334.9889426848071
 10
70.18092213764226
 20
333.9628822548301
 10
70.70186667064306
 20
333.0605798557475
 10
71.49999999999999
 20
332.3908664734538
 10
72.4790554669992
 20
332.0345194257705
 10
73.52094453300077
 20
332.0345194257705
 10
74.49999999999999
 20
332.3908664734538
 10
75.29813332935692
 20
333.0605798557475
 10
75.81907786235772
 20
333.9628822548301
 10
75.99999999999999
 20
334.9889426848071
 10
76.00000000000001
 20
582.4402008063213
 10
75.81907786235774
 20
583.4662612362984
 10
75.29813332935694
 20
584.368563635381
 10
74.50000000000001
 20
585.0382770176747
 10
73.5209445330008
 20
585.3946240653579
 10
72.47905546699923
 20
585.3946240653579
 10
71.50000000000001
 20
585.0382770176747
 10
70.70186667064308
 20
584.368563635381
 10
70.18092213764228
 20
583.4662612362984
 10
70.00000000000001
 20
582.4402008063213
  0
LWPOLYLINE
  5
6B
330
17
100
AcDbEntity
  8
CUT_INSIDE
100
AcDbPolyline
 90
21
 70
1
 10
38.00000000000001
 20
561.3488449201163
 10
37.99999999999999
 20
435.43146337474514
 10
38.18092213764227
 20
434.4054029447682
 10
38.70186667064306
 20
433.5031005456855
 10
39.49999999999999
 20
432.8333871633919
 10
40.4790554669992
 20
432.4770401157085
 10
41.52094453300079
 20
432.4770401157085
 10
42.49999999999999
 20
432.8333871633919
 10
43.29813332935693
 20
433.5031005456855
 10
43.819077862357716
 20
434.4054029447682
 10
43.99999999999999
 20
435.43146337474514
 10
44.00000000000001
 20
561.3488449201163
 10
43.81907786235773
 20
562.3749053500933
 10
43.29813332935694
 20
563.2772077491759
 10
42.50000000000001
 20
563.9469211314696
 10
41.5209445330008
 20
564.303268179153
 10
40.47905546699921
 20
564.303268179153
 10
39.50000000000001
 20
563.9469211314696
 10
38.70186667064307
 20
563.2772077491759
 10
38.180922137642284
 20
562.3749053500933
 10
38.00000000000001
 20
561.3488449201163
  0
LWPOLYLINE
  5
6C
330
17
100
AcDbEntity
  8
CUT_INSIDE
100
AcDbPolyline
 90
21
 70
1
 10
54.0
 20
563.5998972896994
 10
54.0
 20
456.0094361618858
 10
54.18092213764227
 20
454.9833757319088
 10
54.70186667064306
 20
454.0810733328262
 10
55.5
 20
453.41135995053247
 10
56.4790554669992
 20
453.05501290284917
 10
57.52094453300079
 20
453.05501290284917
 10
58.5
 20
453.41135995053247
 10
59.29813332935693
 20
454.0810733328262
 10
59.819077862357716
 20
454.9833757319088
 10
60.0
 20
456.0094361618858
 10
60.0
 20
563.5998972896994
 10
59.81907786235773
 20
564.6259577196763
 10
59.29813332935694
 20
565.5282601187589
 10
58.5
 20
566.1979735010526
 10
57.5209445330008
 20
566.554320548736
 10
56.47905546699921
 20
566.554320548736
 10
55.5
 20
566.1979735010526
 10
54.70186667064307
 20
565.5282601187589
 10
54.180922137642284
 20
564.6259577196763
 10
54.0
 20
563.5998972896994
  0
LWPOLYLINE
  5
6D
330
17
100
AcDbEntity
  8
CUT_INSIDE
100
AcDbPolyline
 90
21
 70
1
 10
102.00000000000001
 20
569.6220651757063
 10
101.99999999999999
 20
403.8149395154395
 10
102.18092213764227
 20
402.78887908546244
 10
102.70186667064306
 20
401.88657668637984
 10
103.49999999999999
 20
401.21686330408613
 10
104.4790554669992
 20
400.86051625640283
 10
105.52094453300079
 20
400.86051625640283
 10
106.49999999999999
 20
401.21686330408613
 10
107.29813332935693
 20
401.88657668637984
 10
107.81907786235772
 20
402.78887908546244
 10
107.99999999999999
 20
403.8149395154395
 10
108.00000000000001
 20
569.6220651757063
 10
107.81907786235773
 20
570.6481256056834
 10
107.29813332935694
 20
571.550428004766
 10
106.50000000000001
 20
572.2201413870597
 10
105.5209445330008
 20
572.5764884347429
 10
104.47905546699921
 20
572.5764884347429
 10
103.50000000000001
 20
572.2201413870597
 10
102.70186667064307
 20
571.550428004766
 10
102.18092213764228
 20
570.6481256056834
 10
102.00000000000001
 20
569.6220651757063
  0
LWPOLYLINE
  5
6E
330
17
100
AcDbEntity
  8
CUT_INSIDE
100
AcDbPolyline
 90
21
 70
1
 10
118.0
 20
564.1871755081854
 10
118.0
 20
472.2435653293653
 10
118.18092213764226
 20
471.2175048993883
 10
118.70186667064306
 20
470.3152025003057
 10
119.5
 20
469.645489118012
 10
120.4790554669992
 20
469.2891420703287
 10
121.52094453300077
 20
469.2891420703287
 10
122.5
 20
469.645489118012
 10
123.29813332935692
 20
470.3152025003057
 10
123.81907786235772
 20
471.2175048993883
 10
124.0
 20
472.2435653293653
 10
124.0
 20
564.1871755081854
 10
123.81907786235774
 20
565.2132359381624
 10
123.29813332935694
 20
566.115538337245
 10
122.5
 20
566.7852517195387
 10
121.5209445330008
 20
567.141598767222
 10
120.47905546699923
 20
567.141598767222
 10
119.5
 20
566.7852517195387
 10
118.70186667064308
 20
566.115538337245
 10
118.18092213764228
 20
565.2132359381624
 10
118.0
 20
564.1871755081854
  0
LWPOLYLINE
  5
6F
330
17
100
AcDbEntity
  8
CUT_INSIDE
100
AcDbPolyline
 90
21
 70
1
 10
86.0
 20
617.6961460576923
 10
86.0
 20
505.4836163456356
 10
86.18092213764227
 20
504.45755591565853
 10
86.70186667064306
 20
503.55525351657593
 10
87.5
 20
502.8855401342822
 10
88.4790554669992
 20
502.529193086599
 10
89.52094453300079
 20
502.529193086599
 10
90.5
 20
502.8855401342822
 10
91.29813332935693
 20
503.55525351657593
 10
91.81907786235772
 20
504.45755591565853
 10
92.0
 20
505.4836163456356
 10
92.0
 20
617.6961460576923
 10
91.81907786235773
 20
618.7222064876694
 10
91.29813332935694
 20
619.624508886752
 10
90.5
 20
620.2942222690457
 10
89.5209445330008
 20
620.6505693167289
 10
88.47905546699921
 20
620.6505693167289
 10
87.5
 20
620.2942222690457
 10
86.70186667064307
 20
619.624508886752
 10
86.18092213764228
 20
618.7222064876694
 10
86.0
 20
617.6961460576923
  0
LWPOLYLINE
  5
70
330
17
100
AcDbEntity
  8
CUT_INSIDE
100
AcDbPolyline
 90
21
 70
1
 10
166.0
 20
571.3074802319735
 10
166.0
 20
317.8639217607339
 10
166.18092213764226
 20
316.8378613307568
 10
166.70186667064306
 20
315.9355589316742
 10
167.49999999999997
 20
315.2658455493805
 10
168.4790554669992
 20
314.90949850169727
 10
169.52094453300077
 20
314.90949850169727
 10
170.49999999999997
 20
315.2658455493805
 10
171.29813332935692
 20
315.9355589316742
 10
171.81907786235772
 20
316.8378613307568
 10
172.0
 20
317.8639217607339
 10
172.0
 20
571.3074802319735
 10
171.81907786235774
 20
572.3335406619506
 10
171.29813332935694
 20
573.2358430610332
 10
170.50000000000003
 20
573.9055564433269
 10
169.5209445330008
 20
574.2619034910101
 10
168.47905546699923
 20
574.2619034910101
 10
167.50000000000003
 20
573.9055564433269
 10
166.70186667064308
 20
573.2358430610332
 10
166.18092213764228
 20
572.3335406619506
 10
166.0
 20
571.3074802319735
  0
LWPOLYLINE
  5
71
330
17
100
AcDbEntity
  8
CUT_INSIDE
100
AcDbPolyline
 90
21
 70
1
 10
214.0
 20
504.56307059420965
 10
214.0
 20
343.4612723636337
 10
214.18092213764226
 20
342.43521193365666
 10
214.70186667064306
 20
341.53290953457406
 10
215.5
 20
340.86319615228035
 10
216.4790554669992
 20
340.50684910459705
 10
217.52094453300077
 20
340.50684910459705
 10
218.5
 20
340.86319615228035
 10
219.29813332935692
 20
341.53290953457406
 10
219.81907786235772
 20
342.43521193365666
 10
220.0
 20
343.4612723636337
 10
220.0
 20
504.56307059420965
 10
219.81907786235774
 20
505.5891310241867
 10
219.29813332935694
 20
506.4914334232693
 10
218.5
 20
507.161146805563
 10
217.5209445330008
 20
507.51749385324626
 10
216.47905546699923
 20
507.51749385324626
 10
215.5
 20
507.161146805563
 10
214.70186667064308
 20
506.4914334232693
 10
214.18092213764228
 20
505.5891310241867
 10
214.0
 20
504.56307059420965
  0
LWPOLYLINE
  5
72
330
17
100
AcDbEntity
  8
CUT_INSIDE
100
AcDbPolyline
 90
21
 70
1
 10
198.0
 20
558.0236466655464
 10
198.0
 20
340.06202320288565
 10
198.18092213764226
 20
339.03596277290865
 10
198.70186667064306
 20
338.13366037382605
 10
199.5
 20
337.46394699153234
 10
200.4790554669992
 20
337.107599943849
 10
201.52094453300077
 20
337.107599943849
 10
202.5
 20
337.46394699153234
 10
203.29813332935692
 20
338.13366037382605
 10
203.81907786235772
 20
339.03596277290865
 10
204.0
 20
340.06202320288565
 10
204.0
 20
558.0236466655464
 10
203.81907786235774
 20
559.0497070955233
 10
203.29813332935694
 20
559.9520094946059
 10
202.5
 20
560.6217228768996
 10
201.5209445330008
 20
560.978069924583
 10
200.47905546699923
 20
560.978069924583
 10
199.5
 20
560.6217228768996
 10
198.70186667064308
 20
559.9520094946059
 10
198.18092213764228
 20
559.0497070955233
 10
198.0
 20
558.0236466655464
  0
LWPOLYLINE
  5
73
330
17
100
AcDbEntity
  8
CUT_INSIDE
100
AcDbPolyline
 90
21
 70
1
 10
230.0
 20
523.3250486476248
 10
230.0
 20
332.7410035853022
 10
230.18092213764226
 20
331.7149431553252
 10
230.70186667064306
 20
330.81264075624256
 10
231.5
 20
330.1429273739489
 10
232.4790554669992
 20
329.7865803262656
 10
233.52094453300077
 20
329.7865803262656
 10
234.5
 20
330.1429273739489
 10
235.29813332935692
 20
330.81264075624256
 10
235.81907786235772
 20
331.7149431553252
 10
236.0
 20
332.7410035853022
 10
236.0
 20
523.3250486476248
 10
235.81907786235774
 20
524.3511090776019
 10
235.29813332935694
 20
525.2534114766845
 10
234.5
 20
525.9231248589782
 10
233.5209445330008
 20
526.2794719066615
 10
232.47905546699923
 20
526.2794719066615
 10
231.5
 20
525.9231248589782
 10
230.70186667064308
 20
525.2534114766845
 10
230.18092213764228
 20
524.3511090776019
 10
230.0
 20
523.3250486476248
  0
LWPOLYLINE
  5
74
330
17
100
AcDbEntity
  8
CUT_INSIDE
100
AcDbPolyline
 90
21
 70
1
 10
150.0
 20
704.9969677866951
 10
150.0
 20
464.922146246032
 10
150.18092213764226
 20
463.896085816055
 10
150.70186667064306
 20
462.9937834169724
 10
151.5
 20
462.3240700346787
 10
152.4790554669992
 20
461.96772298699534
 10
153.52094453300077
 20
461.96772298699534
 10
154.5
 20
462.3240700346787
 10
155.29813332935692
 20
462.9937834169724
 10
155.81907786235772
 20
463.896085816055
 10
156.0
 20
464.922146246032
 10
156.0
 20
704.9969677866951
 10
155.81907786235774
 20
706.0230282166721
 10
155.29813332935694
 20
706.9253306157547
 10
154.5
 20
707.5950439980484
 10
153.5209445330008
 20
707.9513910457317
 10
152.47905546699923
 20
707.9513910457317
 10
151.5
 20
707.5950439980484
 10
150.70186667064308
 20
706.9253306157547
 10
150.18092213764228
 20
706.0230282166721
 10
150.0
 20
704.9969677866951
  0
LWPOLYLINE
  5
75
330
17
100
AcDbEntity
  8
CUT_INSIDE
100
AcDbPolyline
 90
21
 70
1
 10
182.0
 20
725.1565734032902
 10
182.0
 20
485.42478416815175
 10
182.18092213764226
 20
484.39872373817474
 10
182.70186667064306
 20
483.4964213390921
 10
183.5
 20
482.82670795679843
 10
184.4790554669992
 20
482.47036090911513
 10
185.52094453300077
 20
482.47036090911513
 10
186.5
 20
482.82670795679843
 10
187.29813332935692
 20
483.4964213390921
 10
187.81907786235772
 20
484.39872373817474
 10
188.0
 20
485.42478416815175
 10
188.0
 20
725.1565734032902
 10
187.81907786235774
 20
726.1826338332672
 10
187.29813332935694
 20
727.0849362323498
 10
186.5
 20
727.7546496146435
 10
185.5209445330008
 20
728.1109966623268
 10
184.47905546699923
 20
728.1109966623268
 10
183.5
 20
727.7546496146435
 10
182.70186667064308
 20
727.0849362323498
 10
182.18092213764228
 20
726.1826338332672
 10
182.0
 20
725.1565734032902
  0
LWPOLYLINE
  5
76
330
17
100
AcDbEntity
  8
CUT_INSIDE
100
AcDbPolyline
 90
21
 70
1
 10
54.0
 20
699.0180071507032
 10
54.0
 20
593.4791376171572
 10
54.18092213764227
 20
592.4530771871803
 10
54.70186667064306
 20
591.5507747880977
 10
55.5
 20
590.881061405804
 10
56.4790554669992
 20
590.5247143581206
 10
57.52094453300079
 20
590.5247143581206
 10
58.5
 20
590.881061405804
 10
59.29813332935693
 20
591.5507747880977
 10
59.819077862357716
 20
592.4530771871803
 10
60.0
 20
593.4791376171572
 10
60.0
 20
699.0180071507032
 10
59.81907786235773
 20
700.0440675806801
 10
59.29813332935694
 20
700.9463699797627
 10
58.5
 20
701.6160833620564
 10
57.5209445330008
 20
701.9724304097398
 10
56.47905546699921
 20
701.9724304097398
 10
55.5
 20
701.6160833620564
 10
54.70186667064307
 20
700.9463699797627
 10
54.180922137642284
 20
700.0440675806801
 10
54.0
 20
699.0180071507032
  0
LWPOLYLINE
  5
77
330
17
100
AcDbEntity
  8
CUT_INSIDE
100
AcDbPolyline
 90
21
 70
1
 10
38.00000000000001
 20
771.6190206156684
 10
37.99999999999999
 20
590.0490186678912
 10
38.18092213764226
 20
589.0229582379143
 10
38.70186667064306
 20
588.1206558388317
 10
39.499999999999986
 20
587.450942456538
 10
40.4790554669992
 20
587.0945954088546
 10
41.52094453300078
 20
587.0945954088546
 10
42.499999999999986
 20
587.450942456538
 10
43.29813332935692
 20
588.1206558388317
 10
43.819077862357716
 20
589.0229582379143
 10
43.99999999999999
 20
590.0490186678912
 10
44.00000000000001
 20
771.6190206156684
 10
43.81907786235774
 20
772.6450810456454
 10
43.29813332935694
 20
773.547383444728
 10
42.500000000000014
 20
774.2170968270217
 10
41.5209445330008
 20
774.573443874705
 10
40.47905546699922
 20
774.573443874705
 10
39.500000000000014
 20
774.2170968270217
 10
38.70186667064308
 20
773.547383444728
 10
38.180922137642284
 20
772.6450810456454
 10
38.00000000000001
 20
771.6190206156684
  0
LWPOLYLINE
  5
78
330
17
100
AcDbEntity
  8
CUT_INSIDE
100
AcDbPolyline
 90
21
 70
1
 10
22.000000000000014
 20
816.0
 10
21.999999999999986
 20
577.5185021853565
 10
22.180922137642263
 20
576.4924417553796
 10
22.701866670643057
 20
575.5901393562968
 10
23.499999999999986
 20
574.9204259740031
 10
24.4790554669992
 20
574.5640789263199
 10
25.52094453300078
 20
574.5640789263199
 10
26.499999999999986
 20
574.9204259740031
 10
27.298133329356922
 20
575.5901393562968
 10
27.81907786235771
 20
576.4924417553796
 10
27.999999999999986
 20
577.5185021853565
 10
28.000000000000014
 20
816.0
 10
27.819077862357737
 20
817.026060429977
 10
27.298133329356943
 20
817.9283628290597
 10
26.500000000000014
 20
818.5980762113534
 10
25.5209445330008
 20
818.9544232590366
 10
24.47905546699922
 20
818.9544232590366
 10
23.500000000000014
 20
818.5980762113534
 10
22.701866670643078
 20
817.9283628290597
 10
22.18092213764229
 20
817.026060429977
 10
22.000000000000014
 20
816.0
  0
LWPOLYLINE
  5
79
330
17
100
AcDbEntity
  8
CUT_INSIDE
100
AcDbPolyline
 90
21
 70
1
 10
70.00000000000001
 20
810.298957440855
 10
69.99999999999999
 20
611.0677763082542
 10
70.18092213764227
 20
610.0417158782773
 10
70.70186667064306
 20
609.1394134791947
 10
71.49999999999999
 20
608.469700096901
 10
72.4790554669992
 20
608.1133530492176
 10
73.52094453300077
 20
608.1133530492176
 10
74.49999999999999
 20
608.469700096901
 10
75.29813332935693
 20
609.1394134791947
 10
75.81907786235772
 20
610.0417158782773
 10
75.99999999999999
 20
611.0677763082542
 10
76.00000000000001
 20
810.298957440855
 10
75.81907786235773
 20
811.325017870832
 10
75.29813332935694
 20
812.2273202699146
 10
74.50000000000001
 20
812.8970336522083
 10
73.5209445330008
 20
813.2533806998916
 10
72.47905546699923
 20
813.2533806998916
 10
71.50000000000001
 20
812.8970336522083
 10
70.70186667064307
 20
812.2273202699146
 10
70.18092213764228
 20
811.325017870832
 10
70.00000000000001
 20
810.298957440855
  0
LWPOLYLINE
  5
7A
330
17
100
AcDbEntity
  8
CUT_INSIDE
100
AcDbPolyline
 90
21
 70
1
 10
102.0
 20
694.5869293430451
 10
102.0
 20
600.8967713219608
 10
102.18092213764227
 20
599.8707108919838
 10
102.70186667064306
 20
598.9684084929012
 10
103.5
 20
598.2986951106075
 10
104.4790554669992
 20
597.9423480629242
 10
105.52094453300079
 20
597.9423480629242
 10
106.5
 20
598.2986951106075
 10
107.29813332935693
 20
598.9684084929012
 10
107.81907786235772
 20
599.8707108919838
 10
108.0
 20
600.8967713219608
 10
108.0
 20
694.5869293430451
 10
107.81907786235773
 20
695.6129897730222
 10
107.29813332935694
 20
696.5152921721048
 10
106.5
 20
697.1850055543985
 10
105.5209445330008
 20
697.5413526020817
 10
104.47905546699921
 20
697.5413526020817
 10
103.5
 20
697.1850055543985
 10
102.70186667064307
 20
696.5152921721048
 10
102.18092213764228
 20
695.6129897730222
 10
102.0
 20
694.5869293430451
  0
LWPOLYLINE
  5
7B
330
17
100
AcDbEntity
  8
CUT_INSIDE
100
AcDbPolyline
 90
21
 70
1
 10
134.0
 20
733.4215337595874
 10
134.0
 20
517.5690212607583
 10
134.18092213764226
 20
516.5429608307812
 10
134.70186667064306
 20
515.6406584316986
 10
135.5
 20
514.9709450494049
 10
136.4790554669992
 20
514.6145980017217
 10
137.52094453300077
 20
514.6145980017217
 10
138.5
 20
514.9709450494049
 10
139.29813332935692
 20
515.6406584316986
 10
139.81907786235772
 20
516.5429608307812
 10
140.0
 20
517.5690212607583
 10
140.0
 20
733.4215337595874
 10
139.81907786235774
 20
734.4475941895645
 10
139.29813332935694
 20
735.3498965886471
 10
138.5
 20
736.0196099709408
 10
137.5209445330008
 20
736.375957018624
 10
136.47905546699923
 20
736.375957018624
 10
135.5
 20
736.0196099709408
 10
134.70186667064308
 20
735.3498965886471
 10
134.18092213764228
 20
734.4475941895645
 10
134.0
 20
733.4215337595874
  0
LWPOLYLINE
  5
7C
330
17
100
AcDbEntity
  8
CUT_INSIDE
100
AcDbPolyline
 90
21
 70
1
 10
86.0
 20
735.1011278842082
 10
86.0
 20
640.0273766103433
 10
86.18092213764227
 20
639.0013161803662
 10
86.70186667064306
 20
638.0990137812836
 10
87.5
 20
637.4293003989899
 10
88.4790554669992
 20
637.0729533513066
 10
89.52094453300079
 20
637.0729533513066
 10
90.5
 20
637.4293003989899
 10
91.29813332935693
 20
638.0990137812836
 10
91.81907786235772
 20
639.0013161803662
 10
92.0
 20
640.0273766103433
 10
92.0
 20
735.1011278842082
 10
91.81907786235773
 20
736.1271883141852
 10
91.29813332935694
 20
737.0294907132678
 10
90.5
 20
737.6992040955615
 10
89.5209445330008
 20
738.0555511432448
 10
88.47905546699921
 20
738.0555511432448
 10
87.5
 20
737.6992040955615
 10
86.70186667064307
 20
737.0294907132678
 10
86.18092213764228
 20
736.1271883141852
 10
86.0
 20
735.1011278842082
  0
LWPOLYLINE
  5
7D
330
17
100
AcDbEntity
  8
CUT_INSIDE
100
AcDbPolyline
 90
21
 70
1
 10
118.0
 20
816.0
 10
118.0
 20
587.0818873154021
 10
118.18092213764226
 20
586.0558268854252
 10
118.70186667064306
 20
585.1535244863426
 10
119.5
 20
584.4838111040489
 10
120.4790554669992
 20
584.1274640563655
 10
121.52094453300077
 20
584.1274640563655
 10
122.5
 20
584.4838111040489
 10
123.29813332935692
 20
585.1535244863426
 10
123.81907786235772
 20
586.0558268854252
 10
124.0
 20
587.0818873154021
 10
124.0
 20
816.0
 10
123.81907786235774
 20
817.026060429977
 10
123.29813332935694
 20
817.9283628290596
 10
122.5
 20
818.5980762113533
 10
121.5209445330008
 20
818.9544232590366
 10
120.47905546699923
 20
818.9544232590366
 10
119.5
 20
818.5980762113533
 10
118.70186667064308
 20
817.9283628290596
 10
118.18092213764228
 20
817.026060429977
 10
118.0
 20
816.0
  0
LWPOLYLINE
  5
7E
330
17
100
AcDbEntity
  8
CUT_INSIDE
100
AcDbPolyline
 90
21
 70
1
 10
54.0
 20
816.0
 10
54.0
 20
719.0464049459438
 10
54.18092213764227
 20
718.0203445159667
 10
54.70186667064306
 20
717.1180421168841
 10
55.5
 20
716.4483287345904
 10
56.4790554669992
 20
716.091981686907
 10
57.52094453300079
 20
716.091981686907
 10
58.5
 20
716.4483287345904
 10
59.29813332935693
 20
717.1180421168841
 10
59.819077862357716
 20
718.0203445159667
 10
60.0
 20
719.0464049459438
 10
60.0
 20
816.0
 10
59.81907786235773
 20
817.0260604299771
 10
59.29813332935694
 20
817.9283628290597
 10
58.5
 20
818.5980762113534
 10
57.5209445330008
 20
818.9544232590367
 10
56.47905546699921
 20
818.9544232590367
 10
55.5
 20
818.5980762113534
 10
54.70186667064307
 20
817.9283628290597
 10
54.180922137642284
 20
817.0260604299771
 10
54.0
 20
816.0
  0
LWPOLYLINE
  5
7F
330
17
100
AcDbEntity
  8
CUT_INSIDE
100
AcDbPolyline
 90
21
 70
1
 10
86.0
 20
816.0
 10
86.0
 20
759.9228734965195
 10
86.18092213764227
 20
758.8968130665426
 10
86.70186667064306
 20
757.99451066746
 10
87.5
 20
757.3247972851663
 10
88.47905546699921
 20
756.9684502374829
 10
89.52094453300079
 20
756.9684502374829
 10
90.5
 20
757.3247972851663
 10
91.29813332935693
 20
757.99451066746
 10
91.81907786235772
 20
758.8968130665426
 10
92.0
 20
759.9228734965195
 10
92.0
 20
816.0
 10
91.81907786235773
 20
817.026060429977
 10
91.29813332935694
 20
817.9283628290596
 10
90.5
 20
818.5980762113533
 10
89.52094453300079
 20
818.9544232590366
 10
88.47905546699921
 20
818.9544232590366
 10
87.5
 20
818.5980762113533
 10
86.70186667064307
 20
817.9283628290596
 10
86.18092213764228
 20
817.026060429977
 10
86.0
 20
816.0
  0
LWPOLYLINE
  5
80
330
17
100
AcDbEntity
  8
CUT_INSIDE
100
AcDbPolyline
 90
21
 70
1
 10
102.0
 20
816.0
 10
102.0
 20
730.1885223533529
 10
102.18092213764227
 20
729.162461923376
 10
102.70186667064306
 20
728.2601595242933
 10
103.5
 20
727.5904461419996
 10
104.4790554669992
 20
727.2340990943163
 10
105.52094453300079
 20
727.2340990943163
 10
106.5
 20
727.5904461419996
 10
107.29813332935693
 20
728.2601595242933
 10
107.81907786235772
 20
729.162461923376
 10
108.0
 20
730.1885223533529
 10
108.0
 20
816.0
 10
107.81907786235773
 20
817.026060429977
 10
107.29813332935694
 20
817.9283628290597
 10
106.5
 20
818.5980762113534
 10
105.5209445330008
 20
818.9544232590366
 10
104.47905546699921
 20
818.9544232590366
 10
103.5
 20
818.5980762113534
 10
102.70186667064307
 20
817.9283628290597
 10
102.18092213764228
 20
817.026060429977
 10
102.0
 20
816.0
  0
LWPOLYLINE
  5
81
330
17
100
AcDbEntity
  8
CUT_INSIDE
100
AcDbPolyline
 90
21
 70
1
 10
134.0
 20
816.0
 10
134.0
 20
755.1503796646248
 10
134.18092213764228
 20
754.1243192346478
 10
134.70186667064306
 20
753.2220168355651
 10
135.5
 20
752.5523034532714
 10
136.4790554669992
 20
752.1959564055882
 10
137.5209445330008
 20
752.1959564055882
 10
138.5
 20
752.5523034532714
 10
139.29813332935694
 20
753.2220168355651
 10
139.81907786235772
 20
754.1243192346478
 10
140.0
 20
755.1503796646248
 10
140.0
 20
816.0
 10
139.81907786235772
 20
817.026060429977
 10
139.29813332935694
 20
817.9283628290597
 10
138.5
 20
818.5980762113534
 10
137.5209445330008
 20
818.9544232590366
 10
136.4790554669992
 20
818.9544232590366
 10
135.5
 20
818.5980762113534
 10
134.70186667064306
 20
817.9283628290597
 10
134.18092213764228
 20
817.026060429977
 10
134.0
 20
816.0
  0
LWPOLYLINE
  5
82
330
17
100
AcDbEntity
  8
CUT_INSIDE
100
AcDbPolyline
 90
21
 70
1
 10
166.0
 20
686.1458194660052
 10
166.0
 20
593.8919516627675
 10
166.18092213764226
 20
592.8658912327905
 10
166.70186667064306
 20
591.963588833708
 10
167.5
 20
591.2938754514142
 10
168.4790554669992
 20
590.9375284037309
 10
169.52094453300077
 20
590.9375284037309
 10
170.5
 20
591.2938754514142
 10
171.29813332935692
 20
591.963588833708
 10
171.81907786235772
 20
592.8658912327905
 10
172.0
 20
593.8919516627675
 10
172.0
 20
686.1458194660052
 10
171.81907786235774
 20
687.1718798959821
 10
171.29813332935694
 20
688.0741822950647
 10
170.5
 20
688.7438956773584
 10
169.5209445330008
 20
689.1002427250418
 10
168.47905546699923
 20
689.1002427250418
 10
167.5
 20
688.7438956773584
 10
166.70186667064308
 20
688.0741822950647
 10
166.18092213764228
 20
687.1718798959821
 10
166.0
 20
686.1458194660052
  0
LWPOLYLINE
  5
83
330
17
100
AcDbEntity
  8
CUT_INSIDE
100
AcDbPolyline
 90
21
 70
1
 10
214.0
 20
740.3894679314587
 10
214.0
 20
532.3736145710934
 10
214.18092213764226
 20
531.3475541411165
 10
214.70186667064306
 20
530.4452517420339
 10
215.5
 20
529.7755383597402
 10
216.4790554669992
 20
529.4191913120568
 10
217.52094453300077
 20
529.4191913120568
 10
218.5
 20
529.7755383597402
 10
219.29813332935692
 20
530.4452517420339
 10
219.81907786235772
 20
531.3475541411165
 10
220.0
 20
532.3736145710934
 10
220.0
 20
740.3894679314587
 10
219.81907786235774
 20
741.4155283614357
 10
219.29813332935694
 20
742.3178307605183
 10
218.5
 20
742.987544142812
 10
217.5209445330008
 20
743.3438911904954
 10
216.47905546699923
 20
743.3438911904954
 10
215.5
 20
742.987544142812
 10
214.70186667064308
 20
742.3178307605183
 10
214.18092213764228
 20
741.4155283614357
 10
214.0
 20
740.3894679314587
  0
LWPOLYLINE
  5
84
330
17
100
AcDbEntity
  8
CUT_INSIDE
100
AcDbPolyline
 90
21
 70
1
 10
198.0
 20
737.6041188227769
 10
198.0
 20
579.7297364207025
 10
198.18092213764226
 20
578.7036759907255
 10
198.70186667064306
 20
577.8013735916429
 10
199.5
 20
577.1316602093492
 10
200.4790554669992
 20
576.7753131616658
 10
201.52094453300077
 20
576.7753131616658
 10
202.5
 20
577.1316602093492
 10
203.29813332935692
 20
577.8013735916429
 10
203.81907786235772
 20
578.7036759907255
 10
204.0
 20
579.7297364207025
 10
204.0
 20
737.6041188227769
 10
203.81907786235774
 20
738.6301792527538
 10
203.29813332935694
 20
739.5324816518364
 10
202.5
 20
740.2021950341301
 10
201.5209445330008
 20
740.5585420818135
 10
200.47905546699923
 20
740.5585420818135
 10
199.5
 20
740.2021950341301
 10
198.70186667064308
 20
739.5324816518364
 10
198.18092213764228
 20
738.6301792527538
 10
198.0
 20
737.6041188227769
  0
LWPOLYLINE
  5
85
330
17
100
AcDbEntity
  8
CUT_INSIDE
100
AcDbPolyline
 90
21
 70
1
 10
230.0
 20
692.8555971047201
 10
230.0
 20
551.3142078582828
 10
230.18092213764226
 20
550.2881474283058
 10
230.70186667064306
 20
549.3858450292232
 10
231.5
 20
548.7161316469295
 10
232.4790554669992
 20
548.3597845992462
 10
233.52094453300077
 20
548.3597845992462
 10
234.5
 20
548.7161316469295
 10
235.29813332935692
 20
549.3858450292232
 10
235.81907786235772
 20
550.2881474283058
 10
236.0
 20
551.3142078582828
 10
236.0
 20
692.8555971047201
 10
235.81907786235774
 20
693.8816575346971
 10
235.29813332935694
 20
694.7839599337797
 10
234.5
 20
695.4536733160734
 10
233.5209445330008
 20
695.8100203637567
 10
232.47905546699923
 20
695.8100203637567
 10
231.5
 20
695.4536733160734
 10
230.70186667064308
 20
694.7839599337797
 10
230.18092213764228
 20
693.8816575346971
 10
230.0
 20
692.8555971047201
  0
LWPOLYLINE
  5
86
330
17
100
AcDbEntity
  8
CUT_INSIDE
100
AcDbPolyline
 90
21
 70
1
 10
246.0
 20
740.3781523158038
 10
246.0
 20
527.2395671210907
 10
246.18092213764226
 20
526.2135066911136
 10
246.70186667064303
 20
525.311204292031
 10
247.5
 20
524.6414909097373
 10
248.47905546699917
 20
524.285143862054
 10
249.52094453300077
 20
524.285143862054
 10
250.5
 20
524.6414909097373
 10
251.29813332935692
 20
525.311204292031
 10
251.8190778623577
 20
526.2135066911136
 10
252.0
 20
527.2395671210907
 10
252.0
 20
740.3781523158038
 10
251.81907786235774
 20
741.4042127457809
 10
251.29813332935697
 20
742.3065151448635
 10
250.5
 20
742.9762285271572
 10
249.52094453300083
 20
743.3325755748405
 10
248.47905546699923
 20
743.3325755748405
 10
247.5
 20
742.9762285271572
 10
246.70186667064308
 20
742.3065151448635
 10
246.1809221376423
 20
741.4042127457809
 10
246.0
 20
740.3781523158038
  0
LWPOLYLINE
  5
87
330
17
100
AcDbEntity
  8
CUT_INSIDE
100
AcDbPolyline
 90
21
 70
1
 10
166.0
 20
816.0
 10
166.0
 20
721.9330052065534
 10
166.18092213764226
 20
720.9069447765764
 10
166.70186667064306
 20
720.0046423774937
 10
167.5
 20
719.3349289952
 10
168.4790554669992
 20
718.9785819475168
 10
169.52094453300077
 20
718.9785819475168
 10
170.5
 20
719.3349289952
 10
171.29813332935692
 20
720.0046423774937
 10
171.81907786235772
 20
720.9069447765764
 10
172.0
 20
721.9330052065534
 10
172.0
 20
816.0
 10
171.81907786235774
 20
817.026060429977
 10
171.29813332935694
 20
817.9283628290597
 10
170.5
 20
818.5980762113534
 10
169.5209445330008
 20
818.9544232590366
 10
168.47905546699923
 20
818.9544232590366
 10
167.5
 20
818.5980762113534
 10
166.70186667064308
 20
817.9283628290597
 10
166.18092213764228
 20
817.026060429977
 10
166.0
 20
816.0
  0
LWPOLYLINE
  5
88
330
17
100
AcDbEntity
  8
CUT_INSIDE
100
AcDbPolyline
 90
21
 70
1
 10
150.0
 20
816.0
 10
150.0
 20
730.4363202127086
 10
150.18092213764226
 20
729.4102597827316
 10
150.70186667064306
 20
728.5079573836489
 10
151.5
 20
727.8382440013552
 10
152.4790554669992
 20
727.4818969536719
 10
153.52094453300077
 20
727.4818969536719
 10
154.5
 20
727.8382440013552
 10
155.29813332935692
 20
728.5079573836489
 10
155.81907786235772
 20
729.4102597827316
 10
156.0
 20
730.4363202127086
 10
156.0
 20
816.0
 10
155.81907786235774
 20
817.026060429977
 10
155.29813332935694
 20
817.9283628290597
 10
154.5
 20
818.5980762113534
 10
153.5209445330008
 20
818.9544232590366
 10
152.47905546699923
 20
818.9544232590366
 10
151.5
 20
818.5980762113534
 10
150.70186667064308
 20
817.9283628290597
 10
150.18092213764228
 20
817.026060429977
 10
150.0
 20
816.0
  0
LWPOLYLINE
  5
89
330
17
100
AcDbEntity
  8
CUT_INSIDE
100
AcDbPolyline
 90
21
 70
1
 10
182.0
 20
816.0
 10
182.0
 20
745.6801129227986
 10
182.18092213764228
 20
744.6540524928216
 10
182.70186667064306
 20
743.7517500937389
 10
183.5
 20
743.0820367114452
 10
184.4790554669992
 20
742.725689663762
 10
185.52094453300077
 20
742.725689663762
 10
186.5
 20
743.0820367114452
 10
187.29813332935694
 20
743.7517500937389
 10
187.81907786235772
 20
744.6540524928216
 10
188.0
 20
745.6801129227986
 10
188.0
 20
816.0
 10
187.81907786235772
 20
817.026060429977
 10
187.29813332935694
 20
817.9283628290597
 10
186.5
 20
818.5980762113534
 10
185.5209445330008
 20
818.9544232590366
 10
184.47905546699923
 20
818.9544232590366
 10
183.5
 20
818.5980762113534
 10
182.70186667064306
 20
817.9283628290597
 10
182.18092213764228
 20
817.026060429977
 10
182.0
 20
816.0
  0
LWPOLYLINE
  5
8A
330
17
100
AcDbEntity
  8
CUT_INSIDE
100
AcDbPolyline
 90
21
 70
1
 10
230.0
 20
816.0
 10
230.0
 20
714.2817957650773
 10
230.18092213764226
 20
713.2557353351003
 10
230.70186667064306
 20
712.3534329360176
 10
231.5
 20
711.6837195537239
 10
232.4790554669992
 20
711.3273725060407
 10
233.52094453300077
 20
711.3273725060407
 10
234.5
 20
711.6837195537239
 10
235.29813332935692
 20
712.3534329360176
 10
235.81907786235772
 20
713.2557353351003
 10
236.0
 20
714.2817957650773
 10
236.0
 20
816.0
 10
235.81907786235774
 20
817.026060429977
 10
235.29813332935694
 20
817.9283628290597
 10
234.5
 20
818.5980762113534
 10
233.5209445330008
 20
818.9544232590366
 10
232.47905546699923
 20
818.9544232590366
 10
231.5
 20
818.5980762113534
 10
230.70186667064308
 20
817.9283628290597
 10
230.18092213764228
 20
817.026060429977
 10
230.0
 20
816.0
  0
LWPOLYLINE
  5
8B
330
17
100
AcDbEntity
  8
CUT_INSIDE
100
AcDbPolyline
 90
21
 70
1
 10
198.0
 20
816.0
 10
198.0
 20
759.9920443354208
 10
198.18092213764228
 20
758.9659839054439
 10
198.70186667064306
 20
758.0636815063613
 10
199.5
 20
757.3939681240676
 10
200.4790554669992
 20
757.0376210763842
 10
201.5209445330008
 20
757.0376210763842
 10
202.5
 20
757.3939681240676
 10
203.29813332935694
 20
758.0636815063613
 10
203.81907786235772
 20
758.9659839054439
 10
204.0
 20
759.9920443354208
 10
204.0
 20
816.0
 10
203.81907786235772
 20
817.026060429977
 10
203.29813332935694
 20
817.9283628290596
 10
202.5
 20
818.5980762113533
 10
201.5209445330008
 20
818.9544232590366
 10
200.4790554669992
 20
818.9544232590366
 10
199.5
 20
818.5980762113533
 10
198.70186667064306
 20
817.9283628290596
 10
198.18092213764228
 20
817.026060429977
 10
198.0
 20
816.0
  0
LWPOLYLINE
  5
8C
330
17
100
AcDbEntity
  8
CUT_INSIDE
100
AcDbPolyline
 90
21
 70
1
 10
214.0
 20
816.0
 10
214.0
 20
768.054147133781
 10
214.18092213764228
 20
767.0280867038041
 10
214.70186667064306
 20
766.1257843047214
 10
215.5
 20
765.4560709224277
 10
216.4790554669992
 20
765.0997238747444
 10
217.5209445330008
 20
765.0997238747444
 10
218.5
 20
765.4560709224277
 10
219.29813332935694
 20
766.1257843047214
 10
219.81907786235772
 20
767.0280867038041
 10
220.0
 20
768.054147133781
 10
220.0
 20
816.0
 10
219.81907786235772
 20
817.026060429977
 10
219.29813332935694
 20
817.9283628290597
 10
218.5
 20
818.5980762113534
 10
217.5209445330008
 20
818.9544232590366
 10
216.4790554669992
 20
818.9544232590366
 10
215.5
 20
818.5980762113534
 10
214.70186667064306
 20
817.9283628290597
 10
214.18092213764228
 20
817.026060429977
 10
214.0
 20
816.0
  0
LWPOLYLINE
  5
8D
330
17
100
AcDbEntity
  8
CUT_INSIDE
100
AcDbPolyline
 90
21
 70
1
 10
246.0
 20
816.0
 10
246.0
 20
766.1930605293376
 10
246.18092213764226
 20
765.1670000993606
 10
246.70186667064308
 20
764.2646977002779
 10
247.5
 20
763.5949843179842
 10
248.47905546699923
 20
763.238637270301
 10
249.52094453300077
 20
763.238637270301
 10
250.5
 20
763.5949843179842
 10
251.29813332935692
 20
764.2646977002779
 10
251.81907786235774
 20
765.1670000993606
 10
252.0
 20
766.1930605293376
 10
252.0
 20
816.0
 10
251.81907786235774
 20
817.026060429977
 10
251.29813332935692
 20
817.9283628290597
 10
250.5
 20
818.5980762113534
 10
249.52094453300077
 20
818.9544232590366
 10
248.47905546699923
 20
818.9544232590366
 10
247.5
 20
818.5980762113534
 10
246.70186667064308
 20
817.9283628290597
 10
246.18092213764226
 20
817.026060429977
 10
246.0
 20
816.0
  0
LWPOLYLINE
  5
8E
330
17
100
AcDbEntity
  8
CUT_INSIDE
100
AcDbPolyline
 90
21
 70
1
 10
294.0
 20
555.2182463999526
 10
294.0
 20
308.61044531396135
 10
294.18092213764226
 20
307.58438488398434
 10
294.701866670643
 20
306.68208248490174
 10
295.5
 20
306.01236910260803
 10
296.47905546699917
 20
305.65602205492473
 10
297.5209445330008
 20
305.65602205492473
 10
298.5
 20
306.01236910260803
 10
299.2981333293569
 20
306.68208248490174
 10
299.8190778623577
 20
307.58438488398434
 10
300.0
 20
308.61044531396135
 10
300.0
 20
555.2182463999526
 10
299.81907786235774
 20
556.2443068299295
 10
299.298133329357
 20
557.1466092290123
 10
298.5
 20
557.8163226113058
 10
297.52094453300083
 20
558.1726696589892
 10
296.4790554669992
 20
558.1726696589892
 10
295.5
 20
557.8163226113058
 10
294.7018666706431
 20
557.1466092290123
 10
294.1809221376423
 20
556.2443068299295
 10
294.0
 20
555.2182463999526
  0
LWPOLYLINE
  5
8F
330
17
100
AcDbEntity
  8
CUT_INSIDE
100
AcDbPolyline
 90
21
 70
1
 10
342.0
 20
567.6963163092698
 10
342.0
 20
452.83329006245003
 10
342.18092213764226
 20
451.807229632473
 10
342.7018666706431
 20
450.9049272333904
 10
343.5
 20
450.2352138510967
 10
344.4790554669992
 20
449.8788668034134
 10
345.5209445330008
 20
449.8788668034134
 10
346.5
 20
450.2352138510967
 10
347.2981333293569
 20
450.9049272333904
 10
347.81907786235774
 20
451.807229632473
 10
348.0
 20
452.83329006245003
 10
348.0
 20
567.6963163092698
 10
347.81907786235774
 20
568.7223767392468
 10
347.2981333293569
 20
569.6246791383294
 10
346.5
 20
570.2943925206231
 10
345.5209445330008
 20
570.6507395683064
 10
344.4790554669992
 20
570.6507395683064
 10
343.5
 20
570.2943925206231
 10
342.7018666706431
 20
569.6246791383294
 10
342.18092213764226
 20
568.7223767392468
 10
342.0
 20
567.6963163092698
  0
LWPOLYLINE
  5
90
330
17
100
AcDbEntity
  8
CUT_INSIDE
100
AcDbPolyline
 90
21
 70
1
 10
310.0
 20
623.0549432711314
 10
310.0
 20
509.84439498310894
 10
310.18092213764226
 20
508.8183345531319
 10
310.7018666706431
 20
507.9160321540493
 10
311.5
 20
507.24631877175557
 10
312.4790554669992
 20
506.8899717240722
 10
313.5209445330008
 20
506.8899717240722
 10
314.5
 20
507.24631877175557
 10
315.2981333293569
 20
507.9160321540493
 10
315.81907786235774
 20
508.8183345531319
 10
316.0
 20
509.84439498310894
 10
316.0
 20
623.0549432711314
 10
315.81907786235774
 20
624.0810037011084
 10
315.2981333293569
 20
624.983306100191
 10
314.5
 20
625.6530194824848
 10
313.5209445330008
 20
626.0093665301681
 10
312.4790554669992
 20
626.0093665301681
 10
311.5
 20
625.6530194824848
 10
310.7018666706431
 20
624.983306100191
 10
310.18092213764226
 20
624.0810037011084
 10
310.0
 20
623.0549432711314
  0
LWPOLYLINE
  5
91
330
17
100
AcDbEntity
  8
CUT_INSIDE
100
AcDbPolyline
 90
21
 70
1
 10
358.0
 20
626.4727907836661
 10
358.0
 20
472.76559728022517
 10
358.18092213764226
 20
471.73953685024816
 10
358.7018666706431
 20
470.83723445116556
 10
359.5
 20
470.16752106887185
 10
360.4790554669992
 20
469.81117402118855
 10
361.5209445330008
 20
469.81117402118855
 10
362.5
 20
470.16752106887185
 10
363.2981333293569
 20
470.83723445116556
 10
363.81907786235774
 20
471.73953685024816
 10
364.0
 20
472.76559728022517
 10
364.0
 20
626.4727907836661
 10
363.81907786235774
 20
627.4988512136431
 10
363.2981333293569
 20
628.4011536127258
 10
362.5
 20
629.0708669950195
 10
361.5209445330008
 20
629.4272140427028
 10
360.4790554669992
 20
629.4272140427028
 10
359.5
 20
629.0708669950195
 10
358.7018666706431
 20
628.4011536127258
 10
358.18092213764226
 20
627.4988512136431
 10
358.0
 20
626.4727907836661
  0
LWPOLYLINE
  5
92
330
17
100
AcDbEntity
  8
CUT_INSIDE
100
AcDbPolyline
 90
21
 70
1
 10
326.0
 20
642.6878110003839
 10
326.0
 20
531.483889475977
 10
326.18092213764226
 20
530.457829046
 10
326.7018666706431
 20
529.5555266469173
 10
327.5
 20
528.8858132646237
 10
328.4790554669992
 20
528.5294662169404
 10
329.5209445330008
 20
528.5294662169404
 10
330.5
 20
528.8858132646237
 10
331.2981333293569
 20
529.5555266469173
 10
331.81907786235774
 20
530.457829046
 10
332.0
 20
531.483889475977
 10
332.0
 20
642.6878110003839
 10
331.81907786235774
 20
643.7138714303609
 10
331.2981333293569
 20
644.6161738294436
 10
330.5
 20
645.2858872117372
 10
329.5209445330008
 20
645.6422342594205
 10
328.4790554669992
 20
645.6422342594205
 10
327.5
 20
645.2858872117372
 10
326.7018666706431
 20
644.6161738294436
 10
326.18092213764226
 20
643.7138714303609
 10
326.0
 20
642.6878110003839
  0
LWPOLYLINE
  5
93
330
17
100
AcDbEntity
  8
CUT_INSIDE
100
AcDbPolyline
 90
21
 70
1
 10
374.0
 20
604.8745661737657
 10
374.0
 20
357.9634805400178
 10
374.18092213764226
 20
356.9374201100408
 10
374.701866670643
 20
356.03511771095816
 10
375.5
 20
355.3654043286645
 10
376.47905546699917
 20
355.0090572809812
 10
377.5209445330008
 20
355.0090572809812
 10
378.5
 20
355.3654043286645
 10
379.2981333293569
 20
356.03511771095816
 10
379.8190778623577
 20
356.9374201100408
 10
380.0
 20
357.9634805400178
 10
380.0
 20
604.8745661737657
 10
379.81907786235774
 20
605.9006266037428
 10
379.298133329357
 20
606.8029290028254
 10
378.5
 20
607.4726423851191
 10
377.52094453300083
 20
607.8289894328024
 10
376.4790554669992
 20
607.8289894328024
 10
375.5
 20
607.4726423851191
 10
374.7018666706431
 20
606.8029290028254
 10
374.1809221376423
 20
605.9006266037428
 10
374.0
 20
604.8745661737657
  0
LWPOLYLINE
  5
94
330
17
100
AcDbEntity
  8
CUT_INSIDE
100
AcDbPolyline
 90
21
 70
1
 10
406.0
 20
614.3666069456697
 10
406.0
 20
378.8487042888012
 10
406.18092213764226
 20
377.82264385882416
 10
406.701866670643
 20
376.92034145974156
 10
407.5
 20
376.25062807744786
 10
408.47905546699917
 20
375.89428102976456
 10
409.5209445330008
 20
375.89428102976456
 10
410.5
 20
376.25062807744786
 10
411.2981333293569
 20
376.92034145974156
 10
411.8190778623577
 20
377.82264385882416
 10
412.0
 20
378.8487042888012
 10
412.0
 20
614.3666069456697
 10
411.81907786235774
 20
615.3926673756466
 10
411.298133329357
 20
616.2949697747293
 10
410.5
 20
616.964683157023
 10
409.52094453300083
 20
617.3210302047063
 10
408.4790554669992
 20
617.3210302047063
 10
407.5
 20
616.964683157023
 10
406.7018666706431
 20
616.2949697747293
 10
406.1809221376423
 20
615.3926673756466
 10
406.0
 20
614.3666069456697
  0
LWPOLYLINE
  5
95
330
17
100
AcDbEntity
  8
CUT_INSIDE
100
AcDbPolyline
 90
21
 70
1
 10
486.0
 20
559.3027162731041
 10
486.0
 20
432.39081514146824
 10
486.18092213764226
 20
431.36475471149123
 10
486.7018666706431
 20
430.46245231240863
 10
487.5
 20
429.7927389301149
 10
488.4790554669992
 20
429.4363918824316
 10
489.5209445330008
 20
429.4363918824316
 10
490.5
 20
429.7927389301149
 10
491.2981333293569
 20
430.46245231240863
 10
491.81907786235774
 20
431.36475471149123
 10
492.0
 20
432.39081514146824
 10
492.0
 20
559.3027162731041
 10
491.81907786235774
 20
560.3287767030811
 10
491.2981333293569
 20
561.2310791021638
 10
490.5
 20
561.9007924844575
 10
489.5209445330008
 20
562.2571395321407
 10
488.4790554669992
 20
562.2571395321407
 10
487.5
 20
561.9007924844575
 10
486.7018666706431
 20
561.2310791021638
 10
486.18092213764226
 20
560.3287767030811
 10
486.0
 20
559.3027162731041
  0
LWPOLYLINE
  5
96
330
17
100
AcDbEntity
  8
CUT_INSIDE
100
AcDbPolyline
 90
21
 70
1
 10
390.0
 20
646.374963141294
 10
390.0
 20
397.815486969807
 10
390.18092213764226
 20
396.78942653983
 10
390.701866670643
 20
395.8871241407474
 10
391.5
 20
395.2174107584537
 10
392.47905546699917
 20
394.8610637107704
 10
393.5209445330008
 20
394.8610637107704
 10
394.5
 20
395.2174107584537
 10
395.2981333293569
 20
395.8871241407474
 10
395.8190778623577
 20
396.78942653983
 10
396.0
 20
397.815486969807
 10
396.0
 20
646.374963141294
 10
395.81907786235774
 20
647.401023571271
 10
395.298133329357
 20
648.3033259703536
 10
394.5
 20
648.9730393526472
 10
393.52094453300083
 20
649.3293864003306
 10
392.4790554669992
 20
649.3293864003306
 10
391.5
 20
648.9730393526472
 10
390.7018666706431
 20
648.3033259703536
 10
390.1809221376423
 20
647.401023571271
 10
390.0
 20
646.374963141294
  0
LWPOLYLINE
  5
97
330
17
100
AcDbEntity
  8
CUT_INSIDE
100
AcDbPolyline
 90
21
 70
1
 10
422.0
 20
658.4936524309325
 10
422.0
 20
530.3234612474365
 10
422.18092213764226
 20
529.2974008174594
 10
422.7018666706431
 20
528.3950984183768
 10
423.5
 20
527.7253850360833
 10
424.4790554669992
 20
527.3690379883999
 10
425.5209445330008
 20
527.3690379883999
 10
426.5
 20
527.7253850360833
 10
427.2981333293569
 20
528.3950984183768
 10
427.81907786235774
 20
529.2974008174594
 10
428.0
 20
530.3234612474365
 10
428.0
 20
658.4936524309325
 10
427.81907786235774
 20
659.5197128609095
 10
427.2981333293569
 20
660.4220152599921
 10
426.5
 20
661.0917286422857
 10
425.5209445330008
 20
661.4480756899691
 10
424.4790554669992
 20
661.4480756899691
 10
423.5
 20
661.0917286422857
 10
422.7018666706431
 20
660.4220152599921
 10
422.18092213764226
 20
659.5197128609095
 10
422.0
 20
658.4936524309325
  0
LWPOLYLINE
  5
98
330
17
100
AcDbEntity
  8
CUT_INSIDE
100
AcDbPolyline
 90
21
 70
1
 10
438.0
 20
647.0475782667364
 10
438.0
 20
457.36085249127666
 10
438.18092213764226
 20
456.3347920612996
 10
438.701866670643
 20
455.432489662217
 10
439.5
 20
454.7627762799233
 10
440.47905546699917
 20
454.40642923224
 10
441.5209445330008
 20
454.40642923224
 10
442.5
 20
454.7627762799233
 10
443.2981333293569
 20
455.432489662217
 10
443.8190778623577
 20
456.3347920612996
 10
444.0
 20
457.36085249127666
 10
444.0
 20
647.0475782667364
 10
443.81907786235774
 20
648.0736386967135
 10
443.298133329357
 20
648.9759410957961
 10
442.5
 20
649.6456544780898
 10
441.52094453300083
 20
650.002001525773
 10
440.4790554669992
 20
650.002001525773
 10
439.5
 20
649.6456544780898
 10
438.7018666706431
 20
648.9759410957961
 10
438.1809221376423
 20
648.0736386967135
 10
438.0
 20
647.0475782667364
  0
LWPOLYLINE
  5
99
330
17
100
AcDbEntity
  8
CUT_INSIDE
100
AcDbPolyline
 90
21
 70
1
 10
454.0
 20
625.8953499020698
 10
454.0
 20
500.1331189595211
 10
454.18092213764226
 20
499.107058529544
 10
454.7018666706431
 20
498.2047561304614
 10
455.5
 20
497.5350427481677
 10
456.4790554669992
 20
497.17869570048447
 10
457.5209445330008
 20
497.17869570048447
 10
458.5
 20
497.5350427481677
 10
459.2981333293569
 20
498.2047561304614
 10
459.81907786235774
 20
499.107058529544
 10
460.0
 20
500.1331189595211
 10
460.0
 20
625.8953499020698
 10
459.81907786235774
 20
626.9214103320469
 10
459.2981333293569
 20
627.8237127311295
 10
458.5
 20
628.4934261134232
 10
457.5209445330008
 20
628.8497731611064
 10
456.4790554669992
 20
628.8497731611064
 10
455.5
 20
628.4934261134232
 10
454.7018666706431
 20
627.8237127311295
 10
454.18092213764226
 20
626.9214103320469
 10
454.0
 20
625.8953499020698
  0
LWPOLYLINE
  5
9A
330
17
100
AcDbEntity
  8
CUT_INSIDE
100
AcDbPolyline
 90
21
 70
1
 10
470.0
 20
575.4805320373819
 10
470.0
 20
471.3901031280998
 10
470.18092213764226
 20
470.3640426981227
 10
470.7018666706431
 20
469.4617402990401
 10
471.5
 20
468.7920269167464
 10
472.4790554669992
 20
468.4356798690631
 10
473.5209445330008
 20
468.4356798690631
 10
474.5
 20
468.7920269167464
 10
475.2981333293569
 20
469.4617402990401
 10
475.81907786235774
 20
470.3640426981227
 10
476.0
 20
471.3901031280998
 10
476.0
 20
575.4805320373819
 10
475.81907786235774
 20
576.5065924673589
 10
475.2981333293569
 20
577.4088948664415
 10
474.5
 20
578.0786082487352
 10
473.5209445330008
 20
578.4349552964185
 10
472.4790554669992
 20
578.4349552964185
 10
471.5
 20
578.0786082487352
 10
470.7018666706431
 20
577.4088948664415
 10
470.18092213764226
 20
576.5065924673589
 10
470.0
 20
575.4805320373819
  0
LWPOLYLINE
  5
9B
330
17
100
AcDbEntity
  8
CUT_INSIDE
100
AcDbPolyline
 90
21
 70
1
 10
262.0
 20
750.5685978195065
 10
262.0
 20
567.8562573393447
 10
262.18092213764226
 20
566.8301969093677
 10
262.701866670643
 20
565.9278945102851
 10
263.5
 20
565.2581811279914
 10
264.4790554669992
 20
564.901834080308
 10
265.5209445330008
 20
564.901834080308
 10
266.5
 20
565.2581811279914
 10
267.2981333293569
 20
565.9278945102851
 10
267.8190778623577
 20
566.8301969093677
 10
268.0
 20
567.8562573393447
 10
268.0
 20
750.5685978195065
 10
267.81907786235774
 20
751.5946582494835
 10
267.298133329357
 20
752.4969606485661
 10
266.5
 20
753.1666740308598
 10
265.5209445330008
 20
753.5230210785431
 10
264.4790554669992
 20
753.5230210785431
 10
263.5
 20
753.1666740308598
 10
262.7018666706431
 20
752.4969606485661
 10
262.1809221376423
 20
751.5946582494835
 10
262.0
 20
750.5685978195065
  0
LWPOLYLINE
  5
9C
330
17
100
AcDbEntity
  8
CUT_INSIDE
100
AcDbPolyline
 90
21
 70
1
 10
278.0
 20
741.8465254841902
 10
278.0
 20
548.3558030756802
 10
278.18092213764226
 20
547.3297426457032
 10
278.701866670643
 20
546.4274402466206
 10
279.5
 20
545.7577268643269
 10
280.47905546699917
 20
545.4013798166436
 10
281.5209445330008
 20
545.4013798166436
 10
282.5
 20
545.7577268643269
 10
283.2981333293569
 20
546.4274402466206
 10
283.8190778623577
 20
547.3297426457032
 10
284.0
 20
548.3558030756802
 10
284.0
 20
741.8465254841902
 10
283.81907786235774
 20
742.8725859141673
 10
283.298133329357
 20
743.7748883132499
 10
282.5
 20
744.4446016955436
 10
281.52094453300083
 20
744.8009487432269
 10
280.4790554669992
 20
744.8009487432269
 10
279.5
 20
744.4446016955436
 10
278.7018666706431
 20
743.7748883132499
 10
278.1809221376423
 20
742.8725859141673
 10
278.0
 20
741.8465254841902
  0
LWPOLYLINE
  5
9D
330
17
100
AcDbEntity
  8
CUT_INSIDE
100
AcDbPolyline
 90
21
 70
1
 10
294.0
 20
757.4962910179077
 10
294.0
 20
583.5084772871103
 10
294.18092213764226
 20
582.4824168571333
 10
294.7018666706431
 20
581.5801144580507
 10
295.5
 20
580.910401075757
 10
296.4790554669992
 20
580.5540540280737
 10
297.5209445330008
 20
580.5540540280737
 10
298.5
 20
580.910401075757
 10
299.2981333293569
 20
581.5801144580507
 10
299.8190778623577
 20
582.4824168571333
 10
300.0
 20
583.5084772871103
 10
300.0
 20
757.4962910179077
 10
299.81907786235774
 20
758.5223514478846
 10
299.2981333293569
 20
759.4246538469672
 10
298.5
 20
760.0943672292609
 10
297.5209445330008
 20
760.4507142769443
 10
296.4790554669992
 20
760.4507142769443
 10
295.5
 20
760.0943672292609
 10
294.7018666706431
 20
759.4246538469672
 10
294.1809221376423
 20
758.5223514478846
 10
294.0
 20
757.4962910179077
  0
LWPOLYLINE
  5
9E
330
17
100
AcDbEntity
  8
CUT_INSIDE
100
AcDbPolyline
 90
21
 70
1
 10
342.0
 20
680.8518615246262
 10
342.0
 20
590.7900779379358
 10
342.18092213764226
 20
589.7640175079589
 10
342.7018666706431
 20
588.8617151088763
 10
343.5
 20
588.1920017265826
 10
344.4790554669992
 20
587.8356546788992
 10
345.5209445330008
 20
587.8356546788992
 10
346.5
 20
588.1920017265826
 10
347.2981333293569
 20
588.8617151088763
 10
347.81907786235774
 20
589.7640175079589
 10
348.0
 20
590.7900779379358
 10
348.0
 20
680.8518615246262
 10
347.81907786235774
 20
681.8779219546032
 10
347.2981333293569
 20
682.7802243536858
 10
346.5
 20
683.4499377359795
 10
345.5209445330008
 20
683.8062847836628
 10
344.4790554669992
 20
683.8062847836628
 10
343.5
 20
683.4499377359795
 10
342.7018666706431
 20
682.7802243536858
 10
342.18092213764226
 20
681.8779219546032
 10
342.0
 20
680.8518615246262
  0
LWPOLYLINE
  5
9F
330
17
100
AcDbEntity
  8
CUT_INSIDE
100
AcDbPolyline
 90
21
 70
1
 10
310.0
 20
816.0
 10
310.0
 20
655.5408893227559
 10
310.18092213764226
 20
654.514828892779
 10
310.7018666706431
 20
653.6125264936962
 10
311.5
 20
652.9428131114025
 10
312.4790554669992
 20
652.5864660637193
 10
313.5209445330008
 20
652.5864660637193
 10
314.5
 20
652.9428131114025
 10
315.2981333293569
 20
653.6125264936962
 10
315.81907786235774
 20
654.514828892779
 10
316.0
 20
655.5408893227559
 10
316.0
 20
816.0
 10
315.81907786235774
 20
817.026060429977
 10
315.2981333293569
 20
817.9283628290597
 10
314.5
 20
818.5980762113534
 10
313.5209445330008
 20
818.9544232590366
 10
312.4790554669992
 20
818.9544232590366
 10
311.5
 20
818.5980762113534
 10
310.7018666706431
 20
817.9283628290597
 10
310.18092213764226
 20
817.026060429977
 10
310.0
 20
816.0
  0
LWPOLYLINE
  5
A0
330
17
100
AcDbEntity
  8
CUT_INSIDE
100
AcDbPolyline
 90
21
 70
1
 10
262.0
 20
816.0
 10
262.0
 20
770.7538883318662
 10
262.18092213764226
 20
769.7278279018892
 10
262.7018666706431
 20
768.8255255028065
 10
263.5
 20
768.1558121205128
 10
264.4790554669992
 20
767.7994650728295
 10
265.5209445330008
 20
767.7994650728295
 10
266.5
 20
768.1558121205128
 10
267.2981333293569
 20
768.8255255028065
 10
267.81907786235774
 20
769.7278279018892
 10
268.0
 20
770.7538883318662
 10
268.0
 20
816.0
 10
267.81907786235774
 20
817.026060429977
 10
267.2981333293569
 20
817.9283628290597
 10
266.5
 20
818.5980762113534
 10
265.5209445330008
 20
818.9544232590366
 10
264.4790554669992
 20
818.9544232590366
 10
263.5
 20
818.5980762113534
 10
262.7018666706431
 20
817.9283628290597
 10
262.18092213764226
 20
817.026060429977
 10
262.0
 20
816.0
  0
LWPOLYLINE
  5
A1
330
17
100
AcDbEntity
  8
CUT_INSIDE
100
AcDbPolyline
 90
21
 70
1
 10
278.0
 20
816.0
 10
278.0
 20
773.6517631276129
 10
278.18092213764226
 20
772.6257026976359
 10
278.7018666706431
 20
771.7234002985532
 10
279.5
 20
771.0536869162595
 10
280.4790554669992
 20
770.6973398685763
 10
281.5209445330008
 20
770.6973398685763
 10
282.5
 20
771.0536869162595
 10
283.2981333293569
 20
771.7234002985532
 10
283.81907786235774
 20
772.6257026976359
 10
284.0
 20
773.6517631276129
 10
284.0
 20
816.0
 10
283.81907786235774
 20
817.026060429977
 10
283.2981333293569
 20
817.9283628290597
 10
282.5
 20
818.5980762113534
 10
281.5209445330008
 20
818.9544232590366
 10
280.4790554669992
 20
818.9544232590366
 10
279.5
 20
818.5980762113534
 10
278.7018666706431
 20
817.9283628290597
 10
278.18092213764226
 20
817.026060429977
 10
278.0
 20
816.0
  0
LWPOLYLINE
  5
A2
330
17
100
AcDbEntity
  8
CUT_INSIDE
100
AcDbPolyline
 90
21
 70
1
 10
326.0
 20
816.0
 10
326.0
 20
669.7449056487537
 10
326.18092213764226
 20
668.7188452187768
 10
326.7018666706431
 20
667.8165428196941
 10
327.5
 20
667.1468294374004
 10
328.4790554669992
 20
666.7904823897171
 10
329.5209445330008
 20
666.7904823897171
 10
330.5
 20
667.1468294374004
 10
331.2981333293569
 20
667.8165428196941
 10
331.81907786235774
 20
668.7188452187768
 10
332.0
 20
669.7449056487537
 10
332.0
 20
816.0
 10
331.81907786235774
 20
817.026060429977
 10
331.2981333293569
 20
817.9283628290597
 10
330.5
 20
818.5980762113534
 10
329.5209445330008
 20
818.9544232590366
 10
328.4790554669992
 20
818.9544232590366
 10
327.5
 20
818.5980762113534
 10
326.7018666706431
 20
817.9283628290597
 10
326.18092213764226
 20
817.026060429977
 10
326.0
 20
816.0
  0
LWPOLYLINE
  5
A3
330
17
100
AcDbEntity
  8
CUT_INSIDE
100
AcDbPolyline
 90
21
 70
1
 10
342.0
 20
816.0
 10
342.0
 20
708.2971441449488
 10
342.18092213764226
 20
707.2710837149718
 10
342.7018666706431
 20
706.3687813158891
 10
343.5
 20
705.6990679335954
 10
344.4790554669992
 20
705.3427208859122
 10
345.5209445330008
 20
705.3427208859122
 10
346.5
 20
705.6990679335954
 10
347.2981333293569
 20
706.3687813158891
 10
347.81907786235774
 20
707.2710837149718
 10
348.0
 20
708.2971441449488
 10
348.0
 20
816.0
 10
347.81907786235774
 20
817.026060429977
 10
347.2981333293569
 20
817.9283628290597
 10
346.5
 20
818.5980762113534
 10
345.5209445330008
 20
818.9544232590366
 10
344.4790554669992
 20
818.9544232590366
 10
343.5
 20
818.5980762113534
 10
342.7018666706431
 20
817.9283628290597
 10
342.18092213764226
 20
817.026060429977
 10
342.0
 20
816.0
  0
LWPOLYLINE
  5
A4
330
17
100
AcDbEntity
  8
CUT_INSIDE
100
AcDbPolyline
 90
21
 70
1
 10
358.0
 20
816.0
 10
358.0
 20
648.3139817999654
 10
358.18092213764226
 20
647.2879213699883
 10
358.7018666706431
 20
646.3856189709057
 10
359.5
 20
645.715905588612
 10
360.4790554669992
 20
645.3595585409287
 10
361.5209445330008
 20
645.3595585409287
 10
362.5
 20
645.715905588612
 10
363.2981333293569
 20
646.3856189709057
 10
363.81907786235774
 20
647.2879213699883
 10
364.0
 20
648.3139817999654
 10
364.0
 20
816.0
 10
363.81907786235774
 20
817.0260604299771
 10
363.2981333293569
 20
817.9283628290597
 10
362.5
 20
818.5980762113534
 10
361.5209445330008
 20
818.9544232590367
 10
360.4790554669992
 20
818.9544232590367
 10
359.5
 20
818.5980762113534
 10
358.7018666706431
 20
817.9283628290597
 10
358.18092213764226
 20
817.0260604299771
 10
358.0
 20
816.0
  0
LWPOLYLINE
  5
A5
330
17
100
AcDbEntity
  8
CUT_INSIDE
100
AcDbPolyline
 90
21
 70
1
 10
374.0
 20
793.2182457183774
 10
374.0
 20
637.9709181703258
 10
374.18092213764226
 20
636.9448577403489
 10
374.7018666706431
 20
636.0425553412663
 10
375.5
 20
635.3728419589726
 10
376.4790554669992
 20
635.0164949112892
 10
377.5209445330008
 20
635.0164949112892
 10
378.5
 20
635.3728419589726
 10
379.2981333293569
 20
636.0425553412663
 10
379.81907786235774
 20
636.9448577403489
 10
380.0
 20
637.9709181703258
 10
380.0
 20
793.2182457183774
 10
379.81907786235774
 20
794.2443061483543
 10
379.2981333293569
 20
795.1466085474369
 10
378.5
 20
795.8163219297306
 10
377.5209445330008
 20
796.172668977414
 10
376.4790554669992
 20
796.172668977414
 10
375.5
 20
795.8163219297306
 10
374.7018666706431
 20
795.1466085474369
 10
374.18092213764226
 20
794.2443061483543
 10
374.0
 20
793.2182457183774
  0
LWPOLYLINE
  5
A6
330
17
100
AcDbEntity
  8
CUT_INSIDE
100
AcDbPolyline
 90
21
 70
1
 10
406.0
 20
797.7664247022547
 10
406.0
 20
640.3801798089148
 10
406.18092213764226
 20
639.3541193789379
 10
406.7018666706431
 20
638.4518169798552
 10
407.5
 20
637.7821035975614
 10
408.4790554669992
 20
637.4257565498782
 10
409.5209445330008
 20
637.4257565498782
 10
410.5
 20
637.7821035975614
 10
411.2981333293569
 20
638.4518169798552
 10
411.81907786235774
 20
639.3541193789379
 10
412.0
 20
640.3801798089148
 10
412.0
 20
797.7664247022547
 10
411.81907786235774
 20
798.7924851322316
 10
411.2981333293569
 20
799.6947875313143
 10
410.5
 20
800.364500913608
 10
409.5209445330008
 20
800.7208479612913
 10
408.4790554669992
 20
800.7208479612913
 10
407.5
 20
800.364500913608
 10
406.7018666706431
 20
799.6947875313143
 10
406.18092213764226
 20
798.7924851322316
 10
406.0
 20
797.7664247022547
  0
LWPOLYLINE
  5
A7
330
17
100
AcDbEntity
  8
CUT_INSIDE
100
AcDbPolyline
 90
21
 70
1
 10
454.0
 20
760.4885276091923
 10
454.0
 20
650.178366088297
 10
454.18092213764226
 20
649.1523056583201
 10
454.7018666706431
 20
648.2500032592375
 10
455.5
 20
647.5802898769438
 10
456.4790554669992
 20
647.2239428292604
 10
457.5209445330008
 20
647.2239428292604
 10
458.5
 20
647.5802898769438
 10
459.2981333293569
 20
648.2500032592375
 10
459.81907786235774
 20
649.1523056583201
 10
460.0
 20
650.178366088297
 10
460.0
 20
760.4885276091923
 10
459.81907786235774
 20
761.5145880391692
 10
459.2981333293569
 20
762.4168904382518
 10
458.5
 20
763.0866038205455
 10
457.5209445330008
 20
763.4429508682289
 10
456.4790554669992
 20
763.4429508682289
 10
455.5
 20
763.0866038205455
 10
454.7018666706431
 20
762.4168904382518
 10
454.18092213764226
 20
761.5145880391692
 10
454.0
 20
760.4885276091923
  0
LWPOLYLINE
  5
A8
330
17
100
AcDbEntity
  8
CUT_INSIDE
100
AcDbPolyline
 90
21
 70
1
 10
470.0
 20
742.7641699336781
 10
470.0
 20
607.6469109081114
 10
470.18092213764226
 20
606.6208504781343
 10
470.7018666706431
 20
605.7185480790517
 10
471.5
 20
605.048834696758
 10
472.4790554669992
 20
604.6924876490748
 10
473.5209445330008
 20
604.6924876490748
 10
474.5
 20
605.048834696758
 10
475.2981333293569
 20
605.7185480790517
 10
475.81907786235774
 20
606.6208504781343
 10
476.0
 20
607.6469109081114
 10
476.0
 20
742.7641699336781
 10
475.81907786235774
 20
743.7902303636552
 10
475.2981333293569
 20
744.6925327627378
 10
474.5
 20
745.3622461450315
 10
473.5209445330008
 20
745.7185931927147
 10
472.4790554669992
 20
745.7185931927147
 10
471.5
 20
745.3622461450315
 10
470.7018666706431
 20
744.6925327627378
 10
470.18092213764226
 20
743.7902303636552
 10
470.0
 20
742.7641699336781
  0
LWPOLYLINE
  5
A9
330
17
100
AcDbEntity
  8
CUT_INSIDE
100
AcDbPolyline
 90
21
 70
1
 10
486.0
 20
816.0
 10
486.0
 20
586.5925358338386
 10
486.18092213764226
 20
585.5664754038615
 10
486.701866670643
 20
584.664173004779
 10
487.5
 20
583.9944596224852
 10
488.47905546699917
 20
583.6381125748019
 10
489.5209445330008
 20
583.6381125748019
 10
490.5
 20
583.9944596224852
 10
491.2981333293569
 20
584.664173004779
 10
491.8190778623577
 20
585.5664754038615
 10
492.0
 20
586.5925358338386
 10
492.0
 20
816.0
 10
491.81907786235774
 20
817.0260604299771
 10
491.298133329357
 20
817.9283628290597
 10
490.5
 20
818.5980762113534
 10
489.52094453300083
 20
818.9544232590367
 10
488.4790554669992
 20
818.9544232590367
 10
487.5
 20
818.5980762113534
 10
486.7018666706431
 20
817.9283628290597
 10
486.1809221376423
 20
817.0260604299771
 10
486.0
 20
816.0
  0
LWPOLYLINE
  5
AA
330
17
100
AcDbEntity
  8
CUT_INSIDE
100
AcDbPolyline
 90
21
 70
1
 10
390.0
 20
816.0
 10
390.0
 20
676.1127214309686
 10
390.18092213764226
 20
675.0866610009916
 10
390.7018666706431
 20
674.1843586019089
 10
391.5
 20
673.5146452196152
 10
392.4790554669992
 20
673.158298171932
 10
393.5209445330008
 20
673.158298171932
 10
394.5
 20
673.5146452196152
 10
395.2981333293569
 20
674.1843586019089
 10
395.81907786235774
 20
675.0866610009916
 10
396.0
 20
676.1127214309686
 10
396.0
 20
816.0
 10
395.81907786235774
 20
817.026060429977
 10
395.2981333293569
 20
817.9283628290597
 10
394.5
 20
818.5980762113534
 10
393.5209445330008
 20
818.9544232590366
 10
392.4790554669992
 20
818.9544232590366
 10
391.5
 20
818.5980762113534
 10
390.7018666706431
 20
817.9283628290597
 10
390.18092213764226
 20
817.026060429977
 10
390.0
 20
816.0
  0
LWPOLYLINE
  5
AB
330
17
100
AcDbEntity
  8
CUT_INSIDE
100
AcDbPolyline
 90
21
 70
1
 10
422.0
 20
816.0
 10
422.0
 20
694.1893414297274
 10
422.18092213764226
 20
693.1632809997504
 10
422.7018666706431
 20
692.2609786006677
 10
423.5
 20
691.591265218374
 10
424.4790554669992
 20
691.2349181706908
 10
425.5209445330008
 20
691.2349181706908
 10
426.5
 20
691.591265218374
 10
427.2981333293569
 20
692.2609786006677
 10
427.81907786235774
 20
693.1632809997504
 10
428.0
 20
694.1893414297274
 10
428.0
 20
816.0
 10
427.81907786235774
 20
817.026060429977
 10
427.2981333293569
 20
817.9283628290597
 10
426.5
 20
818.5980762113534
 10
425.5209445330008
 20
818.9544232590366
 10
424.4790554669992
 20
818.9544232590366
 10
423.5
 20
818.5980762113534
 10
422.7018666706431
 20
817.9283628290597
 10
422.18092213764226
 20
817.026060429977
 10
422.0
 20
816.0
  0
LWPOLYLINE
  5
AC
330
17
100
AcDbEntity
  8
CUT_INSIDE
100
AcDbPolyline
 90
21
 70
1
 10
438.0
 20
807.9705872653988
 10
438.0
 20
674.1430604069794
 10
438.18092213764226
 20
673.1169999770025
 10
438.7018666706431
 20
672.2146975779199
 10
439.5
 20
671.5449841956262
 10
440.4790554669992
 20
671.1886371479428
 10
441.5209445330008
 20
671.1886371479428
 10
442.5
 20
671.5449841956262
 10
443.2981333293569
 20
672.2146975779199
 10
443.81907786235774
 20
673.1169999770025
 10
444.0
 20
674.1430604069794
 10
444.0
 20
807.9705872653988
 10
443.81907786235774
 20
808.9966476953757
 10
443.2981333293569
 20
809.8989500944583
 10
442.5
 20
810.568663476752
 10
441.5209445330008
 20
810.9250105244354
 10
440.4790554669992
 20
810.9250105244354
 10
439.5
 20
810.568663476752
 10
438.7018666706431
 20
809.8989500944583
 10
438.18092213764226
 20
808.9966476953757
 10
438.0
 20
807.9705872653988
  0
LWPOLYLINE
  5
AD
330
17
100
AcDbEntity
  8
CUT_INSIDE
100
AcDbPolyline
 90
21
 70
1
 10
470.0
 20
816.0
 10
470.0
 20
771.300136652832
 10
470.18092213764226
 20
770.274076222855
 10
470.7018666706431
 20
769.3717738237723
 10
471.5
 20
768.7020604414786
 10
472.4790554669992
 20
768.3457133937953
 10
473.5209445330008
 20
768.3457133937953
 10
474.5
 20
768.7020604414786
 10
475.2981333293569
 20
769.3717738237723
 10
475.81907786235774
 20
770.274076222855
 10
476.0
 20
771.300136652832
 10
476.0
 20
816.0
 10
475.81907786235774
 20
817.026060429977
 10
475.2981333293569
 20
817.9283628290597
 10
474.5
 20
818.5980762113534
 10
473.5209445330008
 20
818.9544232590366
 10
472.4790554669992
 20
818.9544232590366
 10
471.5
 20
818.5980762113534
 10
470.7018666706431
 20
817.9283628290597
 10
470.18092213764226
 20
817.026060429977
 10
470.0
 20
816.0
  0
TEXT
  5
AF
330
17
100
AcDbEntity
  8
NOTES
100
AcDbText
 10
2.0
 20
845.0
 30
0.0
 40
6.0
  1
grille-strips  6 mm spotted-gum-ply, outer face
 11
2.0
 21
845.0
 31
0.0
100
AcDbText
  0
ENDSEC
  0
SECTION
  2
OBJECTS
  0
DICTIONARY
  5
A
330
0
100
AcDbDictionary
281
1
  3
ACAD_COLOR
350
B
  3
ACAD_GROUP
350
C
  3
ACAD_LAYOUT
350
D
  3
ACAD_MATERIAL
350
E
  3
ACAD_MLEADERSTYLE
350
F
  3
ACAD_MLINESTYLE
350
10
  3
ACAD_PLOTSETTINGS
350
11
  3
ACAD_PLOTSTYLENAME
350
12
  3
ACAD_SCALELIST
350
14
  3
ACAD_TABLESTYLE
350
15
  3
ACAD_VISUALSTYLE
350
16
  3
EZDXF_META
350
2D
  0
DICTIONARY
  5
B
330
A
100
AcDbDictionary
281
1
  0
DICTIONARY
  5
C
330
A
100
AcDbDictionary
281
1
  0
DICTIONARY
  5
D
330
A
100
AcDbDictionary
281
1
  3
Model
350
1A
  3
Layout1
350
1E
  0
DICTIONARY
  5
E
330
A
100
AcDbDictionary
281
1
  3
ByBlock
350
1F
  3
ByLayer
350
20
  3
Global
350
21
  0
DICTIONARY
  5
F
330
A
100
AcDbDictionary
281
1
  3
Standard
350
2C
  0
DICTIONARY
  5
10
330
A
100
AcDbDictionary
281
1
  3
Standard
350
22
  0
DICTIONARY
  5
11
330
A
100
AcDbDictionary
281
1
  0
ACDBDICTIONARYWDFLT
  5
12
330
A
100
AcDbDictionary
281
1
  3
Normal
350
13
100
AcDbDictionaryWithDefault
340
13
  0
ACDBPLACEHOLDER
  5
13
330
12
  0
DICTIONARY
  5
14
330
A
100
AcDbDictionary
281
1
  0
DICTIONARY
  5
15
330
A
100
AcDbDictionary
281
1
  0
DICTIONARY
  5
16
330
A
100
AcDbDictionary
281
1
  0
LAYOUT
  5
1A
330
D
100
AcDbPlotSettings
  1

  4
A3
  6

 40
7.5
 41
20.0
 42
7.5
 43
20.0
 44
420.0
 45
297.0
 46
0.0
 47
0.0
 48
0.0
 49
0.0
140
0.0
141
0.0
142
1.0
143
1.0
 70
1024
 72
1
 73
0
 74
5
  7

 75
16
 76
0
 77
2
 78
300
147
1.0
148
0.0
149
0.0
100
AcDbLayout
  1
Model
 70
1
 71
0
 10
0.0
 20
0.0
 11
420.0
 21
297.0
 12
0.0
 22
0.0
 32
0.0
 14
1e+20
 24
1e+20
 34
1e+20
 15
-1e+20
 25
-1e+20
 35
-1e+20
146
0.0
 13
0.0
 23
0.0
 33
0.0
 16
1.0
 26
0.0
 36
0.0
 17
0.0
 27
1.0
 37
0.0
 76
1
330
17
  0
LAYOUT
  5
1E
330
D
100
AcDbPlotSettings
  1

  4
A3
  6

 40
7.5
 41
20.0
 42
7.5
 43
20.0
 44
420.0
 45
297.0
 46
0.0
 47
0.0
 48
0.0
 49
0.0
140
0.0
141
0.0
142
1.0
143
1.0
 70
0
 72
1
 73
0
 74
5
  7

 75
16
 76
0
 77
2
 78
300
147
1.0
148
0.0
149
0.0
100
AcDbLayout
  1
Layout1
 70
1
 71
1
 10
0.0
 20
0.0
 11
420.0
 21
297.0
 12
0.0
 22
0.0
 32
0.0
 14
1e+20
 24
1e+20
 34
1e+20
 15
-1e+20
 25
-1e+20
 35
-1e+20
146
0.0
 13
0.0
 23
0.0
 33
0.0
 16
1.0
 26
0.0
 36
0.0
 17
0.0
 27
1.0
 37
0.0
 76
1
330
1B
  0
MATERIAL
  5
1F
102
{ACAD_REACTORS
330
E
102
}
330
E
100
AcDbMaterial
  1
ByBlock
  2

 70
0
 40
1.0
 71
1
 41
1.0
 91
-1023410177
 42
1.0
 72
1
  3

 73
1
 74
1
 75
1
 44
0.5
 73
0
 45
1.0
 46
1.0
 77
1
  4

 78
1
 79
1
170
1
 48
1.0
171
1
  6

172
1
173
1
174
1
140
1.0
141
1.0
175
1
  7

176
1
177
1
178
1
143
1.0
179
1
  8

270
1
271
1
272
1
145
1.0
146
1.0
273
1
  9

274
1
275
1
276
1
 42
1.0
 72
1
  3

 73
1
 74
1
 75
1
 94
63
  0
MATERIAL
  5
20
102
{ACAD_REACTORS
330
E
102
}
330
E
100
AcDbMaterial
  1
ByLayer
  2

 70
0
 40
1.0
 71
1
 41
1.0
 91
-1023410177
 42
1.0
 72
1
  3

 73
1
 74
1
 75
1
 44
0.5
 73
0
 45
1.0
 46
1.0
 77
1
  4

 78
1
 79
1
170
1
 48
1.0
171
1
  6

172
1
173
1
174
1
140
1.0
141
1.0
175
1
  7

176
1
177
1
178
1
143
1.0
179
1
  8

270
1
271
1
272
1
145
1.0
146
1.0
273
1
  9

274
1
275
1
276
1
 42
1.0
 72
1
  3

 73
1
 74
1
 75
1
 94
63
  0
MATERIAL
  5
21
102
{ACAD_REACTORS
330
E
102
}
330
E
100
AcDbMaterial
  1
Global
  2

 70
0
 40
1.0
 71
1
 41
1.0
 91
-1023410177
 42
1.0
 72
1
  3

 73
1
 74
1
 75
1
 44
0.5
 73
0
 45
1.0
 46
1.0
 77
1
  4

 78
1
 79
1
170
1
 48
1.0
171
1
  6

172
1
173
1
174
1
140
1.0
141
1.0
175
1
  7

176
1
177
1
178
1
143
1.0
179
1
  8

270
1
271
1
272
1
145
1.0
146
1.0
273
1
  9

274
1
275
1
276
1
 42
1.0
 72
1
  3

 73
1
 74
1
 75
1
 94
63
  0
MLINESTYLE
  5
22
102
{ACAD_REACTORS
330
10
102
}
330
10
100
AcDbMlineStyle
  2
Standard
 70
0
  3

 62
256
 51
90.0
 52
90.0
 71
2
 49
0.5
 62
256
  6
BYLAYER
 49
-0.5
 62
256
  6
BYLAYER
  0
MLEADERSTYLE
  5
2C
102
{ACAD_REACTORS
330
F
102
}
330
F
100
AcDbMLeaderStyle
179
2
170
2
171
1
172
0
 90
2
 40
0.0
 41
0.0
173
1
 91
-1056964608
 92
-2
290
1
 42
2.0
291
1
 43
8.0
  3
Standard
 44
4.0
300

342
29
174
1
175
1
176
0
178
1
 93
-1056964608
 45
4.0
292
0
297
0
 46
4.0
 94
-1056964608
 47
1.0
 49
1.0
140
1.0
294
1
141
0.0
177
0
142
1.0
295
0
296
0
143
3.75
271
0
272
9
273
9
  0
DICTIONARY
  5
2D
330
A
100
AcDbDictionary
280
1
281
1
  3
CREATED_BY_EZDXF
350
2E
  3
WRITTEN_BY_EZDXF
350
B2
  0
DICTIONARYVAR
  5
2E
330
2D
100
DictionaryVariables
280
0
  1
1.4.4 @ 2026-10-11T00:38:32.345030+00:00
  0
DICTIONARYVAR
  5
B2
330
2D
100
DictionaryVariables
280
0
  1
1.4.4 @ 2026-10-11T00:38:32.354952+00:00
  0
ENDSEC
  0
EOF
