  0
SECTION
  2
HEADER
  9
$ACADVER
  1
AC1024
  9
$ACADMAINTVER
 70
6
  9
$DWGCODEPAGE
  3
ANSI_1252
  9
$LASTSAVEDBY
  1
ezdxf
  9
$INSBASE
 10
0.0
 20
0.0
 30
0.0
  9
$EXTMIN
 10
1e+20
 20
1e+20
 30
1e+20
  9
$EXTMAX
 10
-1e+20
 20
-1e+20
 30
-1e+20
  9
$LIMMIN
 10
0.0
 20
0.0
  9
$LIMMAX
 10
420.0
 20
297.0
  9
$ORTHOMODE
 70
0
  9
$REGENMODE
 70
1
  9
$FILLMODE
 70
1
  9
$QTEXTMODE
 70
0
  9
$MIRRTEXT
 70
1
  9
$LTSCALE
 40
1.0
  9
$ATTMODE
 70
1
  9
$TEXTSIZE
 40
2.5
  9
$TRACEWID
 40
1.0
  9
$TEXTSTYLE
  7
Standard
  9
$CLAYER
  8
0
  9
$CELTYPE
  6
ByLayer
  9
$CECOLOR
 62
256
  9
$CELTSCALE
 40
1.0
  9
$DISPSILH
 70
0
  9
$DIMSCALE
 40
1.0
  9
$DIMASZ
 40
2.5
  9
$DIMEXO
 40
0.625
  9
$DIMDLI
 40
3.75
  9
$DIMRND
 40
0.0
  9
$DIMDLE
 40
0.0
  9
$DIMEXE
 40
1.25
  9
$DIMTP
 40
0.0
  9
$DIMTM
 40
0.0
  9
$DIMTXT
 40
2.5
  9
$DIMCEN
 40
2.5
  9
$DIMTSZ
 40
0.0
  9
$DIMTOL
 70
0
  9
$DIMLIM
 70
0
  9
$DIMTIH
 70
0
  9
$DIMTOH
 70
0
  9
$DIMSE1
 70
0
  9
$DIMSE2
 70
0
  9
$DIMTAD
 70
1
  9
$DIMZIN
 70
8
  9
$DIMBLK
  1

  9
$DIMASO
 70
1
  9
$DIMSHO
 70
1
  9
$DIMPOST
  1

  9
$DIMAPOST
  1

  9
$DIMALT
 70
0
  9
$DIMALTD
 70
3
  9
$DIMALTF
 40
0.03937007874
  9
$DIMLFAC
 40
1.0
  9
$DIMTOFL
 70
1
  9
$DIMTVP
 40
0.0
  9
$DIMTIX
 70
0
  9
$DIMSOXD
 70
0
  9
$DIMSAH
 70
0
  9
$DIMBLK1
  1

  9
$DIMBLK2
  1

  9
$DIMSTYLE
  2
ISO-25
  9
$DIMCLRD
 70
0
  9
$DIMCLRE
 70
0
  9
$DIMCLRT
 70
0
  9
$DIMTFAC
 40
1.0
  9
$DIMGAP
 40
0.625
  9
$DIMJUST
 70
0
  9
$DIMSD1
 70
0
  9
$DIMSD2
 70
0
  9
$DIMTOLJ
 70
0
  9
$DIMTZIN
 70
8
  9
$DIMALTZ
 70
0
  9
$DIMALTTZ
 70
0
  9
$DIMUPT
 70
0
  9
$DIMDEC
 70
2
  9
$DIMTDEC
 70
2
  9
$DIMALTU
 70
2
  9
$DIMALTTD
 70
3
  9
$DIMTXSTY
  7
Standard
  9
$DIMAUNIT
 70
0
  9
$DIMADEC
 70
0
  9
$DIMALTRND
 40
0.0
  9
$DIMAZIN
 70
0
  9
$DIMDSEP
 70
44
  9
$DIMATFIT
 70
3
  9
$DIMFRAC
 70
0
  9
$DIMLDRBLK
  1

  9
$DIMLUNIT
 70
2
  9
$DIMLWD
 70
-2
  9
$DIMLWE
 70
-2
  9
$DIMTMOVE
 70
0
  9
$DIMFXL
 40
1.0
  9
$DIMFXLON
 70
0
  9
$DIMJOGANG
 40
0.785398163397
  9
$DIMTFILL
 70
0
  9
$DIMTFILLCLR
 70
0
  9
$DIMARCSYM
 70
0
  9
$DIMLTYPE
  6

  9
$DIMLTEX1
  6

  9
$DIMLTEX2
  6

  9
$DIMTXTDIRECTION
 70
0
  9
$LUNITS
 70
2
  9
$LUPREC
 70
4
  9
$SKETCHINC
 40
1.0
  9
$FILLETRAD
 40
10.0
  9
$AUNITS
 70
0
  9
$AUPREC
 70
2
  9
$MENU
  1
.
  9
$ELEVATION
 40
0.0
  9
$PELEVATION
 40
0.0
  9
$THICKNESS
 40
0.0
  9
$LIMCHECK
 70
0
  9
$CHAMFERA
 40
0.0
  9
$CHAMFERB
 40
0.0
  9
$CHAMFERC
 40
0.0
  9
$CHAMFERD
 40
0.0
  9
$SKPOLY
 70
0
  9
$TDCREATE
 40
2461325.0267592594
  9
$TDUCREATE
 40
2458532.153996898
  9
$TDUPDATE
 40
2461325.0267592594
  9
$TDUUPDATE
 40
2458532.1544311
  9
$TDINDWG
 40
0.0
  9
$TDUSRTIMER
 40
0.0
  9
$USRTIMER
 70
1
  9
$ANGBASE
 50
0.0
  9
$ANGDIR
 70
0
  9
$PDMODE
 70
0
  9
$PDSIZE
 40
0.0
  9
$PLINEWID
 40
0.0
  9
$SPLFRAME
 70
0
  9
$SPLINETYPE
 70
6
  9
$SPLINESEGS
 70
8
  9
$HANDSEED
  5
48
  9
$SURFTAB1
 70
6
  9
$SURFTAB2
 70
6
  9
$SURFTYPE
 70
6
  9
$SURFU
 70
6
  9
$SURFV
 70
6
  9
$UCSBASE
  2

  9
$UCSNAME
  2

  9
$UCSORG
 10
0.0
 20
0.0
 30
0.0
  9
$UCSXDIR
 10
1.0
 20
0.0
 30
0.0
  9
$UCSYDIR
 10
0.0
 20
1.0
 30
0.0
  9
$UCSORTHOREF
  2

  9
$UCSORTHOVIEW
 70
0
  9
$UCSORGTOP
 10
0.0
 20
0.0
 30
0.0
  9
$UCSORGBOTTOM
 10
0.0
 20
0.0
 30
0.0
  9
$UCSORGLEFT
 10
0.0
 20
0.0
 30
0.0
  9
$UCSORGRIGHT
 10
0.0
 20
0.0
 30
0.0
  9
$UCSORGFRONT
 10
0.0
 20
0.0
 30
0.0
  9
$UCSORGBACK
 10
0.0
 20
0.0
 30
0.0
  9
$PUCSBASE
  2

  9
$PUCSNAME
  2

  9
$PUCSORG
 10
0.0
 20
0.0
 30
0.0
  9
$PUCSXDIR
 10
1.0
 20
0.0
 30
0.0
  9
$PUCSYDIR
 10
0.0
 20
1.0
 30
0.0
  9
$PUCSORTHOREF
  2

  9
$PUCSORTHOVIEW
 70
0
  9
$PUCSORGTOP
 10
0.0
 20
0.0
 30
0.0
  9
$PUCSORGBOTTOM
 10
0.0
 20
0.0
 30
0.0
  9
$PUCSORGLEFT
 10
0.0
 20
0.0
 30
0.0
  9
$PUCSORGRIGHT
 10
0.0
 20
0.0
 30
0.0
  9
$PUCSORGFRONT
 10
0.0
 20
0.0
 30
0.0
  9
$PUCSORGBACK
 10
0.0
 20
0.0
 30
0.0
  9
$USERI1
 70
0
  9
$USERI2
 70
0
  9
$USERI3
 70
0
  9
$USERI4
 70
0
  9
$USERI5
 70
0
  9
$USERR1
 40
0.0
  9
$USERR2
 40
0.0
  9
$USERR3
 40
0.0
  9
$USERR4
 40
0.0
  9
$USERR5
 40
0.0
  9
$WORLDVIEW
 70
1
  9
$SHADEDGE
 70
3
  9
$SHADEDIF
 70
70
  9
$TILEMODE
 70
1
  9
$MAXACTVP
 70
64
  9
$PINSBASE
 10
0.0
 20
0.0
 30
0.0
  9
$PLIMCHECK
 70
0
  9
$PEXTMIN
 10
1e+20
 20
1e+20
 30
1e+20
  9
$PEXTMAX
 10
-1e+20
 20
-1e+20
 30
-1e+20
  9
$PLIMMIN
 10
0.0
 20
0.0
  9
$PLIMMAX
 10
420.0
 20
297.0
  9
$UNITMODE
 70
0
  9
$VISRETAIN
 70
1
  9
$PLINEGEN
 70
0
  9
$PSLTSCALE
 70
1
  9
$TREEDEPTH
 70
3020
  9
$CMLSTYLE
  2
Standard
  9
$CMLJUST
 70
0
  9
$CMLSCALE
 40
20.0
  9
$PROXYGRAPHICS
 70
1
  9
$MEASUREMENT
 70
1
  9
$CELWEIGHT
370
-1
  9
$ENDCAPS
280
0
  9
$JOINSTYLE
280
0
  9
$LWDISPLAY
290
0
  9
$INSUNITS
 70
4
  9
$HYPERLINKBASE
  1

  9
$STYLESHEET
  1

  9
$XEDIT
290
1
  9
$CEPSNTYPE
380
0
  9
$PSTYLEMODE
290
1
  9
$FINGERPRINTGUID
  2
{0AEAEF5D-49DC-4F1F-976F-84EB3A4C5BB2}
  9
$VERSIONGUID
  2
{DC7B5C7E-2355-4044-BB28-1D6FEBD96C3E}
  9
$EXTNAMES
290
1
  9
$PSVPSCALE
 40
0.0
  9
$OLESTARTUP
290
0
  9
$SORTENTS
280
127
  9
$INDEXCTL
280
0
  9
$HIDETEXT
280
1
  9
$XCLIPFRAME
280
1
  9
$HALOGAP
280
0
  9
$OBSCOLOR
 70
257
  9
$OBSLTYPE
280
0
  9
$INTERSECTIONDISPLAY
280
0
  9
$INTERSECTIONCOLOR
 70
257
  9
$DIMASSOC
280
2
  9
$PROJECTNAME
  1

  9
$CAMERADISPLAY
290
0
  9
$LENSLENGTH
 40
50.0
  9
$CAMERAHEIGHT
 40
0.0
  9
$STEPSPERSEC
 40
24.0
  9
$STEPSIZE
 40
100.0
  9
$3DDWFPREC
 40
2.0
  9
$PSOLWIDTH
 40
0.005
  9
$PSOLHEIGHT
 40
0.08
  9
$LOFTANG1
 40
1.570796326795
  9
$LOFTANG2
 40
1.570796326795
  9
$LOFTMAG1
 40
0.0
  9
$LOFTMAG2
 40
0.0
  9
$LOFTPARAM
 70
7
  9
$LOFTNORMALS
280
1
  9
$LATITUDE
 40
37.795
  9
$LONGITUDE
 40
-122.394
  9
$NORTHDIRECTION
 40
0.0
  9
$TIMEZONE
 70
-8000
  9
$LIGHTGLYPHDISPLAY
280
1
  9
$TILEMODELIGHTSYNCH
280
1
  9
$CMATERIAL
347
20
  9
$SOLIDHIST
280
0
  9
$SHOWHIST
280
1
  9
$DWFFRAME
280
2
  9
$DGNFRAME
280
2
  9
$REALWORLDSCALE
290
1
  9
$INTERFERECOLOR
 62
256
  9
$CSHADOW
280
0
  9
$SHADOWPLANELOCATION
 40
0.0
  0
ENDSEC
  0
SECTION
  2
CLASSES
  0
CLASS
  1
ACDBDICTIONARYWDFLT
  2
AcDbDictionaryWithDefault
  3
ObjectDBX Classes
 90
0
 91
0
280
0
281
0
  0
CLASS
  1
SUN
  2
AcDbSun
  3
SCENEOE
 90
1153
 91
0
280
0
281
0
  0
CLASS
  1
VISUALSTYLE
  2
AcDbVisualStyle
  3
ObjectDBX Classes
 90
4095
 91
0
280
0
281
0
  0
CLASS
  1
MATERIAL
  2
AcDbMaterial
  3
ObjectDBX Classes
 90
1153
 91
0
280
0
281
0
  0
CLASS
  1
SCALE
  2
AcDbScale
  3
ObjectDBX Classes
 90
1153
 91
0
280
0
281
0
  0
CLASS
  1
TABLESTYLE
  2
AcDbTableStyle
  3
ObjectDBX Classes
 90
4095
 91
0
280
0
281
0
  0
CLASS
  1
MLEADERSTYLE
  2
AcDbMLeaderStyle
  3
ACDB_MLEADERSTYLE_CLASS
 90
4095
 91
0
280
0
281
0
  0
CLASS
  1
DICTIONARYVAR
  2
AcDbDictionaryVar
  3
ObjectDBX Classes
 90
0
 91
0
280
0
281
0
  0
CLASS
  1
CELLSTYLEMAP
  2
AcDbCellStyleMap
  3
ObjectDBX Classes
 90
1152
 91
0
280
0
281
0
  0
CLASS
  1
MENTALRAYRENDERSETTINGS
  2
AcDbMentalRayRenderSettings
  3
SCENEOE
 90
1024
 91
0
280
0
281
0
  0
CLASS
  1
ACDBDETAILVIEWSTYLE
  2
AcDbDetailViewStyle
  3
ObjectDBX Classes
 90
1025
 91
0
280
0
281
0
  0
CLASS
  1
ACDBSECTIONVIEWSTYLE
  2
AcDbSectionViewStyle
  3
ObjectDBX Classes
 90
1025
 91
0
280
0
281
0
  0
CLASS
  1
RASTERVARIABLES
  2
AcDbRasterVariables
  3
ISM
 90
0
 91
0
280
0
281
0
  0
CLASS
  1
LAYOUT
  2
AcDbLayout
  3
ObjectDBX Classes
 90
0
 91
0
280
0
281
0
  0
CLASS
  1
ACDBPLACEHOLDER
  2
AcDbPlaceHolder
  3
ObjectDBX Classes
 90
0
 91
0
280
0
281
0
  0
ENDSEC
  0
SECTION
  2
TABLES
  0
TABLE
  2
VPORT
  5
8
330
0
100
AcDbSymbolTable
 70
1
  0
VPORT
  5
23
330
8
100
AcDbSymbolTableRecord
100
AcDbViewportTableRecord
  2
*Active
 70
0
 10
0.0
 20
0.0
 11
1.0
 21
1.0
 12
0.0
 22
0.0
 13
0.0
 23
0.0
 14
0.5
 24
0.5
 15
0.5
 25
0.5
 16
0.0
 26
0.0
 36
1.0
 17
0.0
 27
0.0
 37
0.0
 40
1000.0
 41
1.34
 42
50.0
 43
0.0
 44
0.0
 50
0.0
 51
0.0
 71
0
 72
1000
 73
1
 74
3
 75
0
 76
0
 77
0
 78
0
281
0
 65
0
146
0.0
  0
ENDTAB
  0
TABLE
  2
LTYPE
  5
2
330
0
100
AcDbSymbolTable
 70
3
  0
LTYPE
  5
24
330
2
100
AcDbSymbolTableRecord
100
AcDbLinetypeTableRecord
  2
ByBlock
 70
0
  3

 72
65
 73
0
 40
0.0
  0
LTYPE
  5
25
330
2
100
AcDbSymbolTableRecord
100
AcDbLinetypeTableRecord
  2
ByLayer
 70
0
  3

 72
65
 73
0
 40
0.0
  0
LTYPE
  5
26
330
2
100
AcDbSymbolTableRecord
100
AcDbLinetypeTableRecord
  2
Continuous
 70
0
  3

 72
65
 73
0
 40
0.0
  0
ENDTAB
  0
TABLE
  2
LAYER
  5
1
330
0
100
AcDbSymbolTable
 70
5
  0
LAYER
  5
27
330
1
100
AcDbSymbolTableRecord
100
AcDbLayerTableRecord
  2
0
 70
0
 62
7
  6
Continuous
370
-3
390
13
347
21
  0
LAYER
  5
28
330
1
100
AcDbSymbolTableRecord
100
AcDbLayerTableRecord
  2
Defpoints
 70
0
 62
7
  6
Continuous
290
0
370
-3
390
13
347
21
  0
LAYER
  5
30
330
1
100
AcDbSymbolTableRecord
100
AcDbLayerTableRecord
  2
CUT_OUTSIDE
 70
0
 62
1
  6
Continuous
370
-3
390
13
347
21
  0
LAYER
  5
32
330
1
100
AcDbSymbolTableRecord
100
AcDbLayerTableRecord
  2
CUT_INSIDE
 70
0
 62
5
  6
Continuous
370
-3
390
13
347
21
  0
LAYER
  5
3A
330
1
100
AcDbSymbolTableRecord
100
AcDbLayerTableRecord
  2
POCKET_15MM
 70
0
 62
3
  6
Continuous
370
-3
390
13
347
21
  0
ENDTAB
  0
TABLE
  2
STYLE
  5
5
330
0
100
AcDbSymbolTable
 70
1
  0
STYLE
  5
29
330
5
100
AcDbSymbolTableRecord
100
AcDbTextStyleTableRecord
  2
Standard
 70
0
 40
0.0
 41
1.0
 50
0.0
 71
0
 42
2.5
  3
txt
  4

  0
ENDTAB
  0
TABLE
  2
VIEW
  5
7
330
0
100
AcDbSymbolTable
 70
0
  0
ENDTAB
  0
TABLE
  2
UCS
  5
6
330
0
100
AcDbSymbolTable
 70
0
  0
ENDTAB
  0
TABLE
  2
APPID
  5
3
330
0
100
AcDbSymbolTable
 70
3
  0
APPID
  5
2A
330
3
100
AcDbSymbolTableRecord
100
AcDbRegAppTableRecord
  2
ACAD
 70
0
  0
APPID
  5
45
330
3
100
AcDbSymbolTableRecord
100
AcDbRegAppTableRecord
  2
HATCHBACKGROUNDCOLOR
 70
0
  0
APPID
  5
46
330
3
100
AcDbSymbolTableRecord
100
AcDbRegAppTableRecord
  2
EZDXF
 70
0
  0
ENDTAB
  0
TABLE
  2
DIMSTYLE
  5
4
330
0
100
AcDbSymbolTable
 70
1
100
AcDbDimStyleTable
  0
DIMSTYLE
105
2B
330
4
100
AcDbSymbolTableRecord
100
AcDbDimStyleTableRecord
  2
Standard
 70
0
 40
1.0
 41
2.5
 42
0.625
 43
3.75
 44
1.25
 45
0.0
 46
0.0
 47
0.0
 48
0.0
 49
2.5
140
2.5
141
2.5
142
0.0
143
0.03937007874
144
1.0
145
0.0
146
1.0
147
0.625
148
0.0
 69
0
 70
0
 71
0
 72
0
 73
0
 74
0
 75
0
 76
0
 77
1
 78
8
 79
3
170
0
171
3
172
1
173
0
174
0
175
0
176
0
177
0
178
0
179
2
271
2
272
2
273
2
274
3
275
0
276
0
277
2
278
44
279
0
280
0
281
0
282
0
283
0
284
8
285
0
286
0
288
0
289
3
290
0
371
-2
372
-2
  0
ENDTAB
  0
TABLE
  2
BLOCK_RECORD
  5
9
330
0
100
AcDbSymbolTable
 70
2
  0
BLOCK_RECORD
  5
17
330
9
100
AcDbSymbolTableRecord
100
AcDbBlockTableRecord
  2
*Model_Space
340
1A
 70
0
280
1
281
0
  0
BLOCK_RECORD
  5
1B
330
9
100
AcDbSymbolTableRecord
100
AcDbBlockTableRecord
  2
*Paper_Space
340
1E
 70
0
280
1
281
0
  0
ENDTAB
  0
ENDSEC
  0
SECTION
  2
BLOCKS
  0
BLOCK
  5
18
330
17
100
AcDbEntity
  8
0
100
AcDbBlockBegin
  2
*Model_Space
 70
0
 10
0.0
 20
0.0
 30
0.0
  3
*Model_Space
  1

  0
ENDBLK
  5
19
330
17
100
AcDbEntity
  8
0
100
AcDbBlockEnd
  0
BLOCK
  5
1C
330
1B
100
AcDbEntity
  8
0
100
AcDbBlockBegin
  2
*Paper_Space
 70
0
 10
0.0
 20
0.0
 30
0.0
  3
*Paper_Space
  1

  0
ENDBLK
  5
1D
330
1B
100
AcDbEntity
  8
0
100
AcDbBlockEnd
  0
ENDSEC
  0
SECTION
  2
ENTITIES
  0
LWPOLYLINE
  5
2F
330
17
100
AcDbEntity
  8
SHEET_EDGE
100
AcDbPolyline
 90
4
 70
1
 10
0.0
 20
0.0
 10
1525.0
 20
0.0
 10
1525.0
 20
1525.0
 10
0.0
 20
1525.0
  0
LWPOLYLINE
  5
31
330
17
100
AcDbEntity
  8
CUT_OUTSIDE
100
AcDbPolyline
 90
5
 70
1
 10
435.0
 20
15.0
 10
435.0
 20
895.0
 10
15.0
 20
895.0
 10
15.0
 20
15.0
 10
435.0
 20
15.0
  0
TEXT
  5
33
330
17
100
AcDbEntity
  8
NOTES
100
AcDbText
 10
25.0
 20
25.0
 30
0.0
 40
12.0
  1
left
 11
25.0
 21
25.0
 31
0.0
100
AcDbText
  0
LWPOLYLINE
  5
34
330
17
100
AcDbEntity
  8
CUT_OUTSIDE
100
AcDbPolyline
 90
5
 70
1
 10
867.0
 20
15.0
 10
867.0
 20
895.0
 10
447.0
 20
895.0
 10
447.0
 20
15.0
 10
867.0
 20
15.0
  0
TEXT
  5
35
330
17
100
AcDbEntity
  8
NOTES
100
AcDbText
 10
457.0
 20
25.0
 30
0.0
 40
12.0
  1
left
 11
457.0
 21
25.0
 31
0.0
100
AcDbText
  0
LWPOLYLINE
  5
36
330
17
100
AcDbEntity
  8
CUT_OUTSIDE
100
AcDbPolyline
 90
5
 70
1
 10
879.0
 20
895.0
 10
879.0
 20
15.0
 10
1299.0
 20
15.0
 10
1299.0
 20
895.0
 10
879.0
 20
895.0
  0
TEXT
  5
37
330
17
100
AcDbEntity
  8
NOTES
100
AcDbText
 10
889.0
 20
25.0
 30
0.0
 40
12.0
  1
right
 11
889.0
 21
25.0
 31
0.0
100
AcDbText
  0
LWPOLYLINE
  5
38
330
17
100
AcDbEntity
  8
CUT_OUTSIDE
100
AcDbPolyline
 90
5
 70
1
 10
15.0
 20
1327.0
 10
15.0
 20
907.0
 10
539.0
 20
907.0
 10
539.0
 20
1327.0
 10
15.0
 20
1327.0
  0
CIRCLE
  5
39
330
17
100
AcDbEntity
  8
CUT_INSIDE
100
AcDbCircle
 10
277.0
 20
1257.0
 30
0.0
 40
8.25
  0
LWPOLYLINE
  5
3B
330
17
100
AcDbEntity
  8
POCKET_15MM
100
AcDbPolyline
 90
38
 70
1
 10
133.0
 20
947.0
 10
132.91369546208625
 20
948.0140049219311
 10
132.6572646727665
 20
948.9988387684523
 10
132.23808467896714
 20
949.9261696628818
 10
131.66821452591063
 20
950.7693199837738
 10
130.9640483403405
 20
951.5040338315164
 10
130.14584370134338
 20
952.1091748263999
 10
129.23713886668185
 20
952.567334163779
 10
128.26407561997436
 20
952.8653314336862
 10
127.25464721917689
 20
952.994593797228
 10
126.23789308151873
 20
952.9514026115532
 10
125.24306337234069
 20
952.7370004084355
 10
124.29877753109396
 20
952.3575551488974
 10
123.43220094217428
 20
951.8239827822016
 10
122.66826343627285
 20
951.1516332138652
 10
122.02894210453695
 20
950.3598487168256
 10
121.53262905767119
 20
949.4714074894639
 10
121.193602318399
 20
948.5118683683107
 10
121.02161506874484
 20
947.5088355468531
 10
121.02161506874484
 20
946.4911644531469
 10
121.193602318399
 20
945.4881316316893
 10
121.53262905767119
 20
944.5285925105361
 10
122.02894210453695
 20
943.6401512831744
 10
122.66826343627285
 20
942.8483667861348
 10
123.43220094217428
 20
942.1760172177984
 10
124.29877753109396
 20
941.6424448511026
 10
125.24306337234069
 20
941.2629995915645
 10
126.23789308151873
 20
941.0485973884468
 10
127.25464721917689
 20
941.005406202772
 10
128.26407561997436
 20
941.1346685663138
 10
129.23713886668185
 20
941.432665836221
 10
130.14584370134338
 20
941.8908251736001
 10
130.9640483403405
 20
942.4959661684836
 10
131.66821452591063
 20
943.2306800162262
 10
132.23808467896714
 20
944.0738303371182
 10
132.6572646727665
 20
945.0011612315477
 10
132.91369546208625
 20
945.9859950780689
 10
133.0
 20
947.0
  0
LWPOLYLINE
  5
3C
330
17
100
AcDbEntity
  8
POCKET_15MM
100
AcDbPolyline
 90
38
 70
1
 10
433.0
 20
947.0
 10
432.91369546208625
 20
948.0140049219311
 10
432.65726467276653
 20
948.9988387684523
 10
432.23808467896714
 20
949.9261696628818
 10
431.6682145259106
 20
950.7693199837738
 10
430.96404834034047
 20
951.5040338315164
 10
430.1458437013434
 20
952.1091748263999
 10
429.23713886668185
 20
952.567334163779
 10
428.26407561997434
 20
952.8653314336862
 10
427.2546472191769
 20
952.994593797228
 10
426.23789308151873
 20
952.9514026115532
 10
425.2430633723407
 20
952.7370004084355
 10
424.29877753109395
 20
952.3575551488974
 10
423.4322009421743
 20
951.8239827822016
 10
422.66826343627287
 20
951.1516332138652
 10
422.02894210453695
 20
950.3598487168256
 10
421.53262905767116
 20
949.4714074894639
 10
421.19360231839903
 20
948.5118683683107
 10
421.02161506874484
 20
947.5088355468531
 10
421.02161506874484
 20
946.4911644531469
 10
421.19360231839903
 20
945.4881316316893
 10
421.53262905767116
 20
944.5285925105361
 10
422.02894210453695
 20
943.6401512831744
 10
422.66826343627287
 20
942.8483667861348
 10
423.4322009421743
 20
942.1760172177984
 10
424.29877753109395
 20
941.6424448511026
 10
425.2430633723407
 20
941.2629995915645
 10
426.23789308151873
 20
941.0485973884468
 10
427.2546472191769
 20
941.005406202772
 10
428.26407561997434
 20
941.1346685663138
 10
429.23713886668185
 20
941.432665836221
 10
430.1458437013434
 20
941.8908251736001
 10
430.96404834034047
 20
942.4959661684836
 10
431.6682145259106
 20
943.2306800162262
 10
432.23808467896714
 20
944.0738303371182
 10
432.65726467276653
 20
945.0011612315477
 10
432.91369546208625
 20
945.9859950780689
 10
433.0
 20
947.0
  0
LWPOLYLINE
  5
3D
330
17
100
AcDbEntity
  8
POCKET_15MM
100
AcDbPolyline
 90
38
 70
1
 10
283.0
 20
1112.0
 10
282.91369546208625
 20
1113.014004921931
 10
282.65726467276653
 20
1113.9988387684523
 10
282.23808467896714
 20
1114.9261696628819
 10
281.6682145259106
 20
1115.7693199837738
 10
280.96404834034047
 20
1116.5040338315164
 10
280.1458437013434
 20
1117.1091748263998
 10
279.23713886668185
 20
1117.5673341637792
 10
278.26407561997434
 20
1117.8653314336862
 10
277.2546472191769
 20
1117.9945937972282
 10
276.23789308151873
 20
1117.9514026115532
 10
275.2430633723407
 20
1117.7370004084355
 10
274.29877753109395
 20
1117.3575551488975
 10
273.4322009421743
 20
1116.8239827822017
 10
272.66826343627287
 20
1116.1516332138654
 10
272.02894210453695
 20
1115.3598487168256
 10
271.53262905767116
 20
1114.471407489464
 10
271.19360231839903
 20
1113.5118683683108
 10
271.02161506874484
 20
1112.508835546853
 10
271.02161506874484
 20
1111.491164453147
 10
271.19360231839903
 20
1110.4881316316892
 10
271.53262905767116
 20
1109.528592510536
 10
272.02894210453695
 20
1108.6401512831744
 10
272.66826343627287
 20
1107.8483667861346
 10
273.4322009421743
 20
1107.1760172177983
 10
274.29877753109395
 20
1106.6424448511025
 10
275.2430633723407
 20
1106.2629995915645
 10
276.23789308151873
 20
1106.0485973884468
 10
277.2546472191769
 20
1106.0054062027718
 10
278.26407561997434
 20
1106.1346685663138
 10
279.23713886668185
 20
1106.4326658362208
 10
280.1458437013434
 20
1106.8908251736002
 10
280.96404834034047
 20
1107.4959661684836
 10
281.6682145259106
 20
1108.2306800162262
 10
282.23808467896714
 20
1109.0738303371181
 10
282.65726467276653
 20
1110.0011612315477
 10
282.91369546208625
 20
1110.985995078069
 10
283.0
 20
1112.0
  0
TEXT
  5
3E
330
17
100
AcDbEntity
  8
NOTES
100
AcDbText
 10
25.0
 20
917.0
 30
0.0
 40
12.0
  1
top
 11
25.0
 21
917.0
 31
0.0
100
AcDbText
  0
LWPOLYLINE
  5
3F
330
17
100
AcDbEntity
  8
CUT_OUTSIDE
100
AcDbPolyline
 90
5
 70
1
 10
551.0
 20
1327.0
 10
551.0
 20
907.0
 10
1075.0
 20
907.0
 10
1075.0
 20
1327.0
 10
551.0
 20
1327.0
  0
CIRCLE
  5
40
330
17
100
AcDbEntity
  8
CUT_INSIDE
100
AcDbCircle
 10
813.0
 20
1257.0
 30
0.0
 40
8.25
  0
LWPOLYLINE
  5
41
330
17
100
AcDbEntity
  8
POCKET_15MM
100
AcDbPolyline
 90
38
 70
1
 10
669.0
 20
947.0
 10
668.9136954620863
 20
948.0140049219311
 10
668.6572646727665
 20
948.9988387684523
 10
668.2380846789672
 20
949.9261696628818
 10
667.6682145259106
 20
950.7693199837738
 10
666.9640483403405
 20
951.5040338315164
 10
666.1458437013434
 20
952.1091748263999
 10
665.2371388666818
 20
952.567334163779
 10
664.2640756199744
 20
952.8653314336862
 10
663.2546472191768
 20
952.994593797228
 10
662.2378930815187
 20
952.9514026115532
 10
661.2430633723407
 20
952.7370004084355
 10
660.298777531094
 20
952.3575551488974
 10
659.4322009421743
 20
951.8239827822016
 10
658.6682634362728
 20
951.1516332138652
 10
658.028942104537
 20
950.3598487168256
 10
657.5326290576712
 20
949.4714074894639
 10
657.193602318399
 20
948.5118683683107
 10
657.0216150687448
 20
947.5088355468531
 10
657.0216150687448
 20
946.4911644531469
 10
657.193602318399
 20
945.4881316316893
 10
657.5326290576712
 20
944.5285925105361
 10
658.028942104537
 20
943.6401512831744
 10
658.6682634362728
 20
942.8483667861348
 10
659.4322009421743
 20
942.1760172177984
 10
660.298777531094
 20
941.6424448511026
 10
661.2430633723407
 20
941.2629995915645
 10
662.2378930815187
 20
941.0485973884468
 10
663.2546472191768
 20
941.005406202772
 10
664.2640756199744
 20
941.1346685663138
 10
665.2371388666818
 20
941.432665836221
 10
666.1458437013434
 20
941.8908251736001
 10
666.9640483403405
 20
942.4959661684836
 10
667.6682145259106
 20
943.2306800162262
 10
668.2380846789672
 20
944.0738303371182
 10
668.6572646727665
 20
945.0011612315477
 10
668.9136954620863
 20
945.9859950780689
 10
669.0
 20
947.0
  0
LWPOLYLINE
  5
42
330
17
100
AcDbEntity
  8
POCKET_15MM
100
AcDbPolyline
 90
38
 70
1
 10
969.0
 20
947.0
 10
968.9136954620863
 20
948.0140049219311
 10
968.6572646727666
 20
948.9988387684523
 10
968.2380846789672
 20
949.9261696628818
 10
967.6682145259106
 20
950.7693199837738
 10
966.9640483403405
 20
951.5040338315164
 10
966.1458437013434
 20
952.1091748263999
 10
965.2371388666818
 20
952.567334163779
 10
964.2640756199744
 20
952.8653314336862
 10
963.2546472191768
 20
952.994593797228
 10
962.2378930815187
 20
952.9514026115532
 10
961.2430633723407
 20
952.7370004084355
 10
960.298777531094
 20
952.3575551488974
 10
959.4322009421743
 20
951.8239827822016
 10
958.6682634362728
 20
951.1516332138652
 10
958.028942104537
 20
950.3598487168256
 10
957.5326290576711
 20
949.4714074894639
 10
957.193602318399
 20
948.5118683683107
 10
957.0216150687448
 20
947.5088355468531
 10
957.0216150687448
 20
946.4911644531469
 10
957.193602318399
 20
945.4881316316893
 10
957.5326290576711
 20
944.5285925105361
 10
958.028942104537
 20
943.6401512831744
 10
958.6682634362728
 20
942.8483667861348
 10
959.4322009421743
 20
942.1760172177984
 10
960.298777531094
 20
941.6424448511026
 10
961.2430633723407
 20
941.2629995915645
 10
962.2378930815187
 20
941.0485973884468
 10
963.2546472191768
 20
941.005406202772
 10
964.2640756199744
 20
941.1346685663138
 10
965.2371388666818
 20
941.432665836221
 10
966.1458437013434
 20
941.8908251736001
 10
966.9640483403405
 20
942.4959661684836
 10
967.6682145259106
 20
943.2306800162262
 10
968.2380846789672
 20
944.0738303371182
 10
968.6572646727666
 20
945.0011612315477
 10
968.9136954620863
 20
945.9859950780689
 10
969.0
 20
947.0
  0
LWPOLYLINE
  5
43
330
17
100
AcDbEntity
  8
POCKET_15MM
100
AcDbPolyline
 90
38
 70
1
 10
819.0
 20
1112.0
 10
818.9136954620863
 20
1113.014004921931
 10
818.6572646727666
 20
1113.9988387684523
 10
818.2380846789672
 20
1114.9261696628819
 10
817.6682145259106
 20
1115.7693199837738
 10
816.9640483403405
 20
1116.5040338315164
 10
816.1458437013434
 20
1117.1091748263998
 10
815.2371388666818
 20
1117.5673341637792
 10
814.2640756199744
 20
1117.8653314336862
 10
813.2546472191768
 20
1117.9945937972282
 10
812.2378930815187
 20
1117.9514026115532
 10
811.2430633723407
 20
1117.7370004084355
 10
810.298777531094
 20
1117.3575551488975
 10
809.4322009421743
 20
1116.8239827822017
 10
808.6682634362728
 20
1116.1516332138654
 10
808.028942104537
 20
1115.3598487168256
 10
807.5326290576711
 20
1114.471407489464
 10
807.193602318399
 20
1113.5118683683108
 10
807.0216150687448
 20
1112.508835546853
 10
807.0216150687448
 20
1111.491164453147
 10
807.193602318399
 20
1110.4881316316892
 10
807.5326290576711
 20
1109.528592510536
 10
808.028942104537
 20
1108.6401512831744
 10
808.6682634362728
 20
1107.8483667861346
 10
809.4322009421743
 20
1107.1760172177983
 10
810.298777531094
 20
1106.6424448511025
 10
811.2430633723407
 20
1106.2629995915645
 10
812.2378930815187
 20
1106.0485973884468
 10
813.2546472191768
 20
1106.0054062027718
 10
814.2640756199744
 20
1106.1346685663138
 10
815.2371388666818
 20
1106.4326658362208
 10
816.1458437013434
 20
1106.8908251736002
 10
816.9640483403405
 20
1107.4959661684836
 10
817.6682145259106
 20
1108.2306800162262
 10
818.2380846789672
 20
1109.0738303371181
 10
818.6572646727666
 20
1110.0011612315477
 10
818.9136954620863
 20
1110.985995078069
 10
819.0
 20
1112.0
  0
TEXT
  5
44
330
17
100
AcDbEntity
  8
NOTES
100
AcDbText
 10
561.0
 20
917.0
 30
0.0
 40
12.0
  1
top
 11
561.0
 21
917.0
 31
0.0
100
AcDbText
  0
ENDSEC
  0
SECTION
  2
OBJECTS
  0
DICTIONARY
  5
A
330
0
100
AcDbDictionary
281
1
  3
ACAD_COLOR
350
B
  3
ACAD_GROUP
350
C
  3
ACAD_LAYOUT
350
D
  3
ACAD_MATERIAL
350
E
  3
ACAD_MLEADERSTYLE
350
F
  3
ACAD_MLINESTYLE
350
10
  3
ACAD_PLOTSETTINGS
350
11
  3
ACAD_PLOTSTYLENAME
350
12
  3
ACAD_SCALELIST
350
14
  3
ACAD_TABLESTYLE
350
15
  3
ACAD_VISUALSTYLE
350
16
  3
EZDXF_META
350
2D
  0
DICTIONARY
  5
B
330
A
100
AcDbDictionary
281
1
  0
DICTIONARY
  5
C
330
A
100
AcDbDictionary
281
1
  0
DICTIONARY
  5
D
330
A
100
AcDbDictionary
281
1
  3
Model
350
1A
  3
Layout1
350
1E
  0
DICTIONARY
  5
E
330
A
100
AcDbDictionary
281
1
  3
ByBlock
350
1F
  3
ByLayer
350
20
  3
Global
350
21
  0
DICTIONARY
  5
F
330
A
100
AcDbDictionary
281
1
  3
Standard
350
2C
  0
DICTIONARY
  5
10
330
A
100
AcDbDictionary
281
1
  3
Standard
350
22
  0
DICTIONARY
  5
11
330
A
100
AcDbDictionary
281
1
  0
ACDBDICTIONARYWDFLT
  5
12
330
A
100
AcDbDictionary
281
1
  3
Normal
350
13
100
AcDbDictionaryWithDefault
340
13
  0
ACDBPLACEHOLDER
  5
13
330
12
  0
DICTIONARY
  5
14
330
A
100
AcDbDictionary
281
1
  0
DICTIONARY
  5
15
330
A
100
AcDbDictionary
281
1
  0
DICTIONARY
  5
16
330
A
100
AcDbDictionary
281
1
  0
LAYOUT
  5
1A
330
D
100
AcDbPlotSettings
  1

  4
A3
  6

 40
7.5
 41
20.0
 42
7.5
 43
20.0
 44
420.0
 45
297.0
 46
0.0
 47
0.0
 48
0.0
 49
0.0
140
0.0
141
0.0
142
1.0
143
1.0
 70
1024
 72
1
 73
0
 74
5
  7

 75
16
 76
0
 77
2
 78
300
147
1.0
148
0.0
149
0.0
100
AcDbLayout
  1
Model
 70
1
 71
0
 10
0.0
 20
0.0
 11
420.0
 21
297.0
 12
0.0
 22
0.0
 32
0.0
 14
1e+20
 24
1e+20
 34
1e+20
 15
-1e+20
 25
-1e+20
 35
-1e+20
146
0.0
 13
0.0
 23
0.0
 33
0.0
 16
1.0
 26
0.0
 36
0.0
 17
0.0
 27
1.0
 37
0.0
 76
1
330
17
  0
LAYOUT
  5
1E
330
D
100
AcDbPlotSettings
  1

  4
A3
  6

 40
7.5
 41
20.0
 42
7.5
 43
20.0
 44
420.0
 45
297.0
 46
0.0
 47
0.0
 48
0.0
 49
0.0
140
0.0
141
0.0
142
1.0
143
1.0
 70
0
 72
1
 73
0
 74
5
  7

 75
16
 76
0
 77
2
 78
300
147
1.0
148
0.0
149
0.0
100
AcDbLayout
  1
Layout1
 70
1
 71
1
 10
0.0
 20
0.0
 11
420.0
 21
297.0
 12
0.0
 22
0.0
 32
0.0
 14
1e+20
 24
1e+20
 34
1e+20
 15
-1e+20
 25
-1e+20
 35
-1e+20
146
0.0
 13
0.0
 23
0.0
 33
0.0
 16
1.0
 26
0.0
 36
0.0
 17
0.0
 27
1.0
 37
0.0
 76
1
330
1B
  0
MATERIAL
  5
1F
102
{ACAD_REACTORS
330
E
102
}
330
E
100
AcDbMaterial
  1
ByBlock
  2

 70
0
 40
1.0
 71
1
 41
1.0
 91
-1023410177
 42
1.0
 72
1
  3

 73
1
 74
1
 75
1
 44
0.5
 73
0
 45
1.0
 46
1.0
 77
1
  4

 78
1
 79
1
170
1
 48
1.0
171
1
  6

172
1
173
1
174
1
140
1.0
141
1.0
175
1
  7

176
1
177
1
178
1
143
1.0
179
1
  8

270
1
271
1
272
1
145
1.0
146
1.0
273
1
  9

274
1
275
1
276
1
 42
1.0
 72
1
  3

 73
1
 74
1
 75
1
 94
63
  0
MATERIAL
  5
20
102
{ACAD_REACTORS
330
E
102
}
330
E
100
AcDbMaterial
  1
ByLayer
  2

 70
0
 40
1.0
 71
1
 41
1.0
 91
-1023410177
 42
1.0
 72
1
  3

 73
1
 74
1
 75
1
 44
0.5
 73
0
 45
1.0
 46
1.0
 77
1
  4

 78
1
 79
1
170
1
 48
1.0
171
1
  6

172
1
173
1
174
1
140
1.0
141
1.0
175
1
  7

176
1
177
1
178
1
143
1.0
179
1
  8

270
1
271
1
272
1
145
1.0
146
1.0
273
1
  9

274
1
275
1
276
1
 42
1.0
 72
1
  3

 73
1
 74
1
 75
1
 94
63
  0
MATERIAL
  5
21
102
{ACAD_REACTORS
330
E
102
}
330
E
100
AcDbMaterial
  1
Global
  2

 70
0
 40
1.0
 71
1
 41
1.0
 91
-1023410177
 42
1.0
 72
1
  3

 73
1
 74
1
 75
1
 44
0.5
 73
0
 45
1.0
 46
1.0
 77
1
  4

 78
1
 79
1
170
1
 48
1.0
171
1
  6

172
1
173
1
174
1
140
1.0
141
1.0
175
1
  7

176
1
177
1
178
1
143
1.0
179
1
  8

270
1
271
1
272
1
145
1.0
146
1.0
273
1
  9

274
1
275
1
276
1
 42
1.0
 72
1
  3

 73
1
 74
1
 75
1
 94
63
  0
MLINESTYLE
  5
22
102
{ACAD_REACTORS
330
10
102
}
330
10
100
AcDbMlineStyle
  2
Standard
 70
0
  3

 62
256
 51
90.0
 52
90.0
 71
2
 49
0.5
 62
256
  6
BYLAYER
 49
-0.5
 62
256
  6
BYLAYER
  0
MLEADERSTYLE
  5
2C
102
{ACAD_REACTORS
330
F
102
}
330
F
100
AcDbMLeaderStyle
179
2
170
2
171
1
172
0
 90
2
 40
0.0
 41
0.0
173
1
 91
-1056964608
 92
-2
290
1
 42
2.0
291
1
 43
8.0
  3
Standard
 44
4.0
300

342
29
174
1
175
1
176
0
178
1
 93
-1056964608
 45
4.0
292
0
297
0
 46
4.0
 94
-1056964608
 47
1.0
 49
1.0
140
1.0
294
1
141
0.0
177
0
142
1.0
295
0
296
0
143
3.75
271
0
272
9
273
9
  0
DICTIONARY
  5
2D
330
A
100
AcDbDictionary
280
1
281
1
  3
CREATED_BY_EZDXF
350
2E
  3
WRITTEN_BY_EZDXF
350
47
  0
DICTIONARYVAR
  5
2E
330
2D
100
DictionaryVariables
280
0
  1
1.4.4 @ 2026-10-11T00:38:32.393143+00:00
  0
DICTIONARYVAR
  5
47
330
2D
100
DictionaryVariables
280
0
  1
1.4.4 @ 2026-10-11T00:38:32.395061+00:00
  0
ENDSEC
  0
EOF
