  0
SECTION
  2
HEADER
  9
$ACADVER
  1
AC1024
  9
$ACADMAINTVER
 70
6
  9
$DWGCODEPAGE
  3
ANSI_1252
  9
$LASTSAVEDBY
  1
ezdxf
  9
$INSBASE
 10
0.0
 20
0.0
 30
0.0
  9
$EXTMIN
 10
1e+20
 20
1e+20
 30
1e+20
  9
$EXTMAX
 10
-1e+20
 20
-1e+20
 30
-1e+20
  9
$LIMMIN
 10
0.0
 20
0.0
  9
$LIMMAX
 10
420.0
 20
297.0
  9
$ORTHOMODE
 70
0
  9
$REGENMODE
 70
1
  9
$FILLMODE
 70
1
  9
$QTEXTMODE
 70
0
  9
$MIRRTEXT
 70
1
  9
$LTSCALE
 40
1.0
  9
$ATTMODE
 70
1
  9
$TEXTSIZE
 40
2.5
  9
$TRACEWID
 40
1.0
  9
$TEXTSTYLE
  7
Standard
  9
$CLAYER
  8
0
  9
$CELTYPE
  6
ByLayer
  9
$CECOLOR
 62
256
  9
$CELTSCALE
 40
1.0
  9
$DISPSILH
 70
0
  9
$DIMSCALE
 40
1.0
  9
$DIMASZ
 40
2.5
  9
$DIMEXO
 40
0.625
  9
$DIMDLI
 40
3.75
  9
$DIMRND
 40
0.0
  9
$DIMDLE
 40
0.0
  9
$DIMEXE
 40
1.25
  9
$DIMTP
 40
0.0
  9
$DIMTM
 40
0.0
  9
$DIMTXT
 40
2.5
  9
$DIMCEN
 40
2.5
  9
$DIMTSZ
 40
0.0
  9
$DIMTOL
 70
0
  9
$DIMLIM
 70
0
  9
$DIMTIH
 70
0
  9
$DIMTOH
 70
0
  9
$DIMSE1
 70
0
  9
$DIMSE2
 70
0
  9
$DIMTAD
 70
1
  9
$DIMZIN
 70
8
  9
$DIMBLK
  1

  9
$DIMASO
 70
1
  9
$DIMSHO
 70
1
  9
$DIMPOST
  1

  9
$DIMAPOST
  1

  9
$DIMALT
 70
0
  9
$DIMALTD
 70
3
  9
$DIMALTF
 40
0.03937007874
  9
$DIMLFAC
 40
1.0
  9
$DIMTOFL
 70
1
  9
$DIMTVP
 40
0.0
  9
$DIMTIX
 70
0
  9
$DIMSOXD
 70
0
  9
$DIMSAH
 70
0
  9
$DIMBLK1
  1

  9
$DIMBLK2
  1

  9
$DIMSTYLE
  2
ISO-25
  9
$DIMCLRD
 70
0
  9
$DIMCLRE
 70
0
  9
$DIMCLRT
 70
0
  9
$DIMTFAC
 40
1.0
  9
$DIMGAP
 40
0.625
  9
$DIMJUST
 70
0
  9
$DIMSD1
 70
0
  9
$DIMSD2
 70
0
  9
$DIMTOLJ
 70
0
  9
$DIMTZIN
 70
8
  9
$DIMALTZ
 70
0
  9
$DIMALTTZ
 70
0
  9
$DIMUPT
 70
0
  9
$DIMDEC
 70
2
  9
$DIMTDEC
 70
2
  9
$DIMALTU
 70
2
  9
$DIMALTTD
 70
3
  9
$DIMTXSTY
  7
Standard
  9
$DIMAUNIT
 70
0
  9
$DIMADEC
 70
0
  9
$DIMALTRND
 40
0.0
  9
$DIMAZIN
 70
0
  9
$DIMDSEP
 70
44
  9
$DIMATFIT
 70
3
  9
$DIMFRAC
 70
0
  9
$DIMLDRBLK
  1

  9
$DIMLUNIT
 70
2
  9
$DIMLWD
 70
-2
  9
$DIMLWE
 70
-2
  9
$DIMTMOVE
 70
0
  9
$DIMFXL
 40
1.0
  9
$DIMFXLON
 70
0
  9
$DIMJOGANG
 40
0.785398163397
  9
$DIMTFILL
 70
0
  9
$DIMTFILLCLR
 70
0
  9
$DIMARCSYM
 70
0
  9
$DIMLTYPE
  6

  9
$DIMLTEX1
  6

  9
$DIMLTEX2
  6

  9
$DIMTXTDIRECTION
 70
0
  9
$LUNITS
 70
2
  9
$LUPREC
 70
4
  9
$SKETCHINC
 40
1.0
  9
$FILLETRAD
 40
10.0
  9
$AUNITS
 70
0
  9
$AUPREC
 70
2
  9
$MENU
  1
.
  9
$ELEVATION
 40
0.0
  9
$PELEVATION
 40
0.0
  9
$THICKNESS
 40
0.0
  9
$LIMCHECK
 70
0
  9
$CHAMFERA
 40
0.0
  9
$CHAMFERB
 40
0.0
  9
$CHAMFERC
 40
0.0
  9
$CHAMFERD
 40
0.0
  9
$SKPOLY
 70
0
  9
$TDCREATE
 40
2461324.7897106484
  9
$TDUCREATE
 40
2458532.153996898
  9
$TDUPDATE
 40
2461324.7897106484
  9
$TDUUPDATE
 40
2458532.1544311
  9
$TDINDWG
 40
0.0
  9
$TDUSRTIMER
 40
0.0
  9
$USRTIMER
 70
1
  9
$ANGBASE
 50
0.0
  9
$ANGDIR
 70
0
  9
$PDMODE
 70
0
  9
$PDSIZE
 40
0.0
  9
$PLINEWID
 40
0.0
  9
$SPLFRAME
 70
0
  9
$SPLINETYPE
 70
6
  9
$SPLINESEGS
 70
8
  9
$HANDSEED
  5
61
  9
$SURFTAB1
 70
6
  9
$SURFTAB2
 70
6
  9
$SURFTYPE
 70
6
  9
$SURFU
 70
6
  9
$SURFV
 70
6
  9
$UCSBASE
  2

  9
$UCSNAME
  2

  9
$UCSORG
 10
0.0
 20
0.0
 30
0.0
  9
$UCSXDIR
 10
1.0
 20
0.0
 30
0.0
  9
$UCSYDIR
 10
0.0
 20
1.0
 30
0.0
  9
$UCSORTHOREF
  2

  9
$UCSORTHOVIEW
 70
0
  9
$UCSORGTOP
 10
0.0
 20
0.0
 30
0.0
  9
$UCSORGBOTTOM
 10
0.0
 20
0.0
 30
0.0
  9
$UCSORGLEFT
 10
0.0
 20
0.0
 30
0.0
  9
$UCSORGRIGHT
 10
0.0
 20
0.0
 30
0.0
  9
$UCSORGFRONT
 10
0.0
 20
0.0
 30
0.0
  9
$UCSORGBACK
 10
0.0
 20
0.0
 30
0.0
  9
$PUCSBASE
  2

  9
$PUCSNAME
  2

  9
$PUCSORG
 10
0.0
 20
0.0
 30
0.0
  9
$PUCSXDIR
 10
1.0
 20
0.0
 30
0.0
  9
$PUCSYDIR
 10
0.0
 20
1.0
 30
0.0
  9
$PUCSORTHOREF
  2

  9
$PUCSORTHOVIEW
 70
0
  9
$PUCSORGTOP
 10
0.0
 20
0.0
 30
0.0
  9
$PUCSORGBOTTOM
 10
0.0
 20
0.0
 30
0.0
  9
$PUCSORGLEFT
 10
0.0
 20
0.0
 30
0.0
  9
$PUCSORGRIGHT
 10
0.0
 20
0.0
 30
0.0
  9
$PUCSORGFRONT
 10
0.0
 20
0.0
 30
0.0
  9
$PUCSORGBACK
 10
0.0
 20
0.0
 30
0.0
  9
$USERI1
 70
0
  9
$USERI2
 70
0
  9
$USERI3
 70
0
  9
$USERI4
 70
0
  9
$USERI5
 70
0
  9
$USERR1
 40
0.0
  9
$USERR2
 40
0.0
  9
$USERR3
 40
0.0
  9
$USERR4
 40
0.0
  9
$USERR5
 40
0.0
  9
$WORLDVIEW
 70
1
  9
$SHADEDGE
 70
3
  9
$SHADEDIF
 70
70
  9
$TILEMODE
 70
1
  9
$MAXACTVP
 70
64
  9
$PINSBASE
 10
0.0
 20
0.0
 30
0.0
  9
$PLIMCHECK
 70
0
  9
$PEXTMIN
 10
1e+20
 20
1e+20
 30
1e+20
  9
$PEXTMAX
 10
-1e+20
 20
-1e+20
 30
-1e+20
  9
$PLIMMIN
 10
0.0
 20
0.0
  9
$PLIMMAX
 10
420.0
 20
297.0
  9
$UNITMODE
 70
0
  9
$VISRETAIN
 70
1
  9
$PLINEGEN
 70
0
  9
$PSLTSCALE
 70
1
  9
$TREEDEPTH
 70
3020
  9
$CMLSTYLE
  2
Standard
  9
$CMLJUST
 70
0
  9
$CMLSCALE
 40
20.0
  9
$PROXYGRAPHICS
 70
1
  9
$MEASUREMENT
 70
1
  9
$CELWEIGHT
370
-1
  9
$ENDCAPS
280
0
  9
$JOINSTYLE
280
0
  9
$LWDISPLAY
290
0
  9
$INSUNITS
 70
4
  9
$HYPERLINKBASE
  1

  9
$STYLESHEET
  1

  9
$XEDIT
290
1
  9
$CEPSNTYPE
380
0
  9
$PSTYLEMODE
290
1
  9
$FINGERPRINTGUID
  2
{E4A34D91-1546-4755-BD2C-FCBB09213E25}
  9
$VERSIONGUID
  2
{4720D4E2-EF0C-4083-9ACB-469B1C66EFF0}
  9
$EXTNAMES
290
1
  9
$PSVPSCALE
 40
0.0
  9
$OLESTARTUP
290
0
  9
$SORTENTS
280
127
  9
$INDEXCTL
280
0
  9
$HIDETEXT
280
1
  9
$XCLIPFRAME
280
1
  9
$HALOGAP
280
0
  9
$OBSCOLOR
 70
257
  9
$OBSLTYPE
280
0
  9
$INTERSECTIONDISPLAY
280
0
  9
$INTERSECTIONCOLOR
 70
257
  9
$DIMASSOC
280
2
  9
$PROJECTNAME
  1

  9
$CAMERADISPLAY
290
0
  9
$LENSLENGTH
 40
50.0
  9
$CAMERAHEIGHT
 40
0.0
  9
$STEPSPERSEC
 40
24.0
  9
$STEPSIZE
 40
100.0
  9
$3DDWFPREC
 40
2.0
  9
$PSOLWIDTH
 40
0.005
  9
$PSOLHEIGHT
 40
0.08
  9
$LOFTANG1
 40
1.570796326795
  9
$LOFTANG2
 40
1.570796326795
  9
$LOFTMAG1
 40
0.0
  9
$LOFTMAG2
 40
0.0
  9
$LOFTPARAM
 70
7
  9
$LOFTNORMALS
280
1
  9
$LATITUDE
 40
37.795
  9
$LONGITUDE
 40
-122.394
  9
$NORTHDIRECTION
 40
0.0
  9
$TIMEZONE
 70
-8000
  9
$LIGHTGLYPHDISPLAY
280
1
  9
$TILEMODELIGHTSYNCH
280
1
  9
$CMATERIAL
347
20
  9
$SOLIDHIST
280
0
  9
$SHOWHIST
280
1
  9
$DWFFRAME
280
2
  9
$DGNFRAME
280
2
  9
$REALWORLDSCALE
290
1
  9
$INTERFERECOLOR
 62
256
  9
$CSHADOW
280
0
  9
$SHADOWPLANELOCATION
 40
0.0
  0
ENDSEC
  0
SECTION
  2
CLASSES
  0
CLASS
  1
ACDBDICTIONARYWDFLT
  2
AcDbDictionaryWithDefault
  3
ObjectDBX Classes
 90
0
 91
0
280
0
281
0
  0
CLASS
  1
SUN
  2
AcDbSun
  3
SCENEOE
 90
1153
 91
0
280
0
281
0
  0
CLASS
  1
VISUALSTYLE
  2
AcDbVisualStyle
  3
ObjectDBX Classes
 90
4095
 91
0
280
0
281
0
  0
CLASS
  1
MATERIAL
  2
AcDbMaterial
  3
ObjectDBX Classes
 90
1153
 91
0
280
0
281
0
  0
CLASS
  1
SCALE
  2
AcDbScale
  3
ObjectDBX Classes
 90
1153
 91
0
280
0
281
0
  0
CLASS
  1
TABLESTYLE
  2
AcDbTableStyle
  3
ObjectDBX Classes
 90
4095
 91
0
280
0
281
0
  0
CLASS
  1
MLEADERSTYLE
  2
AcDbMLeaderStyle
  3
ACDB_MLEADERSTYLE_CLASS
 90
4095
 91
0
280
0
281
0
  0
CLASS
  1
DICTIONARYVAR
  2
AcDbDictionaryVar
  3
ObjectDBX Classes
 90
0
 91
0
280
0
281
0
  0
CLASS
  1
CELLSTYLEMAP
  2
AcDbCellStyleMap
  3
ObjectDBX Classes
 90
1152
 91
0
280
0
281
0
  0
CLASS
  1
MENTALRAYRENDERSETTINGS
  2
AcDbMentalRayRenderSettings
  3
SCENEOE
 90
1024
 91
0
280
0
281
0
  0
CLASS
  1
ACDBDETAILVIEWSTYLE
  2
AcDbDetailViewStyle
  3
ObjectDBX Classes
 90
1025
 91
0
280
0
281
0
  0
CLASS
  1
ACDBSECTIONVIEWSTYLE
  2
AcDbSectionViewStyle
  3
ObjectDBX Classes
 90
1025
 91
0
280
0
281
0
  0
CLASS
  1
RASTERVARIABLES
  2
AcDbRasterVariables
  3
ISM
 90
0
 91
0
280
0
281
0
  0
CLASS
  1
ACDBPLACEHOLDER
  2
AcDbPlaceHolder
  3
ObjectDBX Classes
 90
0
 91
0
280
0
281
0
  0
CLASS
  1
LAYOUT
  2
AcDbLayout
  3
ObjectDBX Classes
 90
0
 91
0
280
0
281
0
  0
ENDSEC
  0
SECTION
  2
TABLES
  0
TABLE
  2
VPORT
  5
8
330
0
100
AcDbSymbolTable
 70
1
  0
VPORT
  5
23
330
8
100
AcDbSymbolTableRecord
100
AcDbViewportTableRecord
  2
*Active
 70
0
 10
0.0
 20
0.0
 11
1.0
 21
1.0
 12
0.0
 22
0.0
 13
0.0
 23
0.0
 14
0.5
 24
0.5
 15
0.5
 25
0.5
 16
0.0
 26
0.0
 36
1.0
 17
0.0
 27
0.0
 37
0.0
 40
1000.0
 41
1.34
 42
50.0
 43
0.0
 44
0.0
 50
0.0
 51
0.0
 71
0
 72
1000
 73
1
 74
3
 75
0
 76
0
 77
0
 78
0
281
0
 65
0
146
0.0
  0
ENDTAB
  0
TABLE
  2
LTYPE
  5
2
330
0
100
AcDbSymbolTable
 70
3
  0
LTYPE
  5
24
330
2
100
AcDbSymbolTableRecord
100
AcDbLinetypeTableRecord
  2
ByBlock
 70
0
  3

 72
65
 73
0
 40
0.0
  0
LTYPE
  5
25
330
2
100
AcDbSymbolTableRecord
100
AcDbLinetypeTableRecord
  2
ByLayer
 70
0
  3

 72
65
 73
0
 40
0.0
  0
LTYPE
  5
26
330
2
100
AcDbSymbolTableRecord
100
AcDbLinetypeTableRecord
  2
Continuous
 70
0
  3

 72
65
 73
0
 40
0.0
  0
ENDTAB
  0
TABLE
  2
LAYER
  5
1
330
0
100
AcDbSymbolTable
 70
6
  0
LAYER
  5
27
330
1
100
AcDbSymbolTableRecord
100
AcDbLayerTableRecord
  2
0
 70
0
 62
7
  6
Continuous
370
-3
390
13
347
21
  0
LAYER
  5
28
330
1
100
AcDbSymbolTableRecord
100
AcDbLayerTableRecord
  2
Defpoints
 70
0
 62
7
  6
Continuous
290
0
370
-3
390
13
347
21
  0
LAYER
  5
30
330
1
100
AcDbSymbolTableRecord
100
AcDbLayerTableRecord
  2
CUT_OUTSIDE
 70
0
 62
1
  6
Continuous
370
-3
390
13
347
21
  0
LAYER
  5
32
330
1
100
AcDbSymbolTableRecord
100
AcDbLayerTableRecord
  2
CUT_INSIDE
 70
0
 62
5
  6
Continuous
370
-3
390
13
347
21
  0
LAYER
  5
40
330
1
100
AcDbSymbolTableRecord
100
AcDbLayerTableRecord
  2
POCKET_5MM
 70
0
 62
3
  6
Continuous
370
-3
390
13
347
21
  0
LAYER
  5
43
330
1
100
AcDbSymbolTableRecord
100
AcDbLayerTableRecord
  2
POCKET_11MM
 70
0
 62
3
  6
Continuous
370
-3
390
13
347
21
  0
ENDTAB
  0
TABLE
  2
STYLE
  5
5
330
0
100
AcDbSymbolTable
 70
1
  0
STYLE
  5
29
330
5
100
AcDbSymbolTableRecord
100
AcDbTextStyleTableRecord
  2
Standard
 70
0
 40
0.0
 41
1.0
 50
0.0
 71
0
 42
2.5
  3
txt
  4

  0
ENDTAB
  0
TABLE
  2
VIEW
  5
7
330
0
100
AcDbSymbolTable
 70
0
  0
ENDTAB
  0
TABLE
  2
UCS
  5
6
330
0
100
AcDbSymbolTable
 70
0
  0
ENDTAB
  0
TABLE
  2
APPID
  5
3
330
0
100
AcDbSymbolTable
 70
3
  0
APPID
  5
2A
330
3
100
AcDbSymbolTableRecord
100
AcDbRegAppTableRecord
  2
ACAD
 70
0
  0
APPID
  5
5E
330
3
100
AcDbSymbolTableRecord
100
AcDbRegAppTableRecord
  2
HATCHBACKGROUNDCOLOR
 70
0
  0
APPID
  5
5F
330
3
100
AcDbSymbolTableRecord
100
AcDbRegAppTableRecord
  2
EZDXF
 70
0
  0
ENDTAB
  0
TABLE
  2
DIMSTYLE
  5
4
330
0
100
AcDbSymbolTable
 70
1
100
AcDbDimStyleTable
  0
DIMSTYLE
105
2B
330
4
100
AcDbSymbolTableRecord
100
AcDbDimStyleTableRecord
  2
Standard
 70
0
 40
1.0
 41
2.5
 42
0.625
 43
3.75
 44
1.25
 45
0.0
 46
0.0
 47
0.0
 48
0.0
 49
2.5
140
2.5
141
2.5
142
0.0
143
0.03937007874
144
1.0
145
0.0
146
1.0
147
0.625
148
0.0
 69
0
 70
0
 71
0
 72
0
 73
0
 74
0
 75
0
 76
0
 77
1
 78
8
 79
3
170
0
171
3
172
1
173
0
174
0
175
0
176
0
177
0
178
0
179
2
271
2
272
2
273
2
274
3
275
0
276
0
277
2
278
44
279
0
280
0
281
0
282
0
283
0
284
8
285
0
286
0
288
0
289
3
290
0
371
-2
372
-2
  0
ENDTAB
  0
TABLE
  2
BLOCK_RECORD
  5
9
330
0
100
AcDbSymbolTable
 70
2
  0
BLOCK_RECORD
  5
17
330
9
100
AcDbSymbolTableRecord
100
AcDbBlockTableRecord
  2
*Model_Space
340
1A
 70
0
280
1
281
0
  0
BLOCK_RECORD
  5
1B
330
9
100
AcDbSymbolTableRecord
100
AcDbBlockTableRecord
  2
*Paper_Space
340
1E
 70
0
280
1
281
0
  0
ENDTAB
  0
ENDSEC
  0
SECTION
  2
BLOCKS
  0
BLOCK
  5
18
330
17
100
AcDbEntity
  8
0
100
AcDbBlockBegin
  2
*Model_Space
 70
0
 10
0.0
 20
0.0
 30
0.0
  3
*Model_Space
  1

  0
ENDBLK
  5
19
330
17
100
AcDbEntity
  8
0
100
AcDbBlockEnd
  0
BLOCK
  5
1C
330
1B
100
AcDbEntity
  8
0
100
AcDbBlockBegin
  2
*Paper_Space
 70
0
 10
0.0
 20
0.0
 30
0.0
  3
*Paper_Space
  1

  0
ENDBLK
  5
1D
330
1B
100
AcDbEntity
  8
0
100
AcDbBlockEnd
  0
ENDSEC
  0
SECTION
  2
ENTITIES
  0
LWPOLYLINE
  5
2F
330
17
100
AcDbEntity
  8
SHEET_EDGE
100
AcDbPolyline
 90
4
 70
1
 10
0.0
 20
0.0
 10
1525.0
 20
0.0
 10
1525.0
 20
1525.0
 10
0.0
 20
1525.0
  0
LWPOLYLINE
  5
31
330
17
100
AcDbEntity
  8
CUT_OUTSIDE
100
AcDbPolyline
 90
5
 70
1
 10
15.0
 20
775.0
 10
15.0
 20
15.0
 10
475.0
 20
15.0
 10
475.0
 20
775.0
 10
15.0
 20
775.0
  0
TEXT
  5
33
330
17
100
AcDbEntity
  8
NOTES
100
AcDbText
 10
25.0
 20
25.0
 30
0.0
 40
12.0
  1
right
 11
25.0
 21
25.0
 31
0.0
100
AcDbText
  0
LWPOLYLINE
  5
34
330
17
100
AcDbEntity
  8
CUT_OUTSIDE
100
AcDbPolyline
 90
5
 70
1
 10
487.0
 20
15.0
 10
971.0
 20
15.0
 10
971.0
 20
739.0
 10
487.0
 20
739.0
 10
487.0
 20
15.0
  0
CIRCLE
  5
35
330
17
100
AcDbEntity
  8
CUT_INSIDE
100
AcDbCircle
 10
609.0
 20
137.0
 30
0.0
 40
55.2
  0
CIRCLE
  5
36
330
17
100
AcDbEntity
  8
CUT_INSIDE
100
AcDbCircle
 10
657.2468564315456
 20
293.77258765413376
 30
0.0
 40
3.5
  0
CIRCLE
  5
37
330
17
100
AcDbEntity
  8
CUT_INSIDE
100
AcDbCircle
 10
555.7725876541338
 20
395.24685643154567
 30
0.0
 40
3.5
  0
CIRCLE
  5
38
330
17
100
AcDbEntity
  8
CUT_INSIDE
100
AcDbCircle
 10
555.7725876541338
 20
538.7531435684543
 30
0.0
 40
3.5
  0
CIRCLE
  5
39
330
17
100
AcDbEntity
  8
CUT_INSIDE
100
AcDbCircle
 10
657.2468564315457
 20
640.2274123458662
 30
0.0
 40
3.5
  0
CIRCLE
  5
3A
330
17
100
AcDbEntity
  8
CUT_INSIDE
100
AcDbCircle
 10
800.7531435684543
 20
293.77258765413376
 30
0.0
 40
3.5
  0
CIRCLE
  5
3B
330
17
100
AcDbEntity
  8
CUT_INSIDE
100
AcDbCircle
 10
849.0
 20
137.0
 30
0.0
 40
55.2
  0
CIRCLE
  5
3C
330
17
100
AcDbEntity
  8
CUT_INSIDE
100
AcDbCircle
 10
729.0
 20
467.0
 30
0.0
 40
178.0
  0
CIRCLE
  5
3D
330
17
100
AcDbEntity
  8
CUT_INSIDE
100
AcDbCircle
 10
800.7531435684543
 20
640.2274123458662
 30
0.0
 40
3.5
  0
CIRCLE
  5
3E
330
17
100
AcDbEntity
  8
CUT_INSIDE
100
AcDbCircle
 10
902.2274123458662
 20
395.24685643154555
 30
0.0
 40
3.5
  0
CIRCLE
  5
3F
330
17
100
AcDbEntity
  8
CUT_INSIDE
100
AcDbCircle
 10
902.2274123458662
 20
538.7531435684543
 30
0.0
 40
3.5
  0
LWPOLYLINE
  5
41
330
17
100
AcDbEntity
  8
POCKET_5MM
100
AcDbPolyline
 90
401
 70
1
 10
674.25
 20
137.00000000000003
 10
674.2419502694283
 20
138.02490245459632
 10
674.217803063864
 20
139.04955202984794
 10
674.1775643412685
 20
140.07369590880418
 10
674.1212440299447
 20
141.09708139928776
 10
674.0488560260866
 20
142.11945599624192
 10
673.960418190351
 20
143.1405674440331
 10
673.8559523434504
 20
144.16016379869075
 10
673.7354842607697
 20
145.1779934900709
 10
673.5990436660054
 20
146.19380538392736
 10
673.4466642238327
 20
147.20734884387514
 10
673.278383531599
 20
148.21837379323148
 10
673.0942431100469
 20
149.2266307767186
 10
672.8942883930702
 20
150.23187102201248
 10
672.6785687165033
 20
151.23384650112445
 10
672.4471373059484
 20
152.23230999159787
 10
672.2000512636432
 20
153.2270151375068
 10
671.9373715543713
 20
154.21771651024062
 10
671.6591629904206
 20
155.20416966905978
 10
671.3654942155911
 20
156.18613122140786
 10
671.0564376882587
 20
157.16335888296538
 10
670.7320696634973
 20
158.13561153742927
 10
670.3924701742632
 20
159.10264929600532
 10
670.0377230116488
 20
160.06423355659658
 10
669.6679157042083
 20
161.02012706267527
 10
669.2831394963614
 20
161.97009396182216
 10
668.8834893258797
 20
162.91389986391948
 10
668.4690638004628
 20
163.85131189898337
 10
668.0399651734077
 20
164.78209877462106
 10
667.5962993183801
 20
165.70603083309848
 10
667.1381757032909
 20
166.6228801080055
 10
666.6657073632872
 20
167.53242038050246
 10
666.1790108728621
 20
168.43442723513692
 10
665.678206317092
 20
169.32867811521464
 10
665.1634172620073
 20
170.21495237771177
 10
664.6347707241046
 20
171.0930313477157
 10
664.0923971390065
 20
171.96269837237958
 10
663.5364303292796
 20
172.82373887437814
 10
662.9670074714152
 20
173.67594040485153
 10
662.3842690619828
 20
174.51909269582399
 10
661.7883588829653
 20
175.3529877120839
 10
661.1794239662827
 20
176.177419702514
 10
660.5576145575138
 20
176.99218525085672
 10
659.9230840788259
 20
177.7970833259048
 10
659.2759890911202
 20
178.59191533110203
 10
658.616489255402
 20
179.37648515354454
 10
657.9447472933874
 20
180.15059921236832
 10
657.2609289473542
 20
180.91406650651277
 10
656.5652029392471
 20
181.66669866184697
 10
655.8577409290481
 20
182.40830997764857
 10
655.1387174724223
 20
183.13871747242223
 10
654.4083099776485
 20
183.8577409290481
 10
653.6666986618469
 20
184.56520293924714
 10
652.9140665065127
 20
185.26092894735433
 10
652.1505992123682
 20
185.9447472933875
 10
651.3764851535445
 20
186.616489255402
 10
650.591915331102
 20
187.27598909112027
 10
649.7970833259046
 20
187.92308407882607
 10
648.9921852508567
 20
188.55761455751383
 10
648.1774197025139
 20
189.17942396628268
 10
647.3529877120839
 20
189.78835888296535
 10
646.5190926958239
 20
190.3842690619828
 10
645.6759404048514
 20
190.9670074714152
 10
644.8237388743781
 20
191.53643032927963
 10
643.9626983723795
 20
192.09239713900652
 10
643.0930313477156
 20
192.63477072410453
 10
642.2149523777117
 20
193.16341726200733
 10
641.3286781152145
 20
193.678206317092
 10
640.4344272351368
 20
194.17901087286214
 10
639.5324203805023
 20
194.66570736328725
 10
638.6228801080053
 20
195.13817570329104
 10
637.7060308330985
 20
195.59629931838018
 10
636.782098774621
 20
196.03996517340778
 10
635.8513118989833
 20
196.46906380046283
 10
634.9138998639194
 20
196.8834893258798
 10
633.970093961822
 20
197.28313949636146
 10
633.0201270626753
 20
197.66791570420838
 10
632.0642335565965
 20
198.03772301164884
 10
631.1026492960052
 20
198.39247017426322
 10
630.1356115374292
 20
198.73206966349733
 10
629.1633588829653
 20
199.05643768825877
 10
628.1861312214078
 20
199.36549421559107
 10
627.2041696690596
 20
199.65916299042055
 10
626.2177165102405
 20
199.93737155437134
 10
625.2270151375068
 20
200.20005126364316
 10
624.2323099915977
 20
200.44713730594842
 10
623.2338465011244
 20
200.67856871650326
 10
622.2318710220125
 20
200.8942883930702
 10
621.2266307767185
 20
201.09424311004693
 10
620.2183737932314
 20
201.278383531599
 10
619.207348843875
 20
201.44666422383273
 10
618.1938053839272
 20
201.5990436660054
 10
617.1779934900709
 20
201.73548426076968
 10
616.1601637986906
 20
201.8559523434505
 10
615.140567444033
 20
201.960418190351
 10
614.1194559962419
 20
202.0488560260866
 10
613.0970813992876
 20
202.1212440299447
 10
612.0736959088042
 20
202.17756434126852
 10
611.0495520298479
 20
202.21780306386398
 10
610.0249024545963
 20
202.24195026942834
 10
609.0
 20
202.25
 10
607.9750975454037
 20
202.24195026942834
 10
606.950447970152
 20
202.21780306386398
 10
605.9263040911958
 20
202.17756434126852
 10
604.9029186007123
 20
202.1212440299447
 10
603.8805440037581
 20
202.04885602608658
 10
602.8594325559668
 20
201.96041819035096
 10
601.8398362013093
 20
201.85595234345047
 10
600.8220065099291
 20
201.73548426076968
 10
599.8061946160727
 20
201.5990436660054
 10
598.792651156125
 20
201.44666422383273
 10
597.7816262067685
 20
201.278383531599
 10
596.7733692232814
 20
201.09424311004693
 10
595.7681289779875
 20
200.8942883930702
 10
594.7661534988756
 20
200.67856871650326
 10
593.767690008402
 20
200.4471373059484
 10
592.7729848624932
 20
200.20005126364316
 10
591.7822834897594
 20
199.9373715543713
 10
590.7958303309404
 20
199.65916299042055
 10
589.8138687785921
 20
199.365494215591
 10
588.8366411170346
 20
199.05643768825874
 10
587.8643884625708
 20
198.73206966349733
 10
586.8973507039948
 20
198.39247017426322
 10
585.9357664434034
 20
198.03772301164884
 10
584.9798729373247
 20
197.66791570420838
 10
584.0299060381778
 20
197.28313949636146
 10
583.0861001360806
 20
196.8834893258798
 10
582.1486881010167
 20
196.46906380046278
 10
581.2179012253789
 20
196.03996517340775
 10
580.2939691669015
 20
195.59629931838015
 10
579.3771198919945
 20
195.13817570329098
 10
578.4675796194975
 20
194.66570736328725
 10
577.565572764863
 20
194.17901087286208
 10
576.6713218847854
 20
193.67820631709196
 10
575.7850476222883
 20
193.16341726200733
 10
574.9069686522843
 20
192.6347707241045
 10
574.0373016276204
 20
192.09239713900644
 10
573.1762611256219
 20
191.53643032927963
 10
572.3240595951485
 20
190.96700747141514
 10
571.4809073041761
 20
190.38426906198276
 10
570.647012287916
 20
189.78835888296527
 10
569.822580297486
 20
189.17942396628263
 10
569.0078147491433
 20
188.5576145575138
 10
568.2029166740953
 20
187.92308407882604
 10
567.408084668898
 20
187.27598909112027
 10
566.6235148464555
 20
186.616489255402
 10
565.8494007876317
 20
185.94474729338745
 10
565.0859334934873
 20
185.2609289473543
 10
564.333301338153
 20
184.56520293924706
 10
563.5916900223515
 20
183.85774092904805
 10
562.8612825275777
 20
183.13871747242223
 10
562.1422590709519
 20
182.4083099776485
 10
561.4347970607529
 20
181.6666986618469
 10
560.7390710526457
 20
180.91406650651268
 10
560.0552527066125
 20
180.15059921236826
 10
559.383510744598
 20
179.37648515354448
 10
558.7240109088798
 20
178.59191533110197
 10
558.076915921174
 20
177.79708332590474
 10
557.4423854424862
 20
176.99218525085666
 10
556.8205760337173
 20
176.17741970251393
 10
556.2116411170347
 20
175.35298771208386
 10
555.6157309380171
 20
174.51909269582387
 10
555.0329925285848
 20
173.6759404048515
 10
554.4635696707204
 20
172.82373887437808
 10
553.9076028609935
 20
171.96269837237952
 10
553.3652292758954
 20
171.09303134771562
 10
552.8365827379927
 20
170.2149523777117
 10
552.321793682908
 20
169.32867811521456
 10
551.8209891271379
 20
168.43442723513692
 10
551.3342926367127
 20
167.5324203805024
 10
550.861824296709
 20
166.6228801080054
 10
550.4037006816199
 20
165.70603083309842
 10
549.9600348265922
 20
164.78209877462098
 10
549.5309361995372
 20
163.85131189898334
 10
549.1165106741203
 20
162.9138998639194
 10
548.7168605036385
 20
161.97009396182207
 10
548.3320842957916
 20
161.02012706267524
 10
547.9622769883512
 20
160.0642335565965
 10
547.6075298257367
 20
159.1026492960052
 10
547.2679303365027
 20
158.1356115374292
 10
546.9435623117413
 20
157.16335888296533
 10
546.6345057844089
 20
156.18613122140783
 10
546.3408370095794
 20
155.20416966905967
 10
546.0626284456287
 20
154.21771651024056
 10
545.7999487363568
 20
153.22701513750675
 10
545.5528626940516
 20
152.23230999159782
 10
545.3214312834967
 20
151.23384650112433
 10
545.1057116069298
 20
150.23187102201243
 10
544.9057568899531
 20
149.2266307767185
 10
544.721616468401
 20
148.21837379323145
 10
544.5533357761673
 20
147.207348843875
 10
544.4009563339946
 20
146.19380538392724
 10
544.2645157392303
 20
145.17799349007083
 10
544.1440476565496
 20
144.16016379869072
 10
544.039581809649
 20
143.14056744403305
 10
543.9511439739134
 20
142.11945599624184
 10
543.8787559700553
 20
141.09708139928767
 10
543.8224356587315
 20
140.07369590880418
 10
543.782196936136
 20
139.04955202984786
 10
543.7580497305717
 20
138.02490245459626
 10
543.75
 20
137.0
 10
543.7580497305717
 20
135.97509754540363
 10
543.782196936136
 20
134.9504479701521
 10
543.8224356587315
 20
133.92630409119576
 10
543.8787559700553
 20
132.9029186007123
 10
543.9511439739134
 20
131.8805440037581
 10
544.039581809649
 20
130.85943255596692
 10
544.1440476565496
 20
129.8398362013093
 10
544.2645157392303
 20
128.82200650992914
 10
544.4009563339946
 20
127.80619461607273
 10
544.5533357761673
 20
126.79265115612489
 10
544.721616468401
 20
125.7816262067685
 10
544.9057568899531
 20
124.77336922328143
 10
545.1057116069298
 20
123.76812897798754
 10
545.3214312834967
 20
122.76615349887555
 10
545.5528626940516
 20
121.76769000840213
 10
545.7999487363568
 20
120.77298486249319
 10
546.0626284456287
 20
119.78228348975938
 10
546.3408370095794
 20
118.79583033094025
 10
546.6345057844089
 20
117.81386877859217
 10
546.9435623117413
 20
116.83664111703465
 10
547.2679303365027
 20
115.86438846257076
 10
547.6075298257368
 20
114.89735070399468
 10
547.9622769883512
 20
113.93576644340345
 10
548.3320842957917
 20
112.97987293732473
 10
548.7168605036386
 20
112.0299060381779
 10
549.1165106741203
 20
111.08610013608052
 10
549.5309361995372
 20
110.14868810101663
 10
549.9600348265923
 20
109.21790122537897
 10
550.4037006816199
 20
108.29396916690152
 10
550.8618242967091
 20
107.37711989199451
 10
551.3342926367128
 20
106.46757961949757
 10
551.8209891271379
 20
105.56557276486305
 10
552.321793682908
 20
104.67132188478539
 10
552.8365827379927
 20
103.78504762228826
 10
553.3652292758954
 20
102.90696865228432
 10
553.9076028609935
 20
102.03730162762048
 10
554.4635696707204
 20
101.17626112562189
 10
555.0329925285848
 20
100.32405959514847
 10
555.6157309380172
 20
99.48090730417604
 10
556.2116411170347
 20
98.64701228791611
 10
556.8205760337173
 20
97.82258029748604
 10
557.4423854424862
 20
97.00781474914328
 10
558.0769159211741
 20
96.2029166740952
 10
558.7240109088798
 20
95.40808466889797
 10
559.383510744598
 20
94.62351484645549
 10
560.0552527066125
 20
93.84940078763171
 10
560.7390710526457
 20
93.08593349348725
 10
561.4347970607529
 20
92.33330133815306
 10
562.1422590709519
 20
91.59169002235146
 10
562.8612825275777
 20
90.86128252757777
 10
563.5916900223515
 20
90.1422590709519
 10
564.3333013381531
 20
89.43479706075289
 10
565.0859334934873
 20
88.7390710526457
 10
565.8494007876317
 20
88.0552527066125
 10
566.6235148464556
 20
87.38351074459797
 10
567.408084668898
 20
86.72401090887973
 10
568.2029166740953
 20
86.07691592117399
 10
569.0078147491433
 20
85.4423854424862
 10
569.8225802974861
 20
84.82057603371734
 10
570.6470122879161
 20
84.21164111703466
 10
571.4809073041761
 20
83.61573093801722
 10
572.3240595951485
 20
83.03299252858483
 10
573.1762611256219
 20
82.46356967072037
 10
574.0373016276205
 20
81.90760286099349
 10
574.9069686522844
 20
81.36522927589547
 10
575.7850476222883
 20
80.83658273799267
 10
576.6713218847854
 20
80.32179368290802
 10
577.5655727648631
 20
79.82098912713788
 10
578.4675796194977
 20
79.33429263671275
 10
579.3771198919947
 20
78.86182429670899
 10
580.2939691669015
 20
78.40370068161982
 10
581.217901225379
 20
77.96003482659222
 10
582.1486881010167
 20
77.5309361995372
 10
583.0861001360806
 20
77.11651067412022
 10
584.0299060381778
 20
76.71686050363854
 10
584.9798729373248
 20
76.33208429579157
 10
585.9357664434035
 20
75.96227698835115
 10
586.8973507039948
 20
75.60752982573678
 10
587.8643884625708
 20
75.26793033650267
 10
588.8366411170348
 20
74.94356231174122
 10
589.8138687785922
 20
74.63450578440896
 10
590.7958303309402
 20
74.34083700957947
 10
591.7822834897595
 20
74.06262844562866
 10
592.7729848624932
 20
73.79994873635682
 10
593.7676900084022
 20
73.5528626940516
 10
594.7661534988756
 20
73.32143128349674
 10
595.7681289779875
 20
73.10571160692979
 10
596.7733692232814
 20
72.90575688995307
 10
597.7816262067686
 20
72.721616468401
 10
598.792651156125
 20
72.55333577616726
 10
599.8061946160727
 20
72.40095633399461
 10
600.8220065099292
 20
72.26451573923032
 10
601.8398362013094
 20
72.14404765654952
 10
602.8594325559669
 20
72.03958180964904
 10
603.8805440037581
 20
71.9511439739134
 10
604.9029186007124
 20
71.87875597005528
 10
605.9263040911958
 20
71.82243565873145
 10
606.9504479701521
 20
71.78219693613602
 10
607.9750975454037
 20
71.75804973057164
 10
609.0
 20
71.75
 10
610.0249024545963
 20
71.75804973057164
 10
611.0495520298479
 20
71.78219693613602
 10
612.0736959088042
 20
71.82243565873146
 10
613.0970813992877
 20
71.87875597005528
 10
614.1194559962419
 20
71.9511439739134
 10
615.1405674440331
 20
72.03958180964904
 10
616.1601637986907
 20
72.14404765654953
 10
617.1779934900709
 20
72.26451573923032
 10
618.1938053839273
 20
72.40095633399461
 10
619.207348843875
 20
72.55333577616727
 10
620.2183737932314
 20
72.721616468401
 10
621.2266307767186
 20
72.90575688995307
 10
622.2318710220125
 20
73.10571160692979
 10
623.2338465011244
 20
73.32143128349674
 10
624.2323099915978
 20
73.55286269405161
 10
625.2270151375068
 20
73.79994873635684
 10
626.2177165102406
 20
74.06262844562868
 10
627.2041696690598
 20
74.34083700957947
 10
628.1861312214078
 20
74.63450578440896
 10
629.1633588829653
 20
74.94356231174123
 10
630.1356115374292
 20
75.26793033650267
 10
631.1026492960052
 20
75.6075298257368
 10
632.0642335565965
 20
75.96227698835116
 10
633.0201270626753
 20
76.33208429579162
 10
633.9700939618222
 20
76.71686050363854
 10
634.9138998639195
 20
77.11651067412024
 10
635.8513118989833
 20
77.5309361995372
 10
636.782098774621
 20
77.96003482659223
 10
637.7060308330985
 20
78.40370068161984
 10
638.6228801080055
 20
78.86182429670902
 10
639.5324203805025
 20
79.33429263671276
 10
640.4344272351369
 20
79.82098912713792
 10
641.3286781152146
 20
80.32179368290804
 10
642.2149523777117
 20
80.83658273799267
 10
643.0930313477156
 20
81.3652292758955
 10
643.9626983723795
 20
81.9076028609935
 10
644.8237388743781
 20
82.46356967072037
 10
645.6759404048515
 20
83.03299252858484
 10
646.5190926958239
 20
83.61573093801724
 10
647.3529877120839
 20
84.21164111703467
 10
648.1774197025139
 20
84.82057603371734
 10
648.9921852508567
 20
85.4423854424862
 10
649.7970833259049
 20
86.07691592117399
 10
650.591915331102
 20
86.72401090887975
 10
651.3764851535445
 20
87.383510744598
 10
652.1505992123683
 20
88.05525270661252
 10
652.9140665065128
 20
88.73907105264573
 10
653.6666986618469
 20
89.43479706075291
 10
654.4083099776485
 20
90.14225907095195
 10
655.1387174724223
 20
90.86128252757777
 10
655.8577409290481
 20
91.59169002235151
 10
656.5652029392471
 20
92.33330133815306
 10
657.2609289473543
 20
93.08593349348732
 10
657.9447472933875
 20
93.84940078763171
 10
658.616489255402
 20
94.62351484645554
 10
659.2759890911202
 20
95.408084668898
 10
659.923084078826
 20
96.20291667409526
 10
660.5576145575138
 20
97.00781474914328
 10
661.1794239662827
 20
97.82258029748607
 10
661.7883588829653
 20
98.64701228791614
 10
662.3842690619828
 20
99.48090730417607
 10
662.9670074714152
 20
100.32405959514847
 10
663.5364303292796
 20
101.17626112562189
 10
664.0923971390065
 20
102.03730162762048
 10
664.6347707241046
 20
102.90696865228432
 10
665.1634172620073
 20
103.78504762228829
 10
665.678206317092
 20
104.67132188478541
 10
666.1790108728621
 20
105.5655727648631
 10
666.6657073632873
 20
106.4675796194976
 10
667.138175703291
 20
107.3771198919946
 10
667.5962993183801
 20
108.29396916690155
 10
668.0399651734078
 20
109.21790122537902
 10
668.4690638004628
 20
110.14868810101666
 10
668.8834893258797
 20
111.08610013608057
 10
669.2831394963614
 20
112.0299060381779
 10
669.6679157042084
 20
112.97987293732479
 10
670.0377230116488
 20
113.93576644340348
 10
670.3924701742633
 20
114.89735070399476
 10
670.7320696634973
 20
115.86438846257076
 10
671.0564376882587
 20
116.8366411170347
 10
671.3654942155911
 20
117.81386877859217
 10
671.6591629904206
 20
118.79583033094033
 10
671.9373715543713
 20
119.78228348975944
 10
672.2000512636432
 20
120.77298486249322
 10
672.4471373059484
 20
121.76769000840218
 10
672.6785687165033
 20
122.76615349887558
 10
672.8942883930702
 20
123.76812897798757
 10
673.0942431100469
 20
124.77336922328146
 10
673.278383531599
 20
125.78162620676855
 10
673.4466642238327
 20
126.79265115612492
 10
673.5990436660054
 20
127.80619461607276
 10
673.7354842607697
 20
128.82200650992914
 10
673.8559523434506
 20
129.8398362013093
 10
673.960418190351
 20
130.85943255596695
 10
674.0488560260866
 20
131.88054400375813
 10
674.1212440299447
 20
132.9029186007123
 10
674.1775643412685
 20
133.92630409119585
 10
674.217803063864
 20
134.95044797015214
 10
674.2419502694283
 20
135.9750975454037
 10
674.25
 20
137.0
  0
LWPOLYLINE
  5
42
330
17
100
AcDbEntity
  8
POCKET_5MM
100
AcDbPolyline
 90
401
 70
1
 10
914.25
 20
137.00000000000003
 10
914.2419502694283
 20
138.02490245459632
 10
914.217803063864
 20
139.04955202984794
 10
914.1775643412685
 20
140.07369590880418
 10
914.1212440299447
 20
141.09708139928776
 10
914.0488560260866
 20
142.11945599624192
 10
913.960418190351
 20
143.1405674440331
 10
913.8559523434504
 20
144.16016379869075
 10
913.7354842607697
 20
145.1779934900709
 10
913.5990436660054
 20
146.19380538392736
 10
913.4466642238327
 20
147.20734884387514
 10
913.278383531599
 20
148.21837379323148
 10
913.0942431100469
 20
149.2266307767186
 10
912.8942883930702
 20
150.23187102201248
 10
912.6785687165033
 20
151.23384650112445
 10
912.4471373059484
 20
152.23230999159787
 10
912.2000512636432
 20
153.2270151375068
 10
911.9373715543713
 20
154.21771651024062
 10
911.6591629904206
 20
155.20416966905978
 10
911.3654942155911
 20
156.18613122140786
 10
911.0564376882587
 20
157.16335888296538
 10
910.7320696634973
 20
158.13561153742927
 10
910.3924701742632
 20
159.10264929600532
 10
910.0377230116488
 20
160.06423355659658
 10
909.6679157042083
 20
161.02012706267527
 10
909.2831394963614
 20
161.97009396182216
 10
908.8834893258797
 20
162.91389986391948
 10
908.4690638004628
 20
163.85131189898337
 10
908.0399651734077
 20
164.78209877462106
 10
907.5962993183801
 20
165.70603083309848
 10
907.1381757032909
 20
166.6228801080055
 10
906.6657073632872
 20
167.53242038050246
 10
906.1790108728621
 20
168.43442723513692
 10
905.678206317092
 20
169.32867811521464
 10
905.1634172620072
 20
170.21495237771177
 10
904.6347707241046
 20
171.0930313477157
 10
904.0923971390065
 20
171.96269837237958
 10
903.5364303292796
 20
172.82373887437814
 10
902.9670074714152
 20
173.67594040485153
 10
902.3842690619828
 20
174.51909269582399
 10
901.7883588829653
 20
175.3529877120839
 10
901.1794239662827
 20
176.177419702514
 10
900.5576145575137
 20
176.99218525085672
 10
899.9230840788259
 20
177.7970833259048
 10
899.2759890911202
 20
178.59191533110203
 10
898.616489255402
 20
179.37648515354454
 10
897.9447472933875
 20
180.15059921236832
 10
897.2609289473542
 20
180.91406650651277
 10
896.565202939247
 20
181.66669866184697
 10
895.8577409290481
 20
182.40830997764857
 10
895.1387174724223
 20
183.13871747242223
 10
894.4083099776485
 20
183.8577409290481
 10
893.6666986618469
 20
184.56520293924714
 10
892.9140665065127
 20
185.26092894735433
 10
892.1505992123682
 20
185.9447472933875
 10
891.3764851535445
 20
186.616489255402
 10
890.591915331102
 20
187.27598909112027
 10
889.7970833259046
 20
187.92308407882607
 10
888.9921852508567
 20
188.55761455751383
 10
888.1774197025139
 20
189.17942396628268
 10
887.3529877120839
 20
189.78835888296535
 10
886.5190926958239
 20
190.3842690619828
 10
885.6759404048514
 20
190.9670074714152
 10
884.823738874378
 20
191.53643032927963
 10
883.9626983723795
 20
192.09239713900652
 10
883.0930313477156
 20
192.63477072410453
 10
882.2149523777117
 20
193.16341726200733
 10
881.3286781152146
 20
193.678206317092
 10
880.4344272351368
 20
194.17901087286214
 10
879.5324203805023
 20
194.66570736328725
 10
878.6228801080053
 20
195.13817570329104
 10
877.7060308330985
 20
195.59629931838018
 10
876.782098774621
 20
196.03996517340778
 10
875.8513118989833
 20
196.46906380046283
 10
874.9138998639194
 20
196.8834893258798
 10
873.970093961822
 20
197.28313949636146
 10
873.0201270626753
 20
197.66791570420838
 10
872.0642335565965
 20
198.03772301164884
 10
871.1026492960052
 20
198.39247017426322
 10
870.1356115374292
 20
198.73206966349733
 10
869.1633588829653
 20
199.05643768825877
 10
868.1861312214078
 20
199.36549421559107
 10
867.2041696690596
 20
199.65916299042055
 10
866.2177165102405
 20
199.93737155437134
 10
865.2270151375068
 20
200.20005126364316
 10
864.2323099915977
 20
200.44713730594842
 10
863.2338465011244
 20
200.67856871650326
 10
862.2318710220125
 20
200.8942883930702
 10
861.2266307767185
 20
201.09424311004693
 10
860.2183737932314
 20
201.278383531599
 10
859.207348843875
 20
201.44666422383273
 10
858.1938053839272
 20
201.5990436660054
 10
857.1779934900708
 20
201.73548426076968
 10
856.1601637986906
 20
201.8559523434505
 10
855.140567444033
 20
201.960418190351
 10
854.1194559962419
 20
202.0488560260866
 10
853.0970813992876
 20
202.1212440299447
 10
852.0736959088042
 20
202.17756434126852
 10
851.0495520298479
 20
202.21780306386398
 10
850.0249024545963
 20
202.24195026942834
 10
849.0
 20
202.25
 10
847.9750975454037
 20
202.24195026942834
 10
846.950447970152
 20
202.21780306386398
 10
845.9263040911958
 20
202.17756434126852
 10
844.9029186007123
 20
202.1212440299447
 10
843.8805440037581
 20
202.04885602608658
 10
842.8594325559668
 20
201.96041819035096
 10
841.8398362013093
 20
201.85595234345047
 10
840.8220065099291
 20
201.73548426076968
 10
839.8061946160727
 20
201.5990436660054
 10
838.792651156125
 20
201.44666422383273
 10
837.7816262067685
 20
201.278383531599
 10
836.7733692232814
 20
201.09424311004693
 10
835.7681289779875
 20
200.8942883930702
 10
834.7661534988756
 20
200.67856871650326
 10
833.767690008402
 20
200.4471373059484
 10
832.7729848624932
 20
200.20005126364316
 10
831.7822834897594
 20
199.9373715543713
 10
830.7958303309404
 20
199.65916299042055
 10
829.8138687785921
 20
199.365494215591
 10
828.8366411170346
 20
199.05643768825874
 10
827.8643884625708
 20
198.73206966349733
 10
826.8973507039948
 20
198.39247017426322
 10
825.9357664434034
 20
198.03772301164884
 10
824.9798729373247
 20
197.66791570420838
 10
824.0299060381778
 20
197.28313949636146
 10
823.0861001360806
 20
196.8834893258798
 10
822.1486881010167
 20
196.46906380046278
 10
821.2179012253789
 20
196.03996517340775
 10
820.2939691669015
 20
195.59629931838015
 10
819.3771198919945
 20
195.13817570329098
 10
818.4675796194977
 20
194.66570736328725
 10
817.565572764863
 20
194.17901087286208
 10
816.6713218847854
 20
193.67820631709196
 10
815.7850476222883
 20
193.16341726200733
 10
814.9069686522844
 20
192.6347707241045
 10
814.0373016276204
 20
192.09239713900644
 10
813.1762611256219
 20
191.53643032927963
 10
812.3240595951485
 20
190.96700747141514
 10
811.4809073041761
 20
190.38426906198276
 10
810.6470122879161
 20
189.78835888296527
 10
809.822580297486
 20
189.17942396628263
 10
809.0078147491433
 20
188.5576145575138
 10
808.2029166740953
 20
187.92308407882604
 10
807.408084668898
 20
187.27598909112027
 10
806.6235148464555
 20
186.616489255402
 10
805.8494007876317
 20
185.94474729338745
 10
805.0859334934873
 20
185.2609289473543
 10
804.333301338153
 20
184.56520293924706
 10
803.5916900223515
 20
183.85774092904805
 10
802.8612825275777
 20
183.13871747242223
 10
802.1422590709519
 20
182.4083099776485
 10
801.4347970607529
 20
181.6666986618469
 10
800.7390710526456
 20
180.91406650651268
 10
800.0552527066125
 20
180.15059921236826
 10
799.383510744598
 20
179.37648515354448
 10
798.7240109088798
 20
178.59191533110197
 10
798.076915921174
 20
177.79708332590474
 10
797.4423854424862
 20
176.99218525085666
 10
796.8205760337173
 20
176.17741970251393
 10
796.2116411170347
 20
175.35298771208386
 10
795.6157309380171
 20
174.51909269582387
 10
795.0329925285848
 20
173.6759404048515
 10
794.4635696707203
 20
172.82373887437808
 10
793.9076028609935
 20
171.96269837237952
 10
793.3652292758954
 20
171.09303134771562
 10
792.8365827379927
 20
170.2149523777117
 10
792.321793682908
 20
169.32867811521456
 10
791.8209891271379
 20
168.43442723513692
 10
791.3342926367127
 20
167.5324203805024
 10
790.861824296709
 20
166.6228801080054
 10
790.4037006816197
 20
165.70603083309842
 10
789.9600348265922
 20
164.78209877462098
 10
789.5309361995371
 20
163.85131189898334
 10
789.1165106741203
 20
162.9138998639194
 10
788.7168605036386
 20
161.97009396182207
 10
788.3320842957917
 20
161.02012706267524
 10
787.9622769883512
 20
160.0642335565965
 10
787.6075298257367
 20
159.1026492960052
 10
787.2679303365027
 20
158.1356115374292
 10
786.9435623117413
 20
157.16335888296533
 10
786.6345057844089
 20
156.18613122140783
 10
786.3408370095794
 20
155.20416966905967
 10
786.0626284456287
 20
154.21771651024056
 10
785.7999487363568
 20
153.22701513750675
 10
785.5528626940516
 20
152.23230999159782
 10
785.3214312834967
 20
151.23384650112433
 10
785.1057116069298
 20
150.23187102201243
 10
784.9057568899531
 20
149.2266307767185
 10
784.721616468401
 20
148.21837379323145
 10
784.5533357761673
 20
147.207348843875
 10
784.4009563339946
 20
146.19380538392724
 10
784.2645157392303
 20
145.17799349007083
 10
784.1440476565494
 20
144.16016379869072
 10
784.039581809649
 20
143.14056744403305
 10
783.9511439739134
 20
142.11945599624184
 10
783.8787559700553
 20
141.09708139928767
 10
783.8224356587315
 20
140.07369590880418
 10
783.782196936136
 20
139.04955202984786
 10
783.7580497305717
 20
138.02490245459626
 10
783.75
 20
137.0
 10
783.7580497305717
 20
135.97509754540363
 10
783.782196936136
 20
134.9504479701521
 10
783.8224356587315
 20
133.92630409119576
 10
783.8787559700553
 20
132.9029186007123
 10
783.9511439739134
 20
131.8805440037581
 10
784.039581809649
 20
130.85943255596692
 10
784.1440476565494
 20
129.8398362013093
 10
784.2645157392303
 20
128.82200650992914
 10
784.4009563339946
 20
127.80619461607273
 10
784.5533357761673
 20
126.79265115612489
 10
784.721616468401
 20
125.7816262067685
 10
784.9057568899531
 20
124.77336922328143
 10
785.1057116069298
 20
123.76812897798754
 10
785.3214312834967
 20
122.76615349887555
 10
785.5528626940516
 20
121.76769000840213
 10
785.7999487363568
 20
120.77298486249319
 10
786.0626284456287
 20
119.78228348975938
 10
786.3408370095794
 20
118.79583033094025
 10
786.6345057844089
 20
117.81386877859217
 10
786.9435623117413
 20
116.83664111703465
 10
787.2679303365027
 20
115.86438846257076
 10
787.6075298257368
 20
114.89735070399468
 10
787.9622769883512
 20
113.93576644340345
 10
788.3320842957917
 20
112.97987293732473
 10
788.7168605036386
 20
112.0299060381779
 10
789.1165106741203
 20
111.08610013608052
 10
789.5309361995372
 20
110.14868810101663
 10
789.9600348265922
 20
109.21790122537897
 10
790.4037006816199
 20
108.29396916690152
 10
790.8618242967091
 20
107.37711989199451
 10
791.3342926367127
 20
106.46757961949757
 10
791.8209891271379
 20
105.56557276486305
 10
792.321793682908
 20
104.67132188478539
 10
792.8365827379927
 20
103.78504762228826
 10
793.3652292758954
 20
102.90696865228432
 10
793.9076028609935
 20
102.03730162762048
 10
794.4635696707204
 20
101.17626112562189
 10
795.0329925285848
 20
100.32405959514847
 10
795.6157309380172
 20
99.48090730417604
 10
796.2116411170347
 20
98.64701228791611
 10
796.8205760337173
 20
97.82258029748604
 10
797.4423854424862
 20
97.00781474914328
 10
798.0769159211741
 20
96.2029166740952
 10
798.7240109088798
 20
95.40808466889797
 10
799.383510744598
 20
94.62351484645549
 10
800.0552527066125
 20
93.84940078763171
 10
800.7390710526457
 20
93.08593349348725
 10
801.4347970607529
 20
92.33330133815306
 10
802.1422590709519
 20
91.59169002235146
 10
802.8612825275777
 20
90.86128252757777
 10
803.5916900223515
 20
90.1422590709519
 10
804.3333013381531
 20
89.43479706075289
 10
805.0859334934873
 20
88.7390710526457
 10
805.8494007876318
 20
88.0552527066125
 10
806.6235148464555
 20
87.38351074459797
 10
807.408084668898
 20
86.72401090887973
 10
808.2029166740953
 20
86.07691592117399
 10
809.0078147491433
 20
85.4423854424862
 10
809.8225802974861
 20
84.82057603371734
 10
810.6470122879161
 20
84.21164111703466
 10
811.4809073041761
 20
83.61573093801722
 10
812.3240595951485
 20
83.03299252858483
 10
813.1762611256219
 20
82.46356967072037
 10
814.0373016276205
 20
81.90760286099349
 10
814.9069686522844
 20
81.36522927589547
 10
815.7850476222883
 20
80.83658273799267
 10
816.6713218847854
 20
80.32179368290802
 10
817.5655727648632
 20
79.82098912713788
 10
818.4675796194977
 20
79.33429263671275
 10
819.3771198919947
 20
78.86182429670899
 10
820.2939691669015
 20
78.40370068161982
 10
821.217901225379
 20
77.96003482659222
 10
822.1486881010167
 20
77.5309361995372
 10
823.0861001360806
 20
77.11651067412022
 10
824.0299060381778
 20
76.71686050363854
 10
824.9798729373248
 20
76.33208429579157
 10
825.9357664434035
 20
75.96227698835115
 10
826.8973507039948
 20
75.60752982573678
 10
827.8643884625708
 20
75.26793033650267
 10
828.8366411170348
 20
74.94356231174122
 10
829.8138687785922
 20
74.63450578440896
 10
830.7958303309404
 20
74.34083700957947
 10
831.7822834897595
 20
74.06262844562866
 10
832.7729848624932
 20
73.79994873635682
 10
833.7676900084023
 20
73.5528626940516
 10
834.7661534988756
 20
73.32143128349674
 10
835.7681289779875
 20
73.10571160692979
 10
836.7733692232814
 20
72.90575688995307
 10
837.7816262067686
 20
72.721616468401
 10
838.792651156125
 20
72.55333577616726
 10
839.8061946160727
 20
72.40095633399461
 10
840.8220065099292
 20
72.26451573923032
 10
841.8398362013093
 20
72.14404765654952
 10
842.859432555967
 20
72.03958180964904
 10
843.8805440037581
 20
71.9511439739134
 10
844.9029186007124
 20
71.87875597005528
 10
845.9263040911958
 20
71.82243565873145
 10
846.9504479701521
 20
71.78219693613602
 10
847.9750975454037
 20
71.75804973057164
 10
849.0
 20
71.75
 10
850.0249024545963
 20
71.75804973057164
 10
851.0495520298479
 20
71.78219693613602
 10
852.0736959088042
 20
71.82243565873146
 10
853.0970813992877
 20
71.87875597005528
 10
854.1194559962419
 20
71.9511439739134
 10
855.1405674440331
 20
72.03958180964904
 10
856.1601637986907
 20
72.14404765654953
 10
857.1779934900709
 20
72.26451573923032
 10
858.1938053839273
 20
72.40095633399461
 10
859.207348843875
 20
72.55333577616727
 10
860.2183737932314
 20
72.721616468401
 10
861.2266307767186
 20
72.90575688995307
 10
862.2318710220125
 20
73.10571160692979
 10
863.2338465011244
 20
73.32143128349674
 10
864.2323099915978
 20
73.55286269405161
 10
865.2270151375068
 20
73.79994873635684
 10
866.2177165102405
 20
74.06262844562868
 10
867.2041696690598
 20
74.34083700957947
 10
868.1861312214078
 20
74.63450578440896
 10
869.1633588829653
 20
74.94356231174123
 10
870.1356115374292
 20
75.26793033650267
 10
871.1026492960052
 20
75.6075298257368
 10
872.0642335565965
 20
75.96227698835116
 10
873.0201270626753
 20
76.33208429579162
 10
873.9700939618222
 20
76.71686050363854
 10
874.9138998639195
 20
77.11651067412024
 10
875.8513118989833
 20
77.5309361995372
 10
876.7820987746211
 20
77.96003482659223
 10
877.7060308330985
 20
78.40370068161984
 10
878.6228801080055
 20
78.86182429670902
 10
879.5324203805023
 20
79.33429263671276
 10
880.434427235137
 20
79.82098912713792
 10
881.3286781152146
 20
80.32179368290804
 10
882.2149523777117
 20
80.83658273799267
 10
883.0930313477156
 20
81.3652292758955
 10
883.9626983723795
 20
81.9076028609935
 10
884.8237388743781
 20
82.46356967072037
 10
885.6759404048515
 20
83.03299252858484
 10
886.5190926958239
 20
83.61573093801724
 10
887.3529877120839
 20
84.21164111703467
 10
888.1774197025139
 20
84.82057603371734
 10
888.9921852508567
 20
85.4423854424862
 10
889.7970833259049
 20
86.07691592117399
 10
890.591915331102
 20
86.72401090887975
 10
891.3764851535445
 20
87.383510744598
 10
892.1505992123683
 20
88.05525270661252
 10
892.9140665065127
 20
88.73907105264573
 10
893.6666986618469
 20
89.43479706075291
 10
894.4083099776485
 20
90.14225907095195
 10
895.1387174724223
 20
90.86128252757777
 10
895.8577409290481
 20
91.59169002235151
 10
896.5652029392471
 20
92.33330133815306
 10
897.2609289473543
 20
93.08593349348732
 10
897.9447472933875
 20
93.84940078763171
 10
898.616489255402
 20
94.62351484645554
 10
899.2759890911202
 20
95.408084668898
 10
899.923084078826
 20
96.20291667409526
 10
900.5576145575138
 20
97.00781474914328
 10
901.1794239662827
 20
97.82258029748607
 10
901.7883588829653
 20
98.64701228791614
 10
902.3842690619828
 20
99.48090730417607
 10
902.9670074714152
 20
100.32405959514847
 10
903.5364303292796
 20
101.17626112562189
 10
904.0923971390065
 20
102.03730162762048
 10
904.6347707241046
 20
102.90696865228432
 10
905.1634172620073
 20
103.78504762228829
 10
905.678206317092
 20
104.67132188478541
 10
906.1790108728621
 20
105.5655727648631
 10
906.6657073632873
 20
106.4675796194976
 10
907.138175703291
 20
107.3771198919946
 10
907.5962993183801
 20
108.29396916690155
 10
908.0399651734078
 20
109.21790122537902
 10
908.4690638004628
 20
110.14868810101666
 10
908.8834893258797
 20
111.08610013608057
 10
909.2831394963614
 20
112.0299060381779
 10
909.6679157042084
 20
112.97987293732479
 10
910.0377230116488
 20
113.93576644340348
 10
910.3924701742633
 20
114.89735070399476
 10
910.7320696634973
 20
115.86438846257076
 10
911.0564376882587
 20
116.8366411170347
 10
911.3654942155911
 20
117.81386877859217
 10
911.6591629904206
 20
118.79583033094033
 10
911.9373715543713
 20
119.78228348975944
 10
912.2000512636432
 20
120.77298486249322
 10
912.4471373059484
 20
121.76769000840218
 10
912.6785687165033
 20
122.76615349887558
 10
912.8942883930702
 20
123.76812897798757
 10
913.0942431100469
 20
124.77336922328146
 10
913.278383531599
 20
125.78162620676855
 10
913.4466642238327
 20
126.79265115612492
 10
913.5990436660054
 20
127.80619461607276
 10
913.7354842607697
 20
128.82200650992914
 10
913.8559523434506
 20
129.8398362013093
 10
913.960418190351
 20
130.85943255596695
 10
914.0488560260866
 20
131.88054400375813
 10
914.1212440299447
 20
132.9029186007123
 10
914.1775643412685
 20
133.92630409119585
 10
914.217803063864
 20
134.95044797015214
 10
914.2419502694283
 20
135.9750975454037
 10
914.25
 20
137.0
  0
LWPOLYLINE
  5
44
330
17
100
AcDbEntity
  8
POCKET_11MM
100
AcDbPolyline
 90
401
 70
1
 10
926.3
 20
467.00000000000006
 10
926.2756595886317
 20
470.0990537056222
 10
926.2026443601588
 20
473.19734276611473
 10
926.0809723299967
 20
476.2941027250125
 10
925.910673518898
 20
479.3885695031337
 10
925.6917899455461
 20
482.4799795871038
 10
925.4243756161877
 20
485.56757021774285
 10
925.108496511307
 20
488.6505795782632
 10
924.7442305693464
 20
491.72824698223735
 10
924.3316676674768
 20
494.79981306128514
 10
923.8709095994207
 20
497.8645199524376
 10
923.3620700503369
 20
500.9216114851274
 10
922.8052745687703
 20
503.9703333677637
 10
922.2006605356744
 20
507.0099333738399
 10
921.5483771305148
 20
510.0396615275379
 10
920.8485852944616
 20
513.0587702887701
 10
920.1014576906789
 20
516.066514737626
 10
919.3071786617236
 20
519.0621527581682
 10
918.4659441840608
 20
522.04494522154
 10
917.5779618197106
 20
525.0141561683334
 10
916.6434506650337
 20
527.9690529901774
 10
915.6626412966747
 20
530.9089066104949
 10
914.6357757146686
 20
533.832991664396
 10
913.5631072827329
 20
536.7405866776475
 10
912.4449006657519
 20
539.6309742446871
 10
911.2814317644768
 20
542.5034412056324
 10
910.0729876474495
 20
545.3572788222423
 10
908.8198664801733
 20
548.1917829527879
 10
907.5223774515456
 20
551.0062542257889
 10
906.1808406975695
 20
553.7999982125721
 10
904.7955872223649
 20
556.5723255986127
 10
903.3669588164992
 20
559.3225523536112
 10
901.8953079726543
 20
562.0499999002684
 10
900.380997798655
 20
564.7539952817142
 10
898.824401927878
 20
567.4338713275484
 10
897.2259044270625
 20
570.0889668184567
 10
895.5858997015476
 20
572.718626649356
 10
893.9047923979597
 20
575.3222019910315
 10
892.182997304371
 20
577.8990504502254
 10
890.4209392479571
 20
580.4485362281389
 10
888.6190529901771
 20
582.970030277305
 10
886.7777831195028
 20
585.4629104567971
 10
884.8975839417237
 20
587.9265616857323
 10
882.9789193678525
 20
590.3603760950347
 10
881.0222627996633
 20
592.7637531774164
 10
879.0280970128861
 20
595.1360999355454
 10
876.9969140380896
 20
597.4768310283566
 10
874.9292150392796
 20
599.7853689154783
 10
872.8255101902445
 20
602.0611439997303
 10
870.686318548677
 20
604.3035947676638
 10
868.5121679281058
 20
606.5121679281059
 10
866.3035947676636
 20
608.6863185486771
 10
864.0611439997302
 20
610.8255101902445
 10
861.7853689154781
 20
612.9292150392798
 10
859.4768310283564
 20
614.9969140380898
 10
857.1360999355452
 20
617.0280970128862
 10
854.7637531774164
 20
619.0222627996633
 10
852.3603760950344
 20
620.9789193678527
 10
849.9265616857322
 20
622.8975839417237
 10
847.4629104567969
 20
624.777783119503
 10
844.9700302773049
 20
626.6190529901771
 10
842.4485362281389
 20
628.4209392479571
 10
839.8990504502252
 20
630.1829973043712
 10
837.3222019910313
 20
631.9047923979598
 10
834.7186266493561
 20
633.5858997015475
 10
832.0889668184568
 20
635.2259044270623
 10
829.4338713275481
 20
636.8244019278782
 10
826.753995281714
 20
638.3809977986552
 10
824.0499999002684
 20
639.8953079726543
 10
821.3225523536111
 20
641.3669588164993
 10
818.5723255986126
 20
642.795587222365
 10
815.7999982125721
 20
644.1808406975695
 10
813.0062542257888
 20
645.5223774515457
 10
810.191782952788
 20
646.8198664801733
 10
807.357278822242
 20
648.0729876474495
 10
804.5034412056323
 20
649.2814317644768
 10
801.630974244687
 20
650.444900665752
 10
798.7405866776473
 20
651.5631072827329
 10
795.8329916643959
 20
652.6357757146687
 10
792.9089066104948
 20
653.6626412966747
 10
789.969052990177
 20
654.6434506650338
 10
787.0141561683336
 20
655.5779618197105
 10
784.0449452215398
 20
656.465944184061
 10
781.0621527581682
 20
657.3071786617236
 10
778.0665147376259
 20
658.1014576906789
 10
775.05877028877
 20
658.8485852944616
 10
772.0396615275379
 20
659.5483771305148
 10
769.0099333738399
 20
660.2006605356744
 10
765.9703333677634
 20
660.8052745687703
 10
762.9216114851274
 20
661.3620700503369
 10
759.8645199524375
 20
661.8709095994207
 10
756.799813061285
 20
662.3316676674768
 10
753.7282469822372
 20
662.7442305693464
 10
750.6505795782631
 20
663.108496511307
 10
747.567570217743
 20
663.4243756161877
 10
744.4799795871037
 20
663.6917899455461
 10
741.3885695031333
 20
663.910673518898
 10
738.2941027250126
 20
664.0809723299967
 10
735.1973427661146
 20
664.2026443601588
 10
732.0990537056222
 20
664.2756595886317
 10
729.0
 20
664.3
 10
725.9009462943777
 20
664.2756595886317
 10
722.8026572338853
 20
664.2026443601588
 10
719.7058972749874
 20
664.0809723299967
 10
716.6114304968663
 20
663.910673518898
 10
713.5200204128962
 20
663.6917899455461
 10
710.432429782257
 20
663.4243756161877
 10
707.3494204217367
 20
663.108496511307
 10
704.2717530177626
 20
662.7442305693464
 10
701.2001869387149
 20
662.3316676674768
 10
698.1354800475624
 20
661.8709095994207
 10
695.0783885148724
 20
661.3620700503369
 10
692.0296666322363
 20
660.8052745687703
 10
688.9900666261601
 20
660.2006605356744
 10
685.960338472462
 20
659.5483771305148
 10
682.9412297112298
 20
658.8485852944616
 10
679.933485262374
 20
658.1014576906789
 10
676.9378472418318
 20
657.3071786617236
 10
673.95505477846
 20
656.4659441840608
 10
670.9858438316664
 20
655.5779618197105
 10
668.0309470098229
 20
654.6434506650338
 10
665.0910933895051
 20
653.6626412966747
 10
662.167008335604
 20
652.6357757146686
 10
659.2594133223524
 20
651.5631072827327
 10
656.3690257553129
 20
650.4449006657519
 10
653.4965587943677
 20
649.2814317644768
 10
650.6427211777577
 20
648.0729876474495
 10
647.8082170472119
 20
646.8198664801733
 10
644.9937457742111
 20
645.5223774515456
 10
642.2000017874279
 20
644.1808406975695
 10
639.4276744013873
 20
642.7955872223649
 10
636.6774476463888
 20
641.3669588164992
 10
633.9500000997314
 20
639.8953079726542
 10
631.2460047182858
 20
638.380997798655
 10
628.5661286724517
 20
636.8244019278781
 10
625.9110331815432
 20
635.2259044270623
 10
623.2813733506439
 20
633.5858997015475
 10
620.6777980089685
 20
631.9047923979597
 10
618.1009495497746
 20
630.182997304371
 10
615.5514637718611
 20
628.4209392479571
 10
613.0299697226949
 20
626.619052990177
 10
610.5370895432029
 20
624.7777831195028
 10
608.0734383142677
 20
622.8975839417237
 10
605.6396239049654
 20
620.9789193678525
 10
603.2362468225834
 20
619.0222627996632
 10
600.8639000644547
 20
617.0280970128861
 10
598.5231689716434
 20
614.9969140380896
 10
596.2146310845218
 20
612.9292150392798
 10
593.9388560002697
 20
610.8255101902445
 10
591.6964052323362
 20
608.686318548677
 10
589.4878320718941
 20
606.5121679281058
 10
587.3136814513229
 20
604.3035947676638
 10
585.1744898097555
 20
602.0611439997303
 10
583.0707849607202
 20
599.7853689154781
 10
581.0030859619103
 20
597.4768310283565
 10
578.9719029871139
 20
595.1360999355453
 10
576.9777372003368
 20
592.7637531774164
 10
575.0210806321475
 20
590.3603760950346
 10
573.1024160582763
 20
587.9265616857323
 10
571.2222168804971
 20
585.462910456797
 10
569.3809470098229
 20
582.9700302773049
 10
567.5790607520428
 20
580.4485362281387
 10
565.817002695629
 20
577.8990504502253
 10
564.0952076020403
 20
575.3222019910314
 10
562.4141002984524
 20
572.718626649356
 10
560.7740955729375
 20
570.0889668184566
 10
559.1755980721219
 20
567.4338713275482
 10
557.6190022013449
 20
564.753995281714
 10
556.1046920273457
 20
562.0499999002684
 10
554.6330411835008
 20
559.3225523536112
 10
553.2044127776351
 20
556.5723255986126
 10
551.8191593024305
 20
553.7999982125721
 10
550.4776225484544
 20
551.0062542257889
 10
549.1801335198267
 20
548.191782952788
 10
547.9270123525505
 20
545.3572788222422
 10
546.7185682355231
 20
542.5034412056322
 10
545.555099334248
 20
539.6309742446871
 10
544.4368927172671
 20
536.7405866776475
 10
543.3642242853313
 20
533.8329916643959
 10
542.3373587033253
 20
530.9089066104948
 10
541.3565493349662
 20
527.9690529901771
 10
540.4220381802895
 20
525.0141561683336
 10
539.5340558159392
 20
522.0449452215398
 10
538.6928213382764
 20
519.062152758168
 10
537.8985423093211
 20
516.0665147376259
 10
537.1514147055384
 20
513.0587702887701
 10
536.4516228694852
 20
510.03966152753776
 10
535.7993394643256
 20
507.0099333738399
 10
535.1947254312297
 20
503.9703333677635
 10
534.6379299496631
 20
500.9216114851274
 10
534.1290904005793
 20
497.8645199524375
 10
533.6683323325232
 20
494.799813061285
 10
533.2557694306536
 20
491.72824698223724
 10
532.891503488693
 20
488.6505795782633
 10
532.5756243838123
 20
485.56757021774285
 10
532.3082100544539
 20
482.4799795871037
 10
532.089326481102
 20
479.38856950313357
 10
531.9190276700033
 20
476.2941027250125
 10
531.7973556398412
 20
473.1973427661147
 10
531.7243404113683
 20
470.0990537056221
 10
531.7
 20
467.0
 10
531.7243404113683
 20
463.90094629437766
 10
531.7973556398412
 20
460.8026572338852
 10
531.9190276700033
 20
457.70589727498736
 10
532.089326481102
 20
454.61143049686643
 10
532.3082100544539
 20
451.52002041289614
 10
532.5756243838123
 20
448.43242978225703
 10
532.891503488693
 20
445.3494204217368
 10
533.2557694306536
 20
442.2717530177627
 10
533.6683323325232
 20
439.2001869387149
 10
534.1290904005793
 20
436.13548004756234
 10
534.6379299496631
 20
433.0783885148725
 10
535.1947254312297
 20
430.02966663223646
 10
535.7993394643256
 20
426.99006662616
 10
536.4516228694852
 20
423.9603384724621
 10
537.1514147055384
 20
420.9412297112298
 10
537.8985423093211
 20
417.93348526237406
 10
538.6928213382764
 20
414.93784724183183
 10
539.5340558159392
 20
411.95505477846
 10
540.4220381802895
 20
408.9858438316664
 10
541.3565493349662
 20
406.03094700982274
 10
542.3373587033253
 20
403.0910933895051
 10
543.3642242853314
 20
400.16700833560395
 10
544.4368927172671
 20
397.2594133223525
 10
545.5550993342481
 20
394.3690257553129
 10
546.7185682355231
 20
391.49655879436773
 10
547.9270123525505
 20
388.6427211777577
 10
549.1801335198267
 20
385.808217047212
 10
550.4776225484544
 20
382.993745774211
 10
551.8191593024305
 20
380.20000178742794
 10
553.2044127776351
 20
377.4276744013873
 10
554.6330411835008
 20
374.67744764638877
 10
556.1046920273457
 20
371.9500000997316
 10
557.6190022013449
 20
369.2460047182859
 10
559.1755980721219
 20
366.5661286724517
 10
560.7740955729375
 20
363.9110331815433
 10
562.4141002984525
 20
361.28137335064395
 10
564.0952076020403
 20
358.6777980089686
 10
565.817002695629
 20
356.10094954977467
 10
567.5790607520429
 20
353.5514637718611
 10
569.3809470098229
 20
351.029969722695
 10
571.2222168804971
 20
348.537089543203
 10
573.1024160582763
 20
346.0734383142677
 10
575.0210806321476
 20
343.63962390496533
 10
576.9777372003368
 20
341.2362468225835
 10
578.9719029871139
 20
338.8639000644547
 10
581.0030859619103
 20
336.5231689716435
 10
583.0707849607204
 20
334.21463108452167
 10
585.1744898097555
 20
331.93885600026965
 10
587.313681451323
 20
329.6964052323363
 10
589.4878320718942
 20
327.48783207189416
 10
591.6964052323365
 20
325.31368145132274
 10
593.9388560002698
 20
323.1744898097554
 10
596.2146310845218
 20
321.0707849607203
 10
598.5231689716435
 20
319.0030859619103
 10
600.8639000644548
 20
316.9719029871138
 10
603.2362468225836
 20
314.9777372003367
 10
605.6396239049653
 20
313.0210806321476
 10
608.0734383142678
 20
311.1024160582763
 10
610.5370895432031
 20
309.222216880497
 10
613.0299697226951
 20
307.3809470098229
 10
615.5514637718611
 20
305.5790607520429
 10
618.1009495497747
 20
303.8170026956289
 10
620.6777980089687
 20
302.0952076020402
 10
623.281373350644
 20
300.41410029845235
 10
625.9110331815433
 20
298.77409557293754
 10
628.5661286724519
 20
297.17559807212183
 10
631.246004718286
 20
295.6190022013448
 10
633.9500000997316
 20
294.10469202734566
 10
636.6774476463888
 20
292.6330411835008
 10
639.4276744013875
 20
291.20441277763496
 10
642.2000017874279
 20
289.81915930243053
 10
644.9937457742112
 20
288.4776225484543
 10
647.8082170472121
 20
287.18013351982665
 10
650.642721177758
 20
285.9270123525505
 10
653.4965587943677
 20
284.7185682355231
 10
656.3690257553131
 20
283.5550993342479
 10
659.2594133223525
 20
282.43689271726714
 10
662.1670083356041
 20
281.36422428533126
 10
665.0910933895051
 20
280.3373587033253
 10
668.030947009823
 20
279.3565493349662
 10
670.9858438316664
 20
278.42203818028946
 10
673.9550547784601
 20
277.53405581593915
 10
676.937847241832
 20
276.6928213382764
 10
679.9334852623741
 20
275.8985423093211
 10
682.9412297112299
 20
275.1514147055384
 10
685.9603384724621
 20
274.45162286948516
 10
688.9900666261601
 20
273.7993394643256
 10
692.0296666322365
 20
273.1947254312297
 10
695.0783885148726
 20
272.6379299496631
 10
698.1354800475624
 20
272.12909040057934
 10
701.200186938715
 20
271.66833233252316
 10
704.2717530177628
 20
271.2557694306535
 10
707.3494204217368
 20
270.89150348869305
 10
710.4324297822571
 20
270.5756243838123
 10
713.5200204128962
 20
270.30821005445387
 10
716.6114304968664
 20
270.08932648110203
 10
719.7058972749876
 20
269.9190276700033
 10
722.8026572338853
 20
269.79735563984116
 10
725.9009462943778
 20
269.72434041136836
 10
729.0
 20
269.7
 10
732.0990537056223
 20
269.72434041136836
 10
735.1973427661147
 20
269.79735563984116
 10
738.2941027250126
 20
269.9190276700033
 10
741.3885695031336
 20
270.08932648110203
 10
744.4799795871039
 20
270.30821005445387
 10
747.567570217743
 20
270.5756243838123
 10
750.6505795782633
 20
270.89150348869305
 10
753.7282469822374
 20
271.2557694306535
 10
756.799813061285
 20
271.66833233252316
 10
759.8645199524376
 20
272.12909040057934
 10
762.9216114851275
 20
272.6379299496631
 10
765.9703333677635
 20
273.1947254312297
 10
769.0099333738399
 20
273.7993394643256
 10
772.0396615275379
 20
274.45162286948516
 10
775.0587702887701
 20
275.1514147055384
 10
778.066514737626
 20
275.8985423093211
 10
781.0621527581682
 20
276.6928213382764
 10
784.04494522154
 20
277.53405581593915
 10
787.0141561683336
 20
278.42203818028946
 10
789.9690529901773
 20
279.3565493349662
 10
792.9089066104949
 20
280.3373587033253
 10
795.8329916643961
 20
281.3642242853313
 10
798.7405866776475
 20
282.43689271726714
 10
801.630974244687
 20
283.555099334248
 10
804.5034412056323
 20
284.7185682355231
 10
807.3572788222423
 20
285.9270123525505
 10
810.191782952788
 20
287.18013351982665
 10
813.0062542257889
 20
288.4776225484544
 10
815.7999982125721
 20
289.81915930243053
 10
818.5723255986127
 20
291.20441277763507
 10
821.3225523536112
 20
292.6330411835008
 10
824.0499999002685
 20
294.1046920273458
 10
826.753995281714
 20
295.61900220134487
 10
829.4338713275482
 20
297.1755980721219
 10
832.0889668184568
 20
298.77409557293765
 10
834.718626649356
 20
300.41410029845235
 10
837.3222019910314
 20
302.0952076020403
 10
839.8990504502253
 20
303.81700269562896
 10
842.4485362281389
 20
305.5790607520429
 10
844.9700302773049
 20
307.3809470098229
 10
847.462910456797
 20
309.22221688049706
 10
849.9265616857323
 20
311.1024160582763
 10
852.3603760950347
 20
313.0210806321476
 10
854.7637531774164
 20
314.9777372003368
 10
857.1360999355453
 20
316.97190298711394
 10
859.4768310283565
 20
319.0030859619103
 10
861.7853689154783
 20
321.07078496072035
 10
864.0611439997302
 20
323.1744898097555
 10
866.3035947676636
 20
325.31368145132285
 10
868.5121679281058
 20
327.4878320718942
 10
870.6863185486773
 20
329.6964052323364
 10
872.8255101902445
 20
331.93885600026977
 10
874.9292150392798
 20
334.2146310845218
 10
876.9969140380897
 20
336.5231689716435
 10
879.0280970128862
 20
338.8639000644548
 10
881.0222627996633
 20
341.23624682258355
 10
882.9789193678525
 20
343.63962390496545
 10
884.8975839417237
 20
346.0734383142677
 10
886.7777831195029
 20
348.537089543203
 10
888.6190529901771
 20
351.0299697226951
 10
890.4209392479571
 20
353.5514637718611
 10
892.182997304371
 20
356.10094954977467
 10
893.9047923979597
 20
358.6777980089686
 10
895.5858997015476
 20
361.281373350644
 10
897.2259044270625
 20
363.9110331815433
 10
898.8244019278782
 20
366.5661286724518
 10
900.3809977986551
 20
369.246004718286
 10
901.8953079726543
 20
371.9500000997316
 10
903.3669588164992
 20
374.6774476463888
 10
904.795587222365
 20
377.42767440138743
 10
906.1808406975695
 20
380.20000178742794
 10
907.5223774515457
 20
382.9937457742112
 10
908.8198664801733
 20
385.808217047212
 10
910.0729876474495
 20
388.64272117775783
 10
911.2814317644769
 20
391.4965587943678
 10
912.444900665752
 20
394.3690257553131
 10
913.5631072827329
 20
397.25941332235254
 10
914.6357757146687
 20
400.16700833560407
 10
915.6626412966747
 20
403.09109338950515
 10
916.6434506650338
 20
406.03094700982297
 10
917.5779618197105
 20
408.98584383166644
 10
918.4659441840608
 20
411.9550547784602
 10
919.3071786617236
 20
414.93784724183195
 10
920.1014576906789
 20
417.9334852623741
 10
920.8485852944616
 20
420.9412297112299
 10
921.5483771305148
 20
423.9603384724621
 10
922.2006605356744
 20
426.9900666261601
 10
922.8052745687703
 20
430.0296666322365
 10
923.3620700503369
 20
433.07838851487253
 10
923.8709095994207
 20
436.1354800475624
 10
924.3316676674768
 20
439.200186938715
 10
924.7442305693464
 20
442.27175301776276
 10
925.108496511307
 20
445.3494204217368
 10
925.4243756161877
 20
448.4324297822571
 10
925.6917899455461
 20
451.52002041289626
 10
925.910673518898
 20
454.61143049686643
 10
926.0809723299967
 20
457.7058972749876
 10
926.2026443601588
 20
460.80265723388527
 10
926.2756595886317
 20
463.90094629437783
 10
926.3
 20
467.0
  0
TEXT
  5
45
330
17
100
AcDbEntity
  8
NOTES
100
AcDbText
 10
497.0
 20
25.0
 30
0.0
 40
12.0
  1
baffle
 11
497.0
 21
25.0
 31
0.0
100
AcDbText
  0
LWPOLYLINE
  5
46
330
17
100
AcDbEntity
  8
CUT_OUTSIDE
100
AcDbPolyline
 90
5
 70
1
 10
983.0
 20
15.0
 10
1467.0
 20
15.0
 10
1467.0
 20
739.0
 10
983.0
 20
739.0
 10
983.0
 20
15.0
  0
CIRCLE
  5
47
330
17
100
AcDbEntity
  8
CUT_INSIDE
100
AcDbCircle
 10
1105.0
 20
137.0
 30
0.0
 40
55.2
  0
CIRCLE
  5
48
330
17
100
AcDbEntity
  8
CUT_INSIDE
100
AcDbCircle
 10
1153.2468564315454
 20
293.77258765413376
 30
0.0
 40
3.5
  0
CIRCLE
  5
49
330
17
100
AcDbEntity
  8
CUT_INSIDE
100
AcDbCircle
 10
1051.7725876541338
 20
395.24685643154567
 30
0.0
 40
3.5
  0
CIRCLE
  5
4A
330
17
100
AcDbEntity
  8
CUT_INSIDE
100
AcDbCircle
 10
1051.7725876541338
 20
538.7531435684543
 30
0.0
 40
3.5
  0
CIRCLE
  5
4B
330
17
100
AcDbEntity
  8
CUT_INSIDE
100
AcDbCircle
 10
1153.2468564315457
 20
640.2274123458662
 30
0.0
 40
3.5
  0
CIRCLE
  5
4C
330
17
100
AcDbEntity
  8
CUT_INSIDE
100
AcDbCircle
 10
1296.7531435684543
 20
293.77258765413376
 30
0.0
 40
3.5
  0
CIRCLE
  5
4D
330
17
100
AcDbEntity
  8
CUT_INSIDE
100
AcDbCircle
 10
1345.0
 20
137.0
 30
0.0
 40
55.2
  0
CIRCLE
  5
4E
330
17
100
AcDbEntity
  8
CUT_INSIDE
100
AcDbCircle
 10
1225.0
 20
467.0
 30
0.0
 40
178.0
  0
CIRCLE
  5
4F
330
17
100
AcDbEntity
  8
CUT_INSIDE
100
AcDbCircle
 10
1296.7531435684543
 20
640.2274123458662
 30
0.0
 40
3.5
  0
CIRCLE
  5
50
330
17
100
AcDbEntity
  8
CUT_INSIDE
100
AcDbCircle
 10
1398.2274123458662
 20
395.24685643154555
 30
0.0
 40
3.5
  0
CIRCLE
  5
51
330
17
100
AcDbEntity
  8
CUT_INSIDE
100
AcDbCircle
 10
1398.2274123458662
 20
538.7531435684543
 30
0.0
 40
3.5
  0
LWPOLYLINE
  5
52
330
17
100
AcDbEntity
  8
POCKET_5MM
100
AcDbPolyline
 90
401
 70
1
 10
1170.25
 20
137.00000000000003
 10
1170.2419502694283
 20
138.02490245459632
 10
1170.217803063864
 20
139.04955202984794
 10
1170.1775643412686
 20
140.07369590880418
 10
1170.1212440299446
 20
141.09708139928776
 10
1170.0488560260865
 20
142.11945599624192
 10
1169.960418190351
 20
143.1405674440331
 10
1169.8559523434506
 20
144.16016379869075
 10
1169.7354842607697
 20
145.1779934900709
 10
1169.5990436660054
 20
146.19380538392736
 10
1169.4466642238326
 20
147.20734884387514
 10
1169.278383531599
 20
148.21837379323148
 10
1169.094243110047
 20
149.2266307767186
 10
1168.8942883930702
 20
150.23187102201248
 10
1168.6785687165034
 20
151.23384650112445
 10
1168.4471373059484
 20
152.23230999159787
 10
1168.2000512636432
 20
153.2270151375068
 10
1167.9373715543713
 20
154.21771651024062
 10
1167.6591629904206
 20
155.20416966905978
 10
1167.365494215591
 20
156.18613122140786
 10
1167.0564376882587
 20
157.16335888296538
 10
1166.7320696634974
 20
158.13561153742927
 10
1166.3924701742633
 20
159.10264929600532
 10
1166.0377230116487
 20
160.06423355659658
 10
1165.6679157042083
 20
161.02012706267527
 10
1165.2831394963614
 20
161.97009396182216
 10
1164.8834893258797
 20
162.91389986391948
 10
1164.4690638004627
 20
163.85131189898337
 10
1164.0399651734078
 20
164.78209877462106
 10
1163.5962993183803
 20
165.70603083309848
 10
1163.138175703291
 20
166.6228801080055
 10
1162.6657073632873
 20
167.53242038050246
 10
1162.1790108728621
 20
168.43442723513692
 10
1161.678206317092
 20
169.32867811521464
 10
1161.1634172620072
 20
170.21495237771177
 10
1160.6347707241046
 20
171.0930313477157
 10
1160.0923971390064
 20
171.96269837237958
 10
1159.5364303292795
 20
172.82373887437814
 10
1158.9670074714152
 20
173.67594040485153
 10
1158.3842690619826
 20
174.51909269582399
 10
1157.7883588829654
 20
175.3529877120839
 10
1157.1794239662827
 20
176.177419702514
 10
1156.5576145575137
 20
176.99218525085672
 10
1155.923084078826
 20
177.7970833259048
 10
1155.2759890911202
 20
178.59191533110203
 10
1154.616489255402
 20
179.37648515354454
 10
1153.9447472933875
 20
180.15059921236832
 10
1153.2609289473542
 20
180.91406650651277
 10
1152.565202939247
 20
181.66669866184697
 10
1151.857740929048
 20
182.40830997764857
 10
1151.1387174724223
 20
183.13871747242223
 10
1150.4083099776485
 20
183.8577409290481
 10
1149.6666986618468
 20
184.56520293924714
 10
1148.9140665065127
 20
185.26092894735433
 10
1148.1505992123682
 20
185.9447472933875
 10
1147.3764851535445
 20
186.616489255402
 10
1146.591915331102
 20
187.27598909112027
 10
1145.7970833259046
 20
187.92308407882607
 10
1144.9921852508567
 20
188.55761455751383
 10
1144.1774197025138
 20
189.17942396628268
 10
1143.3529877120839
 20
189.78835888296535
 10
1142.519092695824
 20
190.3842690619828
 10
1141.6759404048514
 20
190.9670074714152
 10
1140.823738874378
 20
191.53643032927963
 10
1139.9626983723795
 20
192.09239713900652
 10
1139.0930313477156
 20
192.63477072410453
 10
1138.2149523777116
 20
193.16341726200733
 10
1137.3286781152146
 20
193.678206317092
 10
1136.4344272351368
 20
194.17901087286214
 10
1135.5324203805023
 20
194.66570736328725
 10
1134.6228801080053
 20
195.13817570329104
 10
1133.7060308330983
 20
195.59629931838018
 10
1132.7820987746209
 20
196.03996517340778
 10
1131.8513118989833
 20
196.46906380046283
 10
1130.9138998639194
 20
196.8834893258798
 10
1129.9700939618222
 20
197.28313949636146
 10
1129.0201270626753
 20
197.66791570420838
 10
1128.0642335565965
 20
198.03772301164884
 10
1127.1026492960052
 20
198.39247017426322
 10
1126.1356115374292
 20
198.73206966349733
 10
1125.1633588829652
 20
199.05643768825877
 10
1124.1861312214078
 20
199.36549421559107
 10
1123.2041696690596
 20
199.65916299042055
 10
1122.2177165102405
 20
199.93737155437134
 10
1121.227015137507
 20
200.20005126364316
 10
1120.2323099915977
 20
200.44713730594842
 10
1119.2338465011244
 20
200.67856871650326
 10
1118.2318710220125
 20
200.8942883930702
 10
1117.2266307767186
 20
201.09424311004693
 10
1116.2183737932314
 20
201.278383531599
 10
1115.207348843875
 20
201.44666422383273
 10
1114.1938053839272
 20
201.5990436660054
 10
1113.1779934900708
 20
201.73548426076968
 10
1112.1601637986907
 20
201.8559523434505
 10
1111.140567444033
 20
201.960418190351
 10
1110.1194559962419
 20
202.0488560260866
 10
1109.0970813992876
 20
202.1212440299447
 10
1108.0736959088042
 20
202.17756434126852
 10
1107.0495520298477
 20
202.21780306386398
 10
1106.0249024545963
 20
202.24195026942834
 10
1105.0
 20
202.25
 10
1103.9750975454037
 20
202.24195026942834
 10
1102.950447970152
 20
202.21780306386398
 10
1101.9263040911958
 20
202.17756434126852
 10
1100.9029186007124
 20
202.1212440299447
 10
1099.8805440037581
 20
202.04885602608658
 10
1098.8594325559668
 20
201.96041819035096
 10
1097.8398362013093
 20
201.85595234345047
 10
1096.822006509929
 20
201.73548426076968
 10
1095.8061946160726
 20
201.5990436660054
 10
1094.792651156125
 20
201.44666422383273
 10
1093.7816262067686
 20
201.278383531599
 10
1092.7733692232814
 20
201.09424311004693
 10
1091.7681289779875
 20
200.8942883930702
 10
1090.7661534988756
 20
200.67856871650326
 10
1089.767690008402
 20
200.4471373059484
 10
1088.772984862493
 20
200.20005126364316
 10
1087.7822834897595
 20
199.9373715543713
 10
1086.7958303309404
 20
199.65916299042055
 10
1085.813868778592
 20
199.365494215591
 10
1084.8366411170346
 20
199.05643768825874
 10
1083.8643884625708
 20
198.73206966349733
 10
1082.8973507039948
 20
198.39247017426322
 10
1081.9357664434035
 20
198.03772301164884
 10
1080.9798729373247
 20
197.66791570420838
 10
1080.0299060381778
 20
197.28313949636146
 10
1079.0861001360806
 20
196.8834893258798
 10
1078.1486881010167
 20
196.46906380046278
 10
1077.217901225379
 20
196.03996517340775
 10
1076.2939691669014
 20
195.59629931838015
 10
1075.3771198919947
 20
195.13817570329098
 10
1074.4675796194977
 20
194.66570736328725
 10
1073.565572764863
 20
194.17901087286208
 10
1072.6713218847854
 20
193.67820631709196
 10
1071.7850476222884
 20
193.16341726200733
 10
1070.9069686522844
 20
192.6347707241045
 10
1070.0373016276203
 20
192.09239713900644
 10
1069.176261125622
 20
191.53643032927963
 10
1068.3240595951484
 20
190.96700747141514
 10
1067.480907304176
 20
190.38426906198276
 10
1066.6470122879161
 20
189.78835888296527
 10
1065.822580297486
 20
189.17942396628263
 10
1065.0078147491433
 20
188.5576145575138
 10
1064.2029166740951
 20
187.92308407882604
 10
1063.408084668898
 20
187.27598909112027
 10
1062.6235148464555
 20
186.616489255402
 10
1061.8494007876316
 20
185.94474729338745
 10
1061.0859334934873
 20
185.2609289473543
 10
1060.333301338153
 20
184.56520293924706
 10
1059.5916900223515
 20
183.85774092904805
 10
1058.8612825275777
 20
183.13871747242223
 10
1058.142259070952
 20
182.4083099776485
 10
1057.4347970607528
 20
181.6666986618469
 10
1056.7390710526456
 20
180.91406650651268
 10
1056.0552527066125
 20
180.15059921236826
 10
1055.383510744598
 20
179.37648515354448
 10
1054.7240109088798
 20
178.59191533110197
 10
1054.0769159211738
 20
177.79708332590474
 10
1053.4423854424863
 20
176.99218525085666
 10
1052.8205760337173
 20
176.17741970251393
 10
1052.2116411170346
 20
175.35298771208386
 10
1051.6157309380171
 20
174.51909269582387
 10
1051.0329925285848
 20
173.6759404048515
 10
1050.4635696707203
 20
172.82373887437808
 10
1049.9076028609934
 20
171.96269837237952
 10
1049.3652292758954
 20
171.09303134771562
 10
1048.8365827379926
 20
170.2149523777117
 10
1048.321793682908
 20
169.32867811521456
 10
1047.8209891271379
 20
168.43442723513692
 10
1047.3342926367127
 20
167.5324203805024
 10
1046.861824296709
 20
166.6228801080054
 10
1046.4037006816197
 20
165.70603083309842
 10
1045.9600348265922
 20
164.78209877462098
 10
1045.530936199537
 20
163.85131189898334
 10
1045.1165106741203
 20
162.9138998639194
 10
1044.7168605036386
 20
161.97009396182207
 10
1044.3320842957917
 20
161.02012706267524
 10
1043.962276988351
 20
160.0642335565965
 10
1043.6075298257367
 20
159.1026492960052
 10
1043.2679303365026
 20
158.1356115374292
 10
1042.9435623117413
 20
157.16335888296533
 10
1042.634505784409
 20
156.18613122140783
 10
1042.3408370095794
 20
155.20416966905967
 10
1042.0626284456287
 20
154.21771651024056
 10
1041.7999487363568
 20
153.22701513750675
 10
1041.5528626940516
 20
152.23230999159782
 10
1041.3214312834966
 20
151.23384650112433
 10
1041.1057116069298
 20
150.23187102201243
 10
1040.905756889953
 20
149.2266307767185
 10
1040.721616468401
 20
148.21837379323145
 10
1040.5533357761672
 20
147.207348843875
 10
1040.4009563339946
 20
146.19380538392724
 10
1040.2645157392303
 20
145.17799349007083
 10
1040.1440476565494
 20
144.16016379869072
 10
1040.039581809649
 20
143.14056744403305
 10
1039.9511439739133
 20
142.11945599624184
 10
1039.8787559700552
 20
141.09708139928767
 10
1039.8224356587314
 20
140.07369590880418
 10
1039.782196936136
 20
139.04955202984786
 10
1039.7580497305717
 20
138.02490245459626
 10
1039.75
 20
137.0
 10
1039.7580497305717
 20
135.97509754540363
 10
1039.782196936136
 20
134.9504479701521
 10
1039.8224356587314
 20
133.92630409119576
 10
1039.8787559700552
 20
132.9029186007123
 10
1039.9511439739133
 20
131.8805440037581
 10
1040.039581809649
 20
130.85943255596692
 10
1040.1440476565494
 20
129.8398362013093
 10
1040.2645157392303
 20
128.82200650992914
 10
1040.4009563339946
 20
127.80619461607273
 10
1040.5533357761674
 20
126.79265115612489
 10
1040.721616468401
 20
125.7816262067685
 10
1040.905756889953
 20
124.77336922328143
 10
1041.1057116069298
 20
123.76812897798754
 10
1041.3214312834966
 20
122.76615349887555
 10
1041.5528626940516
 20
121.76769000840213
 10
1041.7999487363568
 20
120.77298486249319
 10
1042.0626284456287
 20
119.78228348975938
 10
1042.3408370095794
 20
118.79583033094025
 10
1042.634505784409
 20
117.81386877859217
 10
1042.9435623117413
 20
116.83664111703465
 10
1043.2679303365026
 20
115.86438846257076
 10
1043.6075298257367
 20
114.89735070399468
 10
1043.9622769883513
 20
113.93576644340345
 10
1044.3320842957917
 20
112.97987293732473
 10
1044.7168605036386
 20
112.0299060381779
 10
1045.1165106741203
 20
111.08610013608052
 10
1045.530936199537
 20
110.14868810101663
 10
1045.9600348265922
 20
109.21790122537897
 10
1046.4037006816197
 20
108.29396916690152
 10
1046.861824296709
 20
107.37711989199451
 10
1047.3342926367127
 20
106.46757961949757
 10
1047.8209891271379
 20
105.56557276486305
 10
1048.321793682908
 20
104.67132188478539
 10
1048.8365827379928
 20
103.78504762228826
 10
1049.3652292758954
 20
102.90696865228432
 10
1049.9076028609934
 20
102.03730162762048
 10
1050.4635696707203
 20
101.17626112562189
 10
1051.0329925285848
 20
100.32405959514847
 10
1051.6157309380174
 20
99.48090730417604
 10
1052.2116411170348
 20
98.64701228791611
 10
1052.8205760337173
 20
97.82258029748604
 10
1053.4423854424863
 20
97.00781474914328
 10
1054.076915921174
 20
96.2029166740952
 10
1054.7240109088798
 20
95.40808466889797
 10
1055.383510744598
 20
94.62351484645549
 10
1056.0552527066125
 20
93.84940078763171
 10
1056.7390710526458
 20
93.08593349348725
 10
1057.434797060753
 20
92.33330133815306
 10
1058.142259070952
 20
91.59169002235146
 10
1058.8612825275777
 20
90.86128252757777
 10
1059.5916900223515
 20
90.1422590709519
 10
1060.333301338153
 20
89.43479706075289
 10
1061.0859334934873
 20
88.7390710526457
 10
1061.8494007876318
 20
88.0552527066125
 10
1062.6235148464555
 20
87.38351074459797
 10
1063.408084668898
 20
86.72401090887973
 10
1064.2029166740951
 20
86.07691592117399
 10
1065.0078147491433
 20
85.4423854424862
 10
1065.822580297486
 20
84.82057603371734
 10
1066.6470122879161
 20
84.21164111703466
 10
1067.480907304176
 20
83.61573093801722
 10
1068.3240595951486
 20
83.03299252858483
 10
1069.176261125622
 20
82.46356967072037
 10
1070.0373016276205
 20
81.90760286099349
 10
1070.9069686522844
 20
81.36522927589547
 10
1071.7850476222884
 20
80.83658273799267
 10
1072.6713218847854
 20
80.32179368290802
 10
1073.5655727648632
 20
79.82098912713788
 10
1074.4675796194977
 20
79.33429263671275
 10
1075.3771198919947
 20
78.86182429670899
 10
1076.2939691669014
 20
78.40370068161982
 10
1077.2179012253791
 20
77.96003482659222
 10
1078.1486881010167
 20
77.5309361995372
 10
1079.0861001360806
 20
77.11651067412022
 10
1080.0299060381778
 20
76.71686050363854
 10
1080.979872937325
 20
76.33208429579157
 10
1081.9357664434035
 20
75.96227698835115
 10
1082.8973507039948
 20
75.60752982573678
 10
1083.8643884625708
 20
75.26793033650267
 10
1084.8366411170348
 20
74.94356231174122
 10
1085.8138687785922
 20
74.63450578440896
 10
1086.7958303309404
 20
74.34083700957947
 10
1087.7822834897595
 20
74.06262844562866
 10
1088.772984862493
 20
73.79994873635682
 10
1089.7676900084023
 20
73.5528626940516
 10
1090.7661534988756
 20
73.32143128349674
 10
1091.7681289779875
 20
73.10571160692979
 10
1092.7733692232814
 20
72.90575688995307
 10
1093.7816262067686
 20
72.721616468401
 10
1094.792651156125
 20
72.55333577616726
 10
1095.8061946160728
 20
72.40095633399461
 10
1096.8220065099292
 20
72.26451573923032
 10
1097.8398362013093
 20
72.14404765654952
 10
1098.859432555967
 20
72.03958180964904
 10
1099.8805440037581
 20
71.9511439739134
 10
1100.9029186007124
 20
71.87875597005528
 10
1101.9263040911958
 20
71.82243565873145
 10
1102.9504479701523
 20
71.78219693613602
 10
1103.9750975454037
 20
71.75804973057164
 10
1105.0
 20
71.75
 10
1106.0249024545963
 20
71.75804973057164
 10
1107.049552029848
 20
71.78219693613602
 10
1108.0736959088042
 20
71.82243565873146
 10
1109.0970813992876
 20
71.87875597005528
 10
1110.1194559962419
 20
71.9511439739134
 10
1111.140567444033
 20
72.03958180964904
 10
1112.1601637986907
 20
72.14404765654953
 10
1113.1779934900708
 20
72.26451573923032
 10
1114.1938053839272
 20
72.40095633399461
 10
1115.207348843875
 20
72.55333577616727
 10
1116.2183737932314
 20
72.721616468401
 10
1117.2266307767186
 20
72.90575688995307
 10
1118.2318710220125
 20
73.10571160692979
 10
1119.2338465011244
 20
73.32143128349674
 10
1120.232309991598
 20
73.55286269405161
 10
1121.227015137507
 20
73.79994873635684
 10
1122.2177165102405
 20
74.06262844562868
 10
1123.2041696690596
 20
74.34083700957947
 10
1124.1861312214078
 20
74.63450578440896
 10
1125.1633588829654
 20
74.94356231174123
 10
1126.1356115374292
 20
75.26793033650267
 10
1127.1026492960052
 20
75.6075298257368
 10
1128.0642335565965
 20
75.96227698835116
 10
1129.0201270626753
 20
76.33208429579162
 10
1129.9700939618222
 20
76.71686050363854
 10
1130.9138998639194
 20
77.11651067412024
 10
1131.8513118989833
 20
77.5309361995372
 10
1132.782098774621
 20
77.96003482659223
 10
1133.7060308330986
 20
78.40370068161984
 10
1134.6228801080056
 20
78.86182429670902
 10
1135.5324203805023
 20
79.33429263671276
 10
1136.434427235137
 20
79.82098912713792
 10
1137.3286781152146
 20
80.32179368290804
 10
1138.2149523777116
 20
80.83658273799267
 10
1139.0930313477156
 20
81.3652292758955
 10
1139.9626983723795
 20
81.9076028609935
 10
1140.823738874378
 20
82.46356967072037
 10
1141.6759404048516
 20
83.03299252858484
 10
1142.519092695824
 20
83.61573093801724
 10
1143.3529877120839
 20
84.21164111703467
 10
1144.1774197025138
 20
84.82057603371734
 10
1144.9921852508567
 20
85.4423854424862
 10
1145.7970833259049
 20
86.07691592117399
 10
1146.591915331102
 20
86.72401090887975
 10
1147.3764851535445
 20
87.383510744598
 10
1148.1505992123682
 20
88.05525270661252
 10
1148.9140665065127
 20
88.73907105264573
 10
1149.666698661847
 20
89.43479706075291
 10
1150.4083099776485
 20
90.14225907095195
 10
1151.1387174724223
 20
90.86128252757777
 10
1151.857740929048
 20
91.59169002235151
 10
1152.5652029392472
 20
92.33330133815306
 10
1153.2609289473544
 20
93.08593349348732
 10
1153.9447472933875
 20
93.84940078763171
 10
1154.616489255402
 20
94.62351484645554
 10
1155.2759890911202
 20
95.408084668898
 10
1155.923084078826
 20
96.20291667409526
 10
1156.5576145575137
 20
97.00781474914328
 10
1157.1794239662827
 20
97.82258029748607
 10
1157.7883588829654
 20
98.64701228791614
 10
1158.3842690619826
 20
99.48090730417607
 10
1158.9670074714152
 20
100.32405959514847
 10
1159.5364303292797
 20
101.17626112562189
 10
1160.0923971390066
 20
102.03730162762048
 10
1160.6347707241046
 20
102.90696865228432
 10
1161.1634172620074
 20
103.78504762228829
 10
1161.678206317092
 20
104.67132188478541
 10
1162.1790108728621
 20
105.5655727648631
 10
1162.6657073632873
 20
106.4675796194976
 10
1163.138175703291
 20
107.3771198919946
 10
1163.5962993183803
 20
108.29396916690155
 10
1164.0399651734078
 20
109.21790122537902
 10
1164.469063800463
 20
110.14868810101666
 10
1164.8834893258797
 20
111.08610013608057
 10
1165.2831394963614
 20
112.0299060381779
 10
1165.6679157042083
 20
112.97987293732479
 10
1166.0377230116487
 20
113.93576644340348
 10
1166.3924701742633
 20
114.89735070399476
 10
1166.7320696634974
 20
115.86438846257076
 10
1167.0564376882587
 20
116.8366411170347
 10
1167.365494215591
 20
117.81386877859217
 10
1167.6591629904206
 20
118.79583033094033
 10
1167.9373715543713
 20
119.78228348975944
 10
1168.2000512636432
 20
120.77298486249322
 10
1168.4471373059484
 20
121.76769000840218
 10
1168.6785687165034
 20
122.76615349887558
 10
1168.8942883930702
 20
123.76812897798757
 10
1169.094243110047
 20
124.77336922328146
 10
1169.278383531599
 20
125.78162620676855
 10
1169.4466642238326
 20
126.79265115612492
 10
1169.5990436660054
 20
127.80619461607276
 10
1169.7354842607697
 20
128.82200650992914
 10
1169.8559523434506
 20
129.8398362013093
 10
1169.960418190351
 20
130.85943255596695
 10
1170.0488560260865
 20
131.88054400375813
 10
1170.1212440299446
 20
132.9029186007123
 10
1170.1775643412686
 20
133.92630409119585
 10
1170.217803063864
 20
134.95044797015214
 10
1170.2419502694283
 20
135.9750975454037
 10
1170.25
 20
137.0
  0
LWPOLYLINE
  5
53
330
17
100
AcDbEntity
  8
POCKET_5MM
100
AcDbPolyline
 90
401
 70
1
 10
1410.25
 20
137.00000000000003
 10
1410.2419502694283
 20
138.02490245459632
 10
1410.217803063864
 20
139.04955202984794
 10
1410.1775643412684
 20
140.07369590880418
 10
1410.1212440299446
 20
141.09708139928776
 10
1410.0488560260865
 20
142.11945599624192
 10
1409.960418190351
 20
143.1405674440331
 10
1409.8559523434506
 20
144.16016379869075
 10
1409.7354842607697
 20
145.1779934900709
 10
1409.5990436660054
 20
146.19380538392736
 10
1409.4466642238326
 20
147.20734884387514
 10
1409.278383531599
 20
148.21837379323148
 10
1409.094243110047
 20
149.2266307767186
 10
1408.8942883930702
 20
150.23187102201248
 10
1408.6785687165034
 20
151.23384650112445
 10
1408.4471373059484
 20
152.23230999159787
 10
1408.2000512636432
 20
153.2270151375068
 10
1407.9373715543713
 20
154.21771651024062
 10
1407.6591629904206
 20
155.20416966905978
 10
1407.365494215591
 20
156.18613122140786
 10
1407.0564376882587
 20
157.16335888296538
 10
1406.7320696634974
 20
158.13561153742927
 10
1406.392470174263
 20
159.10264929600532
 10
1406.0377230116487
 20
160.06423355659658
 10
1405.6679157042083
 20
161.02012706267527
 10
1405.2831394963614
 20
161.97009396182216
 10
1404.8834893258797
 20
162.91389986391948
 10
1404.4690638004627
 20
163.85131189898337
 10
1404.0399651734078
 20
164.78209877462106
 10
1403.5962993183803
 20
165.70603083309848
 10
1403.138175703291
 20
166.6228801080055
 10
1402.6657073632873
 20
167.53242038050246
 10
1402.1790108728621
 20
168.43442723513692
 10
1401.678206317092
 20
169.32867811521464
 10
1401.1634172620072
 20
170.21495237771177
 10
1400.6347707241046
 20
171.0930313477157
 10
1400.0923971390066
 20
171.96269837237958
 10
1399.5364303292795
 20
172.82373887437814
 10
1398.9670074714152
 20
173.67594040485153
 10
1398.3842690619826
 20
174.51909269582399
 10
1397.7883588829654
 20
175.3529877120839
 10
1397.1794239662827
 20
176.177419702514
 10
1396.5576145575137
 20
176.99218525085672
 10
1395.923084078826
 20
177.7970833259048
 10
1395.2759890911202
 20
178.59191533110203
 10
1394.616489255402
 20
179.37648515354454
 10
1393.9447472933875
 20
180.15059921236832
 10
1393.2609289473542
 20
180.91406650651277
 10
1392.565202939247
 20
181.66669866184697
 10
1391.857740929048
 20
182.40830997764857
 10
1391.1387174724223
 20
183.13871747242223
 10
1390.4083099776485
 20
183.8577409290481
 10
1389.666698661847
 20
184.56520293924714
 10
1388.9140665065127
 20
185.26092894735433
 10
1388.1505992123682
 20
185.9447472933875
 10
1387.3764851535445
 20
186.616489255402
 10
1386.591915331102
 20
187.27598909112027
 10
1385.7970833259046
 20
187.92308407882607
 10
1384.9921852508567
 20
188.55761455751383
 10
1384.1774197025138
 20
189.17942396628268
 10
1383.3529877120839
 20
189.78835888296535
 10
1382.519092695824
 20
190.3842690619828
 10
1381.6759404048514
 20
190.9670074714152
 10
1380.823738874378
 20
191.53643032927963
 10
1379.9626983723795
 20
192.09239713900652
 10
1379.0930313477156
 20
192.63477072410453
 10
1378.2149523777116
 20
193.16341726200733
 10
1377.3286781152146
 20
193.678206317092
 10
1376.4344272351368
 20
194.17901087286214
 10
1375.5324203805023
 20
194.66570736328725
 10
1374.6228801080053
 20
195.13817570329104
 10
1373.7060308330983
 20
195.59629931838018
 10
1372.7820987746209
 20
196.03996517340778
 10
1371.8513118989833
 20
196.46906380046283
 10
1370.9138998639194
 20
196.8834893258798
 10
1369.970093961822
 20
197.28313949636146
 10
1369.0201270626753
 20
197.66791570420838
 10
1368.0642335565965
 20
198.03772301164884
 10
1367.1026492960052
 20
198.39247017426322
 10
1366.1356115374292
 20
198.73206966349733
 10
1365.1633588829654
 20
199.05643768825877
 10
1364.1861312214078
 20
199.36549421559107
 10
1363.2041696690596
 20
199.65916299042055
 10
1362.2177165102405
 20
199.93737155437134
 10
1361.227015137507
 20
200.20005126364316
 10
1360.2323099915977
 20
200.44713730594842
 10
1359.2338465011244
 20
200.67856871650326
 10
1358.2318710220125
 20
200.8942883930702
 10
1357.2266307767186
 20
201.09424311004693
 10
1356.2183737932314
 20
201.278383531599
 10
1355.207348843875
 20
201.44666422383273
 10
1354.1938053839272
 20
201.5990436660054
 10
1353.1779934900708
 20
201.73548426076968
 10
1352.1601637986905
 20
201.8559523434505
 10
1351.140567444033
 20
201.960418190351
 10
1350.1194559962419
 20
202.0488560260866
 10
1349.0970813992876
 20
202.1212440299447
 10
1348.0736959088042
 20
202.17756434126852
 10
1347.0495520298477
 20
202.21780306386398
 10
1346.0249024545963
 20
202.24195026942834
 10
1345.0
 20
202.25
 10
1343.9750975454037
 20
202.24195026942834
 10
1342.950447970152
 20
202.21780306386398
 10
1341.9263040911958
 20
202.17756434126852
 10
1340.9029186007124
 20
202.1212440299447
 10
1339.8805440037581
 20
202.04885602608658
 10
1338.8594325559668
 20
201.96041819035096
 10
1337.8398362013093
 20
201.85595234345047
 10
1336.822006509929
 20
201.73548426076968
 10
1335.8061946160728
 20
201.5990436660054
 10
1334.792651156125
 20
201.44666422383273
 10
1333.7816262067686
 20
201.278383531599
 10
1332.7733692232814
 20
201.09424311004693
 10
1331.7681289779875
 20
200.8942883930702
 10
1330.7661534988756
 20
200.67856871650326
 10
1329.767690008402
 20
200.4471373059484
 10
1328.772984862493
 20
200.20005126364316
 10
1327.7822834897593
 20
199.9373715543713
 10
1326.7958303309404
 20
199.65916299042055
 10
1325.8138687785922
 20
199.365494215591
 10
1324.8366411170346
 20
199.05643768825874
 10
1323.8643884625708
 20
198.73206966349733
 10
1322.8973507039948
 20
198.39247017426322
 10
1321.9357664434033
 20
198.03772301164884
 10
1320.9798729373247
 20
197.66791570420838
 10
1320.0299060381778
 20
197.28313949636146
 10
1319.0861001360806
 20
196.8834893258798
 10
1318.1486881010167
 20
196.46906380046278
 10
1317.217901225379
 20
196.03996517340775
 10
1316.2939691669017
 20
195.59629931838015
 10
1315.3771198919944
 20
195.13817570329098
 10
1314.4675796194977
 20
194.66570736328725
 10
1313.565572764863
 20
194.17901087286208
 10
1312.6713218847854
 20
193.67820631709196
 10
1311.7850476222884
 20
193.16341726200733
 10
1310.9069686522844
 20
192.6347707241045
 10
1310.0373016276203
 20
192.09239713900644
 10
1309.1762611256217
 20
191.53643032927963
 10
1308.3240595951484
 20
190.96700747141514
 10
1307.480907304176
 20
190.38426906198276
 10
1306.6470122879161
 20
189.78835888296527
 10
1305.822580297486
 20
189.17942396628263
 10
1305.0078147491433
 20
188.5576145575138
 10
1304.2029166740954
 20
187.92308407882604
 10
1303.408084668898
 20
187.27598909112027
 10
1302.6235148464555
 20
186.616489255402
 10
1301.8494007876316
 20
185.94474729338745
 10
1301.0859334934873
 20
185.2609289473543
 10
1300.333301338153
 20
184.56520293924706
 10
1299.5916900223515
 20
183.85774092904805
 10
1298.8612825275777
 20
183.13871747242223
 10
1298.142259070952
 20
182.4083099776485
 10
1297.4347970607528
 20
181.6666986618469
 10
1296.7390710526456
 20
180.91406650651268
 10
1296.0552527066125
 20
180.15059921236826
 10
1295.383510744598
 20
179.37648515354448
 10
1294.7240109088798
 20
178.59191533110197
 10
1294.076915921174
 20
177.79708332590474
 10
1293.4423854424863
 20
176.99218525085666
 10
1292.8205760337173
 20
176.17741970251393
 10
1292.2116411170346
 20
175.35298771208386
 10
1291.6157309380171
 20
174.51909269582387
 10
1291.0329925285848
 20
173.6759404048515
 10
1290.4635696707203
 20
172.82373887437808
 10
1289.9076028609934
 20
171.96269837237952
 10
1289.3652292758954
 20
171.09303134771562
 10
1288.8365827379926
 20
170.2149523777117
 10
1288.321793682908
 20
169.32867811521456
 10
1287.8209891271379
 20
168.43442723513692
 10
1287.3342926367127
 20
167.5324203805024
 10
1286.861824296709
 20
166.6228801080054
 10
1286.4037006816197
 20
165.70603083309842
 10
1285.9600348265922
 20
164.78209877462098
 10
1285.530936199537
 20
163.85131189898334
 10
1285.1165106741203
 20
162.9138998639194
 10
1284.7168605036386
 20
161.97009396182207
 10
1284.3320842957917
 20
161.02012706267524
 10
1283.9622769883513
 20
160.0642335565965
 10
1283.6075298257367
 20
159.1026492960052
 10
1283.2679303365026
 20
158.1356115374292
 10
1282.9435623117413
 20
157.16335888296533
 10
1282.634505784409
 20
156.18613122140783
 10
1282.3408370095794
 20
155.20416966905967
 10
1282.0626284456287
 20
154.21771651024056
 10
1281.7999487363568
 20
153.22701513750675
 10
1281.5528626940516
 20
152.23230999159782
 10
1281.3214312834966
 20
151.23384650112433
 10
1281.1057116069298
 20
150.23187102201243
 10
1280.905756889953
 20
149.2266307767185
 10
1280.721616468401
 20
148.21837379323145
 10
1280.5533357761674
 20
147.207348843875
 10
1280.4009563339946
 20
146.19380538392724
 10
1280.2645157392303
 20
145.17799349007083
 10
1280.1440476565494
 20
144.16016379869072
 10
1280.039581809649
 20
143.14056744403305
 10
1279.9511439739135
 20
142.11945599624184
 10
1279.8787559700554
 20
141.09708139928767
 10
1279.8224356587316
 20
140.07369590880418
 10
1279.782196936136
 20
139.04955202984786
 10
1279.7580497305717
 20
138.02490245459626
 10
1279.75
 20
137.0
 10
1279.7580497305717
 20
135.97509754540363
 10
1279.782196936136
 20
134.9504479701521
 10
1279.8224356587316
 20
133.92630409119576
 10
1279.8787559700554
 20
132.9029186007123
 10
1279.9511439739135
 20
131.8805440037581
 10
1280.039581809649
 20
130.85943255596692
 10
1280.1440476565494
 20
129.8398362013093
 10
1280.2645157392303
 20
128.82200650992914
 10
1280.4009563339946
 20
127.80619461607273
 10
1280.5533357761674
 20
126.79265115612489
 10
1280.721616468401
 20
125.7816262067685
 10
1280.905756889953
 20
124.77336922328143
 10
1281.1057116069298
 20
123.76812897798754
 10
1281.3214312834966
 20
122.76615349887555
 10
1281.5528626940516
 20
121.76769000840213
 10
1281.7999487363568
 20
120.77298486249319
 10
1282.0626284456287
 20
119.78228348975938
 10
1282.3408370095794
 20
118.79583033094025
 10
1282.634505784409
 20
117.81386877859217
 10
1282.9435623117413
 20
116.83664111703465
 10
1283.2679303365026
 20
115.86438846257076
 10
1283.607529825737
 20
114.89735070399468
 10
1283.9622769883513
 20
113.93576644340345
 10
1284.3320842957917
 20
112.97987293732473
 10
1284.7168605036386
 20
112.0299060381779
 10
1285.1165106741203
 20
111.08610013608052
 10
1285.5309361995373
 20
110.14868810101663
 10
1285.9600348265922
 20
109.21790122537897
 10
1286.4037006816197
 20
108.29396916690152
 10
1286.861824296709
 20
107.37711989199451
 10
1287.3342926367127
 20
106.46757961949757
 10
1287.8209891271379
 20
105.56557276486305
 10
1288.321793682908
 20
104.67132188478539
 10
1288.8365827379926
 20
103.78504762228826
 10
1289.3652292758954
 20
102.90696865228432
 10
1289.9076028609934
 20
102.03730162762048
 10
1290.4635696707205
 20
101.17626112562189
 10
1291.0329925285848
 20
100.32405959514847
 10
1291.6157309380174
 20
99.48090730417604
 10
1292.2116411170346
 20
98.64701228791611
 10
1292.8205760337173
 20
97.82258029748604
 10
1293.4423854424863
 20
97.00781474914328
 10
1294.076915921174
 20
96.2029166740952
 10
1294.7240109088798
 20
95.40808466889797
 10
1295.383510744598
 20
94.62351484645549
 10
1296.0552527066125
 20
93.84940078763171
 10
1296.7390710526456
 20
93.08593349348725
 10
1297.4347970607528
 20
92.33330133815306
 10
1298.142259070952
 20
91.59169002235146
 10
1298.8612825275777
 20
90.86128252757777
 10
1299.5916900223515
 20
90.1422590709519
 10
1300.333301338153
 20
89.43479706075289
 10
1301.0859334934873
 20
88.7390710526457
 10
1301.8494007876318
 20
88.0552527066125
 10
1302.6235148464555
 20
87.38351074459797
 10
1303.408084668898
 20
86.72401090887973
 10
1304.2029166740954
 20
86.07691592117399
 10
1305.0078147491433
 20
85.4423854424862
 10
1305.8225802974862
 20
84.82057603371734
 10
1306.6470122879161
 20
84.21164111703466
 10
1307.480907304176
 20
83.61573093801722
 10
1308.3240595951484
 20
83.03299252858483
 10
1309.1762611256217
 20
82.46356967072037
 10
1310.0373016276205
 20
81.90760286099349
 10
1310.9069686522844
 20
81.36522927589547
 10
1311.7850476222884
 20
80.83658273799267
 10
1312.6713218847854
 20
80.32179368290802
 10
1313.5655727648632
 20
79.82098912713788
 10
1314.4675796194977
 20
79.33429263671275
 10
1315.3771198919947
 20
78.86182429670899
 10
1316.2939691669017
 20
78.40370068161982
 10
1317.2179012253791
 20
77.96003482659222
 10
1318.1486881010167
 20
77.5309361995372
 10
1319.0861001360806
 20
77.11651067412022
 10
1320.0299060381778
 20
76.71686050363854
 10
1320.9798729373247
 20
76.33208429579157
 10
1321.9357664434035
 20
75.96227698835115
 10
1322.8973507039948
 20
75.60752982573678
 10
1323.8643884625708
 20
75.26793033650267
 10
1324.8366411170348
 20
74.94356231174122
 10
1325.8138687785922
 20
74.63450578440896
 10
1326.7958303309404
 20
74.34083700957947
 10
1327.7822834897595
 20
74.06262844562866
 10
1328.772984862493
 20
73.79994873635682
 10
1329.7676900084023
 20
73.5528626940516
 10
1330.7661534988756
 20
73.32143128349674
 10
1331.7681289779875
 20
73.10571160692979
 10
1332.7733692232814
 20
72.90575688995307
 10
1333.7816262067686
 20
72.721616468401
 10
1334.792651156125
 20
72.55333577616726
 10
1335.8061946160728
 20
72.40095633399461
 10
1336.8220065099292
 20
72.26451573923032
 10
1337.8398362013093
 20
72.14404765654952
 10
1338.859432555967
 20
72.03958180964904
 10
1339.8805440037581
 20
71.9511439739134
 10
1340.9029186007124
 20
71.87875597005528
 10
1341.9263040911958
 20
71.82243565873145
 10
1342.9504479701523
 20
71.78219693613602
 10
1343.9750975454037
 20
71.75804973057164
 10
1345.0
 20
71.75
 10
1346.0249024545963
 20
71.75804973057164
 10
1347.0495520298477
 20
71.78219693613602
 10
1348.0736959088042
 20
71.82243565873146
 10
1349.0970813992876
 20
71.87875597005528
 10
1350.1194559962419
 20
71.9511439739134
 10
1351.140567444033
 20
72.03958180964904
 10
1352.1601637986907
 20
72.14404765654953
 10
1353.177993490071
 20
72.26451573923032
 10
1354.1938053839272
 20
72.40095633399461
 10
1355.207348843875
 20
72.55333577616727
 10
1356.2183737932314
 20
72.721616468401
 10
1357.2266307767186
 20
72.90575688995307
 10
1358.2318710220125
 20
73.10571160692979
 10
1359.2338465011244
 20
73.32143128349674
 10
1360.232309991598
 20
73.55286269405161
 10
1361.227015137507
 20
73.79994873635684
 10
1362.2177165102405
 20
74.06262844562868
 10
1363.2041696690599
 20
74.34083700957947
 10
1364.1861312214078
 20
74.63450578440896
 10
1365.1633588829654
 20
74.94356231174123
 10
1366.1356115374292
 20
75.26793033650267
 10
1367.1026492960052
 20
75.6075298257368
 10
1368.0642335565965
 20
75.96227698835116
 10
1369.0201270626753
 20
76.33208429579162
 10
1369.9700939618222
 20
76.71686050363854
 10
1370.9138998639196
 20
77.11651067412024
 10
1371.8513118989833
 20
77.5309361995372
 10
1372.782098774621
 20
77.96003482659223
 10
1373.7060308330983
 20
78.40370068161984
 10
1374.6228801080056
 20
78.86182429670902
 10
1375.5324203805023
 20
79.33429263671276
 10
1376.434427235137
 20
79.82098912713792
 10
1377.3286781152146
 20
80.32179368290804
 10
1378.2149523777116
 20
80.83658273799267
 10
1379.0930313477156
 20
81.3652292758955
 10
1379.9626983723795
 20
81.9076028609935
 10
1380.8237388743783
 20
82.46356967072037
 10
1381.6759404048516
 20
83.03299252858484
 10
1382.519092695824
 20
83.61573093801724
 10
1383.3529877120839
 20
84.21164111703467
 10
1384.1774197025138
 20
84.82057603371734
 10
1384.9921852508567
 20
85.4423854424862
 10
1385.7970833259049
 20
86.07691592117399
 10
1386.591915331102
 20
86.72401090887975
 10
1387.3764851535445
 20
87.383510744598
 10
1388.1505992123684
 20
88.05525270661252
 10
1388.9140665065127
 20
88.73907105264573
 10
1389.666698661847
 20
89.43479706075291
 10
1390.4083099776485
 20
90.14225907095195
 10
1391.1387174724223
 20
90.86128252757777
 10
1391.857740929048
 20
91.59169002235151
 10
1392.5652029392472
 20
92.33330133815306
 10
1393.2609289473544
 20
93.08593349348732
 10
1393.9447472933875
 20
93.84940078763171
 10
1394.616489255402
 20
94.62351484645554
 10
1395.2759890911202
 20
95.408084668898
 10
1395.923084078826
 20
96.20291667409526
 10
1396.5576145575137
 20
97.00781474914328
 10
1397.1794239662827
 20
97.82258029748607
 10
1397.7883588829654
 20
98.64701228791614
 10
1398.3842690619826
 20
99.48090730417607
 10
1398.9670074714152
 20
100.32405959514847
 10
1399.5364303292795
 20
101.17626112562189
 10
1400.0923971390066
 20
102.03730162762048
 10
1400.6347707241046
 20
102.90696865228432
 10
1401.1634172620074
 20
103.78504762228829
 10
1401.678206317092
 20
104.67132188478541
 10
1402.1790108728621
 20
105.5655727648631
 10
1402.6657073632873
 20
106.4675796194976
 10
1403.138175703291
 20
107.3771198919946
 10
1403.5962993183803
 20
108.29396916690155
 10
1404.0399651734078
 20
109.21790122537902
 10
1404.4690638004627
 20
110.14868810101666
 10
1404.8834893258797
 20
111.08610013608057
 10
1405.2831394963614
 20
112.0299060381779
 10
1405.6679157042086
 20
112.97987293732479
 10
1406.0377230116487
 20
113.93576644340348
 10
1406.3924701742633
 20
114.89735070399476
 10
1406.7320696634974
 20
115.86438846257076
 10
1407.0564376882587
 20
116.8366411170347
 10
1407.365494215591
 20
117.81386877859217
 10
1407.6591629904206
 20
118.79583033094033
 10
1407.9373715543713
 20
119.78228348975944
 10
1408.2000512636432
 20
120.77298486249322
 10
1408.4471373059484
 20
121.76769000840218
 10
1408.6785687165034
 20
122.76615349887558
 10
1408.8942883930702
 20
123.76812897798757
 10
1409.094243110047
 20
124.77336922328146
 10
1409.278383531599
 20
125.78162620676855
 10
1409.4466642238326
 20
126.79265115612492
 10
1409.5990436660054
 20
127.80619461607276
 10
1409.7354842607697
 20
128.82200650992914
 10
1409.8559523434506
 20
129.8398362013093
 10
1409.960418190351
 20
130.85943255596695
 10
1410.0488560260865
 20
131.88054400375813
 10
1410.1212440299446
 20
132.9029186007123
 10
1410.1775643412684
 20
133.92630409119585
 10
1410.217803063864
 20
134.95044797015214
 10
1410.2419502694283
 20
135.9750975454037
 10
1410.25
 20
137.0
  0
LWPOLYLINE
  5
54
330
17
100
AcDbEntity
  8
POCKET_11MM
100
AcDbPolyline
 90
401
 70
1
 10
1422.3
 20
467.00000000000006
 10
1422.2756595886317
 20
470.0990537056222
 10
1422.202644360159
 20
473.19734276611473
 10
1422.0809723299967
 20
476.2941027250125
 10
1421.910673518898
 20
479.3885695031337
 10
1421.6917899455461
 20
482.4799795871038
 10
1421.4243756161877
 20
485.56757021774285
 10
1421.1084965113068
 20
488.6505795782632
 10
1420.7442305693464
 20
491.72824698223735
 10
1420.3316676674767
 20
494.79981306128514
 10
1419.8709095994207
 20
497.8645199524376
 10
1419.362070050337
 20
500.9216114851274
 10
1418.8052745687703
 20
503.9703333677637
 10
1418.2006605356744
 20
507.0099333738399
 10
1417.5483771305148
 20
510.0396615275379
 10
1416.8485852944616
 20
513.0587702887701
 10
1416.101457690679
 20
516.066514737626
 10
1415.3071786617236
 20
519.0621527581682
 10
1414.4659441840608
 20
522.04494522154
 10
1413.5779618197107
 20
525.0141561683334
 10
1412.6434506650337
 20
527.9690529901774
 10
1411.6626412966748
 20
530.9089066104949
 10
1410.6357757146686
 20
533.832991664396
 10
1409.5631072827327
 20
536.7405866776475
 10
1408.444900665752
 20
539.6309742446871
 10
1407.2814317644768
 20
542.5034412056324
 10
1406.0729876474495
 20
545.3572788222423
 10
1404.8198664801735
 20
548.1917829527879
 10
1403.5223774515457
 20
551.0062542257889
 10
1402.1808406975695
 20
553.7999982125721
 10
1400.795587222365
 20
556.5723255986127
 10
1399.3669588164992
 20
559.3225523536112
 10
1397.8953079726543
 20
562.0499999002684
 10
1396.380997798655
 20
564.7539952817142
 10
1394.824401927878
 20
567.4338713275484
 10
1393.2259044270625
 20
570.0889668184567
 10
1391.5858997015475
 20
572.718626649356
 10
1389.9047923979597
 20
575.3222019910315
 10
1388.182997304371
 20
577.8990504502254
 10
1386.420939247957
 20
580.4485362281389
 10
1384.6190529901771
 20
582.970030277305
 10
1382.7777831195028
 20
585.4629104567971
 10
1380.8975839417237
 20
587.9265616857323
 10
1378.9789193678525
 20
590.3603760950347
 10
1377.0222627996632
 20
592.7637531774164
 10
1375.028097012886
 20
595.1360999355454
 10
1372.9969140380895
 20
597.4768310283566
 10
1370.9292150392796
 20
599.7853689154783
 10
1368.8255101902446
 20
602.0611439997303
 10
1366.686318548677
 20
604.3035947676638
 10
1364.5121679281058
 20
606.5121679281059
 10
1362.3035947676635
 20
608.6863185486771
 10
1360.0611439997301
 20
610.8255101902445
 10
1357.785368915478
 20
612.9292150392798
 10
1355.4768310283564
 20
614.9969140380898
 10
1353.1360999355452
 20
617.0280970128862
 10
1350.7637531774164
 20
619.0222627996633
 10
1348.3603760950346
 20
620.9789193678527
 10
1345.9265616857322
 20
622.8975839417237
 10
1343.4629104567969
 20
624.777783119503
 10
1340.9700302773049
 20
626.6190529901771
 10
1338.448536228139
 20
628.4209392479571
 10
1335.8990504502253
 20
630.1829973043712
 10
1333.3222019910313
 20
631.9047923979598
 10
1330.718626649356
 20
633.5858997015475
 10
1328.0889668184568
 20
635.2259044270623
 10
1325.433871327548
 20
636.8244019278782
 10
1322.753995281714
 20
638.3809977986552
 10
1320.0499999002684
 20
639.8953079726543
 10
1317.3225523536112
 20
641.3669588164993
 10
1314.5723255986127
 20
642.795587222365
 10
1311.799998212572
 20
644.1808406975695
 10
1309.0062542257888
 20
645.5223774515457
 10
1306.191782952788
 20
646.8198664801733
 10
1303.357278822242
 20
648.0729876474495
 10
1300.5034412056323
 20
649.2814317644768
 10
1297.630974244687
 20
650.444900665752
 10
1294.7405866776473
 20
651.5631072827329
 10
1291.8329916643959
 20
652.6357757146687
 10
1288.9089066104948
 20
653.6626412966747
 10
1285.969052990177
 20
654.6434506650338
 10
1283.0141561683336
 20
655.5779618197105
 10
1280.0449452215398
 20
656.465944184061
 10
1277.0621527581682
 20
657.3071786617236
 10
1274.0665147376258
 20
658.1014576906789
 10
1271.0587702887701
 20
658.8485852944616
 10
1268.0396615275379
 20
659.5483771305148
 10
1265.0099333738399
 20
660.2006605356744
 10
1261.9703333677635
 20
660.8052745687703
 10
1258.9216114851274
 20
661.3620700503369
 10
1255.8645199524376
 20
661.8709095994207
 10
1252.799813061285
 20
662.3316676674768
 10
1249.7282469822371
 20
662.7442305693464
 10
1246.6505795782632
 20
663.108496511307
 10
1243.567570217743
 20
663.4243756161877
 10
1240.4799795871036
 20
663.6917899455461
 10
1237.3885695031333
 20
663.910673518898
 10
1234.2941027250126
 20
664.0809723299967
 10
1231.1973427661146
 20
664.2026443601588
 10
1228.0990537056223
 20
664.2756595886317
 10
1225.0
 20
664.3
 10
1221.9009462943777
 20
664.2756595886317
 10
1218.8026572338854
 20
664.2026443601588
 10
1215.7058972749874
 20
664.0809723299967
 10
1212.6114304968664
 20
663.910673518898
 10
1209.5200204128962
 20
663.6917899455461
 10
1206.432429782257
 20
663.4243756161877
 10
1203.3494204217368
 20
663.108496511307
 10
1200.2717530177626
 20
662.7442305693464
 10
1197.200186938715
 20
662.3316676674768
 10
1194.1354800475624
 20
661.8709095994207
 10
1191.0783885148724
 20
661.3620700503369
 10
1188.0296666322363
 20
660.8052745687703
 10
1184.9900666261601
 20
660.2006605356744
 10
1181.960338472462
 20
659.5483771305148
 10
1178.9412297112297
 20
658.8485852944616
 10
1175.933485262374
 20
658.1014576906789
 10
1172.9378472418318
 20
657.3071786617236
 10
1169.95505477846
 20
656.4659441840608
 10
1166.9858438316664
 20
655.5779618197105
 10
1164.0309470098227
 20
654.6434506650338
 10
1161.0910933895052
 20
653.6626412966747
 10
1158.167008335604
 20
652.6357757146686
 10
1155.2594133223524
 20
651.5631072827327
 10
1152.369025755313
 20
650.4449006657519
 10
1149.4965587943677
 20
649.2814317644768
 10
1146.6427211777577
 20
648.0729876474495
 10
1143.8082170472119
 20
646.8198664801733
 10
1140.9937457742112
 20
645.5223774515456
 10
1138.200001787428
 20
644.1808406975695
 10
1135.4276744013873
 20
642.7955872223649
 10
1132.6774476463888
 20
641.3669588164992
 10
1129.9500000997314
 20
639.8953079726542
 10
1127.2460047182858
 20
638.380997798655
 10
1124.5661286724517
 20
636.8244019278781
 10
1121.9110331815432
 20
635.2259044270623
 10
1119.281373350644
 20
633.5858997015475
 10
1116.6777980089685
 20
631.9047923979597
 10
1114.1009495497747
 20
630.182997304371
 10
1111.551463771861
 20
628.4209392479571
 10
1109.029969722695
 20
626.619052990177
 10
1106.537089543203
 20
624.7777831195028
 10
1104.0734383142676
 20
622.8975839417237
 10
1101.6396239049654
 20
620.9789193678525
 10
1099.2362468225833
 20
619.0222627996632
 10
1096.8639000644546
 20
617.0280970128861
 10
1094.5231689716434
 20
614.9969140380896
 10
1092.214631084522
 20
612.9292150392798
 10
1089.9388560002697
 20
610.8255101902445
 10
1087.6964052323362
 20
608.686318548677
 10
1085.4878320718942
 20
606.5121679281058
 10
1083.313681451323
 20
604.3035947676638
 10
1081.1744898097554
 20
602.0611439997303
 10
1079.0707849607202
 20
599.7853689154781
 10
1077.0030859619103
 20
597.4768310283565
 10
1074.971902987114
 20
595.1360999355453
 10
1072.9777372003368
 20
592.7637531774164
 10
1071.0210806321475
 20
590.3603760950346
 10
1069.1024160582763
 20
587.9265616857323
 10
1067.222216880497
 20
585.462910456797
 10
1065.3809470098229
 20
582.9700302773049
 10
1063.5790607520428
 20
580.4485362281387
 10
1061.8170026956288
 20
577.8990504502253
 10
1060.0952076020403
 20
575.3222019910314
 10
1058.4141002984525
 20
572.718626649356
 10
1056.7740955729375
 20
570.0889668184566
 10
1055.1755980721218
 20
567.4338713275482
 10
1053.6190022013448
 20
564.753995281714
 10
1052.1046920273457
 20
562.0499999002684
 10
1050.6330411835008
 20
559.3225523536112
 10
1049.204412777635
 20
556.5723255986126
 10
1047.8191593024305
 20
553.7999982125721
 10
1046.4776225484543
 20
551.0062542257889
 10
1045.1801335198265
 20
548.191782952788
 10
1043.9270123525505
 20
545.3572788222422
 10
1042.718568235523
 20
542.5034412056322
 10
1041.555099334248
 20
539.6309742446871
 10
1040.4368927172673
 20
536.7405866776475
 10
1039.3642242853314
 20
533.8329916643959
 10
1038.3373587033252
 20
530.9089066104948
 10
1037.356549334966
 20
527.9690529901771
 10
1036.4220381802895
 20
525.0141561683336
 10
1035.5340558159392
 20
522.0449452215398
 10
1034.6928213382764
 20
519.062152758168
 10
1033.898542309321
 20
516.0665147376259
 10
1033.1514147055384
 20
513.0587702887701
 10
1032.4516228694852
 20
510.03966152753776
 10
1031.7993394643256
 20
507.0099333738399
 10
1031.1947254312297
 20
503.9703333677635
 10
1030.637929949663
 20
500.9216114851274
 10
1030.1290904005793
 20
497.8645199524375
 10
1029.6683323325233
 20
494.799813061285
 10
1029.2557694306536
 20
491.72824698223724
 10
1028.891503488693
 20
488.6505795782633
 10
1028.5756243838123
 20
485.56757021774285
 10
1028.3082100544539
 20
482.4799795871037
 10
1028.089326481102
 20
479.38856950313357
 10
1027.9190276700033
 20
476.2941027250125
 10
1027.797355639841
 20
473.1973427661147
 10
1027.7243404113683
 20
470.0990537056221
 10
1027.7
 20
467.0
 10
1027.7243404113683
 20
463.90094629437766
 10
1027.797355639841
 20
460.8026572338852
 10
1027.9190276700033
 20
457.70589727498736
 10
1028.089326481102
 20
454.61143049686643
 10
1028.3082100544539
 20
451.52002041289614
 10
1028.5756243838123
 20
448.43242978225703
 10
1028.891503488693
 20
445.3494204217368
 10
1029.2557694306536
 20
442.2717530177627
 10
1029.6683323325233
 20
439.2001869387149
 10
1030.1290904005793
 20
436.13548004756234
 10
1030.6379299496632
 20
433.0783885148725
 10
1031.1947254312297
 20
430.02966663223646
 10
1031.7993394643256
 20
426.99006662616
 10
1032.4516228694852
 20
423.9603384724621
 10
1033.1514147055384
 20
420.9412297112298
 10
1033.898542309321
 20
417.93348526237406
 10
1034.6928213382764
 20
414.93784724183183
 10
1035.5340558159392
 20
411.95505477846
 10
1036.4220381802895
 20
408.9858438316664
 10
1037.3565493349663
 20
406.03094700982274
 10
1038.3373587033252
 20
403.0910933895051
 10
1039.3642242853314
 20
400.16700833560395
 10
1040.4368927172673
 20
397.2594133223525
 10
1041.555099334248
 20
394.3690257553129
 10
1042.7185682355232
 20
391.49655879436773
 10
1043.9270123525505
 20
388.6427211777577
 10
1045.1801335198268
 20
385.808217047212
 10
1046.4776225484543
 20
382.993745774211
 10
1047.8191593024305
 20
380.20000178742794
 10
1049.204412777635
 20
377.4276744013873
 10
1050.6330411835008
 20
374.67744764638877
 10
1052.1046920273457
 20
371.9500000997316
 10
1053.619002201345
 20
369.2460047182859
 10
1055.1755980721218
 20
366.5661286724517
 10
1056.7740955729375
 20
363.9110331815433
 10
1058.4141002984525
 20
361.28137335064395
 10
1060.0952076020403
 20
358.6777980089686
 10
1061.8170026956288
 20
356.10094954977467
 10
1063.579060752043
 20
353.5514637718611
 10
1065.3809470098229
 20
351.029969722695
 10
1067.2222168804972
 20
348.537089543203
 10
1069.1024160582763
 20
346.0734383142677
 10
1071.0210806321475
 20
343.63962390496533
 10
1072.9777372003368
 20
341.2362468225835
 10
1074.971902987114
 20
338.8639000644547
 10
1077.0030859619103
 20
336.5231689716435
 10
1079.0707849607204
 20
334.21463108452167
 10
1081.1744898097554
 20
331.93885600026965
 10
1083.313681451323
 20
329.6964052323363
 10
1085.4878320718942
 20
327.48783207189416
 10
1087.6964052323365
 20
325.31368145132274
 10
1089.9388560002699
 20
323.1744898097554
 10
1092.2146310845217
 20
321.0707849607203
 10
1094.5231689716436
 20
319.0030859619103
 10
1096.8639000644548
 20
316.9719029871138
 10
1099.2362468225836
 20
314.9777372003367
 10
1101.6396239049654
 20
313.0210806321476
 10
1104.0734383142678
 20
311.1024160582763
 10
1106.5370895432031
 20
309.222216880497
 10
1109.0299697226951
 20
307.3809470098229
 10
1111.551463771861
 20
305.5790607520429
 10
1114.1009495497747
 20
303.8170026956289
 10
1116.6777980089687
 20
302.0952076020402
 10
1119.2813733506441
 20
300.41410029845235
 10
1121.9110331815432
 20
298.77409557293754
 10
1124.566128672452
 20
297.17559807212183
 10
1127.246004718286
 20
295.6190022013448
 10
1129.9500000997316
 20
294.10469202734566
 10
1132.6774476463888
 20
292.6330411835008
 10
1135.4276744013875
 20
291.20441277763496
 10
1138.200001787428
 20
289.81915930243053
 10
1140.9937457742112
 20
288.4776225484543
 10
1143.808217047212
 20
287.18013351982665
 10
1146.642721177758
 20
285.9270123525505
 10
1149.4965587943677
 20
284.7185682355231
 10
1152.369025755313
 20
283.5550993342479
 10
1155.2594133223524
 20
282.43689271726714
 10
1158.1670083356041
 20
281.36422428533126
 10
1161.0910933895052
 20
280.3373587033253
 10
1164.030947009823
 20
279.3565493349662
 10
1166.9858438316664
 20
278.42203818028946
 10
1169.9550547784602
 20
277.53405581593915
 10
1172.937847241832
 20
276.6928213382764
 10
1175.9334852623742
 20
275.8985423093211
 10
1178.9412297112299
 20
275.1514147055384
 10
1181.9603384724621
 20
274.45162286948516
 10
1184.9900666261601
 20
273.7993394643256
 10
1188.0296666322365
 20
273.1947254312297
 10
1191.0783885148726
 20
272.6379299496631
 10
1194.1354800475624
 20
272.12909040057934
 10
1197.200186938715
 20
271.66833233252316
 10
1200.2717530177629
 20
271.2557694306535
 10
1203.3494204217368
 20
270.89150348869305
 10
1206.432429782257
 20
270.5756243838123
 10
1209.5200204128962
 20
270.30821005445387
 10
1212.6114304968664
 20
270.08932648110203
 10
1215.7058972749876
 20
269.9190276700033
 10
1218.8026572338854
 20
269.79735563984116
 10
1221.9009462943777
 20
269.72434041136836
 10
1225.0
 20
269.7
 10
1228.0990537056223
 20
269.72434041136836
 10
1231.1973427661146
 20
269.79735563984116
 10
1234.2941027250126
 20
269.9190276700033
 10
1237.3885695031336
 20
270.08932648110203
 10
1240.479979587104
 20
270.30821005445387
 10
1243.567570217743
 20
270.5756243838123
 10
1246.6505795782632
 20
270.89150348869305
 10
1249.7282469822374
 20
271.2557694306535
 10
1252.799813061285
 20
271.66833233252316
 10
1255.8645199524376
 20
272.12909040057934
 10
1258.9216114851274
 20
272.6379299496631
 10
1261.9703333677635
 20
273.1947254312297
 10
1265.0099333738399
 20
273.7993394643256
 10
1268.0396615275379
 20
274.45162286948516
 10
1271.0587702887701
 20
275.1514147055384
 10
1274.066514737626
 20
275.8985423093211
 10
1277.0621527581682
 20
276.6928213382764
 10
1280.04494522154
 20
277.53405581593915
 10
1283.0141561683336
 20
278.42203818028946
 10
1285.9690529901773
 20
279.3565493349662
 10
1288.9089066104948
 20
280.3373587033253
 10
1291.832991664396
 20
281.3642242853313
 10
1294.7405866776476
 20
282.43689271726714
 10
1297.630974244687
 20
283.555099334248
 10
1300.5034412056323
 20
284.7185682355231
 10
1303.3572788222423
 20
285.9270123525505
 10
1306.191782952788
 20
287.18013351982665
 10
1309.0062542257888
 20
288.4776225484544
 10
1311.799998212572
 20
289.81915930243053
 10
1314.5723255986127
 20
291.20441277763507
 10
1317.3225523536112
 20
292.6330411835008
 10
1320.0499999002686
 20
294.1046920273458
 10
1322.753995281714
 20
295.61900220134487
 10
1325.4338713275483
 20
297.1755980721219
 10
1328.0889668184568
 20
298.77409557293765
 10
1330.7186266493559
 20
300.41410029845235
 10
1333.3222019910313
 20
302.0952076020403
 10
1335.8990504502253
 20
303.81700269562896
 10
1338.448536228139
 20
305.5790607520429
 10
1340.9700302773049
 20
307.3809470098229
 10
1343.462910456797
 20
309.22221688049706
 10
1345.9265616857324
 20
311.1024160582763
 10
1348.3603760950346
 20
313.0210806321476
 10
1350.7637531774164
 20
314.9777372003368
 10
1353.1360999355452
 20
316.97190298711394
 10
1355.4768310283566
 20
319.0030859619103
 10
1357.7853689154783
 20
321.07078496072035
 10
1360.0611439997301
 20
323.1744898097555
 10
1362.3035947676635
 20
325.31368145132285
 10
1364.5121679281058
 20
327.4878320718942
 10
1366.6863185486773
 20
329.6964052323364
 10
1368.8255101902446
 20
331.93885600026977
 10
1370.9292150392798
 20
334.2146310845218
 10
1372.9969140380897
 20
336.5231689716435
 10
1375.028097012886
 20
338.8639000644548
 10
1377.0222627996632
 20
341.23624682258355
 10
1378.9789193678525
 20
343.63962390496545
 10
1380.8975839417237
 20
346.0734383142677
 10
1382.777783119503
 20
348.537089543203
 10
1384.6190529901771
 20
351.0299697226951
 10
1386.420939247957
 20
353.5514637718611
 10
1388.182997304371
 20
356.10094954977467
 10
1389.9047923979597
 20
358.6777980089686
 10
1391.5858997015475
 20
361.281373350644
 10
1393.2259044270625
 20
363.9110331815433
 10
1394.8244019278782
 20
366.5661286724518
 10
1396.3809977986552
 20
369.246004718286
 10
1397.8953079726543
 20
371.9500000997316
 10
1399.3669588164992
 20
374.6774476463888
 10
1400.7955872223652
 20
377.42767440138743
 10
1402.1808406975695
 20
380.20000178742794
 10
1403.5223774515457
 20
382.9937457742112
 10
1404.8198664801735
 20
385.808217047212
 10
1406.0729876474495
 20
388.64272117775783
 10
1407.281431764477
 20
391.4965587943678
 10
1408.444900665752
 20
394.3690257553131
 10
1409.5631072827327
 20
397.25941332235254
 10
1410.6357757146689
 20
400.16700833560407
 10
1411.6626412966748
 20
403.09109338950515
 10
1412.643450665034
 20
406.03094700982297
 10
1413.5779618197105
 20
408.98584383166644
 10
1414.4659441840608
 20
411.9550547784602
 10
1415.3071786617236
 20
414.93784724183195
 10
1416.101457690679
 20
417.9334852623741
 10
1416.8485852944616
 20
420.9412297112299
 10
1417.5483771305148
 20
423.9603384724621
 10
1418.2006605356744
 20
426.9900666261601
 10
1418.8052745687703
 20
430.0296666322365
 10
1419.362070050337
 20
433.07838851487253
 10
1419.8709095994207
 20
436.1354800475624
 10
1420.3316676674767
 20
439.200186938715
 10
1420.7442305693464
 20
442.27175301776276
 10
1421.1084965113068
 20
445.3494204217368
 10
1421.4243756161877
 20
448.4324297822571
 10
1421.6917899455461
 20
451.52002041289626
 10
1421.910673518898
 20
454.61143049686643
 10
1422.0809723299967
 20
457.7058972749876
 10
1422.202644360159
 20
460.80265723388527
 10
1422.2756595886317
 20
463.90094629437783
 10
1422.3
 20
467.0
  0
TEXT
  5
55
330
17
100
AcDbEntity
  8
NOTES
100
AcDbText
 10
993.0
 20
25.0
 30
0.0
 40
12.0
  1
baffle
 11
993.0
 21
25.0
 31
0.0
100
AcDbText
  0
LWPOLYLINE
  5
56
330
17
100
AcDbEntity
  8
CUT_OUTSIDE
100
AcDbPolyline
 90
5
 70
1
 10
15.0
 20
1247.0
 10
15.0
 20
787.0
 10
499.0
 20
787.0
 10
499.0
 20
1247.0
 10
15.0
 20
1247.0
  0
TEXT
  5
57
330
17
100
AcDbEntity
  8
NOTES
100
AcDbText
 10
25.0
 20
797.0
 30
0.0
 40
12.0
  1
bottom
 11
25.0
 21
797.0
 31
0.0
100
AcDbText
  0
LWPOLYLINE
  5
58
330
17
100
AcDbEntity
  8
CUT_OUTSIDE
100
AcDbPolyline
 90
5
 70
1
 10
511.0
 20
1211.0
 10
511.0
 20
787.0
 10
995.0
 20
787.0
 10
995.0
 20
1211.0
 10
511.0
 20
1211.0
  0
LWPOLYLINE
  5
59
330
17
100
AcDbEntity
  8
CUT_INSIDE
100
AcDbPolyline
 90
5
 70
1
 10
563.0
 20
839.0
 10
943.0
 20
839.0
 10
943.0
 20
1159.0
 10
563.0
 20
1159.0
 10
563.0
 20
839.0
  0
TEXT
  5
5A
330
17
100
AcDbEntity
  8
NOTES
100
AcDbText
 10
521.0
 20
797.0
 30
0.0
 40
12.0
  1
brace
 11
521.0
 21
797.0
 31
0.0
100
AcDbText
  0
LWPOLYLINE
  5
5B
330
17
100
AcDbEntity
  8
CUT_OUTSIDE
100
AcDbPolyline
 90
5
 70
1
 10
1007.0
 20
1211.0
 10
1007.0
 20
787.0
 10
1491.0
 20
787.0
 10
1491.0
 20
1211.0
 10
1007.0
 20
1211.0
  0
LWPOLYLINE
  5
5C
330
17
100
AcDbEntity
  8
CUT_INSIDE
100
AcDbPolyline
 90
5
 70
1
 10
1059.0
 20
839.0
 10
1439.0
 20
839.0
 10
1439.0
 20
1159.0
 10
1059.0
 20
1159.0
 10
1059.0
 20
839.0
  0
TEXT
  5
5D
330
17
100
AcDbEntity
  8
NOTES
100
AcDbText
 10
1017.0
 20
797.0
 30
0.0
 40
12.0
  1
brace
 11
1017.0
 21
797.0
 31
0.0
100
AcDbText
  0
ENDSEC
  0
SECTION
  2
OBJECTS
  0
DICTIONARY
  5
A
330
0
100
AcDbDictionary
281
1
  3
ACAD_COLOR
350
B
  3
ACAD_GROUP
350
C
  3
ACAD_LAYOUT
350
D
  3
ACAD_MATERIAL
350
E
  3
ACAD_MLEADERSTYLE
350
F
  3
ACAD_MLINESTYLE
350
10
  3
ACAD_PLOTSETTINGS
350
11
  3
ACAD_PLOTSTYLENAME
350
12
  3
ACAD_SCALELIST
350
14
  3
ACAD_TABLESTYLE
350
15
  3
ACAD_VISUALSTYLE
350
16
  3
EZDXF_META
350
2D
  0
DICTIONARY
  5
B
330
A
100
AcDbDictionary
281
1
  0
DICTIONARY
  5
C
330
A
100
AcDbDictionary
281
1
  0
DICTIONARY
  5
D
330
A
100
AcDbDictionary
281
1
  3
Model
350
1A
  3
Layout1
350
1E
  0
DICTIONARY
  5
E
330
A
100
AcDbDictionary
281
1
  3
ByBlock
350
1F
  3
ByLayer
350
20
  3
Global
350
21
  0
DICTIONARY
  5
F
330
A
100
AcDbDictionary
281
1
  3
Standard
350
2C
  0
DICTIONARY
  5
10
330
A
100
AcDbDictionary
281
1
  3
Standard
350
22
  0
DICTIONARY
  5
11
330
A
100
AcDbDictionary
281
1
  0
ACDBDICTIONARYWDFLT
  5
12
330
A
100
AcDbDictionary
281
1
  3
Normal
350
13
100
AcDbDictionaryWithDefault
340
13
  0
ACDBPLACEHOLDER
  5
13
330
12
  0
DICTIONARY
  5
14
330
A
100
AcDbDictionary
281
1
  0
DICTIONARY
  5
15
330
A
100
AcDbDictionary
281
1
  0
DICTIONARY
  5
16
330
A
100
AcDbDictionary
281
1
  0
LAYOUT
  5
1A
330
D
100
AcDbPlotSettings
  1

  4
A3
  6

 40
7.5
 41
20.0
 42
7.5
 43
20.0
 44
420.0
 45
297.0
 46
0.0
 47
0.0
 48
0.0
 49
0.0
140
0.0
141
0.0
142
1.0
143
1.0
 70
1024
 72
1
 73
0
 74
5
  7

 75
16
 76
0
 77
2
 78
300
147
1.0
148
0.0
149
0.0
100
AcDbLayout
  1
Model
 70
1
 71
0
 10
0.0
 20
0.0
 11
420.0
 21
297.0
 12
0.0
 22
0.0
 32
0.0
 14
1e+20
 24
1e+20
 34
1e+20
 15
-1e+20
 25
-1e+20
 35
-1e+20
146
0.0
 13
0.0
 23
0.0
 33
0.0
 16
1.0
 26
0.0
 36
0.0
 17
0.0
 27
1.0
 37
0.0
 76
1
330
17
  0
LAYOUT
  5
1E
330
D
100
AcDbPlotSettings
  1

  4
A3
  6

 40
7.5
 41
20.0
 42
7.5
 43
20.0
 44
420.0
 45
297.0
 46
0.0
 47
0.0
 48
0.0
 49
0.0
140
0.0
141
0.0
142
1.0
143
1.0
 70
0
 72
1
 73
0
 74
5
  7

 75
16
 76
0
 77
2
 78
300
147
1.0
148
0.0
149
0.0
100
AcDbLayout
  1
Layout1
 70
1
 71
1
 10
0.0
 20
0.0
 11
420.0
 21
297.0
 12
0.0
 22
0.0
 32
0.0
 14
1e+20
 24
1e+20
 34
1e+20
 15
-1e+20
 25
-1e+20
 35
-1e+20
146
0.0
 13
0.0
 23
0.0
 33
0.0
 16
1.0
 26
0.0
 36
0.0
 17
0.0
 27
1.0
 37
0.0
 76
1
330
1B
  0
MATERIAL
  5
1F
102
{ACAD_REACTORS
330
E
102
}
330
E
100
AcDbMaterial
  1
ByBlock
  2

 70
0
 40
1.0
 71
1
 41
1.0
 91
-1023410177
 42
1.0
 72
1
  3

 73
1
 74
1
 75
1
 44
0.5
 73
0
 45
1.0
 46
1.0
 77
1
  4

 78
1
 79
1
170
1
 48
1.0
171
1
  6

172
1
173
1
174
1
140
1.0
141
1.0
175
1
  7

176
1
177
1
178
1
143
1.0
179
1
  8

270
1
271
1
272
1
145
1.0
146
1.0
273
1
  9

274
1
275
1
276
1
 42
1.0
 72
1
  3

 73
1
 74
1
 75
1
 94
63
  0
MATERIAL
  5
20
102
{ACAD_REACTORS
330
E
102
}
330
E
100
AcDbMaterial
  1
ByLayer
  2

 70
0
 40
1.0
 71
1
 41
1.0
 91
-1023410177
 42
1.0
 72
1
  3

 73
1
 74
1
 75
1
 44
0.5
 73
0
 45
1.0
 46
1.0
 77
1
  4

 78
1
 79
1
170
1
 48
1.0
171
1
  6

172
1
173
1
174
1
140
1.0
141
1.0
175
1
  7

176
1
177
1
178
1
143
1.0
179
1
  8

270
1
271
1
272
1
145
1.0
146
1.0
273
1
  9

274
1
275
1
276
1
 42
1.0
 72
1
  3

 73
1
 74
1
 75
1
 94
63
  0
MATERIAL
  5
21
102
{ACAD_REACTORS
330
E
102
}
330
E
100
AcDbMaterial
  1
Global
  2

 70
0
 40
1.0
 71
1
 41
1.0
 91
-1023410177
 42
1.0
 72
1
  3

 73
1
 74
1
 75
1
 44
0.5
 73
0
 45
1.0
 46
1.0
 77
1
  4

 78
1
 79
1
170
1
 48
1.0
171
1
  6

172
1
173
1
174
1
140
1.0
141
1.0
175
1
  7

176
1
177
1
178
1
143
1.0
179
1
  8

270
1
271
1
272
1
145
1.0
146
1.0
273
1
  9

274
1
275
1
276
1
 42
1.0
 72
1
  3

 73
1
 74
1
 75
1
 94
63
  0
MLINESTYLE
  5
22
102
{ACAD_REACTORS
330
10
102
}
330
10
100
AcDbMlineStyle
  2
Standard
 70
0
  3

 62
256
 51
90.0
 52
90.0
 71
2
 49
0.5
 62
256
  6
BYLAYER
 49
-0.5
 62
256
  6
BYLAYER
  0
MLEADERSTYLE
  5
2C
102
{ACAD_REACTORS
330
F
102
}
330
F
100
AcDbMLeaderStyle
179
2
170
2
171
1
172
0
 90
2
 40
0.0
 41
0.0
173
1
 91
-1056964608
 92
-2
290
1
 42
2.0
291
1
 43
8.0
  3
Standard
 44
4.0
300

342
29
174
1
175
1
176
0
178
1
 93
-1056964608
 45
4.0
292
0
297
0
 46
4.0
 94
-1056964608
 47
1.0
 49
1.0
140
1.0
294
1
141
0.0
177
0
142
1.0
295
0
296
0
143
3.75
271
0
272
9
273
9
  0
DICTIONARY
  5
2D
330
A
100
AcDbDictionary
280
1
281
1
  3
CREATED_BY_EZDXF
350
2E
  3
WRITTEN_BY_EZDXF
350
60
  0
DICTIONARYVAR
  5
2E
330
2D
100
DictionaryVariables
280
0
  1
1.4.4 @ 2026-10-10T18:57:11.237813+00:00
  0
DICTIONARYVAR
  5
60
330
2D
100
DictionaryVariables
280
0
  1
1.4.4 @ 2026-10-10T18:57:11.249371+00:00
  0
ENDSEC
  0
EOF
