  0
SECTION
  2
HEADER
  9
$ACADVER
  1
AC1024
  9
$ACADMAINTVER
 70
6
  9
$DWGCODEPAGE
  3
ANSI_1252
  9
$LASTSAVEDBY
  1
ezdxf
  9
$INSBASE
 10
0.0
 20
0.0
 30
0.0
  9
$EXTMIN
 10
1e+20
 20
1e+20
 30
1e+20
  9
$EXTMAX
 10
-1e+20
 20
-1e+20
 30
-1e+20
  9
$LIMMIN
 10
0.0
 20
0.0
  9
$LIMMAX
 10
420.0
 20
297.0
  9
$ORTHOMODE
 70
0
  9
$REGENMODE
 70
1
  9
$FILLMODE
 70
1
  9
$QTEXTMODE
 70
0
  9
$MIRRTEXT
 70
1
  9
$LTSCALE
 40
1.0
  9
$ATTMODE
 70
1
  9
$TEXTSIZE
 40
2.5
  9
$TRACEWID
 40
1.0
  9
$TEXTSTYLE
  7
Standard
  9
$CLAYER
  8
0
  9
$CELTYPE
  6
ByLayer
  9
$CECOLOR
 62
256
  9
$CELTSCALE
 40
1.0
  9
$DISPSILH
 70
0
  9
$DIMSCALE
 40
1.0
  9
$DIMASZ
 40
2.5
  9
$DIMEXO
 40
0.625
  9
$DIMDLI
 40
3.75
  9
$DIMRND
 40
0.0
  9
$DIMDLE
 40
0.0
  9
$DIMEXE
 40
1.25
  9
$DIMTP
 40
0.0
  9
$DIMTM
 40
0.0
  9
$DIMTXT
 40
2.5
  9
$DIMCEN
 40
2.5
  9
$DIMTSZ
 40
0.0
  9
$DIMTOL
 70
0
  9
$DIMLIM
 70
0
  9
$DIMTIH
 70
0
  9
$DIMTOH
 70
0
  9
$DIMSE1
 70
0
  9
$DIMSE2
 70
0
  9
$DIMTAD
 70
1
  9
$DIMZIN
 70
8
  9
$DIMBLK
  1

  9
$DIMASO
 70
1
  9
$DIMSHO
 70
1
  9
$DIMPOST
  1

  9
$DIMAPOST
  1

  9
$DIMALT
 70
0
  9
$DIMALTD
 70
3
  9
$DIMALTF
 40
0.03937007874
  9
$DIMLFAC
 40
1.0
  9
$DIMTOFL
 70
1
  9
$DIMTVP
 40
0.0
  9
$DIMTIX
 70
0
  9
$DIMSOXD
 70
0
  9
$DIMSAH
 70
0
  9
$DIMBLK1
  1

  9
$DIMBLK2
  1

  9
$DIMSTYLE
  2
ISO-25
  9
$DIMCLRD
 70
0
  9
$DIMCLRE
 70
0
  9
$DIMCLRT
 70
0
  9
$DIMTFAC
 40
1.0
  9
$DIMGAP
 40
0.625
  9
$DIMJUST
 70
0
  9
$DIMSD1
 70
0
  9
$DIMSD2
 70
0
  9
$DIMTOLJ
 70
0
  9
$DIMTZIN
 70
8
  9
$DIMALTZ
 70
0
  9
$DIMALTTZ
 70
0
  9
$DIMUPT
 70
0
  9
$DIMDEC
 70
2
  9
$DIMTDEC
 70
2
  9
$DIMALTU
 70
2
  9
$DIMALTTD
 70
3
  9
$DIMTXSTY
  7
Standard
  9
$DIMAUNIT
 70
0
  9
$DIMADEC
 70
0
  9
$DIMALTRND
 40
0.0
  9
$DIMAZIN
 70
0
  9
$DIMDSEP
 70
44
  9
$DIMATFIT
 70
3
  9
$DIMFRAC
 70
0
  9
$DIMLDRBLK
  1

  9
$DIMLUNIT
 70
2
  9
$DIMLWD
 70
-2
  9
$DIMLWE
 70
-2
  9
$DIMTMOVE
 70
0
  9
$DIMFXL
 40
1.0
  9
$DIMFXLON
 70
0
  9
$DIMJOGANG
 40
0.785398163397
  9
$DIMTFILL
 70
0
  9
$DIMTFILLCLR
 70
0
  9
$DIMARCSYM
 70
0
  9
$DIMLTYPE
  6

  9
$DIMLTEX1
  6

  9
$DIMLTEX2
  6

  9
$DIMTXTDIRECTION
 70
0
  9
$LUNITS
 70
2
  9
$LUPREC
 70
4
  9
$SKETCHINC
 40
1.0
  9
$FILLETRAD
 40
10.0
  9
$AUNITS
 70
0
  9
$AUPREC
 70
2
  9
$MENU
  1
.
  9
$ELEVATION
 40
0.0
  9
$PELEVATION
 40
0.0
  9
$THICKNESS
 40
0.0
  9
$LIMCHECK
 70
0
  9
$CHAMFERA
 40
0.0
  9
$CHAMFERB
 40
0.0
  9
$CHAMFERC
 40
0.0
  9
$CHAMFERD
 40
0.0
  9
$SKPOLY
 70
0
  9
$TDCREATE
 40
2461324.7897106484
  9
$TDUCREATE
 40
2458532.153996898
  9
$TDUPDATE
 40
2461324.7897106484
  9
$TDUUPDATE
 40
2458532.1544311
  9
$TDINDWG
 40
0.0
  9
$TDUSRTIMER
 40
0.0
  9
$USRTIMER
 70
1
  9
$ANGBASE
 50
0.0
  9
$ANGDIR
 70
0
  9
$PDMODE
 70
0
  9
$PDSIZE
 40
0.0
  9
$PLINEWID
 40
0.0
  9
$SPLFRAME
 70
0
  9
$SPLINETYPE
 70
6
  9
$SPLINESEGS
 70
8
  9
$HANDSEED
  5
4B
  9
$SURFTAB1
 70
6
  9
$SURFTAB2
 70
6
  9
$SURFTYPE
 70
6
  9
$SURFU
 70
6
  9
$SURFV
 70
6
  9
$UCSBASE
  2

  9
$UCSNAME
  2

  9
$UCSORG
 10
0.0
 20
0.0
 30
0.0
  9
$UCSXDIR
 10
1.0
 20
0.0
 30
0.0
  9
$UCSYDIR
 10
0.0
 20
1.0
 30
0.0
  9
$UCSORTHOREF
  2

  9
$UCSORTHOVIEW
 70
0
  9
$UCSORGTOP
 10
0.0
 20
0.0
 30
0.0
  9
$UCSORGBOTTOM
 10
0.0
 20
0.0
 30
0.0
  9
$UCSORGLEFT
 10
0.0
 20
0.0
 30
0.0
  9
$UCSORGRIGHT
 10
0.0
 20
0.0
 30
0.0
  9
$UCSORGFRONT
 10
0.0
 20
0.0
 30
0.0
  9
$UCSORGBACK
 10
0.0
 20
0.0
 30
0.0
  9
$PUCSBASE
  2

  9
$PUCSNAME
  2

  9
$PUCSORG
 10
0.0
 20
0.0
 30
0.0
  9
$PUCSXDIR
 10
1.0
 20
0.0
 30
0.0
  9
$PUCSYDIR
 10
0.0
 20
1.0
 30
0.0
  9
$PUCSORTHOREF
  2

  9
$PUCSORTHOVIEW
 70
0
  9
$PUCSORGTOP
 10
0.0
 20
0.0
 30
0.0
  9
$PUCSORGBOTTOM
 10
0.0
 20
0.0
 30
0.0
  9
$PUCSORGLEFT
 10
0.0
 20
0.0
 30
0.0
  9
$PUCSORGRIGHT
 10
0.0
 20
0.0
 30
0.0
  9
$PUCSORGFRONT
 10
0.0
 20
0.0
 30
0.0
  9
$PUCSORGBACK
 10
0.0
 20
0.0
 30
0.0
  9
$USERI1
 70
0
  9
$USERI2
 70
0
  9
$USERI3
 70
0
  9
$USERI4
 70
0
  9
$USERI5
 70
0
  9
$USERR1
 40
0.0
  9
$USERR2
 40
0.0
  9
$USERR3
 40
0.0
  9
$USERR4
 40
0.0
  9
$USERR5
 40
0.0
  9
$WORLDVIEW
 70
1
  9
$SHADEDGE
 70
3
  9
$SHADEDIF
 70
70
  9
$TILEMODE
 70
1
  9
$MAXACTVP
 70
64
  9
$PINSBASE
 10
0.0
 20
0.0
 30
0.0
  9
$PLIMCHECK
 70
0
  9
$PEXTMIN
 10
1e+20
 20
1e+20
 30
1e+20
  9
$PEXTMAX
 10
-1e+20
 20
-1e+20
 30
-1e+20
  9
$PLIMMIN
 10
0.0
 20
0.0
  9
$PLIMMAX
 10
420.0
 20
297.0
  9
$UNITMODE
 70
0
  9
$VISRETAIN
 70
1
  9
$PLINEGEN
 70
0
  9
$PSLTSCALE
 70
1
  9
$TREEDEPTH
 70
3020
  9
$CMLSTYLE
  2
Standard
  9
$CMLJUST
 70
0
  9
$CMLSCALE
 40
20.0
  9
$PROXYGRAPHICS
 70
1
  9
$MEASUREMENT
 70
1
  9
$CELWEIGHT
370
-1
  9
$ENDCAPS
280
0
  9
$JOINSTYLE
280
0
  9
$LWDISPLAY
290
0
  9
$INSUNITS
 70
4
  9
$HYPERLINKBASE
  1

  9
$STYLESHEET
  1

  9
$XEDIT
290
1
  9
$CEPSNTYPE
380
0
  9
$PSTYLEMODE
290
1
  9
$FINGERPRINTGUID
  2
{1857DF0A-154E-4AE5-98B9-4C7ABC31DCBF}
  9
$VERSIONGUID
  2
{7DE4DE34-42DC-4589-9579-36DF7647C407}
  9
$EXTNAMES
290
1
  9
$PSVPSCALE
 40
0.0
  9
$OLESTARTUP
290
0
  9
$SORTENTS
280
127
  9
$INDEXCTL
280
0
  9
$HIDETEXT
280
1
  9
$XCLIPFRAME
280
1
  9
$HALOGAP
280
0
  9
$OBSCOLOR
 70
257
  9
$OBSLTYPE
280
0
  9
$INTERSECTIONDISPLAY
280
0
  9
$INTERSECTIONCOLOR
 70
257
  9
$DIMASSOC
280
2
  9
$PROJECTNAME
  1

  9
$CAMERADISPLAY
290
0
  9
$LENSLENGTH
 40
50.0
  9
$CAMERAHEIGHT
 40
0.0
  9
$STEPSPERSEC
 40
24.0
  9
$STEPSIZE
 40
100.0
  9
$3DDWFPREC
 40
2.0
  9
$PSOLWIDTH
 40
0.005
  9
$PSOLHEIGHT
 40
0.08
  9
$LOFTANG1
 40
1.570796326795
  9
$LOFTANG2
 40
1.570796326795
  9
$LOFTMAG1
 40
0.0
  9
$LOFTMAG2
 40
0.0
  9
$LOFTPARAM
 70
7
  9
$LOFTNORMALS
280
1
  9
$LATITUDE
 40
37.795
  9
$LONGITUDE
 40
-122.394
  9
$NORTHDIRECTION
 40
0.0
  9
$TIMEZONE
 70
-8000
  9
$LIGHTGLYPHDISPLAY
280
1
  9
$TILEMODELIGHTSYNCH
280
1
  9
$CMATERIAL
347
20
  9
$SOLIDHIST
280
0
  9
$SHOWHIST
280
1
  9
$DWFFRAME
280
2
  9
$DGNFRAME
280
2
  9
$REALWORLDSCALE
290
1
  9
$INTERFERECOLOR
 62
256
  9
$CSHADOW
280
0
  9
$SHADOWPLANELOCATION
 40
0.0
  0
ENDSEC
  0
SECTION
  2
CLASSES
  0
CLASS
  1
ACDBDICTIONARYWDFLT
  2
AcDbDictionaryWithDefault
  3
ObjectDBX Classes
 90
0
 91
0
280
0
281
0
  0
CLASS
  1
SUN
  2
AcDbSun
  3
SCENEOE
 90
1153
 91
0
280
0
281
0
  0
CLASS
  1
VISUALSTYLE
  2
AcDbVisualStyle
  3
ObjectDBX Classes
 90
4095
 91
0
280
0
281
0
  0
CLASS
  1
MATERIAL
  2
AcDbMaterial
  3
ObjectDBX Classes
 90
1153
 91
0
280
0
281
0
  0
CLASS
  1
SCALE
  2
AcDbScale
  3
ObjectDBX Classes
 90
1153
 91
0
280
0
281
0
  0
CLASS
  1
TABLESTYLE
  2
AcDbTableStyle
  3
ObjectDBX Classes
 90
4095
 91
0
280
0
281
0
  0
CLASS
  1
MLEADERSTYLE
  2
AcDbMLeaderStyle
  3
ACDB_MLEADERSTYLE_CLASS
 90
4095
 91
0
280
0
281
0
  0
CLASS
  1
DICTIONARYVAR
  2
AcDbDictionaryVar
  3
ObjectDBX Classes
 90
0
 91
0
280
0
281
0
  0
CLASS
  1
CELLSTYLEMAP
  2
AcDbCellStyleMap
  3
ObjectDBX Classes
 90
1152
 91
0
280
0
281
0
  0
CLASS
  1
MENTALRAYRENDERSETTINGS
  2
AcDbMentalRayRenderSettings
  3
SCENEOE
 90
1024
 91
0
280
0
281
0
  0
CLASS
  1
ACDBDETAILVIEWSTYLE
  2
AcDbDetailViewStyle
  3
ObjectDBX Classes
 90
1025
 91
0
280
0
281
0
  0
CLASS
  1
ACDBSECTIONVIEWSTYLE
  2
AcDbSectionViewStyle
  3
ObjectDBX Classes
 90
1025
 91
0
280
0
281
0
  0
CLASS
  1
RASTERVARIABLES
  2
AcDbRasterVariables
  3
ISM
 90
0
 91
0
280
0
281
0
  0
CLASS
  1
ACDBPLACEHOLDER
  2
AcDbPlaceHolder
  3
ObjectDBX Classes
 90
0
 91
0
280
0
281
0
  0
CLASS
  1
LAYOUT
  2
AcDbLayout
  3
ObjectDBX Classes
 90
0
 91
0
280
0
281
0
  0
ENDSEC
  0
SECTION
  2
TABLES
  0
TABLE
  2
VPORT
  5
8
330
0
100
AcDbSymbolTable
 70
1
  0
VPORT
  5
23
330
8
100
AcDbSymbolTableRecord
100
AcDbViewportTableRecord
  2
*Active
 70
0
 10
0.0
 20
0.0
 11
1.0
 21
1.0
 12
0.0
 22
0.0
 13
0.0
 23
0.0
 14
0.5
 24
0.5
 15
0.5
 25
0.5
 16
0.0
 26
0.0
 36
1.0
 17
0.0
 27
0.0
 37
0.0
 40
1000.0
 41
1.34
 42
50.0
 43
0.0
 44
0.0
 50
0.0
 51
0.0
 71
0
 72
1000
 73
1
 74
3
 75
0
 76
0
 77
0
 78
0
281
0
 65
0
146
0.0
  0
ENDTAB
  0
TABLE
  2
LTYPE
  5
2
330
0
100
AcDbSymbolTable
 70
3
  0
LTYPE
  5
24
330
2
100
AcDbSymbolTableRecord
100
AcDbLinetypeTableRecord
  2
ByBlock
 70
0
  3

 72
65
 73
0
 40
0.0
  0
LTYPE
  5
25
330
2
100
AcDbSymbolTableRecord
100
AcDbLinetypeTableRecord
  2
ByLayer
 70
0
  3

 72
65
 73
0
 40
0.0
  0
LTYPE
  5
26
330
2
100
AcDbSymbolTableRecord
100
AcDbLinetypeTableRecord
  2
Continuous
 70
0
  3

 72
65
 73
0
 40
0.0
  0
ENDTAB
  0
TABLE
  2
LAYER
  5
1
330
0
100
AcDbSymbolTable
 70
4
  0
LAYER
  5
27
330
1
100
AcDbSymbolTableRecord
100
AcDbLayerTableRecord
  2
0
 70
0
 62
7
  6
Continuous
370
-3
390
13
347
21
  0
LAYER
  5
28
330
1
100
AcDbSymbolTableRecord
100
AcDbLayerTableRecord
  2
Defpoints
 70
0
 62
7
  6
Continuous
290
0
370
-3
390
13
347
21
  0
LAYER
  5
30
330
1
100
AcDbSymbolTableRecord
100
AcDbLayerTableRecord
  2
CUT_OUTSIDE
 70
0
 62
1
  6
Continuous
370
-3
390
13
347
21
  0
LAYER
  5
32
330
1
100
AcDbSymbolTableRecord
100
AcDbLayerTableRecord
  2
CUT_INSIDE
 70
0
 62
5
  6
Continuous
370
-3
390
13
347
21
  0
ENDTAB
  0
TABLE
  2
STYLE
  5
5
330
0
100
AcDbSymbolTable
 70
1
  0
STYLE
  5
29
330
5
100
AcDbSymbolTableRecord
100
AcDbTextStyleTableRecord
  2
Standard
 70
0
 40
0.0
 41
1.0
 50
0.0
 71
0
 42
2.5
  3
txt
  4

  0
ENDTAB
  0
TABLE
  2
VIEW
  5
7
330
0
100
AcDbSymbolTable
 70
0
  0
ENDTAB
  0
TABLE
  2
UCS
  5
6
330
0
100
AcDbSymbolTable
 70
0
  0
ENDTAB
  0
TABLE
  2
APPID
  5
3
330
0
100
AcDbSymbolTable
 70
3
  0
APPID
  5
2A
330
3
100
AcDbSymbolTableRecord
100
AcDbRegAppTableRecord
  2
ACAD
 70
0
  0
APPID
  5
48
330
3
100
AcDbSymbolTableRecord
100
AcDbRegAppTableRecord
  2
HATCHBACKGROUNDCOLOR
 70
0
  0
APPID
  5
49
330
3
100
AcDbSymbolTableRecord
100
AcDbRegAppTableRecord
  2
EZDXF
 70
0
  0
ENDTAB
  0
TABLE
  2
DIMSTYLE
  5
4
330
0
100
AcDbSymbolTable
 70
1
100
AcDbDimStyleTable
  0
DIMSTYLE
105
2B
330
4
100
AcDbSymbolTableRecord
100
AcDbDimStyleTableRecord
  2
Standard
 70
0
 40
1.0
 41
2.5
 42
0.625
 43
3.75
 44
1.25
 45
0.0
 46
0.0
 47
0.0
 48
0.0
 49
2.5
140
2.5
141
2.5
142
0.0
143
0.03937007874
144
1.0
145
0.0
146
1.0
147
0.625
148
0.0
 69
0
 70
0
 71
0
 72
0
 73
0
 74
0
 75
0
 76
0
 77
1
 78
8
 79
3
170
0
171
3
172
1
173
0
174
0
175
0
176
0
177
0
178
0
179
2
271
2
272
2
273
2
274
3
275
0
276
0
277
2
278
44
279
0
280
0
281
0
282
0
283
0
284
8
285
0
286
0
288
0
289
3
290
0
371
-2
372
-2
  0
ENDTAB
  0
TABLE
  2
BLOCK_RECORD
  5
9
330
0
100
AcDbSymbolTable
 70
2
  0
BLOCK_RECORD
  5
17
330
9
100
AcDbSymbolTableRecord
100
AcDbBlockTableRecord
  2
*Model_Space
340
1A
 70
0
280
1
281
0
  0
BLOCK_RECORD
  5
1B
330
9
100
AcDbSymbolTableRecord
100
AcDbBlockTableRecord
  2
*Paper_Space
340
1E
 70
0
280
1
281
0
  0
ENDTAB
  0
ENDSEC
  0
SECTION
  2
BLOCKS
  0
BLOCK
  5
18
330
17
100
AcDbEntity
  8
0
100
AcDbBlockBegin
  2
*Model_Space
 70
0
 10
0.0
 20
0.0
 30
0.0
  3
*Model_Space
  1

  0
ENDBLK
  5
19
330
17
100
AcDbEntity
  8
0
100
AcDbBlockEnd
  0
BLOCK
  5
1C
330
1B
100
AcDbEntity
  8
0
100
AcDbBlockBegin
  2
*Paper_Space
 70
0
 10
0.0
 20
0.0
 30
0.0
  3
*Paper_Space
  1

  0
ENDBLK
  5
1D
330
1B
100
AcDbEntity
  8
0
100
AcDbBlockEnd
  0
ENDSEC
  0
SECTION
  2
ENTITIES
  0
LWPOLYLINE
  5
2F
330
17
100
AcDbEntity
  8
SHEET_EDGE
100
AcDbPolyline
 90
4
 70
1
 10
0.0
 20
0.0
 10
1525.0
 20
0.0
 10
1525.0
 20
1525.0
 10
0.0
 20
1525.0
  0
LWPOLYLINE
  5
31
330
17
100
AcDbEntity
  8
CUT_OUTSIDE
100
AcDbPolyline
 90
5
 70
1
 10
475.0
 20
15.0
 10
475.0
 20
775.0
 10
15.0
 20
775.0
 10
15.0
 20
15.0
 10
475.0
 20
15.0
  0
TEXT
  5
33
330
17
100
AcDbEntity
  8
NOTES
100
AcDbText
 10
25.0
 20
25.0
 30
0.0
 40
12.0
  1
left
 11
25.0
 21
25.0
 31
0.0
100
AcDbText
  0
LWPOLYLINE
  5
34
330
17
100
AcDbEntity
  8
CUT_OUTSIDE
100
AcDbPolyline
 90
5
 70
1
 10
947.0
 20
15.0
 10
947.0
 20
775.0
 10
487.0
 20
775.0
 10
487.0
 20
15.0
 10
947.0
 20
15.0
  0
TEXT
  5
35
330
17
100
AcDbEntity
  8
NOTES
100
AcDbText
 10
497.0
 20
25.0
 30
0.0
 40
12.0
  1
left
 11
497.0
 21
25.0
 31
0.0
100
AcDbText
  0
LWPOLYLINE
  5
36
330
17
100
AcDbEntity
  8
CUT_OUTSIDE
100
AcDbPolyline
 90
5
 70
1
 10
959.0
 20
775.0
 10
959.0
 20
15.0
 10
1419.0
 20
15.0
 10
1419.0
 20
775.0
 10
959.0
 20
775.0
  0
TEXT
  5
37
330
17
100
AcDbEntity
  8
NOTES
100
AcDbText
 10
969.0
 20
25.0
 30
0.0
 40
12.0
  1
right
 11
969.0
 21
25.0
 31
0.0
100
AcDbText
  0
LWPOLYLINE
  5
38
330
17
100
AcDbEntity
  8
CUT_OUTSIDE
100
AcDbPolyline
 90
5
 70
1
 10
15.0
 20
1247.0
 10
15.0
 20
787.0
 10
499.0
 20
787.0
 10
499.0
 20
1247.0
 10
15.0
 20
1247.0
  0
CIRCLE
  5
39
330
17
100
AcDbEntity
  8
CUT_INSIDE
100
AcDbCircle
 10
257.0
 20
1187.0
 30
0.0
 40
8.25
  0
TEXT
  5
3A
330
17
100
AcDbEntity
  8
NOTES
100
AcDbText
 10
25.0
 20
797.0
 30
0.0
 40
12.0
  1
top
 11
25.0
 21
797.0
 31
0.0
100
AcDbText
  0
LWPOLYLINE
  5
3B
330
17
100
AcDbEntity
  8
CUT_OUTSIDE
100
AcDbPolyline
 90
5
 70
1
 10
511.0
 20
1247.0
 10
511.0
 20
787.0
 10
995.0
 20
787.0
 10
995.0
 20
1247.0
 10
511.0
 20
1247.0
  0
CIRCLE
  5
3C
330
17
100
AcDbEntity
  8
CUT_INSIDE
100
AcDbCircle
 10
753.0
 20
1187.0
 30
0.0
 40
8.25
  0
TEXT
  5
3D
330
17
100
AcDbEntity
  8
NOTES
100
AcDbText
 10
521.0
 20
797.0
 30
0.0
 40
12.0
  1
top
 11
521.0
 21
797.0
 31
0.0
100
AcDbText
  0
LWPOLYLINE
  5
3E
330
17
100
AcDbEntity
  8
CUT_OUTSIDE
100
AcDbPolyline
 90
5
 70
1
 10
1007.0
 20
1247.0
 10
1007.0
 20
787.0
 10
1491.0
 20
787.0
 10
1491.0
 20
1247.0
 10
1007.0
 20
1247.0
  0
TEXT
  5
3F
330
17
100
AcDbEntity
  8
NOTES
100
AcDbText
 10
1017.0
 20
797.0
 30
0.0
 40
12.0
  1
bottom
 11
1017.0
 21
797.0
 31
0.0
100
AcDbText
  0
LWPOLYLINE
  5
40
330
17
100
AcDbEntity
  8
CUT_OUTSIDE
100
AcDbPolyline
 90
341
 70
1
 10
315.0
 20
1259.0
 10
315.0
 20
1469.4638394229914
 10
271.66910313830476
 20
1469.4638394229914
 10
271.66441267657933
 20
1468.4635231276784
 10
271.6503417039019
 20
1467.4632948043304
 10
271.6268914577321
 20
1466.463242417175
 10
271.5940640003818
 20
1465.4634539149688
 10
271.5518622188339
 20
1464.4640172232598
 10
271.50028982448805
 20
1463.465020236657
 10
271.43935135283465
 20
1462.4665508110998
 10
271.36905216305564
 20
1461.4686967561315
 10
271.28939843755336
 20
1460.4715458271776
 10
271.200397181407
 20
1459.4751857178276
 10
271.1020562217562
 20
1458.4797040521223
 10
270.9943842071129
 20
1457.4851883768497
 10
270.8773906066007
 20
1456.4917261538442
 10
270.7510857091223
 20
1455.4994047522946
 10
270.6154806224543
 20
1454.5083114410622
 10
270.47058727227056
 20
1453.518533381004
 10
270.3164184010935
 20
1452.5301576173088
 10
270.1529875671731
 20
1451.5432710718417
 10
269.9803091432949
 20
1450.5579605354994
 10
269.79839831551595
 20
1449.5743126605785
 10
269.6072710818291
 20
1448.592413953153
 10
269.40694425075606
 20
1447.6123507654697
 10
269.19743543986954
 20
1446.6342092883506
 10
268.9787630742435
 20
1445.6580755436148
 10
268.75094638483284
 20
1444.6840353765137
 10
268.5140054067825
 20
1443.7121744481806
 10
268.2679609776649
 20
1442.742578228097
 10
268.01283473564797
 20
1441.7753319865774
 10
267.7486491175918
 20
1440.8105207872682
 10
267.4754273570756
 20
1439.848229479669
 10
267.1931934823545
 20
1438.88854269167
 10
266.9019723142462
 20
1437.9315448221082
 10
266.60178946394853
 20
1436.9773200333466
 10
266.29267133078656
 20
1436.0259522438719
 10
265.9746450998913
 20
1435.0775251209136
 10
265.6477387398089
 20
1434.132122073088
 10
265.31198100004076
 20
1433.1898262430614
 10
264.9674014085155
 20
1432.2507205002375
 10
264.6140302689919
 20
1431.314887433472
 10
264.2518986583939
 20
1430.382409343807
 10
263.88103842407764
 20
1429.4533682372335
 10
263.5014821810307
 20
1428.5278458174812
 10
263.11326330900374
 20
1427.6059234788313
 10
262.71641594957475
 20
1426.6876822989584
 10
262.310975003147
 20
1425.7732030318014
 10
261.89697612587923
 20
1424.862566100461
 10
261.4744557265502
 20
1423.9558515901265
 10
261.04345096335675
 20
1423.053139241034
 10
260.60399974064575
 20
1422.1545084414515
 10
260.1561407055807
 20
1421.2600382207002
 10
259.69991324474324
 20
1420.3698072422021
 10
259.23535748066894
 20
1419.4838937965624
 10
258.76251426831885
 20
1418.6023757946846
 10
258.28142519148673
 20
1417.725330760919
 10
257.7921325591418
 20
1416.8528358262442
 10
257.294679401708
 20
1415.9849677214847
 10
256.78910946727956
 20
1415.1218027705613
 10
256.2754672177741
 20
1414.2634168837815
 10
255.75379782502188
 20
1413.4098855511606
 10
255.22414716679333
 20
1412.5612838357852
 10
254.6865618227647
 20
1411.7176863672105
 10
254.14108907042134
 20
1410.8791673348976
 10
253.58777688089998
 20
1410.0458004816887
 10
253.02667391476996
 20
1409.2176590973224
 10
252.45782951775402
 20
1408.3948160119876
 10
251.88129371638814
 20
1407.5773435899182
 10
251.29711721362258
 20
1406.7653137230313
 10
250.70535138436242
 20
1405.9587978246013
 10
250.10604827094966
 20
1405.1578668229827
 10
249.49926057858636
 20
1404.3625911553704
 10
248.88504167069937
 20
1403.5730407616054
 10
248.26344556424772
 20
1402.7892850780254
 10
247.63452692497157
 20
1402.0113930313562
 10
246.9983410625852
 20
1401.2394330326517
 10
246.35494392591266
 20
1400.4734729712768
 10
245.70439209796723
 20
1399.7135802089365
 10
245.0467427909755
 20
1398.9598215737533
 10
244.38205384134585
 20
1398.2122633543881
 10
243.71038370458194
 20
1397.4709712942126
 10
243.03179145014207
 20
1396.736010585525
 10
242.34633675624434
 20
1396.0074458638196
 10
241.65407990461802
 20
1395.2853412021004
 10
240.9550817752026
 20
1394.5697601052473
 10
240.24940384079338
 20
1393.86076550443
 10
239.53710816163544
 20
1393.1584197515754
 10
238.81825737996576
 20
1392.4627846138824
 10
238.09291471450433
 20
1391.7739212683914
 10
237.36114395489415
 20
1391.091890296602
 10
236.62300945609172
 20
1390.416751679148
 10
235.878576132707
 20
1389.74856479052
 10
235.1279094532947
 20
1389.087388393845
 10
234.37107543459683
 20
1388.4332806357183
 10
233.6081406357368
 20
1387.7862990410895
 10
232.8391721523658
 20
1387.146500508204
 10
232.06423761076235
 20
1386.5139413035995
 10
231.2834051618849
 20
1385.8886770571564
 10
230.49674347537837
 20
1385.2707627572063
 10
229.70432173353487
 20
1384.6602527456964
 10
228.90620962520984
 20
1384.0572007134099
 10
228.1024773396931
 20
1383.461659695244
 10
227.29319556053616
 20
1382.8736820655465
 10
226.4784354593359
 20
1382.2933195335097
 10
225.6582686894758
 20
1381.7206231386222
 10
224.83276737982408
 20
1381.1556432461805
 10
224.0020041283904
 20
1380.5984295428605
 10
223.16605199594176
 20
1380.0490310323469
 10
222.3249844995765
 20
1379.507496031024
 10
221.47887560625952
 20
1378.973872163726
 10
220.627799726317
 20
1378.4482063595499
 10
219.7718317068925
 20
1377.930544847727
 10
218.9110468253648
 20
1377.4209331535585
 10
218.04552078272718
 20
1376.9194160944107
 10
217.17532969693065
 20
1376.4260377757746
 10
216.30055009618923
 20
1375.940841587386
 10
215.42125891225015
 20
1375.4638701994108
 10
214.53753347362783
 20
1374.9951655586915
 10
213.64945149880356
 20
1374.5347688850586
 10
212.75709108939037
 20
1374.0827206677054
 10
211.86053072326473
 20
1373.639060661628
 10
210.95984924766458
 20
1373.2038278841276
 10
210.05512587225547
 20
1372.77706061138
 10
209.1464401621643
 20
1372.3587963750697
 10
208.23387203098207
 20
1371.949071959089
 10
207.31750173373615
 20
1371.5479233963028
 10
206.39740985983195
 20
1371.15538596538
 10
205.47367732596604
 20
1370.7714941876902
 10
204.5463853690095
 20
1370.3962818242696
 10
203.61561553886395
 20
1370.0297818728495
 10
202.68144969128957
 20
1369.6720265649565
 10
201.74396998070648
 20
1369.323047363076
 10
200.80325885296952
 20
1368.9828749578874
 10
199.85939903811789
 20
1368.6515392655624
 10
198.91247354309928
 20
1368.3290694251373
 10
197.9625656444702
 20
1368.015493795947
 10
197.0097588810719
 20
1367.7108399551335
 10
196.05413704668388
 20
1367.4151346952192
 10
195.0957841826547
 20
1367.1284040217515
 10
194.13478457051104
 20
1366.8506731510156
 10
193.17122272454554
 20
1366.581966507816
 10
192.2051833843842
 20
1366.32230772333
 10
191.2367515075344
 20
1366.071719633028
 10
190.26601226191286
 20
1365.8302242746663
 10
189.29305101835598
 20
1365.597842886349
 10
188.31795334311192
 20
1365.374595904659
 10
187.34080499031552
 20
1365.160502962862
 10
186.36169189444655
 20
1364.9555828891798
 10
185.3807001627726
 20
1364.7598537051333
 10
184.3979160677763
 20
1364.5733326239595
 10
183.41342603956792
 20
1364.3960360490955
 10
182.4273166582849
 20
1364.2279795727381
 10
181.43967464647704
 20
1364.069177974471
 10
180.45058686148025
 20
1363.9196452199653
 10
179.46014028777745
 20
1363.7793944597515
 10
178.4684220293493
 20
1363.648438028064
 10
177.4755193020137
 20
1363.526787441754
 10
176.4815194257555
 20
1363.4144533992794
 10
175.48650981704748
 20
1363.3114457797615
 10
174.49057798116246
 20
1363.2177736421177
 10
173.49381150447772
 20
1363.1334452242645
 10
172.49629804677244
 20
1363.0584679423928
 10
171.4981253335182
 20
1362.9928483903154
 10
170.4993811481645
 20
1362.9365923388887
 10
169.5001533244182
 20
1362.8897047355026
 10
168.5005297385195
 20
1362.852189703648
 10
167.5005983015135
 20
1362.824050542552
 10
166.500446951519
 20
1362.805289726889
 10
165.50016364599497
 20
1362.7959089065635
 10
164.49983635400497
 20
1362.7959089065635
 10
163.49955304848095
 20
1362.805289726889
 10
162.4994016984865
 20
1362.824050542552
 10
161.4994702614805
 20
1362.852189703648
 10
160.4998466755818
 20
1362.8897047355026
 10
159.5006188518355
 20
1362.9365923388887
 10
158.50187466648174
 20
1362.9928483903154
 10
157.5037019532276
 20
1363.0584679423928
 10
156.50618849552225
 20
1363.1334452242645
 10
155.50942201883754
 20
1363.2177736421177
 10
154.51349018295252
 20
1363.3114457797615
 10
153.5184805742445
 20
1363.4144533992794
 10
152.5244806979863
 20
1363.526787441754
 10
151.53157797065066
 20
1363.648438028064
 10
150.53985971222252
 20
1363.7793944597515
 10
149.54941313851975
 20
1363.9196452199653
 10
148.56032535352293
 20
1364.069177974471
 10
147.57268334171505
 20
1364.2279795727381
 10
146.58657396043208
 20
1364.3960360490955
 10
145.6020839322237
 20
1364.5733326239595
 10
144.61929983722737
 20
1364.7598537051333
 10
143.63830810555342
 20
1364.9555828891798
 10
142.65919500968448
 20
1365.160502962862
 10
141.68204665688808
 20
1365.374595904659
 10
140.706948981644
 20
1365.597842886349
 10
139.73398773808717
 20
1365.8302242746663
 10
138.76324849246558
 20
1366.071719633028
 10
137.79481661561576
 20
1366.32230772333
 10
136.82877727545443
 20
1366.581966507816
 10
135.86521542948896
 20
1366.8506731510156
 10
134.90421581734526
 20
1367.1284040217515
 10
133.94586295331612
 20
1367.4151346952192
 10
132.9902411189281
 20
1367.7108399551335
 10
132.0374343555298
 20
1368.015493795947
 10
131.0875264569007
 20
1368.3290694251373
 10
130.1406009618821
 20
1368.6515392655626
 10
129.19674114703048
 20
1368.9828749578874
 10
128.2560300192935
 20
1369.323047363076
 10
127.3185503087104
 20
1369.6720265649565
 10
126.38438446113605
 20
1370.0297818728495
 10
125.4536146309905
 20
1370.3962818242696
 10
124.52632267403396
 20
1370.7714941876902
 10
123.60259014016799
 20
1371.15538596538
 10
122.68249826626388
 20
1371.5479233963028
 10
121.76612796901793
 20
1371.949071959089
 10
120.85355983783569
 20
1372.3587963750697
 10
119.9448741277445
 20
1372.77706061138
 10
119.04015075233542
 20
1373.2038278841276
 10
118.13946927673527
 20
1373.639060661628
 10
117.24290891060963
 20
1374.0827206677056
 10
116.35054850119641
 20
1374.5347688850586
 10
115.46246652637217
 20
1374.9951655586915
 10
114.57874108774982
 20
1375.4638701994108
 10
113.69944990381072
 20
1375.940841587386
 10
112.82467030306935
 20
1376.4260377757746
 10
111.95447921727282
 20
1376.9194160944107
 10
111.08895317463524
 20
1377.4209331535585
 10
110.22816829310744
 20
1377.930544847727
 10
109.372200273683
 20
1378.4482063595499
 10
108.52112439374048
 20
1378.973872163726
 10
107.67501550042348
 20
1379.507496031024
 10
106.83394800405824
 20
1380.0490310323469
 10
105.99799587160956
 20
1380.5984295428605
 10
105.16723262017592
 20
1381.1556432461805
 10
104.34173131052418
 20
1381.7206231386222
 10
103.52156454066409
 20
1382.2933195335097
 10
102.70680443946387
 20
1382.8736820655465
 10
101.89752266030686
 20
1383.461659695244
 10
101.09379037479007
 20
1384.0572007134099
 10
100.2956782664651
 20
1384.6602527456967
 10
99.50325652462163
 20
1385.2707627572063
 10
98.7165948381151
 20
1385.8886770571564
 10
97.93576238923765
 20
1386.5139413035995
 10
97.16082784763424
 20
1387.146500508204
 10
96.39185936426321
 20
1387.7862990410895
 10
95.62892456540311
 20
1388.4332806357183
 10
94.8720905467053
 20
1389.087388393845
 10
94.121423867293
 20
1389.74856479052
 10
93.37699054390825
 20
1390.416751679148
 10
92.63885604510583
 20
1391.091890296602
 10
91.9070852854957
 20
1391.7739212683914
 10
91.18174262003421
 20
1392.4627846138824
 10
90.46289183836456
 20
1393.1584197515754
 10
89.7505961592066
 20
1393.86076550443
 10
89.04491822479739
 20
1394.5697601052473
 10
88.34592009538193
 20
1395.2853412021007
 10
87.65366324375566
 20
1396.0074458638196
 10
86.9682085498579
 20
1396.736010585525
 10
86.28961629541806
 20
1397.4709712942126
 10
85.61794615865415
 20
1398.2122633543881
 10
84.95325720902451
 20
1398.9598215737533
 10
84.29560790203277
 20
1399.7135802089365
 10
83.64505607408736
 20
1400.4734729712768
 10
83.00165893741473
 20
1401.2394330326517
 10
82.36547307502843
 20
1402.0113930313562
 10
81.73655443575228
 20
1402.7892850780254
 10
81.11495832930058
 20
1403.5730407616056
 10
80.50073942141364
 20
1404.3625911553704
 10
79.89395172905034
 20
1405.1578668229827
 10
79.29464861563758
 20
1405.9587978246013
 10
78.70288278637744
 20
1406.7653137230313
 10
78.11870628361186
 20
1407.5773435899182
 10
77.54217048224601
 20
1408.3948160119876
 10
76.97332608522998
 20
1409.2176590973224
 10
76.41222311910002
 20
1410.0458004816887
 10
75.85891092957866
 20
1410.8791673348976
 10
75.3134381772353
 20
1411.7176863672105
 10
74.77585283320667
 20
1412.5612838357852
 10
74.24620217497812
 20
1413.4098855511606
 10
73.72453278222588
 20
1414.2634168837815
 10
73.21089053272038
 20
1415.1218027705613
 10
72.70532059829202
 20
1415.9849677214847
 10
72.2078674408582
 20
1416.8528358262442
 10
71.71857480851327
 20
1417.725330760919
 10
71.23748573168115
 20
1418.6023757946846
 10
70.764642519331
 20
1419.4838937965624
 10
70.3000867552567
 20
1420.3698072422021
 10
69.84385929441925
 20
1421.2600382207004
 10
69.39600025935425
 20
1422.1545084414515
 10
68.95654903664325
 20
1423.0531392410337
 10
68.52554427344975
 20
1423.9558515901265
 10
68.10302387412077
 20
1424.862566100461
 10
67.689024996853
 20
1425.7732030318014
 10
67.28358405042525
 20
1426.6876822989584
 10
66.88673669099632
 20
1427.605923478831
 10
66.49851781896925
 20
1428.5278458174812
 10
66.11896157592236
 20
1429.4533682372335
 10
65.74810134160609
 20
1430.382409343807
 10
65.38596973100812
 20
1431.314887433472
 10
65.03259859148449
 20
1432.2507205002375
 10
64.68801899995921
 20
1433.1898262430614
 10
64.35226126019111
 20
1434.132122073088
 10
64.02535490010868
 20
1435.0775251209136
 10
63.70732866921344
 20
1436.0259522438719
 10
63.398210536051465
 20
1436.9773200333468
 10
63.09802768575375
 20
1437.9315448221084
 10
62.8068065176455
 20
1438.8885426916702
 10
62.5245726429244
 20
1439.848229479669
 10
62.25135088240819
 20
1440.8105207872682
 10
61.98716526435203
 20
1441.7753319865774
 10
61.73203902233507
 20
1442.7425782280973
 10
61.48599459321753
 20
1443.7121744481806
 10
61.249053615167156
 20
1444.6840353765137
 10
61.02123692575654
 20
1445.6580755436148
 10
60.80256456013046
 20
1446.6342092883506
 10
60.593055749243945
 20
1447.6123507654697
 10
60.39272891817092
 20
1448.592413953153
 10
60.20160168448402
 20
1449.5743126605785
 10
60.0196908567051
 20
1450.5579605354994
 10
59.847012432826915
 20
1451.5432710718417
 10
59.6835815989065
 20
1452.5301576173088
 10
59.52941272772938
 20
1453.518533381004
 10
59.3845193775457
 20
1454.5083114410622
 10
59.24891429087768
 20
1455.4994047522946
 10
59.12260939339927
 20
1456.4917261538444
 10
59.00561579288711
 20
1457.4851883768497
 10
58.897943778243814
 20
1458.4797040521223
 10
58.79960281859297
 20
1459.4751857178276
 10
58.710601562446584
 20
1460.4715458271776
 10
58.63094783694436
 20
1461.4686967561315
 10
58.56064864716535
 20
1462.4665508110998
 10
58.49971017551192
 20
1463.465020236657
 10
58.44813778116611
 20
1464.4640172232598
 10
58.40593599961818
 20
1465.4634539149688
 10
58.373108542267914
 20
1466.4632424171753
 10
58.349658296098085
 20
1467.4632948043304
 10
58.33558732342064
 20
1468.4635231276784
 10
58.330896861695265
 20
1469.4638394229914
 10
15.0
 20
1469.4638394229914
 10
15.0
 20
1259.0
 10
315.0
 20
1259.0
  0
TEXT
  5
41
330
17
100
AcDbEntity
  8
NOTES
100
AcDbText
 10
25.0
 20
1269.0
 30
0.0
 40
12.0
  1
saddle-1
 11
25.0
 21
1269.0
 31
0.0
100
AcDbText
  0
LWPOLYLINE
  5
42
330
17
100
AcDbEntity
  8
CUT_OUTSIDE
100
AcDbPolyline
 90
341
 70
1
 10
627.0
 20
1259.0
 10
627.0
 20
1469.4638394229914
 10
583.6691031383048
 20
1469.4638394229914
 10
583.6644126765793
 20
1468.4635231276784
 10
583.6503417039019
 20
1467.4632948043304
 10
583.6268914577321
 20
1466.463242417175
 10
583.5940640003819
 20
1465.4634539149688
 10
583.5518622188339
 20
1464.4640172232598
 10
583.500289824488
 20
1463.465020236657
 10
583.4393513528346
 20
1462.4665508110998
 10
583.3690521630556
 20
1461.4686967561315
 10
583.2893984375534
 20
1460.4715458271776
 10
583.200397181407
 20
1459.4751857178276
 10
583.1020562217561
 20
1458.4797040521223
 10
582.994384207113
 20
1457.4851883768497
 10
582.8773906066008
 20
1456.4917261538442
 10
582.7510857091223
 20
1455.4994047522946
 10
582.6154806224542
 20
1454.5083114410622
 10
582.4705872722706
 20
1453.518533381004
 10
582.3164184010934
 20
1452.5301576173088
 10
582.1529875671731
 20
1451.5432710718417
 10
581.9803091432949
 20
1450.5579605354994
 10
581.7983983155159
 20
1449.5743126605785
 10
581.6072710818291
 20
1448.592413953153
 10
581.406944250756
 20
1447.6123507654697
 10
581.1974354398695
 20
1446.6342092883506
 10
580.9787630742435
 20
1445.6580755436148
 10
580.7509463848328
 20
1444.6840353765137
 10
580.5140054067824
 20
1443.7121744481806
 10
580.2679609776649
 20
1442.742578228097
 10
580.012834735648
 20
1441.7753319865774
 10
579.7486491175919
 20
1440.8105207872682
 10
579.4754273570757
 20
1439.848229479669
 10
579.1931934823544
 20
1438.88854269167
 10
578.9019723142462
 20
1437.9315448221082
 10
578.6017894639485
 20
1436.9773200333466
 10
578.2926713307866
 20
1436.0259522438719
 10
577.9746450998913
 20
1435.0775251209136
 10
577.6477387398089
 20
1434.132122073088
 10
577.3119810000408
 20
1433.1898262430614
 10
576.9674014085156
 20
1432.2507205002375
 10
576.6140302689919
 20
1431.314887433472
 10
576.2518986583939
 20
1430.382409343807
 10
575.8810384240776
 20
1429.4533682372335
 10
575.5014821810307
 20
1428.5278458174812
 10
575.1132633090037
 20
1427.6059234788313
 10
574.7164159495748
 20
1426.6876822989584
 10
574.310975003147
 20
1425.7732030318014
 10
573.8969761258793
 20
1424.862566100461
 10
573.4744557265502
 20
1423.9558515901265
 10
573.0434509633567
 20
1423.053139241034
 10
572.6039997406458
 20
1422.1545084414515
 10
572.1561407055807
 20
1421.2600382207002
 10
571.6999132447432
 20
1420.3698072422021
 10
571.2353574806689
 20
1419.4838937965624
 10
570.7625142683189
 20
1418.6023757946846
 10
570.2814251914867
 20
1417.725330760919
 10
569.7921325591418
 20
1416.8528358262442
 10
569.294679401708
 20
1415.9849677214847
 10
568.7891094672796
 20
1415.1218027705613
 10
568.2754672177741
 20
1414.2634168837815
 10
567.7537978250218
 20
1413.4098855511606
 10
567.2241471667933
 20
1412.5612838357852
 10
566.6865618227647
 20
1411.7176863672105
 10
566.1410890704213
 20
1410.8791673348976
 10
565.5877768809
 20
1410.0458004816887
 10
565.02667391477
 20
1409.2176590973224
 10
564.457829517754
 20
1408.3948160119876
 10
563.8812937163882
 20
1407.5773435899182
 10
563.2971172136226
 20
1406.7653137230313
 10
562.7053513843624
 20
1405.9587978246013
 10
562.1060482709497
 20
1405.1578668229827
 10
561.4992605785864
 20
1404.3625911553704
 10
560.8850416706994
 20
1403.5730407616054
 10
560.2634455642477
 20
1402.7892850780254
 10
559.6345269249716
 20
1402.0113930313562
 10
558.9983410625853
 20
1401.2394330326517
 10
558.3549439259127
 20
1400.4734729712768
 10
557.7043920979672
 20
1399.7135802089365
 10
557.0467427909755
 20
1398.9598215737533
 10
556.3820538413459
 20
1398.2122633543881
 10
555.710383704582
 20
1397.4709712942126
 10
555.031791450142
 20
1396.736010585525
 10
554.3463367562443
 20
1396.0074458638196
 10
553.654079904618
 20
1395.2853412021004
 10
552.9550817752026
 20
1394.5697601052473
 10
552.2494038407933
 20
1393.86076550443
 10
551.5371081616354
 20
1393.1584197515754
 10
550.8182573799658
 20
1392.4627846138824
 10
550.0929147145043
 20
1391.7739212683914
 10
549.3611439548941
 20
1391.091890296602
 10
548.6230094560917
 20
1390.416751679148
 10
547.8785761327069
 20
1389.74856479052
 10
547.1279094532947
 20
1389.087388393845
 10
546.3710754345968
 20
1388.4332806357183
 10
545.6081406357368
 20
1387.7862990410895
 10
544.8391721523658
 20
1387.146500508204
 10
544.0642376107623
 20
1386.5139413035995
 10
543.283405161885
 20
1385.8886770571564
 10
542.4967434753784
 20
1385.2707627572063
 10
541.7043217335349
 20
1384.6602527456964
 10
540.9062096252098
 20
1384.0572007134099
 10
540.1024773396931
 20
1383.461659695244
 10
539.2931955605361
 20
1382.8736820655465
 10
538.478435459336
 20
1382.2933195335097
 10
537.6582686894758
 20
1381.7206231386222
 10
536.8327673798241
 20
1381.1556432461805
 10
536.0020041283904
 20
1380.5984295428605
 10
535.1660519959418
 20
1380.0490310323469
 10
534.3249844995764
 20
1379.507496031024
 10
533.4788756062595
 20
1378.973872163726
 10
532.627799726317
 20
1378.4482063595499
 10
531.7718317068925
 20
1377.930544847727
 10
530.9110468253648
 20
1377.4209331535585
 10
530.0455207827272
 20
1376.9194160944107
 10
529.1753296969307
 20
1376.4260377757746
 10
528.3005500961892
 20
1375.940841587386
 10
527.4212589122501
 20
1375.4638701994108
 10
526.5375334736278
 20
1374.9951655586915
 10
525.6494514988035
 20
1374.5347688850586
 10
524.7570910893903
 20
1374.0827206677054
 10
523.8605307232647
 20
1373.639060661628
 10
522.9598492476646
 20
1373.2038278841276
 10
522.0551258722555
 20
1372.77706061138
 10
521.1464401621643
 20
1372.3587963750697
 10
520.2338720309821
 20
1371.949071959089
 10
519.3175017337362
 20
1371.5479233963028
 10
518.3974098598319
 20
1371.15538596538
 10
517.473677325966
 20
1370.7714941876902
 10
516.5463853690095
 20
1370.3962818242696
 10
515.615615538864
 20
1370.0297818728495
 10
514.6814496912896
 20
1369.6720265649565
 10
513.7439699807064
 20
1369.323047363076
 10
512.8032588529695
 20
1368.9828749578874
 10
511.8593990381179
 20
1368.6515392655624
 10
510.9124735430993
 20
1368.3290694251373
 10
509.9625656444702
 20
1368.015493795947
 10
509.0097588810719
 20
1367.7108399551335
 10
508.0541370466839
 20
1367.4151346952192
 10
507.0957841826547
 20
1367.1284040217515
 10
506.13478457051104
 20
1366.8506731510156
 10
505.17122272454554
 20
1366.581966507816
 10
504.2051833843842
 20
1366.32230772333
 10
503.2367515075344
 20
1366.071719633028
 10
502.26601226191286
 20
1365.8302242746663
 10
501.293051018356
 20
1365.597842886349
 10
500.3179533431119
 20
1365.374595904659
 10
499.3408049903155
 20
1365.160502962862
 10
498.36169189444655
 20
1364.9555828891798
 10
497.3807001627726
 20
1364.7598537051333
 10
496.3979160677763
 20
1364.5733326239595
 10
495.4134260395679
 20
1364.3960360490955
 10
494.4273166582849
 20
1364.2279795727381
 10
493.43967464647704
 20
1364.069177974471
 10
492.45058686148025
 20
1363.9196452199653
 10
491.46014028777745
 20
1363.7793944597515
 10
490.4684220293493
 20
1363.648438028064
 10
489.4755193020137
 20
1363.526787441754
 10
488.4815194257555
 20
1363.4144533992794
 10
487.4865098170475
 20
1363.3114457797615
 10
486.49057798116246
 20
1363.2177736421177
 10
485.4938115044777
 20
1363.1334452242645
 10
484.49629804677244
 20
1363.0584679423928
 10
483.4981253335182
 20
1362.9928483903154
 10
482.4993811481645
 20
1362.9365923388887
 10
481.5001533244182
 20
1362.8897047355026
 10
480.5005297385195
 20
1362.852189703648
 10
479.5005983015135
 20
1362.824050542552
 10
478.500446951519
 20
1362.805289726889
 10
477.500163645995
 20
1362.7959089065635
 10
476.49983635400497
 20
1362.7959089065635
 10
475.49955304848095
 20
1362.805289726889
 10
474.4994016984865
 20
1362.824050542552
 10
473.4994702614805
 20
1362.852189703648
 10
472.4998466755818
 20
1362.8897047355026
 10
471.5006188518355
 20
1362.9365923388887
 10
470.50187466648174
 20
1362.9928483903154
 10
469.5037019532276
 20
1363.0584679423928
 10
468.5061884955222
 20
1363.1334452242645
 10
467.50942201883754
 20
1363.2177736421177
 10
466.5134901829525
 20
1363.3114457797615
 10
465.5184805742445
 20
1363.4144533992794
 10
464.5244806979863
 20
1363.526787441754
 10
463.5315779706507
 20
1363.648438028064
 10
462.53985971222255
 20
1363.7793944597515
 10
461.54941313851975
 20
1363.9196452199653
 10
460.5603253535229
 20
1364.069177974471
 10
459.57268334171505
 20
1364.2279795727381
 10
458.5865739604321
 20
1364.3960360490955
 10
457.6020839322237
 20
1364.5733326239595
 10
456.61929983722735
 20
1364.7598537051333
 10
455.6383081055534
 20
1364.9555828891798
 10
454.6591950096845
 20
1365.160502962862
 10
453.6820466568881
 20
1365.374595904659
 10
452.706948981644
 20
1365.597842886349
 10
451.7339877380872
 20
1365.8302242746663
 10
450.76324849246555
 20
1366.071719633028
 10
449.7948166156158
 20
1366.32230772333
 10
448.8287772754544
 20
1366.581966507816
 10
447.86521542948896
 20
1366.8506731510156
 10
446.9042158173453
 20
1367.1284040217515
 10
445.9458629533161
 20
1367.4151346952192
 10
444.9902411189281
 20
1367.7108399551335
 10
444.0374343555298
 20
1368.015493795947
 10
443.0875264569007
 20
1368.3290694251373
 10
442.1406009618821
 20
1368.6515392655626
 10
441.1967411470305
 20
1368.9828749578874
 10
440.25603001929346
 20
1369.323047363076
 10
439.3185503087104
 20
1369.6720265649565
 10
438.38438446113605
 20
1370.0297818728495
 10
437.4536146309905
 20
1370.3962818242696
 10
436.52632267403396
 20
1370.7714941876902
 10
435.602590140168
 20
1371.15538596538
 10
434.6824982662639
 20
1371.5479233963028
 10
433.76612796901793
 20
1371.949071959089
 10
432.8535598378357
 20
1372.3587963750697
 10
431.94487412774447
 20
1372.77706061138
 10
431.0401507523354
 20
1373.2038278841276
 10
430.13946927673527
 20
1373.639060661628
 10
429.24290891060963
 20
1374.0827206677056
 10
428.3505485011964
 20
1374.5347688850586
 10
427.46246652637217
 20
1374.9951655586915
 10
426.5787410877498
 20
1375.4638701994108
 10
425.6994499038107
 20
1375.940841587386
 10
424.82467030306935
 20
1376.4260377757746
 10
423.9544792172728
 20
1376.9194160944107
 10
423.0889531746352
 20
1377.4209331535585
 10
422.22816829310744
 20
1377.930544847727
 10
421.372200273683
 20
1378.4482063595499
 10
420.5211243937405
 20
1378.973872163726
 10
419.67501550042346
 20
1379.507496031024
 10
418.83394800405824
 20
1380.0490310323469
 10
417.99799587160953
 20
1380.5984295428605
 10
417.1672326201759
 20
1381.1556432461805
 10
416.3417313105242
 20
1381.7206231386222
 10
415.5215645406641
 20
1382.2933195335097
 10
414.7068044394639
 20
1382.8736820655465
 10
413.8975226603069
 20
1383.461659695244
 10
413.09379037479005
 20
1384.0572007134099
 10
412.2956782664651
 20
1384.6602527456967
 10
411.50325652462163
 20
1385.2707627572063
 10
410.7165948381151
 20
1385.8886770571564
 10
409.93576238923765
 20
1386.5139413035995
 10
409.1608278476342
 20
1387.146500508204
 10
408.3918593642632
 20
1387.7862990410895
 10
407.6289245654031
 20
1388.4332806357183
 10
406.8720905467053
 20
1389.087388393845
 10
406.121423867293
 20
1389.74856479052
 10
405.3769905439083
 20
1390.416751679148
 10
404.63885604510585
 20
1391.091890296602
 10
403.90708528549567
 20
1391.7739212683914
 10
403.18174262003424
 20
1392.4627846138824
 10
402.46289183836456
 20
1393.1584197515754
 10
401.75059615920657
 20
1393.86076550443
 10
401.04491822479736
 20
1394.5697601052473
 10
400.3459200953819
 20
1395.2853412021007
 10
399.65366324375566
 20
1396.0074458638196
 10
398.9682085498579
 20
1396.736010585525
 10
398.28961629541806
 20
1397.4709712942126
 10
397.61794615865415
 20
1398.2122633543881
 10
396.9532572090245
 20
1398.9598215737533
 10
396.29560790203277
 20
1399.7135802089365
 10
395.6450560740874
 20
1400.4734729712768
 10
395.00165893741473
 20
1401.2394330326517
 10
394.36547307502843
 20
1402.0113930313562
 10
393.7365544357523
 20
1402.7892850780254
 10
393.1149583293006
 20
1403.5730407616056
 10
392.50073942141364
 20
1404.3625911553704
 10
391.89395172905034
 20
1405.1578668229827
 10
391.2946486156376
 20
1405.9587978246013
 10
390.7028827863775
 20
1406.7653137230313
 10
390.11870628361186
 20
1407.5773435899182
 10
389.542170482246
 20
1408.3948160119876
 10
388.97332608523
 20
1409.2176590973224
 10
388.4122231191
 20
1410.0458004816887
 10
387.85891092957866
 20
1410.8791673348976
 10
387.3134381772353
 20
1411.7176863672105
 10
386.77585283320667
 20
1412.5612838357852
 10
386.2462021749781
 20
1413.4098855511606
 10
385.7245327822259
 20
1414.2634168837815
 10
385.2108905327204
 20
1415.1218027705613
 10
384.705320598292
 20
1415.9849677214847
 10
384.2078674408582
 20
1416.8528358262442
 10
383.71857480851327
 20
1417.725330760919
 10
383.23748573168115
 20
1418.6023757946846
 10
382.764642519331
 20
1419.4838937965624
 10
382.3000867552567
 20
1420.3698072422021
 10
381.84385929441925
 20
1421.2600382207004
 10
381.39600025935425
 20
1422.1545084414515
 10
380.95654903664325
 20
1423.0531392410337
 10
380.5255442734498
 20
1423.9558515901265
 10
380.10302387412077
 20
1424.862566100461
 10
379.689024996853
 20
1425.7732030318014
 10
379.28358405042525
 20
1426.6876822989584
 10
378.8867366909963
 20
1427.605923478831
 10
378.4985178189693
 20
1428.5278458174812
 10
378.11896157592236
 20
1429.4533682372335
 10
377.7481013416061
 20
1430.382409343807
 10
377.3859697310081
 20
1431.314887433472
 10
377.0325985914845
 20
1432.2507205002375
 10
376.68801899995924
 20
1433.1898262430614
 10
376.3522612601911
 20
1434.132122073088
 10
376.0253549001087
 20
1435.0775251209136
 10
375.70732866921344
 20
1436.0259522438719
 10
375.39821053605147
 20
1436.9773200333468
 10
375.0980276857538
 20
1437.9315448221084
 10
374.8068065176455
 20
1438.8885426916702
 10
374.5245726429244
 20
1439.848229479669
 10
374.2513508824082
 20
1440.8105207872682
 10
373.98716526435203
 20
1441.7753319865774
 10
373.7320390223351
 20
1442.7425782280973
 10
373.4859945932175
 20
1443.7121744481806
 10
373.24905361516716
 20
1444.6840353765137
 10
373.0212369257565
 20
1445.6580755436148
 10
372.80256456013046
 20
1446.6342092883506
 10
372.59305574924394
 20
1447.6123507654697
 10
372.3927289181709
 20
1448.592413953153
 10
372.201601684484
 20
1449.5743126605785
 10
372.0196908567051
 20
1450.5579605354994
 10
371.8470124328269
 20
1451.5432710718417
 10
371.68358159890647
 20
1452.5301576173088
 10
371.5294127277294
 20
1453.518533381004
 10
371.3845193775457
 20
1454.5083114410622
 10
371.2489142908777
 20
1455.4994047522946
 10
371.1226093933993
 20
1456.4917261538444
 10
371.0056157928871
 20
1457.4851883768497
 10
370.8979437782438
 20
1458.4797040521223
 10
370.799602818593
 20
1459.4751857178276
 10
370.7106015624466
 20
1460.4715458271776
 10
370.63094783694436
 20
1461.4686967561315
 10
370.56064864716535
 20
1462.4665508110998
 10
370.49971017551195
 20
1463.465020236657
 10
370.4481377811661
 20
1464.4640172232598
 10
370.4059359996182
 20
1465.4634539149688
 10
370.3731085422679
 20
1466.4632424171753
 10
370.3496582960981
 20
1467.4632948043304
 10
370.33558732342067
 20
1468.4635231276784
 10
370.33089686169524
 20
1469.4638394229914
 10
327.0
 20
1469.4638394229914
 10
327.0
 20
1259.0
 10
627.0
 20
1259.0
  0
TEXT
  5
43
330
17
100
AcDbEntity
  8
NOTES
100
AcDbText
 10
337.0
 20
1269.0
 30
0.0
 40
12.0
  1
saddle-1
 11
337.0
 21
1269.0
 31
0.0
100
AcDbText
  0
LWPOLYLINE
  5
44
330
17
100
AcDbEntity
  8
CUT_OUTSIDE
100
AcDbPolyline
 90
121
 70
1
 10
789.0
 20
1259.0
 10
789.0
 20
1469.4638394229914
 10
750.8172651056522
 20
1469.4638394229914
 10
750.8035278941561
 20
1468.4581832173474
 10
750.7623265108897
 20
1467.453277470052
 10
750.6936917018694
 20
1466.449872079434
 10
750.5976746849619
 20
1465.4487158242
 10
750.4743471116634
 20
1464.4505558046667
 10
750.323801013631
 20
1463.4561368852483
 10
750.146148734005
 20
1462.466201138609
 10
749.9415228435743
 20
1461.4814872919023
 10
749.7100760418466
 20
1460.502730175504
 10
749.4519810430993
 20
1459.5306601746543
 10
749.167430447493
 20
1458.5660026844175
 10
748.8566365973458
 20
1457.6094775683641
 10
748.5198314186761
 20
1456.6617986213828
 10
748.1572662481303
 20
1455.7236730370191
 10
747.7692116454266
 20
1454.7958008797418
 10
747.3559571914518
 20
1453.8788745625275
 10
746.917811272167
 20
1452.9735783301567
 10
746.4551008484773
 20
1452.0805877486055
 10
745.9681712122411
 20
1451.2005692009116
 10
745.4573857286016
 20
1450.334179389895
 10
744.9231255648286
 20
1449.4820648481018
 10
744.3657894058787
 20
1448.6448614553367
 10
743.7857931568803
 20
1447.8231939641469
 10
743.1835696327706
 20
1447.0176755336072
 10
742.5595682353122
 20
1446.228907271758
 10
741.9142546177331
 20
1445.457477787037
 10
741.2481103372388
 20
1444.703962749035
 10
740.5616324956557
 20
1443.968924458913
 10
739.8553333684758
 20
1443.252911429789
 10
739.1297400225774
 20
1442.556457977419
 10
738.3853939229074
 20
1441.8800838214693
 10
737.6228505284207
 20
1441.2242936976836
 10
736.8426788775757
 20
1440.5895769812282
 10
736.0454611636958
 20
1439.9764073215038
 10
735.231792300516
 20
1439.3852422886898
 10
734.402279478235
 20
1438.8165230322884
 10
733.5575417104079
 20
1438.2706739519222
 10
732.6982093720146
 20
1437.7481023806308
 10
731.8249237290505
 20
1437.2491982809051
 10
730.9383364599897
 20
1436.7743339536814
 10
730.0391091694784
 20
1436.3238637605168
 10
729.1279128946202
 20
1435.898123859151
 10
728.2054276042237
 20
1435.4974319526536
 10
727.2723416913839
 20
1435.1220870523418
 10
726.3293514597772
 20
1434.7723692546467
 10
725.3771606040543
 20
1434.4485395320949
 10
724.416479684716
 20
1434.1508395385613
 10
723.4480255978674
 20
1433.8794914289379
 10
722.4725210402416
 20
1433.6346976933528
 10
721.4906939698978
 20
1433.416641006066
 10
720.5032770629912
 20
1433.2254840891487
 10
719.5110071670222
 20
1433.061369591057
 10
718.5146247509736
 20
1432.9244199801792
 10
717.5148733527451
 20
1432.8147374534474
 10
716.5124990242966
 20
1432.7324038600736
 10
715.5082497749174
 20
1432.677480640471
 10
714.5028750130326
 20
1432.6500087804038
 10
713.4971249869674
 20
1432.6500087804038
 10
712.4917502250826
 20
1432.677480640471
 10
711.4875009757034
 20
1432.7324038600736
 10
710.4851266472549
 20
1432.8147374534474
 10
709.4853752490263
 20
1432.9244199801792
 10
708.4889928329778
 20
1433.061369591057
 10
707.4967229370088
 20
1433.2254840891487
 10
706.5093060301022
 20
1433.416641006066
 10
705.5274789597585
 20
1433.6346976933528
 10
704.5519744021327
 20
1433.8794914289379
 10
703.583520315284
 20
1434.1508395385613
 10
702.6228393959458
 20
1434.4485395320949
 10
701.6706485402228
 20
1434.7723692546467
 10
700.7276583086161
 20
1435.1220870523418
 10
699.7945723957763
 20
1435.4974319526536
 10
698.8720871053798
 20
1435.898123859151
 10
697.9608908305216
 20
1436.3238637605168
 10
697.0616635400103
 20
1436.7743339536814
 10
696.1750762709496
 20
1437.2491982809051
 10
695.3017906279854
 20
1437.7481023806308
 10
694.4424582895921
 20
1438.270673951922
 10
693.597720521765
 20
1438.8165230322884
 10
692.768207699484
 20
1439.3852422886898
 10
691.9545388363042
 20
1439.9764073215038
 10
691.1573211224244
 20
1440.5895769812282
 10
690.3771494715793
 20
1441.2242936976836
 10
689.6146060770926
 20
1441.8800838214693
 10
688.8702599774226
 20
1442.556457977419
 10
688.1446666315242
 20
1443.252911429789
 10
687.4383675043443
 20
1443.968924458913
 10
686.7518896627612
 20
1444.703962749035
 10
686.0857453822669
 20
1445.457477787037
 10
685.4404317646878
 20
1446.228907271758
 10
684.8164303672294
 20
1447.0176755336072
 10
684.2142068431197
 20
1447.8231939641469
 10
683.6342105941213
 20
1448.6448614553367
 10
683.0768744351714
 20
1449.4820648481018
 10
682.5426142713985
 20
1450.334179389895
 10
682.0318287877589
 20
1451.2005692009116
 10
681.5448991515227
 20
1452.0805877486055
 10
681.082188727833
 20
1452.9735783301567
 10
680.6440428085482
 20
1453.8788745625275
 10
680.2307883545735
 20
1454.7958008797418
 10
679.8427337518697
 20
1455.7236730370191
 10
679.4801685813239
 20
1456.6617986213828
 10
679.1433634026542
 20
1457.6094775683641
 10
678.832569552507
 20
1458.5660026844175
 10
678.5480189569007
 20
1459.5306601746543
 10
678.2899239581534
 20
1460.502730175504
 10
678.0584771564257
 20
1461.4814872919023
 10
677.853851265995
 20
1462.466201138609
 10
677.676198986369
 20
1463.4561368852483
 10
677.5256528883366
 20
1464.4505558046667
 10
677.4023253150381
 20
1465.4487158242
 10
677.3063082981306
 20
1466.449872079434
 10
677.2376734891103
 20
1467.453277470052
 10
677.1964721058439
 20
1468.4581832173474
 10
677.1827348943478
 20
1469.4638394229914
 10
639.0
 20
1469.4638394229914
 10
639.0
 20
1259.0
 10
789.0
 20
1259.0
  0
TEXT
  5
45
330
17
100
AcDbEntity
  8
NOTES
100
AcDbText
 10
649.0
 20
1269.0
 30
0.0
 40
12.0
  1
saddle-2
 11
649.0
 21
1269.0
 31
0.0
100
AcDbText
  0
LWPOLYLINE
  5
46
330
17
100
AcDbEntity
  8
CUT_OUTSIDE
100
AcDbPolyline
 90
121
 70
1
 10
951.0
 20
1259.0
 10
951.0
 20
1469.4638394229914
 10
912.8172651056522
 20
1469.4638394229914
 10
912.8035278941561
 20
1468.4581832173474
 10
912.7623265108897
 20
1467.453277470052
 10
912.6936917018694
 20
1466.449872079434
 10
912.5976746849619
 20
1465.4487158242
 10
912.4743471116634
 20
1464.4505558046667
 10
912.323801013631
 20
1463.4561368852483
 10
912.146148734005
 20
1462.466201138609
 10
911.9415228435743
 20
1461.4814872919023
 10
911.7100760418466
 20
1460.502730175504
 10
911.4519810430993
 20
1459.5306601746543
 10
911.167430447493
 20
1458.5660026844175
 10
910.8566365973458
 20
1457.6094775683641
 10
910.5198314186761
 20
1456.6617986213828
 10
910.1572662481303
 20
1455.7236730370191
 10
909.7692116454266
 20
1454.7958008797418
 10
909.3559571914518
 20
1453.8788745625275
 10
908.917811272167
 20
1452.9735783301567
 10
908.4551008484773
 20
1452.0805877486055
 10
907.9681712122411
 20
1451.2005692009116
 10
907.4573857286016
 20
1450.334179389895
 10
906.9231255648286
 20
1449.4820648481018
 10
906.3657894058787
 20
1448.6448614553367
 10
905.7857931568803
 20
1447.8231939641469
 10
905.1835696327706
 20
1447.0176755336072
 10
904.5595682353122
 20
1446.228907271758
 10
903.9142546177331
 20
1445.457477787037
 10
903.2481103372388
 20
1444.703962749035
 10
902.5616324956557
 20
1443.968924458913
 10
901.8553333684758
 20
1443.252911429789
 10
901.1297400225774
 20
1442.556457977419
 10
900.3853939229074
 20
1441.8800838214693
 10
899.6228505284207
 20
1441.2242936976836
 10
898.8426788775757
 20
1440.5895769812282
 10
898.0454611636958
 20
1439.9764073215038
 10
897.231792300516
 20
1439.3852422886898
 10
896.402279478235
 20
1438.8165230322884
 10
895.5575417104079
 20
1438.2706739519222
 10
894.6982093720146
 20
1437.7481023806308
 10
893.8249237290505
 20
1437.2491982809051
 10
892.9383364599897
 20
1436.7743339536814
 10
892.0391091694784
 20
1436.3238637605168
 10
891.1279128946202
 20
1435.898123859151
 10
890.2054276042237
 20
1435.4974319526536
 10
889.2723416913839
 20
1435.1220870523418
 10
888.3293514597772
 20
1434.7723692546467
 10
887.3771606040543
 20
1434.4485395320949
 10
886.416479684716
 20
1434.1508395385613
 10
885.4480255978674
 20
1433.8794914289379
 10
884.4725210402416
 20
1433.6346976933528
 10
883.4906939698978
 20
1433.416641006066
 10
882.5032770629912
 20
1433.2254840891487
 10
881.5110071670222
 20
1433.061369591057
 10
880.5146247509736
 20
1432.9244199801792
 10
879.5148733527451
 20
1432.8147374534474
 10
878.5124990242966
 20
1432.7324038600736
 10
877.5082497749174
 20
1432.677480640471
 10
876.5028750130326
 20
1432.6500087804038
 10
875.4971249869674
 20
1432.6500087804038
 10
874.4917502250826
 20
1432.677480640471
 10
873.4875009757034
 20
1432.7324038600736
 10
872.4851266472549
 20
1432.8147374534474
 10
871.4853752490263
 20
1432.9244199801792
 10
870.4889928329778
 20
1433.061369591057
 10
869.4967229370088
 20
1433.2254840891487
 10
868.5093060301022
 20
1433.416641006066
 10
867.5274789597585
 20
1433.6346976933528
 10
866.5519744021327
 20
1433.8794914289379
 10
865.583520315284
 20
1434.1508395385613
 10
864.6228393959458
 20
1434.4485395320949
 10
863.6706485402228
 20
1434.7723692546467
 10
862.7276583086161
 20
1435.1220870523418
 10
861.7945723957763
 20
1435.4974319526536
 10
860.8720871053798
 20
1435.898123859151
 10
859.9608908305216
 20
1436.3238637605168
 10
859.0616635400103
 20
1436.7743339536814
 10
858.1750762709496
 20
1437.2491982809051
 10
857.3017906279854
 20
1437.7481023806308
 10
856.4424582895921
 20
1438.270673951922
 10
855.597720521765
 20
1438.8165230322884
 10
854.768207699484
 20
1439.3852422886898
 10
853.9545388363042
 20
1439.9764073215038
 10
853.1573211224244
 20
1440.5895769812282
 10
852.3771494715793
 20
1441.2242936976836
 10
851.6146060770926
 20
1441.8800838214693
 10
850.8702599774226
 20
1442.556457977419
 10
850.1446666315242
 20
1443.252911429789
 10
849.4383675043443
 20
1443.968924458913
 10
848.7518896627612
 20
1444.703962749035
 10
848.0857453822669
 20
1445.457477787037
 10
847.4404317646878
 20
1446.228907271758
 10
846.8164303672294
 20
1447.0176755336072
 10
846.2142068431197
 20
1447.8231939641469
 10
845.6342105941213
 20
1448.6448614553367
 10
845.0768744351714
 20
1449.4820648481018
 10
844.5426142713985
 20
1450.334179389895
 10
844.0318287877589
 20
1451.2005692009116
 10
843.5448991515227
 20
1452.0805877486055
 10
843.082188727833
 20
1452.9735783301567
 10
842.6440428085482
 20
1453.8788745625275
 10
842.2307883545735
 20
1454.7958008797418
 10
841.8427337518697
 20
1455.7236730370191
 10
841.4801685813239
 20
1456.6617986213828
 10
841.1433634026542
 20
1457.6094775683641
 10
840.832569552507
 20
1458.5660026844175
 10
840.5480189569007
 20
1459.5306601746543
 10
840.2899239581534
 20
1460.502730175504
 10
840.0584771564257
 20
1461.4814872919023
 10
839.853851265995
 20
1462.466201138609
 10
839.676198986369
 20
1463.4561368852483
 10
839.5256528883366
 20
1464.4505558046667
 10
839.4023253150381
 20
1465.4487158242
 10
839.3063082981306
 20
1466.449872079434
 10
839.2376734891103
 20
1467.453277470052
 10
839.1964721058439
 20
1468.4581832173474
 10
839.1827348943478
 20
1469.4638394229914
 10
801.0
 20
1469.4638394229914
 10
801.0
 20
1259.0
 10
951.0
 20
1259.0
  0
TEXT
  5
47
330
17
100
AcDbEntity
  8
NOTES
100
AcDbText
 10
811.0
 20
1269.0
 30
0.0
 40
12.0
  1
saddle-2
 11
811.0
 21
1269.0
 31
0.0
100
AcDbText
  0
ENDSEC
  0
SECTION
  2
OBJECTS
  0
DICTIONARY
  5
A
330
0
100
AcDbDictionary
281
1
  3
ACAD_COLOR
350
B
  3
ACAD_GROUP
350
C
  3
ACAD_LAYOUT
350
D
  3
ACAD_MATERIAL
350
E
  3
ACAD_MLEADERSTYLE
350
F
  3
ACAD_MLINESTYLE
350
10
  3
ACAD_PLOTSETTINGS
350
11
  3
ACAD_PLOTSTYLENAME
350
12
  3
ACAD_SCALELIST
350
14
  3
ACAD_TABLESTYLE
350
15
  3
ACAD_VISUALSTYLE
350
16
  3
EZDXF_META
350
2D
  0
DICTIONARY
  5
B
330
A
100
AcDbDictionary
281
1
  0
DICTIONARY
  5
C
330
A
100
AcDbDictionary
281
1
  0
DICTIONARY
  5
D
330
A
100
AcDbDictionary
281
1
  3
Model
350
1A
  3
Layout1
350
1E
  0
DICTIONARY
  5
E
330
A
100
AcDbDictionary
281
1
  3
ByBlock
350
1F
  3
ByLayer
350
20
  3
Global
350
21
  0
DICTIONARY
  5
F
330
A
100
AcDbDictionary
281
1
  3
Standard
350
2C
  0
DICTIONARY
  5
10
330
A
100
AcDbDictionary
281
1
  3
Standard
350
22
  0
DICTIONARY
  5
11
330
A
100
AcDbDictionary
281
1
  0
ACDBDICTIONARYWDFLT
  5
12
330
A
100
AcDbDictionary
281
1
  3
Normal
350
13
100
AcDbDictionaryWithDefault
340
13
  0
ACDBPLACEHOLDER
  5
13
330
12
  0
DICTIONARY
  5
14
330
A
100
AcDbDictionary
281
1
  0
DICTIONARY
  5
15
330
A
100
AcDbDictionary
281
1
  0
DICTIONARY
  5
16
330
A
100
AcDbDictionary
281
1
  0
LAYOUT
  5
1A
330
D
100
AcDbPlotSettings
  1

  4
A3
  6

 40
7.5
 41
20.0
 42
7.5
 43
20.0
 44
420.0
 45
297.0
 46
0.0
 47
0.0
 48
0.0
 49
0.0
140
0.0
141
0.0
142
1.0
143
1.0
 70
1024
 72
1
 73
0
 74
5
  7

 75
16
 76
0
 77
2
 78
300
147
1.0
148
0.0
149
0.0
100
AcDbLayout
  1
Model
 70
1
 71
0
 10
0.0
 20
0.0
 11
420.0
 21
297.0
 12
0.0
 22
0.0
 32
0.0
 14
1e+20
 24
1e+20
 34
1e+20
 15
-1e+20
 25
-1e+20
 35
-1e+20
146
0.0
 13
0.0
 23
0.0
 33
0.0
 16
1.0
 26
0.0
 36
0.0
 17
0.0
 27
1.0
 37
0.0
 76
1
330
17
  0
LAYOUT
  5
1E
330
D
100
AcDbPlotSettings
  1

  4
A3
  6

 40
7.5
 41
20.0
 42
7.5
 43
20.0
 44
420.0
 45
297.0
 46
0.0
 47
0.0
 48
0.0
 49
0.0
140
0.0
141
0.0
142
1.0
143
1.0
 70
0
 72
1
 73
0
 74
5
  7

 75
16
 76
0
 77
2
 78
300
147
1.0
148
0.0
149
0.0
100
AcDbLayout
  1
Layout1
 70
1
 71
1
 10
0.0
 20
0.0
 11
420.0
 21
297.0
 12
0.0
 22
0.0
 32
0.0
 14
1e+20
 24
1e+20
 34
1e+20
 15
-1e+20
 25
-1e+20
 35
-1e+20
146
0.0
 13
0.0
 23
0.0
 33
0.0
 16
1.0
 26
0.0
 36
0.0
 17
0.0
 27
1.0
 37
0.0
 76
1
330
1B
  0
MATERIAL
  5
1F
102
{ACAD_REACTORS
330
E
102
}
330
E
100
AcDbMaterial
  1
ByBlock
  2

 70
0
 40
1.0
 71
1
 41
1.0
 91
-1023410177
 42
1.0
 72
1
  3

 73
1
 74
1
 75
1
 44
0.5
 73
0
 45
1.0
 46
1.0
 77
1
  4

 78
1
 79
1
170
1
 48
1.0
171
1
  6

172
1
173
1
174
1
140
1.0
141
1.0
175
1
  7

176
1
177
1
178
1
143
1.0
179
1
  8

270
1
271
1
272
1
145
1.0
146
1.0
273
1
  9

274
1
275
1
276
1
 42
1.0
 72
1
  3

 73
1
 74
1
 75
1
 94
63
  0
MATERIAL
  5
20
102
{ACAD_REACTORS
330
E
102
}
330
E
100
AcDbMaterial
  1
ByLayer
  2

 70
0
 40
1.0
 71
1
 41
1.0
 91
-1023410177
 42
1.0
 72
1
  3

 73
1
 74
1
 75
1
 44
0.5
 73
0
 45
1.0
 46
1.0
 77
1
  4

 78
1
 79
1
170
1
 48
1.0
171
1
  6

172
1
173
1
174
1
140
1.0
141
1.0
175
1
  7

176
1
177
1
178
1
143
1.0
179
1
  8

270
1
271
1
272
1
145
1.0
146
1.0
273
1
  9

274
1
275
1
276
1
 42
1.0
 72
1
  3

 73
1
 74
1
 75
1
 94
63
  0
MATERIAL
  5
21
102
{ACAD_REACTORS
330
E
102
}
330
E
100
AcDbMaterial
  1
Global
  2

 70
0
 40
1.0
 71
1
 41
1.0
 91
-1023410177
 42
1.0
 72
1
  3

 73
1
 74
1
 75
1
 44
0.5
 73
0
 45
1.0
 46
1.0
 77
1
  4

 78
1
 79
1
170
1
 48
1.0
171
1
  6

172
1
173
1
174
1
140
1.0
141
1.0
175
1
  7

176
1
177
1
178
1
143
1.0
179
1
  8

270
1
271
1
272
1
145
1.0
146
1.0
273
1
  9

274
1
275
1
276
1
 42
1.0
 72
1
  3

 73
1
 74
1
 75
1
 94
63
  0
MLINESTYLE
  5
22
102
{ACAD_REACTORS
330
10
102
}
330
10
100
AcDbMlineStyle
  2
Standard
 70
0
  3

 62
256
 51
90.0
 52
90.0
 71
2
 49
0.5
 62
256
  6
BYLAYER
 49
-0.5
 62
256
  6
BYLAYER
  0
MLEADERSTYLE
  5
2C
102
{ACAD_REACTORS
330
F
102
}
330
F
100
AcDbMLeaderStyle
179
2
170
2
171
1
172
0
 90
2
 40
0.0
 41
0.0
173
1
 91
-1056964608
 92
-2
290
1
 42
2.0
291
1
 43
8.0
  3
Standard
 44
4.0
300

342
29
174
1
175
1
176
0
178
1
 93
-1056964608
 45
4.0
292
0
297
0
 46
4.0
 94
-1056964608
 47
1.0
 49
1.0
140
1.0
294
1
141
0.0
177
0
142
1.0
295
0
296
0
143
3.75
271
0
272
9
273
9
  0
DICTIONARY
  5
2D
330
A
100
AcDbDictionary
280
1
281
1
  3
CREATED_BY_EZDXF
350
2E
  3
WRITTEN_BY_EZDXF
350
4A
  0
DICTIONARYVAR
  5
2E
330
2D
100
DictionaryVariables
280
0
  1
1.4.4 @ 2026-10-10T18:57:11.224423+00:00
  0
DICTIONARYVAR
  5
4A
330
2D
100
DictionaryVariables
280
0
  1
1.4.4 @ 2026-10-10T18:57:11.230011+00:00
  0
ENDSEC
  0
EOF
