  0
SECTION
  2
HEADER
  9
$ACADVER
  1
AC1024
  9
$ACADMAINTVER
 70
6
  9
$DWGCODEPAGE
  3
ANSI_1252
  9
$LASTSAVEDBY
  1
ezdxf
  9
$INSBASE
 10
0.0
 20
0.0
 30
0.0
  9
$EXTMIN
 10
1e+20
 20
1e+20
 30
1e+20
  9
$EXTMAX
 10
-1e+20
 20
-1e+20
 30
-1e+20
  9
$LIMMIN
 10
0.0
 20
0.0
  9
$LIMMAX
 10
420.0
 20
297.0
  9
$ORTHOMODE
 70
0
  9
$REGENMODE
 70
1
  9
$FILLMODE
 70
1
  9
$QTEXTMODE
 70
0
  9
$MIRRTEXT
 70
1
  9
$LTSCALE
 40
1.0
  9
$ATTMODE
 70
1
  9
$TEXTSIZE
 40
2.5
  9
$TRACEWID
 40
1.0
  9
$TEXTSTYLE
  7
Standard
  9
$CLAYER
  8
0
  9
$CELTYPE
  6
ByLayer
  9
$CECOLOR
 62
256
  9
$CELTSCALE
 40
1.0
  9
$DISPSILH
 70
0
  9
$DIMSCALE
 40
1.0
  9
$DIMASZ
 40
2.5
  9
$DIMEXO
 40
0.625
  9
$DIMDLI
 40
3.75
  9
$DIMRND
 40
0.0
  9
$DIMDLE
 40
0.0
  9
$DIMEXE
 40
1.25
  9
$DIMTP
 40
0.0
  9
$DIMTM
 40
0.0
  9
$DIMTXT
 40
2.5
  9
$DIMCEN
 40
2.5
  9
$DIMTSZ
 40
0.0
  9
$DIMTOL
 70
0
  9
$DIMLIM
 70
0
  9
$DIMTIH
 70
0
  9
$DIMTOH
 70
0
  9
$DIMSE1
 70
0
  9
$DIMSE2
 70
0
  9
$DIMTAD
 70
1
  9
$DIMZIN
 70
8
  9
$DIMBLK
  1

  9
$DIMASO
 70
1
  9
$DIMSHO
 70
1
  9
$DIMPOST
  1

  9
$DIMAPOST
  1

  9
$DIMALT
 70
0
  9
$DIMALTD
 70
3
  9
$DIMALTF
 40
0.03937007874
  9
$DIMLFAC
 40
1.0
  9
$DIMTOFL
 70
1
  9
$DIMTVP
 40
0.0
  9
$DIMTIX
 70
0
  9
$DIMSOXD
 70
0
  9
$DIMSAH
 70
0
  9
$DIMBLK1
  1

  9
$DIMBLK2
  1

  9
$DIMSTYLE
  2
ISO-25
  9
$DIMCLRD
 70
0
  9
$DIMCLRE
 70
0
  9
$DIMCLRT
 70
0
  9
$DIMTFAC
 40
1.0
  9
$DIMGAP
 40
0.625
  9
$DIMJUST
 70
0
  9
$DIMSD1
 70
0
  9
$DIMSD2
 70
0
  9
$DIMTOLJ
 70
0
  9
$DIMTZIN
 70
8
  9
$DIMALTZ
 70
0
  9
$DIMALTTZ
 70
0
  9
$DIMUPT
 70
0
  9
$DIMDEC
 70
2
  9
$DIMTDEC
 70
2
  9
$DIMALTU
 70
2
  9
$DIMALTTD
 70
3
  9
$DIMTXSTY
  7
Standard
  9
$DIMAUNIT
 70
0
  9
$DIMADEC
 70
0
  9
$DIMALTRND
 40
0.0
  9
$DIMAZIN
 70
0
  9
$DIMDSEP
 70
44
  9
$DIMATFIT
 70
3
  9
$DIMFRAC
 70
0
  9
$DIMLDRBLK
  1

  9
$DIMLUNIT
 70
2
  9
$DIMLWD
 70
-2
  9
$DIMLWE
 70
-2
  9
$DIMTMOVE
 70
0
  9
$DIMFXL
 40
1.0
  9
$DIMFXLON
 70
0
  9
$DIMJOGANG
 40
0.785398163397
  9
$DIMTFILL
 70
0
  9
$DIMTFILLCLR
 70
0
  9
$DIMARCSYM
 70
0
  9
$DIMLTYPE
  6

  9
$DIMLTEX1
  6

  9
$DIMLTEX2
  6

  9
$DIMTXTDIRECTION
 70
0
  9
$LUNITS
 70
2
  9
$LUPREC
 70
4
  9
$SKETCHINC
 40
1.0
  9
$FILLETRAD
 40
10.0
  9
$AUNITS
 70
0
  9
$AUPREC
 70
2
  9
$MENU
  1
.
  9
$ELEVATION
 40
0.0
  9
$PELEVATION
 40
0.0
  9
$THICKNESS
 40
0.0
  9
$LIMCHECK
 70
0
  9
$CHAMFERA
 40
0.0
  9
$CHAMFERB
 40
0.0
  9
$CHAMFERC
 40
0.0
  9
$CHAMFERD
 40
0.0
  9
$SKPOLY
 70
0
  9
$TDCREATE
 40
2461325.0267592594
  9
$TDUCREATE
 40
2458532.153996898
  9
$TDUPDATE
 40
2461325.0267592594
  9
$TDUUPDATE
 40
2458532.1544311
  9
$TDINDWG
 40
0.0
  9
$TDUSRTIMER
 40
0.0
  9
$USRTIMER
 70
1
  9
$ANGBASE
 50
0.0
  9
$ANGDIR
 70
0
  9
$PDMODE
 70
0
  9
$PDSIZE
 40
0.0
  9
$PLINEWID
 40
0.0
  9
$SPLFRAME
 70
0
  9
$SPLINETYPE
 70
6
  9
$SPLINESEGS
 70
8
  9
$HANDSEED
  5
56
  9
$SURFTAB1
 70
6
  9
$SURFTAB2
 70
6
  9
$SURFTYPE
 70
6
  9
$SURFU
 70
6
  9
$SURFV
 70
6
  9
$UCSBASE
  2

  9
$UCSNAME
  2

  9
$UCSORG
 10
0.0
 20
0.0
 30
0.0
  9
$UCSXDIR
 10
1.0
 20
0.0
 30
0.0
  9
$UCSYDIR
 10
0.0
 20
1.0
 30
0.0
  9
$UCSORTHOREF
  2

  9
$UCSORTHOVIEW
 70
0
  9
$UCSORGTOP
 10
0.0
 20
0.0
 30
0.0
  9
$UCSORGBOTTOM
 10
0.0
 20
0.0
 30
0.0
  9
$UCSORGLEFT
 10
0.0
 20
0.0
 30
0.0
  9
$UCSORGRIGHT
 10
0.0
 20
0.0
 30
0.0
  9
$UCSORGFRONT
 10
0.0
 20
0.0
 30
0.0
  9
$UCSORGBACK
 10
0.0
 20
0.0
 30
0.0
  9
$PUCSBASE
  2

  9
$PUCSNAME
  2

  9
$PUCSORG
 10
0.0
 20
0.0
 30
0.0
  9
$PUCSXDIR
 10
1.0
 20
0.0
 30
0.0
  9
$PUCSYDIR
 10
0.0
 20
1.0
 30
0.0
  9
$PUCSORTHOREF
  2

  9
$PUCSORTHOVIEW
 70
0
  9
$PUCSORGTOP
 10
0.0
 20
0.0
 30
0.0
  9
$PUCSORGBOTTOM
 10
0.0
 20
0.0
 30
0.0
  9
$PUCSORGLEFT
 10
0.0
 20
0.0
 30
0.0
  9
$PUCSORGRIGHT
 10
0.0
 20
0.0
 30
0.0
  9
$PUCSORGFRONT
 10
0.0
 20
0.0
 30
0.0
  9
$PUCSORGBACK
 10
0.0
 20
0.0
 30
0.0
  9
$USERI1
 70
0
  9
$USERI2
 70
0
  9
$USERI3
 70
0
  9
$USERI4
 70
0
  9
$USERI5
 70
0
  9
$USERR1
 40
0.0
  9
$USERR2
 40
0.0
  9
$USERR3
 40
0.0
  9
$USERR4
 40
0.0
  9
$USERR5
 40
0.0
  9
$WORLDVIEW
 70
1
  9
$SHADEDGE
 70
3
  9
$SHADEDIF
 70
70
  9
$TILEMODE
 70
1
  9
$MAXACTVP
 70
64
  9
$PINSBASE
 10
0.0
 20
0.0
 30
0.0
  9
$PLIMCHECK
 70
0
  9
$PEXTMIN
 10
1e+20
 20
1e+20
 30
1e+20
  9
$PEXTMAX
 10
-1e+20
 20
-1e+20
 30
-1e+20
  9
$PLIMMIN
 10
0.0
 20
0.0
  9
$PLIMMAX
 10
420.0
 20
297.0
  9
$UNITMODE
 70
0
  9
$VISRETAIN
 70
1
  9
$PLINEGEN
 70
0
  9
$PSLTSCALE
 70
1
  9
$TREEDEPTH
 70
3020
  9
$CMLSTYLE
  2
Standard
  9
$CMLJUST
 70
0
  9
$CMLSCALE
 40
20.0
  9
$PROXYGRAPHICS
 70
1
  9
$MEASUREMENT
 70
1
  9
$CELWEIGHT
370
-1
  9
$ENDCAPS
280
0
  9
$JOINSTYLE
280
0
  9
$LWDISPLAY
290
0
  9
$INSUNITS
 70
4
  9
$HYPERLINKBASE
  1

  9
$STYLESHEET
  1

  9
$XEDIT
290
1
  9
$CEPSNTYPE
380
0
  9
$PSTYLEMODE
290
1
  9
$FINGERPRINTGUID
  2
{FF0053F0-C3D4-400D-82FA-4EDF12AEC50B}
  9
$VERSIONGUID
  2
{5A403742-B048-40BB-ADBA-E97299EB339D}
  9
$EXTNAMES
290
1
  9
$PSVPSCALE
 40
0.0
  9
$OLESTARTUP
290
0
  9
$SORTENTS
280
127
  9
$INDEXCTL
280
0
  9
$HIDETEXT
280
1
  9
$XCLIPFRAME
280
1
  9
$HALOGAP
280
0
  9
$OBSCOLOR
 70
257
  9
$OBSLTYPE
280
0
  9
$INTERSECTIONDISPLAY
280
0
  9
$INTERSECTIONCOLOR
 70
257
  9
$DIMASSOC
280
2
  9
$PROJECTNAME
  1

  9
$CAMERADISPLAY
290
0
  9
$LENSLENGTH
 40
50.0
  9
$CAMERAHEIGHT
 40
0.0
  9
$STEPSPERSEC
 40
24.0
  9
$STEPSIZE
 40
100.0
  9
$3DDWFPREC
 40
2.0
  9
$PSOLWIDTH
 40
0.005
  9
$PSOLHEIGHT
 40
0.08
  9
$LOFTANG1
 40
1.570796326795
  9
$LOFTANG2
 40
1.570796326795
  9
$LOFTMAG1
 40
0.0
  9
$LOFTMAG2
 40
0.0
  9
$LOFTPARAM
 70
7
  9
$LOFTNORMALS
280
1
  9
$LATITUDE
 40
37.795
  9
$LONGITUDE
 40
-122.394
  9
$NORTHDIRECTION
 40
0.0
  9
$TIMEZONE
 70
-8000
  9
$LIGHTGLYPHDISPLAY
280
1
  9
$TILEMODELIGHTSYNCH
280
1
  9
$CMATERIAL
347
20
  9
$SOLIDHIST
280
0
  9
$SHOWHIST
280
1
  9
$DWFFRAME
280
2
  9
$DGNFRAME
280
2
  9
$REALWORLDSCALE
290
1
  9
$INTERFERECOLOR
 62
256
  9
$CSHADOW
280
0
  9
$SHADOWPLANELOCATION
 40
0.0
  0
ENDSEC
  0
SECTION
  2
CLASSES
  0
CLASS
  1
ACDBDICTIONARYWDFLT
  2
AcDbDictionaryWithDefault
  3
ObjectDBX Classes
 90
0
 91
0
280
0
281
0
  0
CLASS
  1
SUN
  2
AcDbSun
  3
SCENEOE
 90
1153
 91
0
280
0
281
0
  0
CLASS
  1
VISUALSTYLE
  2
AcDbVisualStyle
  3
ObjectDBX Classes
 90
4095
 91
0
280
0
281
0
  0
CLASS
  1
MATERIAL
  2
AcDbMaterial
  3
ObjectDBX Classes
 90
1153
 91
0
280
0
281
0
  0
CLASS
  1
SCALE
  2
AcDbScale
  3
ObjectDBX Classes
 90
1153
 91
0
280
0
281
0
  0
CLASS
  1
TABLESTYLE
  2
AcDbTableStyle
  3
ObjectDBX Classes
 90
4095
 91
0
280
0
281
0
  0
CLASS
  1
MLEADERSTYLE
  2
AcDbMLeaderStyle
  3
ACDB_MLEADERSTYLE_CLASS
 90
4095
 91
0
280
0
281
0
  0
CLASS
  1
DICTIONARYVAR
  2
AcDbDictionaryVar
  3
ObjectDBX Classes
 90
0
 91
0
280
0
281
0
  0
CLASS
  1
CELLSTYLEMAP
  2
AcDbCellStyleMap
  3
ObjectDBX Classes
 90
1152
 91
0
280
0
281
0
  0
CLASS
  1
MENTALRAYRENDERSETTINGS
  2
AcDbMentalRayRenderSettings
  3
SCENEOE
 90
1024
 91
0
280
0
281
0
  0
CLASS
  1
ACDBDETAILVIEWSTYLE
  2
AcDbDetailViewStyle
  3
ObjectDBX Classes
 90
1025
 91
0
280
0
281
0
  0
CLASS
  1
ACDBSECTIONVIEWSTYLE
  2
AcDbSectionViewStyle
  3
ObjectDBX Classes
 90
1025
 91
0
280
0
281
0
  0
CLASS
  1
RASTERVARIABLES
  2
AcDbRasterVariables
  3
ISM
 90
0
 91
0
280
0
281
0
  0
CLASS
  1
LAYOUT
  2
AcDbLayout
  3
ObjectDBX Classes
 90
0
 91
0
280
0
281
0
  0
CLASS
  1
ACDBPLACEHOLDER
  2
AcDbPlaceHolder
  3
ObjectDBX Classes
 90
0
 91
0
280
0
281
0
  0
ENDSEC
  0
SECTION
  2
TABLES
  0
TABLE
  2
VPORT
  5
8
330
0
100
AcDbSymbolTable
 70
1
  0
VPORT
  5
23
330
8
100
AcDbSymbolTableRecord
100
AcDbViewportTableRecord
  2
*Active
 70
0
 10
0.0
 20
0.0
 11
1.0
 21
1.0
 12
0.0
 22
0.0
 13
0.0
 23
0.0
 14
0.5
 24
0.5
 15
0.5
 25
0.5
 16
0.0
 26
0.0
 36
1.0
 17
0.0
 27
0.0
 37
0.0
 40
1000.0
 41
1.34
 42
50.0
 43
0.0
 44
0.0
 50
0.0
 51
0.0
 71
0
 72
1000
 73
1
 74
3
 75
0
 76
0
 77
0
 78
0
281
0
 65
0
146
0.0
  0
ENDTAB
  0
TABLE
  2
LTYPE
  5
2
330
0
100
AcDbSymbolTable
 70
3
  0
LTYPE
  5
24
330
2
100
AcDbSymbolTableRecord
100
AcDbLinetypeTableRecord
  2
ByBlock
 70
0
  3

 72
65
 73
0
 40
0.0
  0
LTYPE
  5
25
330
2
100
AcDbSymbolTableRecord
100
AcDbLinetypeTableRecord
  2
ByLayer
 70
0
  3

 72
65
 73
0
 40
0.0
  0
LTYPE
  5
26
330
2
100
AcDbSymbolTableRecord
100
AcDbLinetypeTableRecord
  2
Continuous
 70
0
  3

 72
65
 73
0
 40
0.0
  0
ENDTAB
  0
TABLE
  2
LAYER
  5
1
330
0
100
AcDbSymbolTable
 70
5
  0
LAYER
  5
27
330
1
100
AcDbSymbolTableRecord
100
AcDbLayerTableRecord
  2
0
 70
0
 62
7
  6
Continuous
370
-3
390
13
347
21
  0
LAYER
  5
28
330
1
100
AcDbSymbolTableRecord
100
AcDbLayerTableRecord
  2
Defpoints
 70
0
 62
7
  6
Continuous
290
0
370
-3
390
13
347
21
  0
LAYER
  5
30
330
1
100
AcDbSymbolTableRecord
100
AcDbLayerTableRecord
  2
CUT_OUTSIDE
 70
0
 62
1
  6
Continuous
370
-3
390
13
347
21
  0
LAYER
  5
32
330
1
100
AcDbSymbolTableRecord
100
AcDbLayerTableRecord
  2
CUT_INSIDE
 70
0
 62
5
  6
Continuous
370
-3
390
13
347
21
  0
LAYER
  5
3F
330
1
100
AcDbSymbolTableRecord
100
AcDbLayerTableRecord
  2
POCKET_11MM
 70
0
 62
3
  6
Continuous
370
-3
390
13
347
21
  0
ENDTAB
  0
TABLE
  2
STYLE
  5
5
330
0
100
AcDbSymbolTable
 70
1
  0
STYLE
  5
29
330
5
100
AcDbSymbolTableRecord
100
AcDbTextStyleTableRecord
  2
Standard
 70
0
 40
0.0
 41
1.0
 50
0.0
 71
0
 42
2.5
  3
txt
  4

  0
ENDTAB
  0
TABLE
  2
VIEW
  5
7
330
0
100
AcDbSymbolTable
 70
0
  0
ENDTAB
  0
TABLE
  2
UCS
  5
6
330
0
100
AcDbSymbolTable
 70
0
  0
ENDTAB
  0
TABLE
  2
APPID
  5
3
330
0
100
AcDbSymbolTable
 70
3
  0
APPID
  5
2A
330
3
100
AcDbSymbolTableRecord
100
AcDbRegAppTableRecord
  2
ACAD
 70
0
  0
APPID
  5
53
330
3
100
AcDbSymbolTableRecord
100
AcDbRegAppTableRecord
  2
HATCHBACKGROUNDCOLOR
 70
0
  0
APPID
  5
54
330
3
100
AcDbSymbolTableRecord
100
AcDbRegAppTableRecord
  2
EZDXF
 70
0
  0
ENDTAB
  0
TABLE
  2
DIMSTYLE
  5
4
330
0
100
AcDbSymbolTable
 70
1
100
AcDbDimStyleTable
  0
DIMSTYLE
105
2B
330
4
100
AcDbSymbolTableRecord
100
AcDbDimStyleTableRecord
  2
Standard
 70
0
 40
1.0
 41
2.5
 42
0.625
 43
3.75
 44
1.25
 45
0.0
 46
0.0
 47
0.0
 48
0.0
 49
2.5
140
2.5
141
2.5
142
0.0
143
0.03937007874
144
1.0
145
0.0
146
1.0
147
0.625
148
0.0
 69
0
 70
0
 71
0
 72
0
 73
0
 74
0
 75
0
 76
0
 77
1
 78
8
 79
3
170
0
171
3
172
1
173
0
174
0
175
0
176
0
177
0
178
0
179
2
271
2
272
2
273
2
274
3
275
0
276
0
277
2
278
44
279
0
280
0
281
0
282
0
283
0
284
8
285
0
286
0
288
0
289
3
290
0
371
-2
372
-2
  0
ENDTAB
  0
TABLE
  2
BLOCK_RECORD
  5
9
330
0
100
AcDbSymbolTable
 70
2
  0
BLOCK_RECORD
  5
17
330
9
100
AcDbSymbolTableRecord
100
AcDbBlockTableRecord
  2
*Model_Space
340
1A
 70
0
280
1
281
0
  0
BLOCK_RECORD
  5
1B
330
9
100
AcDbSymbolTableRecord
100
AcDbBlockTableRecord
  2
*Paper_Space
340
1E
 70
0
280
1
281
0
  0
ENDTAB
  0
ENDSEC
  0
SECTION
  2
BLOCKS
  0
BLOCK
  5
18
330
17
100
AcDbEntity
  8
0
100
AcDbBlockBegin
  2
*Model_Space
 70
0
 10
0.0
 20
0.0
 30
0.0
  3
*Model_Space
  1

  0
ENDBLK
  5
19
330
17
100
AcDbEntity
  8
0
100
AcDbBlockEnd
  0
BLOCK
  5
1C
330
1B
100
AcDbEntity
  8
0
100
AcDbBlockBegin
  2
*Paper_Space
 70
0
 10
0.0
 20
0.0
 30
0.0
  3
*Paper_Space
  1

  0
ENDBLK
  5
1D
330
1B
100
AcDbEntity
  8
0
100
AcDbBlockEnd
  0
ENDSEC
  0
SECTION
  2
ENTITIES
  0
LWPOLYLINE
  5
2F
330
17
100
AcDbEntity
  8
SHEET_EDGE
100
AcDbPolyline
 90
4
 70
1
 10
0.0
 20
0.0
 10
1525.0
 20
0.0
 10
1525.0
 20
1525.0
 10
0.0
 20
1525.0
  0
LWPOLYLINE
  5
31
330
17
100
AcDbEntity
  8
CUT_OUTSIDE
100
AcDbPolyline
 90
5
 70
1
 10
15.0
 20
895.0
 10
15.0
 20
15.0
 10
435.0
 20
15.0
 10
435.0
 20
895.0
 10
15.0
 20
895.0
  0
TEXT
  5
33
330
17
100
AcDbEntity
  8
NOTES
100
AcDbText
 10
25.0
 20
25.0
 30
0.0
 40
12.0
  1
right
 11
25.0
 21
25.0
 31
0.0
100
AcDbText
  0
LWPOLYLINE
  5
34
330
17
100
AcDbEntity
  8
CUT_OUTSIDE
100
AcDbPolyline
 90
5
 70
1
 10
447.0
 20
15.0
 10
971.0
 20
15.0
 10
971.0
 20
859.0
 10
447.0
 20
859.0
 10
447.0
 20
15.0
  0
LWPOLYLINE
  5
35
330
17
100
AcDbEntity
  8
CUT_INSIDE
100
AcDbPolyline
 90
5
 70
1
 10
938.1999999999999
 20
164.2
 10
829.8
 20
164.2
 10
829.8
 20
55.800000000000004
 10
938.1999999999999
 20
55.8
 10
938.2
 20
164.2
  0
CIRCLE
  5
36
330
17
100
AcDbEntity
  8
CUT_INSIDE
100
AcDbCircle
 10
637.2468564315456
 20
301.77258765413376
 30
0.0
 40
3.5
  0
CIRCLE
  5
37
330
17
100
AcDbEntity
  8
CUT_INSIDE
100
AcDbCircle
 10
535.7725876541338
 20
403.24685643154567
 30
0.0
 40
3.5
  0
CIRCLE
  5
38
330
17
100
AcDbEntity
  8
CUT_INSIDE
100
AcDbCircle
 10
535.7725876541338
 20
546.7531435684543
 30
0.0
 40
3.5
  0
CIRCLE
  5
39
330
17
100
AcDbEntity
  8
CUT_INSIDE
100
AcDbCircle
 10
709.0
 20
475.0
 30
0.0
 40
178.0
  0
CIRCLE
  5
3A
330
17
100
AcDbEntity
  8
CUT_INSIDE
100
AcDbCircle
 10
637.2468564315457
 20
648.2274123458662
 30
0.0
 40
3.5
  0
CIRCLE
  5
3B
330
17
100
AcDbEntity
  8
CUT_INSIDE
100
AcDbCircle
 10
780.7531435684543
 20
301.77258765413376
 30
0.0
 40
3.5
  0
CIRCLE
  5
3C
330
17
100
AcDbEntity
  8
CUT_INSIDE
100
AcDbCircle
 10
780.7531435684543
 20
648.2274123458662
 30
0.0
 40
3.5
  0
CIRCLE
  5
3D
330
17
100
AcDbEntity
  8
CUT_INSIDE
100
AcDbCircle
 10
882.2274123458662
 20
403.24685643154555
 30
0.0
 40
3.5
  0
CIRCLE
  5
3E
330
17
100
AcDbEntity
  8
CUT_INSIDE
100
AcDbCircle
 10
882.2274123458662
 20
546.7531435684543
 30
0.0
 40
3.5
  0
LWPOLYLINE
  5
40
330
17
100
AcDbEntity
  8
POCKET_11MM
100
AcDbPolyline
 90
401
 70
1
 10
906.3
 20
475.00000000000006
 10
906.2756595886317
 20
478.0990537056222
 10
906.2026443601588
 20
481.19734276611473
 10
906.0809723299967
 20
484.2941027250125
 10
905.910673518898
 20
487.3885695031337
 10
905.6917899455461
 20
490.4799795871038
 10
905.4243756161877
 20
493.5675702177428
 10
905.108496511307
 20
496.65057957826315
 10
904.7442305693464
 20
499.7282469822373
 10
904.3316676674768
 20
502.79981306128514
 10
903.8709095994207
 20
505.8645199524376
 10
903.3620700503369
 20
508.92161148512736
 10
902.8052745687703
 20
511.9703333677637
 10
902.2006605356744
 20
515.0099333738399
 10
901.5483771305148
 20
518.0396615275379
 10
900.8485852944616
 20
521.0587702887701
 10
900.1014576906789
 20
524.066514737626
 10
899.3071786617236
 20
527.0621527581682
 10
898.4659441840608
 20
530.04494522154
 10
897.5779618197106
 20
533.0141561683334
 10
896.6434506650337
 20
535.9690529901774
 10
895.6626412966747
 20
538.9089066104949
 10
894.6357757146686
 20
541.832991664396
 10
893.5631072827329
 20
544.7405866776475
 10
892.4449006657519
 20
547.6309742446871
 10
891.2814317644768
 20
550.5034412056324
 10
890.0729876474495
 20
553.3572788222423
 10
888.8198664801733
 20
556.1917829527879
 10
887.5223774515456
 20
559.0062542257889
 10
886.1808406975695
 20
561.7999982125721
 10
884.7955872223649
 20
564.5723255986127
 10
883.3669588164992
 20
567.3225523536112
 10
881.8953079726543
 20
570.0499999002684
 10
880.380997798655
 20
572.7539952817142
 10
878.824401927878
 20
575.4338713275484
 10
877.2259044270625
 20
578.0889668184567
 10
875.5858997015476
 20
580.718626649356
 10
873.9047923979597
 20
583.3222019910315
 10
872.182997304371
 20
585.8990504502254
 10
870.4209392479571
 20
588.4485362281389
 10
868.6190529901771
 20
590.970030277305
 10
866.7777831195028
 20
593.4629104567971
 10
864.8975839417237
 20
595.9265616857323
 10
862.9789193678525
 20
598.3603760950347
 10
861.0222627996633
 20
600.7637531774164
 10
859.0280970128861
 20
603.1360999355454
 10
856.9969140380896
 20
605.4768310283566
 10
854.9292150392796
 20
607.7853689154783
 10
852.8255101902445
 20
610.0611439997303
 10
850.686318548677
 20
612.3035947676638
 10
848.5121679281058
 20
614.5121679281059
 10
846.3035947676636
 20
616.6863185486771
 10
844.0611439997302
 20
618.8255101902445
 10
841.7853689154781
 20
620.9292150392798
 10
839.4768310283564
 20
622.9969140380898
 10
837.1360999355452
 20
625.0280970128862
 10
834.7637531774164
 20
627.0222627996633
 10
832.3603760950344
 20
628.9789193678527
 10
829.9265616857322
 20
630.8975839417237
 10
827.4629104567969
 20
632.777783119503
 10
824.9700302773049
 20
634.6190529901771
 10
822.4485362281389
 20
636.4209392479571
 10
819.8990504502252
 20
638.1829973043712
 10
817.3222019910313
 20
639.9047923979598
 10
814.7186266493561
 20
641.5858997015475
 10
812.0889668184568
 20
643.2259044270623
 10
809.4338713275481
 20
644.8244019278782
 10
806.753995281714
 20
646.3809977986552
 10
804.0499999002684
 20
647.8953079726543
 10
801.3225523536111
 20
649.3669588164993
 10
798.5723255986126
 20
650.795587222365
 10
795.7999982125721
 20
652.1808406975695
 10
793.0062542257888
 20
653.5223774515457
 10
790.191782952788
 20
654.8198664801733
 10
787.357278822242
 20
656.0729876474495
 10
784.5034412056323
 20
657.2814317644768
 10
781.630974244687
 20
658.444900665752
 10
778.7405866776473
 20
659.5631072827329
 10
775.8329916643959
 20
660.6357757146687
 10
772.9089066104948
 20
661.6626412966747
 10
769.969052990177
 20
662.6434506650338
 10
767.0141561683336
 20
663.5779618197105
 10
764.0449452215398
 20
664.465944184061
 10
761.0621527581682
 20
665.3071786617236
 10
758.0665147376259
 20
666.1014576906789
 10
755.05877028877
 20
666.8485852944616
 10
752.0396615275379
 20
667.5483771305148
 10
749.0099333738399
 20
668.2006605356744
 10
745.9703333677634
 20
668.8052745687703
 10
742.9216114851274
 20
669.3620700503369
 10
739.8645199524375
 20
669.8709095994207
 10
736.799813061285
 20
670.3316676674768
 10
733.7282469822372
 20
670.7442305693464
 10
730.6505795782631
 20
671.108496511307
 10
727.567570217743
 20
671.4243756161877
 10
724.4799795871037
 20
671.6917899455461
 10
721.3885695031333
 20
671.910673518898
 10
718.2941027250126
 20
672.0809723299967
 10
715.1973427661146
 20
672.2026443601588
 10
712.0990537056222
 20
672.2756595886317
 10
709.0
 20
672.3
 10
705.9009462943777
 20
672.2756595886317
 10
702.8026572338853
 20
672.2026443601588
 10
699.7058972749874
 20
672.0809723299967
 10
696.6114304968663
 20
671.910673518898
 10
693.5200204128962
 20
671.6917899455461
 10
690.432429782257
 20
671.4243756161877
 10
687.3494204217367
 20
671.108496511307
 10
684.2717530177626
 20
670.7442305693464
 10
681.2001869387149
 20
670.3316676674768
 10
678.1354800475624
 20
669.8709095994207
 10
675.0783885148724
 20
669.3620700503369
 10
672.0296666322363
 20
668.8052745687703
 10
668.9900666261601
 20
668.2006605356744
 10
665.960338472462
 20
667.5483771305148
 10
662.9412297112298
 20
666.8485852944616
 10
659.933485262374
 20
666.1014576906789
 10
656.9378472418318
 20
665.3071786617236
 10
653.95505477846
 20
664.4659441840608
 10
650.9858438316664
 20
663.5779618197105
 10
648.0309470098229
 20
662.6434506650338
 10
645.0910933895051
 20
661.6626412966747
 10
642.167008335604
 20
660.6357757146686
 10
639.2594133223524
 20
659.5631072827327
 10
636.3690257553129
 20
658.4449006657519
 10
633.4965587943677
 20
657.2814317644768
 10
630.6427211777577
 20
656.0729876474495
 10
627.8082170472119
 20
654.8198664801733
 10
624.9937457742111
 20
653.5223774515456
 10
622.2000017874279
 20
652.1808406975695
 10
619.4276744013873
 20
650.7955872223649
 10
616.6774476463888
 20
649.3669588164992
 10
613.9500000997314
 20
647.8953079726542
 10
611.2460047182858
 20
646.380997798655
 10
608.5661286724517
 20
644.8244019278781
 10
605.9110331815432
 20
643.2259044270623
 10
603.2813733506439
 20
641.5858997015475
 10
600.6777980089685
 20
639.9047923979597
 10
598.1009495497746
 20
638.182997304371
 10
595.5514637718611
 20
636.4209392479571
 10
593.0299697226949
 20
634.619052990177
 10
590.5370895432029
 20
632.7777831195028
 10
588.0734383142677
 20
630.8975839417237
 10
585.6396239049654
 20
628.9789193678525
 10
583.2362468225834
 20
627.0222627996632
 10
580.8639000644547
 20
625.0280970128861
 10
578.5231689716434
 20
622.9969140380896
 10
576.2146310845218
 20
620.9292150392798
 10
573.9388560002697
 20
618.8255101902445
 10
571.6964052323362
 20
616.686318548677
 10
569.4878320718941
 20
614.5121679281058
 10
567.3136814513229
 20
612.3035947676638
 10
565.1744898097555
 20
610.0611439997303
 10
563.0707849607202
 20
607.7853689154781
 10
561.0030859619103
 20
605.4768310283565
 10
558.9719029871139
 20
603.1360999355453
 10
556.9777372003368
 20
600.7637531774164
 10
555.0210806321475
 20
598.3603760950346
 10
553.1024160582763
 20
595.9265616857323
 10
551.2222168804971
 20
593.462910456797
 10
549.3809470098229
 20
590.9700302773049
 10
547.5790607520428
 20
588.4485362281387
 10
545.817002695629
 20
585.8990504502253
 10
544.0952076020403
 20
583.3222019910314
 10
542.4141002984524
 20
580.718626649356
 10
540.7740955729375
 20
578.0889668184566
 10
539.1755980721219
 20
575.4338713275482
 10
537.6190022013449
 20
572.753995281714
 10
536.1046920273457
 20
570.0499999002684
 10
534.6330411835008
 20
567.3225523536112
 10
533.2044127776351
 20
564.5723255986126
 10
531.8191593024305
 20
561.7999982125721
 10
530.4776225484544
 20
559.0062542257889
 10
529.1801335198267
 20
556.191782952788
 10
527.9270123525505
 20
553.3572788222422
 10
526.7185682355231
 20
550.5034412056322
 10
525.555099334248
 20
547.6309742446871
 10
524.4368927172671
 20
544.7405866776475
 10
523.3642242853313
 20
541.8329916643959
 10
522.3373587033253
 20
538.9089066104948
 10
521.3565493349662
 20
535.9690529901771
 10
520.4220381802895
 20
533.0141561683336
 10
519.5340558159392
 20
530.0449452215398
 10
518.6928213382764
 20
527.062152758168
 10
517.8985423093211
 20
524.0665147376259
 10
517.1514147055384
 20
521.0587702887701
 10
516.4516228694852
 20
518.0396615275378
 10
515.7993394643256
 20
515.0099333738399
 10
515.1947254312297
 20
511.9703333677635
 10
514.6379299496631
 20
508.92161148512747
 10
514.1290904005793
 20
505.86451995243743
 10
513.6683323325232
 20
502.79981306128496
 10
513.2557694306536
 20
499.72824698223724
 10
512.891503488693
 20
496.65057957826326
 10
512.5756243838123
 20
493.56757021774285
 10
512.3082100544539
 20
490.4799795871037
 10
512.089326481102
 20
487.3885695031335
 10
511.9190276700033
 20
484.2941027250125
 10
511.79735563984116
 20
481.1973427661147
 10
511.72434041136836
 20
478.0990537056221
 10
511.7
 20
475.0
 10
511.72434041136836
 20
471.90094629437766
 10
511.79735563984116
 20
468.8026572338852
 10
511.9190276700033
 20
465.70589727498736
 10
512.089326481102
 20
462.61143049686643
 10
512.3082100544539
 20
459.52002041289614
 10
512.5756243838123
 20
456.43242978225703
 10
512.891503488693
 20
453.3494204217368
 10
513.2557694306536
 20
450.2717530177627
 10
513.6683323325232
 20
447.2001869387149
 10
514.1290904005793
 20
444.13548004756234
 10
514.6379299496631
 20
441.0783885148725
 10
515.1947254312297
 20
438.02966663223646
 10
515.7993394643256
 20
434.99006662616
 10
516.4516228694852
 20
431.9603384724621
 10
517.1514147055384
 20
428.9412297112298
 10
517.8985423093211
 20
425.93348526237406
 10
518.6928213382764
 20
422.93784724183183
 10
519.5340558159392
 20
419.95505477846
 10
520.4220381802895
 20
416.9858438316664
 10
521.3565493349662
 20
414.03094700982274
 10
522.3373587033253
 20
411.0910933895051
 10
523.3642242853314
 20
408.16700833560395
 10
524.4368927172671
 20
405.2594133223525
 10
525.5550993342481
 20
402.3690257553129
 10
526.7185682355231
 20
399.49655879436773
 10
527.9270123525505
 20
396.6427211777577
 10
529.1801335198267
 20
393.808217047212
 10
530.4776225484544
 20
390.993745774211
 10
531.8191593024305
 20
388.20000178742794
 10
533.2044127776351
 20
385.4276744013873
 10
534.6330411835008
 20
382.67744764638877
 10
536.1046920273457
 20
379.9500000997316
 10
537.6190022013449
 20
377.2460047182859
 10
539.1755980721219
 20
374.5661286724517
 10
540.7740955729375
 20
371.9110331815433
 10
542.4141002984525
 20
369.28137335064395
 10
544.0952076020403
 20
366.6777980089686
 10
545.817002695629
 20
364.10094954977467
 10
547.5790607520429
 20
361.5514637718611
 10
549.3809470098229
 20
359.029969722695
 10
551.2222168804971
 20
356.537089543203
 10
553.1024160582763
 20
354.0734383142677
 10
555.0210806321476
 20
351.63962390496533
 10
556.9777372003368
 20
349.2362468225835
 10
558.9719029871139
 20
346.8639000644547
 10
561.0030859619103
 20
344.5231689716435
 10
563.0707849607204
 20
342.21463108452167
 10
565.1744898097555
 20
339.93885600026965
 10
567.313681451323
 20
337.6964052323363
 10
569.4878320718942
 20
335.48783207189416
 10
571.6964052323365
 20
333.31368145132274
 10
573.9388560002698
 20
331.1744898097554
 10
576.2146310845218
 20
329.0707849607203
 10
578.5231689716435
 20
327.0030859619103
 10
580.8639000644548
 20
324.9719029871138
 10
583.2362468225836
 20
322.9777372003367
 10
585.6396239049653
 20
321.0210806321476
 10
588.0734383142678
 20
319.1024160582763
 10
590.5370895432031
 20
317.222216880497
 10
593.0299697226951
 20
315.3809470098229
 10
595.5514637718611
 20
313.5790607520429
 10
598.1009495497747
 20
311.8170026956289
 10
600.6777980089687
 20
310.0952076020402
 10
603.281373350644
 20
308.41410029845235
 10
605.9110331815433
 20
306.77409557293754
 10
608.5661286724519
 20
305.17559807212183
 10
611.246004718286
 20
303.6190022013448
 10
613.9500000997316
 20
302.10469202734566
 10
616.6774476463888
 20
300.6330411835008
 10
619.4276744013875
 20
299.20441277763496
 10
622.2000017874279
 20
297.81915930243053
 10
624.9937457742112
 20
296.4776225484543
 10
627.8082170472121
 20
295.18013351982665
 10
630.642721177758
 20
293.9270123525505
 10
633.4965587943677
 20
292.7185682355231
 10
636.3690257553131
 20
291.5550993342479
 10
639.2594133223525
 20
290.43689271726714
 10
642.1670083356041
 20
289.36422428533126
 10
645.0910933895051
 20
288.3373587033253
 10
648.030947009823
 20
287.3565493349662
 10
650.9858438316664
 20
286.42203818028946
 10
653.9550547784601
 20
285.53405581593915
 10
656.937847241832
 20
284.6928213382764
 10
659.9334852623741
 20
283.8985423093211
 10
662.9412297112299
 20
283.1514147055384
 10
665.9603384724621
 20
282.45162286948516
 10
668.9900666261601
 20
281.7993394643256
 10
672.0296666322365
 20
281.1947254312297
 10
675.0783885148726
 20
280.6379299496631
 10
678.1354800475624
 20
280.12909040057934
 10
681.200186938715
 20
279.66833233252316
 10
684.2717530177628
 20
279.2557694306535
 10
687.3494204217368
 20
278.89150348869305
 10
690.432429782257
 20
278.5756243838123
 10
693.5200204128962
 20
278.30821005445387
 10
696.6114304968664
 20
278.08932648110203
 10
699.7058972749876
 20
277.9190276700033
 10
702.8026572338853
 20
277.79735563984116
 10
705.9009462943778
 20
277.72434041136836
 10
709.0
 20
277.7
 10
712.0990537056223
 20
277.72434041136836
 10
715.1973427661147
 20
277.79735563984116
 10
718.2941027250126
 20
277.9190276700033
 10
721.3885695031336
 20
278.08932648110203
 10
724.4799795871039
 20
278.30821005445387
 10
727.567570217743
 20
278.5756243838123
 10
730.6505795782633
 20
278.89150348869305
 10
733.7282469822374
 20
279.2557694306535
 10
736.799813061285
 20
279.66833233252316
 10
739.8645199524376
 20
280.12909040057934
 10
742.9216114851275
 20
280.6379299496631
 10
745.9703333677635
 20
281.1947254312297
 10
749.0099333738399
 20
281.7993394643256
 10
752.0396615275379
 20
282.45162286948516
 10
755.0587702887701
 20
283.1514147055384
 10
758.066514737626
 20
283.8985423093211
 10
761.0621527581682
 20
284.6928213382764
 10
764.04494522154
 20
285.53405581593915
 10
767.0141561683336
 20
286.42203818028946
 10
769.9690529901773
 20
287.3565493349662
 10
772.9089066104949
 20
288.3373587033253
 10
775.8329916643961
 20
289.3642242853313
 10
778.7405866776475
 20
290.43689271726714
 10
781.630974244687
 20
291.555099334248
 10
784.5034412056323
 20
292.7185682355231
 10
787.3572788222423
 20
293.9270123525505
 10
790.191782952788
 20
295.18013351982665
 10
793.0062542257889
 20
296.4776225484544
 10
795.7999982125721
 20
297.81915930243053
 10
798.5723255986127
 20
299.20441277763507
 10
801.3225523536112
 20
300.6330411835008
 10
804.0499999002685
 20
302.1046920273458
 10
806.753995281714
 20
303.61900220134487
 10
809.4338713275482
 20
305.1755980721219
 10
812.0889668184568
 20
306.77409557293765
 10
814.718626649356
 20
308.41410029845235
 10
817.3222019910314
 20
310.0952076020403
 10
819.8990504502253
 20
311.81700269562896
 10
822.4485362281389
 20
313.5790607520429
 10
824.9700302773049
 20
315.3809470098229
 10
827.462910456797
 20
317.22221688049706
 10
829.9265616857323
 20
319.1024160582763
 10
832.3603760950347
 20
321.0210806321476
 10
834.7637531774164
 20
322.9777372003368
 10
837.1360999355453
 20
324.97190298711394
 10
839.4768310283565
 20
327.0030859619103
 10
841.7853689154783
 20
329.07078496072035
 10
844.0611439997302
 20
331.1744898097555
 10
846.3035947676636
 20
333.31368145132285
 10
848.5121679281058
 20
335.4878320718942
 10
850.6863185486773
 20
337.6964052323364
 10
852.8255101902445
 20
339.93885600026977
 10
854.9292150392798
 20
342.2146310845218
 10
856.9969140380897
 20
344.5231689716435
 10
859.0280970128862
 20
346.8639000644548
 10
861.0222627996633
 20
349.23624682258355
 10
862.9789193678525
 20
351.63962390496545
 10
864.8975839417237
 20
354.0734383142677
 10
866.7777831195029
 20
356.537089543203
 10
868.6190529901771
 20
359.0299697226951
 10
870.4209392479571
 20
361.5514637718611
 10
872.182997304371
 20
364.10094954977467
 10
873.9047923979597
 20
366.6777980089686
 10
875.5858997015476
 20
369.281373350644
 10
877.2259044270625
 20
371.9110331815433
 10
878.8244019278782
 20
374.5661286724518
 10
880.3809977986551
 20
377.246004718286
 10
881.8953079726543
 20
379.9500000997316
 10
883.3669588164992
 20
382.6774476463888
 10
884.795587222365
 20
385.42767440138743
 10
886.1808406975695
 20
388.20000178742794
 10
887.5223774515457
 20
390.9937457742112
 10
888.8198664801733
 20
393.808217047212
 10
890.0729876474495
 20
396.64272117775783
 10
891.2814317644769
 20
399.4965587943678
 10
892.444900665752
 20
402.3690257553131
 10
893.5631072827329
 20
405.25941332235254
 10
894.6357757146687
 20
408.16700833560407
 10
895.6626412966747
 20
411.09109338950515
 10
896.6434506650338
 20
414.03094700982297
 10
897.5779618197105
 20
416.98584383166644
 10
898.4659441840608
 20
419.9550547784602
 10
899.3071786617236
 20
422.93784724183195
 10
900.1014576906789
 20
425.9334852623741
 10
900.8485852944616
 20
428.9412297112299
 10
901.5483771305148
 20
431.9603384724621
 10
902.2006605356744
 20
434.9900666261601
 10
902.8052745687703
 20
438.0296666322365
 10
903.3620700503369
 20
441.07838851487253
 10
903.8709095994207
 20
444.1354800475624
 10
904.3316676674768
 20
447.200186938715
 10
904.7442305693464
 20
450.27175301776276
 10
905.108496511307
 20
453.3494204217368
 10
905.4243756161877
 20
456.4324297822571
 10
905.6917899455461
 20
459.52002041289626
 10
905.910673518898
 20
462.61143049686643
 10
906.0809723299967
 20
465.7058972749876
 10
906.2026443601588
 20
468.80265723388527
 10
906.2756595886317
 20
471.90094629437783
 10
906.3
 20
475.0
  0
TEXT
  5
41
330
17
100
AcDbEntity
  8
NOTES
100
AcDbText
 10
457.0
 20
25.0
 30
0.0
 40
12.0
  1
front-panel
 11
457.0
 21
25.0
 31
0.0
100
AcDbText
  0
LWPOLYLINE
  5
42
330
17
100
AcDbEntity
  8
CUT_OUTSIDE
100
AcDbPolyline
 90
5
 70
1
 10
983.0
 20
15.0
 10
1507.0
 20
15.0
 10
1507.0
 20
859.0
 10
983.0
 20
859.0
 10
983.0
 20
15.0
  0
LWPOLYLINE
  5
43
330
17
100
AcDbEntity
  8
CUT_INSIDE
100
AcDbPolyline
 90
5
 70
1
 10
1474.1999999999998
 20
164.2
 10
1365.8
 20
164.2
 10
1365.8
 20
55.800000000000004
 10
1474.1999999999998
 20
55.8
 10
1474.2
 20
164.2
  0
CIRCLE
  5
44
330
17
100
AcDbEntity
  8
CUT_INSIDE
100
AcDbCircle
 10
1173.2468564315454
 20
301.77258765413376
 30
0.0
 40
3.5
  0
CIRCLE
  5
45
330
17
100
AcDbEntity
  8
CUT_INSIDE
100
AcDbCircle
 10
1071.7725876541338
 20
403.24685643154567
 30
0.0
 40
3.5
  0
CIRCLE
  5
46
330
17
100
AcDbEntity
  8
CUT_INSIDE
100
AcDbCircle
 10
1071.7725876541338
 20
546.7531435684543
 30
0.0
 40
3.5
  0
CIRCLE
  5
47
330
17
100
AcDbEntity
  8
CUT_INSIDE
100
AcDbCircle
 10
1245.0
 20
475.0
 30
0.0
 40
178.0
  0
CIRCLE
  5
48
330
17
100
AcDbEntity
  8
CUT_INSIDE
100
AcDbCircle
 10
1173.2468564315457
 20
648.2274123458662
 30
0.0
 40
3.5
  0
CIRCLE
  5
49
330
17
100
AcDbEntity
  8
CUT_INSIDE
100
AcDbCircle
 10
1316.7531435684543
 20
301.77258765413376
 30
0.0
 40
3.5
  0
CIRCLE
  5
4A
330
17
100
AcDbEntity
  8
CUT_INSIDE
100
AcDbCircle
 10
1316.7531435684543
 20
648.2274123458662
 30
0.0
 40
3.5
  0
CIRCLE
  5
4B
330
17
100
AcDbEntity
  8
CUT_INSIDE
100
AcDbCircle
 10
1418.2274123458662
 20
403.24685643154555
 30
0.0
 40
3.5
  0
CIRCLE
  5
4C
330
17
100
AcDbEntity
  8
CUT_INSIDE
100
AcDbCircle
 10
1418.2274123458662
 20
546.7531435684543
 30
0.0
 40
3.5
  0
LWPOLYLINE
  5
4D
330
17
100
AcDbEntity
  8
POCKET_11MM
100
AcDbPolyline
 90
401
 70
1
 10
1442.3
 20
475.00000000000006
 10
1442.2756595886317
 20
478.0990537056222
 10
1442.202644360159
 20
481.19734276611473
 10
1442.0809723299967
 20
484.2941027250125
 10
1441.910673518898
 20
487.3885695031337
 10
1441.6917899455461
 20
490.4799795871038
 10
1441.4243756161877
 20
493.5675702177428
 10
1441.1084965113068
 20
496.65057957826315
 10
1440.7442305693464
 20
499.7282469822373
 10
1440.3316676674767
 20
502.79981306128514
 10
1439.8709095994207
 20
505.8645199524376
 10
1439.362070050337
 20
508.92161148512736
 10
1438.8052745687703
 20
511.9703333677637
 10
1438.2006605356744
 20
515.0099333738399
 10
1437.5483771305148
 20
518.0396615275379
 10
1436.8485852944616
 20
521.0587702887701
 10
1436.101457690679
 20
524.066514737626
 10
1435.3071786617236
 20
527.0621527581682
 10
1434.4659441840608
 20
530.04494522154
 10
1433.5779618197107
 20
533.0141561683334
 10
1432.6434506650337
 20
535.9690529901774
 10
1431.6626412966748
 20
538.9089066104949
 10
1430.6357757146686
 20
541.832991664396
 10
1429.5631072827327
 20
544.7405866776475
 10
1428.444900665752
 20
547.6309742446871
 10
1427.2814317644768
 20
550.5034412056324
 10
1426.0729876474495
 20
553.3572788222423
 10
1424.8198664801735
 20
556.1917829527879
 10
1423.5223774515457
 20
559.0062542257889
 10
1422.1808406975695
 20
561.7999982125721
 10
1420.795587222365
 20
564.5723255986127
 10
1419.3669588164992
 20
567.3225523536112
 10
1417.8953079726543
 20
570.0499999002684
 10
1416.380997798655
 20
572.7539952817142
 10
1414.824401927878
 20
575.4338713275484
 10
1413.2259044270625
 20
578.0889668184567
 10
1411.5858997015475
 20
580.718626649356
 10
1409.9047923979597
 20
583.3222019910315
 10
1408.182997304371
 20
585.8990504502254
 10
1406.420939247957
 20
588.4485362281389
 10
1404.6190529901771
 20
590.970030277305
 10
1402.7777831195028
 20
593.4629104567971
 10
1400.8975839417237
 20
595.9265616857323
 10
1398.9789193678525
 20
598.3603760950347
 10
1397.0222627996632
 20
600.7637531774164
 10
1395.028097012886
 20
603.1360999355454
 10
1392.9969140380895
 20
605.4768310283566
 10
1390.9292150392796
 20
607.7853689154783
 10
1388.8255101902446
 20
610.0611439997303
 10
1386.686318548677
 20
612.3035947676638
 10
1384.5121679281058
 20
614.5121679281059
 10
1382.3035947676635
 20
616.6863185486771
 10
1380.0611439997301
 20
618.8255101902445
 10
1377.785368915478
 20
620.9292150392798
 10
1375.4768310283564
 20
622.9969140380898
 10
1373.1360999355452
 20
625.0280970128862
 10
1370.7637531774164
 20
627.0222627996633
 10
1368.3603760950346
 20
628.9789193678527
 10
1365.9265616857322
 20
630.8975839417237
 10
1363.4629104567969
 20
632.777783119503
 10
1360.9700302773049
 20
634.6190529901771
 10
1358.448536228139
 20
636.4209392479571
 10
1355.8990504502253
 20
638.1829973043712
 10
1353.3222019910313
 20
639.9047923979598
 10
1350.718626649356
 20
641.5858997015475
 10
1348.0889668184568
 20
643.2259044270623
 10
1345.433871327548
 20
644.8244019278782
 10
1342.753995281714
 20
646.3809977986552
 10
1340.0499999002684
 20
647.8953079726543
 10
1337.3225523536112
 20
649.3669588164993
 10
1334.5723255986127
 20
650.795587222365
 10
1331.799998212572
 20
652.1808406975695
 10
1329.0062542257888
 20
653.5223774515457
 10
1326.191782952788
 20
654.8198664801733
 10
1323.357278822242
 20
656.0729876474495
 10
1320.5034412056323
 20
657.2814317644768
 10
1317.630974244687
 20
658.444900665752
 10
1314.7405866776473
 20
659.5631072827329
 10
1311.8329916643959
 20
660.6357757146687
 10
1308.9089066104948
 20
661.6626412966747
 10
1305.969052990177
 20
662.6434506650338
 10
1303.0141561683336
 20
663.5779618197105
 10
1300.0449452215398
 20
664.465944184061
 10
1297.0621527581682
 20
665.3071786617236
 10
1294.0665147376258
 20
666.1014576906789
 10
1291.0587702887701
 20
666.8485852944616
 10
1288.0396615275379
 20
667.5483771305148
 10
1285.0099333738399
 20
668.2006605356744
 10
1281.9703333677635
 20
668.8052745687703
 10
1278.9216114851274
 20
669.3620700503369
 10
1275.8645199524376
 20
669.8709095994207
 10
1272.799813061285
 20
670.3316676674768
 10
1269.7282469822371
 20
670.7442305693464
 10
1266.6505795782632
 20
671.108496511307
 10
1263.567570217743
 20
671.4243756161877
 10
1260.4799795871036
 20
671.6917899455461
 10
1257.3885695031333
 20
671.910673518898
 10
1254.2941027250126
 20
672.0809723299967
 10
1251.1973427661146
 20
672.2026443601588
 10
1248.0990537056223
 20
672.2756595886317
 10
1245.0
 20
672.3
 10
1241.9009462943777
 20
672.2756595886317
 10
1238.8026572338854
 20
672.2026443601588
 10
1235.7058972749874
 20
672.0809723299967
 10
1232.6114304968664
 20
671.910673518898
 10
1229.5200204128962
 20
671.6917899455461
 10
1226.432429782257
 20
671.4243756161877
 10
1223.3494204217368
 20
671.108496511307
 10
1220.2717530177626
 20
670.7442305693464
 10
1217.200186938715
 20
670.3316676674768
 10
1214.1354800475624
 20
669.8709095994207
 10
1211.0783885148724
 20
669.3620700503369
 10
1208.0296666322363
 20
668.8052745687703
 10
1204.9900666261601
 20
668.2006605356744
 10
1201.960338472462
 20
667.5483771305148
 10
1198.9412297112297
 20
666.8485852944616
 10
1195.933485262374
 20
666.1014576906789
 10
1192.9378472418318
 20
665.3071786617236
 10
1189.95505477846
 20
664.4659441840608
 10
1186.9858438316664
 20
663.5779618197105
 10
1184.0309470098227
 20
662.6434506650338
 10
1181.0910933895052
 20
661.6626412966747
 10
1178.167008335604
 20
660.6357757146686
 10
1175.2594133223524
 20
659.5631072827327
 10
1172.369025755313
 20
658.4449006657519
 10
1169.4965587943677
 20
657.2814317644768
 10
1166.6427211777577
 20
656.0729876474495
 10
1163.8082170472119
 20
654.8198664801733
 10
1160.9937457742112
 20
653.5223774515456
 10
1158.200001787428
 20
652.1808406975695
 10
1155.4276744013873
 20
650.7955872223649
 10
1152.6774476463888
 20
649.3669588164992
 10
1149.9500000997314
 20
647.8953079726542
 10
1147.2460047182858
 20
646.380997798655
 10
1144.5661286724517
 20
644.8244019278781
 10
1141.9110331815432
 20
643.2259044270623
 10
1139.281373350644
 20
641.5858997015475
 10
1136.6777980089685
 20
639.9047923979597
 10
1134.1009495497747
 20
638.182997304371
 10
1131.551463771861
 20
636.4209392479571
 10
1129.029969722695
 20
634.619052990177
 10
1126.537089543203
 20
632.7777831195028
 10
1124.0734383142676
 20
630.8975839417237
 10
1121.6396239049654
 20
628.9789193678525
 10
1119.2362468225833
 20
627.0222627996632
 10
1116.8639000644546
 20
625.0280970128861
 10
1114.5231689716434
 20
622.9969140380896
 10
1112.214631084522
 20
620.9292150392798
 10
1109.9388560002697
 20
618.8255101902445
 10
1107.6964052323362
 20
616.686318548677
 10
1105.4878320718942
 20
614.5121679281058
 10
1103.313681451323
 20
612.3035947676638
 10
1101.1744898097554
 20
610.0611439997303
 10
1099.0707849607202
 20
607.7853689154781
 10
1097.0030859619103
 20
605.4768310283565
 10
1094.971902987114
 20
603.1360999355453
 10
1092.9777372003368
 20
600.7637531774164
 10
1091.0210806321475
 20
598.3603760950346
 10
1089.1024160582763
 20
595.9265616857323
 10
1087.222216880497
 20
593.462910456797
 10
1085.3809470098229
 20
590.9700302773049
 10
1083.5790607520428
 20
588.4485362281387
 10
1081.8170026956288
 20
585.8990504502253
 10
1080.0952076020403
 20
583.3222019910314
 10
1078.4141002984525
 20
580.718626649356
 10
1076.7740955729375
 20
578.0889668184566
 10
1075.1755980721218
 20
575.4338713275482
 10
1073.6190022013448
 20
572.753995281714
 10
1072.1046920273457
 20
570.0499999002684
 10
1070.6330411835008
 20
567.3225523536112
 10
1069.204412777635
 20
564.5723255986126
 10
1067.8191593024305
 20
561.7999982125721
 10
1066.4776225484543
 20
559.0062542257889
 10
1065.1801335198265
 20
556.191782952788
 10
1063.9270123525505
 20
553.3572788222422
 10
1062.718568235523
 20
550.5034412056322
 10
1061.555099334248
 20
547.6309742446871
 10
1060.4368927172673
 20
544.7405866776475
 10
1059.3642242853314
 20
541.8329916643959
 10
1058.3373587033252
 20
538.9089066104948
 10
1057.356549334966
 20
535.9690529901771
 10
1056.4220381802895
 20
533.0141561683336
 10
1055.5340558159392
 20
530.0449452215398
 10
1054.6928213382764
 20
527.062152758168
 10
1053.898542309321
 20
524.0665147376259
 10
1053.1514147055384
 20
521.0587702887701
 10
1052.4516228694852
 20
518.0396615275378
 10
1051.7993394643256
 20
515.0099333738399
 10
1051.1947254312297
 20
511.9703333677635
 10
1050.637929949663
 20
508.92161148512747
 10
1050.1290904005793
 20
505.86451995243743
 10
1049.6683323325233
 20
502.79981306128496
 10
1049.2557694306536
 20
499.72824698223724
 10
1048.891503488693
 20
496.65057957826326
 10
1048.5756243838123
 20
493.56757021774285
 10
1048.3082100544539
 20
490.4799795871037
 10
1048.089326481102
 20
487.3885695031335
 10
1047.9190276700033
 20
484.2941027250125
 10
1047.797355639841
 20
481.1973427661147
 10
1047.7243404113683
 20
478.0990537056221
 10
1047.7
 20
475.0
 10
1047.7243404113683
 20
471.90094629437766
 10
1047.797355639841
 20
468.8026572338852
 10
1047.9190276700033
 20
465.70589727498736
 10
1048.089326481102
 20
462.61143049686643
 10
1048.3082100544539
 20
459.52002041289614
 10
1048.5756243838123
 20
456.43242978225703
 10
1048.891503488693
 20
453.3494204217368
 10
1049.2557694306536
 20
450.2717530177627
 10
1049.6683323325233
 20
447.2001869387149
 10
1050.1290904005793
 20
444.13548004756234
 10
1050.6379299496632
 20
441.0783885148725
 10
1051.1947254312297
 20
438.02966663223646
 10
1051.7993394643256
 20
434.99006662616
 10
1052.4516228694852
 20
431.9603384724621
 10
1053.1514147055384
 20
428.9412297112298
 10
1053.898542309321
 20
425.93348526237406
 10
1054.6928213382764
 20
422.93784724183183
 10
1055.5340558159392
 20
419.95505477846
 10
1056.4220381802895
 20
416.9858438316664
 10
1057.3565493349663
 20
414.03094700982274
 10
1058.3373587033252
 20
411.0910933895051
 10
1059.3642242853314
 20
408.16700833560395
 10
1060.4368927172673
 20
405.2594133223525
 10
1061.555099334248
 20
402.3690257553129
 10
1062.7185682355232
 20
399.49655879436773
 10
1063.9270123525505
 20
396.6427211777577
 10
1065.1801335198268
 20
393.808217047212
 10
1066.4776225484543
 20
390.993745774211
 10
1067.8191593024305
 20
388.20000178742794
 10
1069.204412777635
 20
385.4276744013873
 10
1070.6330411835008
 20
382.67744764638877
 10
1072.1046920273457
 20
379.9500000997316
 10
1073.619002201345
 20
377.2460047182859
 10
1075.1755980721218
 20
374.5661286724517
 10
1076.7740955729375
 20
371.9110331815433
 10
1078.4141002984525
 20
369.28137335064395
 10
1080.0952076020403
 20
366.6777980089686
 10
1081.8170026956288
 20
364.10094954977467
 10
1083.579060752043
 20
361.5514637718611
 10
1085.3809470098229
 20
359.029969722695
 10
1087.2222168804972
 20
356.537089543203
 10
1089.1024160582763
 20
354.0734383142677
 10
1091.0210806321475
 20
351.63962390496533
 10
1092.9777372003368
 20
349.2362468225835
 10
1094.971902987114
 20
346.8639000644547
 10
1097.0030859619103
 20
344.5231689716435
 10
1099.0707849607204
 20
342.21463108452167
 10
1101.1744898097554
 20
339.93885600026965
 10
1103.313681451323
 20
337.6964052323363
 10
1105.4878320718942
 20
335.48783207189416
 10
1107.6964052323365
 20
333.31368145132274
 10
1109.9388560002699
 20
331.1744898097554
 10
1112.2146310845217
 20
329.0707849607203
 10
1114.5231689716436
 20
327.0030859619103
 10
1116.8639000644548
 20
324.9719029871138
 10
1119.2362468225836
 20
322.9777372003367
 10
1121.6396239049654
 20
321.0210806321476
 10
1124.0734383142678
 20
319.1024160582763
 10
1126.5370895432031
 20
317.222216880497
 10
1129.0299697226951
 20
315.3809470098229
 10
1131.551463771861
 20
313.5790607520429
 10
1134.1009495497747
 20
311.8170026956289
 10
1136.6777980089687
 20
310.0952076020402
 10
1139.2813733506441
 20
308.41410029845235
 10
1141.9110331815432
 20
306.77409557293754
 10
1144.566128672452
 20
305.17559807212183
 10
1147.246004718286
 20
303.6190022013448
 10
1149.9500000997316
 20
302.10469202734566
 10
1152.6774476463888
 20
300.6330411835008
 10
1155.4276744013875
 20
299.20441277763496
 10
1158.200001787428
 20
297.81915930243053
 10
1160.9937457742112
 20
296.4776225484543
 10
1163.808217047212
 20
295.18013351982665
 10
1166.642721177758
 20
293.9270123525505
 10
1169.4965587943677
 20
292.7185682355231
 10
1172.369025755313
 20
291.5550993342479
 10
1175.2594133223524
 20
290.43689271726714
 10
1178.1670083356041
 20
289.36422428533126
 10
1181.0910933895052
 20
288.3373587033253
 10
1184.030947009823
 20
287.3565493349662
 10
1186.9858438316664
 20
286.42203818028946
 10
1189.9550547784602
 20
285.53405581593915
 10
1192.937847241832
 20
284.6928213382764
 10
1195.9334852623742
 20
283.8985423093211
 10
1198.9412297112299
 20
283.1514147055384
 10
1201.9603384724621
 20
282.45162286948516
 10
1204.9900666261601
 20
281.7993394643256
 10
1208.0296666322365
 20
281.1947254312297
 10
1211.0783885148726
 20
280.6379299496631
 10
1214.1354800475624
 20
280.12909040057934
 10
1217.200186938715
 20
279.66833233252316
 10
1220.2717530177629
 20
279.2557694306535
 10
1223.3494204217368
 20
278.89150348869305
 10
1226.432429782257
 20
278.5756243838123
 10
1229.5200204128962
 20
278.30821005445387
 10
1232.6114304968664
 20
278.08932648110203
 10
1235.7058972749876
 20
277.9190276700033
 10
1238.8026572338854
 20
277.79735563984116
 10
1241.9009462943777
 20
277.72434041136836
 10
1245.0
 20
277.7
 10
1248.0990537056223
 20
277.72434041136836
 10
1251.1973427661146
 20
277.79735563984116
 10
1254.2941027250126
 20
277.9190276700033
 10
1257.3885695031336
 20
278.08932648110203
 10
1260.479979587104
 20
278.30821005445387
 10
1263.567570217743
 20
278.5756243838123
 10
1266.6505795782632
 20
278.89150348869305
 10
1269.7282469822374
 20
279.2557694306535
 10
1272.799813061285
 20
279.66833233252316
 10
1275.8645199524376
 20
280.12909040057934
 10
1278.9216114851274
 20
280.6379299496631
 10
1281.9703333677635
 20
281.1947254312297
 10
1285.0099333738399
 20
281.7993394643256
 10
1288.0396615275379
 20
282.45162286948516
 10
1291.0587702887701
 20
283.1514147055384
 10
1294.066514737626
 20
283.8985423093211
 10
1297.0621527581682
 20
284.6928213382764
 10
1300.04494522154
 20
285.53405581593915
 10
1303.0141561683336
 20
286.42203818028946
 10
1305.9690529901773
 20
287.3565493349662
 10
1308.9089066104948
 20
288.3373587033253
 10
1311.832991664396
 20
289.3642242853313
 10
1314.7405866776476
 20
290.43689271726714
 10
1317.630974244687
 20
291.555099334248
 10
1320.5034412056323
 20
292.7185682355231
 10
1323.3572788222423
 20
293.9270123525505
 10
1326.191782952788
 20
295.18013351982665
 10
1329.0062542257888
 20
296.4776225484544
 10
1331.799998212572
 20
297.81915930243053
 10
1334.5723255986127
 20
299.20441277763507
 10
1337.3225523536112
 20
300.6330411835008
 10
1340.0499999002686
 20
302.1046920273458
 10
1342.753995281714
 20
303.61900220134487
 10
1345.4338713275483
 20
305.1755980721219
 10
1348.0889668184568
 20
306.77409557293765
 10
1350.7186266493559
 20
308.41410029845235
 10
1353.3222019910313
 20
310.0952076020403
 10
1355.8990504502253
 20
311.81700269562896
 10
1358.448536228139
 20
313.5790607520429
 10
1360.9700302773049
 20
315.3809470098229
 10
1363.462910456797
 20
317.22221688049706
 10
1365.9265616857324
 20
319.1024160582763
 10
1368.3603760950346
 20
321.0210806321476
 10
1370.7637531774164
 20
322.9777372003368
 10
1373.1360999355452
 20
324.97190298711394
 10
1375.4768310283566
 20
327.0030859619103
 10
1377.7853689154783
 20
329.07078496072035
 10
1380.0611439997301
 20
331.1744898097555
 10
1382.3035947676635
 20
333.31368145132285
 10
1384.5121679281058
 20
335.4878320718942
 10
1386.6863185486773
 20
337.6964052323364
 10
1388.8255101902446
 20
339.93885600026977
 10
1390.9292150392798
 20
342.2146310845218
 10
1392.9969140380897
 20
344.5231689716435
 10
1395.028097012886
 20
346.8639000644548
 10
1397.0222627996632
 20
349.23624682258355
 10
1398.9789193678525
 20
351.63962390496545
 10
1400.8975839417237
 20
354.0734383142677
 10
1402.777783119503
 20
356.537089543203
 10
1404.6190529901771
 20
359.0299697226951
 10
1406.420939247957
 20
361.5514637718611
 10
1408.182997304371
 20
364.10094954977467
 10
1409.9047923979597
 20
366.6777980089686
 10
1411.5858997015475
 20
369.281373350644
 10
1413.2259044270625
 20
371.9110331815433
 10
1414.8244019278782
 20
374.5661286724518
 10
1416.3809977986552
 20
377.246004718286
 10
1417.8953079726543
 20
379.9500000997316
 10
1419.3669588164992
 20
382.6774476463888
 10
1420.7955872223652
 20
385.42767440138743
 10
1422.1808406975695
 20
388.20000178742794
 10
1423.5223774515457
 20
390.9937457742112
 10
1424.8198664801735
 20
393.808217047212
 10
1426.0729876474495
 20
396.64272117775783
 10
1427.281431764477
 20
399.4965587943678
 10
1428.444900665752
 20
402.3690257553131
 10
1429.5631072827327
 20
405.25941332235254
 10
1430.6357757146689
 20
408.16700833560407
 10
1431.6626412966748
 20
411.09109338950515
 10
1432.643450665034
 20
414.03094700982297
 10
1433.5779618197105
 20
416.98584383166644
 10
1434.4659441840608
 20
419.9550547784602
 10
1435.3071786617236
 20
422.93784724183195
 10
1436.101457690679
 20
425.9334852623741
 10
1436.8485852944616
 20
428.9412297112299
 10
1437.5483771305148
 20
431.9603384724621
 10
1438.2006605356744
 20
434.9900666261601
 10
1438.8052745687703
 20
438.0296666322365
 10
1439.362070050337
 20
441.07838851487253
 10
1439.8709095994207
 20
444.1354800475624
 10
1440.3316676674767
 20
447.200186938715
 10
1440.7442305693464
 20
450.27175301776276
 10
1441.1084965113068
 20
453.3494204217368
 10
1441.4243756161877
 20
456.4324297822571
 10
1441.6917899455461
 20
459.52002041289626
 10
1441.910673518898
 20
462.61143049686643
 10
1442.0809723299967
 20
465.7058972749876
 10
1442.202644360159
 20
468.80265723388527
 10
1442.2756595886317
 20
471.90094629437783
 10
1442.3
 20
475.0
  0
TEXT
  5
4E
330
17
100
AcDbEntity
  8
NOTES
100
AcDbText
 10
993.0
 20
25.0
 30
0.0
 40
12.0
  1
front-panel
 11
993.0
 21
25.0
 31
0.0
100
AcDbText
  0
LWPOLYLINE
  5
4F
330
17
100
AcDbEntity
  8
CUT_OUTSIDE
100
AcDbPolyline
 90
5
 70
1
 10
15.0
 20
1327.0
 10
15.0
 20
907.0
 10
539.0
 20
907.0
 10
539.0
 20
1327.0
 10
15.0
 20
1327.0
  0
TEXT
  5
50
330
17
100
AcDbEntity
  8
NOTES
100
AcDbText
 10
25.0
 20
917.0
 30
0.0
 40
12.0
  1
bottom
 11
25.0
 21
917.0
 31
0.0
100
AcDbText
  0
LWPOLYLINE
  5
51
330
17
100
AcDbEntity
  8
CUT_OUTSIDE
100
AcDbPolyline
 90
5
 70
1
 10
551.0
 20
1327.0
 10
551.0
 20
907.0
 10
1075.0
 20
907.0
 10
1075.0
 20
1327.0
 10
551.0
 20
1327.0
  0
TEXT
  5
52
330
17
100
AcDbEntity
  8
NOTES
100
AcDbText
 10
561.0
 20
917.0
 30
0.0
 40
12.0
  1
bottom
 11
561.0
 21
917.0
 31
0.0
100
AcDbText
  0
ENDSEC
  0
SECTION
  2
OBJECTS
  0
DICTIONARY
  5
A
330
0
100
AcDbDictionary
281
1
  3
ACAD_COLOR
350
B
  3
ACAD_GROUP
350
C
  3
ACAD_LAYOUT
350
D
  3
ACAD_MATERIAL
350
E
  3
ACAD_MLEADERSTYLE
350
F
  3
ACAD_MLINESTYLE
350
10
  3
ACAD_PLOTSETTINGS
350
11
  3
ACAD_PLOTSTYLENAME
350
12
  3
ACAD_SCALELIST
350
14
  3
ACAD_TABLESTYLE
350
15
  3
ACAD_VISUALSTYLE
350
16
  3
EZDXF_META
350
2D
  0
DICTIONARY
  5
B
330
A
100
AcDbDictionary
281
1
  0
DICTIONARY
  5
C
330
A
100
AcDbDictionary
281
1
  0
DICTIONARY
  5
D
330
A
100
AcDbDictionary
281
1
  3
Model
350
1A
  3
Layout1
350
1E
  0
DICTIONARY
  5
E
330
A
100
AcDbDictionary
281
1
  3
ByBlock
350
1F
  3
ByLayer
350
20
  3
Global
350
21
  0
DICTIONARY
  5
F
330
A
100
AcDbDictionary
281
1
  3
Standard
350
2C
  0
DICTIONARY
  5
10
330
A
100
AcDbDictionary
281
1
  3
Standard
350
22
  0
DICTIONARY
  5
11
330
A
100
AcDbDictionary
281
1
  0
ACDBDICTIONARYWDFLT
  5
12
330
A
100
AcDbDictionary
281
1
  3
Normal
350
13
100
AcDbDictionaryWithDefault
340
13
  0
ACDBPLACEHOLDER
  5
13
330
12
  0
DICTIONARY
  5
14
330
A
100
AcDbDictionary
281
1
  0
DICTIONARY
  5
15
330
A
100
AcDbDictionary
281
1
  0
DICTIONARY
  5
16
330
A
100
AcDbDictionary
281
1
  0
LAYOUT
  5
1A
330
D
100
AcDbPlotSettings
  1

  4
A3
  6

 40
7.5
 41
20.0
 42
7.5
 43
20.0
 44
420.0
 45
297.0
 46
0.0
 47
0.0
 48
0.0
 49
0.0
140
0.0
141
0.0
142
1.0
143
1.0
 70
1024
 72
1
 73
0
 74
5
  7

 75
16
 76
0
 77
2
 78
300
147
1.0
148
0.0
149
0.0
100
AcDbLayout
  1
Model
 70
1
 71
0
 10
0.0
 20
0.0
 11
420.0
 21
297.0
 12
0.0
 22
0.0
 32
0.0
 14
1e+20
 24
1e+20
 34
1e+20
 15
-1e+20
 25
-1e+20
 35
-1e+20
146
0.0
 13
0.0
 23
0.0
 33
0.0
 16
1.0
 26
0.0
 36
0.0
 17
0.0
 27
1.0
 37
0.0
 76
1
330
17
  0
LAYOUT
  5
1E
330
D
100
AcDbPlotSettings
  1

  4
A3
  6

 40
7.5
 41
20.0
 42
7.5
 43
20.0
 44
420.0
 45
297.0
 46
0.0
 47
0.0
 48
0.0
 49
0.0
140
0.0
141
0.0
142
1.0
143
1.0
 70
0
 72
1
 73
0
 74
5
  7

 75
16
 76
0
 77
2
 78
300
147
1.0
148
0.0
149
0.0
100
AcDbLayout
  1
Layout1
 70
1
 71
1
 10
0.0
 20
0.0
 11
420.0
 21
297.0
 12
0.0
 22
0.0
 32
0.0
 14
1e+20
 24
1e+20
 34
1e+20
 15
-1e+20
 25
-1e+20
 35
-1e+20
146
0.0
 13
0.0
 23
0.0
 33
0.0
 16
1.0
 26
0.0
 36
0.0
 17
0.0
 27
1.0
 37
0.0
 76
1
330
1B
  0
MATERIAL
  5
1F
102
{ACAD_REACTORS
330
E
102
}
330
E
100
AcDbMaterial
  1
ByBlock
  2

 70
0
 40
1.0
 71
1
 41
1.0
 91
-1023410177
 42
1.0
 72
1
  3

 73
1
 74
1
 75
1
 44
0.5
 73
0
 45
1.0
 46
1.0
 77
1
  4

 78
1
 79
1
170
1
 48
1.0
171
1
  6

172
1
173
1
174
1
140
1.0
141
1.0
175
1
  7

176
1
177
1
178
1
143
1.0
179
1
  8

270
1
271
1
272
1
145
1.0
146
1.0
273
1
  9

274
1
275
1
276
1
 42
1.0
 72
1
  3

 73
1
 74
1
 75
1
 94
63
  0
MATERIAL
  5
20
102
{ACAD_REACTORS
330
E
102
}
330
E
100
AcDbMaterial
  1
ByLayer
  2

 70
0
 40
1.0
 71
1
 41
1.0
 91
-1023410177
 42
1.0
 72
1
  3

 73
1
 74
1
 75
1
 44
0.5
 73
0
 45
1.0
 46
1.0
 77
1
  4

 78
1
 79
1
170
1
 48
1.0
171
1
  6

172
1
173
1
174
1
140
1.0
141
1.0
175
1
  7

176
1
177
1
178
1
143
1.0
179
1
  8

270
1
271
1
272
1
145
1.0
146
1.0
273
1
  9

274
1
275
1
276
1
 42
1.0
 72
1
  3

 73
1
 74
1
 75
1
 94
63
  0
MATERIAL
  5
21
102
{ACAD_REACTORS
330
E
102
}
330
E
100
AcDbMaterial
  1
Global
  2

 70
0
 40
1.0
 71
1
 41
1.0
 91
-1023410177
 42
1.0
 72
1
  3

 73
1
 74
1
 75
1
 44
0.5
 73
0
 45
1.0
 46
1.0
 77
1
  4

 78
1
 79
1
170
1
 48
1.0
171
1
  6

172
1
173
1
174
1
140
1.0
141
1.0
175
1
  7

176
1
177
1
178
1
143
1.0
179
1
  8

270
1
271
1
272
1
145
1.0
146
1.0
273
1
  9

274
1
275
1
276
1
 42
1.0
 72
1
  3

 73
1
 74
1
 75
1
 94
63
  0
MLINESTYLE
  5
22
102
{ACAD_REACTORS
330
10
102
}
330
10
100
AcDbMlineStyle
  2
Standard
 70
0
  3

 62
256
 51
90.0
 52
90.0
 71
2
 49
0.5
 62
256
  6
BYLAYER
 49
-0.5
 62
256
  6
BYLAYER
  0
MLEADERSTYLE
  5
2C
102
{ACAD_REACTORS
330
F
102
}
330
F
100
AcDbMLeaderStyle
179
2
170
2
171
1
172
0
 90
2
 40
0.0
 41
0.0
173
1
 91
-1056964608
 92
-2
290
1
 42
2.0
291
1
 43
8.0
  3
Standard
 44
4.0
300

342
29
174
1
175
1
176
0
178
1
 93
-1056964608
 45
4.0
292
0
297
0
 46
4.0
 94
-1056964608
 47
1.0
 49
1.0
140
1.0
294
1
141
0.0
177
0
142
1.0
295
0
296
0
143
3.75
271
0
272
9
273
9
  0
DICTIONARY
  5
2D
330
A
100
AcDbDictionary
280
1
281
1
  3
CREATED_BY_EZDXF
350
2E
  3
WRITTEN_BY_EZDXF
350
55
  0
DICTIONARYVAR
  5
2E
330
2D
100
DictionaryVariables
280
0
  1
1.4.4 @ 2026-10-11T00:38:32.398839+00:00
  0
DICTIONARYVAR
  5
55
330
2D
100
DictionaryVariables
280
0
  1
1.4.4 @ 2026-10-11T00:38:32.403503+00:00
  0
ENDSEC
  0
EOF
