  0
SECTION
  2
HEADER
  9
$ACADVER
  1
AC1024
  9
$ACADMAINTVER
 70
6
  9
$DWGCODEPAGE
  3
ANSI_1252
  9
$LASTSAVEDBY
  1
ezdxf
  9
$INSBASE
 10
0.0
 20
0.0
 30
0.0
  9
$EXTMIN
 10
1e+20
 20
1e+20
 30
1e+20
  9
$EXTMAX
 10
-1e+20
 20
-1e+20
 30
-1e+20
  9
$LIMMIN
 10
0.0
 20
0.0
  9
$LIMMAX
 10
420.0
 20
297.0
  9
$ORTHOMODE
 70
0
  9
$REGENMODE
 70
1
  9
$FILLMODE
 70
1
  9
$QTEXTMODE
 70
0
  9
$MIRRTEXT
 70
1
  9
$LTSCALE
 40
1.0
  9
$ATTMODE
 70
1
  9
$TEXTSIZE
 40
2.5
  9
$TRACEWID
 40
1.0
  9
$TEXTSTYLE
  7
Standard
  9
$CLAYER
  8
0
  9
$CELTYPE
  6
ByLayer
  9
$CECOLOR
 62
256
  9
$CELTSCALE
 40
1.0
  9
$DISPSILH
 70
0
  9
$DIMSCALE
 40
1.0
  9
$DIMASZ
 40
2.5
  9
$DIMEXO
 40
0.625
  9
$DIMDLI
 40
3.75
  9
$DIMRND
 40
0.0
  9
$DIMDLE
 40
0.0
  9
$DIMEXE
 40
1.25
  9
$DIMTP
 40
0.0
  9
$DIMTM
 40
0.0
  9
$DIMTXT
 40
2.5
  9
$DIMCEN
 40
2.5
  9
$DIMTSZ
 40
0.0
  9
$DIMTOL
 70
0
  9
$DIMLIM
 70
0
  9
$DIMTIH
 70
0
  9
$DIMTOH
 70
0
  9
$DIMSE1
 70
0
  9
$DIMSE2
 70
0
  9
$DIMTAD
 70
1
  9
$DIMZIN
 70
8
  9
$DIMBLK
  1

  9
$DIMASO
 70
1
  9
$DIMSHO
 70
1
  9
$DIMPOST
  1

  9
$DIMAPOST
  1

  9
$DIMALT
 70
0
  9
$DIMALTD
 70
3
  9
$DIMALTF
 40
0.03937007874
  9
$DIMLFAC
 40
1.0
  9
$DIMTOFL
 70
1
  9
$DIMTVP
 40
0.0
  9
$DIMTIX
 70
0
  9
$DIMSOXD
 70
0
  9
$DIMSAH
 70
0
  9
$DIMBLK1
  1

  9
$DIMBLK2
  1

  9
$DIMSTYLE
  2
ISO-25
  9
$DIMCLRD
 70
0
  9
$DIMCLRE
 70
0
  9
$DIMCLRT
 70
0
  9
$DIMTFAC
 40
1.0
  9
$DIMGAP
 40
0.625
  9
$DIMJUST
 70
0
  9
$DIMSD1
 70
0
  9
$DIMSD2
 70
0
  9
$DIMTOLJ
 70
0
  9
$DIMTZIN
 70
8
  9
$DIMALTZ
 70
0
  9
$DIMALTTZ
 70
0
  9
$DIMUPT
 70
0
  9
$DIMDEC
 70
2
  9
$DIMTDEC
 70
2
  9
$DIMALTU
 70
2
  9
$DIMALTTD
 70
3
  9
$DIMTXSTY
  7
Standard
  9
$DIMAUNIT
 70
0
  9
$DIMADEC
 70
0
  9
$DIMALTRND
 40
0.0
  9
$DIMAZIN
 70
0
  9
$DIMDSEP
 70
44
  9
$DIMATFIT
 70
3
  9
$DIMFRAC
 70
0
  9
$DIMLDRBLK
  1

  9
$DIMLUNIT
 70
2
  9
$DIMLWD
 70
-2
  9
$DIMLWE
 70
-2
  9
$DIMTMOVE
 70
0
  9
$DIMFXL
 40
1.0
  9
$DIMFXLON
 70
0
  9
$DIMJOGANG
 40
0.785398163397
  9
$DIMTFILL
 70
0
  9
$DIMTFILLCLR
 70
0
  9
$DIMARCSYM
 70
0
  9
$DIMLTYPE
  6

  9
$DIMLTEX1
  6

  9
$DIMLTEX2
  6

  9
$DIMTXTDIRECTION
 70
0
  9
$LUNITS
 70
2
  9
$LUPREC
 70
4
  9
$SKETCHINC
 40
1.0
  9
$FILLETRAD
 40
10.0
  9
$AUNITS
 70
0
  9
$AUPREC
 70
2
  9
$MENU
  1
.
  9
$ELEVATION
 40
0.0
  9
$PELEVATION
 40
0.0
  9
$THICKNESS
 40
0.0
  9
$LIMCHECK
 70
0
  9
$CHAMFERA
 40
0.0
  9
$CHAMFERB
 40
0.0
  9
$CHAMFERC
 40
0.0
  9
$CHAMFERD
 40
0.0
  9
$SKPOLY
 70
0
  9
$TDCREATE
 40
2461325.0267592594
  9
$TDUCREATE
 40
2458532.153996898
  9
$TDUPDATE
 40
2461325.0267592594
  9
$TDUUPDATE
 40
2458532.1544311
  9
$TDINDWG
 40
0.0
  9
$TDUSRTIMER
 40
0.0
  9
$USRTIMER
 70
1
  9
$ANGBASE
 50
0.0
  9
$ANGDIR
 70
0
  9
$PDMODE
 70
0
  9
$PDSIZE
 40
0.0
  9
$PLINEWID
 40
0.0
  9
$SPLFRAME
 70
0
  9
$SPLINETYPE
 70
6
  9
$SPLINESEGS
 70
8
  9
$HANDSEED
  5
3B
  9
$SURFTAB1
 70
6
  9
$SURFTAB2
 70
6
  9
$SURFTYPE
 70
6
  9
$SURFU
 70
6
  9
$SURFV
 70
6
  9
$UCSBASE
  2

  9
$UCSNAME
  2

  9
$UCSORG
 10
0.0
 20
0.0
 30
0.0
  9
$UCSXDIR
 10
1.0
 20
0.0
 30
0.0
  9
$UCSYDIR
 10
0.0
 20
1.0
 30
0.0
  9
$UCSORTHOREF
  2

  9
$UCSORTHOVIEW
 70
0
  9
$UCSORGTOP
 10
0.0
 20
0.0
 30
0.0
  9
$UCSORGBOTTOM
 10
0.0
 20
0.0
 30
0.0
  9
$UCSORGLEFT
 10
0.0
 20
0.0
 30
0.0
  9
$UCSORGRIGHT
 10
0.0
 20
0.0
 30
0.0
  9
$UCSORGFRONT
 10
0.0
 20
0.0
 30
0.0
  9
$UCSORGBACK
 10
0.0
 20
0.0
 30
0.0
  9
$PUCSBASE
  2

  9
$PUCSNAME
  2

  9
$PUCSORG
 10
0.0
 20
0.0
 30
0.0
  9
$PUCSXDIR
 10
1.0
 20
0.0
 30
0.0
  9
$PUCSYDIR
 10
0.0
 20
1.0
 30
0.0
  9
$PUCSORTHOREF
  2

  9
$PUCSORTHOVIEW
 70
0
  9
$PUCSORGTOP
 10
0.0
 20
0.0
 30
0.0
  9
$PUCSORGBOTTOM
 10
0.0
 20
0.0
 30
0.0
  9
$PUCSORGLEFT
 10
0.0
 20
0.0
 30
0.0
  9
$PUCSORGRIGHT
 10
0.0
 20
0.0
 30
0.0
  9
$PUCSORGFRONT
 10
0.0
 20
0.0
 30
0.0
  9
$PUCSORGBACK
 10
0.0
 20
0.0
 30
0.0
  9
$USERI1
 70
0
  9
$USERI2
 70
0
  9
$USERI3
 70
0
  9
$USERI4
 70
0
  9
$USERI5
 70
0
  9
$USERR1
 40
0.0
  9
$USERR2
 40
0.0
  9
$USERR3
 40
0.0
  9
$USERR4
 40
0.0
  9
$USERR5
 40
0.0
  9
$WORLDVIEW
 70
1
  9
$SHADEDGE
 70
3
  9
$SHADEDIF
 70
70
  9
$TILEMODE
 70
1
  9
$MAXACTVP
 70
64
  9
$PINSBASE
 10
0.0
 20
0.0
 30
0.0
  9
$PLIMCHECK
 70
0
  9
$PEXTMIN
 10
1e+20
 20
1e+20
 30
1e+20
  9
$PEXTMAX
 10
-1e+20
 20
-1e+20
 30
-1e+20
  9
$PLIMMIN
 10
0.0
 20
0.0
  9
$PLIMMAX
 10
420.0
 20
297.0
  9
$UNITMODE
 70
0
  9
$VISRETAIN
 70
1
  9
$PLINEGEN
 70
0
  9
$PSLTSCALE
 70
1
  9
$TREEDEPTH
 70
3020
  9
$CMLSTYLE
  2
Standard
  9
$CMLJUST
 70
0
  9
$CMLSCALE
 40
20.0
  9
$PROXYGRAPHICS
 70
1
  9
$MEASUREMENT
 70
1
  9
$CELWEIGHT
370
-1
  9
$ENDCAPS
280
0
  9
$JOINSTYLE
280
0
  9
$LWDISPLAY
290
0
  9
$INSUNITS
 70
4
  9
$HYPERLINKBASE
  1

  9
$STYLESHEET
  1

  9
$XEDIT
290
1
  9
$CEPSNTYPE
380
0
  9
$PSTYLEMODE
290
1
  9
$FINGERPRINTGUID
  2
{8F817211-DD11-4AE4-BE45-0205574328E6}
  9
$VERSIONGUID
  2
{A88B7F5B-8A84-4035-A50D-ABB45B5DC33A}
  9
$EXTNAMES
290
1
  9
$PSVPSCALE
 40
0.0
  9
$OLESTARTUP
290
0
  9
$SORTENTS
280
127
  9
$INDEXCTL
280
0
  9
$HIDETEXT
280
1
  9
$XCLIPFRAME
280
1
  9
$HALOGAP
280
0
  9
$OBSCOLOR
 70
257
  9
$OBSLTYPE
280
0
  9
$INTERSECTIONDISPLAY
280
0
  9
$INTERSECTIONCOLOR
 70
257
  9
$DIMASSOC
280
2
  9
$PROJECTNAME
  1

  9
$CAMERADISPLAY
290
0
  9
$LENSLENGTH
 40
50.0
  9
$CAMERAHEIGHT
 40
0.0
  9
$STEPSPERSEC
 40
24.0
  9
$STEPSIZE
 40
100.0
  9
$3DDWFPREC
 40
2.0
  9
$PSOLWIDTH
 40
0.005
  9
$PSOLHEIGHT
 40
0.08
  9
$LOFTANG1
 40
1.570796326795
  9
$LOFTANG2
 40
1.570796326795
  9
$LOFTMAG1
 40
0.0
  9
$LOFTMAG2
 40
0.0
  9
$LOFTPARAM
 70
7
  9
$LOFTNORMALS
280
1
  9
$LATITUDE
 40
37.795
  9
$LONGITUDE
 40
-122.394
  9
$NORTHDIRECTION
 40
0.0
  9
$TIMEZONE
 70
-8000
  9
$LIGHTGLYPHDISPLAY
280
1
  9
$TILEMODELIGHTSYNCH
280
1
  9
$CMATERIAL
347
20
  9
$SOLIDHIST
280
0
  9
$SHOWHIST
280
1
  9
$DWFFRAME
280
2
  9
$DGNFRAME
280
2
  9
$REALWORLDSCALE
290
1
  9
$INTERFERECOLOR
 62
256
  9
$CSHADOW
280
0
  9
$SHADOWPLANELOCATION
 40
0.0
  0
ENDSEC
  0
SECTION
  2
CLASSES
  0
CLASS
  1
ACDBDICTIONARYWDFLT
  2
AcDbDictionaryWithDefault
  3
ObjectDBX Classes
 90
0
 91
0
280
0
281
0
  0
CLASS
  1
SUN
  2
AcDbSun
  3
SCENEOE
 90
1153
 91
0
280
0
281
0
  0
CLASS
  1
VISUALSTYLE
  2
AcDbVisualStyle
  3
ObjectDBX Classes
 90
4095
 91
0
280
0
281
0
  0
CLASS
  1
MATERIAL
  2
AcDbMaterial
  3
ObjectDBX Classes
 90
1153
 91
0
280
0
281
0
  0
CLASS
  1
SCALE
  2
AcDbScale
  3
ObjectDBX Classes
 90
1153
 91
0
280
0
281
0
  0
CLASS
  1
TABLESTYLE
  2
AcDbTableStyle
  3
ObjectDBX Classes
 90
4095
 91
0
280
0
281
0
  0
CLASS
  1
MLEADERSTYLE
  2
AcDbMLeaderStyle
  3
ACDB_MLEADERSTYLE_CLASS
 90
4095
 91
0
280
0
281
0
  0
CLASS
  1
DICTIONARYVAR
  2
AcDbDictionaryVar
  3
ObjectDBX Classes
 90
0
 91
0
280
0
281
0
  0
CLASS
  1
CELLSTYLEMAP
  2
AcDbCellStyleMap
  3
ObjectDBX Classes
 90
1152
 91
0
280
0
281
0
  0
CLASS
  1
MENTALRAYRENDERSETTINGS
  2
AcDbMentalRayRenderSettings
  3
SCENEOE
 90
1024
 91
0
280
0
281
0
  0
CLASS
  1
ACDBDETAILVIEWSTYLE
  2
AcDbDetailViewStyle
  3
ObjectDBX Classes
 90
1025
 91
0
280
0
281
0
  0
CLASS
  1
ACDBSECTIONVIEWSTYLE
  2
AcDbSectionViewStyle
  3
ObjectDBX Classes
 90
1025
 91
0
280
0
281
0
  0
CLASS
  1
RASTERVARIABLES
  2
AcDbRasterVariables
  3
ISM
 90
0
 91
0
280
0
281
0
  0
CLASS
  1
LAYOUT
  2
AcDbLayout
  3
ObjectDBX Classes
 90
0
 91
0
280
0
281
0
  0
CLASS
  1
ACDBPLACEHOLDER
  2
AcDbPlaceHolder
  3
ObjectDBX Classes
 90
0
 91
0
280
0
281
0
  0
ENDSEC
  0
SECTION
  2
TABLES
  0
TABLE
  2
VPORT
  5
8
330
0
100
AcDbSymbolTable
 70
1
  0
VPORT
  5
23
330
8
100
AcDbSymbolTableRecord
100
AcDbViewportTableRecord
  2
*Active
 70
0
 10
0.0
 20
0.0
 11
1.0
 21
1.0
 12
0.0
 22
0.0
 13
0.0
 23
0.0
 14
0.5
 24
0.5
 15
0.5
 25
0.5
 16
0.0
 26
0.0
 36
1.0
 17
0.0
 27
0.0
 37
0.0
 40
1000.0
 41
1.34
 42
50.0
 43
0.0
 44
0.0
 50
0.0
 51
0.0
 71
0
 72
1000
 73
1
 74
3
 75
0
 76
0
 77
0
 78
0
281
0
 65
0
146
0.0
  0
ENDTAB
  0
TABLE
  2
LTYPE
  5
2
330
0
100
AcDbSymbolTable
 70
3
  0
LTYPE
  5
24
330
2
100
AcDbSymbolTableRecord
100
AcDbLinetypeTableRecord
  2
ByBlock
 70
0
  3

 72
65
 73
0
 40
0.0
  0
LTYPE
  5
25
330
2
100
AcDbSymbolTableRecord
100
AcDbLinetypeTableRecord
  2
ByLayer
 70
0
  3

 72
65
 73
0
 40
0.0
  0
LTYPE
  5
26
330
2
100
AcDbSymbolTableRecord
100
AcDbLinetypeTableRecord
  2
Continuous
 70
0
  3

 72
65
 73
0
 40
0.0
  0
ENDTAB
  0
TABLE
  2
LAYER
  5
1
330
0
100
AcDbSymbolTable
 70
4
  0
LAYER
  5
27
330
1
100
AcDbSymbolTableRecord
100
AcDbLayerTableRecord
  2
0
 70
0
 62
7
  6
Continuous
370
-3
390
13
347
21
  0
LAYER
  5
28
330
1
100
AcDbSymbolTableRecord
100
AcDbLayerTableRecord
  2
Defpoints
 70
0
 62
7
  6
Continuous
290
0
370
-3
390
13
347
21
  0
LAYER
  5
30
330
1
100
AcDbSymbolTableRecord
100
AcDbLayerTableRecord
  2
CUT_OUTSIDE
 70
0
 62
1
  6
Continuous
370
-3
390
13
347
21
  0
LAYER
  5
32
330
1
100
AcDbSymbolTableRecord
100
AcDbLayerTableRecord
  2
CUT_INSIDE
 70
0
 62
5
  6
Continuous
370
-3
390
13
347
21
  0
ENDTAB
  0
TABLE
  2
STYLE
  5
5
330
0
100
AcDbSymbolTable
 70
1
  0
STYLE
  5
29
330
5
100
AcDbSymbolTableRecord
100
AcDbTextStyleTableRecord
  2
Standard
 70
0
 40
0.0
 41
1.0
 50
0.0
 71
0
 42
2.5
  3
txt
  4

  0
ENDTAB
  0
TABLE
  2
VIEW
  5
7
330
0
100
AcDbSymbolTable
 70
0
  0
ENDTAB
  0
TABLE
  2
UCS
  5
6
330
0
100
AcDbSymbolTable
 70
0
  0
ENDTAB
  0
TABLE
  2
APPID
  5
3
330
0
100
AcDbSymbolTable
 70
3
  0
APPID
  5
2A
330
3
100
AcDbSymbolTableRecord
100
AcDbRegAppTableRecord
  2
ACAD
 70
0
  0
APPID
  5
38
330
3
100
AcDbSymbolTableRecord
100
AcDbRegAppTableRecord
  2
HATCHBACKGROUNDCOLOR
 70
0
  0
APPID
  5
39
330
3
100
AcDbSymbolTableRecord
100
AcDbRegAppTableRecord
  2
EZDXF
 70
0
  0
ENDTAB
  0
TABLE
  2
DIMSTYLE
  5
4
330
0
100
AcDbSymbolTable
 70
1
100
AcDbDimStyleTable
  0
DIMSTYLE
105
2B
330
4
100
AcDbSymbolTableRecord
100
AcDbDimStyleTableRecord
  2
Standard
 70
0
 40
1.0
 41
2.5
 42
0.625
 43
3.75
 44
1.25
 45
0.0
 46
0.0
 47
0.0
 48
0.0
 49
2.5
140
2.5
141
2.5
142
0.0
143
0.03937007874
144
1.0
145
0.0
146
1.0
147
0.625
148
0.0
 69
0
 70
0
 71
0
 72
0
 73
0
 74
0
 75
0
 76
0
 77
1
 78
8
 79
3
170
0
171
3
172
1
173
0
174
0
175
0
176
0
177
0
178
0
179
2
271
2
272
2
273
2
274
3
275
0
276
0
277
2
278
44
279
0
280
0
281
0
282
0
283
0
284
8
285
0
286
0
288
0
289
3
290
0
371
-2
372
-2
  0
ENDTAB
  0
TABLE
  2
BLOCK_RECORD
  5
9
330
0
100
AcDbSymbolTable
 70
2
  0
BLOCK_RECORD
  5
17
330
9
100
AcDbSymbolTableRecord
100
AcDbBlockTableRecord
  2
*Model_Space
340
1A
 70
0
280
1
281
0
  0
BLOCK_RECORD
  5
1B
330
9
100
AcDbSymbolTableRecord
100
AcDbBlockTableRecord
  2
*Paper_Space
340
1E
 70
0
280
1
281
0
  0
ENDTAB
  0
ENDSEC
  0
SECTION
  2
BLOCKS
  0
BLOCK
  5
18
330
17
100
AcDbEntity
  8
0
100
AcDbBlockBegin
  2
*Model_Space
 70
0
 10
0.0
 20
0.0
 30
0.0
  3
*Model_Space
  1

  0
ENDBLK
  5
19
330
17
100
AcDbEntity
  8
0
100
AcDbBlockEnd
  0
BLOCK
  5
1C
330
1B
100
AcDbEntity
  8
0
100
AcDbBlockBegin
  2
*Paper_Space
 70
0
 10
0.0
 20
0.0
 30
0.0
  3
*Paper_Space
  1

  0
ENDBLK
  5
1D
330
1B
100
AcDbEntity
  8
0
100
AcDbBlockEnd
  0
ENDSEC
  0
SECTION
  2
ENTITIES
  0
LWPOLYLINE
  5
2F
330
17
100
AcDbEntity
  8
SHEET_EDGE
100
AcDbPolyline
 90
4
 70
1
 10
0.0
 20
0.0
 10
2440.0
 20
0.0
 10
2440.0
 20
1220.0
 10
0.0
 20
1220.0
  0
LWPOLYLINE
  5
31
330
17
100
AcDbEntity
  8
CUT_OUTSIDE
100
AcDbPolyline
 90
401
 70
1
 10
451.0
 20
233.00000000000023
 10
450.97310588100197
 20
236.42419517397695
 10
450.89243015972943
 20
239.8475454790322
 10
450.7579927417095
 20
243.26920625470228
 10
450.5698267973632
 20
246.68833325739047
 10
450.32797875382187
 20
250.10408286867016
 10
450.03250828347143
 20
253.51561230343623
 10
449.68348828922916
 20
256.922079817848
 10
449.28100488655616
 20
260.3226449170184
 10
448.82515738220957
 20
263.7164685623931
 10
448.31605824973997
 20
267.10271337877055
 10
447.7538331017407
 20
270.4805438609113
 10
447.13862065885405
 20
273.8491265796881
 10
446.4705727155449
 20
277.20763038771986
 10
445.74985410264685
 20
280.5552266244464
 10
444.9766426466935
 20
283.8910893205873
 10
444.15112912604155
 20
287.2143954019384
 10
443.27351722379996
 20
290.52432489245143
 10
442.3440234775735
 20
293.8200611165522
 10
441.3628772260359
 20
297.10079090064255
 10
440.33032055234344
 20
300.3657047737388
 10
439.2466082244049
 20
303.61399716719666
 10
438.1120076320211
 20
306.84486661347376
 10
436.92679872091105
 20
310.05751594387823
 10
435.69127392363873
 20
313.2511524852599
 10
434.40573808746046
 20
316.4249882555897
 10
433.0705083991079
 20
319.5782401583821
 10
431.685914306527
 20
322.71013017591383
 10
430.2522974375921
 20
325.8198855611861
 10
428.7700115158141
 20
328.90673902858975
 10
427.23942227306406
 20
331.9699289432215
 10
425.66090735933517
 20
335.00869950880497
 10
424.03485624956227
 20
338.02230095417394
 10
422.3616701475256
 20
341.00998971826505
 10
420.6417618868596
 20
343.9710286335811
 10
418.875555829192
 20
346.90468710807704
 10
417.06348775943934
 20
349.8102413054212
 10
415.2060047782828
 20
352.68697432359284
 10
413.30356519185443
 20
355.5341763717645
 10
411.3566383986549
 20
358.35114494543495
 10
409.3657047737384
 20
361.13718499975937
 10
407.3312555501857
 20
363.89160912104273
 10
405.2537926979005
 20
366.61373769634884
 10
403.13382879975575
 20
369.3028990811839
 10
400.9718869251219
 20
371.95842976521453
 10
398.76850050080657
 20
374.5796745359803
 10
396.52421317944
 20
377.1659866405563
 10
394.23957870533684
 20
379.71672794513063
 10
391.91516077786764
 20
382.2312690924542
 10
389.551532912375
 20
384.7089896571247
 10
387.14927829866724
 20
387.1492782986676
 10
384.7089896571245
 20
389.55153291237525
 10
382.2312690924541
 20
391.91516077786775
 10
379.71672794513046
 20
394.23957870533707
 10
377.16598664055596
 20
396.52421317944027
 10
374.5796745359799
 20
398.7685005008068
 10
371.95842976521413
 20
400.97188692512225
 10
369.3028990811836
 20
403.133828799756
 10
366.61373769634884
 20
405.2537926979005
 10
363.8916091210427
 20
407.3312555501858
 10
361.1371849997589
 20
409.3657047737387
 10
358.35114494543456
 20
411.35663839865526
 10
355.5341763717645
 20
413.30356519185443
 10
352.6869743235927
 20
415.20600477828293
 10
349.81024130542113
 20
417.06348775943934
 10
346.90468710807676
 20
418.8755558291922
 10
343.97102863358066
 20
420.64176188685985
 10
341.00998971826476
 20
422.36167014752573
 10
338.02230095417383
 20
424.03485624956227
 10
335.00869950880497
 20
425.66090735933517
 10
331.969928943221
 20
427.2394222730643
 10
328.9067390285893
 20
428.7700115158143
 10
325.81988556118586
 20
430.25229743759223
 10
322.71013017591355
 20
431.68591430652714
 10
319.578240158382
 20
433.0705083991079
 10
316.4249882555894
 20
434.4057380874606
 10
313.2511524852597
 20
435.69127392363885
 10
310.05751594387795
 20
436.92679872091117
 10
306.8448666134734
 20
438.11200763202123
 10
303.6139971671965
 20
439.2466082244049
 10
300.3657047737385
 20
440.33032055234344
 10
297.10079090064204
 20
441.36287722603606
 10
293.8200611165516
 20
442.3440234775737
 10
290.5243248924511
 20
443.2735172238
 10
287.2143954019382
 20
444.1511291260416
 10
283.89108932058724
 20
444.97664264669356
 10
280.55522662444616
 20
445.74985410264696
 10
277.20763038771963
 20
446.4705727155449
 10
273.8491265796879
 20
447.13862065885417
 10
270.4805438609112
 20
447.7538331017407
 10
267.1027133787703
 20
448.3160582497401
 10
263.71646856239283
 20
448.82515738220957
 10
260.32264491701835
 20
449.28100488655616
 10
256.9220798178477
 20
449.6834882892292
 10
253.51561230343594
 20
450.03250828347143
 10
250.10408286867005
 20
450.327978753822
 10
246.68833325739018
 20
450.56982679736325
 10
243.26920625470217
 20
450.7579927417095
 10
239.8475454790319
 20
450.89243015972943
 10
236.42419517397667
 20
450.97310588100197
 10
232.99999999999977
 20
451.0
 10
229.57580482602305
 20
450.97310588100197
 10
226.15245452096804
 20
450.89243015972943
 10
222.73079374529772
 20
450.7579927417095
 10
219.31166674260953
 20
450.56982679736325
 10
215.89591713132984
 20
450.32797875382187
 10
212.48438769656377
 20
450.03250828347143
 10
209.07792018215184
 20
449.6834882892292
 10
205.6773550829816
 20
449.28100488655616
 10
202.28353143760694
 20
448.82515738220957
 10
198.89728662122963
 20
448.31605824973997
 10
195.5194561390885
 20
447.7538331017406
 10
192.15087342031185
 20
447.13862065885405
 10
188.7923696122803
 20
446.4705727155449
 10
185.44477337555358
 20
445.74985410264685
 10
182.1089106794123
 20
444.97664264669345
 10
178.78560459806155
 20
444.1511291260415
 10
175.47567510754862
 20
443.2735172237999
 10
172.17993888344796
 20
442.3440234775735
 10
168.89920909935768
 20
441.36287722603595
 10
165.63429522626143
 20
440.33032055234344
 10
162.3860028328034
 20
439.2466082244049
 10
159.15513338652647
 20
438.1120076320211
 10
155.94248405612177
 20
436.92679872091105
 10
152.74884751474008
 20
435.69127392363873
 10
149.5750117444103
 20
434.40573808746046
 10
146.4217598416177
 20
433.0705083991079
 10
143.28986982408622
 20
431.685914306527
 10
140.1801144388141
 20
430.25229743759223
 10
137.09326097141047
 20
428.7700115158142
 10
134.03007105677875
 20
427.2394222730642
 10
130.99130049119498
 20
425.66090735933517
 10
127.97769904582589
 20
424.03485624956215
 10
124.99001028173501
 20
422.3616701475256
 10
122.02897136641894
 20
420.6417618868596
 10
119.09531289192304
 20
418.8755558291921
 10
116.18975869457864
 20
417.0634877594392
 10
113.3130256764072
 20
415.20600477828293
 10
110.46582362823546
 20
413.30356519185443
 10
107.64885505456522
 20
411.35663839865504
 10
104.86281500024066
 20
409.36570477373834
 10
102.10839087895712
 20
407.3312555501856
 10
99.386262303651
 20
405.2537926979004
 10
96.69710091881629
 20
403.13382879975586
 10
94.04157023478552
 20
400.9718869251219
 10
91.42032546401987
 20
398.7685005008067
 10
88.83401335944382
 20
396.52421317944004
 10
86.28327205486943
 20
394.23957870533695
 10
83.7687309075458
 20
391.91516077786764
 10
81.29101034287532
 20
389.551532912375
 10
78.85072170133262
 20
387.14927829866735
 10
76.4484670876248
 20
384.70898965712456
 10
74.08483922213225
 20
382.2312690924541
 10
71.76042129466296
 20
379.7167279451305
 10
69.4757868205597
 20
377.16598664055596
 10
67.23149949919323
 20
374.5796745359801
 10
65.02811307487787
 20
371.9584297652143
 10
62.866171200244054
 20
369.3028990811837
 10
60.746207302099464
 20
366.61373769634884
 10
58.66874444981431
 20
363.89160912104273
 10
56.63429522626137
 20
361.13718499975903
 10
54.643361601344765
 20
358.3511449454345
 10
52.696434808145426
 20
355.53417637176426
 10
50.79399522171707
 20
352.6869743235927
 10
48.93651224056063
 20
349.8102413054212
 10
47.124444170807834
 20
346.9046871080767
 10
45.35823811314023
 20
343.9710286335809
 10
43.63832985247433
 20
341.0099897182648
 10
41.96514375043776
 20
338.02230095417394
 10
40.339092640664774
 20
335.00869950880485
 10
38.760577726935736
 20
331.969928943221
 10
37.22998848418575
 20
328.9067390285894
 10
35.74770256240777
 20
325.81988556118586
 10
34.31408569347289
 20
322.7101301759136
 10
32.92949160089205
 20
319.5782401583821
 10
31.59426191253948
 20
316.4249882555896
 10
30.308726076361182
 20
313.2511524852598
 10
29.07320127908895
 20
310.0575159438781
 10
27.887992367978796
 20
306.8448666134734
 10
26.753391775595077
 20
303.61399716719643
 10
25.669679447656506
 20
300.36570477373857
 10
24.637122773964023
 20
297.1007909006422
 10
23.655976522426357
 20
293.82006111655176
 10
22.726482776199987
 20
290.5243248924512
 10
21.84887087395839
 20
287.2143954019383
 10
21.023357353306494
 20
283.8910893205873
 10
20.250145897353008
 20
280.55522662444605
 10
19.52942728445501
 20
277.2076303877195
 10
18.861379341145863
 20
273.8491265796879
 10
18.246166898259276
 20
270.4805438609111
 10
17.683941750259947
 20
267.1027133787701
 10
17.174842617790432
 20
263.71646856239295
 10
16.71899511344381
 20
260.32264491701824
 10
16.31651171077081
 20
256.9220798178479
 10
15.96749171652857
 20
253.51561230343606
 10
15.672021246178076
 20
250.10408286867
 10
15.430173202636809
 20
246.68833325739024
 10
15.242007258290556
 20
243.26920625470223
 10
15.107569840270514
 20
239.8475454790319
 10
15.026894118998001
 20
236.42419517397678
 10
15.0
 20
232.9999999999999
 10
15.026894118998001
 20
229.575804826023
 10
15.107569840270514
 20
226.15245452096792
 10
15.242007258290556
 20
222.73079374529766
 10
15.430173202636809
 20
219.31166674260965
 10
15.672021246178105
 20
215.8959171313299
 10
15.96749171652857
 20
212.48438769656377
 10
16.31651171077084
 20
209.07792018215207
 10
16.71899511344384
 20
205.6773550829816
 10
17.17484261779046
 20
202.28353143760694
 10
17.683941750260004
 20
198.89728662122957
 10
18.246166898259304
 20
195.51945613908873
 10
18.86137934114589
 20
192.15087342031194
 10
19.52942728445504
 20
188.7923696122803
 10
20.25014589735312
 20
185.4447733755536
 10
21.023357353306523
 20
182.10891067941247
 10
21.848870873958447
 20
178.78560459806158
 10
22.726482776200044
 20
175.47567510754862
 10
23.65597652242647
 20
172.1799388834479
 10
24.637122773964023
 20
168.89920909935768
 10
25.669679447656563
 20
165.63429522626132
 10
26.753391775595134
 20
162.3860028328034
 10
27.88799236797891
 20
159.1551333865263
 10
29.073201279088977
 20
155.94248405612177
 10
30.308726076361268
 20
152.74884751474008
 10
31.594261912539537
 20
149.5750117444103
 10
32.92949160089216
 20
146.4217598416177
 10
34.314085693472975
 20
143.28986982408622
 10
35.747702562407795
 20
140.18011443881403
 10
37.22998848418581
 20
137.09326097141047
 10
38.76057772693591
 20
134.03007105677864
 10
40.33909264066483
 20
130.99130049119503
 10
41.96514375043773
 20
127.97769904582606
 10
43.638329852474385
 20
124.99001028173501
 10
45.35823811314032
 20
122.028971366419
 10
47.12444417080795
 20
119.09531289192307
 10
48.93651224056072
 20
116.1897586945787
 10
50.793995221717125
 20
113.31302567640722
 10
52.69643480814554
 20
110.46582362823551
 10
54.643361601344935
 20
107.64885505456527
 10
56.634295226261486
 20
104.86281500024086
 10
58.66874444981437
 20
102.10839087895715
 10
60.74620730209955
 20
99.38626230365105
 10
62.866171200244224
 20
96.69710091881615
 10
65.02811307487798
 20
94.04157023478558
 10
67.23149949919332
 20
91.42032546401987
 10
69.47578682055982
 20
88.83401335944393
 10
71.76042129466313
 20
86.28327205486937
 10
74.08483922213233
 20
83.76873090754583
 10
76.44846708762495
 20
81.29101034287538
 10
78.85072170133273
 20
78.85072170133253
 10
81.29101034287564
 20
76.44846708762469
 10
83.76873090754594
 20
74.08483922213225
 10
86.28327205486954
 20
71.76042129466299
 10
88.83401335944393
 20
69.47578682055979
 10
91.42032546402012
 20
67.23149949919309
 10
94.0415702347857
 20
65.02811307487787
 10
96.69710091881626
 20
62.86617120024414
 10
99.38626230365116
 20
60.74620730209949
 10
102.10839087895732
 20
58.6687444498142
 10
104.86281500024089
 20
56.63429522626143
 10
107.64885505456527
 20
54.64336160134491
 10
110.46582362823557
 20
52.696434808145455
 10
113.31302567640734
 20
50.79399522171707
 10
116.18975869457876
 20
48.93651224056066
 10
119.09531289192316
 20
47.12444417080792
 10
122.02897136641914
 20
45.35823811314026
 10
124.99001028173524
 20
43.63832985247427
 10
127.97769904582611
 20
41.96514375043773
 10
130.99130049119503
 20
40.33909264066483
 10
134.03007105677892
 20
38.76057772693571
 10
137.0932609714106
 20
37.22998848418575
 10
140.18011443881423
 20
35.74770256240771
 10
143.28986982408634
 20
34.31408569347286
 10
146.42175984161793
 20
32.92949160089205
 10
149.57501174441046
 20
31.59426191253948
 10
152.74884751474033
 20
30.308726076361154
 10
155.942484056122
 20
29.07320127908889
 10
159.15513338652664
 20
27.887992367978768
 10
162.38600283280346
 20
26.753391775595105
 10
165.63429522626157
 20
25.66967944765645
 10
168.89920909935782
 20
24.63712277396405
 10
172.17993888344805
 20
23.655976522426386
 10
175.47567510754877
 20
22.726482776199987
 10
178.78560459806164
 20
21.84887087395839
 10
182.1089106794127
 20
21.023357353306494
 10
185.44477337555372
 20
20.250145897353036
 10
188.79236961228034
 20
19.52942728445504
 10
192.15087342031205
 20
18.861379341145835
 10
195.5194561390888
 20
18.246166898259276
 10
198.89728662122968
 20
17.683941750259976
 10
202.28353143760708
 20
17.174842617790432
 10
205.6773550829817
 20
16.71899511344384
 10
209.07792018215224
 20
16.316511710770783
 10
212.48438769656389
 20
15.96749171652857
 10
215.8959171313299
 20
15.672021246178133
 10
219.3116667426097
 20
15.430173202636809
 10
222.730793745298
 20
15.242007258290528
 10
226.1524545209681
 20
15.107569840270514
 10
229.57580482602322
 20
15.02689411899803
 10
233.00000000000006
 20
15.0
 10
236.42419517397707
 20
15.02689411899803
 10
239.84754547903196
 20
15.107569840270514
 10
243.26920625470223
 20
15.242007258290528
 10
246.68833325739035
 20
15.430173202636809
 10
250.10408286867033
 20
15.672021246178133
 10
253.51561230343617
 20
15.96749171652857
 10
256.922079817848
 20
16.31651171077084
 10
260.32264491701835
 20
16.71899511344384
 10
263.716468562393
 20
17.174842617790432
 10
267.1027133787704
 20
17.683941750260033
 10
270.48054386091127
 20
18.246166898259276
 10
273.849126579688
 20
18.86137934114589
 10
277.20763038771975
 20
19.529427284455096
 10
280.55522662444633
 20
20.250145897353093
 10
283.8910893205874
 20
21.02335735330655
 10
287.2143954019384
 20
21.848870873958447
 10
290.5243248924513
 20
22.726482776199987
 10
293.8200611165521
 20
23.655976522426442
 10
297.1007909006423
 20
24.63712277396405
 10
300.3657047737386
 20
25.669679447656563
 10
303.6139971671966
 20
26.753391775595105
 10
306.8448666134736
 20
27.88799236797888
 10
310.05751594387806
 20
29.07320127908895
 10
313.2511524852599
 20
30.308726076361268
 10
316.4249882555896
 20
31.594261912539537
 10
319.57824015838224
 20
32.929491600892106
 10
322.7101301759137
 20
34.314085693472975
 10
325.8198855611859
 20
35.74770256240777
 10
328.9067390285895
 20
37.22998848418581
 10
331.9699289432213
 20
38.76057772693582
 10
335.008699508805
 20
40.33909264066483
 10
338.02230095417406
 20
41.96514375043779
 10
341.0099897182649
 20
43.638329852474385
 10
343.97102863358094
 20
45.35823811314026
 10
346.9046871080769
 20
47.12444417080792
 10
349.81024130542124
 20
48.93651224056072
 10
352.6869743235928
 20
50.793995221717125
 10
355.53417637176443
 20
52.696434808145455
 10
358.3511449454348
 20
54.643361601344964
 10
361.13718499975914
 20
56.63429522626143
 10
363.89160912104273
 20
58.66874444981431
 10
366.61373769634884
 20
60.74620730209949
 10
369.3028990811838
 20
62.86617120024414
 10
371.95842976521436
 20
65.02811307487798
 10
374.5796745359801
 20
67.23149949919332
 10
377.1659866405561
 20
69.47578682055985
 10
379.71672794513063
 20
71.76042129466316
 10
382.2312690924541
 20
74.0848392221323
 10
384.70898965712456
 20
76.44846708762486
 10
387.14927829866735
 20
78.85072170133265
 10
389.55153291237525
 20
81.29101034287555
 10
391.91516077786775
 20
83.76873090754589
 10
394.23957870533695
 20
86.28327205486949
 10
396.52421317944015
 20
88.83401335944393
 10
398.7685005008068
 20
91.42032546402004
 10
400.9718869251221
 20
94.0415702347857
 10
403.133828799756
 20
96.69710091881637
 10
405.2537926979005
 20
99.38626230365116
 10
407.3312555501857
 20
102.10839087895727
 10
409.36570477373857
 20
104.86281500024091
 10
411.35663839865504
 20
107.64885505456527
 10
413.30356519185455
 20
110.46582362823557
 10
415.20600477828293
 20
113.31302567640728
 10
417.06348775943934
 20
116.18975869457876
 10
418.8755558291921
 20
119.09531289192313
 10
420.64176188685974
 20
122.02897136641911
 10
422.3616701475257
 20
124.99001028173512
 10
424.03485624956227
 20
127.97769904582611
 10
425.66090735933517
 20
130.99130049119498
 10
427.23942227306424
 20
134.03007105677887
 10
428.7700115158142
 20
137.09326097141047
 10
430.2522974375923
 20
140.18011443881426
 10
431.6859143065271
 20
143.28986982408628
 10
433.0705083991079
 20
146.42175984161793
 10
434.4057380874605
 20
149.57501174441046
 10
435.69127392363885
 20
152.7488475147403
 10
436.92679872091105
 20
155.94248405612194
 10
438.1120076320212
 20
159.1551333865266
 10
439.2466082244049
 20
162.38600283280346
 10
440.33032055234355
 20
165.63429522626154
 10
441.36287722603595
 20
168.8992090993578
 10
442.3440234775736
 20
172.17993888344813
 10
443.2735172238
 20
175.47567510754874
 10
444.1511291260416
 20
178.78560459806164
 10
444.9766426466935
 20
182.10891067941265
 10
445.7498541026469
 20
185.44477337555367
 10
446.47057271554496
 20
188.7923696122803
 10
447.1386206588541
 20
192.150873420312
 10
447.7538331017407
 20
195.5194561390888
 10
448.31605824973997
 20
198.89728662122963
 10
448.82515738220957
 20
202.28353143760705
 10
449.28100488655616
 20
205.67735508298165
 10
449.6834882892292
 20
209.07792018215218
 10
450.03250828347143
 20
212.48438769656389
 10
450.32797875382187
 20
215.89591713132984
 10
450.5698267973632
 20
219.3116667426097
 10
450.7579927417095
 20
222.73079374529794
 10
450.8924301597295
 20
226.15245452096804
 10
450.97310588100197
 20
229.57580482602316
 10
451.0
 20
233.0
  0
CIRCLE
  5
33
330
17
100
AcDbEntity
  8
CUT_INSIDE
100
AcDbCircle
 10
233.0
 20
233.0
 30
0.0
 40
175.0
  0
TEXT
  5
34
330
17
100
AcDbEntity
  8
NOTES
100
AcDbText
 10
25.0
 20
25.0
 30
0.0
 40
12.0
  1
woofer-ring
 11
25.0
 21
25.0
 31
0.0
100
AcDbText
  0
LWPOLYLINE
  5
35
330
17
100
AcDbEntity
  8
CUT_OUTSIDE
100
AcDbPolyline
 90
401
 70
1
 10
899.0
 20
233.00000000000023
 10
898.973105881002
 20
236.42419517397695
 10
898.8924301597294
 20
239.8475454790322
 10
898.7579927417095
 20
243.26920625470228
 10
898.5698267973632
 20
246.68833325739047
 10
898.3279787538219
 20
250.10408286867016
 10
898.0325082834714
 20
253.51561230343623
 10
897.6834882892292
 20
256.922079817848
 10
897.2810048865562
 20
260.3226449170184
 10
896.8251573822096
 20
263.7164685623931
 10
896.31605824974
 20
267.10271337877055
 10
895.7538331017407
 20
270.4805438609113
 10
895.138620658854
 20
273.8491265796881
 10
894.4705727155449
 20
277.20763038771986
 10
893.7498541026469
 20
280.5552266244464
 10
892.9766426466936
 20
283.8910893205873
 10
892.1511291260415
 20
287.2143954019384
 10
891.2735172237999
 20
290.52432489245143
 10
890.3440234775735
 20
293.8200611165522
 10
889.3628772260358
 20
297.10079090064255
 10
888.3303205523434
 20
300.3657047737388
 10
887.2466082244049
 20
303.61399716719666
 10
886.1120076320211
 20
306.84486661347376
 10
884.926798720911
 20
310.05751594387823
 10
883.6912739236387
 20
313.2511524852599
 10
882.4057380874605
 20
316.4249882555897
 10
881.0705083991079
 20
319.5782401583821
 10
879.685914306527
 20
322.71013017591383
 10
878.2522974375921
 20
325.8198855611861
 10
876.7700115158141
 20
328.90673902858975
 10
875.2394222730641
 20
331.9699289432215
 10
873.6609073593352
 20
335.00869950880497
 10
872.0348562495623
 20
338.02230095417394
 10
870.3616701475256
 20
341.00998971826505
 10
868.6417618868596
 20
343.9710286335811
 10
866.8755558291921
 20
346.90468710807704
 10
865.0634877594393
 20
349.8102413054212
 10
863.2060047782828
 20
352.68697432359284
 10
861.3035651918544
 20
355.5341763717645
 10
859.3566383986549
 20
358.35114494543495
 10
857.3657047737383
 20
361.13718499975937
 10
855.3312555501857
 20
363.89160912104273
 10
853.2537926979005
 20
366.61373769634884
 10
851.1338287997557
 20
369.3028990811839
 10
848.9718869251219
 20
371.95842976521453
 10
846.7685005008066
 20
374.5796745359803
 10
844.52421317944
 20
377.1659866405563
 10
842.2395787053368
 20
379.71672794513063
 10
839.9151607778676
 20
382.2312690924542
 10
837.551532912375
 20
384.7089896571247
 10
835.1492782986672
 20
387.1492782986676
 10
832.7089896571244
 20
389.55153291237525
 10
830.2312690924541
 20
391.91516077786775
 10
827.7167279451305
 20
394.23957870533707
 10
825.165986640556
 20
396.52421317944027
 10
822.5796745359798
 20
398.7685005008068
 10
819.9584297652141
 20
400.97188692512225
 10
817.3028990811836
 20
403.133828799756
 10
814.6137376963488
 20
405.2537926979005
 10
811.8916091210426
 20
407.3312555501858
 10
809.1371849997589
 20
409.3657047737387
 10
806.3511449454345
 20
411.35663839865526
 10
803.5341763717645
 20
413.30356519185443
 10
800.6869743235927
 20
415.20600477828293
 10
797.8102413054212
 20
417.06348775943934
 10
794.9046871080768
 20
418.8755558291922
 10
791.9710286335807
 20
420.64176188685985
 10
789.0099897182647
 20
422.36167014752573
 10
786.0223009541738
 20
424.03485624956227
 10
783.008699508805
 20
425.66090735933517
 10
779.969928943221
 20
427.2394222730643
 10
776.9067390285893
 20
428.7700115158143
 10
773.8198855611859
 20
430.25229743759223
 10
770.7101301759135
 20
431.68591430652714
 10
767.578240158382
 20
433.0705083991079
 10
764.4249882555894
 20
434.4057380874606
 10
761.2511524852597
 20
435.69127392363885
 10
758.0575159438779
 20
436.92679872091117
 10
754.8448666134734
 20
438.11200763202123
 10
751.6139971671964
 20
439.2466082244049
 10
748.3657047737386
 20
440.33032055234344
 10
745.1007909006421
 20
441.36287722603606
 10
741.8200611165516
 20
442.3440234775737
 10
738.5243248924511
 20
443.2735172238
 10
735.2143954019382
 20
444.1511291260416
 10
731.8910893205873
 20
444.97664264669356
 10
728.5552266244462
 20
445.74985410264696
 10
725.2076303877196
 20
446.4705727155449
 10
721.8491265796879
 20
447.13862065885417
 10
718.4805438609112
 20
447.7538331017407
 10
715.1027133787703
 20
448.3160582497401
 10
711.7164685623928
 20
448.82515738220957
 10
708.3226449170184
 20
449.28100488655616
 10
704.9220798178477
 20
449.6834882892292
 10
701.515612303436
 20
450.03250828347143
 10
698.10408286867
 20
450.327978753822
 10
694.6883332573902
 20
450.56982679736325
 10
691.2692062547021
 20
450.7579927417095
 10
687.8475454790319
 20
450.89243015972943
 10
684.4241951739766
 20
450.97310588100197
 10
680.9999999999998
 20
451.0
 10
677.575804826023
 20
450.97310588100197
 10
674.152454520968
 20
450.89243015972943
 10
670.7307937452977
 20
450.7579927417095
 10
667.3116667426095
 20
450.56982679736325
 10
663.8959171313298
 20
450.32797875382187
 10
660.4843876965638
 20
450.03250828347143
 10
657.0779201821518
 20
449.6834882892292
 10
653.6773550829816
 20
449.28100488655616
 10
650.2835314376069
 20
448.82515738220957
 10
646.8972866212296
 20
448.31605824973997
 10
643.5194561390886
 20
447.7538331017406
 10
640.1508734203119
 20
447.13862065885405
 10
636.7923696122803
 20
446.4705727155449
 10
633.4447733755536
 20
445.74985410264685
 10
630.1089106794122
 20
444.97664264669345
 10
626.7856045980616
 20
444.1511291260415
 10
623.4756751075486
 20
443.2735172237999
 10
620.1799388834479
 20
442.3440234775735
 10
616.8992090993577
 20
441.36287722603595
 10
613.6342952262614
 20
440.33032055234344
 10
610.3860028328033
 20
439.2466082244049
 10
607.1551333865265
 20
438.1120076320211
 10
603.9424840561218
 20
436.92679872091105
 10
600.7488475147401
 20
435.69127392363873
 10
597.5750117444103
 20
434.40573808746046
 10
594.4217598416177
 20
433.0705083991079
 10
591.2898698240863
 20
431.685914306527
 10
588.1801144388141
 20
430.25229743759223
 10
585.0932609714105
 20
428.7700115158142
 10
582.0300710567788
 20
427.2394222730642
 10
578.991300491195
 20
425.66090735933517
 10
575.9776990458258
 20
424.03485624956215
 10
572.9900102817351
 20
422.3616701475256
 10
570.028971366419
 20
420.6417618868596
 10
567.0953128919231
 20
418.8755558291921
 10
564.1897586945786
 20
417.0634877594392
 10
561.3130256764072
 20
415.20600477828293
 10
558.4658236282355
 20
413.30356519185443
 10
555.6488550545653
 20
411.35663839865504
 10
552.8628150002406
 20
409.36570477373834
 10
550.1083908789572
 20
407.3312555501856
 10
547.3862623036509
 20
405.2537926979004
 10
544.6971009188163
 20
403.13382879975586
 10
542.0415702347855
 20
400.9718869251219
 10
539.4203254640199
 20
398.7685005008067
 10
536.8340133594438
 20
396.52421317944004
 10
534.2832720548695
 20
394.23957870533695
 10
531.7687309075458
 20
391.91516077786764
 10
529.2910103428753
 20
389.551532912375
 10
526.8507217013326
 20
387.14927829866735
 10
524.4484670876247
 20
384.70898965712456
 10
522.0848392221322
 20
382.2312690924541
 10
519.7604212946629
 20
379.7167279451305
 10
517.4757868205597
 20
377.16598664055596
 10
515.2314994991932
 20
374.5796745359801
 10
513.0281130748779
 20
371.9584297652143
 10
510.866171200244
 20
369.3028990811837
 10
508.7462073020995
 20
366.61373769634884
 10
506.6687444498143
 20
363.89160912104273
 10
504.6342952262614
 20
361.13718499975903
 10
502.64336160134474
 20
358.3511449454345
 10
500.69643480814545
 20
355.53417637176426
 10
498.79399522171707
 20
352.6869743235927
 10
496.93651224056066
 20
349.8102413054212
 10
495.1244441708078
 20
346.9046871080767
 10
493.35823811314026
 20
343.9710286335809
 10
491.6383298524743
 20
341.0099897182648
 10
489.96514375043773
 20
338.02230095417394
 10
488.3390926406648
 20
335.00869950880485
 10
486.7605777269357
 20
331.969928943221
 10
485.22998848418575
 20
328.9067390285894
 10
483.74770256240777
 20
325.81988556118586
 10
482.31408569347286
 20
322.7101301759136
 10
480.92949160089205
 20
319.5782401583821
 10
479.5942619125395
 20
316.4249882555896
 10
478.30872607636115
 20
313.2511524852598
 10
477.07320127908895
 20
310.0575159438781
 10
475.88799236797877
 20
306.8448666134734
 10
474.7533917755951
 20
303.61399716719643
 10
473.6696794476565
 20
300.36570477373857
 10
472.63712277396405
 20
297.1007909006422
 10
471.6559765224264
 20
293.82006111655176
 10
470.7264827762
 20
290.5243248924512
 10
469.8488708739584
 20
287.2143954019383
 10
469.0233573533065
 20
283.8910893205873
 10
468.25014589735304
 20
280.55522662444605
 10
467.529427284455
 20
277.2076303877195
 10
466.86137934114583
 20
273.8491265796879
 10
466.2461668982593
 20
270.4805438609111
 10
465.6839417502599
 20
267.1027133787701
 10
465.17484261779043
 20
263.71646856239295
 10
464.71899511344384
 20
260.32264491701824
 10
464.3165117107708
 20
256.9220798178479
 10
463.96749171652857
 20
253.51561230343606
 10
463.6720212461781
 20
250.10408286867
 10
463.4301732026368
 20
246.68833325739024
 10
463.2420072582905
 20
243.26920625470223
 10
463.1075698402705
 20
239.8475454790319
 10
463.02689411899803
 20
236.42419517397678
 10
463.0
 20
232.9999999999999
 10
463.02689411899803
 20
229.575804826023
 10
463.1075698402705
 20
226.15245452096792
 10
463.2420072582905
 20
222.73079374529766
 10
463.4301732026368
 20
219.31166674260965
 10
463.67202124617813
 20
215.8959171313299
 10
463.96749171652857
 20
212.48438769656377
 10
464.31651171077084
 20
209.07792018215207
 10
464.71899511344384
 20
205.6773550829816
 10
465.17484261779043
 20
202.28353143760694
 10
465.68394175026003
 20
198.89728662122957
 10
466.2461668982593
 20
195.51945613908873
 10
466.8613793411459
 20
192.15087342031194
 10
467.52942728445504
 20
188.7923696122803
 10
468.25014589735315
 20
185.4447733755536
 10
469.02335735330655
 20
182.10891067941247
 10
469.84887087395845
 20
178.78560459806158
 10
470.72648277620004
 20
175.47567510754862
 10
471.6559765224265
 20
172.1799388834479
 10
472.63712277396405
 20
168.89920909935768
 10
473.66967944765656
 20
165.63429522626132
 10
474.7533917755951
 20
162.3860028328034
 10
475.8879923679789
 20
159.1551333865263
 10
477.07320127908895
 20
155.94248405612177
 10
478.30872607636127
 20
152.74884751474008
 10
479.59426191253954
 20
149.5750117444103
 10
480.92949160089216
 20
146.4217598416177
 10
482.314085693473
 20
143.28986982408622
 10
483.74770256240777
 20
140.18011443881403
 10
485.2299884841858
 20
137.09326097141047
 10
486.76057772693594
 20
134.03007105677864
 10
488.33909264066483
 20
130.99130049119503
 10
489.96514375043773
 20
127.97769904582606
 10
491.6383298524744
 20
124.99001028173501
 10
493.3582381131403
 20
122.028971366419
 10
495.1244441708079
 20
119.09531289192307
 10
496.9365122405607
 20
116.1897586945787
 10
498.7939952217171
 20
113.31302567640722
 10
500.69643480814557
 20
110.46582362823551
 10
502.64336160134496
 20
107.64885505456527
 10
504.6342952262615
 20
104.86281500024086
 10
506.66874444981437
 20
102.10839087895715
 10
508.74620730209955
 20
99.38626230365105
 10
510.86617120024425
 20
96.69710091881615
 10
513.028113074878
 20
94.04157023478558
 10
515.2314994991933
 20
91.42032546401987
 10
517.4757868205598
 20
88.83401335944393
 10
519.7604212946632
 20
86.28327205486937
 10
522.0848392221324
 20
83.76873090754583
 10
524.448467087625
 20
81.29101034287538
 10
526.8507217013328
 20
78.85072170133253
 10
529.2910103428757
 20
76.44846708762469
 10
531.7687309075459
 20
74.08483922213225
 10
534.2832720548695
 20
71.76042129466299
 10
536.8340133594439
 20
69.47578682055979
 10
539.4203254640202
 20
67.23149949919309
 10
542.0415702347857
 20
65.02811307487787
 10
544.6971009188162
 20
62.86617120024414
 10
547.3862623036512
 20
60.74620730209949
 10
550.1083908789574
 20
58.6687444498142
 10
552.8628150002409
 20
56.63429522626143
 10
555.6488550545653
 20
54.64336160134491
 10
558.4658236282355
 20
52.696434808145455
 10
561.3130256764073
 20
50.79399522171707
 10
564.1897586945788
 20
48.93651224056066
 10
567.0953128919232
 20
47.12444417080792
 10
570.0289713664191
 20
45.35823811314026
 10
572.9900102817353
 20
43.63832985247427
 10
575.9776990458261
 20
41.96514375043773
 10
578.991300491195
 20
40.33909264066483
 10
582.030071056779
 20
38.76057772693571
 10
585.0932609714106
 20
37.22998848418575
 10
588.1801144388143
 20
35.74770256240771
 10
591.2898698240863
 20
34.31408569347286
 10
594.4217598416179
 20
32.92949160089205
 10
597.5750117444104
 20
31.59426191253948
 10
600.7488475147403
 20
30.308726076361154
 10
603.942484056122
 20
29.07320127908889
 10
607.1551333865266
 20
27.887992367978768
 10
610.3860028328035
 20
26.753391775595105
 10
613.6342952262615
 20
25.66967944765645
 10
616.8992090993578
 20
24.63712277396405
 10
620.179938883448
 20
23.655976522426386
 10
623.4756751075488
 20
22.726482776199987
 10
626.7856045980616
 20
21.84887087395839
 10
630.1089106794127
 20
21.023357353306494
 10
633.4447733755537
 20
20.250145897353036
 10
636.7923696122804
 20
19.52942728445504
 10
640.1508734203121
 20
18.861379341145835
 10
643.5194561390888
 20
18.246166898259276
 10
646.8972866212297
 20
17.683941750259976
 10
650.283531437607
 20
17.174842617790432
 10
653.6773550829816
 20
16.71899511344384
 10
657.0779201821522
 20
16.316511710770783
 10
660.4843876965639
 20
15.96749171652857
 10
663.89591713133
 20
15.672021246178133
 10
667.3116667426098
 20
15.430173202636809
 10
670.730793745298
 20
15.242007258290528
 10
674.1524545209681
 20
15.107569840270514
 10
677.5758048260232
 20
15.02689411899803
 10
681.0
 20
15.0
 10
684.4241951739771
 20
15.02689411899803
 10
687.847545479032
 20
15.107569840270514
 10
691.2692062547022
 20
15.242007258290528
 10
694.6883332573904
 20
15.430173202636809
 10
698.1040828686703
 20
15.672021246178133
 10
701.5156123034362
 20
15.96749171652857
 10
704.922079817848
 20
16.31651171077084
 10
708.3226449170184
 20
16.71899511344384
 10
711.716468562393
 20
17.174842617790432
 10
715.1027133787704
 20
17.683941750260033
 10
718.4805438609112
 20
18.246166898259276
 10
721.849126579688
 20
18.86137934114589
 10
725.2076303877197
 20
19.529427284455096
 10
728.5552266244463
 20
20.250145897353093
 10
731.8910893205874
 20
21.02335735330655
 10
735.2143954019384
 20
21.848870873958447
 10
738.5243248924513
 20
22.726482776199987
 10
741.8200611165521
 20
23.655976522426442
 10
745.1007909006423
 20
24.63712277396405
 10
748.3657047737386
 20
25.669679447656563
 10
751.6139971671967
 20
26.753391775595105
 10
754.8448666134736
 20
27.88799236797888
 10
758.0575159438781
 20
29.07320127908895
 10
761.2511524852599
 20
30.308726076361268
 10
764.4249882555896
 20
31.594261912539537
 10
767.5782401583822
 20
32.929491600892106
 10
770.7101301759137
 20
34.314085693472975
 10
773.8198855611859
 20
35.74770256240777
 10
776.9067390285895
 20
37.22998848418581
 10
779.9699289432212
 20
38.76057772693582
 10
783.008699508805
 20
40.33909264066483
 10
786.022300954174
 20
41.96514375043779
 10
789.0099897182649
 20
43.638329852474385
 10
791.971028633581
 20
45.35823811314026
 10
794.9046871080769
 20
47.12444417080792
 10
797.8102413054212
 20
48.93651224056072
 10
800.6869743235927
 20
50.793995221717125
 10
803.5341763717645
 20
52.696434808145455
 10
806.3511449454347
 20
54.643361601344964
 10
809.1371849997591
 20
56.63429522626143
 10
811.8916091210427
 20
58.66874444981431
 10
814.6137376963488
 20
60.74620730209949
 10
817.3028990811838
 20
62.86617120024414
 10
819.9584297652143
 20
65.02811307487798
 10
822.5796745359801
 20
67.23149949919332
 10
825.1659866405562
 20
69.47578682055985
 10
827.7167279451306
 20
71.76042129466316
 10
830.2312690924541
 20
74.0848392221323
 10
832.7089896571246
 20
76.44846708762486
 10
835.1492782986674
 20
78.85072170133265
 10
837.5515329123753
 20
81.29101034287555
 10
839.9151607778678
 20
83.76873090754589
 10
842.239578705337
 20
86.28327205486949
 10
844.5242131794402
 20
88.83401335944393
 10
846.7685005008068
 20
91.42032546402004
 10
848.9718869251221
 20
94.0415702347857
 10
851.133828799756
 20
96.69710091881637
 10
853.2537926979005
 20
99.38626230365116
 10
855.3312555501857
 20
102.10839087895727
 10
857.3657047737386
 20
104.86281500024091
 10
859.356638398655
 20
107.64885505456527
 10
861.3035651918545
 20
110.46582362823557
 10
863.2060047782829
 20
113.31302567640728
 10
865.0634877594393
 20
116.18975869457876
 10
866.8755558291921
 20
119.09531289192313
 10
868.6417618868597
 20
122.02897136641911
 10
870.3616701475257
 20
124.99001028173512
 10
872.0348562495623
 20
127.97769904582611
 10
873.6609073593352
 20
130.99130049119498
 10
875.2394222730643
 20
134.03007105677887
 10
876.7700115158142
 20
137.09326097141047
 10
878.2522974375922
 20
140.18011443881426
 10
879.6859143065271
 20
143.28986982408628
 10
881.0705083991079
 20
146.42175984161793
 10
882.4057380874606
 20
149.57501174441046
 10
883.6912739236388
 20
152.7488475147403
 10
884.926798720911
 20
155.94248405612194
 10
886.1120076320212
 20
159.1551333865266
 10
887.2466082244049
 20
162.38600283280346
 10
888.3303205523436
 20
165.63429522626154
 10
889.362877226036
 20
168.8992090993578
 10
890.3440234775736
 20
172.17993888344813
 10
891.2735172238
 20
175.47567510754874
 10
892.1511291260416
 20
178.78560459806164
 10
892.9766426466936
 20
182.10891067941265
 10
893.7498541026469
 20
185.44477337555367
 10
894.4705727155449
 20
188.7923696122803
 10
895.138620658854
 20
192.150873420312
 10
895.7538331017407
 20
195.5194561390888
 10
896.31605824974
 20
198.89728662122963
 10
896.8251573822096
 20
202.28353143760705
 10
897.2810048865562
 20
205.67735508298165
 10
897.6834882892292
 20
209.07792018215218
 10
898.0325082834714
 20
212.48438769656389
 10
898.3279787538219
 20
215.89591713132984
 10
898.5698267973632
 20
219.3116667426097
 10
898.7579927417095
 20
222.73079374529794
 10
898.8924301597294
 20
226.15245452096804
 10
898.973105881002
 20
229.57580482602316
 10
899.0
 20
233.0
  0
CIRCLE
  5
36
330
17
100
AcDbEntity
  8
CUT_INSIDE
100
AcDbCircle
 10
681.0
 20
233.0
 30
0.0
 40
175.0
  0
TEXT
  5
37
330
17
100
AcDbEntity
  8
NOTES
100
AcDbText
 10
473.0
 20
25.0
 30
0.0
 40
12.0
  1
woofer-ring
 11
473.0
 21
25.0
 31
0.0
100
AcDbText
  0
ENDSEC
  0
SECTION
  2
OBJECTS
  0
DICTIONARY
  5
A
330
0
100
AcDbDictionary
281
1
  3
ACAD_COLOR
350
B
  3
ACAD_GROUP
350
C
  3
ACAD_LAYOUT
350
D
  3
ACAD_MATERIAL
350
E
  3
ACAD_MLEADERSTYLE
350
F
  3
ACAD_MLINESTYLE
350
10
  3
ACAD_PLOTSETTINGS
350
11
  3
ACAD_PLOTSTYLENAME
350
12
  3
ACAD_SCALELIST
350
14
  3
ACAD_TABLESTYLE
350
15
  3
ACAD_VISUALSTYLE
350
16
  3
EZDXF_META
350
2D
  0
DICTIONARY
  5
B
330
A
100
AcDbDictionary
281
1
  0
DICTIONARY
  5
C
330
A
100
AcDbDictionary
281
1
  0
DICTIONARY
  5
D
330
A
100
AcDbDictionary
281
1
  3
Model
350
1A
  3
Layout1
350
1E
  0
DICTIONARY
  5
E
330
A
100
AcDbDictionary
281
1
  3
ByBlock
350
1F
  3
ByLayer
350
20
  3
Global
350
21
  0
DICTIONARY
  5
F
330
A
100
AcDbDictionary
281
1
  3
Standard
350
2C
  0
DICTIONARY
  5
10
330
A
100
AcDbDictionary
281
1
  3
Standard
350
22
  0
DICTIONARY
  5
11
330
A
100
AcDbDictionary
281
1
  0
ACDBDICTIONARYWDFLT
  5
12
330
A
100
AcDbDictionary
281
1
  3
Normal
350
13
100
AcDbDictionaryWithDefault
340
13
  0
ACDBPLACEHOLDER
  5
13
330
12
  0
DICTIONARY
  5
14
330
A
100
AcDbDictionary
281
1
  0
DICTIONARY
  5
15
330
A
100
AcDbDictionary
281
1
  0
DICTIONARY
  5
16
330
A
100
AcDbDictionary
281
1
  0
LAYOUT
  5
1A
330
D
100
AcDbPlotSettings
  1

  4
A3
  6

 40
7.5
 41
20.0
 42
7.5
 43
20.0
 44
420.0
 45
297.0
 46
0.0
 47
0.0
 48
0.0
 49
0.0
140
0.0
141
0.0
142
1.0
143
1.0
 70
1024
 72
1
 73
0
 74
5
  7

 75
16
 76
0
 77
2
 78
300
147
1.0
148
0.0
149
0.0
100
AcDbLayout
  1
Model
 70
1
 71
0
 10
0.0
 20
0.0
 11
420.0
 21
297.0
 12
0.0
 22
0.0
 32
0.0
 14
1e+20
 24
1e+20
 34
1e+20
 15
-1e+20
 25
-1e+20
 35
-1e+20
146
0.0
 13
0.0
 23
0.0
 33
0.0
 16
1.0
 26
0.0
 36
0.0
 17
0.0
 27
1.0
 37
0.0
 76
1
330
17
  0
LAYOUT
  5
1E
330
D
100
AcDbPlotSettings
  1

  4
A3
  6

 40
7.5
 41
20.0
 42
7.5
 43
20.0
 44
420.0
 45
297.0
 46
0.0
 47
0.0
 48
0.0
 49
0.0
140
0.0
141
0.0
142
1.0
143
1.0
 70
0
 72
1
 73
0
 74
5
  7

 75
16
 76
0
 77
2
 78
300
147
1.0
148
0.0
149
0.0
100
AcDbLayout
  1
Layout1
 70
1
 71
1
 10
0.0
 20
0.0
 11
420.0
 21
297.0
 12
0.0
 22
0.0
 32
0.0
 14
1e+20
 24
1e+20
 34
1e+20
 15
-1e+20
 25
-1e+20
 35
-1e+20
146
0.0
 13
0.0
 23
0.0
 33
0.0
 16
1.0
 26
0.0
 36
0.0
 17
0.0
 27
1.0
 37
0.0
 76
1
330
1B
  0
MATERIAL
  5
1F
102
{ACAD_REACTORS
330
E
102
}
330
E
100
AcDbMaterial
  1
ByBlock
  2

 70
0
 40
1.0
 71
1
 41
1.0
 91
-1023410177
 42
1.0
 72
1
  3

 73
1
 74
1
 75
1
 44
0.5
 73
0
 45
1.0
 46
1.0
 77
1
  4

 78
1
 79
1
170
1
 48
1.0
171
1
  6

172
1
173
1
174
1
140
1.0
141
1.0
175
1
  7

176
1
177
1
178
1
143
1.0
179
1
  8

270
1
271
1
272
1
145
1.0
146
1.0
273
1
  9

274
1
275
1
276
1
 42
1.0
 72
1
  3

 73
1
 74
1
 75
1
 94
63
  0
MATERIAL
  5
20
102
{ACAD_REACTORS
330
E
102
}
330
E
100
AcDbMaterial
  1
ByLayer
  2

 70
0
 40
1.0
 71
1
 41
1.0
 91
-1023410177
 42
1.0
 72
1
  3

 73
1
 74
1
 75
1
 44
0.5
 73
0
 45
1.0
 46
1.0
 77
1
  4

 78
1
 79
1
170
1
 48
1.0
171
1
  6

172
1
173
1
174
1
140
1.0
141
1.0
175
1
  7

176
1
177
1
178
1
143
1.0
179
1
  8

270
1
271
1
272
1
145
1.0
146
1.0
273
1
  9

274
1
275
1
276
1
 42
1.0
 72
1
  3

 73
1
 74
1
 75
1
 94
63
  0
MATERIAL
  5
21
102
{ACAD_REACTORS
330
E
102
}
330
E
100
AcDbMaterial
  1
Global
  2

 70
0
 40
1.0
 71
1
 41
1.0
 91
-1023410177
 42
1.0
 72
1
  3

 73
1
 74
1
 75
1
 44
0.5
 73
0
 45
1.0
 46
1.0
 77
1
  4

 78
1
 79
1
170
1
 48
1.0
171
1
  6

172
1
173
1
174
1
140
1.0
141
1.0
175
1
  7

176
1
177
1
178
1
143
1.0
179
1
  8

270
1
271
1
272
1
145
1.0
146
1.0
273
1
  9

274
1
275
1
276
1
 42
1.0
 72
1
  3

 73
1
 74
1
 75
1
 94
63
  0
MLINESTYLE
  5
22
102
{ACAD_REACTORS
330
10
102
}
330
10
100
AcDbMlineStyle
  2
Standard
 70
0
  3

 62
256
 51
90.0
 52
90.0
 71
2
 49
0.5
 62
256
  6
BYLAYER
 49
-0.5
 62
256
  6
BYLAYER
  0
MLEADERSTYLE
  5
2C
102
{ACAD_REACTORS
330
F
102
}
330
F
100
AcDbMLeaderStyle
179
2
170
2
171
1
172
0
 90
2
 40
0.0
 41
0.0
173
1
 91
-1056964608
 92
-2
290
1
 42
2.0
291
1
 43
8.0
  3
Standard
 44
4.0
300

342
29
174
1
175
1
176
0
178
1
 93
-1056964608
 45
4.0
292
0
297
0
 46
4.0
 94
-1056964608
 47
1.0
 49
1.0
140
1.0
294
1
141
0.0
177
0
142
1.0
295
0
296
0
143
3.75
271
0
272
9
273
9
  0
DICTIONARY
  5
2D
330
A
100
AcDbDictionary
280
1
281
1
  3
CREATED_BY_EZDXF
350
2E
  3
WRITTEN_BY_EZDXF
350
3A
  0
DICTIONARYVAR
  5
2E
330
2D
100
DictionaryVariables
280
0
  1
1.4.4 @ 2026-10-11T00:38:32.414186+00:00
  0
DICTIONARYVAR
  5
3A
330
2D
100
DictionaryVariables
280
0
  1
1.4.4 @ 2026-10-11T00:38:32.417606+00:00
  0
ENDSEC
  0
EOF
