  0
SECTION
  2
HEADER
  9
$ACADVER
  1
AC1024
  9
$ACADMAINTVER
 70
6
  9
$DWGCODEPAGE
  3
ANSI_1252
  9
$LASTSAVEDBY
  1
ezdxf
  9
$INSBASE
 10
0.0
 20
0.0
 30
0.0
  9
$EXTMIN
 10
1e+20
 20
1e+20
 30
1e+20
  9
$EXTMAX
 10
-1e+20
 20
-1e+20
 30
-1e+20
  9
$LIMMIN
 10
0.0
 20
0.0
  9
$LIMMAX
 10
420.0
 20
297.0
  9
$ORTHOMODE
 70
0
  9
$REGENMODE
 70
1
  9
$FILLMODE
 70
1
  9
$QTEXTMODE
 70
0
  9
$MIRRTEXT
 70
1
  9
$LTSCALE
 40
1.0
  9
$ATTMODE
 70
1
  9
$TEXTSIZE
 40
2.5
  9
$TRACEWID
 40
1.0
  9
$TEXTSTYLE
  7
Standard
  9
$CLAYER
  8
0
  9
$CELTYPE
  6
ByLayer
  9
$CECOLOR
 62
256
  9
$CELTSCALE
 40
1.0
  9
$DISPSILH
 70
0
  9
$DIMSCALE
 40
1.0
  9
$DIMASZ
 40
2.5
  9
$DIMEXO
 40
0.625
  9
$DIMDLI
 40
3.75
  9
$DIMRND
 40
0.0
  9
$DIMDLE
 40
0.0
  9
$DIMEXE
 40
1.25
  9
$DIMTP
 40
0.0
  9
$DIMTM
 40
0.0
  9
$DIMTXT
 40
2.5
  9
$DIMCEN
 40
2.5
  9
$DIMTSZ
 40
0.0
  9
$DIMTOL
 70
0
  9
$DIMLIM
 70
0
  9
$DIMTIH
 70
0
  9
$DIMTOH
 70
0
  9
$DIMSE1
 70
0
  9
$DIMSE2
 70
0
  9
$DIMTAD
 70
1
  9
$DIMZIN
 70
8
  9
$DIMBLK
  1

  9
$DIMASO
 70
1
  9
$DIMSHO
 70
1
  9
$DIMPOST
  1

  9
$DIMAPOST
  1

  9
$DIMALT
 70
0
  9
$DIMALTD
 70
3
  9
$DIMALTF
 40
0.03937007874
  9
$DIMLFAC
 40
1.0
  9
$DIMTOFL
 70
1
  9
$DIMTVP
 40
0.0
  9
$DIMTIX
 70
0
  9
$DIMSOXD
 70
0
  9
$DIMSAH
 70
0
  9
$DIMBLK1
  1

  9
$DIMBLK2
  1

  9
$DIMSTYLE
  2
ISO-25
  9
$DIMCLRD
 70
0
  9
$DIMCLRE
 70
0
  9
$DIMCLRT
 70
0
  9
$DIMTFAC
 40
1.0
  9
$DIMGAP
 40
0.625
  9
$DIMJUST
 70
0
  9
$DIMSD1
 70
0
  9
$DIMSD2
 70
0
  9
$DIMTOLJ
 70
0
  9
$DIMTZIN
 70
8
  9
$DIMALTZ
 70
0
  9
$DIMALTTZ
 70
0
  9
$DIMUPT
 70
0
  9
$DIMDEC
 70
2
  9
$DIMTDEC
 70
2
  9
$DIMALTU
 70
2
  9
$DIMALTTD
 70
3
  9
$DIMTXSTY
  7
Standard
  9
$DIMAUNIT
 70
0
  9
$DIMADEC
 70
0
  9
$DIMALTRND
 40
0.0
  9
$DIMAZIN
 70
0
  9
$DIMDSEP
 70
44
  9
$DIMATFIT
 70
3
  9
$DIMFRAC
 70
0
  9
$DIMLDRBLK
  1

  9
$DIMLUNIT
 70
2
  9
$DIMLWD
 70
-2
  9
$DIMLWE
 70
-2
  9
$DIMTMOVE
 70
0
  9
$DIMFXL
 40
1.0
  9
$DIMFXLON
 70
0
  9
$DIMJOGANG
 40
0.785398163397
  9
$DIMTFILL
 70
0
  9
$DIMTFILLCLR
 70
0
  9
$DIMARCSYM
 70
0
  9
$DIMLTYPE
  6

  9
$DIMLTEX1
  6

  9
$DIMLTEX2
  6

  9
$DIMTXTDIRECTION
 70
0
  9
$LUNITS
 70
2
  9
$LUPREC
 70
4
  9
$SKETCHINC
 40
1.0
  9
$FILLETRAD
 40
10.0
  9
$AUNITS
 70
0
  9
$AUPREC
 70
2
  9
$MENU
  1
.
  9
$ELEVATION
 40
0.0
  9
$PELEVATION
 40
0.0
  9
$THICKNESS
 40
0.0
  9
$LIMCHECK
 70
0
  9
$CHAMFERA
 40
0.0
  9
$CHAMFERB
 40
0.0
  9
$CHAMFERC
 40
0.0
  9
$CHAMFERD
 40
0.0
  9
$SKPOLY
 70
0
  9
$TDCREATE
 40
2461324.7897106484
  9
$TDUCREATE
 40
2458532.153996898
  9
$TDUPDATE
 40
2461324.7897106484
  9
$TDUUPDATE
 40
2458532.1544311
  9
$TDINDWG
 40
0.0
  9
$TDUSRTIMER
 40
0.0
  9
$USRTIMER
 70
1
  9
$ANGBASE
 50
0.0
  9
$ANGDIR
 70
0
  9
$PDMODE
 70
0
  9
$PDSIZE
 40
0.0
  9
$PLINEWID
 40
0.0
  9
$SPLFRAME
 70
0
  9
$SPLINETYPE
 70
6
  9
$SPLINESEGS
 70
8
  9
$HANDSEED
  5
37
  9
$SURFTAB1
 70
6
  9
$SURFTAB2
 70
6
  9
$SURFTYPE
 70
6
  9
$SURFU
 70
6
  9
$SURFV
 70
6
  9
$UCSBASE
  2

  9
$UCSNAME
  2

  9
$UCSORG
 10
0.0
 20
0.0
 30
0.0
  9
$UCSXDIR
 10
1.0
 20
0.0
 30
0.0
  9
$UCSYDIR
 10
0.0
 20
1.0
 30
0.0
  9
$UCSORTHOREF
  2

  9
$UCSORTHOVIEW
 70
0
  9
$UCSORGTOP
 10
0.0
 20
0.0
 30
0.0
  9
$UCSORGBOTTOM
 10
0.0
 20
0.0
 30
0.0
  9
$UCSORGLEFT
 10
0.0
 20
0.0
 30
0.0
  9
$UCSORGRIGHT
 10
0.0
 20
0.0
 30
0.0
  9
$UCSORGFRONT
 10
0.0
 20
0.0
 30
0.0
  9
$UCSORGBACK
 10
0.0
 20
0.0
 30
0.0
  9
$PUCSBASE
  2

  9
$PUCSNAME
  2

  9
$PUCSORG
 10
0.0
 20
0.0
 30
0.0
  9
$PUCSXDIR
 10
1.0
 20
0.0
 30
0.0
  9
$PUCSYDIR
 10
0.0
 20
1.0
 30
0.0
  9
$PUCSORTHOREF
  2

  9
$PUCSORTHOVIEW
 70
0
  9
$PUCSORGTOP
 10
0.0
 20
0.0
 30
0.0
  9
$PUCSORGBOTTOM
 10
0.0
 20
0.0
 30
0.0
  9
$PUCSORGLEFT
 10
0.0
 20
0.0
 30
0.0
  9
$PUCSORGRIGHT
 10
0.0
 20
0.0
 30
0.0
  9
$PUCSORGFRONT
 10
0.0
 20
0.0
 30
0.0
  9
$PUCSORGBACK
 10
0.0
 20
0.0
 30
0.0
  9
$USERI1
 70
0
  9
$USERI2
 70
0
  9
$USERI3
 70
0
  9
$USERI4
 70
0
  9
$USERI5
 70
0
  9
$USERR1
 40
0.0
  9
$USERR2
 40
0.0
  9
$USERR3
 40
0.0
  9
$USERR4
 40
0.0
  9
$USERR5
 40
0.0
  9
$WORLDVIEW
 70
1
  9
$SHADEDGE
 70
3
  9
$SHADEDIF
 70
70
  9
$TILEMODE
 70
1
  9
$MAXACTVP
 70
64
  9
$PINSBASE
 10
0.0
 20
0.0
 30
0.0
  9
$PLIMCHECK
 70
0
  9
$PEXTMIN
 10
1e+20
 20
1e+20
 30
1e+20
  9
$PEXTMAX
 10
-1e+20
 20
-1e+20
 30
-1e+20
  9
$PLIMMIN
 10
0.0
 20
0.0
  9
$PLIMMAX
 10
420.0
 20
297.0
  9
$UNITMODE
 70
0
  9
$VISRETAIN
 70
1
  9
$PLINEGEN
 70
0
  9
$PSLTSCALE
 70
1
  9
$TREEDEPTH
 70
3020
  9
$CMLSTYLE
  2
Standard
  9
$CMLJUST
 70
0
  9
$CMLSCALE
 40
20.0
  9
$PROXYGRAPHICS
 70
1
  9
$MEASUREMENT
 70
1
  9
$CELWEIGHT
370
-1
  9
$ENDCAPS
280
0
  9
$JOINSTYLE
280
0
  9
$LWDISPLAY
290
0
  9
$INSUNITS
 70
4
  9
$HYPERLINKBASE
  1

  9
$STYLESHEET
  1

  9
$XEDIT
290
1
  9
$CEPSNTYPE
380
0
  9
$PSTYLEMODE
290
1
  9
$FINGERPRINTGUID
  2
{68781EBF-858D-4A57-A991-18CB3003C339}
  9
$VERSIONGUID
  2
{5AA6DF2D-DAC1-4182-BB60-FC225F295A15}
  9
$EXTNAMES
290
1
  9
$PSVPSCALE
 40
0.0
  9
$OLESTARTUP
290
0
  9
$SORTENTS
280
127
  9
$INDEXCTL
280
0
  9
$HIDETEXT
280
1
  9
$XCLIPFRAME
280
1
  9
$HALOGAP
280
0
  9
$OBSCOLOR
 70
257
  9
$OBSLTYPE
280
0
  9
$INTERSECTIONDISPLAY
280
0
  9
$INTERSECTIONCOLOR
 70
257
  9
$DIMASSOC
280
2
  9
$PROJECTNAME
  1

  9
$CAMERADISPLAY
290
0
  9
$LENSLENGTH
 40
50.0
  9
$CAMERAHEIGHT
 40
0.0
  9
$STEPSPERSEC
 40
24.0
  9
$STEPSIZE
 40
100.0
  9
$3DDWFPREC
 40
2.0
  9
$PSOLWIDTH
 40
0.005
  9
$PSOLHEIGHT
 40
0.08
  9
$LOFTANG1
 40
1.570796326795
  9
$LOFTANG2
 40
1.570796326795
  9
$LOFTMAG1
 40
0.0
  9
$LOFTMAG2
 40
0.0
  9
$LOFTPARAM
 70
7
  9
$LOFTNORMALS
280
1
  9
$LATITUDE
 40
37.795
  9
$LONGITUDE
 40
-122.394
  9
$NORTHDIRECTION
 40
0.0
  9
$TIMEZONE
 70
-8000
  9
$LIGHTGLYPHDISPLAY
280
1
  9
$TILEMODELIGHTSYNCH
280
1
  9
$CMATERIAL
347
20
  9
$SOLIDHIST
280
0
  9
$SHOWHIST
280
1
  9
$DWFFRAME
280
2
  9
$DGNFRAME
280
2
  9
$REALWORLDSCALE
290
1
  9
$INTERFERECOLOR
 62
256
  9
$CSHADOW
280
0
  9
$SHADOWPLANELOCATION
 40
0.0
  0
ENDSEC
  0
SECTION
  2
CLASSES
  0
CLASS
  1
ACDBDICTIONARYWDFLT
  2
AcDbDictionaryWithDefault
  3
ObjectDBX Classes
 90
0
 91
0
280
0
281
0
  0
CLASS
  1
SUN
  2
AcDbSun
  3
SCENEOE
 90
1153
 91
0
280
0
281
0
  0
CLASS
  1
VISUALSTYLE
  2
AcDbVisualStyle
  3
ObjectDBX Classes
 90
4095
 91
0
280
0
281
0
  0
CLASS
  1
MATERIAL
  2
AcDbMaterial
  3
ObjectDBX Classes
 90
1153
 91
0
280
0
281
0
  0
CLASS
  1
SCALE
  2
AcDbScale
  3
ObjectDBX Classes
 90
1153
 91
0
280
0
281
0
  0
CLASS
  1
TABLESTYLE
  2
AcDbTableStyle
  3
ObjectDBX Classes
 90
4095
 91
0
280
0
281
0
  0
CLASS
  1
MLEADERSTYLE
  2
AcDbMLeaderStyle
  3
ACDB_MLEADERSTYLE_CLASS
 90
4095
 91
0
280
0
281
0
  0
CLASS
  1
DICTIONARYVAR
  2
AcDbDictionaryVar
  3
ObjectDBX Classes
 90
0
 91
0
280
0
281
0
  0
CLASS
  1
CELLSTYLEMAP
  2
AcDbCellStyleMap
  3
ObjectDBX Classes
 90
1152
 91
0
280
0
281
0
  0
CLASS
  1
MENTALRAYRENDERSETTINGS
  2
AcDbMentalRayRenderSettings
  3
SCENEOE
 90
1024
 91
0
280
0
281
0
  0
CLASS
  1
ACDBDETAILVIEWSTYLE
  2
AcDbDetailViewStyle
  3
ObjectDBX Classes
 90
1025
 91
0
280
0
281
0
  0
CLASS
  1
ACDBSECTIONVIEWSTYLE
  2
AcDbSectionViewStyle
  3
ObjectDBX Classes
 90
1025
 91
0
280
0
281
0
  0
CLASS
  1
RASTERVARIABLES
  2
AcDbRasterVariables
  3
ISM
 90
0
 91
0
280
0
281
0
  0
CLASS
  1
ACDBPLACEHOLDER
  2
AcDbPlaceHolder
  3
ObjectDBX Classes
 90
0
 91
0
280
0
281
0
  0
CLASS
  1
LAYOUT
  2
AcDbLayout
  3
ObjectDBX Classes
 90
0
 91
0
280
0
281
0
  0
ENDSEC
  0
SECTION
  2
TABLES
  0
TABLE
  2
VPORT
  5
8
330
0
100
AcDbSymbolTable
 70
1
  0
VPORT
  5
23
330
8
100
AcDbSymbolTableRecord
100
AcDbViewportTableRecord
  2
*Active
 70
0
 10
0.0
 20
0.0
 11
1.0
 21
1.0
 12
0.0
 22
0.0
 13
0.0
 23
0.0
 14
0.5
 24
0.5
 15
0.5
 25
0.5
 16
0.0
 26
0.0
 36
1.0
 17
0.0
 27
0.0
 37
0.0
 40
1000.0
 41
1.34
 42
50.0
 43
0.0
 44
0.0
 50
0.0
 51
0.0
 71
0
 72
1000
 73
1
 74
3
 75
0
 76
0
 77
0
 78
0
281
0
 65
0
146
0.0
  0
ENDTAB
  0
TABLE
  2
LTYPE
  5
2
330
0
100
AcDbSymbolTable
 70
3
  0
LTYPE
  5
24
330
2
100
AcDbSymbolTableRecord
100
AcDbLinetypeTableRecord
  2
ByBlock
 70
0
  3

 72
65
 73
0
 40
0.0
  0
LTYPE
  5
25
330
2
100
AcDbSymbolTableRecord
100
AcDbLinetypeTableRecord
  2
ByLayer
 70
0
  3

 72
65
 73
0
 40
0.0
  0
LTYPE
  5
26
330
2
100
AcDbSymbolTableRecord
100
AcDbLinetypeTableRecord
  2
Continuous
 70
0
  3

 72
65
 73
0
 40
0.0
  0
ENDTAB
  0
TABLE
  2
LAYER
  5
1
330
0
100
AcDbSymbolTable
 70
5
  0
LAYER
  5
27
330
1
100
AcDbSymbolTableRecord
100
AcDbLayerTableRecord
  2
0
 70
0
 62
7
  6
Continuous
370
-3
390
13
347
21
  0
LAYER
  5
28
330
1
100
AcDbSymbolTableRecord
100
AcDbLayerTableRecord
  2
Defpoints
 70
0
 62
7
  6
Continuous
290
0
370
-3
390
13
347
21
  0
LAYER
  5
2F
330
1
100
AcDbSymbolTableRecord
100
AcDbLayerTableRecord
  2
CUT_OUTSIDE
 70
0
 62
1
  6
Continuous
370
-3
390
13
347
21
  0
LAYER
  5
31
330
1
100
AcDbSymbolTableRecord
100
AcDbLayerTableRecord
  2
CUT_INSIDE
 70
0
 62
5
  6
Continuous
370
-3
390
13
347
21
  0
LAYER
  5
32
330
1
100
AcDbSymbolTableRecord
100
AcDbLayerTableRecord
  2
NOTES
 70
0
 62
7
  6
Continuous
370
-3
390
13
347
21
  0
ENDTAB
  0
TABLE
  2
STYLE
  5
5
330
0
100
AcDbSymbolTable
 70
1
  0
STYLE
  5
29
330
5
100
AcDbSymbolTableRecord
100
AcDbTextStyleTableRecord
  2
Standard
 70
0
 40
0.0
 41
1.0
 50
0.0
 71
0
 42
2.5
  3
txt
  4

  0
ENDTAB
  0
TABLE
  2
VIEW
  5
7
330
0
100
AcDbSymbolTable
 70
0
  0
ENDTAB
  0
TABLE
  2
UCS
  5
6
330
0
100
AcDbSymbolTable
 70
0
  0
ENDTAB
  0
TABLE
  2
APPID
  5
3
330
0
100
AcDbSymbolTable
 70
3
  0
APPID
  5
2A
330
3
100
AcDbSymbolTableRecord
100
AcDbRegAppTableRecord
  2
ACAD
 70
0
  0
APPID
  5
34
330
3
100
AcDbSymbolTableRecord
100
AcDbRegAppTableRecord
  2
HATCHBACKGROUNDCOLOR
 70
0
  0
APPID
  5
35
330
3
100
AcDbSymbolTableRecord
100
AcDbRegAppTableRecord
  2
EZDXF
 70
0
  0
ENDTAB
  0
TABLE
  2
DIMSTYLE
  5
4
330
0
100
AcDbSymbolTable
 70
1
100
AcDbDimStyleTable
  0
DIMSTYLE
105
2B
330
4
100
AcDbSymbolTableRecord
100
AcDbDimStyleTableRecord
  2
Standard
 70
0
 40
1.0
 41
2.5
 42
0.625
 43
3.75
 44
1.25
 45
0.0
 46
0.0
 47
0.0
 48
0.0
 49
2.5
140
2.5
141
2.5
142
0.0
143
0.03937007874
144
1.0
145
0.0
146
1.0
147
0.625
148
0.0
 69
0
 70
0
 71
0
 72
0
 73
0
 74
0
 75
0
 76
0
 77
1
 78
8
 79
3
170
0
171
3
172
1
173
0
174
0
175
0
176
0
177
0
178
0
179
2
271
2
272
2
273
2
274
3
275
0
276
0
277
2
278
44
279
0
280
0
281
0
282
0
283
0
284
8
285
0
286
0
288
0
289
3
290
0
371
-2
372
-2
  0
ENDTAB
  0
TABLE
  2
BLOCK_RECORD
  5
9
330
0
100
AcDbSymbolTable
 70
2
  0
BLOCK_RECORD
  5
17
330
9
100
AcDbSymbolTableRecord
100
AcDbBlockTableRecord
  2
*Model_Space
340
1A
 70
0
280
1
281
0
  0
BLOCK_RECORD
  5
1B
330
9
100
AcDbSymbolTableRecord
100
AcDbBlockTableRecord
  2
*Paper_Space
340
1E
 70
0
280
1
281
0
  0
ENDTAB
  0
ENDSEC
  0
SECTION
  2
BLOCKS
  0
BLOCK
  5
18
330
17
100
AcDbEntity
  8
0
100
AcDbBlockBegin
  2
*Model_Space
 70
0
 10
0.0
 20
0.0
 30
0.0
  3
*Model_Space
  1

  0
ENDBLK
  5
19
330
17
100
AcDbEntity
  8
0
100
AcDbBlockEnd
  0
BLOCK
  5
1C
330
1B
100
AcDbEntity
  8
0
100
AcDbBlockBegin
  2
*Paper_Space
 70
0
 10
0.0
 20
0.0
 30
0.0
  3
*Paper_Space
  1

  0
ENDBLK
  5
1D
330
1B
100
AcDbEntity
  8
0
100
AcDbBlockEnd
  0
ENDSEC
  0
SECTION
  2
ENTITIES
  0
LWPOLYLINE
  5
30
330
17
100
AcDbEntity
  8
CUT_OUTSIDE
100
AcDbPolyline
 90
341
 70
1
 10
300.0
 20
0.0
 10
300.0
 20
210.46383942299155
 10
256.66910313830476
 20
210.46383942299155
 10
256.66441267657933
 20
209.4635231276785
 10
256.6503417039019
 20
208.4632948043303
 10
256.6268914577321
 20
207.46324241717514
 10
256.5940640003818
 20
206.4634539149688
 10
256.5518622188339
 20
205.46401722325982
 10
256.50028982448805
 20
204.46502023665698
 10
256.43935135283465
 20
203.46655081109975
 10
256.36905216305564
 20
202.46869675613152
 10
256.28939843755336
 20
201.4715458271777
 10
256.200397181407
 20
200.47518571782746
 10
256.1020562217562
 20
199.47970405212232
 10
255.9943842071129
 20
198.4851883768498
 10
255.87739060660073
 20
197.49172615384418
 10
255.75108570912232
 20
196.4994047522947
 10
255.6154806224543
 20
195.50831144106223
 10
255.47058727227056
 20
194.51853338100398
 10
255.31641840109347
 20
193.53015761730887
 10
255.1529875671731
 20
192.54327107184167
 10
254.9803091432949
 20
191.55796053549943
 10
254.79839831551595
 20
190.57431266057836
 10
254.60727108182908
 20
189.59241395315314
 10
254.40694425075606
 20
188.6123507654696
 10
254.19743543986954
 20
187.63420928835046
 10
253.9787630742435
 20
186.6580755436148
 10
253.75094638483284
 20
185.68403537651386
 10
253.51400540678247
 20
184.7121744481807
 10
253.26796097766493
 20
183.74257822809716
 10
253.01283473564797
 20
182.77533198657727
 10
252.7486491175918
 20
181.81052078726816
 10
252.4754273570756
 20
180.84822947966916
 10
252.1931934823545
 20
179.88854269167007
 10
251.90197231424622
 20
178.93154482210832
 10
251.60178946394853
 20
177.9773200333467
 10
251.29267133078656
 20
177.02595224387176
 10
250.9746450998913
 20
176.0775251209136
 10
250.64773873980891
 20
175.1321220730881
 10
250.31198100004076
 20
174.18982624306136
 10
249.9674014085155
 20
173.25072050023766
 10
249.61403026899188
 20
172.3148874334721
 10
249.25189865839388
 20
171.3824093438069
 10
248.88103842407764
 20
170.45336823723358
 10
248.50148218103072
 20
169.5278458174813
 10
248.11326330900374
 20
168.6059234788312
 10
247.71641594957475
 20
167.6876822989583
 10
247.310975003147
 20
166.77320303180136
 10
246.89697612587923
 20
165.86256610046098
 10
246.47445572655022
 20
164.95585159012649
 10
246.04345096335675
 20
164.05313924103382
 10
245.60399974064575
 20
163.15450844145153
 10
245.1561407055807
 20
162.26003822070027
 10
244.69991324474324
 20
161.3698072422021
 10
244.23535748066894
 20
160.48389379656237
 10
243.76251426831885
 20
159.60237579468458
 10
243.28142519148673
 20
158.72533076091895
 10
242.7921325591418
 20
157.85283582624425
 10
242.29467940170798
 20
156.98496772148462
 10
241.78910946727956
 20
156.12180277056143
 10
241.27546721777412
 20
155.26341688378147
 10
240.75379782502188
 20
154.40988555116064
 10
240.22414716679333
 20
153.56128383578516
 10
239.6865618227647
 20
152.7176863672105
 10
239.14108907042134
 20
151.8791673348976
 10
238.58777688089998
 20
151.04580048168873
 10
238.02667391476996
 20
150.21765909732244
 10
237.45782951775402
 20
149.39481601198747
 10
236.88129371638814
 20
148.5773435899183
 10
236.29711721362258
 20
147.76531372303123
 10
235.70535138436242
 20
146.95879782460145
 10
235.10604827094966
 20
146.15786682298278
 10
234.49926057858636
 20
145.3625911553703
 10
233.88504167069937
 20
144.5730407616054
 10
233.26344556424772
 20
143.7892850780254
 10
232.63452692497157
 20
143.0113930313562
 10
231.9983410625852
 20
142.23943303265173
 10
231.35494392591266
 20
141.4734729712767
 10
230.70439209796723
 20
140.7135802089366
 10
230.0467427909755
 20
139.9598215737533
 10
229.38205384134585
 20
139.21226335438826
 10
228.71038370458194
 20
138.47097129421252
 10
228.03179145014207
 20
137.73601058552504
 10
227.34633675624434
 20
137.00744586381973
 10
226.65407990461802
 20
136.28534120210054
 10
225.9550817752026
 20
135.56976010524727
 10
225.24940384079338
 20
134.86076550443
 10
224.53710816163544
 20
134.15841975157537
 10
223.81825737996576
 20
133.4627846138825
 10
223.09291471450433
 20
132.7739212683913
 10
222.36114395489415
 20
132.09189029660206
 10
221.62300945609172
 20
131.4167516791481
 10
220.878576132707
 20
130.74856479052005
 10
220.1279094532947
 20
130.087388393845
 10
219.37107543459683
 20
129.43328063571823
 10
218.6081406357368
 20
128.78629904108936
 10
217.8391721523658
 20
128.1465005082041
 10
217.06423761076235
 20
127.51394130359961
 10
216.2834051618849
 20
126.88867705715643
 10
215.49674347537837
 20
126.2707627572064
 10
214.70432173353487
 20
125.66025274569643
 10
213.90620962520984
 20
125.05720071340988
 10
213.1024773396931
 20
124.46165969524395
 10
212.29319556053616
 20
123.87368206554652
 10
211.4784354593359
 20
123.2933195335097
 10
210.6582686894758
 20
122.72062313862205
 10
209.83276737982408
 20
122.15564324618049
 10
209.0020041283904
 20
121.59842954286046
 10
208.16605199594176
 20
121.04903103234687
 10
207.3249844995765
 20
120.50749603102383
 10
206.47887560625952
 20
119.9738721637259
 10
205.627799726317
 20
119.44820635954989
 10
204.7718317068925
 20
118.9305448477271
 10
203.9110468253648
 20
118.42093315355862
 10
203.04552078272718
 20
117.91941609441085
 10
202.17532969693065
 20
117.4260377757746
 10
201.30055009618923
 20
116.9408415873861
 10
200.42125891225015
 20
116.46387019941085
 10
199.53753347362783
 20
115.9951655586915
 10
198.64945149880356
 20
115.53476888505861
 10
197.75709108939037
 20
115.08272066770553
 10
196.86053072326473
 20
114.63906066162804
 10
195.95984924766458
 20
114.20382788412758
 10
195.05512587225547
 20
113.77706061137997
 10
194.1464401621643
 20
113.3587963750698
 10
193.23387203098207
 20
112.94907195908911
 10
192.31750173373615
 20
112.54792339630296
 10
191.39740985983195
 20
112.15538596537999
 10
190.47367732596604
 20
111.77149418769034
 10
189.5463853690095
 20
111.39628182426964
 10
188.61561553886395
 20
111.02978187284964
 10
187.68144969128957
 20
110.67202656495647
 10
186.74396998070648
 20
110.32304736307606
 10
185.80325885296952
 20
109.98287495788725
 10
184.85939903811789
 20
109.65153926556252
 10
183.91247354309928
 20
109.32906942513728
 10
182.9625656444702
 20
109.01549379594701
 10
182.0097588810719
 20
108.71083995513345
 10
181.05413704668388
 20
108.4151346952192
 10
180.0957841826547
 20
108.12840402175152
 10
179.13478457051104
 20
107.85067315101549
 10
178.17122272454554
 20
107.58196650781599
 10
177.2051833843842
 20
107.32230772332991
 10
176.2367515075344
 20
107.0717196330279
 10
175.26601226191286
 20
106.83022427466642
 10
174.29305101835598
 20
106.59784288634899
 10
173.31795334311192
 20
106.37459590465892
 10
172.34080499031552
 20
106.16050296286198
 10
171.36169189444655
 20
105.95558288917971
 10
170.3807001627726
 20
105.75985370513331
 10
169.3979160677763
 20
105.57333262395946
 10
168.41342603956792
 20
105.39603604909564
 10
167.4273166582849
 20
105.22797957273826
 10
166.43967464647704
 20
105.0691779744709
 10
165.45058686148025
 20
104.91964521996522
 10
164.46014028777745
 20
104.77939445975164
 10
163.4684220293493
 20
104.64843802806399
 10
162.4755193020137
 20
104.52678744175421
 10
161.4815194257555
 20
104.41445339927952
 10
160.48650981704748
 20
104.31144577976158
 10
159.49057798116246
 20
104.21777364211778
 10
158.49381150447772
 20
104.1334452242645
 10
157.49629804677244
 20
104.05846794239267
 10
156.4981253335182
 20
103.99284839031554
 10
155.4993811481645
 20
103.93659233888866
 10
154.5001533244182
 20
103.88970473550262
 10
153.5005297385195
 20
103.85218970364792
 10
152.5005983015135
 20
103.82405054255184
 10
151.500446951519
 20
103.80528972688899
 10
150.50016364599497
 20
103.79590890656357
 10
149.49983635400497
 20
103.79590890656357
 10
148.49955304848095
 20
103.80528972688899
 10
147.4994016984865
 20
103.82405054255184
 10
146.4994702614805
 20
103.85218970364792
 10
145.4998466755818
 20
103.88970473550262
 10
144.5006188518355
 20
103.93659233888866
 10
143.50187466648174
 20
103.99284839031554
 10
142.5037019532276
 20
104.05846794239267
 10
141.50618849552225
 20
104.1334452242645
 10
140.50942201883754
 20
104.21777364211778
 10
139.51349018295252
 20
104.31144577976158
 10
138.5184805742445
 20
104.41445339927952
 10
137.5244806979863
 20
104.52678744175421
 10
136.53157797065066
 20
104.64843802806399
 10
135.53985971222252
 20
104.77939445975164
 10
134.54941313851975
 20
104.91964521996522
 10
133.56032535352293
 20
105.0691779744709
 10
132.57268334171505
 20
105.22797957273826
 10
131.58657396043208
 20
105.39603604909564
 10
130.6020839322237
 20
105.57333262395946
 10
129.61929983722737
 20
105.75985370513331
 10
128.63830810555342
 20
105.95558288917971
 10
127.65919500968448
 20
106.16050296286198
 10
126.68204665688808
 20
106.37459590465892
 10
125.70694898164399
 20
106.59784288634899
 10
124.73398773808717
 20
106.83022427466642
 10
123.76324849246558
 20
107.0717196330279
 10
122.79481661561576
 20
107.32230772332991
 10
121.82877727545443
 20
107.58196650781599
 10
120.86521542948896
 20
107.85067315101549
 10
119.90421581734526
 20
108.12840402175152
 10
118.94586295331612
 20
108.4151346952192
 10
117.99024111892811
 20
108.71083995513345
 10
117.0374343555298
 20
109.01549379594701
 10
116.08752645690069
 20
109.32906942513728
 10
115.14060096188209
 20
109.65153926556263
 10
114.19674114703048
 20
109.98287495788725
 10
113.25603001929349
 20
110.32304736307606
 10
112.3185503087104
 20
110.67202656495647
 10
111.38438446113605
 20
111.02978187284964
 10
110.4536146309905
 20
111.39628182426964
 10
109.52632267403396
 20
111.77149418769034
 10
108.60259014016799
 20
112.15538596537999
 10
107.68249826626388
 20
112.54792339630296
 10
106.76612796901793
 20
112.94907195908911
 10
105.85355983783569
 20
113.3587963750698
 10
104.9448741277445
 20
113.77706061137997
 10
104.04015075233542
 20
114.20382788412758
 10
103.13946927673527
 20
114.63906066162804
 10
102.24290891060963
 20
115.08272066770564
 10
101.35054850119641
 20
115.53476888505861
 10
100.46246652637217
 20
115.9951655586915
 10
99.57874108774982
 20
116.46387019941085
 10
98.69944990381072
 20
116.9408415873861
 10
97.82467030306935
 20
117.4260377757746
 10
96.95447921727282
 20
117.91941609441085
 10
96.08895317463524
 20
118.42093315355862
 10
95.22816829310744
 20
118.9305448477271
 10
94.372200273683
 20
119.44820635954989
 10
93.52112439374048
 20
119.97387216372601
 10
92.67501550042348
 20
120.50749603102395
 10
91.83394800405824
 20
121.04903103234687
 10
90.99799587160956
 20
121.59842954286046
 10
90.16723262017592
 20
122.15564324618049
 10
89.34173131052418
 20
122.72062313862205
 10
88.52156454066409
 20
123.2933195335097
 10
87.70680443946387
 20
123.87368206554652
 10
86.89752266030686
 20
124.46165969524395
 10
86.09379037479007
 20
125.05720071340988
 10
85.2956782664651
 20
125.66025274569654
 10
84.50325652462163
 20
126.2707627572064
 10
83.7165948381151
 20
126.88867705715643
 10
82.93576238923765
 20
127.51394130359961
 10
82.16082784763424
 20
128.1465005082041
 10
81.39185936426321
 20
128.78629904108948
 10
80.62892456540311
 20
129.43328063571823
 10
79.8720905467053
 20
130.087388393845
 10
79.121423867293
 20
130.74856479052005
 10
78.37699054390825
 20
131.4167516791481
 10
77.63885604510583
 20
132.09189029660206
 10
76.9070852854957
 20
132.7739212683913
 10
76.18174262003421
 20
133.4627846138825
 10
75.46289183836456
 20
134.15841975157537
 10
74.7505961592066
 20
134.86076550443
 10
74.04491822479739
 20
135.56976010524727
 10
73.34592009538193
 20
136.28534120210065
 10
72.65366324375566
 20
137.00744586381973
 10
71.9682085498579
 20
137.73601058552504
 10
71.28961629541806
 20
138.47097129421252
 10
70.61794615865415
 20
139.21226335438826
 10
69.95325720902451
 20
139.9598215737533
 10
69.29560790203277
 20
140.7135802089366
 10
68.64505607408736
 20
141.4734729712767
 10
68.00165893741473
 20
142.23943303265173
 10
67.36547307502843
 20
143.0113930313562
 10
66.73655443575228
 20
143.7892850780254
 10
66.11495832930058
 20
144.5730407616055
 10
65.50073942141364
 20
145.3625911553704
 10
64.89395172905034
 20
146.15786682298278
 10
64.29464861563758
 20
146.95879782460145
 10
63.702882786377444
 20
147.76531372303123
 10
63.11870628361186
 20
148.5773435899183
 10
62.54217048224601
 20
149.39481601198747
 10
61.973326085229985
 20
150.21765909732244
 10
61.41222311910002
 20
151.04580048168873
 10
60.858910929578656
 20
151.8791673348976
 10
60.3134381772353
 20
152.7176863672105
 10
59.77585283320667
 20
153.56128383578516
 10
59.24620217497812
 20
154.40988555116064
 10
58.72453278222588
 20
155.26341688378147
 10
58.210890532720384
 20
156.12180277056143
 10
57.70532059829202
 20
156.98496772148462
 10
57.207867440858195
 20
157.85283582624436
 10
56.71857480851327
 20
158.72533076091895
 10
56.23748573168115
 20
159.60237579468458
 10
55.764642519331005
 20
160.48389379656237
 10
55.3000867552567
 20
161.3698072422021
 10
54.84385929441925
 20
162.26003822070038
 10
54.39600025935425
 20
163.15450844145153
 10
53.95654903664325
 20
164.0531392410337
 10
53.52554427344975
 20
164.95585159012649
 10
53.103023874120765
 20
165.86256610046098
 10
52.68902499685299
 20
166.77320303180136
 10
52.28358405042525
 20
167.6876822989583
 10
51.886736690996315
 20
168.60592347883107
 10
51.49851781896925
 20
169.5278458174813
 10
51.118961575922356
 20
170.45336823723358
 10
50.74810134160609
 20
171.3824093438069
 10
50.38596973100812
 20
172.3148874334721
 10
50.032598591484486
 20
173.25072050023766
 10
49.68801899995921
 20
174.18982624306136
 10
49.35226126019111
 20
175.1321220730881
 10
49.02535490010868
 20
176.0775251209136
 10
48.70732866921344
 20
177.02595224387176
 10
48.398210536051465
 20
177.9773200333468
 10
48.09802768575375
 20
178.93154482210844
 10
47.8068065176455
 20
179.88854269167018
 10
47.5245726429244
 20
180.84822947966916
 10
47.25135088240819
 20
181.81052078726816
 10
46.98716526435203
 20
182.77533198657727
 10
46.73203902233507
 20
183.74257822809727
 10
46.48599459321753
 20
184.7121744481807
 10
46.249053615167156
 20
185.68403537651386
 10
46.02123692575654
 20
186.6580755436148
 10
45.80256456013046
 20
187.63420928835046
 10
45.593055749243945
 20
188.6123507654696
 10
45.39272891817092
 20
189.59241395315314
 10
45.20160168448402
 20
190.57431266057836
 10
45.0196908567051
 20
191.55796053549943
 10
44.847012432826915
 20
192.54327107184167
 10
44.6835815989065
 20
193.53015761730887
 10
44.52941272772938
 20
194.5185333810041
 10
44.3845193775457
 20
195.50831144106223
 10
44.24891429087768
 20
196.4994047522947
 10
44.12260939339927
 20
197.4917261538443
 10
44.00561579288711
 20
198.4851883768498
 10
43.897943778243814
 20
199.47970405212232
 10
43.79960281859297
 20
200.47518571782746
 10
43.710601562446584
 20
201.4715458271777
 10
43.63094783694436
 20
202.46869675613164
 10
43.56064864716535
 20
203.46655081109975
 10
43.49971017551192
 20
204.46502023665698
 10
43.44813778116611
 20
205.46401722325982
 10
43.40593599961818
 20
206.4634539149688
 10
43.373108542267914
 20
207.46324241717525
 10
43.349658296098085
 20
208.4632948043303
 10
43.33558732342064
 20
209.4635231276785
 10
43.330896861695265
 20
210.46383942299155
 10
0.0
 20
210.46383942299155
 10
0.0
 20
0.0
 10
300.0
 20
0.0
  0
TEXT
  5
33
330
17
100
AcDbEntity
  8
NOTES
100
AcDbText
 10
2.0
 20
214.46383942299155
 30
0.0
 40
6.0
  1
saddle-1  18 mm baltic-birch, outer face
 11
2.0
 21
214.46383942299155
 31
0.0
100
AcDbText
  0
ENDSEC
  0
SECTION
  2
OBJECTS
  0
DICTIONARY
  5
A
330
0
100
AcDbDictionary
281
1
  3
ACAD_COLOR
350
B
  3
ACAD_GROUP
350
C
  3
ACAD_LAYOUT
350
D
  3
ACAD_MATERIAL
350
E
  3
ACAD_MLEADERSTYLE
350
F
  3
ACAD_MLINESTYLE
350
10
  3
ACAD_PLOTSETTINGS
350
11
  3
ACAD_PLOTSTYLENAME
350
12
  3
ACAD_SCALELIST
350
14
  3
ACAD_TABLESTYLE
350
15
  3
ACAD_VISUALSTYLE
350
16
  3
EZDXF_META
350
2D
  0
DICTIONARY
  5
B
330
A
100
AcDbDictionary
281
1
  0
DICTIONARY
  5
C
330
A
100
AcDbDictionary
281
1
  0
DICTIONARY
  5
D
330
A
100
AcDbDictionary
281
1
  3
Model
350
1A
  3
Layout1
350
1E
  0
DICTIONARY
  5
E
330
A
100
AcDbDictionary
281
1
  3
ByBlock
350
1F
  3
ByLayer
350
20
  3
Global
350
21
  0
DICTIONARY
  5
F
330
A
100
AcDbDictionary
281
1
  3
Standard
350
2C
  0
DICTIONARY
  5
10
330
A
100
AcDbDictionary
281
1
  3
Standard
350
22
  0
DICTIONARY
  5
11
330
A
100
AcDbDictionary
281
1
  0
ACDBDICTIONARYWDFLT
  5
12
330
A
100
AcDbDictionary
281
1
  3
Normal
350
13
100
AcDbDictionaryWithDefault
340
13
  0
ACDBPLACEHOLDER
  5
13
330
12
  0
DICTIONARY
  5
14
330
A
100
AcDbDictionary
281
1
  0
DICTIONARY
  5
15
330
A
100
AcDbDictionary
281
1
  0
DICTIONARY
  5
16
330
A
100
AcDbDictionary
281
1
  0
LAYOUT
  5
1A
330
D
100
AcDbPlotSettings
  1

  4
A3
  6

 40
7.5
 41
20.0
 42
7.5
 43
20.0
 44
420.0
 45
297.0
 46
0.0
 47
0.0
 48
0.0
 49
0.0
140
0.0
141
0.0
142
1.0
143
1.0
 70
1024
 72
1
 73
0
 74
5
  7

 75
16
 76
0
 77
2
 78
300
147
1.0
148
0.0
149
0.0
100
AcDbLayout
  1
Model
 70
1
 71
0
 10
0.0
 20
0.0
 11
420.0
 21
297.0
 12
0.0
 22
0.0
 32
0.0
 14
1e+20
 24
1e+20
 34
1e+20
 15
-1e+20
 25
-1e+20
 35
-1e+20
146
0.0
 13
0.0
 23
0.0
 33
0.0
 16
1.0
 26
0.0
 36
0.0
 17
0.0
 27
1.0
 37
0.0
 76
1
330
17
  0
LAYOUT
  5
1E
330
D
100
AcDbPlotSettings
  1

  4
A3
  6

 40
7.5
 41
20.0
 42
7.5
 43
20.0
 44
420.0
 45
297.0
 46
0.0
 47
0.0
 48
0.0
 49
0.0
140
0.0
141
0.0
142
1.0
143
1.0
 70
0
 72
1
 73
0
 74
5
  7

 75
16
 76
0
 77
2
 78
300
147
1.0
148
0.0
149
0.0
100
AcDbLayout
  1
Layout1
 70
1
 71
1
 10
0.0
 20
0.0
 11
420.0
 21
297.0
 12
0.0
 22
0.0
 32
0.0
 14
1e+20
 24
1e+20
 34
1e+20
 15
-1e+20
 25
-1e+20
 35
-1e+20
146
0.0
 13
0.0
 23
0.0
 33
0.0
 16
1.0
 26
0.0
 36
0.0
 17
0.0
 27
1.0
 37
0.0
 76
1
330
1B
  0
MATERIAL
  5
1F
102
{ACAD_REACTORS
330
E
102
}
330
E
100
AcDbMaterial
  1
ByBlock
  2

 70
0
 40
1.0
 71
1
 41
1.0
 91
-1023410177
 42
1.0
 72
1
  3

 73
1
 74
1
 75
1
 44
0.5
 73
0
 45
1.0
 46
1.0
 77
1
  4

 78
1
 79
1
170
1
 48
1.0
171
1
  6

172
1
173
1
174
1
140
1.0
141
1.0
175
1
  7

176
1
177
1
178
1
143
1.0
179
1
  8

270
1
271
1
272
1
145
1.0
146
1.0
273
1
  9

274
1
275
1
276
1
 42
1.0
 72
1
  3

 73
1
 74
1
 75
1
 94
63
  0
MATERIAL
  5
20
102
{ACAD_REACTORS
330
E
102
}
330
E
100
AcDbMaterial
  1
ByLayer
  2

 70
0
 40
1.0
 71
1
 41
1.0
 91
-1023410177
 42
1.0
 72
1
  3

 73
1
 74
1
 75
1
 44
0.5
 73
0
 45
1.0
 46
1.0
 77
1
  4

 78
1
 79
1
170
1
 48
1.0
171
1
  6

172
1
173
1
174
1
140
1.0
141
1.0
175
1
  7

176
1
177
1
178
1
143
1.0
179
1
  8

270
1
271
1
272
1
145
1.0
146
1.0
273
1
  9

274
1
275
1
276
1
 42
1.0
 72
1
  3

 73
1
 74
1
 75
1
 94
63
  0
MATERIAL
  5
21
102
{ACAD_REACTORS
330
E
102
}
330
E
100
AcDbMaterial
  1
Global
  2

 70
0
 40
1.0
 71
1
 41
1.0
 91
-1023410177
 42
1.0
 72
1
  3

 73
1
 74
1
 75
1
 44
0.5
 73
0
 45
1.0
 46
1.0
 77
1
  4

 78
1
 79
1
170
1
 48
1.0
171
1
  6

172
1
173
1
174
1
140
1.0
141
1.0
175
1
  7

176
1
177
1
178
1
143
1.0
179
1
  8

270
1
271
1
272
1
145
1.0
146
1.0
273
1
  9

274
1
275
1
276
1
 42
1.0
 72
1
  3

 73
1
 74
1
 75
1
 94
63
  0
MLINESTYLE
  5
22
102
{ACAD_REACTORS
330
10
102
}
330
10
100
AcDbMlineStyle
  2
Standard
 70
0
  3

 62
256
 51
90.0
 52
90.0
 71
2
 49
0.5
 62
256
  6
BYLAYER
 49
-0.5
 62
256
  6
BYLAYER
  0
MLEADERSTYLE
  5
2C
102
{ACAD_REACTORS
330
F
102
}
330
F
100
AcDbMLeaderStyle
179
2
170
2
171
1
172
0
 90
2
 40
0.0
 41
0.0
173
1
 91
-1056964608
 92
-2
290
1
 42
2.0
291
1
 43
8.0
  3
Standard
 44
4.0
300

342
29
174
1
175
1
176
0
178
1
 93
-1056964608
 45
4.0
292
0
297
0
 46
4.0
 94
-1056964608
 47
1.0
 49
1.0
140
1.0
294
1
141
0.0
177
0
142
1.0
295
0
296
0
143
3.75
271
0
272
9
273
9
  0
DICTIONARY
  5
2D
330
A
100
AcDbDictionary
280
1
281
1
  3
CREATED_BY_EZDXF
350
2E
  3
WRITTEN_BY_EZDXF
350
36
  0
DICTIONARYVAR
  5
2E
330
2D
100
DictionaryVariables
280
0
  1
1.4.4 @ 2026-10-10T18:57:11.205332+00:00
  0
DICTIONARYVAR
  5
36
330
2D
100
DictionaryVariables
280
0
  1
1.4.4 @ 2026-10-10T18:57:11.208267+00:00
  0
ENDSEC
  0
EOF
