  0
SECTION
  2
HEADER
  9
$ACADVER
  1
AC1024
  9
$ACADMAINTVER
 70
6
  9
$DWGCODEPAGE
  3
ANSI_1252
  9
$LASTSAVEDBY
  1
ezdxf
  9
$INSBASE
 10
0.0
 20
0.0
 30
0.0
  9
$EXTMIN
 10
1e+20
 20
1e+20
 30
1e+20
  9
$EXTMAX
 10
-1e+20
 20
-1e+20
 30
-1e+20
  9
$LIMMIN
 10
0.0
 20
0.0
  9
$LIMMAX
 10
420.0
 20
297.0
  9
$ORTHOMODE
 70
0
  9
$REGENMODE
 70
1
  9
$FILLMODE
 70
1
  9
$QTEXTMODE
 70
0
  9
$MIRRTEXT
 70
1
  9
$LTSCALE
 40
1.0
  9
$ATTMODE
 70
1
  9
$TEXTSIZE
 40
2.5
  9
$TRACEWID
 40
1.0
  9
$TEXTSTYLE
  7
Standard
  9
$CLAYER
  8
0
  9
$CELTYPE
  6
ByLayer
  9
$CECOLOR
 62
256
  9
$CELTSCALE
 40
1.0
  9
$DISPSILH
 70
0
  9
$DIMSCALE
 40
1.0
  9
$DIMASZ
 40
2.5
  9
$DIMEXO
 40
0.625
  9
$DIMDLI
 40
3.75
  9
$DIMRND
 40
0.0
  9
$DIMDLE
 40
0.0
  9
$DIMEXE
 40
1.25
  9
$DIMTP
 40
0.0
  9
$DIMTM
 40
0.0
  9
$DIMTXT
 40
2.5
  9
$DIMCEN
 40
2.5
  9
$DIMTSZ
 40
0.0
  9
$DIMTOL
 70
0
  9
$DIMLIM
 70
0
  9
$DIMTIH
 70
0
  9
$DIMTOH
 70
0
  9
$DIMSE1
 70
0
  9
$DIMSE2
 70
0
  9
$DIMTAD
 70
1
  9
$DIMZIN
 70
8
  9
$DIMBLK
  1

  9
$DIMASO
 70
1
  9
$DIMSHO
 70
1
  9
$DIMPOST
  1

  9
$DIMAPOST
  1

  9
$DIMALT
 70
0
  9
$DIMALTD
 70
3
  9
$DIMALTF
 40
0.03937007874
  9
$DIMLFAC
 40
1.0
  9
$DIMTOFL
 70
1
  9
$DIMTVP
 40
0.0
  9
$DIMTIX
 70
0
  9
$DIMSOXD
 70
0
  9
$DIMSAH
 70
0
  9
$DIMBLK1
  1

  9
$DIMBLK2
  1

  9
$DIMSTYLE
  2
ISO-25
  9
$DIMCLRD
 70
0
  9
$DIMCLRE
 70
0
  9
$DIMCLRT
 70
0
  9
$DIMTFAC
 40
1.0
  9
$DIMGAP
 40
0.625
  9
$DIMJUST
 70
0
  9
$DIMSD1
 70
0
  9
$DIMSD2
 70
0
  9
$DIMTOLJ
 70
0
  9
$DIMTZIN
 70
8
  9
$DIMALTZ
 70
0
  9
$DIMALTTZ
 70
0
  9
$DIMUPT
 70
0
  9
$DIMDEC
 70
2
  9
$DIMTDEC
 70
2
  9
$DIMALTU
 70
2
  9
$DIMALTTD
 70
3
  9
$DIMTXSTY
  7
Standard
  9
$DIMAUNIT
 70
0
  9
$DIMADEC
 70
0
  9
$DIMALTRND
 40
0.0
  9
$DIMAZIN
 70
0
  9
$DIMDSEP
 70
44
  9
$DIMATFIT
 70
3
  9
$DIMFRAC
 70
0
  9
$DIMLDRBLK
  1

  9
$DIMLUNIT
 70
2
  9
$DIMLWD
 70
-2
  9
$DIMLWE
 70
-2
  9
$DIMTMOVE
 70
0
  9
$DIMFXL
 40
1.0
  9
$DIMFXLON
 70
0
  9
$DIMJOGANG
 40
0.785398163397
  9
$DIMTFILL
 70
0
  9
$DIMTFILLCLR
 70
0
  9
$DIMARCSYM
 70
0
  9
$DIMLTYPE
  6

  9
$DIMLTEX1
  6

  9
$DIMLTEX2
  6

  9
$DIMTXTDIRECTION
 70
0
  9
$LUNITS
 70
2
  9
$LUPREC
 70
4
  9
$SKETCHINC
 40
1.0
  9
$FILLETRAD
 40
10.0
  9
$AUNITS
 70
0
  9
$AUPREC
 70
2
  9
$MENU
  1
.
  9
$ELEVATION
 40
0.0
  9
$PELEVATION
 40
0.0
  9
$THICKNESS
 40
0.0
  9
$LIMCHECK
 70
0
  9
$CHAMFERA
 40
0.0
  9
$CHAMFERB
 40
0.0
  9
$CHAMFERC
 40
0.0
  9
$CHAMFERD
 40
0.0
  9
$SKPOLY
 70
0
  9
$TDCREATE
 40
2461325.026724537
  9
$TDUCREATE
 40
2458532.153996898
  9
$TDUPDATE
 40
2461325.026724537
  9
$TDUUPDATE
 40
2458532.1544311
  9
$TDINDWG
 40
0.0
  9
$TDUSRTIMER
 40
0.0
  9
$USRTIMER
 70
1
  9
$ANGBASE
 50
0.0
  9
$ANGDIR
 70
0
  9
$PDMODE
 70
0
  9
$PDSIZE
 40
0.0
  9
$PLINEWID
 40
0.0
  9
$SPLFRAME
 70
0
  9
$SPLINETYPE
 70
6
  9
$SPLINESEGS
 70
8
  9
$HANDSEED
  5
3F
  9
$SURFTAB1
 70
6
  9
$SURFTAB2
 70
6
  9
$SURFTYPE
 70
6
  9
$SURFU
 70
6
  9
$SURFV
 70
6
  9
$UCSBASE
  2

  9
$UCSNAME
  2

  9
$UCSORG
 10
0.0
 20
0.0
 30
0.0
  9
$UCSXDIR
 10
1.0
 20
0.0
 30
0.0
  9
$UCSYDIR
 10
0.0
 20
1.0
 30
0.0
  9
$UCSORTHOREF
  2

  9
$UCSORTHOVIEW
 70
0
  9
$UCSORGTOP
 10
0.0
 20
0.0
 30
0.0
  9
$UCSORGBOTTOM
 10
0.0
 20
0.0
 30
0.0
  9
$UCSORGLEFT
 10
0.0
 20
0.0
 30
0.0
  9
$UCSORGRIGHT
 10
0.0
 20
0.0
 30
0.0
  9
$UCSORGFRONT
 10
0.0
 20
0.0
 30
0.0
  9
$UCSORGBACK
 10
0.0
 20
0.0
 30
0.0
  9
$PUCSBASE
  2

  9
$PUCSNAME
  2

  9
$PUCSORG
 10
0.0
 20
0.0
 30
0.0
  9
$PUCSXDIR
 10
1.0
 20
0.0
 30
0.0
  9
$PUCSYDIR
 10
0.0
 20
1.0
 30
0.0
  9
$PUCSORTHOREF
  2

  9
$PUCSORTHOVIEW
 70
0
  9
$PUCSORGTOP
 10
0.0
 20
0.0
 30
0.0
  9
$PUCSORGBOTTOM
 10
0.0
 20
0.0
 30
0.0
  9
$PUCSORGLEFT
 10
0.0
 20
0.0
 30
0.0
  9
$PUCSORGRIGHT
 10
0.0
 20
0.0
 30
0.0
  9
$PUCSORGFRONT
 10
0.0
 20
0.0
 30
0.0
  9
$PUCSORGBACK
 10
0.0
 20
0.0
 30
0.0
  9
$USERI1
 70
0
  9
$USERI2
 70
0
  9
$USERI3
 70
0
  9
$USERI4
 70
0
  9
$USERI5
 70
0
  9
$USERR1
 40
0.0
  9
$USERR2
 40
0.0
  9
$USERR3
 40
0.0
  9
$USERR4
 40
0.0
  9
$USERR5
 40
0.0
  9
$WORLDVIEW
 70
1
  9
$SHADEDGE
 70
3
  9
$SHADEDIF
 70
70
  9
$TILEMODE
 70
1
  9
$MAXACTVP
 70
64
  9
$PINSBASE
 10
0.0
 20
0.0
 30
0.0
  9
$PLIMCHECK
 70
0
  9
$PEXTMIN
 10
1e+20
 20
1e+20
 30
1e+20
  9
$PEXTMAX
 10
-1e+20
 20
-1e+20
 30
-1e+20
  9
$PLIMMIN
 10
0.0
 20
0.0
  9
$PLIMMAX
 10
420.0
 20
297.0
  9
$UNITMODE
 70
0
  9
$VISRETAIN
 70
1
  9
$PLINEGEN
 70
0
  9
$PSLTSCALE
 70
1
  9
$TREEDEPTH
 70
3020
  9
$CMLSTYLE
  2
Standard
  9
$CMLJUST
 70
0
  9
$CMLSCALE
 40
20.0
  9
$PROXYGRAPHICS
 70
1
  9
$MEASUREMENT
 70
1
  9
$CELWEIGHT
370
-1
  9
$ENDCAPS
280
0
  9
$JOINSTYLE
280
0
  9
$LWDISPLAY
290
0
  9
$INSUNITS
 70
4
  9
$HYPERLINKBASE
  1

  9
$STYLESHEET
  1

  9
$XEDIT
290
1
  9
$CEPSNTYPE
380
0
  9
$PSTYLEMODE
290
1
  9
$FINGERPRINTGUID
  2
{A20E6B9A-F842-4EBB-BFEF-19459343B414}
  9
$VERSIONGUID
  2
{21560648-AE28-4169-8052-074C0047A8DE}
  9
$EXTNAMES
290
1
  9
$PSVPSCALE
 40
0.0
  9
$OLESTARTUP
290
0
  9
$SORTENTS
280
127
  9
$INDEXCTL
280
0
  9
$HIDETEXT
280
1
  9
$XCLIPFRAME
280
1
  9
$HALOGAP
280
0
  9
$OBSCOLOR
 70
257
  9
$OBSLTYPE
280
0
  9
$INTERSECTIONDISPLAY
280
0
  9
$INTERSECTIONCOLOR
 70
257
  9
$DIMASSOC
280
2
  9
$PROJECTNAME
  1

  9
$CAMERADISPLAY
290
0
  9
$LENSLENGTH
 40
50.0
  9
$CAMERAHEIGHT
 40
0.0
  9
$STEPSPERSEC
 40
24.0
  9
$STEPSIZE
 40
100.0
  9
$3DDWFPREC
 40
2.0
  9
$PSOLWIDTH
 40
0.005
  9
$PSOLHEIGHT
 40
0.08
  9
$LOFTANG1
 40
1.570796326795
  9
$LOFTANG2
 40
1.570796326795
  9
$LOFTMAG1
 40
0.0
  9
$LOFTMAG2
 40
0.0
  9
$LOFTPARAM
 70
7
  9
$LOFTNORMALS
280
1
  9
$LATITUDE
 40
37.795
  9
$LONGITUDE
 40
-122.394
  9
$NORTHDIRECTION
 40
0.0
  9
$TIMEZONE
 70
-8000
  9
$LIGHTGLYPHDISPLAY
280
1
  9
$TILEMODELIGHTSYNCH
280
1
  9
$CMATERIAL
347
20
  9
$SOLIDHIST
280
0
  9
$SHOWHIST
280
1
  9
$DWFFRAME
280
2
  9
$DGNFRAME
280
2
  9
$REALWORLDSCALE
290
1
  9
$INTERFERECOLOR
 62
256
  9
$CSHADOW
280
0
  9
$SHADOWPLANELOCATION
 40
0.0
  0
ENDSEC
  0
SECTION
  2
CLASSES
  0
CLASS
  1
ACDBDICTIONARYWDFLT
  2
AcDbDictionaryWithDefault
  3
ObjectDBX Classes
 90
0
 91
0
280
0
281
0
  0
CLASS
  1
SUN
  2
AcDbSun
  3
SCENEOE
 90
1153
 91
0
280
0
281
0
  0
CLASS
  1
VISUALSTYLE
  2
AcDbVisualStyle
  3
ObjectDBX Classes
 90
4095
 91
0
280
0
281
0
  0
CLASS
  1
MATERIAL
  2
AcDbMaterial
  3
ObjectDBX Classes
 90
1153
 91
0
280
0
281
0
  0
CLASS
  1
SCALE
  2
AcDbScale
  3
ObjectDBX Classes
 90
1153
 91
0
280
0
281
0
  0
CLASS
  1
TABLESTYLE
  2
AcDbTableStyle
  3
ObjectDBX Classes
 90
4095
 91
0
280
0
281
0
  0
CLASS
  1
MLEADERSTYLE
  2
AcDbMLeaderStyle
  3
ACDB_MLEADERSTYLE_CLASS
 90
4095
 91
0
280
0
281
0
  0
CLASS
  1
DICTIONARYVAR
  2
AcDbDictionaryVar
  3
ObjectDBX Classes
 90
0
 91
0
280
0
281
0
  0
CLASS
  1
CELLSTYLEMAP
  2
AcDbCellStyleMap
  3
ObjectDBX Classes
 90
1152
 91
0
280
0
281
0
  0
CLASS
  1
MENTALRAYRENDERSETTINGS
  2
AcDbMentalRayRenderSettings
  3
SCENEOE
 90
1024
 91
0
280
0
281
0
  0
CLASS
  1
ACDBDETAILVIEWSTYLE
  2
AcDbDetailViewStyle
  3
ObjectDBX Classes
 90
1025
 91
0
280
0
281
0
  0
CLASS
  1
ACDBSECTIONVIEWSTYLE
  2
AcDbSectionViewStyle
  3
ObjectDBX Classes
 90
1025
 91
0
280
0
281
0
  0
CLASS
  1
RASTERVARIABLES
  2
AcDbRasterVariables
  3
ISM
 90
0
 91
0
280
0
281
0
  0
CLASS
  1
LAYOUT
  2
AcDbLayout
  3
ObjectDBX Classes
 90
0
 91
0
280
0
281
0
  0
CLASS
  1
ACDBPLACEHOLDER
  2
AcDbPlaceHolder
  3
ObjectDBX Classes
 90
0
 91
0
280
0
281
0
  0
ENDSEC
  0
SECTION
  2
TABLES
  0
TABLE
  2
VPORT
  5
8
330
0
100
AcDbSymbolTable
 70
1
  0
VPORT
  5
23
330
8
100
AcDbSymbolTableRecord
100
AcDbViewportTableRecord
  2
*Active
 70
0
 10
0.0
 20
0.0
 11
1.0
 21
1.0
 12
0.0
 22
0.0
 13
0.0
 23
0.0
 14
0.5
 24
0.5
 15
0.5
 25
0.5
 16
0.0
 26
0.0
 36
1.0
 17
0.0
 27
0.0
 37
0.0
 40
1000.0
 41
1.34
 42
50.0
 43
0.0
 44
0.0
 50
0.0
 51
0.0
 71
0
 72
1000
 73
1
 74
3
 75
0
 76
0
 77
0
 78
0
281
0
 65
0
146
0.0
  0
ENDTAB
  0
TABLE
  2
LTYPE
  5
2
330
0
100
AcDbSymbolTable
 70
3
  0
LTYPE
  5
24
330
2
100
AcDbSymbolTableRecord
100
AcDbLinetypeTableRecord
  2
ByBlock
 70
0
  3

 72
65
 73
0
 40
0.0
  0
LTYPE
  5
25
330
2
100
AcDbSymbolTableRecord
100
AcDbLinetypeTableRecord
  2
ByLayer
 70
0
  3

 72
65
 73
0
 40
0.0
  0
LTYPE
  5
26
330
2
100
AcDbSymbolTableRecord
100
AcDbLinetypeTableRecord
  2
Continuous
 70
0
  3

 72
65
 73
0
 40
0.0
  0
ENDTAB
  0
TABLE
  2
LAYER
  5
1
330
0
100
AcDbSymbolTable
 70
5
  0
LAYER
  5
27
330
1
100
AcDbSymbolTableRecord
100
AcDbLayerTableRecord
  2
0
 70
0
 62
7
  6
Continuous
370
-3
390
13
347
21
  0
LAYER
  5
28
330
1
100
AcDbSymbolTableRecord
100
AcDbLayerTableRecord
  2
Defpoints
 70
0
 62
7
  6
Continuous
290
0
370
-3
390
13
347
21
  0
LAYER
  5
2F
330
1
100
AcDbSymbolTableRecord
100
AcDbLayerTableRecord
  2
REF_THROUGH
 70
0
 62
8
  6
Continuous
370
-3
390
13
347
21
  0
LAYER
  5
31
330
1
100
AcDbSymbolTableRecord
100
AcDbLayerTableRecord
  2
NOTES
 70
0
 62
7
  6
Continuous
370
-3
390
13
347
21
  0
LAYER
  5
33
330
1
100
AcDbSymbolTableRecord
100
AcDbLayerTableRecord
  2
POCKET_4MM_UNDERSIDE
 70
0
 62
6
  6
Continuous
370
-3
390
13
347
21
  0
ENDTAB
  0
TABLE
  2
STYLE
  5
5
330
0
100
AcDbSymbolTable
 70
1
  0
STYLE
  5
29
330
5
100
AcDbSymbolTableRecord
100
AcDbTextStyleTableRecord
  2
Standard
 70
0
 40
0.0
 41
1.0
 50
0.0
 71
0
 42
2.5
  3
txt
  4

  0
ENDTAB
  0
TABLE
  2
VIEW
  5
7
330
0
100
AcDbSymbolTable
 70
0
  0
ENDTAB
  0
TABLE
  2
UCS
  5
6
330
0
100
AcDbSymbolTable
 70
0
  0
ENDTAB
  0
TABLE
  2
APPID
  5
3
330
0
100
AcDbSymbolTable
 70
3
  0
APPID
  5
2A
330
3
100
AcDbSymbolTableRecord
100
AcDbRegAppTableRecord
  2
ACAD
 70
0
  0
APPID
  5
3C
330
3
100
AcDbSymbolTableRecord
100
AcDbRegAppTableRecord
  2
HATCHBACKGROUNDCOLOR
 70
0
  0
APPID
  5
3D
330
3
100
AcDbSymbolTableRecord
100
AcDbRegAppTableRecord
  2
EZDXF
 70
0
  0
ENDTAB
  0
TABLE
  2
DIMSTYLE
  5
4
330
0
100
AcDbSymbolTable
 70
1
100
AcDbDimStyleTable
  0
DIMSTYLE
105
2B
330
4
100
AcDbSymbolTableRecord
100
AcDbDimStyleTableRecord
  2
Standard
 70
0
 40
1.0
 41
2.5
 42
0.625
 43
3.75
 44
1.25
 45
0.0
 46
0.0
 47
0.0
 48
0.0
 49
2.5
140
2.5
141
2.5
142
0.0
143
0.03937007874
144
1.0
145
0.0
146
1.0
147
0.625
148
0.0
 69
0
 70
0
 71
0
 72
0
 73
0
 74
0
 75
0
 76
0
 77
1
 78
8
 79
3
170
0
171
3
172
1
173
0
174
0
175
0
176
0
177
0
178
0
179
2
271
2
272
2
273
2
274
3
275
0
276
0
277
2
278
44
279
0
280
0
281
0
282
0
283
0
284
8
285
0
286
0
288
0
289
3
290
0
371
-2
372
-2
  0
ENDTAB
  0
TABLE
  2
BLOCK_RECORD
  5
9
330
0
100
AcDbSymbolTable
 70
2
  0
BLOCK_RECORD
  5
17
330
9
100
AcDbSymbolTableRecord
100
AcDbBlockTableRecord
  2
*Model_Space
340
1A
 70
0
280
1
281
0
  0
BLOCK_RECORD
  5
1B
330
9
100
AcDbSymbolTableRecord
100
AcDbBlockTableRecord
  2
*Paper_Space
340
1E
 70
0
280
1
281
0
  0
ENDTAB
  0
ENDSEC
  0
SECTION
  2
BLOCKS
  0
BLOCK
  5
18
330
17
100
AcDbEntity
  8
0
100
AcDbBlockBegin
  2
*Model_Space
 70
0
 10
0.0
 20
0.0
 30
0.0
  3
*Model_Space
  1

  0
ENDBLK
  5
19
330
17
100
AcDbEntity
  8
0
100
AcDbBlockEnd
  0
BLOCK
  5
1C
330
1B
100
AcDbEntity
  8
0
100
AcDbBlockBegin
  2
*Paper_Space
 70
0
 10
0.0
 20
0.0
 30
0.0
  3
*Paper_Space
  1

  0
ENDBLK
  5
1D
330
1B
100
AcDbEntity
  8
0
100
AcDbBlockEnd
  0
ENDSEC
  0
SECTION
  2
ENTITIES
  0
CIRCLE
  5
30
330
17
100
AcDbEntity
  8
REF_THROUGH
100
AcDbCircle
 10
218.0
 20
218.0
 30
0.0
 40
175.0
  0
TEXT
  5
32
330
17
100
AcDbEntity
  8
NOTES
100
AcDbText
 10
2.0
 20
440.0
 30
0.0
 40
6.0
  1
woofer-ring  seen from the inner face (turned over left to right)
 11
2.0
 21
440.0
 31
0.0
100
AcDbText
  0
LWPOLYLINE
  5
34
330
17
100
AcDbEntity
  8
POCKET_4MM_UNDERSIDE
100
AcDbPolyline
 90
44
 70
1
 10
282.75314356845433
 20
391.22741234586624
 10
282.8277399919285
 20
390.20820417172126
 10
283.04993936909545
 20
389.21071865030956
 10
283.4150059060023
 20
388.25621545373554
 10
283.9151588432252
 20
387.3650381604731
 10
284.53973828924785
 20
386.5561806673105
 10
285.2754324175421
 20
385.84688236741647
 10
286.1065611850388
 20
385.2522607226048
 10
287.01541052502324
 20
384.78498906088214
 10
287.98260989171257
 20
384.45502646646423
 10
288.9875451098092
 20
384.26940551918665
 10
290.008797729858
 20
384.23208240727456
 10
291.0246015253104
 20
384.34385260805993
 10
292.0133064018545
 20
384.602333933763
 10
292.95383983158683
 20
385.0020173036886
 10
293.82615597736003
 20
385.5343841607173
 10
294.6116629349988
 20
386.1880880295603
 10
295.2936189874591
 20
386.9491963471813
 10
295.857489425461
 20
387.80148741118865
 10
296.2912563295822
 20
388.72679611725835
 10
296.58567471134586
 20
389.7054011167953
 10
296.7344695540992
 20
390.71644514323987
 10
296.7344695540992
 20
391.7383795484926
 10
296.58567471134586
 20
392.74942357493717
 10
296.2912563295822
 20
393.72802857447414
 10
295.857489425461
 20
394.65333728054384
 10
295.2936189874591
 20
395.50562834455116
 10
294.6116629349988
 20
396.2667366621722
 10
293.82615597736003
 20
396.9204405310152
 10
292.95383983158683
 20
397.4528073880439
 10
292.0133064018545
 20
397.85249075796946
 10
291.0246015253104
 20
398.11097208367255
 10
290.008797729858
 20
398.2227422844579
 10
288.9875451098092
 20
398.18541917254583
 10
287.98260989171257
 20
397.99979822526825
 10
287.01541052502324
 20
397.66983563085034
 10
286.1065611850388
 20
397.2025639691277
 10
285.2754324175421
 20
396.607942324316
 10
284.53973828924785
 20
395.89864402442197
 10
283.9151588432252
 20
395.0897865312594
 10
283.4150059060023
 20
394.19860923799695
 10
283.04993936909545
 20
393.2441060414229
 10
282.8277399919285
 20
392.24662052001133
 10
282.75314356845433
 20
391.22741234586624
  0
LWPOLYLINE
  5
35
330
17
100
AcDbEntity
  8
POCKET_4MM_UNDERSIDE
100
AcDbPolyline
 90
44
 70
1
 10
384.22741234586624
 20
289.75314356845433
 10
384.3020087693405
 20
288.73393539430936
 10
384.5242081465074
 20
287.73644987289765
 10
384.8892746834142
 20
286.7819466763236
 10
385.3894276206371
 20
285.8907693830612
 10
386.0140070666598
 20
285.0819118898986
 10
386.749701194954
 20
284.37261359000456
 10
387.58082996245076
 20
283.77799194519287
 10
388.4896793024352
 20
283.31072028347023
 10
389.45687866912454
 20
282.9807576890523
 10
390.4618138872212
 20
282.79513674177474
 10
391.4830665072699
 20
282.75781362986265
 10
392.4988703027223
 20
282.869583830648
 10
393.4875751792664
 20
283.1280651563511
 10
394.42810860899874
 20
283.5277485262767
 10
395.30042475477194
 20
284.0601153833054
 10
396.0859317124107
 20
284.71381925214837
 10
396.76788776487103
 20
285.4749275697694
 10
397.33175820287295
 20
286.32721863377674
 10
397.7655251069941
 20
287.25252733984644
 10
398.05994348875777
 20
288.2311323393834
 10
398.20873833151114
 20
289.24217636582796
 10
398.20873833151114
 20
290.2641107710807
 10
398.05994348875777
 20
291.27515479752526
 10
397.7655251069941
 20
292.25375979706223
 10
397.33175820287295
 20
293.17906850313193
 10
396.76788776487103
 20
294.03135956713925
 10
396.0859317124107
 20
294.7924678847603
 10
395.30042475477194
 20
295.44617175360327
 10
394.42810860899874
 20
295.978538610632
 10
393.4875751792664
 20
296.37822198055756
 10
392.4988703027223
 20
296.63670330626064
 10
391.4830665072699
 20
296.748473507046
 10
390.4618138872211
 20
296.7111503951339
 10
389.45687866912454
 20
296.52552944785634
 10
388.4896793024352
 20
296.19556685343844
 10
387.58082996245076
 20
295.7282951917158
 10
386.749701194954
 20
295.1336735469041
 10
386.0140070666598
 20
294.42437524701006
 10
385.3894276206371
 20
293.6155177538475
 10
384.8892746834142
 20
292.72434046058504
 10
384.5242081465074
 20
291.769837264011
 10
384.3020087693405
 20
290.7723517425994
 10
384.22741234586624
 20
289.75314356845433
  0
LWPOLYLINE
  5
36
330
17
100
AcDbEntity
  8
POCKET_4MM_UNDERSIDE
100
AcDbPolyline
 90
44
 70
1
 10
139.24685643154567
 20
391.22741234586624
 10
139.3214528550199
 20
390.20820417172126
 10
139.54365223218684
 20
389.21071865030956
 10
139.90871876909364
 20
388.25621545373554
 10
140.40887170631652
 20
387.3650381604731
 10
141.03345115233918
 20
386.5561806673105
 10
141.76914528063344
 20
385.84688236741647
 10
142.60027404813013
 20
385.2522607226048
 10
143.50912338811457
 20
384.78498906088214
 10
144.4763227548039
 20
384.45502646646423
 10
145.48125797290055
 20
384.26940551918665
 10
146.5025105929493
 20
384.23208240727456
 10
147.51831438840173
 20
384.34385260805993
 10
148.50701926494577
 20
384.602333933763
 10
149.4475526946781
 20
385.0020173036886
 10
150.31986884045136
 20
385.5343841607173
 10
151.1053757980901
 20
386.1880880295603
 10
151.78733185055046
 20
386.9491963471813
 10
152.35120228855232
 20
387.80148741118865
 10
152.7849691926735
 20
388.72679611725835
 10
153.07938757443713
 20
389.7054011167953
 10
153.2281824171905
 20
390.71644514323987
 10
153.2281824171905
 20
391.7383795484926
 10
153.07938757443713
 20
392.74942357493717
 10
152.7849691926735
 20
393.72802857447414
 10
152.35120228855232
 20
394.65333728054384
 10
151.78733185055046
 20
395.50562834455116
 10
151.1053757980901
 20
396.2667366621722
 10
150.31986884045136
 20
396.9204405310152
 10
149.44755269467817
 20
397.4528073880439
 10
148.50701926494577
 20
397.85249075796946
 10
147.51831438840173
 20
398.11097208367255
 10
146.50251059294925
 20
398.2227422844579
 10
145.48125797290055
 20
398.18541917254583
 10
144.4763227548039
 20
397.99979822526825
 10
143.50912338811457
 20
397.66983563085034
 10
142.60027404813013
 20
397.2025639691277
 10
141.76914528063344
 20
396.607942324316
 10
141.03345115233918
 20
395.89864402442197
 10
140.40887170631652
 20
395.0897865312594
 10
139.90871876909364
 20
394.19860923799695
 10
139.54365223218684
 20
393.2441060414229
 10
139.3214528550199
 20
392.24662052001133
 10
139.24685643154567
 20
391.22741234586624
  0
LWPOLYLINE
  5
37
330
17
100
AcDbEntity
  8
POCKET_4MM_UNDERSIDE
100
AcDbPolyline
 90
44
 70
1
 10
37.77258765413376
 20
289.75314356845433
 10
37.847184077608006
 20
288.73393539430936
 10
38.069383454774936
 20
287.73644987289765
 10
38.43444999168173
 20
286.7819466763236
 10
38.93460292890461
 20
285.8907693830612
 10
39.559182374927275
 20
285.0819118898986
 10
40.29487650322153
 20
284.37261359000456
 10
41.126005270718224
 20
283.77799194519287
 10
42.034854610702666
 20
283.31072028347023
 10
43.002053977391995
 20
282.9807576890523
 10
44.00698919548864
 20
282.79513674177474
 10
45.0282418155374
 20
282.75781362986265
 10
46.044045610989826
 20
282.869583830648
 10
47.03275048753386
 20
283.1280651563511
 10
47.9732839172662
 20
283.5277485262767
 10
48.845600063039456
 20
284.0601153833054
 10
49.6311070206782
 20
284.71381925214837
 10
50.31306307313855
 20
285.4749275697694
 10
50.87693351114041
 20
286.32721863377674
 10
51.31070041526158
 20
287.25252733984644
 10
51.60511879702523
 20
288.2311323393834
 10
51.7539136397786
 20
289.24217636582796
 10
51.7539136397786
 20
290.2641107710807
 10
51.60511879702523
 20
291.27515479752526
 10
51.31070041526158
 20
292.25375979706223
 10
50.87693351114041
 20
293.17906850313193
 10
50.31306307313855
 20
294.03135956713925
 10
49.6311070206782
 20
294.7924678847603
 10
48.845600063039456
 20
295.44617175360327
 10
47.97328391726626
 20
295.978538610632
 10
47.03275048753386
 20
296.37822198055756
 10
46.044045610989826
 20
296.63670330626064
 10
45.02824181553734
 20
296.748473507046
 10
44.00698919548864
 20
296.7111503951339
 10
43.002053977391995
 20
296.52552944785634
 10
42.034854610702666
 20
296.19556685343844
 10
41.126005270718224
 20
295.7282951917158
 10
40.29487650322153
 20
295.1336735469041
 10
39.559182374927275
 20
294.42437524701006
 10
38.93460292890461
 20
293.6155177538475
 10
38.43444999168173
 20
292.72434046058504
 10
38.069383454774936
 20
291.769837264011
 10
37.847184077608006
 20
290.7723517425994
 10
37.77258765413376
 20
289.75314356845433
  0
LWPOLYLINE
  5
38
330
17
100
AcDbEntity
  8
POCKET_4MM_UNDERSIDE
100
AcDbPolyline
 90
44
 70
1
 10
384.2274123458663
 20
146.24685643154567
 10
384.30200876934055
 20
145.22764825740063
 10
384.5242081465075
 20
144.23016273598898
 10
384.88927468341427
 20
143.27565953941496
 10
385.38942762063715
 20
142.38448224615257
 10
386.0140070666598
 20
141.57562475299
 10
386.74970119495407
 20
140.86632645309595
 10
387.5808299624508
 20
140.27170480828426
 10
388.4896793024352
 20
139.80443314656156
 10
389.45687866912454
 20
139.4744705521437
 10
390.4618138872212
 20
139.28884960486607
 10
391.4830665072699
 20
139.25152649295399
 10
392.49887030272237
 20
139.36329669373941
 10
393.4875751792664
 20
139.6217780194424
 10
394.42810860899874
 20
140.02146138936803
 10
395.30042475477194
 20
140.55382824639673
 10
396.08593171241074
 20
141.2075321152397
 10
396.7678877648711
 20
141.9686404328607
 10
397.33175820287295
 20
142.82093149686807
 10
397.7655251069941
 20
143.7462402029377
 10
398.05994348875777
 20
144.72484520247474
 10
398.20873833151114
 20
145.7358892289193
 10
398.20873833151114
 20
146.75782363417204
 10
398.05994348875777
 20
147.76886766061654
 10
397.7655251069941
 20
148.74747266015362
 10
397.33175820287295
 20
149.67278136622326
 10
396.7678877648711
 20
150.52507243023064
 10
396.08593171241074
 20
151.28618074785163
 10
395.30042475477194
 20
151.9398846166946
 10
394.42810860899874
 20
152.4722514737233
 10
393.4875751792664
 20
152.87193484364894
 10
392.49887030272237
 20
153.13041616935192
 10
391.4830665072699
 20
153.24218637013735
 10
390.4618138872212
 20
153.20486325822526
 10
389.45687866912454
 20
153.01924231094762
 10
388.4896793024352
 20
152.68927971652977
 10
387.5808299624508
 20
152.22200805480708
 10
386.74970119495407
 20
151.62738640999538
 10
386.0140070666598
 20
150.91808811010134
 10
385.38942762063715
 20
150.10923061693882
 10
384.88927468341427
 20
149.21805332367637
 10
384.5242081465075
 20
148.26355012710235
 10
384.30200876934055
 20
147.2660646056907
 10
384.2274123458663
 20
146.24685643154567
  0
LWPOLYLINE
  5
39
330
17
100
AcDbEntity
  8
POCKET_4MM_UNDERSIDE
100
AcDbPolyline
 90
44
 70
1
 10
282.75314356845445
 20
44.77258765413376
 10
282.82773999192864
 20
43.75337947998872
 10
283.04993936909557
 20
42.755893958577076
 10
283.4150059060024
 20
41.80139076200305
 10
283.9151588432253
 20
40.910213468740665
 10
284.53973828924796
 20
40.10135597557809
 10
285.2754324175422
 20
39.39205767568404
 10
286.1065611850389
 20
38.79743603087235
 10
287.01541052502336
 20
38.33016436914966
 10
287.9826098917127
 20
38.000201774731806
 10
288.98754510980933
 20
37.814580827454165
 10
290.0087977298581
 20
37.77725771554208
 10
291.0246015253105
 20
37.88902791632751
 10
292.0133064018546
 20
38.14750924203048
 10
292.95383983158695
 20
38.54719261195612
 10
293.82615597736014
 20
39.079559468984826
 10
294.6116629349989
 20
39.73326333782779
 10
295.29361898745924
 20
40.49437165544879
 10
295.8574894254611
 20
41.34666271945616
 10
296.2912563295823
 20
42.271971425525805
 10
296.585674711346
 20
43.25057642506283
 10
296.7344695540993
 20
44.26162045150738
 10
296.7344695540993
 20
45.283554856760134
 10
296.585674711346
 20
46.29459888320463
 10
296.2912563295823
 20
47.27320388274171
 10
295.8574894254611
 20
48.198512588811354
 10
295.29361898745924
 20
49.05080365281873
 10
294.6116629349989
 20
49.81191197043972
 10
293.82615597736014
 20
50.46561583928269
 10
292.95383983158695
 20
50.9979826963114
 10
292.0133064018546
 20
51.397666066237036
 10
291.0246015253105
 20
51.65614739194001
 10
290.0087977298581
 20
51.76791759272544
 10
288.98754510980933
 20
51.73059448081335
 10
287.9826098917127
 20
51.54497353353571
 10
287.01541052502336
 20
51.21501093911786
 10
286.1065611850389
 20
50.74773927739517
 10
285.2754324175422
 20
50.15311763258347
 10
284.53973828924796
 20
49.44381933268943
 10
283.9151588432253
 20
48.63496183952691
 10
283.4150059060024
 20
47.743784546264465
 10
283.04993936909557
 20
46.78928134969044
 10
282.82773999192864
 20
45.791795828278794
 10
282.75314356845445
 20
44.77258765413376
  0
LWPOLYLINE
  5
3A
330
17
100
AcDbEntity
  8
POCKET_4MM_UNDERSIDE
100
AcDbPolyline
 90
44
 70
1
 10
37.77258765413376
 20
146.24685643154555
 10
37.847184077608006
 20
145.22764825740052
 10
38.069383454774936
 20
144.23016273598887
 10
38.43444999168173
 20
143.27565953941485
 10
38.93460292890461
 20
142.38448224615246
 10
39.559182374927275
 20
141.57562475298988
 10
40.29487650322153
 20
140.86632645309584
 10
41.126005270718224
 20
140.27170480828414
 10
42.034854610702666
 20
139.80443314656145
 10
43.002053977391995
 20
139.4744705521436
 10
44.00698919548864
 20
139.28884960486596
 10
45.0282418155374
 20
139.25152649295387
 10
46.044045610989826
 20
139.3632966937393
 10
47.03275048753386
 20
139.62177801944227
 10
47.9732839172662
 20
140.02146138936791
 10
48.845600063039456
 20
140.55382824639662
 10
49.6311070206782
 20
141.2075321152396
 10
50.31306307313855
 20
141.96864043286058
 10
50.87693351114041
 20
142.82093149686796
 10
51.31070041526158
 20
143.7462402029376
 10
51.60511879702523
 20
144.72484520247463
 10
51.7539136397786
 20
145.73588922891918
 10
51.7539136397786
 20
146.75782363417193
 10
51.60511879702523
 20
147.76886766061642
 10
51.31070041526158
 20
148.7474726601535
 10
50.87693351114041
 20
149.67278136622315
 10
50.31306307313855
 20
150.52507243023052
 10
49.6311070206782
 20
151.28618074785152
 10
48.845600063039456
 20
151.93988461669448
 10
47.97328391726626
 20
152.4722514737232
 10
47.03275048753386
 20
152.87193484364883
 10
46.044045610989826
 20
153.1304161693518
 10
45.02824181553734
 20
153.24218637013723
 10
44.00698919548864
 20
153.20486325822515
 10
43.002053977391995
 20
153.0192423109475
 10
42.034854610702666
 20
152.68927971652965
 10
41.126005270718224
 20
152.22200805480696
 10
40.29487650322153
 20
151.62738640999527
 10
39.559182374927275
 20
150.91808811010122
 10
38.93460292890461
 20
150.1092306169387
 10
38.43444999168173
 20
149.21805332367626
 10
38.069383454774936
 20
148.26355012710223
 10
37.847184077608006
 20
147.2660646056906
 10
37.77258765413376
 20
146.24685643154555
  0
LWPOLYLINE
  5
3B
330
17
100
AcDbEntity
  8
POCKET_4MM_UNDERSIDE
100
AcDbPolyline
 90
44
 70
1
 10
139.2468564315456
 20
44.77258765413376
 10
139.32145285501986
 20
43.75337947998872
 10
139.5436522321868
 20
42.755893958577076
 10
139.90871876909358
 20
41.80139076200305
 10
140.40887170631646
 20
40.910213468740665
 10
141.03345115233913
 20
40.10135597557809
 10
141.76914528063338
 20
39.39205767568404
 10
142.60027404813007
 20
38.79743603087235
 10
143.50912338811452
 20
38.33016436914966
 10
144.47632275480385
 20
38.000201774731806
 10
145.4812579729005
 20
37.814580827454165
 10
146.50251059294925
 20
37.77725771554208
 10
147.51831438840168
 20
37.88902791632751
 10
148.5070192649457
 20
38.14750924203048
 10
149.44755269467805
 20
38.54719261195612
 10
150.3198688404513
 20
39.079559468984826
 10
151.10537579809005
 20
39.73326333782779
 10
151.7873318505504
 20
40.49437165544879
 10
152.35120228855226
 20
41.34666271945616
 10
152.78496919267343
 20
42.271971425525805
 10
153.07938757443708
 20
43.25057642506283
 10
153.22818241719045
 20
44.26162045150738
 10
153.22818241719045
 20
45.283554856760134
 10
153.07938757443708
 20
46.29459888320463
 10
152.78496919267343
 20
47.27320388274171
 10
152.35120228855226
 20
48.198512588811354
 10
151.7873318505504
 20
49.05080365281873
 10
151.10537579809005
 20
49.81191197043972
 10
150.3198688404513
 20
50.46561583928269
 10
149.44755269467805
 20
50.9979826963114
 10
148.5070192649457
 20
51.397666066237036
 10
147.51831438840168
 20
51.65614739194001
 10
146.5025105929492
 20
51.76791759272544
 10
145.4812579729005
 20
51.73059448081335
 10
144.47632275480385
 20
51.54497353353571
 10
143.50912338811452
 20
51.21501093911786
 10
142.60027404813007
 20
50.74773927739517
 10
141.76914528063338
 20
50.15311763258347
 10
141.03345115233913
 20
49.44381933268943
 10
140.40887170631646
 20
48.63496183952691
 10
139.90871876909358
 20
47.743784546264465
 10
139.5436522321868
 20
46.78928134969044
 10
139.32145285501986
 20
45.791795828278794
 10
139.2468564315456
 20
44.77258765413376
  0
ENDSEC
  0
SECTION
  2
OBJECTS
  0
DICTIONARY
  5
A
330
0
100
AcDbDictionary
281
1
  3
ACAD_COLOR
350
B
  3
ACAD_GROUP
350
C
  3
ACAD_LAYOUT
350
D
  3
ACAD_MATERIAL
350
E
  3
ACAD_MLEADERSTYLE
350
F
  3
ACAD_MLINESTYLE
350
10
  3
ACAD_PLOTSETTINGS
350
11
  3
ACAD_PLOTSTYLENAME
350
12
  3
ACAD_SCALELIST
350
14
  3
ACAD_TABLESTYLE
350
15
  3
ACAD_VISUALSTYLE
350
16
  3
EZDXF_META
350
2D
  0
DICTIONARY
  5
B
330
A
100
AcDbDictionary
281
1
  0
DICTIONARY
  5
C
330
A
100
AcDbDictionary
281
1
  0
DICTIONARY
  5
D
330
A
100
AcDbDictionary
281
1
  3
Model
350
1A
  3
Layout1
350
1E
  0
DICTIONARY
  5
E
330
A
100
AcDbDictionary
281
1
  3
ByBlock
350
1F
  3
ByLayer
350
20
  3
Global
350
21
  0
DICTIONARY
  5
F
330
A
100
AcDbDictionary
281
1
  3
Standard
350
2C
  0
DICTIONARY
  5
10
330
A
100
AcDbDictionary
281
1
  3
Standard
350
22
  0
DICTIONARY
  5
11
330
A
100
AcDbDictionary
281
1
  0
ACDBDICTIONARYWDFLT
  5
12
330
A
100
AcDbDictionary
281
1
  3
Normal
350
13
100
AcDbDictionaryWithDefault
340
13
  0
ACDBPLACEHOLDER
  5
13
330
12
  0
DICTIONARY
  5
14
330
A
100
AcDbDictionary
281
1
  0
DICTIONARY
  5
15
330
A
100
AcDbDictionary
281
1
  0
DICTIONARY
  5
16
330
A
100
AcDbDictionary
281
1
  0
LAYOUT
  5
1A
330
D
100
AcDbPlotSettings
  1

  4
A3
  6

 40
7.5
 41
20.0
 42
7.5
 43
20.0
 44
420.0
 45
297.0
 46
0.0
 47
0.0
 48
0.0
 49
0.0
140
0.0
141
0.0
142
1.0
143
1.0
 70
1024
 72
1
 73
0
 74
5
  7

 75
16
 76
0
 77
2
 78
300
147
1.0
148
0.0
149
0.0
100
AcDbLayout
  1
Model
 70
1
 71
0
 10
0.0
 20
0.0
 11
420.0
 21
297.0
 12
0.0
 22
0.0
 32
0.0
 14
1e+20
 24
1e+20
 34
1e+20
 15
-1e+20
 25
-1e+20
 35
-1e+20
146
0.0
 13
0.0
 23
0.0
 33
0.0
 16
1.0
 26
0.0
 36
0.0
 17
0.0
 27
1.0
 37
0.0
 76
1
330
17
  0
LAYOUT
  5
1E
330
D
100
AcDbPlotSettings
  1

  4
A3
  6

 40
7.5
 41
20.0
 42
7.5
 43
20.0
 44
420.0
 45
297.0
 46
0.0
 47
0.0
 48
0.0
 49
0.0
140
0.0
141
0.0
142
1.0
143
1.0
 70
0
 72
1
 73
0
 74
5
  7

 75
16
 76
0
 77
2
 78
300
147
1.0
148
0.0
149
0.0
100
AcDbLayout
  1
Layout1
 70
1
 71
1
 10
0.0
 20
0.0
 11
420.0
 21
297.0
 12
0.0
 22
0.0
 32
0.0
 14
1e+20
 24
1e+20
 34
1e+20
 15
-1e+20
 25
-1e+20
 35
-1e+20
146
0.0
 13
0.0
 23
0.0
 33
0.0
 16
1.0
 26
0.0
 36
0.0
 17
0.0
 27
1.0
 37
0.0
 76
1
330
1B
  0
MATERIAL
  5
1F
102
{ACAD_REACTORS
330
E
102
}
330
E
100
AcDbMaterial
  1
ByBlock
  2

 70
0
 40
1.0
 71
1
 41
1.0
 91
-1023410177
 42
1.0
 72
1
  3

 73
1
 74
1
 75
1
 44
0.5
 73
0
 45
1.0
 46
1.0
 77
1
  4

 78
1
 79
1
170
1
 48
1.0
171
1
  6

172
1
173
1
174
1
140
1.0
141
1.0
175
1
  7

176
1
177
1
178
1
143
1.0
179
1
  8

270
1
271
1
272
1
145
1.0
146
1.0
273
1
  9

274
1
275
1
276
1
 42
1.0
 72
1
  3

 73
1
 74
1
 75
1
 94
63
  0
MATERIAL
  5
20
102
{ACAD_REACTORS
330
E
102
}
330
E
100
AcDbMaterial
  1
ByLayer
  2

 70
0
 40
1.0
 71
1
 41
1.0
 91
-1023410177
 42
1.0
 72
1
  3

 73
1
 74
1
 75
1
 44
0.5
 73
0
 45
1.0
 46
1.0
 77
1
  4

 78
1
 79
1
170
1
 48
1.0
171
1
  6

172
1
173
1
174
1
140
1.0
141
1.0
175
1
  7

176
1
177
1
178
1
143
1.0
179
1
  8

270
1
271
1
272
1
145
1.0
146
1.0
273
1
  9

274
1
275
1
276
1
 42
1.0
 72
1
  3

 73
1
 74
1
 75
1
 94
63
  0
MATERIAL
  5
21
102
{ACAD_REACTORS
330
E
102
}
330
E
100
AcDbMaterial
  1
Global
  2

 70
0
 40
1.0
 71
1
 41
1.0
 91
-1023410177
 42
1.0
 72
1
  3

 73
1
 74
1
 75
1
 44
0.5
 73
0
 45
1.0
 46
1.0
 77
1
  4

 78
1
 79
1
170
1
 48
1.0
171
1
  6

172
1
173
1
174
1
140
1.0
141
1.0
175
1
  7

176
1
177
1
178
1
143
1.0
179
1
  8

270
1
271
1
272
1
145
1.0
146
1.0
273
1
  9

274
1
275
1
276
1
 42
1.0
 72
1
  3

 73
1
 74
1
 75
1
 94
63
  0
MLINESTYLE
  5
22
102
{ACAD_REACTORS
330
10
102
}
330
10
100
AcDbMlineStyle
  2
Standard
 70
0
  3

 62
256
 51
90.0
 52
90.0
 71
2
 49
0.5
 62
256
  6
BYLAYER
 49
-0.5
 62
256
  6
BYLAYER
  0
MLEADERSTYLE
  5
2C
102
{ACAD_REACTORS
330
F
102
}
330
F
100
AcDbMLeaderStyle
179
2
170
2
171
1
172
0
 90
2
 40
0.0
 41
0.0
173
1
 91
-1056964608
 92
-2
290
1
 42
2.0
291
1
 43
8.0
  3
Standard
 44
4.0
300

342
29
174
1
175
1
176
0
178
1
 93
-1056964608
 45
4.0
292
0
297
0
 46
4.0
 94
-1056964608
 47
1.0
 49
1.0
140
1.0
294
1
141
0.0
177
0
142
1.0
295
0
296
0
143
3.75
271
0
272
9
273
9
  0
DICTIONARY
  5
2D
330
A
100
AcDbDictionary
280
1
281
1
  3
CREATED_BY_EZDXF
350
2E
  3
WRITTEN_BY_EZDXF
350
3E
  0
DICTIONARYVAR
  5
2E
330
2D
100
DictionaryVariables
280
0
  1
1.4.4 @ 2026-10-11T00:38:29.395576+00:00
  0
DICTIONARYVAR
  5
3E
330
2D
100
DictionaryVariables
280
0
  1
1.4.4 @ 2026-10-11T00:38:29.398136+00:00
  0
ENDSEC
  0
EOF
