  0
SECTION
  2
HEADER
  9
$ACADVER
  1
AC1024
  9
$ACADMAINTVER
 70
6
  9
$DWGCODEPAGE
  3
ANSI_1252
  9
$LASTSAVEDBY
  1
ezdxf
  9
$INSBASE
 10
0.0
 20
0.0
 30
0.0
  9
$EXTMIN
 10
1e+20
 20
1e+20
 30
1e+20
  9
$EXTMAX
 10
-1e+20
 20
-1e+20
 30
-1e+20
  9
$LIMMIN
 10
0.0
 20
0.0
  9
$LIMMAX
 10
420.0
 20
297.0
  9
$ORTHOMODE
 70
0
  9
$REGENMODE
 70
1
  9
$FILLMODE
 70
1
  9
$QTEXTMODE
 70
0
  9
$MIRRTEXT
 70
1
  9
$LTSCALE
 40
1.0
  9
$ATTMODE
 70
1
  9
$TEXTSIZE
 40
2.5
  9
$TRACEWID
 40
1.0
  9
$TEXTSTYLE
  7
Standard
  9
$CLAYER
  8
0
  9
$CELTYPE
  6
ByLayer
  9
$CECOLOR
 62
256
  9
$CELTSCALE
 40
1.0
  9
$DISPSILH
 70
0
  9
$DIMSCALE
 40
1.0
  9
$DIMASZ
 40
2.5
  9
$DIMEXO
 40
0.625
  9
$DIMDLI
 40
3.75
  9
$DIMRND
 40
0.0
  9
$DIMDLE
 40
0.0
  9
$DIMEXE
 40
1.25
  9
$DIMTP
 40
0.0
  9
$DIMTM
 40
0.0
  9
$DIMTXT
 40
2.5
  9
$DIMCEN
 40
2.5
  9
$DIMTSZ
 40
0.0
  9
$DIMTOL
 70
0
  9
$DIMLIM
 70
0
  9
$DIMTIH
 70
0
  9
$DIMTOH
 70
0
  9
$DIMSE1
 70
0
  9
$DIMSE2
 70
0
  9
$DIMTAD
 70
1
  9
$DIMZIN
 70
8
  9
$DIMBLK
  1

  9
$DIMASO
 70
1
  9
$DIMSHO
 70
1
  9
$DIMPOST
  1

  9
$DIMAPOST
  1

  9
$DIMALT
 70
0
  9
$DIMALTD
 70
3
  9
$DIMALTF
 40
0.03937007874
  9
$DIMLFAC
 40
1.0
  9
$DIMTOFL
 70
1
  9
$DIMTVP
 40
0.0
  9
$DIMTIX
 70
0
  9
$DIMSOXD
 70
0
  9
$DIMSAH
 70
0
  9
$DIMBLK1
  1

  9
$DIMBLK2
  1

  9
$DIMSTYLE
  2
ISO-25
  9
$DIMCLRD
 70
0
  9
$DIMCLRE
 70
0
  9
$DIMCLRT
 70
0
  9
$DIMTFAC
 40
1.0
  9
$DIMGAP
 40
0.625
  9
$DIMJUST
 70
0
  9
$DIMSD1
 70
0
  9
$DIMSD2
 70
0
  9
$DIMTOLJ
 70
0
  9
$DIMTZIN
 70
8
  9
$DIMALTZ
 70
0
  9
$DIMALTTZ
 70
0
  9
$DIMUPT
 70
0
  9
$DIMDEC
 70
2
  9
$DIMTDEC
 70
2
  9
$DIMALTU
 70
2
  9
$DIMALTTD
 70
3
  9
$DIMTXSTY
  7
Standard
  9
$DIMAUNIT
 70
0
  9
$DIMADEC
 70
0
  9
$DIMALTRND
 40
0.0
  9
$DIMAZIN
 70
0
  9
$DIMDSEP
 70
44
  9
$DIMATFIT
 70
3
  9
$DIMFRAC
 70
0
  9
$DIMLDRBLK
  1

  9
$DIMLUNIT
 70
2
  9
$DIMLWD
 70
-2
  9
$DIMLWE
 70
-2
  9
$DIMTMOVE
 70
0
  9
$DIMFXL
 40
1.0
  9
$DIMFXLON
 70
0
  9
$DIMJOGANG
 40
0.785398163397
  9
$DIMTFILL
 70
0
  9
$DIMTFILLCLR
 70
0
  9
$DIMARCSYM
 70
0
  9
$DIMLTYPE
  6

  9
$DIMLTEX1
  6

  9
$DIMLTEX2
  6

  9
$DIMTXTDIRECTION
 70
0
  9
$LUNITS
 70
2
  9
$LUPREC
 70
4
  9
$SKETCHINC
 40
1.0
  9
$FILLETRAD
 40
10.0
  9
$AUNITS
 70
0
  9
$AUPREC
 70
2
  9
$MENU
  1
.
  9
$ELEVATION
 40
0.0
  9
$PELEVATION
 40
0.0
  9
$THICKNESS
 40
0.0
  9
$LIMCHECK
 70
0
  9
$CHAMFERA
 40
0.0
  9
$CHAMFERB
 40
0.0
  9
$CHAMFERC
 40
0.0
  9
$CHAMFERD
 40
0.0
  9
$SKPOLY
 70
0
  9
$TDCREATE
 40
2461325.026724537
  9
$TDUCREATE
 40
2458532.153996898
  9
$TDUPDATE
 40
2461325.026724537
  9
$TDUUPDATE
 40
2458532.1544311
  9
$TDINDWG
 40
0.0
  9
$TDUSRTIMER
 40
0.0
  9
$USRTIMER
 70
1
  9
$ANGBASE
 50
0.0
  9
$ANGDIR
 70
0
  9
$PDMODE
 70
0
  9
$PDSIZE
 40
0.0
  9
$PLINEWID
 40
0.0
  9
$SPLFRAME
 70
0
  9
$SPLINETYPE
 70
6
  9
$SPLINESEGS
 70
8
  9
$HANDSEED
  5
38
  9
$SURFTAB1
 70
6
  9
$SURFTAB2
 70
6
  9
$SURFTYPE
 70
6
  9
$SURFU
 70
6
  9
$SURFV
 70
6
  9
$UCSBASE
  2

  9
$UCSNAME
  2

  9
$UCSORG
 10
0.0
 20
0.0
 30
0.0
  9
$UCSXDIR
 10
1.0
 20
0.0
 30
0.0
  9
$UCSYDIR
 10
0.0
 20
1.0
 30
0.0
  9
$UCSORTHOREF
  2

  9
$UCSORTHOVIEW
 70
0
  9
$UCSORGTOP
 10
0.0
 20
0.0
 30
0.0
  9
$UCSORGBOTTOM
 10
0.0
 20
0.0
 30
0.0
  9
$UCSORGLEFT
 10
0.0
 20
0.0
 30
0.0
  9
$UCSORGRIGHT
 10
0.0
 20
0.0
 30
0.0
  9
$UCSORGFRONT
 10
0.0
 20
0.0
 30
0.0
  9
$UCSORGBACK
 10
0.0
 20
0.0
 30
0.0
  9
$PUCSBASE
  2

  9
$PUCSNAME
  2

  9
$PUCSORG
 10
0.0
 20
0.0
 30
0.0
  9
$PUCSXDIR
 10
1.0
 20
0.0
 30
0.0
  9
$PUCSYDIR
 10
0.0
 20
1.0
 30
0.0
  9
$PUCSORTHOREF
  2

  9
$PUCSORTHOVIEW
 70
0
  9
$PUCSORGTOP
 10
0.0
 20
0.0
 30
0.0
  9
$PUCSORGBOTTOM
 10
0.0
 20
0.0
 30
0.0
  9
$PUCSORGLEFT
 10
0.0
 20
0.0
 30
0.0
  9
$PUCSORGRIGHT
 10
0.0
 20
0.0
 30
0.0
  9
$PUCSORGFRONT
 10
0.0
 20
0.0
 30
0.0
  9
$PUCSORGBACK
 10
0.0
 20
0.0
 30
0.0
  9
$USERI1
 70
0
  9
$USERI2
 70
0
  9
$USERI3
 70
0
  9
$USERI4
 70
0
  9
$USERI5
 70
0
  9
$USERR1
 40
0.0
  9
$USERR2
 40
0.0
  9
$USERR3
 40
0.0
  9
$USERR4
 40
0.0
  9
$USERR5
 40
0.0
  9
$WORLDVIEW
 70
1
  9
$SHADEDGE
 70
3
  9
$SHADEDIF
 70
70
  9
$TILEMODE
 70
1
  9
$MAXACTVP
 70
64
  9
$PINSBASE
 10
0.0
 20
0.0
 30
0.0
  9
$PLIMCHECK
 70
0
  9
$PEXTMIN
 10
1e+20
 20
1e+20
 30
1e+20
  9
$PEXTMAX
 10
-1e+20
 20
-1e+20
 30
-1e+20
  9
$PLIMMIN
 10
0.0
 20
0.0
  9
$PLIMMAX
 10
420.0
 20
297.0
  9
$UNITMODE
 70
0
  9
$VISRETAIN
 70
1
  9
$PLINEGEN
 70
0
  9
$PSLTSCALE
 70
1
  9
$TREEDEPTH
 70
3020
  9
$CMLSTYLE
  2
Standard
  9
$CMLJUST
 70
0
  9
$CMLSCALE
 40
20.0
  9
$PROXYGRAPHICS
 70
1
  9
$MEASUREMENT
 70
1
  9
$CELWEIGHT
370
-1
  9
$ENDCAPS
280
0
  9
$JOINSTYLE
280
0
  9
$LWDISPLAY
290
0
  9
$INSUNITS
 70
4
  9
$HYPERLINKBASE
  1

  9
$STYLESHEET
  1

  9
$XEDIT
290
1
  9
$CEPSNTYPE
380
0
  9
$PSTYLEMODE
290
1
  9
$FINGERPRINTGUID
  2
{3835495E-3207-4350-8EE1-0E7D2EA653CD}
  9
$VERSIONGUID
  2
{9157E362-19E6-4183-A270-C7BDABB544CE}
  9
$EXTNAMES
290
1
  9
$PSVPSCALE
 40
0.0
  9
$OLESTARTUP
290
0
  9
$SORTENTS
280
127
  9
$INDEXCTL
280
0
  9
$HIDETEXT
280
1
  9
$XCLIPFRAME
280
1
  9
$HALOGAP
280
0
  9
$OBSCOLOR
 70
257
  9
$OBSLTYPE
280
0
  9
$INTERSECTIONDISPLAY
280
0
  9
$INTERSECTIONCOLOR
 70
257
  9
$DIMASSOC
280
2
  9
$PROJECTNAME
  1

  9
$CAMERADISPLAY
290
0
  9
$LENSLENGTH
 40
50.0
  9
$CAMERAHEIGHT
 40
0.0
  9
$STEPSPERSEC
 40
24.0
  9
$STEPSIZE
 40
100.0
  9
$3DDWFPREC
 40
2.0
  9
$PSOLWIDTH
 40
0.005
  9
$PSOLHEIGHT
 40
0.08
  9
$LOFTANG1
 40
1.570796326795
  9
$LOFTANG2
 40
1.570796326795
  9
$LOFTMAG1
 40
0.0
  9
$LOFTMAG2
 40
0.0
  9
$LOFTPARAM
 70
7
  9
$LOFTNORMALS
280
1
  9
$LATITUDE
 40
37.795
  9
$LONGITUDE
 40
-122.394
  9
$NORTHDIRECTION
 40
0.0
  9
$TIMEZONE
 70
-8000
  9
$LIGHTGLYPHDISPLAY
280
1
  9
$TILEMODELIGHTSYNCH
280
1
  9
$CMATERIAL
347
20
  9
$SOLIDHIST
280
0
  9
$SHOWHIST
280
1
  9
$DWFFRAME
280
2
  9
$DGNFRAME
280
2
  9
$REALWORLDSCALE
290
1
  9
$INTERFERECOLOR
 62
256
  9
$CSHADOW
280
0
  9
$SHADOWPLANELOCATION
 40
0.0
  0
ENDSEC
  0
SECTION
  2
CLASSES
  0
CLASS
  1
ACDBDICTIONARYWDFLT
  2
AcDbDictionaryWithDefault
  3
ObjectDBX Classes
 90
0
 91
0
280
0
281
0
  0
CLASS
  1
SUN
  2
AcDbSun
  3
SCENEOE
 90
1153
 91
0
280
0
281
0
  0
CLASS
  1
VISUALSTYLE
  2
AcDbVisualStyle
  3
ObjectDBX Classes
 90
4095
 91
0
280
0
281
0
  0
CLASS
  1
MATERIAL
  2
AcDbMaterial
  3
ObjectDBX Classes
 90
1153
 91
0
280
0
281
0
  0
CLASS
  1
SCALE
  2
AcDbScale
  3
ObjectDBX Classes
 90
1153
 91
0
280
0
281
0
  0
CLASS
  1
TABLESTYLE
  2
AcDbTableStyle
  3
ObjectDBX Classes
 90
4095
 91
0
280
0
281
0
  0
CLASS
  1
MLEADERSTYLE
  2
AcDbMLeaderStyle
  3
ACDB_MLEADERSTYLE_CLASS
 90
4095
 91
0
280
0
281
0
  0
CLASS
  1
DICTIONARYVAR
  2
AcDbDictionaryVar
  3
ObjectDBX Classes
 90
0
 91
0
280
0
281
0
  0
CLASS
  1
CELLSTYLEMAP
  2
AcDbCellStyleMap
  3
ObjectDBX Classes
 90
1152
 91
0
280
0
281
0
  0
CLASS
  1
MENTALRAYRENDERSETTINGS
  2
AcDbMentalRayRenderSettings
  3
SCENEOE
 90
1024
 91
0
280
0
281
0
  0
CLASS
  1
ACDBDETAILVIEWSTYLE
  2
AcDbDetailViewStyle
  3
ObjectDBX Classes
 90
1025
 91
0
280
0
281
0
  0
CLASS
  1
ACDBSECTIONVIEWSTYLE
  2
AcDbSectionViewStyle
  3
ObjectDBX Classes
 90
1025
 91
0
280
0
281
0
  0
CLASS
  1
RASTERVARIABLES
  2
AcDbRasterVariables
  3
ISM
 90
0
 91
0
280
0
281
0
  0
CLASS
  1
LAYOUT
  2
AcDbLayout
  3
ObjectDBX Classes
 90
0
 91
0
280
0
281
0
  0
CLASS
  1
ACDBPLACEHOLDER
  2
AcDbPlaceHolder
  3
ObjectDBX Classes
 90
0
 91
0
280
0
281
0
  0
ENDSEC
  0
SECTION
  2
TABLES
  0
TABLE
  2
VPORT
  5
8
330
0
100
AcDbSymbolTable
 70
1
  0
VPORT
  5
23
330
8
100
AcDbSymbolTableRecord
100
AcDbViewportTableRecord
  2
*Active
 70
0
 10
0.0
 20
0.0
 11
1.0
 21
1.0
 12
0.0
 22
0.0
 13
0.0
 23
0.0
 14
0.5
 24
0.5
 15
0.5
 25
0.5
 16
0.0
 26
0.0
 36
1.0
 17
0.0
 27
0.0
 37
0.0
 40
1000.0
 41
1.34
 42
50.0
 43
0.0
 44
0.0
 50
0.0
 51
0.0
 71
0
 72
1000
 73
1
 74
3
 75
0
 76
0
 77
0
 78
0
281
0
 65
0
146
0.0
  0
ENDTAB
  0
TABLE
  2
LTYPE
  5
2
330
0
100
AcDbSymbolTable
 70
3
  0
LTYPE
  5
24
330
2
100
AcDbSymbolTableRecord
100
AcDbLinetypeTableRecord
  2
ByBlock
 70
0
  3

 72
65
 73
0
 40
0.0
  0
LTYPE
  5
25
330
2
100
AcDbSymbolTableRecord
100
AcDbLinetypeTableRecord
  2
ByLayer
 70
0
  3

 72
65
 73
0
 40
0.0
  0
LTYPE
  5
26
330
2
100
AcDbSymbolTableRecord
100
AcDbLinetypeTableRecord
  2
Continuous
 70
0
  3

 72
65
 73
0
 40
0.0
  0
ENDTAB
  0
TABLE
  2
LAYER
  5
1
330
0
100
AcDbSymbolTable
 70
5
  0
LAYER
  5
27
330
1
100
AcDbSymbolTableRecord
100
AcDbLayerTableRecord
  2
0
 70
0
 62
7
  6
Continuous
370
-3
390
13
347
21
  0
LAYER
  5
28
330
1
100
AcDbSymbolTableRecord
100
AcDbLayerTableRecord
  2
Defpoints
 70
0
 62
7
  6
Continuous
290
0
370
-3
390
13
347
21
  0
LAYER
  5
2F
330
1
100
AcDbSymbolTableRecord
100
AcDbLayerTableRecord
  2
CUT_OUTSIDE
 70
0
 62
1
  6
Continuous
370
-3
390
13
347
21
  0
LAYER
  5
31
330
1
100
AcDbSymbolTableRecord
100
AcDbLayerTableRecord
  2
CUT_INSIDE
 70
0
 62
5
  6
Continuous
370
-3
390
13
347
21
  0
LAYER
  5
33
330
1
100
AcDbSymbolTableRecord
100
AcDbLayerTableRecord
  2
NOTES
 70
0
 62
7
  6
Continuous
370
-3
390
13
347
21
  0
ENDTAB
  0
TABLE
  2
STYLE
  5
5
330
0
100
AcDbSymbolTable
 70
1
  0
STYLE
  5
29
330
5
100
AcDbSymbolTableRecord
100
AcDbTextStyleTableRecord
  2
Standard
 70
0
 40
0.0
 41
1.0
 50
0.0
 71
0
 42
2.5
  3
txt
  4

  0
ENDTAB
  0
TABLE
  2
VIEW
  5
7
330
0
100
AcDbSymbolTable
 70
0
  0
ENDTAB
  0
TABLE
  2
UCS
  5
6
330
0
100
AcDbSymbolTable
 70
0
  0
ENDTAB
  0
TABLE
  2
APPID
  5
3
330
0
100
AcDbSymbolTable
 70
3
  0
APPID
  5
2A
330
3
100
AcDbSymbolTableRecord
100
AcDbRegAppTableRecord
  2
ACAD
 70
0
  0
APPID
  5
35
330
3
100
AcDbSymbolTableRecord
100
AcDbRegAppTableRecord
  2
HATCHBACKGROUNDCOLOR
 70
0
  0
APPID
  5
36
330
3
100
AcDbSymbolTableRecord
100
AcDbRegAppTableRecord
  2
EZDXF
 70
0
  0
ENDTAB
  0
TABLE
  2
DIMSTYLE
  5
4
330
0
100
AcDbSymbolTable
 70
1
100
AcDbDimStyleTable
  0
DIMSTYLE
105
2B
330
4
100
AcDbSymbolTableRecord
100
AcDbDimStyleTableRecord
  2
Standard
 70
0
 40
1.0
 41
2.5
 42
0.625
 43
3.75
 44
1.25
 45
0.0
 46
0.0
 47
0.0
 48
0.0
 49
2.5
140
2.5
141
2.5
142
0.0
143
0.03937007874
144
1.0
145
0.0
146
1.0
147
0.625
148
0.0
 69
0
 70
0
 71
0
 72
0
 73
0
 74
0
 75
0
 76
0
 77
1
 78
8
 79
3
170
0
171
3
172
1
173
0
174
0
175
0
176
0
177
0
178
0
179
2
271
2
272
2
273
2
274
3
275
0
276
0
277
2
278
44
279
0
280
0
281
0
282
0
283
0
284
8
285
0
286
0
288
0
289
3
290
0
371
-2
372
-2
  0
ENDTAB
  0
TABLE
  2
BLOCK_RECORD
  5
9
330
0
100
AcDbSymbolTable
 70
2
  0
BLOCK_RECORD
  5
17
330
9
100
AcDbSymbolTableRecord
100
AcDbBlockTableRecord
  2
*Model_Space
340
1A
 70
0
280
1
281
0
  0
BLOCK_RECORD
  5
1B
330
9
100
AcDbSymbolTableRecord
100
AcDbBlockTableRecord
  2
*Paper_Space
340
1E
 70
0
280
1
281
0
  0
ENDTAB
  0
ENDSEC
  0
SECTION
  2
BLOCKS
  0
BLOCK
  5
18
330
17
100
AcDbEntity
  8
0
100
AcDbBlockBegin
  2
*Model_Space
 70
0
 10
0.0
 20
0.0
 30
0.0
  3
*Model_Space
  1

  0
ENDBLK
  5
19
330
17
100
AcDbEntity
  8
0
100
AcDbBlockEnd
  0
BLOCK
  5
1C
330
1B
100
AcDbEntity
  8
0
100
AcDbBlockBegin
  2
*Paper_Space
 70
0
 10
0.0
 20
0.0
 30
0.0
  3
*Paper_Space
  1

  0
ENDBLK
  5
1D
330
1B
100
AcDbEntity
  8
0
100
AcDbBlockEnd
  0
ENDSEC
  0
SECTION
  2
ENTITIES
  0
LWPOLYLINE
  5
30
330
17
100
AcDbEntity
  8
CUT_OUTSIDE
100
AcDbPolyline
 90
401
 70
1
 10
436.0
 20
218.00000000000023
 10
435.97310588100197
 20
221.42419517397695
 10
435.89243015972943
 20
224.8475454790322
 10
435.7579927417095
 20
228.26920625470228
 10
435.5698267973632
 20
231.68833325739047
 10
435.32797875382187
 20
235.10408286867016
 10
435.03250828347143
 20
238.51561230343623
 10
434.68348828922916
 20
241.922079817848
 10
434.28100488655616
 20
245.3226449170184
 10
433.82515738220957
 20
248.71646856239312
 10
433.31605824973997
 20
252.10271337877055
 10
432.7538331017407
 20
255.48054386091133
 10
432.13862065885405
 20
258.8491265796881
 10
431.4705727155449
 20
262.20763038771986
 10
430.74985410264685
 20
265.5552266244464
 10
429.9766426466935
 20
268.8910893205873
 10
429.15112912604155
 20
272.2143954019384
 10
428.27351722379996
 20
275.52432489245143
 10
427.3440234775735
 20
278.8200611165522
 10
426.3628772260359
 20
282.10079090064255
 10
425.33032055234344
 20
285.3657047737388
 10
424.2466082244049
 20
288.61399716719666
 10
423.1120076320211
 20
291.84486661347376
 10
421.92679872091105
 20
295.05751594387823
 10
420.69127392363873
 20
298.2511524852599
 10
419.40573808746046
 20
301.4249882555897
 10
418.0705083991079
 20
304.5782401583821
 10
416.685914306527
 20
307.71013017591383
 10
415.2522974375921
 20
310.8198855611861
 10
413.7700115158141
 20
313.90673902858975
 10
412.23942227306406
 20
316.9699289432215
 10
410.66090735933517
 20
320.00869950880497
 10
409.03485624956227
 20
323.02230095417394
 10
407.3616701475256
 20
326.00998971826505
 10
405.6417618868596
 20
328.9710286335811
 10
403.875555829192
 20
331.90468710807704
 10
402.06348775943934
 20
334.8102413054212
 10
400.2060047782828
 20
337.68697432359284
 10
398.30356519185443
 20
340.5341763717645
 10
396.3566383986549
 20
343.35114494543495
 10
394.3657047737384
 20
346.13718499975937
 10
392.3312555501857
 20
348.89160912104273
 10
390.2537926979005
 20
351.61373769634884
 10
388.13382879975575
 20
354.3028990811839
 10
385.9718869251219
 20
356.95842976521453
 10
383.76850050080657
 20
359.5796745359803
 10
381.52421317944
 20
362.1659866405563
 10
379.23957870533684
 20
364.71672794513063
 10
376.91516077786764
 20
367.2312690924542
 10
374.551532912375
 20
369.7089896571247
 10
372.14927829866724
 20
372.1492782986676
 10
369.7089896571245
 20
374.55153291237525
 10
367.2312690924541
 20
376.91516077786775
 10
364.71672794513046
 20
379.23957870533707
 10
362.16598664055596
 20
381.52421317944027
 10
359.5796745359799
 20
383.7685005008068
 10
356.95842976521413
 20
385.97188692512225
 10
354.3028990811836
 20
388.133828799756
 10
351.61373769634884
 20
390.2537926979005
 10
348.8916091210427
 20
392.3312555501858
 10
346.1371849997589
 20
394.3657047737387
 10
343.35114494543456
 20
396.35663839865526
 10
340.5341763717645
 20
398.30356519185443
 10
337.6869743235927
 20
400.20600477828293
 10
334.81024130542113
 20
402.06348775943934
 10
331.90468710807676
 20
403.8755558291922
 10
328.97102863358066
 20
405.64176188685985
 10
326.00998971826476
 20
407.36167014752573
 10
323.02230095417383
 20
409.03485624956227
 10
320.00869950880497
 20
410.66090735933517
 10
316.969928943221
 20
412.2394222730643
 10
313.9067390285893
 20
413.7700115158143
 10
310.81988556118586
 20
415.25229743759223
 10
307.71013017591355
 20
416.68591430652714
 10
304.578240158382
 20
418.0705083991079
 10
301.4249882555894
 20
419.4057380874606
 10
298.2511524852597
 20
420.69127392363885
 10
295.05751594387795
 20
421.92679872091117
 10
291.8448666134734
 20
423.11200763202123
 10
288.6139971671965
 20
424.2466082244049
 10
285.3657047737385
 20
425.33032055234344
 10
282.10079090064204
 20
426.36287722603606
 10
278.8200611165516
 20
427.3440234775737
 10
275.5243248924511
 20
428.2735172238
 10
272.2143954019382
 20
429.1511291260416
 10
268.89108932058724
 20
429.97664264669356
 10
265.55522662444616
 20
430.74985410264696
 10
262.20763038771963
 20
431.4705727155449
 10
258.8491265796879
 20
432.13862065885417
 10
255.4805438609112
 20
432.7538331017407
 10
252.10271337877032
 20
433.3160582497401
 10
248.71646856239283
 20
433.82515738220957
 10
245.32264491701835
 20
434.28100488655616
 10
241.9220798178477
 20
434.6834882892292
 10
238.51561230343594
 20
435.03250828347143
 10
235.10408286867005
 20
435.327978753822
 10
231.68833325739018
 20
435.56982679736325
 10
228.26920625470217
 20
435.7579927417095
 10
224.8475454790319
 20
435.89243015972943
 10
221.42419517397667
 20
435.97310588100197
 10
217.99999999999977
 20
436.0
 10
214.57580482602305
 20
435.97310588100197
 10
211.15245452096804
 20
435.89243015972943
 10
207.73079374529772
 20
435.7579927417095
 10
204.31166674260953
 20
435.56982679736325
 10
200.89591713132984
 20
435.32797875382187
 10
197.48438769656377
 20
435.03250828347143
 10
194.07792018215184
 20
434.6834882892292
 10
190.6773550829816
 20
434.28100488655616
 10
187.28353143760694
 20
433.82515738220957
 10
183.89728662122963
 20
433.31605824973997
 10
180.5194561390885
 20
432.7538331017406
 10
177.15087342031185
 20
432.13862065885405
 10
173.7923696122803
 20
431.4705727155449
 10
170.44477337555358
 20
430.74985410264685
 10
167.1089106794123
 20
429.97664264669345
 10
163.78560459806155
 20
429.1511291260415
 10
160.47567510754862
 20
428.2735172237999
 10
157.17993888344796
 20
427.3440234775735
 10
153.89920909935768
 20
426.36287722603595
 10
150.63429522626143
 20
425.33032055234344
 10
147.3860028328034
 20
424.2466082244049
 10
144.15513338652647
 20
423.1120076320211
 10
140.94248405612177
 20
421.92679872091105
 10
137.74884751474008
 20
420.69127392363873
 10
134.5750117444103
 20
419.40573808746046
 10
131.4217598416177
 20
418.0705083991079
 10
128.28986982408622
 20
416.685914306527
 10
125.18011443881409
 20
415.25229743759223
 10
122.09326097141047
 20
413.7700115158142
 10
119.03007105677875
 20
412.2394222730642
 10
115.99130049119498
 20
410.66090735933517
 10
112.97769904582589
 20
409.03485624956215
 10
109.99001028173501
 20
407.3616701475256
 10
107.02897136641894
 20
405.6417618868596
 10
104.09531289192304
 20
403.8755558291921
 10
101.18975869457864
 20
402.0634877594392
 10
98.3130256764072
 20
400.20600477828293
 10
95.46582362823546
 20
398.30356519185443
 10
92.64885505456522
 20
396.35663839865504
 10
89.86281500024066
 20
394.36570477373834
 10
87.10839087895712
 20
392.3312555501856
 10
84.386262303651
 20
390.2537926979004
 10
81.69710091881629
 20
388.13382879975586
 10
79.04157023478552
 20
385.9718869251219
 10
76.42032546401987
 20
383.7685005008067
 10
73.83401335944382
 20
381.52421317944004
 10
71.28327205486943
 20
379.23957870533695
 10
68.7687309075458
 20
376.91516077786764
 10
66.29101034287532
 20
374.551532912375
 10
63.85072170133262
 20
372.14927829866735
 10
61.448467087624806
 20
369.70898965712456
 10
59.084839222132246
 20
367.2312690924541
 10
56.76042129466296
 20
364.7167279451305
 10
54.475786820559705
 20
362.16598664055596
 10
52.231499499193234
 20
359.5796745359801
 10
50.028113074877865
 20
356.9584297652143
 10
47.866171200244054
 20
354.3028990811837
 10
45.746207302099464
 20
351.61373769634884
 10
43.66874444981431
 20
348.89160912104273
 10
41.63429522626137
 20
346.13718499975903
 10
39.643361601344765
 20
343.3511449454345
 10
37.696434808145426
 20
340.53417637176426
 10
35.79399522171707
 20
337.6869743235927
 10
33.93651224056063
 20
334.8102413054212
 10
32.124444170807834
 20
331.9046871080767
 10
30.35823811314023
 20
328.9710286335809
 10
28.638329852474328
 20
326.0099897182648
 10
26.96514375043776
 20
323.02230095417394
 10
25.339092640664774
 20
320.00869950880485
 10
23.760577726935736
 20
316.969928943221
 10
22.229988484185753
 20
313.9067390285894
 10
20.747702562407767
 20
310.81988556118586
 10
19.31408569347289
 20
307.7101301759136
 10
17.92949160089205
 20
304.5782401583821
 10
16.59426191253948
 20
301.4249882555896
 10
15.308726076361182
 20
298.2511524852598
 10
14.073201279088948
 20
295.0575159438781
 10
12.887992367978796
 20
291.8448666134734
 10
11.753391775595077
 20
288.61399716719643
 10
10.669679447656506
 20
285.36570477373857
 10
9.637122773964023
 20
282.1007909006422
 10
8.655976522426357
 20
278.82006111655176
 10
7.726482776199987
 20
275.5243248924512
 10
6.84887087395839
 20
272.2143954019383
 10
6.023357353306494
 20
268.8910893205873
 10
5.250145897353008
 20
265.55522662444605
 10
4.529427284455011
 20
262.2076303877195
 10
3.861379341145863
 20
258.8491265796879
 10
3.2461668982592755
 20
255.4805438609111
 10
2.6839417502599474
 20
252.1027133787701
 10
2.174842617790432
 20
248.71646856239295
 10
1.7189951134438104
 20
245.32264491701824
 10
1.3165117107708113
 20
241.92207981784787
 10
0.9674917165285706
 20
238.51561230343606
 10
0.6720212461780761
 20
235.10408286867
 10
0.4301732026368086
 20
231.68833325739024
 10
0.24200725829055614
 20
228.26920625470223
 10
0.1075698402705143
 20
224.8475454790319
 10
0.026894118998001204
 20
221.42419517397678
 10
0.0
 20
217.9999999999999
 10
0.026894118998001204
 20
214.575804826023
 10
0.1075698402705143
 20
211.15245452096792
 10
0.24200725829055614
 20
207.73079374529766
 10
0.4301732026368086
 20
204.31166674260965
 10
0.6720212461781045
 20
200.8959171313299
 10
0.9674917165285706
 20
197.48438769656377
 10
1.3165117107708397
 20
194.07792018215207
 10
1.7189951134438388
 20
190.6773550829816
 10
2.1748426177904605
 20
187.28353143760694
 10
2.6839417502600043
 20
183.89728662122957
 10
3.246166898259304
 20
180.51945613908873
 10
3.8613793411458914
 20
177.15087342031194
 10
4.529427284455039
 20
173.7923696122803
 10
5.250145897353121
 20
170.4447733755536
 10
6.0233573533065226
 20
167.10891067941247
 10
6.848870873958447
 20
163.78560459806158
 10
7.726482776200044
 20
160.47567510754862
 10
8.65597652242647
 20
157.1799388834479
 10
9.637122773964023
 20
153.89920909935768
 10
10.669679447656563
 20
150.63429522626132
 10
11.753391775595134
 20
147.3860028328034
 10
12.88799236797891
 20
144.1551333865263
 10
14.073201279088977
 20
140.94248405612177
 10
15.308726076361268
 20
137.74884751474008
 10
16.594261912539537
 20
134.5750117444103
 10
17.929491600892163
 20
131.4217598416177
 10
19.314085693472975
 20
128.28986982408622
 10
20.747702562407795
 20
125.18011443881403
 10
22.22998848418581
 20
122.09326097141047
 10
23.760577726935907
 20
119.03007105677864
 10
25.33909264066483
 20
115.99130049119503
 10
26.965143750437733
 20
112.97769904582606
 10
28.638329852474385
 20
109.99001028173501
 10
30.358238113140317
 20
107.028971366419
 10
32.12444417080795
 20
104.09531289192307
 10
33.93651224056072
 20
101.1897586945787
 10
35.793995221717125
 20
98.31302567640722
 10
37.69643480814554
 20
95.46582362823551
 10
39.643361601344935
 20
92.64885505456527
 10
41.634295226261486
 20
89.86281500024086
 10
43.66874444981437
 20
87.10839087895715
 10
45.74620730209955
 20
84.38626230365105
 10
47.866171200244224
 20
81.69710091881615
 10
50.02811307487798
 20
79.04157023478558
 10
52.23149949919332
 20
76.42032546401987
 10
54.47578682055982
 20
73.83401335944393
 10
56.76042129466313
 20
71.28327205486937
 10
59.08483922213233
 20
68.76873090754583
 10
61.44846708762495
 20
66.29101034287538
 10
63.85072170133273
 20
63.85072170133253
 10
66.29101034287564
 20
61.44846708762469
 10
68.76873090754594
 20
59.084839222132246
 10
71.28327205486954
 20
56.76042129466299
 10
73.83401335944393
 20
54.47578682055979
 10
76.42032546402012
 20
52.23149949919309
 10
79.0415702347857
 20
50.028113074877865
 10
81.69710091881626
 20
47.86617120024414
 10
84.38626230365116
 20
45.74620730209949
 10
87.10839087895732
 20
43.6687444498142
 10
89.86281500024089
 20
41.63429522626143
 10
92.64885505456527
 20
39.64336160134491
 10
95.46582362823557
 20
37.696434808145455
 10
98.31302567640734
 20
35.79399522171707
 10
101.18975869457876
 20
33.93651224056066
 10
104.09531289192316
 20
32.12444417080792
 10
107.02897136641914
 20
30.35823811314026
 10
109.99001028173524
 20
28.63832985247427
 10
112.97769904582611
 20
26.965143750437733
 10
115.99130049119503
 20
25.33909264066483
 10
119.03007105677892
 20
23.760577726935708
 10
122.09326097141059
 20
22.229988484185753
 10
125.18011443881423
 20
20.74770256240771
 10
128.28986982408634
 20
19.31408569347286
 10
131.42175984161793
 20
17.92949160089205
 10
134.57501174441046
 20
16.59426191253948
 10
137.74884751474033
 20
15.308726076361154
 10
140.942484056122
 20
14.073201279088892
 10
144.15513338652664
 20
12.887992367978768
 10
147.38600283280346
 20
11.753391775595105
 10
150.63429522626157
 20
10.66967944765645
 10
153.89920909935782
 20
9.637122773964052
 10
157.17993888344805
 20
8.655976522426386
 10
160.47567510754877
 20
7.726482776199987
 10
163.78560459806164
 20
6.84887087395839
 10
167.1089106794127
 20
6.023357353306494
 10
170.44477337555372
 20
5.250145897353036
 10
173.79236961228034
 20
4.529427284455039
 10
177.15087342031205
 20
3.8613793411458346
 10
180.5194561390888
 20
3.2461668982592755
 10
183.89728662122968
 20
2.683941750259976
 10
187.28353143760708
 20
2.174842617790432
 10
190.6773550829817
 20
1.7189951134438388
 10
194.07792018215224
 20
1.3165117107707829
 10
197.48438769656389
 20
0.9674917165285706
 10
200.8959171313299
 20
0.672021246178133
 10
204.3116667426097
 20
0.4301732026368086
 10
207.730793745298
 20
0.24200725829052772
 10
211.1524545209681
 20
0.1075698402705143
 10
214.57580482602322
 20
0.026894118998029626
 10
218.00000000000006
 20
0.0
 10
221.42419517397707
 20
0.026894118998029626
 10
224.84754547903196
 20
0.1075698402705143
 10
228.26920625470223
 20
0.24200725829052772
 10
231.68833325739035
 20
0.4301732026368086
 10
235.10408286867033
 20
0.672021246178133
 10
238.51561230343617
 20
0.9674917165285706
 10
241.922079817848
 20
1.3165117107708397
 10
245.32264491701835
 20
1.7189951134438388
 10
248.716468562393
 20
2.174842617790432
 10
252.10271337877037
 20
2.6839417502600327
 10
255.48054386091127
 20
3.2461668982592755
 10
258.849126579688
 20
3.8613793411458914
 10
262.20763038771975
 20
4.529427284455096
 10
265.55522662444633
 20
5.250145897353093
 10
268.8910893205874
 20
6.023357353306551
 10
272.2143954019384
 20
6.848870873958447
 10
275.5243248924513
 20
7.726482776199987
 10
278.8200611165521
 20
8.655976522426442
 10
282.1007909006423
 20
9.637122773964052
 10
285.3657047737386
 20
10.669679447656563
 10
288.6139971671966
 20
11.753391775595105
 10
291.8448666134736
 20
12.887992367978882
 10
295.05751594387806
 20
14.073201279088948
 10
298.2511524852599
 20
15.308726076361268
 10
301.4249882555896
 20
16.594261912539537
 10
304.57824015838224
 20
17.929491600892106
 10
307.7101301759137
 20
19.314085693472975
 10
310.8198855611859
 20
20.747702562407767
 10
313.9067390285895
 20
22.22998848418581
 10
316.9699289432213
 20
23.76057772693582
 10
320.008699508805
 20
25.33909264066483
 10
323.02230095417406
 20
26.96514375043779
 10
326.0099897182649
 20
28.638329852474385
 10
328.97102863358094
 20
30.35823811314026
 10
331.9046871080769
 20
32.12444417080792
 10
334.81024130542124
 20
33.93651224056072
 10
337.6869743235928
 20
35.793995221717125
 10
340.53417637176443
 20
37.696434808145455
 10
343.3511449454348
 20
39.643361601344964
 10
346.13718499975914
 20
41.63429522626143
 10
348.89160912104273
 20
43.66874444981431
 10
351.61373769634884
 20
45.74620730209949
 10
354.3028990811838
 20
47.86617120024414
 10
356.95842976521436
 20
50.02811307487798
 10
359.5796745359801
 20
52.23149949919332
 10
362.1659866405561
 20
54.47578682055985
 10
364.71672794513063
 20
56.76042129466316
 10
367.2312690924541
 20
59.0848392221323
 10
369.70898965712456
 20
61.44846708762486
 10
372.14927829866735
 20
63.850721701332645
 10
374.55153291237525
 20
66.29101034287555
 10
376.91516077786775
 20
68.76873090754589
 10
379.23957870533695
 20
71.28327205486949
 10
381.52421317944015
 20
73.83401335944393
 10
383.7685005008068
 20
76.42032546402004
 10
385.9718869251221
 20
79.0415702347857
 10
388.133828799756
 20
81.69710091881637
 10
390.2537926979005
 20
84.38626230365116
 10
392.3312555501857
 20
87.10839087895727
 10
394.36570477373857
 20
89.86281500024091
 10
396.35663839865504
 20
92.64885505456527
 10
398.30356519185455
 20
95.46582362823557
 10
400.20600477828293
 20
98.31302567640728
 10
402.06348775943934
 20
101.18975869457876
 10
403.8755558291921
 20
104.09531289192313
 10
405.64176188685974
 20
107.02897136641911
 10
407.3616701475257
 20
109.99001028173512
 10
409.03485624956227
 20
112.97769904582611
 10
410.66090735933517
 20
115.99130049119498
 10
412.23942227306424
 20
119.03007105677887
 10
413.7700115158142
 20
122.09326097141047
 10
415.2522974375923
 20
125.18011443881426
 10
416.6859143065271
 20
128.28986982408628
 10
418.0705083991079
 20
131.42175984161793
 10
419.4057380874605
 20
134.57501174441046
 10
420.69127392363885
 20
137.7488475147403
 10
421.92679872091105
 20
140.94248405612194
 10
423.1120076320212
 20
144.1551333865266
 10
424.2466082244049
 20
147.38600283280346
 10
425.33032055234355
 20
150.63429522626154
 10
426.36287722603595
 20
153.8992090993578
 10
427.3440234775736
 20
157.17993888344813
 10
428.2735172238
 20
160.47567510754874
 10
429.1511291260416
 20
163.78560459806164
 10
429.9766426466935
 20
167.10891067941265
 10
430.7498541026469
 20
170.44477337555367
 10
431.47057271554496
 20
173.7923696122803
 10
432.1386206588541
 20
177.150873420312
 10
432.7538331017407
 20
180.5194561390888
 10
433.31605824973997
 20
183.89728662122963
 10
433.82515738220957
 20
187.28353143760705
 10
434.28100488655616
 20
190.67735508298165
 10
434.6834882892292
 20
194.07792018215218
 10
435.03250828347143
 20
197.48438769656389
 10
435.32797875382187
 20
200.89591713132984
 10
435.5698267973632
 20
204.3116667426097
 10
435.7579927417095
 20
207.73079374529794
 10
435.8924301597295
 20
211.15245452096804
 10
435.97310588100197
 20
214.57580482602316
 10
436.0
 20
218.0
  0
CIRCLE
  5
32
330
17
100
AcDbEntity
  8
CUT_INSIDE
100
AcDbCircle
 10
218.0
 20
218.0
 30
0.0
 40
175.0
  0
TEXT
  5
34
330
17
100
AcDbEntity
  8
NOTES
100
AcDbText
 10
2.0
 20
440.0
 30
0.0
 40
6.0
  1
woofer-ring  6 mm mdf, outer face
 11
2.0
 21
440.0
 31
0.0
100
AcDbText
  0
ENDSEC
  0
SECTION
  2
OBJECTS
  0
DICTIONARY
  5
A
330
0
100
AcDbDictionary
281
1
  3
ACAD_COLOR
350
B
  3
ACAD_GROUP
350
C
  3
ACAD_LAYOUT
350
D
  3
ACAD_MATERIAL
350
E
  3
ACAD_MLEADERSTYLE
350
F
  3
ACAD_MLINESTYLE
350
10
  3
ACAD_PLOTSETTINGS
350
11
  3
ACAD_PLOTSTYLENAME
350
12
  3
ACAD_SCALELIST
350
14
  3
ACAD_TABLESTYLE
350
15
  3
ACAD_VISUALSTYLE
350
16
  3
EZDXF_META
350
2D
  0
DICTIONARY
  5
B
330
A
100
AcDbDictionary
281
1
  0
DICTIONARY
  5
C
330
A
100
AcDbDictionary
281
1
  0
DICTIONARY
  5
D
330
A
100
AcDbDictionary
281
1
  3
Model
350
1A
  3
Layout1
350
1E
  0
DICTIONARY
  5
E
330
A
100
AcDbDictionary
281
1
  3
ByBlock
350
1F
  3
ByLayer
350
20
  3
Global
350
21
  0
DICTIONARY
  5
F
330
A
100
AcDbDictionary
281
1
  3
Standard
350
2C
  0
DICTIONARY
  5
10
330
A
100
AcDbDictionary
281
1
  3
Standard
350
22
  0
DICTIONARY
  5
11
330
A
100
AcDbDictionary
281
1
  0
ACDBDICTIONARYWDFLT
  5
12
330
A
100
AcDbDictionary
281
1
  3
Normal
350
13
100
AcDbDictionaryWithDefault
340
13
  0
ACDBPLACEHOLDER
  5
13
330
12
  0
DICTIONARY
  5
14
330
A
100
AcDbDictionary
281
1
  0
DICTIONARY
  5
15
330
A
100
AcDbDictionary
281
1
  0
DICTIONARY
  5
16
330
A
100
AcDbDictionary
281
1
  0
LAYOUT
  5
1A
330
D
100
AcDbPlotSettings
  1

  4
A3
  6

 40
7.5
 41
20.0
 42
7.5
 43
20.0
 44
420.0
 45
297.0
 46
0.0
 47
0.0
 48
0.0
 49
0.0
140
0.0
141
0.0
142
1.0
143
1.0
 70
1024
 72
1
 73
0
 74
5
  7

 75
16
 76
0
 77
2
 78
300
147
1.0
148
0.0
149
0.0
100
AcDbLayout
  1
Model
 70
1
 71
0
 10
0.0
 20
0.0
 11
420.0
 21
297.0
 12
0.0
 22
0.0
 32
0.0
 14
1e+20
 24
1e+20
 34
1e+20
 15
-1e+20
 25
-1e+20
 35
-1e+20
146
0.0
 13
0.0
 23
0.0
 33
0.0
 16
1.0
 26
0.0
 36
0.0
 17
0.0
 27
1.0
 37
0.0
 76
1
330
17
  0
LAYOUT
  5
1E
330
D
100
AcDbPlotSettings
  1

  4
A3
  6

 40
7.5
 41
20.0
 42
7.5
 43
20.0
 44
420.0
 45
297.0
 46
0.0
 47
0.0
 48
0.0
 49
0.0
140
0.0
141
0.0
142
1.0
143
1.0
 70
0
 72
1
 73
0
 74
5
  7

 75
16
 76
0
 77
2
 78
300
147
1.0
148
0.0
149
0.0
100
AcDbLayout
  1
Layout1
 70
1
 71
1
 10
0.0
 20
0.0
 11
420.0
 21
297.0
 12
0.0
 22
0.0
 32
0.0
 14
1e+20
 24
1e+20
 34
1e+20
 15
-1e+20
 25
-1e+20
 35
-1e+20
146
0.0
 13
0.0
 23
0.0
 33
0.0
 16
1.0
 26
0.0
 36
0.0
 17
0.0
 27
1.0
 37
0.0
 76
1
330
1B
  0
MATERIAL
  5
1F
102
{ACAD_REACTORS
330
E
102
}
330
E
100
AcDbMaterial
  1
ByBlock
  2

 70
0
 40
1.0
 71
1
 41
1.0
 91
-1023410177
 42
1.0
 72
1
  3

 73
1
 74
1
 75
1
 44
0.5
 73
0
 45
1.0
 46
1.0
 77
1
  4

 78
1
 79
1
170
1
 48
1.0
171
1
  6

172
1
173
1
174
1
140
1.0
141
1.0
175
1
  7

176
1
177
1
178
1
143
1.0
179
1
  8

270
1
271
1
272
1
145
1.0
146
1.0
273
1
  9

274
1
275
1
276
1
 42
1.0
 72
1
  3

 73
1
 74
1
 75
1
 94
63
  0
MATERIAL
  5
20
102
{ACAD_REACTORS
330
E
102
}
330
E
100
AcDbMaterial
  1
ByLayer
  2

 70
0
 40
1.0
 71
1
 41
1.0
 91
-1023410177
 42
1.0
 72
1
  3

 73
1
 74
1
 75
1
 44
0.5
 73
0
 45
1.0
 46
1.0
 77
1
  4

 78
1
 79
1
170
1
 48
1.0
171
1
  6

172
1
173
1
174
1
140
1.0
141
1.0
175
1
  7

176
1
177
1
178
1
143
1.0
179
1
  8

270
1
271
1
272
1
145
1.0
146
1.0
273
1
  9

274
1
275
1
276
1
 42
1.0
 72
1
  3

 73
1
 74
1
 75
1
 94
63
  0
MATERIAL
  5
21
102
{ACAD_REACTORS
330
E
102
}
330
E
100
AcDbMaterial
  1
Global
  2

 70
0
 40
1.0
 71
1
 41
1.0
 91
-1023410177
 42
1.0
 72
1
  3

 73
1
 74
1
 75
1
 44
0.5
 73
0
 45
1.0
 46
1.0
 77
1
  4

 78
1
 79
1
170
1
 48
1.0
171
1
  6

172
1
173
1
174
1
140
1.0
141
1.0
175
1
  7

176
1
177
1
178
1
143
1.0
179
1
  8

270
1
271
1
272
1
145
1.0
146
1.0
273
1
  9

274
1
275
1
276
1
 42
1.0
 72
1
  3

 73
1
 74
1
 75
1
 94
63
  0
MLINESTYLE
  5
22
102
{ACAD_REACTORS
330
10
102
}
330
10
100
AcDbMlineStyle
  2
Standard
 70
0
  3

 62
256
 51
90.0
 52
90.0
 71
2
 49
0.5
 62
256
  6
BYLAYER
 49
-0.5
 62
256
  6
BYLAYER
  0
MLEADERSTYLE
  5
2C
102
{ACAD_REACTORS
330
F
102
}
330
F
100
AcDbMLeaderStyle
179
2
170
2
171
1
172
0
 90
2
 40
0.0
 41
0.0
173
1
 91
-1056964608
 92
-2
290
1
 42
2.0
291
1
 43
8.0
  3
Standard
 44
4.0
300

342
29
174
1
175
1
176
0
178
1
 93
-1056964608
 45
4.0
292
0
297
0
 46
4.0
 94
-1056964608
 47
1.0
 49
1.0
140
1.0
294
1
141
0.0
177
0
142
1.0
295
0
296
0
143
3.75
271
0
272
9
273
9
  0
DICTIONARY
  5
2D
330
A
100
AcDbDictionary
280
1
281
1
  3
CREATED_BY_EZDXF
350
2E
  3
WRITTEN_BY_EZDXF
350
37
  0
DICTIONARYVAR
  5
2E
330
2D
100
DictionaryVariables
280
0
  1
1.4.4 @ 2026-10-11T00:38:29.387629+00:00
  0
DICTIONARYVAR
  5
37
330
2D
100
DictionaryVariables
280
0
  1
1.4.4 @ 2026-10-11T00:38:29.389828+00:00
  0
ENDSEC
  0
EOF
