  0
SECTION
  2
HEADER
  9
$ACADVER
  1
AC1024
  9
$ACADMAINTVER
 70
6
  9
$DWGCODEPAGE
  3
ANSI_1252
  9
$LASTSAVEDBY
  1
ezdxf
  9
$INSBASE
 10
0.0
 20
0.0
 30
0.0
  9
$EXTMIN
 10
1e+20
 20
1e+20
 30
1e+20
  9
$EXTMAX
 10
-1e+20
 20
-1e+20
 30
-1e+20
  9
$LIMMIN
 10
0.0
 20
0.0
  9
$LIMMAX
 10
420.0
 20
297.0
  9
$ORTHOMODE
 70
0
  9
$REGENMODE
 70
1
  9
$FILLMODE
 70
1
  9
$QTEXTMODE
 70
0
  9
$MIRRTEXT
 70
1
  9
$LTSCALE
 40
1.0
  9
$ATTMODE
 70
1
  9
$TEXTSIZE
 40
2.5
  9
$TRACEWID
 40
1.0
  9
$TEXTSTYLE
  7
Standard
  9
$CLAYER
  8
0
  9
$CELTYPE
  6
ByLayer
  9
$CECOLOR
 62
256
  9
$CELTSCALE
 40
1.0
  9
$DISPSILH
 70
0
  9
$DIMSCALE
 40
1.0
  9
$DIMASZ
 40
2.5
  9
$DIMEXO
 40
0.625
  9
$DIMDLI
 40
3.75
  9
$DIMRND
 40
0.0
  9
$DIMDLE
 40
0.0
  9
$DIMEXE
 40
1.25
  9
$DIMTP
 40
0.0
  9
$DIMTM
 40
0.0
  9
$DIMTXT
 40
2.5
  9
$DIMCEN
 40
2.5
  9
$DIMTSZ
 40
0.0
  9
$DIMTOL
 70
0
  9
$DIMLIM
 70
0
  9
$DIMTIH
 70
0
  9
$DIMTOH
 70
0
  9
$DIMSE1
 70
0
  9
$DIMSE2
 70
0
  9
$DIMTAD
 70
1
  9
$DIMZIN
 70
8
  9
$DIMBLK
  1

  9
$DIMASO
 70
1
  9
$DIMSHO
 70
1
  9
$DIMPOST
  1

  9
$DIMAPOST
  1

  9
$DIMALT
 70
0
  9
$DIMALTD
 70
3
  9
$DIMALTF
 40
0.03937007874
  9
$DIMLFAC
 40
1.0
  9
$DIMTOFL
 70
1
  9
$DIMTVP
 40
0.0
  9
$DIMTIX
 70
0
  9
$DIMSOXD
 70
0
  9
$DIMSAH
 70
0
  9
$DIMBLK1
  1

  9
$DIMBLK2
  1

  9
$DIMSTYLE
  2
ISO-25
  9
$DIMCLRD
 70
0
  9
$DIMCLRE
 70
0
  9
$DIMCLRT
 70
0
  9
$DIMTFAC
 40
1.0
  9
$DIMGAP
 40
0.625
  9
$DIMJUST
 70
0
  9
$DIMSD1
 70
0
  9
$DIMSD2
 70
0
  9
$DIMTOLJ
 70
0
  9
$DIMTZIN
 70
8
  9
$DIMALTZ
 70
0
  9
$DIMALTTZ
 70
0
  9
$DIMUPT
 70
0
  9
$DIMDEC
 70
2
  9
$DIMTDEC
 70
2
  9
$DIMALTU
 70
2
  9
$DIMALTTD
 70
3
  9
$DIMTXSTY
  7
Standard
  9
$DIMAUNIT
 70
0
  9
$DIMADEC
 70
0
  9
$DIMALTRND
 40
0.0
  9
$DIMAZIN
 70
0
  9
$DIMDSEP
 70
44
  9
$DIMATFIT
 70
3
  9
$DIMFRAC
 70
0
  9
$DIMLDRBLK
  1

  9
$DIMLUNIT
 70
2
  9
$DIMLWD
 70
-2
  9
$DIMLWE
 70
-2
  9
$DIMTMOVE
 70
0
  9
$DIMFXL
 40
1.0
  9
$DIMFXLON
 70
0
  9
$DIMJOGANG
 40
0.785398163397
  9
$DIMTFILL
 70
0
  9
$DIMTFILLCLR
 70
0
  9
$DIMARCSYM
 70
0
  9
$DIMLTYPE
  6

  9
$DIMLTEX1
  6

  9
$DIMLTEX2
  6

  9
$DIMTXTDIRECTION
 70
0
  9
$LUNITS
 70
2
  9
$LUPREC
 70
4
  9
$SKETCHINC
 40
1.0
  9
$FILLETRAD
 40
10.0
  9
$AUNITS
 70
0
  9
$AUPREC
 70
2
  9
$MENU
  1
.
  9
$ELEVATION
 40
0.0
  9
$PELEVATION
 40
0.0
  9
$THICKNESS
 40
0.0
  9
$LIMCHECK
 70
0
  9
$CHAMFERA
 40
0.0
  9
$CHAMFERB
 40
0.0
  9
$CHAMFERC
 40
0.0
  9
$CHAMFERD
 40
0.0
  9
$SKPOLY
 70
0
  9
$TDCREATE
 40
2461323.5917592593
  9
$TDUCREATE
 40
2458532.153996898
  9
$TDUPDATE
 40
2461323.5917592593
  9
$TDUUPDATE
 40
2458532.1544311
  9
$TDINDWG
 40
0.0
  9
$TDUSRTIMER
 40
0.0
  9
$USRTIMER
 70
1
  9
$ANGBASE
 50
0.0
  9
$ANGDIR
 70
0
  9
$PDMODE
 70
0
  9
$PDSIZE
 40
0.0
  9
$PLINEWID
 40
0.0
  9
$SPLFRAME
 70
0
  9
$SPLINETYPE
 70
6
  9
$SPLINESEGS
 70
8
  9
$HANDSEED
  5
3D
  9
$SURFTAB1
 70
6
  9
$SURFTAB2
 70
6
  9
$SURFTYPE
 70
6
  9
$SURFU
 70
6
  9
$SURFV
 70
6
  9
$UCSBASE
  2

  9
$UCSNAME
  2

  9
$UCSORG
 10
0.0
 20
0.0
 30
0.0
  9
$UCSXDIR
 10
1.0
 20
0.0
 30
0.0
  9
$UCSYDIR
 10
0.0
 20
1.0
 30
0.0
  9
$UCSORTHOREF
  2

  9
$UCSORTHOVIEW
 70
0
  9
$UCSORGTOP
 10
0.0
 20
0.0
 30
0.0
  9
$UCSORGBOTTOM
 10
0.0
 20
0.0
 30
0.0
  9
$UCSORGLEFT
 10
0.0
 20
0.0
 30
0.0
  9
$UCSORGRIGHT
 10
0.0
 20
0.0
 30
0.0
  9
$UCSORGFRONT
 10
0.0
 20
0.0
 30
0.0
  9
$UCSORGBACK
 10
0.0
 20
0.0
 30
0.0
  9
$PUCSBASE
  2

  9
$PUCSNAME
  2

  9
$PUCSORG
 10
0.0
 20
0.0
 30
0.0
  9
$PUCSXDIR
 10
1.0
 20
0.0
 30
0.0
  9
$PUCSYDIR
 10
0.0
 20
1.0
 30
0.0
  9
$PUCSORTHOREF
  2

  9
$PUCSORTHOVIEW
 70
0
  9
$PUCSORGTOP
 10
0.0
 20
0.0
 30
0.0
  9
$PUCSORGBOTTOM
 10
0.0
 20
0.0
 30
0.0
  9
$PUCSORGLEFT
 10
0.0
 20
0.0
 30
0.0
  9
$PUCSORGRIGHT
 10
0.0
 20
0.0
 30
0.0
  9
$PUCSORGFRONT
 10
0.0
 20
0.0
 30
0.0
  9
$PUCSORGBACK
 10
0.0
 20
0.0
 30
0.0
  9
$USERI1
 70
0
  9
$USERI2
 70
0
  9
$USERI3
 70
0
  9
$USERI4
 70
0
  9
$USERI5
 70
0
  9
$USERR1
 40
0.0
  9
$USERR2
 40
0.0
  9
$USERR3
 40
0.0
  9
$USERR4
 40
0.0
  9
$USERR5
 40
0.0
  9
$WORLDVIEW
 70
1
  9
$SHADEDGE
 70
3
  9
$SHADEDIF
 70
70
  9
$TILEMODE
 70
1
  9
$MAXACTVP
 70
64
  9
$PINSBASE
 10
0.0
 20
0.0
 30
0.0
  9
$PLIMCHECK
 70
0
  9
$PEXTMIN
 10
1e+20
 20
1e+20
 30
1e+20
  9
$PEXTMAX
 10
-1e+20
 20
-1e+20
 30
-1e+20
  9
$PLIMMIN
 10
0.0
 20
0.0
  9
$PLIMMAX
 10
420.0
 20
297.0
  9
$UNITMODE
 70
0
  9
$VISRETAIN
 70
1
  9
$PLINEGEN
 70
0
  9
$PSLTSCALE
 70
1
  9
$TREEDEPTH
 70
3020
  9
$CMLSTYLE
  2
Standard
  9
$CMLJUST
 70
0
  9
$CMLSCALE
 40
20.0
  9
$PROXYGRAPHICS
 70
1
  9
$MEASUREMENT
 70
1
  9
$CELWEIGHT
370
-1
  9
$ENDCAPS
280
0
  9
$JOINSTYLE
280
0
  9
$LWDISPLAY
290
0
  9
$INSUNITS
 70
4
  9
$HYPERLINKBASE
  1

  9
$STYLESHEET
  1

  9
$XEDIT
290
1
  9
$CEPSNTYPE
380
0
  9
$PSTYLEMODE
290
1
  9
$FINGERPRINTGUID
  2
{882FAEB2-3DB2-4FA5-9DD1-4447AE55BA22}
  9
$VERSIONGUID
  2
{3A033917-862C-441A-AFDC-CDAB496C4C21}
  9
$EXTNAMES
290
1
  9
$PSVPSCALE
 40
0.0
  9
$OLESTARTUP
290
0
  9
$SORTENTS
280
127
  9
$INDEXCTL
280
0
  9
$HIDETEXT
280
1
  9
$XCLIPFRAME
280
1
  9
$HALOGAP
280
0
  9
$OBSCOLOR
 70
257
  9
$OBSLTYPE
280
0
  9
$INTERSECTIONDISPLAY
280
0
  9
$INTERSECTIONCOLOR
 70
257
  9
$DIMASSOC
280
2
  9
$PROJECTNAME
  1

  9
$CAMERADISPLAY
290
0
  9
$LENSLENGTH
 40
50.0
  9
$CAMERAHEIGHT
 40
0.0
  9
$STEPSPERSEC
 40
24.0
  9
$STEPSIZE
 40
100.0
  9
$3DDWFPREC
 40
2.0
  9
$PSOLWIDTH
 40
0.005
  9
$PSOLHEIGHT
 40
0.08
  9
$LOFTANG1
 40
1.570796326795
  9
$LOFTANG2
 40
1.570796326795
  9
$LOFTMAG1
 40
0.0
  9
$LOFTMAG2
 40
0.0
  9
$LOFTPARAM
 70
7
  9
$LOFTNORMALS
280
1
  9
$LATITUDE
 40
37.795
  9
$LONGITUDE
 40
-122.394
  9
$NORTHDIRECTION
 40
0.0
  9
$TIMEZONE
 70
-8000
  9
$LIGHTGLYPHDISPLAY
280
1
  9
$TILEMODELIGHTSYNCH
280
1
  9
$CMATERIAL
347
20
  9
$SOLIDHIST
280
0
  9
$SHOWHIST
280
1
  9
$DWFFRAME
280
2
  9
$DGNFRAME
280
2
  9
$REALWORLDSCALE
290
1
  9
$INTERFERECOLOR
 62
256
  9
$CSHADOW
280
0
  9
$SHADOWPLANELOCATION
 40
0.0
  0
ENDSEC
  0
SECTION
  2
CLASSES
  0
CLASS
  1
ACDBDICTIONARYWDFLT
  2
AcDbDictionaryWithDefault
  3
ObjectDBX Classes
 90
0
 91
0
280
0
281
0
  0
CLASS
  1
SUN
  2
AcDbSun
  3
SCENEOE
 90
1153
 91
0
280
0
281
0
  0
CLASS
  1
VISUALSTYLE
  2
AcDbVisualStyle
  3
ObjectDBX Classes
 90
4095
 91
0
280
0
281
0
  0
CLASS
  1
MATERIAL
  2
AcDbMaterial
  3
ObjectDBX Classes
 90
1153
 91
0
280
0
281
0
  0
CLASS
  1
SCALE
  2
AcDbScale
  3
ObjectDBX Classes
 90
1153
 91
0
280
0
281
0
  0
CLASS
  1
TABLESTYLE
  2
AcDbTableStyle
  3
ObjectDBX Classes
 90
4095
 91
0
280
0
281
0
  0
CLASS
  1
MLEADERSTYLE
  2
AcDbMLeaderStyle
  3
ACDB_MLEADERSTYLE_CLASS
 90
4095
 91
0
280
0
281
0
  0
CLASS
  1
DICTIONARYVAR
  2
AcDbDictionaryVar
  3
ObjectDBX Classes
 90
0
 91
0
280
0
281
0
  0
CLASS
  1
CELLSTYLEMAP
  2
AcDbCellStyleMap
  3
ObjectDBX Classes
 90
1152
 91
0
280
0
281
0
  0
CLASS
  1
MENTALRAYRENDERSETTINGS
  2
AcDbMentalRayRenderSettings
  3
SCENEOE
 90
1024
 91
0
280
0
281
0
  0
CLASS
  1
ACDBDETAILVIEWSTYLE
  2
AcDbDetailViewStyle
  3
ObjectDBX Classes
 90
1025
 91
0
280
0
281
0
  0
CLASS
  1
ACDBSECTIONVIEWSTYLE
  2
AcDbSectionViewStyle
  3
ObjectDBX Classes
 90
1025
 91
0
280
0
281
0
  0
CLASS
  1
RASTERVARIABLES
  2
AcDbRasterVariables
  3
ISM
 90
0
 91
0
280
0
281
0
  0
CLASS
  1
LAYOUT
  2
AcDbLayout
  3
ObjectDBX Classes
 90
0
 91
0
280
0
281
0
  0
CLASS
  1
ACDBPLACEHOLDER
  2
AcDbPlaceHolder
  3
ObjectDBX Classes
 90
0
 91
0
280
0
281
0
  0
ENDSEC
  0
SECTION
  2
TABLES
  0
TABLE
  2
VPORT
  5
8
330
0
100
AcDbSymbolTable
 70
1
  0
VPORT
  5
23
330
8
100
AcDbSymbolTableRecord
100
AcDbViewportTableRecord
  2
*Active
 70
0
 10
0.0
 20
0.0
 11
1.0
 21
1.0
 12
0.0
 22
0.0
 13
0.0
 23
0.0
 14
0.5
 24
0.5
 15
0.5
 25
0.5
 16
0.0
 26
0.0
 36
1.0
 17
0.0
 27
0.0
 37
0.0
 40
1000.0
 41
1.34
 42
50.0
 43
0.0
 44
0.0
 50
0.0
 51
0.0
 71
0
 72
1000
 73
1
 74
3
 75
0
 76
0
 77
0
 78
0
281
0
 65
0
146
0.0
  0
ENDTAB
  0
TABLE
  2
LTYPE
  5
2
330
0
100
AcDbSymbolTable
 70
3
  0
LTYPE
  5
24
330
2
100
AcDbSymbolTableRecord
100
AcDbLinetypeTableRecord
  2
ByBlock
 70
0
  3

 72
65
 73
0
 40
0.0
  0
LTYPE
  5
25
330
2
100
AcDbSymbolTableRecord
100
AcDbLinetypeTableRecord
  2
ByLayer
 70
0
  3

 72
65
 73
0
 40
0.0
  0
LTYPE
  5
26
330
2
100
AcDbSymbolTableRecord
100
AcDbLinetypeTableRecord
  2
Continuous
 70
0
  3

 72
65
 73
0
 40
0.0
  0
ENDTAB
  0
TABLE
  2
LAYER
  5
1
330
0
100
AcDbSymbolTable
 70
3
  0
LAYER
  5
27
330
1
100
AcDbSymbolTableRecord
100
AcDbLayerTableRecord
  2
0
 70
0
 62
7
  6
Continuous
370
-3
390
13
347
21
  0
LAYER
  5
28
330
1
100
AcDbSymbolTableRecord
100
AcDbLayerTableRecord
  2
Defpoints
 70
0
 62
7
  6
Continuous
290
0
370
-3
390
13
347
21
  0
LAYER
  5
2F
330
1
100
AcDbSymbolTableRecord
100
AcDbLayerTableRecord
  2
CUT
 70
0
 62
7
  6
Continuous
370
-3
390
13
347
21
  0
ENDTAB
  0
TABLE
  2
STYLE
  5
5
330
0
100
AcDbSymbolTable
 70
1
  0
STYLE
  5
29
330
5
100
AcDbSymbolTableRecord
100
AcDbTextStyleTableRecord
  2
Standard
 70
0
 40
0.0
 41
1.0
 50
0.0
 71
0
 42
2.5
  3
txt
  4

  0
ENDTAB
  0
TABLE
  2
VIEW
  5
7
330
0
100
AcDbSymbolTable
 70
0
  0
ENDTAB
  0
TABLE
  2
UCS
  5
6
330
0
100
AcDbSymbolTable
 70
0
  0
ENDTAB
  0
TABLE
  2
APPID
  5
3
330
0
100
AcDbSymbolTable
 70
3
  0
APPID
  5
2A
330
3
100
AcDbSymbolTableRecord
100
AcDbRegAppTableRecord
  2
ACAD
 70
0
  0
APPID
  5
3A
330
3
100
AcDbSymbolTableRecord
100
AcDbRegAppTableRecord
  2
HATCHBACKGROUNDCOLOR
 70
0
  0
APPID
  5
3B
330
3
100
AcDbSymbolTableRecord
100
AcDbRegAppTableRecord
  2
EZDXF
 70
0
  0
ENDTAB
  0
TABLE
  2
DIMSTYLE
  5
4
330
0
100
AcDbSymbolTable
 70
1
100
AcDbDimStyleTable
  0
DIMSTYLE
105
2B
330
4
100
AcDbSymbolTableRecord
100
AcDbDimStyleTableRecord
  2
Standard
 70
0
 40
1.0
 41
2.5
 42
0.625
 43
3.75
 44
1.25
 45
0.0
 46
0.0
 47
0.0
 48
0.0
 49
2.5
140
2.5
141
2.5
142
0.0
143
0.03937007874
144
1.0
145
0.0
146
1.0
147
0.625
148
0.0
 69
0
 70
0
 71
0
 72
0
 73
0
 74
0
 75
0
 76
0
 77
1
 78
8
 79
3
170
0
171
3
172
1
173
0
174
0
175
0
176
0
177
0
178
0
179
2
271
2
272
2
273
2
274
3
275
0
276
0
277
2
278
44
279
0
280
0
281
0
282
0
283
0
284
8
285
0
286
0
288
0
289
3
290
0
371
-2
372
-2
  0
ENDTAB
  0
TABLE
  2
BLOCK_RECORD
  5
9
330
0
100
AcDbSymbolTable
 70
2
  0
BLOCK_RECORD
  5
17
330
9
100
AcDbSymbolTableRecord
100
AcDbBlockTableRecord
  2
*Model_Space
340
1A
 70
0
280
1
281
0
  0
BLOCK_RECORD
  5
1B
330
9
100
AcDbSymbolTableRecord
100
AcDbBlockTableRecord
  2
*Paper_Space
340
1E
 70
0
280
1
281
0
  0
ENDTAB
  0
ENDSEC
  0
SECTION
  2
BLOCKS
  0
BLOCK
  5
18
330
17
100
AcDbEntity
  8
0
100
AcDbBlockBegin
  2
*Model_Space
 70
0
 10
0.0
 20
0.0
 30
0.0
  3
*Model_Space
  1

  0
ENDBLK
  5
19
330
17
100
AcDbEntity
  8
0
100
AcDbBlockEnd
  0
BLOCK
  5
1C
330
1B
100
AcDbEntity
  8
0
100
AcDbBlockBegin
  2
*Paper_Space
 70
0
 10
0.0
 20
0.0
 30
0.0
  3
*Paper_Space
  1

  0
ENDBLK
  5
1D
330
1B
100
AcDbEntity
  8
0
100
AcDbBlockEnd
  0
ENDSEC
  0
SECTION
  2
ENTITIES
  0
LWPOLYLINE
  5
30
330
17
100
AcDbEntity
  8
CUT
100
AcDbPolyline
 90
401
 70
1
 10
31.180000000000007
 20
17.144
 10
31.180000000000007
 20
15.647999999999996
 10
13.756
 20
15.647999999999996
 10
13.759882352941176
 20
15.357204152249132
 10
13.771529411764703
 20
15.074934256055357
 10
13.790941176470582
 20
14.80119031141868
 10
13.818117647058813
 20
14.535972318339098
 10
13.853058823529409
 20
14.279280276816607
 10
13.895764705882357
 20
14.031114186851212
 10
13.946235294117642
 20
13.791474048442907
 10
14.004470588235293
 20
13.560359861591692
 10
14.070470588235295
 20
13.337771626297574
 10
14.144235294117635
 20
13.123709342560552
 10
14.225764705882355
 20
12.91817301038062
 10
14.315058823529412
 20
12.721162629757785
 10
14.412117647058821
 20
12.53267820069204
 10
14.516941176470581
 20
12.352719723183391
 10
14.629529411764707
 20
12.181287197231832
 10
14.749882352941171
 20
12.01838062283737
 10
14.878
 20
11.863999999999997
 10
15.014491349480963
 20
11.71829757785467
 10
15.15996539792387
 20
11.581425605536332
 10
15.314422145328706
 20
11.45338408304498
 10
15.4778615916955
 20
11.334173010380624
 10
15.65028373702421
 20
11.223792387543249
 10
15.831688581314879
 20
11.122242214532868
 10
16.022076124567462
 20
11.029522491349482
 10
16.221446366782004
 20
10.945633217993077
 10
16.429799307958476
 20
10.870574394463667
 10
16.647134948096877
 20
10.804346020761244
 10
16.873453287197222
 20
10.74694809688581
 10
17.10875432525951
 20
10.69838062283737
 10
17.35303806228373
 20
10.658643598615917
 10
17.606304498269893
 20
10.627737024221453
 10
17.868553633217985
 20
10.605660899653977
 10
18.13978546712802
 20
10.592415224913495
 10
18.42
 20
10.588000000000001
 10
18.708151111111107
 20
10.592106666666666
 10
18.985937777777778
 20
10.604426666666669
 10
19.25336
 20
10.624960000000002
 10
19.510417777777775
 20
10.653706666666665
 10
19.7571111111111
 20
10.690666666666665
 10
19.993439999999993
 20
10.735839999999996
 10
20.219404444444436
 20
10.789226666666664
 10
20.435004444444445
 20
10.850826666666663
 10
20.640240000000006
 20
10.920639999999999
 10
20.835111111111104
 20
10.998666666666665
 10
21.019617777777768
 20
11.084906666666669
 10
21.193759999999997
 20
11.179359999999996
 10
21.35753777777778
 20
11.282026666666667
 10
21.510951111111112
 20
11.392906666666661
 10
21.653999999999996
 20
11.512
 10
21.819152777777774
 20
11.670277777777777
 10
21.96994444444445
 20
11.837111111111113
 10
22.106375
 20
12.012499999999996
 10
22.22844444444445
 20
12.196444444444445
 10
22.33615277777777
 20
12.38894444444444
 10
22.42949999999999
 20
12.589999999999996
 10
22.508486111111097
 20
12.799611111111112
 10
22.573111111111103
 20
13.017777777777773
 10
22.62337500000001
 20
13.244500000000002
 10
22.65927777777776
 20
13.479777777777777
 10
22.680819444444438
 20
13.723611111111111
 10
22.687999999999988
 20
13.975999999999999
 10
31.180000000000007
 20
13.975999999999999
 10
31.177050505050488
 20
13.721696969696964
 10
31.168202020202017
 20
13.470787878787874
 10
31.153454545454537
 20
13.223272727272729
 10
31.132808080808076
 20
12.979151515151514
 10
31.106262626262634
 20
12.738424242424244
 10
31.073818181818183
 20
12.501090909090905
 10
31.03547474747475
 20
12.267151515151511
 10
30.99123232323231
 20
12.036606060606061
 10
30.94109090909089
 20
11.809454545454543
 10
30.885050505050515
 20
11.585696969696968
 10
30.823111111111103
 20
11.365333333333332
 10
30.75527272727271
 20
11.148363636363634
 10
30.681535353535338
 20
10.93478787878788
 10
30.601898989898984
 20
10.724606060606057
 10
30.51636363636362
 20
10.517818181818178
 10
30.424929292929278
 20
10.314424242424238
 10
30.327595959595953
 20
10.114424242424242
 10
30.22436363636365
 20
9.917818181818177
 10
30.115232323232334
 20
9.724606060606057
 10
30.00020202020201
 20
9.534787878787874
 10
29.879272727272735
 20
9.348363636363636
 10
29.75244444444445
 20
9.16533333333333
 10
29.619717171717156
 20
8.985696969696967
 10
29.48109090909091
 20
8.809454545454543
 10
29.336565656565654
 20
8.636606060606056
 10
29.186141414141417
 20
8.467151515151514
 10
29.02981818181817
 20
8.30109090909091
 10
28.867595959595945
 20
8.138424242424243
 10
28.69947474747474
 20
7.979151515151514
 10
28.525454545454522
 20
7.823272727272723
 10
28.345535353535354
 20
7.670787878787877
 10
28.159717171717176
 20
7.521696969696968
 10
27.96799999999999
 20
7.375999999999998
 10
27.80956335514574
 20
7.261511005353952
 10
27.64761927424152
 20
7.149848899464601
 10
27.48216775728733
 20
7.041013682331943
 10
27.313208804283164
 20
6.9350053539559795
 10
27.140742415229028
 20
6.831823914336702
 10
26.96476859012492
 20
6.731469363474119
 10
26.78528732897084
 20
6.633941701368229
 10
26.602298631766814
 20
6.539240928019034
 10
26.41580249851279
 20
6.4473670434265316
 10
26.225798929208793
 20
6.358320047590716
 10
26.032287923854852
 20
6.272099940511602
 10
25.83526948245091
 20
6.188706722189174
 10
25.634743604997027
 20
6.10814039262344
 10
25.430710291493142
 20
6.030400951814393
 10
25.223169541939313
 20
5.9554883997620465
 10
25.012121356335513
 20
5.883402736466387
 10
24.79756573468174
 20
5.814143961927421
 10
24.579502676977995
 20
5.747712076145149
 10
24.35793218322428
 20
5.6841070791195705
 10
24.13285425342059
 20
5.623328970850686
 10
23.90426888756693
 20
5.565377751338488
 10
23.672176085663295
 20
5.510253420582984
 10
23.43657584770969
 20
5.457955978584174
 10
23.197468173706113
 20
5.408485425342057
 10
22.954853063652592
 20
5.361841760856635
 10
22.70873051754907
 20
5.318024985127899
 10
22.459100535395592
 20
5.2770350981558565
 10
22.20596311719214
 20
5.238872099940508
 10
21.949318262938732
 20
5.2035359904818534
 10
21.689165972635337
 20
5.171026769779893
 10
21.42550624628197
 20
5.1413444378346185
 10
21.158339083878644
 20
5.114488994646045
 10
20.887664485425333
 20
5.090460440214159
 10
20.613482450922064
 20
5.069258774538966
 10
20.335792980368822
 20
5.05088399762046
 10
20.05459607376561
 20
5.035336109458655
 10
19.769891731112438
 20
5.022615110053536
 10
19.48167995240928
 20
5.012720999405111
 10
19.18996073765615
 20
5.0056537775133805
 10
18.894734086853063
 20
5.001413444378343
 10
18.596000000000004
 20
5.0
 10
18.3099674074074
 20
5.0014883950617275
 10
18.02680296296296
 20
5.00595358024691
 10
17.74650666666666
 20
5.0133955555555545
 10
17.469078518518515
 20
5.023814320987654
 10
17.194518518518507
 20
5.0372098765432085
 10
16.922826666666666
 20
5.053582222222218
 10
16.654002962962963
 20
5.0729313580246895
 10
16.3880474074074
 20
5.095257283950616
 10
16.12496
 20
5.120559999999998
 10
15.864740740740743
 20
5.148839506172841
 10
15.607389629629623
 20
5.180095802469133
 10
15.35290666666667
 20
5.214328888888886
 10
15.101291851851855
 20
5.251538765432095
 10
14.852545185185178
 20
5.291725432098765
 10
14.60666666666667
 20
5.334888888888891
 10
14.363656296296284
 20
5.381029135802471
 10
14.123514074074066
 20
5.430146172839507
 10
13.88624
 20
5.482239999999997
 10
13.651834074074074
 20
5.53731061728395
 10
13.4202962962963
 20
5.5953580246913575
 10
13.191626666666664
 20
5.65638222222222
 10
12.965825185185182
 20
5.720383209876545
 10
12.742891851851851
 20
5.787360987654317
 10
12.52282666666666
 20
5.857315555555552
 10
12.305629629629621
 20
5.930246913580248
 10
12.091300740740735
 20
6.006155061728393
 10
11.879840000000002
 20
6.085039999999999
 10
11.671247407407407
 20
6.166901728395061
 10
11.465522962962964
 20
6.251740246913577
 10
11.26266666666666
 20
6.339555555555556
 10
11.06267851851851
 20
6.43034765432099
 10
10.865558518518512
 20
6.524116543209878
 10
10.671306666666666
 20
6.620862222222222
 10
10.47992296296296
 20
6.72058469135802
 10
10.291407407407405
 20
6.823283950617281
 10
10.10575999999999
 20
6.9289599999999965
 10
9.92298074074074
 20
7.037612839506174
 10
9.74306962962963
 20
7.1492424691358
 10
9.566026666666659
 20
7.263848888888887
 10
9.391851851851854
 20
7.38143209876543
 10
9.220545185185188
 20
7.501992098765427
 10
9.05210666666666
 20
7.625528888888887
 10
8.886536296296299
 20
7.752042469135802
 10
8.723834074074077
 20
7.881532839506171
 10
8.563999999999993
 20
8.013999999999996
 10
8.403840909090903
 20
8.152602272727272
 10
8.24736363636363
 20
8.294409090909092
 10
8.094568181818175
 20
8.439420454545456
 10
7.945454545454538
 20
8.587636363636364
 10
7.800022727272719
 20
8.739056818181815
 10
7.658272727272731
 20
8.893681818181818
 10
7.520204545454547
 20
9.051511363636365
 10
7.3858181818181805
 20
9.212545454545456
 10
7.255113636363632
 20
9.37678409090909
 10
7.128090909090901
 20
9.54422727272727
 10
7.004750000000001
 20
9.714875
 10
6.885090909090906
 20
9.888727272727273
 10
6.7691136363636275
 20
10.06578409090909
 10
6.656818181818181
 20
10.246045454545452
 10
6.548204545454539
 20
10.429511363636365
 10
6.443272727272728
 20
10.616181818181815
 10
6.34202272727272
 20
10.806056818181816
 10
6.244454545454545
 20
10.99913636363636
 10
6.150568181818173
 20
11.195420454545456
 10
6.060363636363633
 20
11.394909090909088
 10
5.97384090909091
 20
11.597602272727272
 10
5.890999999999991
 20
11.8035
 10
5.811840909090904
 20
12.012602272727271
 10
5.7363636363636346
 20
12.224909090909087
 10
5.664568181818183
 20
12.440420454545453
 10
5.596454545454549
 20
12.659136363636364
 10
5.532022727272718
 20
12.881056818181818
 10
5.471272727272719
 20
13.106181818181817
 10
5.414204545454538
 20
13.33451136363636
 10
5.360818181818175
 20
13.566045454545453
 10
5.311113636363629
 20
13.80078409090909
 10
5.265090909090901
 20
14.038727272727272
 10
5.222749999999991
 20
14.279874999999997
 10
5.184090909090912
 20
14.524227272727273
 10
5.149113636363637
 20
14.771784090909087
 10
5.11781818181818
 20
15.022545454545451
 10
5.09020454545454
 20
15.27651136363636
 10
5.066272727272718
 20
15.533681818181819
 10
5.046022727272728
 20
15.794056818181815
 10
5.029454545454541
 20
16.057636363636362
 10
5.016568181818172
 20
16.324420454545454
 10
5.007363636363635
 20
16.59440909090909
 10
5.001840909090902
 20
16.867602272727268
 10
5.0
 20
17.144
 10
5.00187993510005
 20
17.420755002704162
 10
5.0075197404002125
 20
17.69436884802596
 10
5.016919415900489
 20
17.964841535965384
 10
5.030078961600864
 20
18.232173066522442
 10
5.046998377501353
 20
18.496363439697134
 10
5.067677663601941
 20
18.757412655489453
 10
5.0921168199026425
 20
19.0153207138994
 10
5.120315846403457
 20
19.270087614926986
 10
5.152274743104371
 20
19.5217133585722
 10
5.187993510005398
 20
19.770197944835047
 10
5.227472147106539
 20
20.01554137371552
 10
5.270710654407779
 20
20.257743645213623
 10
5.317709031909132
 20
20.496804759329365
 10
5.3684672796105986
 20
20.732724716062734
 10
5.422985397512164
 20
20.965503515413737
 10
5.481263385613843
 20
21.195141157382366
 10
5.5433012439156215
 20
21.421637641968623
 10
5.609098972417513
 20
21.64499296917252
 10
5.678656571119518
 20
21.86520713899405
 10
5.751974040021636
 20
22.08228015143321
 10
5.829051379123854
 20
22.296212006489995
 10
5.9098885884261705
 20
22.507002704164414
 10
5.9944856679286005
 20
22.71465224445646
 10
6.082842617631144
 20
22.91916062736614
 10
6.174959437533801
 20
23.120527852893453
 10
6.2708361276365565
 20
23.318753921038393
 10
6.370472687939426
 20
23.513838831800967
 10
6.473869118442394
 20
23.705782585181183
 10
6.581025419145476
 20
23.89458518117901
 10
6.691941590048671
 20
24.08024661979448
 10
6.8066176311519655
 20
24.262766901027575
 10
6.925053542455373
 20
24.442146024878312
 10
7.047249323958894
 20
24.61838399134667
 10
7.1732049756625145
 20
24.791480800432666
 10
7.302920497566248
 20
24.96143645213629
 10
7.436395889670095
 20
25.12825094645754
 10
7.573631151974041
 20
25.291924283396426
 10
7.714626284478086
 20
25.452456462952945
 10
7.859381287182259
 20
25.60984748512709
 10
8.007896160086531
 20
25.76409734991887
 10
8.160170903190917
 20
25.915206057328284
 10
8.316205516495401
 20
26.063173607355324
 10
8.475999999999999
 20
26.208
 10
8.635363636363635
 20
26.34640909090909
 10
8.797454545454542
 20
26.481636363636362
 10
8.962272727272719
 20
26.613681818181817
 10
9.12981818181818
 20
26.74254545454545
 10
9.300090909090912
 20
26.868227272727268
 10
9.4730909090909
 20
26.99072727272727
 10
9.648818181818172
 20
27.110045454545457
 10
9.827272727272728
 20
27.226181818181814
 10
10.00845454545454
 20
27.339136363636356
 10
10.192363636363638
 20
27.448909090909083
 10
10.37899999999999
 20
27.555499999999995
 10
10.568363636363628
 20
27.65890909090909
 10
10.760454545454536
 20
27.759136363636365
 10
10.955272727272728
 20
27.856181818181817
 10
11.152818181818176
 20
27.950045454545453
 10
11.35309090909091
 20
28.040727272727267
 10
11.556090909090898
 20
28.128227272727273
 10
11.761818181818171
 20
28.21254545454545
 10
11.970272727272715
 20
28.29368181818181
 10
12.181454545454542
 20
28.371636363636355
 10
12.395363636363626
 20
28.446409090909086
 10
12.611999999999995
 20
28.518
 10
12.831363636363633
 20
28.586409090909086
 10
13.053454545454542
 20
28.651636363636364
 10
13.278272727272721
 20
28.71368181818181
 10
13.505818181818185
 20
28.77254545454545
 10
13.736090909090905
 20
28.82822727272727
 10
13.969090909090909
 20
28.88072727272727
 10
14.204818181818183
 20
28.93004545454545
 10
14.443272727272728
 20
28.976181818181814
 10
14.684454545454543
 20
29.019136363636363
 10
14.928363636363628
 20
29.058909090909083
 10
15.174999999999997
 20
29.0955
 10
15.424363636363637
 20
29.12890909090909
 10
15.676454545454547
 20
29.159136363636364
 10
15.931272727272727
 20
29.186181818181815
 10
16.188818181818178
 20
29.21004545454545
 10
16.4490909090909
 20
29.230727272727272
 10
16.712090909090904
 20
29.24822727272727
 10
16.97781818181818
 20
29.262545454545446
 10
17.246272727272725
 20
29.273681818181814
 10
17.51745454545454
 20
29.281636363636366
 10
17.791363636363627
 20
29.28640909090909
 10
18.067999999999998
 20
29.287999999999997
 10
18.35644318181818
 20
29.286454545454546
 10
18.641772727272723
 20
29.28181818181818
 10
18.92398863636363
 20
29.2740909090909
 10
19.203090909090903
 20
29.263272727272728
 10
19.47907954545454
 20
29.24936363636364
 10
19.751954545454538
 20
29.23236363636363
 10
20.021715909090915
 20
29.21227272727272
 10
20.288363636363627
 20
29.189090909090908
 10
20.551897727272717
 20
29.16281818181818
 10
20.81231818181817
 20
29.13345454545454
 10
21.069625000000002
 20
29.101
 10
21.323818181818183
 20
29.065454545454543
 10
21.574897727272727
 20
29.026818181818186
 10
21.822863636363635
 20
28.985090909090907
 10
22.067715909090907
 20
28.940272727272728
 10
22.309454545454543
 20
28.89236363636364
 10
22.54807954545454
 20
28.84136363636363
 10
22.78359090909089
 20
28.787272727272722
 10
23.01598863636363
 20
28.730090909090904
 10
23.24527272727272
 20
28.669818181818172
 10
23.471443181818188
 20
28.60645454545454
 10
23.694500000000005
 20
28.539999999999992
 10
23.91444318181817
 20
28.470454545454544
 10
24.131272727272716
 20
28.39781818181818
 10
24.344988636363638
 20
28.322090909090903
 10
24.55559090909091
 20
28.243272727272725
 10
24.76307954545453
 20
28.16136363636363
 10
24.96745454545453
 20
28.07636363636363
 10
25.168715909090906
 20
27.98827272727273
 10
25.366863636363632
 20
27.897090909090906
 10
25.561897727272736
 20
27.802818181818182
 10
25.75381818181819
 20
27.705454545454543
 10
25.942624999999992
 20
27.604999999999997
 10
26.128318181818173
 20
27.501454545454543
 10
26.31089772727273
 20
27.39481818181818
 10
26.49036363636364
 20
27.28509090909091
 10
26.666715909090897
 20
27.172272727272727
 10
26.839954545454532
 20
27.056363636363628
 10
27.010079545454545
 20
26.937363636363635
 10
27.177090909090907
 20
26.815272727272728
 10
27.34098863636362
 20
26.690090909090905
 10
27.501772727272737
 20
26.561818181818182
 10
27.659443181818176
 20
26.430454545454538
 10
27.813999999999993
 20
26.295999999999992
 10
27.968737696051903
 20
26.15512385073012
 10
28.119834505137902
 20
26.010820984315842
 10
28.26729042725796
 20
25.863091400757163
 10
28.41110546241211
 20
25.711935100054077
 10
28.551279610600318
 20
25.55735208220659
 10
28.687812871822587
 20
25.399342347214713
 10
28.820705246078944
 20
25.237905895078413
 10
28.94995673336939
 20
25.073042725797727
 10
29.07556733369387
 20
24.904752839372634
 10
29.197537047052464
 20
24.733036235803134
 10
29.31586587344509
 20
24.55789291508924
 10
29.430553812871807
 20
24.379322877230933
 10
29.54160086533261
 20
24.197326122228233
 10
29.649007030827477
 20
24.011902650081126
 10
29.752772309356402
 20
23.82305246078961
 10
29.852896700919416
 20
23.630775554353704
 10
29.94938020551649
 20
23.43507193077339
 10
30.042222823147654
 20
23.235941590048668
 10
30.131424553812877
 20
23.033384532179554
 10
30.21698539751216
 20
22.827400757166032
 10
30.298905354245534
 20
22.617990265008103
 10
30.377184424012967
 20
22.40515305570578
 10
30.45182260681449
 20
22.188889129259053
 10
30.52281990265007
 20
21.96919848566793
 10
30.59017631151974
 20
21.746081124932388
 10
30.653891833423472
 20
21.51953704705246
 10
30.713966468361264
 20
21.289566252028123
 10
30.770400216333144
 20
21.05616873985938
 10
30.823193077339084
 20
20.819344510546244
 10
30.872345051379114
 20
20.579093564088694
 10
30.917856138453203
 20
20.335415900486744
 10
30.95972633856138
 20
20.0883115197404
 10
30.99795565170362
 20
19.837780421849644
 10
31.03254407787992
 20
19.583822606814493
 10
31.063491617090307
 20
19.326438074634936
 10
31.090798269334755
 20
19.06562682531098
 10
31.11446403461329
 20
18.801388858842614
 10
31.13448891292589
 20
18.53372417522985
 10
31.150872904272575
 20
18.262632774472685
 10
31.16361600865332
 20
17.98811465657112
 10
31.172718226068127
 20
17.71016982152515
 10
31.178179556517023
 20
17.428798269334777
  0
LWPOLYLINE
  5
31
330
17
100
AcDbEntity
  8
CUT
100
AcDbPolyline
 90
62
 70
1
 10
13.799999999999997
 20
19.784
 10
22.336
 20
19.784
 10
22.330724489795912
 20
20.037897959183674
 10
22.314897959183668
 20
20.28416326530612
 10
22.288520408163265
 20
20.522795918367343
 10
22.25159183673469
 20
20.753795918367345
 10
22.204112244897956
 20
20.977163265306118
 10
22.14608163265305
 20
21.192897959183668
 10
22.0775
 20
21.400999999999996
 10
21.998367346938778
 20
21.601469387755103
 10
21.908683673469383
 20
21.79430612244898
 10
21.80844897959183
 20
21.979510204081635
 10
21.69766326530612
 20
22.15708163265306
 10
21.57632653061225
 20
22.327020408163264
 10
21.444438775510207
 20
22.489326530612246
 10
21.301999999999992
 20
22.644
 10
21.15013265306122
 20
22.789469387755098
 10
20.989959183673477
 20
22.92416326530612
 10
20.821479591836734
 20
23.04808163265306
 10
20.64469387755102
 20
23.161224489795913
 10
20.45960204081632
 20
23.26359183673469
 10
20.26620408163265
 20
23.355183673469384
 10
20.064499999999995
 20
23.435999999999993
 10
19.85448979591837
 20
23.506040816326532
 10
19.636173469387757
 20
23.565306122448973
 10
19.40955102040816
 20
23.613795918367344
 10
19.17462244897959
 20
23.65151020408163
 10
18.931387755102037
 20
23.678448979591835
 10
18.679846938775512
 20
23.694612244897954
 10
18.42
 20
23.700000000000003
 10
18.172686868686867
 20
23.696404040404033
 10
17.932080808080798
 20
23.68561616161616
 10
17.69818181818181
 20
23.667636363636362
 10
17.4709898989899
 20
23.642464646464646
 10
17.25050505050504
 20
23.610101010101005
 10
17.036727272727262
 20
23.570545454545453
 10
16.829656565656563
 20
23.523797979797976
 10
16.62929292929293
 20
23.46985858585859
 10
16.435636363636362
 20
23.40872727272727
 10
16.24868686868686
 20
23.34040404040404
 10
16.068444444444438
 20
23.26488888888889
 10
15.894909090909096
 20
23.182181818181817
 10
15.728080808080804
 20
23.092282828282826
 10
15.567959595959593
 20
22.995191919191917
 10
15.414545454545447
 20
22.890909090909084
 10
15.26783838383838
 20
22.779434343434346
 10
15.12783838383838
 20
22.660767676767676
 10
14.994545454545445
 20
22.534909090909096
 10
14.86795959595959
 20
22.401858585858584
 10
14.7480808080808
 20
22.26161616161616
 10
14.63490909090909
 20
22.11418181818182
 10
14.528444444444446
 20
21.959555555555553
 10
14.428686868686867
 20
21.797737373737377
 10
14.335636363636354
 20
21.628727272727268
 10
14.24929292929292
 20
21.45252525252525
 10
14.169656565656567
 20
21.26913131313131
 10
14.096727272727264
 20
21.07854545454545
 10
14.030505050505042
 20
20.880767676767675
 10
13.970989898989899
 20
20.675797979797977
 10
13.918181818181822
 20
20.46363636363636
 10
13.87208080808081
 20
20.244282828282827
 10
13.832686868686864
 20
20.01773737373737
  0
LWPOLYLINE
  5
32
330
17
100
AcDbEntity
  8
CUT
100
AcDbPolyline
 90
435
 70
1
 10
57.359999999999985
 20
21.72
 10
57.359999999999985
 20
12.655999999999999
 10
57.369777777777756
 20
12.414000000000001
 10
57.3991111111111
 20
12.186666666666667
 10
57.44799999999998
 20
11.973999999999997
 10
57.51644444444443
 20
11.775999999999996
 10
57.604444444444425
 20
11.592666666666666
 10
57.71199999999999
 20
11.424
 10
57.839111111111094
 20
11.276111111111113
 10
57.98577777777777
 20
11.155111111111111
 10
58.15199999999999
 20
11.061
 10
58.337777777777774
 20
10.99377777777778
 10
58.5431111111111
 20
10.953444444444443
 10
58.76799999999997
 20
10.939999999999998
 10
60.351999999999975
 20
10.939999999999998
 10
60.351999999999975
 20
5.8799999999999955
 10
60.259874999999994
 20
5.829124999999998
 10
60.1155
 20
5.764499999999998
 10
59.918874999999986
 20
5.686124999999997
 10
59.66999999999999
 20
5.594000000000001
 10
59.50342857142857
 20
5.5374285714285705
 10
59.317999999999984
 20
5.48085714285714
 10
59.11371428571425
 20
5.424285714285716
 10
58.890571428571434
 20
5.367714285714285
 10
58.648571428571415
 20
5.311142857142855
 10
58.38771428571428
 20
5.254571428571424
 10
58.107999999999976
 20
5.198
 10
57.90251999999998
 20
5.160379999999996
 10
57.69087999999999
 20
5.126719999999999
 10
57.47307999999998
 20
5.0970200000000006
 10
57.24911999999998
 20
5.071280000000002
 10
57.01899999999998
 20
5.049500000000002
 10
56.78271999999998
 20
5.0316800000000015
 10
56.540279999999996
 20
5.01782
 10
56.291679999999985
 20
5.007919999999999
 10
56.03691999999998
 20
5.001979999999996
 10
55.77599999999998
 20
5.0
 10
55.4952283950617
 20
5.002376543209877
 10
55.22002469135802
 20
5.009506172839508
 10
54.95038888888888
 20
5.021388888888886
 10
54.68632098765431
 20
5.038024691358025
 10
54.427820987654314
 20
5.059413580246911
 10
54.17488888888889
 20
5.085555555555551
 10
53.92752469135803
 20
5.116450617283952
 10
53.685728395061716
 20
5.1520987654321
 10
53.4495
 20
5.1924999999999955
 10
53.21883950617283
 20
5.237654320987652
 10
52.993746913580225
 20
5.287561728395062
 10
52.77422222222222
 20
5.342222222222219
 10
52.56026543209876
 20
5.401635802469137
 10
52.35187654320987
 20
5.465802469135802
 10
52.14905555555555
 20
5.534722222222221
 10
51.9518024691358
 20
5.608395061728395
 10
51.76011728395059
 20
5.686820987654322
 10
51.573999999999984
 20
5.769999999999996
 10
51.343561224489775
 20
5.8830306122448945
 10
51.12367346938774
 20
6.002122448979591
 10
50.914336734693876
 20
6.127275510204079
 10
50.71555102040816
 20
6.258489795918365
 10
50.52731632653061
 20
6.395765306122449
 10
50.34963265306121
 20
6.539102040816324
 10
50.182499999999976
 20
6.688499999999998
 10
50.02591836734692
 20
6.843959183673469
 10
49.87988775510203
 20
7.005479591836732
 10
49.74440816326529
 20
7.173061224489793
 10
49.61947959183672
 20
7.346704081632652
 10
49.505102040816325
 20
7.526408163265302
 10
49.40127551020407
 20
7.71217346938775
 10
49.30799999999999
 20
7.903999999999996
 10
49.12099999999998
 20
7.758962962962961
 10
48.93155555555555
 20
7.6171851851851855
 10
48.739666666666665
 20
7.478666666666662
 10
48.54533333333333
 20
7.343407407407405
 10
48.34855555555555
 20
7.211407407407407
 10
48.14933333333332
 20
7.082666666666668
 10
47.94766666666666
 20
6.957185185185182
 10
47.74355555555553
 20
6.834962962962962
 10
47.53699999999998
 20
6.716000000000001
 10
47.327999999999975
 20
6.6002962962962926
 10
47.11655555555555
 20
6.48785185185185
 10
46.90266666666665
 20
6.378666666666668
 10
46.68633333333332
 20
6.272740740740737
 10
46.46755555555555
 20
6.170074074074073
 10
46.246333333333325
 20
6.070666666666668
 10
46.02266666666665
 20
5.974518518518515
 10
45.79655555555556
 20
5.881629629629629
 10
45.567999999999984
 20
5.792000000000002
 10
45.35943999999998
 20
5.7147799999999975
 10
45.14735999999999
 20
5.64152
 10
44.93176
 20
5.5722200000000015
 10
44.71263999999999
 20
5.506879999999995
 10
44.48999999999998
 20
5.445499999999996
 10
44.26383999999999
 20
5.388080000000002
 10
44.034159999999986
 20
5.334620000000001
 10
43.800959999999975
 20
5.285119999999999
 10
43.564239999999984
 20
5.239579999999997
 10
43.323999999999984
 20
5.198
 10
43.080239999999975
 20
5.160379999999996
 10
42.832959999999986
 20
5.126719999999999
 10
42.58215999999999
 20
5.0970200000000006
 10
42.32783999999998
 20
5.071280000000002
 10
42.06999999999999
 20
5.049500000000002
 10
41.80864
 20
5.0316800000000015
 10
41.54375999999999
 20
5.01782
 10
41.27535999999998
 20
5.007919999999999
 10
41.00343999999998
 20
5.001979999999996
 10
40.72799999999998
 20
5.0
 10
40.45292731973569
 20
5.001870726802643
 10
40.18255673656995
 20
5.007482907210573
 10
39.91688825050272
 20
5.016836541223782
 10
39.65592186153404
 20
5.029931628842284
 10
39.39965756966387
 20
5.046768170066073
 10
39.14809537489225
 20
5.067346164895142
 10
38.90123527721917
 20
5.0916656133295035
 10
38.65907727664464
 20
5.119726515369145
 10
38.42162137316862
 20
5.151528871014072
 10
38.188867566791146
 20
5.1870726802642935
 10
37.96081585751219
 20
5.226357943119794
 10
37.7374662453318
 20
5.269384659580581
 10
37.518818730249905
 20
5.316152829646654
 10
37.30487331226658
 20
5.366662453318014
 10
37.09562999138177
 20
5.420913530594653
 10
36.891088767595505
 20
5.478906061476586
 10
36.691249640907785
 20
5.540640045963805
 10
36.49611261131858
 20
5.606115484056303
 10
36.30567767882792
 20
5.675332375754095
 10
36.119944843435775
 20
5.748290721057167
 10
35.9389141051422
 20
5.8249905199655245
 10
35.76258546394712
 20
5.905431772479169
 10
35.59095891985061
 20
5.989614478598099
 10
35.42403447285261
 20
6.0775386383223235
 10
35.26181212295316
 20
6.16920425165182
 10
35.10429187015225
 20
6.26461131858661
 10
34.95147371444986
 20
6.363759839126686
 10
34.803357655846014
 20
6.466649813272049
 10
34.65994369434068
 20
6.573281241022691
 10
34.521231829933924
 20
6.683654122378627
 10
34.38722206262568
 20
6.797768457339842
 10
34.257914392415955
 20
6.915624245906351
 10
34.13330881930477
 20
7.0372214880781385
 10
34.013405343292135
 20
7.162560183855213
 10
33.89820396437804
 20
7.291640333237574
 10
33.78770468256246
 20
7.424461936225221
 10
33.68190749784543
 20
7.5610249928181545
 10
33.58081241022694
 20
7.701329503016375
 10
33.48441941970697
 20
7.845375466819881
 10
33.39272852628554
 20
7.993162884228667
 10
33.30573972996265
 20
8.144691755242746
 10
33.223453030738284
 20
8.299962079862105
 10
33.14586842861246
 20
8.458973858086758
 10
33.07298592358518
 20
8.62172708991669
 10
33.004805515656415
 20
8.788221775351907
 10
32.941327204826194
 20
8.958457914392412
 10
32.88255099109449
 20
9.132435507038203
 10
32.82847687446136
 20
9.31015455328928
 10
32.77910485492674
 20
9.491615053145644
 10
32.73443493249064
 20
9.676817006607294
 10
32.694467107153116
 20
9.86576041367423
 10
32.659201378914105
 20
10.058445274346454
 10
32.62863774777361
 20
10.254871588623956
 10
32.60277621373169
 20
10.455039356506752
 10
32.58161677678828
 20
10.658948577994828
 10
32.56515943694339
 20
10.86659925308819
 10
32.55340419419707
 20
11.077991381786845
 10
32.54635104854927
 20
11.29312496409078
 10
32.54399999999998
 20
11.512
 10
32.54717013888887
 20
11.791545138888885
 10
32.556680555555545
 20
12.065513888888887
 10
32.57253125
 20
12.333906249999998
 10
32.5947222222222
 20
12.596722222222219
 10
32.62325347222222
 20
12.853961805555556
 10
32.658124999999984
 20
13.105624999999996
 10
32.69933680555553
 20
13.351711805555553
 10
32.74688888888889
 20
13.592222222222219
 10
32.80078125
 20
13.827156250000002
 10
32.86101388888889
 20
14.056513888888887
 10
32.927586805555535
 20
14.280295138888889
 10
33.00049999999999
 20
14.4985
 10
33.07975347222222
 20
14.71112847222222
 10
33.16534722222221
 20
14.918180555555551
 10
33.25728124999998
 20
15.119656249999998
 10
33.355555555555554
 20
15.315555555555555
 10
33.460170138888884
 20
15.505878472222221
 10
33.571124999999995
 20
15.690624999999997
 10
33.68842013888889
 20
15.86979513888889
 10
33.81205555555553
 20
16.043388888888884
 10
33.942031249999985
 20
16.211406249999996
 10
34.07834722222222
 20
16.373847222222217
 10
34.22100347222221
 20
16.530711805555555
 10
34.369999999999976
 20
16.682000000000002
 10
34.5186496
 20
16.822764799999995
 10
34.672438399999976
 20
16.959939199999994
 10
34.83136639999998
 20
17.093523199999993
 10
34.995433599999984
 20
17.2235168
 10
35.16463999999999
 20
17.349919999999997
 10
35.3389856
 20
17.472732800000003
 10
35.518470399999984
 20
17.5919552
 10
35.7030944
 20
17.7075872
 10
35.892857599999985
 20
17.819628799999997
 10
36.08776
 20
17.928079999999994
 10
36.287801599999995
 20
18.0329408
 10
36.49298239999999
 20
18.134211199999996
 10
36.703302399999984
 20
18.231891199999993
 10
36.91876159999998
 20
18.325980799999996
 10
37.13935999999998
 20
18.41648
 10
37.365097599999984
 20
18.503388799999996
 10
37.59597439999999
 20
18.5867072
 10
37.831990399999995
 20
18.666435199999995
 10
38.073145599999975
 20
18.742572799999998
 10
38.319439999999986
 20
18.81512
 10
38.5708736
 20
18.884076799999995
 10
38.827446399999985
 20
18.949443199999997
 10
39.0891584
 20
19.0112192
 10
39.35600959999999
 20
19.0694048
 10
39.627999999999986
 20
19.123999999999995
 10
39.81505624543462
 20
19.159193571950325
 10
40.00519795471146
 20
19.193422936449963
 10
40.19842512783052
 20
19.2266880934989
 10
40.39473776479181
 20
19.258989043097145
 10
40.59413586559532
 20
19.290325785244704
 10
40.79661943024104
 20
19.320698319941556
 10
41.002188458728995
 20
19.35010664718773
 10
41.21084295105916
 20
19.378550766983196
 10
41.42258290723154
 20
19.406030679327976
 10
41.63740832724616
 20
19.432546384222057
 10
41.855319211102994
 20
19.458097881665438
 10
42.07631555880204
 20
19.48268517165814
 10
42.30039737034332
 20
19.50630825420015
 10
42.527564645726784
 20
19.528967129291452
 10
42.75781738495252
 20
19.55066179693206
 10
42.99115558802043
 20
19.571392257121985
 10
43.22757925493059
 20
19.59115850986121
 10
43.467088385682985
 20
19.60996055514974
 10
43.70968298027756
 20
19.62779839298758
 10
43.95536303871438
 20
19.644672023374724
 10
44.20412856099341
 20
19.66058144631117
 10
44.45597954711468
 20
19.67552666179693
 10
44.71091599707813
 20
19.68950766983199
 10
44.96893791088385
 20
19.702524470416357
 10
45.230045288531755
 20
19.71457706355003
 10
45.4942381300219
 20
19.725665449233013
 10
45.76151643535425
 20
19.7357896274653
 10
46.031880204528846
 20
19.74494959824689
 10
46.30532943754565
 20
19.753145361577793
 10
46.58186413440467
 20
19.760376917457997
 10
46.861484295105896
 20
19.766644265887507
 10
47.144189919649364
 20
19.771947406866325
 10
47.42998100803504
 20
19.77628634039445
 10
47.71885756026296
 20
19.779661066471874
 10
48.01081957633306
 20
19.782071585098606
 10
48.30586705624543
 20
19.783517896274653
 10
48.603999999999985
 20
19.784
 10
48.603999999999985
 20
20.927999999999997
 10
48.596181818181805
 20
21.170545454545447
 10
48.57272727272726
 20
21.402181818181816
 10
48.53363636363636
 20
21.62290909090909
 10
48.47890909090907
 20
21.83272727272727
 10
48.40854545454545
 20
22.03163636363636
 10
48.322545454545434
 20
22.21963636363636
 10
48.22090909090909
 20
22.39672727272727
 10
48.103636363636355
 20
22.562909090909088
 10
47.97072727272726
 20
22.71818181818182
 10
47.822181818181804
 20
22.862545454545455
 10
47.65799999999999
 20
22.995999999999995
 10
47.48145454545454
 20
23.11818181818181
 10
47.29581818181816
 20
23.22872727272727
 10
47.101090909090885
 20
23.32763636363636
 10
46.89727272727271
 20
23.414909090909084
 10
46.68436363636363
 20
23.490545454545455
 10
46.46236363636362
 20
23.554545454545448
 10
46.23127272727271
 20
23.606909090909085
 10
45.9910909090909
 20
23.64763636363636
 10
45.74181818181816
 20
23.67672727272727
 10
45.48345454545452
 20
23.694181818181818
 10
45.21599999999998
 20
23.700000000000003
 10
44.946939999999984
 20
23.69516
 10
44.68536
 20
23.680639999999997
 10
44.43125999999998
 20
23.656439999999996
 10
44.18464
 20
23.622559999999993
 10
43.94549999999998
 20
23.578999999999994
 10
43.713839999999976
 20
23.52575999999999
 10
43.489659999999986
 20
23.46284
 10
43.27295999999998
 20
23.39023999999999
 10
43.063739999999996
 20
23.307959999999994
 10
42.861999999999995
 20
23.215999999999994
 10
42.65422222222222
 20
23.101382716049386
 10
42.47088888888888
 20
22.972641975308633
 10
42.31199999999998
 20
22.829777777777778
 10
42.17755555555556
 20
22.672790123456792
 10
42.06755555555554
 20
22.501679012345676
 10
41.982
 20
22.316444444444443
 10
41.92088888888887
 20
22.117086419753086
 10
41.884222222222206
 20
21.9036049382716
 10
41.871999999999986
 20
21.676000000000002
 10
41.871999999999986
 20
21.5
 10
33.24799999999999
 20
21.5
 10
33.22874999999999
 20
21.620999999999995
 10
33.215
 20
21.763999999999996
 10
33.20675
 20
21.929000000000002
 10
33.20399999999998
 20
22.116
 10
33.20801275510203
 20
22.349974489795912
 10
33.220051020408164
 20
22.5804693877551
 10
33.240114795918345
 20
22.807484693877548
 10
33.26820408163263
 20
23.031020408163265
 10
33.304318877551
 20
23.251076530612238
 10
33.34845918367347
 20
23.467653061224482
 10
33.40062499999999
 20
23.680749999999996
 10
33.46081632653059
 20
23.890367346938774
 10
33.5290331632653
 20
24.096505102040815
 10
33.60527551020408
 20
24.29916326530612
 10
33.689543367346914
 20
24.498341836734696
 10
33.781836734693854
 20
24.69404081632652
 10
33.8821556122449
 20
24.88626020408163
 10
33.9905
 20
25.075000000000003
 10
34.10686989795917
 20
25.260260204081632
 10
34.23126530612245
 20
25.442040816326525
 10
34.36368622448978
 20
25.620341836734696
 10
34.50413265306122
 20
25.795163265306122
 10
34.652604591836734
 20
25.966505102040813
 10
34.80910204081633
 20
26.134367346938774
 10
34.973625
 20
26.29875
 10
35.14617346938775
 20
26.459653061224486
 10
35.326747448979575
 20
26.617076530612238
 10
35.51534693877551
 20
26.771020408163267
 10
35.71197193877549
 20
26.921484693877545
 10
35.91662244897958
 20
27.0684693877551
 10
36.12929846938775
 20
27.21197448979592
 10
36.349999999999994
 20
27.351999999999997
 10
36.51311242603549
 20
27.450009204470746
 10
36.679783037475346
 20
27.545472715318866
 10
36.8500118343195
 20
27.638390532544378
 10
37.023798816568046
 20
27.728762656147268
 10
37.20114398422089
 20
27.816589086127543
 10
37.382047337278095
 20
27.901869822485203
 10
37.56650887573963
 20
27.98460486522025
 10
37.75452859960552
 20
28.06479421433268
 10
37.946106508875715
 20
28.14243786982248
 10
38.141242603550296
 20
28.21753583168968
 10
38.33993688362918
 20
28.290088099934252
 10
38.54218934911242
 20
28.36009467455621
 10
38.74799999999999
 20
28.427555555555557
 10
38.95736883629189
 20
28.492470742932277
 10
39.17029585798815
 20
28.55484023668639
 10
39.38678106508874
 20
28.614664036817878
 10
39.60682445759369
 20
28.67194214332676
 10
39.83042603550294
 20
28.726674556213013
 10
40.05758579881655
 20
28.778861275476658
 10
40.28830374753451
 20
28.82850230111768
 10
40.52257988165678
 20
28.875597633136096
 10
40.76041420118341
 20
28.92014727153189
 10
41.001806706114394
 20
28.96215121630506
 10
41.24675739644968
 20
29.001609467455623
 10
41.495266272189326
 20
29.038522024983564
 10
41.74733333333333
 20
29.072888888888883
 10
42.002958579881636
 20
29.104710059171595
 10
42.2621420118343
 20
29.133985535831684
 10
42.52488362919132
 20
29.160715318869165
 10
42.791183431952646
 20
29.184899408284018
 10
43.06104142011833
 20
29.206537804076262
 10
43.33445759368834
 20
29.225630506245892
 10
43.61143195266271
 20
29.2421775147929
 10
43.891964497041414
 20
29.256178829717285
 10
44.176055226824445
 20
29.267634451019063
 10
44.463704142011835
 20
29.27654437869822
 10
44.754911242603555
 20
29.282908612754767
 10
45.049676528599605
 20
29.286727153188693
 10
45.347999999999985
 20
29.287999999999997
 10
45.63433747260774
 20
29.286698319941564
 10
45.91778232286339
 20
29.282793279766253
 10
46.19833455076696
 20
29.276284879474062
 10
46.47599415631848
 20
29.267173119065006
 10
46.75076113951789
 20
29.255457998539086
 10
47.022635500365226
 20
29.241139517896272
 10
47.291617238860454
 20
29.224217677136586
 10
47.55770635500363
 20
29.204692476260043
 10
47.82090284879473
 20
29.182563915266613
 10
48.08120672023375
 20
29.15783199415631
 10
48.338617969320666
 20
29.130496712929144
 10
48.5931365960555
 20
29.100558071585098
 10
48.84476260043826
 20
29.068016070124173
 10
49.09349598246894
 20
29.032870708546383
 10
49.33933674214754
 20
28.995121986851714
 10
49.58228487947406
 20
28.954769905040173
 10
49.8223403944485
 20
28.91181446311176
 10
50.05950328707084
 20
28.866255661066468
 10
50.293773557341126
 20
28.818093498904304
 10
50.525151205259306
 20
28.767327976625268
 10
50.75363623082541
 20
28.71395909422936
 10
50.97922863403943
 20
28.65798685171658
 10
51.201928414901374
 20
28.599411249086927
 10
51.42173557341124
 20
28.53823228634039
 10
51.63865010956903
 20
28.474449963476985
 10
51.85267202337471
 20
28.40806428049671
 10
52.06380131482834
 20
28.339075237399555
 10
52.27203798392986
 20
28.26748283418553
 10
52.47738203067931
 20
28.193287070854637
 10
52.679833455076675
 20
28.11648794740686
 10
52.879392257121964
 20
28.037085463842217
 10
53.076058436815174
 20
27.955079620160703
 10
53.269831994156306
 20
27.87047041636231
 10
53.46071292914536
 20
27.783257852447036
 10
53.648701241782305
 20
27.6934419284149
 10
53.83379693206717
 20
27.601022644265882
 10
54.01599999999999
 20
27.506
 10
54.22173437499998
 20
27.392455078124996
 10
54.42093749999998
 20
27.274570312499996
 10
54.61360937499998
 20
27.152345703124993
 10
54.79974999999999
 20
27.025781249999994
 10
54.979359375
 20
26.894876953124992
 10
55.15243749999999
 20
26.7596328125
 10
55.318984374999985
 20
26.620048828124993
 10
55.478999999999985
 20
26.476124999999996
 10
55.63248437499999
 20
26.327861328124996
 10
55.7794375
 20
26.175257812499993
 10
55.91985937499999
 20
26.018314453125
 10
56.05374999999998
 20
25.85703125
 10
56.18110937499998
 20
25.691408203124993
 10
56.30193749999998
 20
25.5214453125
 10
56.41623437499999
 20
25.347142578125002
 10
56.524
 20
25.168499999999995
 10
56.62523437499999
 20
24.985517578125
 10
56.719937499999986
 20
24.7981953125
 10
56.80810937499999
 20
24.606533203124997
 10
56.88974999999999
 20
24.41053125
 10
56.964859375
 20
24.210189453124997
 10
57.03343749999999
 20
24.0055078125
 10
57.095484374999984
 20
23.796486328125
 10
57.15099999999998
 20
23.583124999999995
 10
57.199984374999985
 20
23.365423828124996
 10
57.242437499999994
 20
23.143382812499993
 10
57.27835937499998
 20
22.917001953124995
 10
57.30775
 20
22.686281249999993
 10
57.330609374999995
 20
22.451220703125003
 10
57.346937499999996
 20
22.211820312499995
 10
57.356734374999974
 20
21.968080078125
  0
LWPOLYLINE
  5
33
330
17
100
AcDbEntity
  8
CUT
100
AcDbPolyline
 90
85
 70
1
 10
41.29999999999998
 20
12.655999999999999
 10
41.30678458049886
 20
12.451464852607707
 10
41.32713832199545
 20
12.256907029478455
 10
41.36106122448979
 20
12.072326530612244
 10
41.408553287981846
 20
11.897723356009067
 10
41.46961451247165
 20
11.73309750566893
 10
41.544244897959175
 20
11.578448979591833
 10
41.632444444444445
 20
11.433777777777777
 10
41.734213151927435
 20
11.299083900226755
 10
41.84955102040814
 20
11.174367346938773
 10
41.9784580498866
 20
11.059628117913832
 10
42.1209342403628
 20
10.954866213151924
 10
42.27697959183672
 20
10.860081632653063
 10
42.44659410430839
 20
10.77527437641723
 10
42.629777777777775
 20
10.700444444444443
 10
42.82653061224488
 20
10.63559183673469
 10
43.03685260770973
 20
10.580716553287978
 10
43.26074376417233
 20
10.535818594104306
 10
43.49820408163265
 20
10.500897959183675
 10
43.74923356009069
 20
10.475954648526077
 10
44.01383219954647
 20
10.46098866213152
 10
44.292
 20
10.455999999999996
 10
44.53501020408163
 20
10.460714285714282
 10
44.77375510204081
 20
10.47485714285714
 10
45.00823469387754
 20
10.498428571428569
 10
45.23844897959182
 20
10.53142857142857
 10
45.46439795918366
 20
10.573857142857143
 10
45.68608163265304
 20
10.625714285714281
 10
45.90349999999998
 20
10.686999999999998
 10
46.11665306122447
 20
10.757714285714286
 10
46.32554081632651
 20
10.837857142857139
 10
46.5301632653061
 20
10.927428571428571
 10
46.730520408163244
 20
11.026428571428568
 10
46.92661224489794
 20
11.134857142857143
 10
47.118438775510185
 20
11.252714285714283
 10
47.30599999999998
 20
11.379999999999995
 10
47.51331944444442
 20
11.537055555555554
 10
47.70261111111111
 20
11.700222222222223
 10
47.873875
 20
11.869500000000002
 10
48.02711111111111
 20
12.044888888888885
 10
48.16231944444442
 20
12.226388888888884
 10
48.279499999999985
 20
12.414000000000001
 10
48.37865277777777
 20
12.607722222222222
 10
48.45977777777776
 20
12.807555555555552
 10
48.522875
 20
13.0135
 10
48.567944444444436
 20
13.225555555555552
 10
48.5949861111111
 20
13.44372222222222
 10
48.603999999999985
 20
13.668
 10
48.603999999999985
 20
15.647999999999996
 10
48.28248393194707
 20
15.646461247637049
 10
47.968370510396966
 20
15.6418449905482
 10
47.6616597353497
 20
15.634151228733458
 10
47.36235160680528
 20
15.623379962192814
 10
47.07044612476369
 20
15.609531190926276
 10
46.785943289224946
 20
15.592604914933837
 10
46.50884310018901
 20
15.572601134215496
 10
46.239145557655945
 20
15.549519848771268
 10
45.97685066162569
 20
15.523361058601132
 10
45.721958412098274
 20
15.494124763705102
 10
45.4744688090737
 20
15.46181096408317
 10
45.23438185255196
 20
15.426419659735345
 10
45.001697542533066
 20
15.387950850661625
 10
44.77641587901701
 20
15.346404536862003
 10
44.55853686200376
 20
15.301780718336481
 10
44.348060491493385
 20
15.254079395085064
 10
44.14498676748582
 20
15.203300567107746
 10
43.94931568998109
 20
15.149444234404534
 10
43.761047258979204
 20
15.09251039697542
 10
43.58018147448013
 20
15.032499054820413
 10
43.40671833648392
 20
14.969410207939504
 10
43.24065784499055
 20
14.9032438563327
 10
43.081999999999994
 20
14.833999999999996
 10
42.83652040816327
 20
14.714908163265306
 10
42.609224489795906
 20
14.590204081632649
 10
42.40011224489794
 20
14.459887755102038
 10
42.20918367346937
 20
14.323959183673466
 10
42.03643877551019
 20
14.182418367346934
 10
41.88187755102041
 20
14.035265306122447
 10
41.74549999999999
 20
13.8825
 10
41.62730612244897
 20
13.724122448979585
 10
41.527295918367344
 20
13.560132653061224
 10
41.44546938775508
 20
13.390530612244895
 10
41.381826530612244
 20
13.215316326530612
 10
41.33636734693877
 20
13.034489795918368
 10
41.309091836734694
 20
12.848051020408164
  0
LWPOLYLINE
  5
34
330
17
100
AcDbEntity
  8
CUT
100
AcDbPolyline
 90
91
 70
1
 10
78.392
 20
28.804000000000002
 10
78.392
 20
21.455999999999996
 10
75.576
 20
21.455999999999996
 10
75.29304709141272
 20
21.45209972299169
 10
75.01850415512465
 20
21.44039889196676
 10
74.75237119113572
 20
21.4208975069252
 10
74.49464819944598
 20
21.393595567867038
 10
74.24533518005538
 20
21.358493074792243
 10
74.00443213296398
 20
21.31559002770083
 10
73.77193905817174
 20
21.264886426592795
 10
73.54785595567864
 20
21.206382271468144
 10
73.33218282548475
 20
21.140077562326866
 10
73.12491966759
 20
21.065972299168976
 10
72.92606648199444
 20
20.98406648199446
 10
72.73562326869805
 20
20.89436011080332
 10
72.5535900277008
 20
20.796853185595566
 10
72.37996675900274
 20
20.691545706371187
 10
72.21475346260385
 20
20.578437673130196
 10
72.05795013850414
 20
20.457529085872572
 10
71.90955678670358
 20
20.328819944598337
 10
71.76957340720219
 20
20.192310249307482
 10
71.63799999999998
 20
20.048000000000002
 10
71.51398337950135
 20
19.896011080332414
 10
71.39667036011079
 20
19.736465373961217
 10
71.28606094182823
 20
19.569362880886423
 10
71.18215512465372
 20
19.394703601108034
 10
71.08495290858724
 20
19.212487534626042
 10
70.99445429362879
 20
19.022714681440448
 10
70.91065927977837
 20
18.825385041551243
 10
70.83356786703598
 20
18.62049861495845
 10
70.76318005540165
 20
18.408055401662047
 10
70.69949584487532
 20
18.188055401662048
 10
70.64251523545704
 20
17.960498614958446
 10
70.5922382271468
 20
17.72538504155125
 10
70.54866481994458
 20
17.48271468144044
 10
70.51179501385039
 20
17.23248753462604
 10
70.48162880886426
 20
16.974703601108033
 10
70.45816620498613
 20
16.709362880886424
 10
70.44140720221606
 20
16.43646537396122
 10
70.43135180055401
 20
16.156011080332405
 10
70.42799999999997
 20
15.867999999999995
 10
70.42799999999997
 20
5.527999999999999
 10
61.67199999999997
 20
5.527999999999999
 10
61.67199999999997
 20
28.759999999999998
 10
68.844
 20
28.759999999999998
 10
69.41599999999997
 20
25.239999999999995
 10
69.51237370242214
 20
25.474692041522488
 10
69.6151418685121
 20
25.70253287197231
 10
69.72430449826987
 20
25.92352249134948
 10
69.83986159169547
 20
26.13766089965398
 10
69.9618131487889
 20
26.344948096885815
 10
70.09015916955016
 20
26.54538408304498
 10
70.22489965397921
 20
26.738968858131486
 10
70.3660346020761
 20
26.925702422145328
 10
70.5135640138408
 20
27.1055847750865
 10
70.66748788927333
 20
27.27861591695502
 10
70.82780622837367
 20
27.444795847750868
 10
70.99451903114186
 20
27.604124567474045
 10
71.16762629757784
 20
27.756602076124565
 10
71.34712802768163
 20
27.90222837370242
 10
71.53302422145327
 20
28.041003460207605
 10
71.7253148788927
 20
28.17292733564014
 10
71.92399999999998
 20
28.298000000000002
 10
72.12740484429065
 20
28.41606920415225
 10
72.33385467128025
 20
28.52698269896193
 10
72.54334948096883
 20
28.63074048442907
 10
72.75588927335639
 20
28.727342560553623
 10
72.9714740484429
 20
28.816788927335637
 10
73.19010380622836
 20
28.89907958477508
 10
73.41177854671278
 20
28.97421453287197
 10
73.63649826989618
 20
29.042193771626295
 10
73.86426297577853
 20
29.103017301038058
 10
74.09507266435983
 20
29.15668512110726
 10
74.32892733564012
 20
29.20319723183391
 10
74.56582698961935
 20
29.242553633217987
 10
74.80577162629757
 20
29.274754325259508
 10
75.04876124567471
 20
29.29979930795848
 10
75.29479584775083
 20
29.317688581314876
 10
75.54387543252594
 20
29.328422145328716
 10
75.79599999999999
 20
29.331999999999994
 10
76.04556249999999
 20
29.328218749999998
 10
76.28824999999998
 20
29.316874999999996
 10
76.52406249999999
 20
29.297968749999995
 10
76.75299999999999
 20
29.271499999999996
 10
76.97506249999998
 20
29.237468749999998
 10
77.19024999999999
 20
29.195875
 10
77.39856249999997
 20
29.146718749999998
 10
77.59999999999997
 20
29.089999999999996
 10
77.94649999999999
 20
28.981375
 10
78.19399999999999
 20
28.897499999999994
 10
78.34249999999997
 20
28.838375
  0
LWPOLYLINE
  5
35
330
17
100
AcDbEntity
  8
CUT
100
AcDbPolyline
 90
274
 70
1
 10
120.63199999999998
 20
20.575999999999993
 10
120.63199999999998
 20
5.527999999999999
 10
111.87599999999998
 20
5.527999999999999
 10
111.87599999999998
 20
19.519999999999996
 10
111.86999999999998
 20
19.787090909090907
 10
111.85199999999998
 20
20.044363636363634
 10
111.82199999999997
 20
20.29181818181818
 10
111.77999999999997
 20
20.52945454545454
 10
111.72599999999997
 20
20.75727272727272
 10
111.65999999999997
 20
20.975272727272724
 10
111.58199999999997
 20
21.183454545454545
 10
111.49199999999996
 20
21.381818181818176
 10
111.38999999999999
 20
21.570363636363638
 10
111.27599999999998
 20
21.74909090909091
 10
111.14999999999998
 20
21.918
 10
110.99885999999998
 20
22.08938
 10
110.83583999999999
 20
22.242720000000006
 10
110.66093999999998
 20
22.378019999999992
 10
110.47415999999998
 20
22.495279999999994
 10
110.27549999999997
 20
22.594499999999996
 10
110.06495999999999
 20
22.67568
 10
109.84253999999999
 20
22.738819999999997
 10
109.60823999999997
 20
22.783919999999995
 10
109.36205999999999
 20
22.81098
 10
109.10399999999998
 20
22.819999999999993
 10
108.85130555555554
 20
22.812666666666658
 10
108.60655555555553
 20
22.790666666666667
 10
108.36974999999998
 20
22.753999999999998
 10
108.14088888888887
 20
22.702666666666666
 10
107.91997222222221
 20
22.636666666666656
 10
107.707
 20
22.555999999999997
 10
107.50197222222221
 20
22.46066666666667
 10
107.30488888888885
 20
22.35066666666667
 10
107.11574999999999
 20
22.226
 10
106.93455555555553
 20
22.086666666666666
 10
106.76130555555554
 20
21.932666666666663
 10
106.59599999999998
 20
21.763999999999996
 10
106.44138888888887
 20
21.584638888888882
 10
106.3002222222222
 20
21.398555555555554
 10
106.17249999999999
 20
21.205749999999995
 10
106.05822222222221
 20
21.00622222222222
 10
105.95738888888886
 20
20.799972222222216
 10
105.86999999999998
 20
20.586999999999996
 10
105.79605555555554
 20
20.367305555555554
 10
105.73555555555555
 20
20.140888888888888
 10
105.68849999999998
 20
19.90775
 10
105.65488888888888
 20
19.667888888888882
 10
105.6347222222222
 20
19.421305555555556
 10
105.62799999999999
 20
19.168
 10
105.62799999999999
 20
5.527999999999999
 10
96.87199999999999
 20
5.527999999999999
 10
96.87199999999999
 20
19.519999999999996
 10
96.86599999999999
 20
19.787090909090907
 10
96.84799999999998
 20
20.044363636363634
 10
96.81799999999998
 20
20.29181818181818
 10
96.77599999999998
 20
20.52945454545454
 10
96.72199999999998
 20
20.75727272727272
 10
96.65599999999998
 20
20.975272727272724
 10
96.57799999999997
 20
21.183454545454545
 10
96.48799999999997
 20
21.381818181818176
 10
96.38599999999997
 20
21.570363636363638
 10
96.27199999999999
 20
21.74909090909091
 10
96.14599999999999
 20
21.918
 10
95.99485999999999
 20
22.08938
 10
95.83183999999997
 20
22.242720000000006
 10
95.65693999999996
 20
22.378019999999992
 10
95.47015999999996
 20
22.495279999999994
 10
95.27149999999997
 20
22.594499999999996
 10
95.06095999999997
 20
22.67568
 10
94.83853999999997
 20
22.738819999999997
 10
94.60423999999998
 20
22.783919999999995
 10
94.35805999999997
 20
22.81098
 10
94.09999999999997
 20
22.819999999999993
 10
93.84730555555552
 20
22.812666666666658
 10
93.60255555555554
 20
22.790666666666667
 10
93.36574999999999
 20
22.753999999999998
 10
93.13688888888888
 20
22.702666666666666
 10
92.9159722222222
 20
22.636666666666656
 10
92.70299999999997
 20
22.555999999999997
 10
92.49797222222219
 20
22.46066666666667
 10
92.30088888888886
 20
22.35066666666667
 10
92.11174999999997
 20
22.226
 10
91.93055555555554
 20
22.086666666666666
 10
91.75730555555555
 20
21.932666666666663
 10
91.59199999999998
 20
21.763999999999996
 10
91.43738888888888
 20
21.584638888888882
 10
91.29622222222221
 20
21.398555555555554
 10
91.1685
 20
21.205749999999995
 10
91.0542222222222
 20
21.00622222222222
 10
90.95338888888887
 20
20.799972222222216
 10
90.86599999999999
 20
20.586999999999996
 10
90.79205555555552
 20
20.367305555555554
 10
90.73155555555553
 20
20.140888888888888
 10
90.68449999999999
 20
19.90775
 10
90.65088888888886
 20
19.667888888888882
 10
90.6307222222222
 20
19.421305555555556
 10
90.62399999999997
 20
19.168
 10
90.62399999999997
 20
5.527999999999999
 10
81.86799999999997
 20
5.527999999999999
 10
81.86799999999997
 20
28.759999999999998
 10
89.03999999999999
 20
28.759999999999998
 10
89.61199999999997
 20
25.284
 10
89.75332409972299
 20
25.476393351800553
 10
89.89940166204985
 20
25.664520775623267
 10
90.05023268698059
 20
25.84838227146814
 10
90.2058171745152
 20
26.02797783933518
 10
90.36615512465372
 20
26.203307479224378
 10
90.5312465373961
 20
26.374371191135737
 10
90.70109141274236
 20
26.541168975069247
 10
90.87568975069249
 20
26.703700831024925
 10
91.05504155124652
 20
26.86196675900277
 10
91.23914681440442
 20
27.015966759002765
 10
91.4280055401662
 20
27.165700831024928
 10
91.62161772853185
 20
27.31116897506925
 10
91.81998337950137
 20
27.452371191135725
 10
92.02310249307476
 20
27.589307479224374
 10
92.23097506925205
 20
27.72197783933518
 10
92.44360110803322
 20
27.850382271468135
 10
92.66098060941826
 20
27.97452077562326
 10
92.88311357340717
 20
28.094393351800548
 10
93.10999999999999
 20
28.209999999999994
 10
93.32840499999998
 20
28.315104999999996
 10
93.54801999999998
 20
28.41481999999999
 10
93.76884499999997
 20
28.50914499999999
 10
93.99087999999998
 20
28.598080000000003
 10
94.21412499999997
 20
28.681624999999997
 10
94.43857999999997
 20
28.75978
 10
94.66424499999997
 20
28.832544999999996
 10
94.89111999999997
 20
28.899919999999995
 10
95.119205
 20
28.961905
 10
95.34849999999997
 20
29.018499999999996
 10
95.579005
 20
29.069705
 10
95.81071999999998
 20
29.115520000000004
 10
96.04364499999997
 20
29.155944999999996
 10
96.27777999999998
 20
29.190979999999996
 10
96.51312499999997
 20
29.220625
 10
96.74967999999998
 20
29.244879999999995
 10
96.98744499999998
 20
29.263745
 10
97.22641999999999
 20
29.27722
 10
97.46660499999999
 20
29.285304999999994
 10
97.70799999999997
 20
29.287999999999997
 10
97.97425641025637
 20
29.28536752136752
 10
98.23599999999999
 20
29.277470085470085
 10
98.49323076923076
 20
29.26430769230769
 10
98.74594871794869
 20
29.245880341880337
 10
98.99415384615384
 20
29.222188034188036
 10
99.23784615384614
 20
29.193230769230766
 10
99.47702564102562
 20
29.159008547008547
 10
99.71169230769229
 20
29.119521367521365
 10
99.94184615384614
 20
29.07476923076922
 10
100.16748717948715
 20
29.02475213675214
 10
100.38861538461538
 20
28.96947008547008
 10
100.60523076923076
 20
28.908923076923074
 10
100.81733333333332
 20
28.843111111111114
 10
101.02492307692305
 20
28.772034188034183
 10
101.22799999999998
 20
28.695692307692312
 10
101.42656410256407
 20
28.614085470085463
 10
101.62061538461538
 20
28.527213675213673
 10
101.81015384615384
 20
28.43507692307692
 10
101.99517948717946
 20
28.33767521367521
 10
102.17569230769229
 20
28.23500854700854
 10
102.35169230769228
 20
28.12707692307692
 10
102.52317948717948
 20
28.013880341880338
 10
102.69015384615383
 20
27.895418803418806
 10
102.85261538461538
 20
27.771692307692305
 10
103.01056410256408
 20
27.64270085470085
 10
103.16399999999999
 20
27.508444444444443
 10
103.31292307692306
 20
27.368923076923075
 10
103.45733333333331
 20
27.22413675213675
 10
103.59723076923075
 20
27.07408547008547
 10
103.73261538461537
 20
26.91876923076923
 10
103.86348717948715
 20
26.758188034188038
 10
103.98984615384614
 20
26.592341880341877
 10
104.1116923076923
 20
26.421230769230768
 10
104.22902564102563
 20
26.244854700854702
 10
104.34184615384612
 20
26.063213675213674
 10
104.45015384615382
 20
25.87630769230769
 10
104.55394871794869
 20
25.68413675213675
 10
104.65323076923073
 20
25.486700854700857
 10
104.74799999999999
 20
25.284
 10
104.89371191135734
 20
25.476393351800553
 10
105.0436897506925
 20
25.664520775623267
 10
105.19793351800553
 20
25.84838227146814
 10
105.35644321329639
 20
26.02797783933518
 10
105.51921883656507
 20
26.203307479224378
 10
105.68626038781161
 20
26.374371191135737
 10
105.85756786703598
 20
26.541168975069247
 10
106.0331412742382
 20
26.703700831024925
 10
106.21298060941825
 20
26.86196675900277
 10
106.39708587257616
 20
27.015966759002765
 10
106.58545706371189
 20
27.165700831024928
 10
106.77809418282547
 20
27.31116897506925
 10
106.97499722991688
 20
27.452371191135725
 10
107.17616620498612
 20
27.589307479224374
 10
107.38160110803324
 20
27.72197783933518
 10
107.59130193905816
 20
27.850382271468135
 10
107.80526869806093
 20
27.97452077562326
 10
108.02350138504153
 20
28.094393351800548
 10
108.24599999999998
 20
28.209999999999994
 10
108.47118005540165
 20
28.32048753462604
 10
108.69745706371188
 20
28.425002770083097
 10
108.92483102493071
 20
28.523545706371188
 10
109.15330193905817
 20
28.616116343490305
 10
109.38286980609416
 20
28.70271468144044
 10
109.61353462603876
 20
28.783340720221602
 10
109.84529639889195
 20
28.85799445983379
 10
110.07815512465373
 20
28.926675900277004
 10
110.31211080332409
 20
28.98938504155125
 10
110.54716343490304
 20
29.046121883656504
 10
110.78331301939056
 20
29.096886426592796
 10
111.02055955678668
 20
29.141678670360108
 10
111.2589030470914
 20
29.180498614958445
 10
111.49834349030468
 20
29.21334626038781
 10
111.73888088642656
 20
29.2402216066482
 10
111.98051523545703
 20
29.261124653739614
 10
112.22324653739611
 20
29.27605540166205
 10
112.46707479224375
 20
29.28501385041551
 10
112.71199999999999
 20
29.287999999999997
 10
112.99233163265305
 20
29.285109693877544
 10
113.26761224489795
 20
29.2764387755102
 10
113.53784183673469
 20
29.26198724489796
 10
113.80302040816326
 20
29.241755102040813
 10
114.06314795918365
 20
29.215742346938775
 10
114.31822448979591
 20
29.183948979591833
 10
114.56824999999998
 20
29.146375
 10
114.81322448979591
 20
29.10302040816326
 10
115.05314795918366
 20
29.05388520408163
 10
115.28802040816325
 20
28.998969387755096
 10
115.51784183673468
 20
28.938272959183678
 10
115.74261224489794
 20
28.87179591836734
 10
115.96233163265305
 20
28.799538265306126
 10
116.17699999999996
 20
28.7215
 10
116.38661734693875
 20
28.63768112244898
 10
116.59118367346937
 20
28.54808163265305
 10
116.79069897959181
 20
28.452701530612245
 10
116.98516326530608
 20
28.351540816326526
 10
117.17457653061223
 20
28.244599489795917
 10
117.35893877551018
 20
28.131877551020402
 10
117.53824999999998
 20
28.013374999999996
 10
117.71251020408161
 20
27.889091836734693
 10
117.88171938775508
 20
27.759028061224484
 10
118.0458775510204
 20
27.623183673469384
 10
118.20498469387752
 20
27.48155867346938
 10
118.35904081632651
 20
27.334153061224484
 10
118.50804591836732
 20
27.18096683673469
 10
118.65199999999999
 20
27.022
 10
118.78619738406655
 20
26.86344827586207
 10
118.91568608799048
 20
26.700344827586207
 10
119.04046611177168
 20
26.532689655172412
 10
119.1605374554102
 20
26.360482758620684
 10
119.27590011890604
 20
26.18372413793103
 10
119.3865541022592
 20
26.002413793103443
 10
119.49249940546966
 20
25.816551724137923
 10
119.59373602853742
 20
25.626137931034478
 10
119.69026397146251
 20
25.431172413793107
 10
119.78208323424491
 20
25.231655172413788
 10
119.86919381688463
 20
25.027586206896544
 10
119.95159571938166
 20
24.81896551724138
 10
120.02928894173601
 20
24.60579310344827
 10
120.10227348394767
 20
24.388068965517235
 10
120.17054934601663
 20
24.165793103448273
 10
120.23411652794289
 20
23.93896551724137
 10
120.2929750297265
 20
23.70758620689655
 10
120.3471248513674
 20
23.47165517241379
 10
120.39656599286562
 20
23.231172413793104
 10
120.44129845422114
 20
22.986137931034477
 10
120.48132223543399
 20
22.736551724137925
 10
120.51663733650415
 20
22.482413793103447
 10
120.5472437574316
 20
22.22372413793103
 10
120.57314149821639
 20
21.960482758620685
 10
120.59433055885847
 20
21.692689655172416
 10
120.61081093935789
 20
21.420344827586206
 10
120.62258263971461
 20
21.14344827586207
 10
120.62964565992863
 20
20.861999999999995
  0
LWPOLYLINE
  5
36
330
17
100
AcDbEntity
  8
CUT
100
AcDbPolyline
 90
4
 70
1
 10
124.636
 20
31.488
 10
124.636
 20
37.428
 10
133.392
 20
37.428
 10
133.392
 20
31.488
  0
LWPOLYLINE
  5
37
330
17
100
AcDbEntity
  8
CUT
100
AcDbPolyline
 90
4
 70
1
 10
124.636
 20
5.527999999999999
 10
124.636
 20
28.759999999999998
 10
133.392
 20
28.759999999999998
 10
133.392
 20
5.527999999999999
  0
LWPOLYLINE
  5
38
330
17
100
AcDbEntity
  8
CUT
100
AcDbPolyline
 90
4
 70
1
 10
137.748
 20
5.527999999999999
 10
137.748
 20
37.428
 10
146.504
 20
37.428
 10
146.504
 20
5.527999999999999
  0
LWPOLYLINE
  5
39
330
17
100
AcDbEntity
  8
CUT
100
AcDbPolyline
 90
12
 70
1
 10
166.744
 20
28.759999999999998
 10
176.95199999999997
 20
28.759999999999998
 10
168.37199999999993
 20
19.387999999999998
 10
177.172
 20
5.527999999999999
 10
167.22799999999992
 20
5.527999999999999
 10
162.34400000000002
 20
13.491999999999997
 10
159.30799999999996
 20
10.543999999999997
 10
159.30799999999996
 20
5.527999999999999
 10
150.55199999999996
 20
5.527999999999999
 10
150.55199999999996
 20
37.471999999999994
 10
159.30799999999996
 20
37.471999999999994
 10
159.30799999999996
 20
19.872
  0
ENDSEC
  0
SECTION
  2
OBJECTS
  0
DICTIONARY
  5
A
330
0
100
AcDbDictionary
281
1
  3
ACAD_COLOR
350
B
  3
ACAD_GROUP
350
C
  3
ACAD_LAYOUT
350
D
  3
ACAD_MATERIAL
350
E
  3
ACAD_MLEADERSTYLE
350
F
  3
ACAD_MLINESTYLE
350
10
  3
ACAD_PLOTSETTINGS
350
11
  3
ACAD_PLOTSTYLENAME
350
12
  3
ACAD_SCALELIST
350
14
  3
ACAD_TABLESTYLE
350
15
  3
ACAD_VISUALSTYLE
350
16
  3
EZDXF_META
350
2D
  0
DICTIONARY
  5
B
330
A
100
AcDbDictionary
281
1
  0
DICTIONARY
  5
C
330
A
100
AcDbDictionary
281
1
  0
DICTIONARY
  5
D
330
A
100
AcDbDictionary
281
1
  3
Model
350
1A
  3
Layout1
350
1E
  0
DICTIONARY
  5
E
330
A
100
AcDbDictionary
281
1
  3
ByBlock
350
1F
  3
ByLayer
350
20
  3
Global
350
21
  0
DICTIONARY
  5
F
330
A
100
AcDbDictionary
281
1
  3
Standard
350
2C
  0
DICTIONARY
  5
10
330
A
100
AcDbDictionary
281
1
  3
Standard
350
22
  0
DICTIONARY
  5
11
330
A
100
AcDbDictionary
281
1
  0
ACDBDICTIONARYWDFLT
  5
12
330
A
100
AcDbDictionary
281
1
  3
Normal
350
13
100
AcDbDictionaryWithDefault
340
13
  0
ACDBPLACEHOLDER
  5
13
330
12
  0
DICTIONARY
  5
14
330
A
100
AcDbDictionary
281
1
  0
DICTIONARY
  5
15
330
A
100
AcDbDictionary
281
1
  0
DICTIONARY
  5
16
330
A
100
AcDbDictionary
281
1
  0
LAYOUT
  5
1A
330
D
100
AcDbPlotSettings
  1

  4
A3
  6

 40
7.5
 41
20.0
 42
7.5
 43
20.0
 44
420.0
 45
297.0
 46
0.0
 47
0.0
 48
0.0
 49
0.0
140
0.0
141
0.0
142
1.0
143
1.0
 70
1024
 72
1
 73
0
 74
5
  7

 75
16
 76
0
 77
2
 78
300
147
1.0
148
0.0
149
0.0
100
AcDbLayout
  1
Model
 70
1
 71
0
 10
0.0
 20
0.0
 11
420.0
 21
297.0
 12
0.0
 22
0.0
 32
0.0
 14
1e+20
 24
1e+20
 34
1e+20
 15
-1e+20
 25
-1e+20
 35
-1e+20
146
0.0
 13
0.0
 23
0.0
 33
0.0
 16
1.0
 26
0.0
 36
0.0
 17
0.0
 27
1.0
 37
0.0
 76
1
330
17
  0
LAYOUT
  5
1E
330
D
100
AcDbPlotSettings
  1

  4
A3
  6

 40
7.5
 41
20.0
 42
7.5
 43
20.0
 44
420.0
 45
297.0
 46
0.0
 47
0.0
 48
0.0
 49
0.0
140
0.0
141
0.0
142
1.0
143
1.0
 70
0
 72
1
 73
0
 74
5
  7

 75
16
 76
0
 77
2
 78
300
147
1.0
148
0.0
149
0.0
100
AcDbLayout
  1
Layout1
 70
1
 71
1
 10
0.0
 20
0.0
 11
420.0
 21
297.0
 12
0.0
 22
0.0
 32
0.0
 14
1e+20
 24
1e+20
 34
1e+20
 15
-1e+20
 25
-1e+20
 35
-1e+20
146
0.0
 13
0.0
 23
0.0
 33
0.0
 16
1.0
 26
0.0
 36
0.0
 17
0.0
 27
1.0
 37
0.0
 76
1
330
1B
  0
MATERIAL
  5
1F
102
{ACAD_REACTORS
330
E
102
}
330
E
100
AcDbMaterial
  1
ByBlock
  2

 70
0
 40
1.0
 71
1
 41
1.0
 91
-1023410177
 42
1.0
 72
1
  3

 73
1
 74
1
 75
1
 44
0.5
 73
0
 45
1.0
 46
1.0
 77
1
  4

 78
1
 79
1
170
1
 48
1.0
171
1
  6

172
1
173
1
174
1
140
1.0
141
1.0
175
1
  7

176
1
177
1
178
1
143
1.0
179
1
  8

270
1
271
1
272
1
145
1.0
146
1.0
273
1
  9

274
1
275
1
276
1
 42
1.0
 72
1
  3

 73
1
 74
1
 75
1
 94
63
  0
MATERIAL
  5
20
102
{ACAD_REACTORS
330
E
102
}
330
E
100
AcDbMaterial
  1
ByLayer
  2

 70
0
 40
1.0
 71
1
 41
1.0
 91
-1023410177
 42
1.0
 72
1
  3

 73
1
 74
1
 75
1
 44
0.5
 73
0
 45
1.0
 46
1.0
 77
1
  4

 78
1
 79
1
170
1
 48
1.0
171
1
  6

172
1
173
1
174
1
140
1.0
141
1.0
175
1
  7

176
1
177
1
178
1
143
1.0
179
1
  8

270
1
271
1
272
1
145
1.0
146
1.0
273
1
  9

274
1
275
1
276
1
 42
1.0
 72
1
  3

 73
1
 74
1
 75
1
 94
63
  0
MATERIAL
  5
21
102
{ACAD_REACTORS
330
E
102
}
330
E
100
AcDbMaterial
  1
Global
  2

 70
0
 40
1.0
 71
1
 41
1.0
 91
-1023410177
 42
1.0
 72
1
  3

 73
1
 74
1
 75
1
 44
0.5
 73
0
 45
1.0
 46
1.0
 77
1
  4

 78
1
 79
1
170
1
 48
1.0
171
1
  6

172
1
173
1
174
1
140
1.0
141
1.0
175
1
  7

176
1
177
1
178
1
143
1.0
179
1
  8

270
1
271
1
272
1
145
1.0
146
1.0
273
1
  9

274
1
275
1
276
1
 42
1.0
 72
1
  3

 73
1
 74
1
 75
1
 94
63
  0
MLINESTYLE
  5
22
102
{ACAD_REACTORS
330
10
102
}
330
10
100
AcDbMlineStyle
  2
Standard
 70
0
  3

 62
256
 51
90.0
 52
90.0
 71
2
 49
0.5
 62
256
  6
BYLAYER
 49
-0.5
 62
256
  6
BYLAYER
  0
MLEADERSTYLE
  5
2C
102
{ACAD_REACTORS
330
F
102
}
330
F
100
AcDbMLeaderStyle
179
2
170
2
171
1
172
0
 90
2
 40
0.0
 41
0.0
173
1
 91
-1056964608
 92
-2
290
1
 42
2.0
291
1
 43
8.0
  3
Standard
 44
4.0
300

342
29
174
1
175
1
176
0
178
1
 93
-1056964608
 45
4.0
292
0
297
0
 46
4.0
 94
-1056964608
 47
1.0
 49
1.0
140
1.0
294
1
141
0.0
177
0
142
1.0
295
0
296
0
143
3.75
271
0
272
9
273
9
  0
DICTIONARY
  5
2D
330
A
100
AcDbDictionary
280
1
281
1
  3
CREATED_BY_EZDXF
350
2E
  3
WRITTEN_BY_EZDXF
350
3C
  0
DICTIONARYVAR
  5
2E
330
2D
100
DictionaryVariables
280
0
  1
1.4.4 @ 2026-10-09T14:12:08.574673+00:00
  0
DICTIONARYVAR
  5
3C
330
2D
100
DictionaryVariables
280
0
  1
1.4.4 @ 2026-10-09T14:12:08.828970+00:00
  0
ENDSEC
  0
EOF
